<svg width="73" height="74" viewBox="0 0 73 74" fill="none" xmlns="http://www.w3.org/2000/svg">
<g clip-path="url(#clip0_218_14672)">
<path d="M36.4996 21.094L44.4894 39.3565H28.5098L36.4996 21.094Z" fill="#6E6E6E"/>
<path fill-rule="evenodd" clip-rule="evenodd" d="M35.8317 0.516721C36.2685 0.391887 36.7317 0.391887 37.1686 0.516721L71.2353 10.2501C72.3766 10.5762 73.1163 11.6785 72.9854 12.8585L68.1187 56.6584C68.0272 57.4789 67.5265 58.1972 66.7882 58.5661L37.5883 73.1661C36.9033 73.5088 36.0969 73.5088 35.4119 73.1661L6.21191 58.5661C5.47364 58.1972 4.97281 57.4789 4.88166 56.6584L0.0150134 12.8585C-0.116092 11.6785 0.62344 10.5762 1.76497 10.2501L35.8317 0.516721ZM36.5003 8.95217L55.7628 52.9811L51.3044 54.9317L46.6194 44.2231H26.3814L21.6963 54.9317L17.2377 52.9811L36.5003 8.95217Z" fill="#6E6E6E"/>
</g>
<defs>
<clipPath id="clip0_218_14672">
<rect width="73" height="73" fill="white" transform="translate(0 0.423096)"/>
</clipPath>
</defs>
</svg>
