<svg width="82" height="83" viewBox="0 0 82 83" fill="none" xmlns="http://www.w3.org/2000/svg">
<path d="M0 71.85C0 77.69 4.73375 82.4231 10.5731 82.4231H71.4269C77.2669 82.4231 82 77.6893 82 71.85V10.9962C82 5.1562 77.2663 0.423096 71.4269 0.423096H10.5731C4.73311 0.423096 0 5.15684 0 10.9962V71.85Z" fill="#6E6E6E"/>
<path d="M34.003 36.6947V25.0822H44.2248C45.1983 25.0822 46.137 25.1633 47.041 25.3256C47.9449 25.4878 48.7446 25.7776 49.4399 26.1948C50.1353 26.612 50.6916 27.1915 51.1088 27.9332C51.526 28.6749 51.7346 29.6252 51.7346 30.7841C51.7346 32.8702 51.1088 34.3768 49.8572 35.304C48.6055 36.2311 47.0062 36.6947 45.0592 36.6947H34.003ZM23.0859 16.5989V66.2473H47.1453C49.3704 66.2473 51.5376 65.9692 53.6468 65.4129C55.7561 64.8566 57.6335 63.999 59.2792 62.8401C60.9249 61.6811 62.2345 60.1861 63.208 58.355C64.1815 56.5239 64.6682 54.3567 64.6682 51.8534C64.6682 48.7475 63.9149 46.0936 62.4083 43.8916C60.9017 41.6896 58.6187 40.1483 55.5591 39.2675C57.7842 38.2013 59.4647 36.8338 60.6004 35.1649C61.7362 33.496 62.304 31.41 62.304 28.9067C62.304 26.5888 61.9216 24.6418 61.1567 23.0657C60.3918 21.4895 59.314 20.2263 57.9233 19.276C56.5326 18.3257 54.8637 17.6419 52.9167 17.2247C50.9697 16.8075 48.8141 16.5989 46.4499 16.5989H23.0859ZM34.003 57.764V44.135H45.8936C48.2578 44.135 50.1585 44.6797 51.5955 45.7691C53.0326 46.8585 53.7512 48.678 53.7512 51.2276C53.7512 52.5256 53.531 53.5918 53.0906 54.4263C52.6502 55.2607 52.0591 55.9213 51.3174 56.408C50.5757 56.8948 49.7181 57.2425 48.7446 57.4511C47.7711 57.6597 46.7512 57.764 45.685 57.764H34.003Z" fill="white"/>
</svg>
