<svg width="134" height="91" viewBox="0 0 134 91" fill="none" xmlns="http://www.w3.org/2000/svg">
<g clip-path="url(#clip0_1221_19352)">
<path fill-rule="evenodd" clip-rule="evenodd" d="M89.6681 79.1922L66.7557 72.8314L60 15.563H119.394L112.643 72.8225L89.6681 79.1922ZM73.355 41.4858L73.9845 48.5095H98.3268L97.5114 57.6186L89.6776 59.733L89.6707 59.7353L81.8483 57.6232L81.3483 52.0213H74.2975L75.2816 63.0498L89.6691 67.0438L104.077 63.0495L105.833 43.3719L106.004 41.4858L107.273 27.2694H72.0902L72.7287 34.2931H99.575L98.9359 41.4858H73.355Z" fill="#6F6F6F"/>
</g>
<path d="M0.00341663 3L7.03193 81.8376L38.5731 90.595L70.1997 81.8273L77.235 3.00342H0L0.00341663 3ZM29.1425 23.4158L27.745 38.5902L60.7896 38.5936L60.5539 41.1904L58.2816 66.6461L58.1381 68.2794L38.3066 73.7771L18.5024 68.2794L17.1493 53.0982H26.8532L27.5434 60.8101L38.3203 63.7145L49.1039 60.8033L50.2246 48.2633L17.18 48.2599L17.4158 45.6631L19.688 20.2074L20.4022 13.0798H58.9684L59.416 18.5399L60.793 33.7553H51.0857L50.1905 23.7712L40.3191 23.1766H38.5594V23.163L29.1459 23.4158H29.1425Z" fill="#6E6E6E"/>
<defs>
<clipPath id="clip0_1221_19352">
<rect width="79.1923" height="79.1923" fill="white" transform="translate(54)"/>
</clipPath>
</defs>
</svg>
