<svg width="616" height="414" viewBox="0 0 616 414" fill="none" xmlns="http://www.w3.org/2000/svg">
<path d="M545.685 180.99C520.427 159.445 489.978 29.5127 385.668 97.185C331.776 132.149 240.901 67.1693 165.683 89.6133C96.6055 110.224 89.9469 178.135 96.6305 200.264C110.132 244.962 68.1165 251.614 29.1409 270.82C-31.9974 300.944 13.3125 407.938 71.0698 408.444C128.827 408.951 478.282 408.444 478.282 408.444C478.282 408.444 562.287 406.526 597.178 360.217C634.726 310.383 610.924 236.64 545.685 180.99Z" fill="#FFB398"/>
<path d="M107.709 2.98767C107.505 1.16713 110.136 0.290153 111.513 1.70993C125.497 16.1221 158.202 58.1855 141.056 122.793C119.545 203.854 135.832 236.325 158.394 257.643C158.394 257.643 125.424 244.94 107.687 211.848C64.1409 130.598 111.333 35.3536 107.709 2.98767Z" fill="#7ED321"/>
<path d="M116.408 30.155C117.247 39.5662 117.87 48.9809 118.097 58.3887C118.381 67.7969 118.335 77.1977 117.951 86.5728C117.526 95.9456 116.898 105.304 115.812 114.611C114.773 123.924 113.273 133.173 111.73 142.454C110.246 151.739 108.691 161.084 108.24 170.627C107.781 180.151 108.628 189.914 111.502 199.317C112.222 201.66 112.993 204.004 113.914 206.288C114.787 208.587 115.777 210.857 116.812 213.111C118.909 217.614 121.349 222.014 124.15 226.249C129.775 234.707 136.851 242.459 144.856 249.262C145.699 249.978 147.027 249.986 147.825 249.28C148.608 248.586 148.586 247.462 147.787 246.744L147.782 246.739C145.887 245.038 144.016 243.321 142.237 241.541C141.331 240.663 140.471 239.752 139.592 238.856C138.753 237.932 137.872 237.037 137.066 236.092C133.768 232.364 130.766 228.449 128.108 224.371C122.75 216.243 118.739 207.421 115.973 198.443C114.649 193.941 113.705 189.373 113.169 184.771C112.637 180.168 112.509 175.535 112.688 170.9C113.044 161.626 114.494 152.364 115.899 143.068C117.291 133.769 118.616 124.412 119.492 115.01C119.945 110.311 120.301 105.603 120.558 100.888C120.702 98.5317 120.794 96.1731 120.89 93.8135C120.961 91.4532 121.016 89.0925 121.049 86.7312C121.161 77.2834 120.94 67.8269 120.375 58.3796C119.757 48.9333 118.852 39.4966 117.529 30.0921C117.491 29.8234 117.211 29.6244 116.902 29.6482C116.603 29.6699 116.387 29.8958 116.408 30.155Z" fill="white"/>
<path d="M125.241 200.463C123.25 202.415 119.912 201.698 118.863 199.115C113.074 184.86 100.356 143.077 125.942 96.5355C147.55 57.2332 155.53 33.8676 158.418 23.0096C159.03 20.7142 162.217 20.5326 163.089 22.7425C172.712 47.1241 197.396 129.739 125.241 200.463Z" fill="#417505"/>
<path d="M128.071 195.039C128.002 195.049 127.932 195.051 127.86 195.049C127.261 195.015 126.8 194.502 126.833 193.902C126.871 193.222 130.894 125.208 158.468 69.2035C158.733 68.6656 159.386 68.4431 159.926 68.7082C160.466 68.9745 160.687 69.6248 160.422 70.1649C133.048 125.762 129.044 193.345 129.007 194.02C128.978 194.55 128.577 194.969 128.071 195.039Z" fill="white"/>
<path d="M521.222 324.152C521.222 328.164 517.936 331.447 513.919 331.447H119.034C115.017 331.447 111.731 328.164 111.731 324.152L108.445 97.2218C108.445 93.208 113.173 85.3755 121.836 85.9641L507.762 75.9789C512.801 75.8474 517.674 77.7879 521.243 81.3447C524.811 84.9014 526.764 89.7647 526.645 94.7993L521.222 324.152Z" fill="black"/>
<path d="M514.011 317.152C514.011 320.953 510.902 324.062 507.103 324.062H128.555C124.754 324.062 121.646 320.953 121.646 317.152L118.545 111.143C118.91 98.7462 129.779 94.2901 136.367 94.5532L506.255 84.6304C509.794 84.5351 513.22 85.8984 515.726 88.4004C518.233 90.9023 519.602 94.3241 519.513 97.865L514.011 317.152Z" fill="#F1F1F1"/>
<path d="M529.082 350.286H97.3597C92.0473 350.286 87.7012 345.8 87.7012 340.317C87.7012 334.834 92.0473 330.347 97.3597 330.347H529.082C534.394 330.347 538.742 334.834 538.742 340.317C538.742 345.8 534.394 350.286 529.082 350.286Z" fill="black"/>
<path d="M499.755 315.652H400.056C396.395 315.652 393.428 312.684 393.428 309.023V160.301C393.428 156.64 396.395 153.673 400.056 153.673H499.755C503.416 153.673 506.384 156.64 506.384 160.301V309.023C506.384 312.684 503.416 315.652 499.755 315.652Z" fill="#E04048"/>
<g opacity="0.75">
<path d="M494.175 128.37H410.467" stroke="white" stroke-width="3" stroke-miterlimit="10"/>
<path d="M493.681 141.249H409.973" stroke="white" stroke-width="3" stroke-miterlimit="10"/>
<path d="M494.175 152.64H410.467" stroke="white" stroke-width="3" stroke-miterlimit="10"/>
<path d="M493.681 165.519H409.973" stroke="white" stroke-width="3" stroke-miterlimit="10"/>
<path d="M494.175 176.416H410.467" stroke="white" stroke-width="3" stroke-miterlimit="10"/>
<path d="M493.681 189.293H409.973" stroke="white" stroke-width="3" stroke-miterlimit="10"/>
<path d="M494.175 200.686H410.467" stroke="white" stroke-width="3" stroke-miterlimit="10"/>
<path d="M493.681 213.564H409.973" stroke="white" stroke-width="3" stroke-miterlimit="10"/>
<path d="M494.175 210.114H410.467" stroke="white" stroke-width="3" stroke-miterlimit="10"/>
<path d="M493.681 222.992H409.973" stroke="white" stroke-width="3" stroke-miterlimit="10"/>
<path d="M494.175 234.383H410.467" stroke="white" stroke-width="3" stroke-miterlimit="10"/>
<path d="M493.681 247.262H409.973" stroke="white" stroke-width="3" stroke-miterlimit="10"/>
<path d="M494.175 258.159H410.467" stroke="white" stroke-width="3" stroke-miterlimit="10"/>
<path d="M493.681 271.036H409.973" stroke="white" stroke-width="3" stroke-miterlimit="10"/>
<path d="M494.175 282.429H410.467" stroke="white" stroke-width="3" stroke-miterlimit="10"/>
<path d="M493.681 295.307H409.973" stroke="white" stroke-width="3" stroke-miterlimit="10"/>
</g>
<path d="M501.643 144.954L136.19 147.432C132.549 147.456 129.582 145.207 129.582 142.423V111.077C129.582 108.385 132.366 106.174 135.885 106.072L501.337 95.5324C505.05 95.4258 508.136 97.6975 508.136 100.537V139.946C508.136 142.696 505.238 144.93 501.643 144.954Z" fill="#9F9F9F"/>
<path d="M396.597 118.204H139.803" stroke="white" stroke-width="3" stroke-miterlimit="10"/>
<path d="M376.505 285.371H267.647C258.436 285.371 250.969 277.905 250.969 268.695V175.203C250.969 165.993 258.436 158.526 267.647 158.526H376.505C380.952 158.526 384.558 162.131 384.558 166.578V277.32C384.558 281.766 380.952 285.371 376.505 285.371Z" stroke="#E04048" stroke-width="2" stroke-miterlimit="10"/>
<path d="M386.105 310.265C385.999 312.275 384.344 313.855 382.332 313.867L132.5 315.446C129.448 315.421 126.988 312.94 126.988 309.888V297.336C126.988 295.118 128.785 293.321 131.002 293.321H383.874C385.513 293.321 386.841 294.648 386.841 296.288L386.105 310.265Z" fill="#9F9F9F"/>
<path d="M236.869 282.445H133.318C129.819 282.445 126.982 279.61 126.982 276.111V161.237C126.982 157.738 129.819 154.901 133.318 154.901H236.869C240.367 154.901 243.203 157.738 243.203 161.237V276.111C243.203 279.61 240.367 282.445 236.869 282.445Z" stroke="#E04048" stroke-width="2" stroke-miterlimit="10"/>
<path d="M275.741 131.082H139.803" stroke="white" stroke-width="3" stroke-miterlimit="10"/>
<path d="M180.323 203.556L138.692 203.86C137.911 203.866 137.279 204.525 137.287 205.324L137.597 236.513C137.605 237.313 138.255 237.964 139.039 237.955C146.286 237.877 179.849 237.52 181.386 237.61C182.909 237.701 182.07 211.464 181.838 204.978C181.81 204.176 181.142 203.55 180.323 203.556Z" fill="white"/>
<path d="M138.995 236.786C138.854 236.783 138.743 236.667 138.741 236.526L138.434 205.299C138.434 205.229 138.459 205.165 138.506 205.114C138.555 205.064 138.618 205.037 138.688 205.036L180.314 204.783C180.461 204.782 180.581 204.894 180.586 205.038C181.156 221.043 181.173 233.308 180.631 236.297L180.617 236.375H180.535C174.801 236.355 144.75 236.717 139 236.786H139.001H138.995ZM138.688 205.222C138.667 205.222 138.65 205.229 138.637 205.245C138.622 205.259 138.616 205.274 138.616 205.294L138.922 236.528C138.924 236.568 138.954 236.599 138.992 236.6L138.997 236.693L138.994 236.6C144.717 236.531 174.508 236.168 180.45 236.182C180.976 233.074 180.953 220.902 180.387 205.048C180.386 205.009 180.353 204.978 180.312 204.978L138.688 205.222Z" fill="#FF6129"/>
<path d="M175.135 233.284L147.799 232.9C146.973 232.888 146.458 231.974 146.874 231.258L157.443 213.082C157.89 212.314 159.015 212.365 159.386 213.171L164.649 224.622C164.963 225.305 165.855 225.491 166.411 224.987L168.549 223.05C169.047 222.598 169.836 222.687 170.224 223.241L176.062 231.548C176.586 232.295 176.05 233.297 175.135 233.284Z" fill="#E04048"/>
<path d="M144.281 212.623C144.289 214.756 146 216.479 148.109 216.473C150.228 216.466 151.947 214.719 151.94 212.567C151.935 210.417 150.203 208.692 148.083 208.717C145.971 208.739 144.273 210.488 144.281 212.623Z" fill="#E04048"/>
<path d="M231.36 203.556L189.73 203.86C188.948 203.866 188.316 204.525 188.324 205.324L188.634 236.513C188.642 237.313 189.292 237.964 190.077 237.955C197.323 237.877 230.886 237.52 232.423 237.61C233.946 237.701 233.107 211.464 232.875 204.978C232.847 204.176 232.179 203.55 231.36 203.556Z" fill="white"/>
<path d="M190.03 236.786C189.89 236.784 189.778 236.667 189.776 236.526L189.469 205.3C189.469 205.229 189.494 205.166 189.541 205.115C189.59 205.065 189.654 205.038 189.723 205.036L231.349 204.783C231.496 204.782 231.617 204.895 231.621 205.039C232.192 221.044 232.209 233.309 231.666 236.297L231.652 236.376H231.57C225.836 236.355 195.785 236.717 190.035 236.786H190.036H190.03ZM189.723 205.222C189.702 205.222 189.685 205.229 189.672 205.245C189.657 205.26 189.651 205.275 189.651 205.295L189.958 236.529C189.959 236.568 189.989 236.599 190.027 236.6L190.032 236.693L190.029 236.6C195.752 236.531 225.543 236.168 231.485 236.183C232.011 233.074 231.989 220.902 231.423 205.049C231.422 205.009 231.389 204.979 231.347 204.979L189.723 205.222Z" fill="#FF6129"/>
<path d="M226.174 233.284L198.838 232.9C198.012 232.888 197.497 231.974 197.913 231.258L208.482 213.082C208.929 212.314 210.054 212.365 210.425 213.171L215.688 224.622C216.002 225.305 216.894 225.491 217.45 224.987L219.588 223.05C220.086 222.598 220.875 222.687 221.263 223.241L227.101 231.548C227.625 232.295 227.089 233.297 226.174 233.284Z" fill="#E04048"/>
<path d="M195.316 212.623C195.324 214.756 197.035 216.479 199.144 216.473C201.263 216.466 202.982 214.719 202.975 212.567C202.97 210.417 201.238 208.692 199.118 208.717C197.006 208.739 195.308 210.488 195.316 212.623Z" fill="#E04048"/>
<path d="M180.323 240.983L138.692 241.29C137.911 241.294 137.279 241.953 137.287 242.753L137.597 273.939C137.605 274.74 138.255 275.392 139.039 275.383C146.286 275.304 179.849 274.946 181.386 275.037C182.909 275.127 182.07 248.893 181.838 242.408C181.81 241.605 181.142 240.978 180.323 240.983Z" fill="white"/>
<path d="M138.995 274.212C138.854 274.21 138.743 274.094 138.741 273.954L138.434 242.728C138.434 242.657 138.459 242.594 138.506 242.543C138.555 242.492 138.618 242.466 138.688 242.465L180.314 242.212C180.461 242.211 180.581 242.323 180.586 242.467C181.156 258.472 181.173 270.735 180.631 273.723L180.617 273.803H180.535C174.801 273.782 144.75 274.143 139 274.212H139.001H138.995ZM138.688 242.649C138.667 242.649 138.65 242.657 138.637 242.672C138.622 242.686 138.616 242.704 138.616 242.723L138.922 273.956C138.924 273.996 138.954 274.026 138.992 274.027L138.997 274.119L138.994 274.026C144.717 273.957 174.508 273.594 180.45 273.609C180.976 270.5 180.953 258.329 180.387 242.476C180.386 242.436 180.353 242.404 180.312 242.406L138.688 242.649Z" fill="#FF6129"/>
<path d="M175.135 270.711L147.799 270.328C146.973 270.315 146.458 269.401 146.874 268.685L157.443 250.509C157.89 249.741 159.015 249.792 159.386 250.599L164.649 262.049C164.963 262.732 165.855 262.918 166.411 262.414L168.549 260.477C169.047 260.025 169.836 260.114 170.224 260.668L176.062 268.976C176.586 269.722 176.05 270.724 175.135 270.711Z" fill="#FF6129"/>
<path d="M144.281 250.05C144.289 252.183 146 253.906 148.109 253.9C150.228 253.894 151.947 252.146 151.94 249.994C151.935 247.844 150.203 246.119 148.083 246.144C145.971 246.167 144.273 247.915 144.281 250.05Z" fill="#FF6129"/>
<path d="M231.36 240.983L189.73 241.29C188.948 241.294 188.316 241.953 188.324 242.753L188.634 273.939C188.642 274.74 189.292 275.392 190.077 275.383C197.323 275.304 230.886 274.946 232.423 275.037C233.946 275.127 233.107 248.893 232.875 242.408C232.847 241.605 232.179 240.978 231.36 240.983Z" fill="white"/>
<path d="M190.03 274.212C189.89 274.21 189.778 274.094 189.776 273.954L189.469 242.728C189.469 242.658 189.494 242.594 189.541 242.543C189.59 242.492 189.654 242.466 189.723 242.465L231.349 242.212C231.496 242.211 231.617 242.323 231.621 242.467C232.192 258.472 232.209 270.735 231.666 273.724L231.652 273.803H231.57C225.836 273.783 195.785 274.143 190.035 274.212H190.036H190.03ZM189.723 242.65C189.702 242.65 189.685 242.658 189.672 242.672C189.657 242.686 189.651 242.704 189.651 242.723L189.958 273.956C189.959 273.996 189.989 274.026 190.027 274.028L190.032 274.119L190.029 274.026C195.752 273.957 225.543 273.594 231.485 273.609C232.011 270.5 231.989 258.33 231.423 242.476C231.422 242.436 231.389 242.405 231.347 242.406L189.723 242.65Z" fill="#FF6129"/>
<path d="M226.174 270.711L198.838 270.328C198.012 270.315 197.497 269.401 197.913 268.685L208.482 250.509C208.929 249.741 210.054 249.792 210.425 250.599L215.688 262.049C216.002 262.732 216.894 262.918 217.45 262.414L219.588 260.477C220.086 260.025 220.875 260.114 221.263 260.668L227.101 268.976C227.625 269.722 227.089 270.724 226.174 270.711Z" fill="#FF6129"/>
<path d="M195.316 250.05C195.324 252.183 197.035 253.906 199.144 253.9C201.263 253.894 202.982 252.146 202.975 249.994C202.97 247.844 201.238 246.119 199.118 246.144C197.006 246.167 195.308 247.915 195.316 250.05Z" fill="#FF6129"/>
<path d="M228.713 212.296L229.672 208.267L228.433 199.679C228.152 198.045 228.658 196.376 229.795 195.171L234.225 189.496C234.225 189.496 237.532 188.118 236.815 192.66C235.908 198.395 235.147 200.657 235.247 201.668C235.247 201.668 232.362 211.377 231.94 211.749C230.831 212.726 230.273 213.139 228.973 212.438L228.713 212.296Z" fill="#F7B385"/>
<path d="M229.963 208.604C229.963 208.604 208.239 237.282 184.963 241.204C184.963 241.204 178.948 248.521 180.551 252.549C181.705 255.445 190.253 255.233 191.635 255.959C191.635 255.959 223.148 233.372 232.26 211.43L229.963 208.604Z" fill="#F7B385"/>
<path d="M180.323 163.861L138.692 164.165C137.911 164.171 137.279 164.83 137.287 165.63L137.597 196.817C137.605 197.618 138.255 198.269 139.039 198.261C146.286 198.182 179.849 197.824 181.386 197.915C182.909 198.005 182.07 171.769 181.838 165.284C181.81 164.482 181.142 163.856 180.323 163.861Z" fill="white"/>
<path d="M138.995 197.091C138.854 197.089 138.743 196.972 138.741 196.831L138.434 165.604C138.434 165.534 138.459 165.471 138.506 165.42C138.555 165.37 138.618 165.342 138.688 165.341L180.314 165.088C180.461 165.087 180.581 165.2 180.586 165.344C181.156 181.35 181.173 193.613 180.631 196.602L180.617 196.681H180.535C174.801 196.661 144.75 197.022 139 197.091H139.001H138.995ZM138.688 165.527C138.667 165.527 138.65 165.534 138.637 165.55C138.622 165.565 138.616 165.579 138.616 165.6L138.922 196.834C138.924 196.872 138.954 196.904 138.992 196.905L138.997 196.998L138.994 196.905C144.717 196.835 174.508 196.473 180.45 196.488C180.976 193.379 180.953 181.207 180.387 165.354C180.386 165.314 180.353 165.283 180.312 165.283L138.688 165.527Z" fill="#FF6129"/>
<path d="M175.135 193.59L147.799 193.205C146.973 193.193 146.458 192.278 146.874 191.563L157.443 173.387C157.89 172.618 159.015 172.668 159.386 173.475L164.649 184.926C164.963 185.61 165.855 185.795 166.411 185.292L168.549 183.354C169.047 182.903 169.836 182.993 170.224 183.545L176.062 191.854C176.586 192.599 176.05 193.603 175.135 193.59Z" fill="#E04048"/>
<path d="M144.281 172.927C144.289 175.06 146 176.785 148.109 176.778C150.228 176.772 151.947 175.023 151.94 172.872C151.935 170.721 150.203 168.996 148.083 169.02C145.971 169.043 144.273 170.793 144.281 172.927Z" fill="#E04048"/>
<path d="M332.112 209.335L307.212 209.517C306.744 209.521 306.366 209.915 306.371 210.393L306.556 229.047C306.561 229.526 306.95 229.915 307.419 229.91C311.753 229.864 331.828 229.649 332.747 229.703C333.658 229.758 333.156 214.065 333.018 210.186C333.001 209.707 332.602 209.332 332.112 209.335Z" fill="white"/>
<path d="M307.392 229.211C307.308 229.209 307.242 229.14 307.24 229.055L307.057 210.378C307.057 210.336 307.072 210.298 307.1 210.267C307.129 210.238 307.167 210.221 307.209 210.221L332.106 210.069C332.194 210.069 332.266 210.136 332.269 210.222C332.61 219.796 332.62 227.13 332.296 228.918L332.287 228.965H332.238C328.808 228.954 310.834 229.169 307.395 229.211H307.396H307.392ZM307.209 210.332C307.196 210.332 307.186 210.336 307.178 210.345C307.169 210.354 307.166 210.363 307.166 210.375L307.349 229.057C307.35 229.08 307.368 229.099 307.39 229.1L307.394 229.155L307.392 229.1C310.815 229.057 328.633 228.841 332.187 228.85C332.502 226.991 332.489 219.71 332.15 210.228C332.149 210.204 332.13 210.186 332.105 210.186L307.209 210.332Z" fill="#FF6129"/>
<path d="M329.009 227.117L312.659 226.886C312.165 226.88 311.857 226.332 312.106 225.905L318.427 215.033C318.695 214.573 319.368 214.603 319.589 215.085L322.737 221.935C322.925 222.344 323.459 222.455 323.791 222.153L325.07 220.995C325.368 220.725 325.84 220.778 326.072 221.109L329.563 226.078C329.877 226.524 329.557 227.124 329.009 227.117Z" fill="#E04048"/>
<path d="M310.555 214.758C310.559 216.034 311.582 217.066 312.844 217.062C314.111 217.057 315.14 216.011 315.136 214.725C315.132 213.438 314.096 212.407 312.829 212.421C311.565 212.435 310.55 213.482 310.555 214.758Z" fill="#E04048"/>
<path d="M217.489 175.657L204.406 175.752C204.161 175.754 203.962 175.961 203.965 176.212L204.062 186.013C204.065 186.264 204.269 186.469 204.516 186.467C206.793 186.442 217.34 186.329 217.823 186.358C218.302 186.386 218.038 178.141 217.965 176.103C217.956 175.851 217.746 175.655 217.489 175.657Z" fill="white"/>
<path d="M204.501 186.099C204.456 186.098 204.422 186.062 204.421 186.018L204.324 176.204C204.324 176.182 204.332 176.162 204.347 176.146C204.362 176.131 204.382 176.122 204.404 176.122L217.485 176.042C217.532 176.042 217.569 176.077 217.571 176.122C217.75 181.153 217.755 185.006 217.585 185.946L217.58 185.97H217.555C215.753 185.964 206.309 186.077 204.502 186.099H204.502H204.501ZM204.404 176.18C204.398 176.18 204.392 176.182 204.388 176.187C204.383 176.192 204.382 176.197 204.382 176.203L204.478 186.018C204.478 186.03 204.488 186.04 204.5 186.041L204.501 186.07L204.5 186.041C206.299 186.019 215.661 185.905 217.528 185.91C217.693 184.933 217.686 181.108 217.508 176.126C217.508 176.113 217.498 176.104 217.484 176.104L204.404 176.18Z" fill="#FF6129"/>
<path d="M215.857 184.999L207.267 184.877C207.007 184.874 206.845 184.586 206.976 184.362L210.297 178.65C210.438 178.408 210.791 178.424 210.908 178.677L212.562 182.276C212.66 182.491 212.941 182.549 213.116 182.391L213.787 181.782C213.944 181.64 214.192 181.668 214.314 181.842L216.148 184.453C216.313 184.687 216.145 185.003 215.857 184.999Z" fill="#E04048"/>
<path d="M206.162 178.506C206.165 179.176 206.702 179.718 207.365 179.716C208.031 179.714 208.571 179.164 208.569 178.488C208.567 177.812 208.023 177.27 207.357 177.278C206.693 177.285 206.16 177.835 206.162 178.506Z" fill="#E04048"/>
<path d="M132.254 400.535L131.63 405.658C130.982 408.092 127.848 414.226 123.825 413.826C121.35 413.58 121.053 406.351 121.397 405.267C122.025 403.29 123.176 400.322 124.833 398.574H130.516C131.567 398.574 132.381 399.492 132.254 400.535Z" fill="#15355F"/>
<path d="M176.76 340.532L177.718 346.172C177.718 346.172 174.507 378.706 173.935 391.719C173.846 393.76 174.374 395.774 175.445 397.513L181.031 406.581L166.837 398.207L166.553 396.474L168.877 393.281L165.834 356.837C165.655 354.696 166.096 352.549 167.105 350.652L170.042 345.138L176.76 340.532Z" fill="#FFD3B6"/>
<path d="M181.964 407.895H177.435C176.587 407.895 175.787 407.507 175.27 406.834C173.858 404.999 170.933 401.421 169.535 401.327C167.651 401.202 167.891 407.895 167.891 407.895H166.836L165.498 399.577C165.161 397.483 166.203 395.41 168.082 394.43C168.082 394.43 168.514 397.612 170.848 399.02C173.182 400.429 180.347 405.471 180.347 405.471C180.347 405.471 181.224 405.346 182.188 405.52C183.617 405.778 183.417 407.895 181.964 407.895Z" fill="#15355F"/>
<path d="M157.319 343.211C157.319 343.211 138.504 378.902 135.513 387.05C132.522 395.2 131.474 401.997 131.434 402.64C131.372 403.647 130.121 404.613 126.672 404.613C124.892 404.613 124.02 403.898 123.594 403.207C123.23 402.619 123.21 401.88 123.518 401.26C124.605 399.056 128.06 392.018 129.339 388.825C130.866 385.013 134.152 367.739 135.953 361.732C137.755 355.727 139.791 349.212 147.637 343.211C147.637 343.211 153.023 337.936 157.319 343.211Z" fill="#FFD3B6"/>
<path d="M135.545 247.633C138.354 236.287 147.579 226.817 158.032 224.25C159.952 223.778 161.027 221.788 160.533 219.873C160.53 219.86 160.526 219.847 160.522 219.834C158.86 213.306 162.955 207.988 169.266 206.382C175.576 204.775 181.715 207.487 183.377 214.015C184.499 218.421 183.289 223.429 180.447 226.718C179.275 228.072 179.221 230.059 180.412 231.396C186.973 238.756 189.821 250.142 187.273 260.439C183.52 275.601 169.488 282.639 155.203 279.103C140.919 275.568 131.792 262.796 135.545 247.633Z" fill="black"/>
<path d="M140.266 261.926L140.538 261.727C137.918 258.172 137.48 252.971 139.396 248.152C140.916 244.324 143.709 240.795 148.184 237.043C149.851 235.645 151.624 234.313 153.336 233.027C155.399 231.477 157.531 229.875 159.503 228.141C161.276 226.581 163.134 224.651 163.48 222.174C163.653 220.939 163.439 219.63 163.231 218.366C162.908 216.386 162.602 214.518 163.735 213.056L163.468 212.851C162.246 214.426 162.578 216.457 162.899 218.42C163.101 219.659 163.311 220.943 163.146 222.127C162.816 224.496 161.007 226.369 159.28 227.889C157.318 229.613 155.19 231.212 153.133 232.756C151.416 234.047 149.641 235.38 147.967 236.783C143.448 240.572 140.624 244.146 139.081 248.027C137.124 252.954 137.579 258.278 140.266 261.926Z" fill="white"/>
<path d="M147.067 263.959L147.382 263.838C145.549 259.091 145.929 253.198 148.424 247.676C150.899 242.202 155.04 237.692 158.37 234.375L158.132 234.136C154.782 237.473 150.615 242.014 148.118 247.538C145.585 253.142 145.201 259.128 147.067 263.959Z" fill="white"/>
<path d="M169.181 285.191C171.322 273.386 168.092 264.746 164.901 259.483C162.355 255.286 163.706 249.857 167.937 247.367C174.549 243.475 181.36 241.461 181.36 241.461C181.36 241.461 195.345 250.602 194.152 258.393C193.451 262.96 186.102 285.948 186.102 285.948C186.102 285.948 178.409 290.095 169.181 285.191Z" fill="#5E5E5E"/>
<path d="M158.443 294.912C160.419 288.962 169.204 284.729 169.204 284.729C178.163 290.111 186.063 286.371 186.063 286.371C186.063 286.371 187.835 293.143 186.611 299.437C185.389 305.729 177.717 346.171 177.717 346.171C165.629 348.621 147.039 343.708 147.039 343.708C154.739 330.039 156.469 300.861 158.443 294.912Z" fill="#1F9FEE"/>
<path d="M172.096 228.415L168.955 246.301C168.648 247.877 170.059 247.556 171.623 247.188C174.182 246.584 177.465 245.431 178.487 243.372C178.591 243.162 178.637 242.928 178.658 242.696L179.797 230.34C179.886 229.36 179.317 228.439 178.401 228.081L175.067 226.779C173.784 226.278 172.359 227.062 172.096 228.415Z" fill="#F7B385"/>
<path d="M229.605 229.01C229.605 229.01 211.945 262.141 171.685 250.117C169.11 249.348 166.394 250.802 165.634 253.379L165.221 254.773C164.119 258.507 166.539 262.366 170.384 262.982C184.155 265.189 214.553 266.059 231.463 235.817L229.605 229.01Z" fill="#F7B385"/>
<path d="M231.461 235.817C231.461 235.817 234.634 230.487 235.888 227C237.142 223.515 237.049 215.07 235.978 212.475C234.909 209.879 233.469 215.378 232.215 217.84C230.963 220.302 231.353 224.28 231.353 224.28L229.602 229.011L231.461 235.817Z" fill="#F7B385"/>
<path d="M180.005 213.56C180.005 213.56 190.291 227.879 184.176 232.062C178.059 236.244 170.736 226.068 170.736 226.068C170.736 226.068 168.338 218.222 170.818 215.552C173.299 212.881 180.005 213.56 180.005 213.56Z" fill="#F7B385"/>
<path d="M175.742 210.125C175.742 210.125 180.105 211.147 180.721 213.119C181.338 215.09 174.547 216.938 172.643 217.033L171.128 225C171.128 225 166.574 217.519 168.36 213.189C170.146 208.857 175.742 210.125 175.742 210.125Z" fill="black"/>
<path d="M172.72 225.008C172.72 225.008 168.719 220.397 167.14 223.413C165.561 226.429 170.744 228.678 172.532 227.195L172.72 225.008Z" fill="#F7B385"/>
<path d="M429.923 263.176C429.87 263.372 425.038 268.972 425.038 268.972C425.038 268.972 428.419 277.853 434.455 280.286C441.09 282.959 447.514 273.848 447.514 273.848C447.514 273.848 454.299 273.907 454.659 259.73C454.742 256.478 450.15 257.254 444.81 259.071C437.924 261.412 429.923 263.176 429.923 263.176Z" fill="black"/>
<path d="M424.181 293.733C426.428 292.017 428.94 290.68 431.63 289.801C432.642 289.471 438.254 290.801 441.671 290.552C446.36 290.207 451.032 287.831 454.95 288.6C458.842 289.366 462.051 290.458 463.932 291.659C469.563 295.253 473.118 302.304 475.423 309.349C471.929 313.315 467.377 315.229 467.377 315.229L468.264 349.991L448.261 361.527L424.238 350.939L423.374 316.968C423.374 316.968 415.758 313.876 415.15 312.643C414.54 311.41 417.843 298.577 424.181 293.733Z" fill="#5E5E5E"/>
<path d="M415.491 312.474C415.491 312.474 406.908 340.619 430.218 350.84C434.907 349.975 432.698 342.226 432.698 342.226C432.698 342.226 422.708 340.535 424.517 317.325C421.672 315.215 415.491 312.474 415.491 312.474Z" fill="#F7B385"/>
<path d="M474.955 309.488C474.955 309.488 483.266 338.001 464.147 349.136C459.394 348.746 460.816 340.814 460.816 340.814C460.816 340.814 468.581 336.491 466.462 315.219C469.08 312.834 474.955 309.488 474.955 309.488Z" fill="#F7B385"/>
<path d="M467.613 351.951H425.77C424.881 351.951 424.154 351.223 424.154 350.334V323.125C424.154 322.236 424.881 321.508 425.77 321.508H467.613C468.502 321.508 469.231 322.236 469.231 323.125V350.334C469.231 351.223 468.502 351.951 467.613 351.951Z" fill="#9F9F9F"/>
<path d="M489.004 360.975C483.844 359.791 471.921 360.43 471.921 360.43L471.438 361.743L470.635 368.27C470.635 368.27 481.988 370.315 487.585 370.311C488.156 370.309 488.679 370.224 489.156 370.076C489.326 369.923 489.494 369.765 489.65 369.594C492.025 367 491.34 363.189 489.004 360.975Z" fill="#15355F"/>
<path d="M468.495 360.06L470.514 360.146C471.599 360.193 472.622 360.722 473.351 361.613C474.081 362.504 474.455 363.684 474.392 364.886C474.341 365.845 473.948 366.741 473.298 367.376C472.651 368.012 471.8 368.335 470.936 368.273L467.848 368.054L468.495 360.06Z" fill="#F7B385"/>
<path d="M400.611 360.348C405.796 359.322 417.697 360.324 417.697 360.324L418.15 361.652L418.79 368.203C418.79 368.203 407.388 369.9 401.793 369.724C401.223 369.705 400.702 369.604 400.229 369.44C400.064 369.281 399.901 369.117 399.746 368.941C397.438 366.276 398.22 362.489 400.611 360.348Z" fill="#15355F"/>
<path d="M421.133 360.063L419.111 360.087C418.025 360.099 416.991 360.597 416.24 361.465C415.487 362.334 415.083 363.503 415.117 364.707C415.144 365.666 415.515 366.573 416.147 367.227C416.78 367.884 417.623 368.233 418.488 368.199L421.582 368.073L421.133 360.063Z" fill="#F7B385"/>
<path d="M490.445 340.512C488.105 335.128 482.385 334.253 477.515 336.771C477.43 336.882 446.587 352.689 419.389 359.618C420.167 362.113 420.567 364.77 420.654 367.38C420.67 367.962 420.661 368.536 420.626 369.102C441.484 368.031 464.121 361.074 483.572 354.961C489.606 353.016 493.039 346.48 490.445 340.512Z" fill="#1F9FEE"/>
<path d="M468.646 367.79C468.565 364.781 469.149 361.979 470.401 359.385C470.437 359.266 470.48 359.153 470.517 359.035C468.964 358.554 466.958 357.902 464.321 357.008C445.007 350.398 430.273 343.724 416.211 336.042C410.748 333.057 404.537 335.058 402.788 341.521C401.226 347.292 404.655 352.219 409.857 353.951C425.425 359.129 417.319 357.691 422.404 359.328C436.057 363.549 453.046 367.395 468.679 368.445C468.667 368.226 468.654 368.007 468.646 367.79Z" fill="#1F9FEE"/>
<path d="M431.634 289.802C431.634 289.802 434.161 298.689 444.224 297.995C454.472 297.294 454.953 288.601 454.953 288.601L448.18 287.504L447.245 280.065L437.202 281.318L437.371 288.421L431.634 289.802Z" fill="#F7B385"/>
<path d="M433.382 260.773C433.382 260.773 427.099 285.191 441.685 287.433C451.975 289.015 453.72 269.421 450.827 264.883C446.353 257.866 444.764 259.183 444.764 259.183L433.382 260.773Z" fill="#F7B385"/>
<path d="M451.325 254.579C457.245 254.837 455.246 268.007 446.207 267.067C437.167 266.127 433.881 266.922 433.1 269.524C432.321 272.125 433.909 280.367 430.149 276.973C426.027 273.252 422.261 264.752 425.417 261.014C428.238 257.673 428.125 253.517 432.242 252.722C437.707 251.665 441.352 248.303 444.196 249.476C447.463 250.825 446.969 254.39 451.325 254.579Z" fill="black"/>
<path d="M433.011 271.519C433.011 271.519 430.014 269.482 430.343 272.687C430.67 275.895 432.824 279.629 433.769 277.095C434.713 274.563 433.011 271.519 433.011 271.519Z" fill="#F7B385"/>
<path d="M449.353 329.751C449.591 331.366 448.725 332.834 447.11 333.073C445.496 333.311 443.992 332.195 443.753 330.58C443.515 328.966 444.254 327.363 445.869 327.123C447.484 326.884 449.114 328.136 449.353 329.751Z" fill="white"/>
<path d="M406.503 239.036C406.503 260.399 389.186 277.715 367.824 277.715C346.462 277.715 329.145 260.399 329.145 239.036C329.145 217.675 346.462 200.357 367.824 200.357C389.186 200.357 406.503 217.675 406.503 239.036Z" fill="#5E5E5E"/>
<path d="M431 156.5C431 168.374 421.374 178 409.5 178C397.626 178 388 168.374 388 156.5C388 144.626 397.626 135 409.5 135C421.374 135 431 144.626 431 156.5Z" fill="#5E5E5E"/>
<path d="M333.168 236.985L341.991 232.384V234.345C341.991 234.493 341.954 234.629 341.88 234.752C341.806 234.874 341.683 234.979 341.512 235.069L337.469 237.141C337.298 237.23 337.119 237.306 336.928 237.37C336.739 237.433 336.536 237.491 336.32 237.542C336.536 237.594 336.739 237.652 336.928 237.715C337.119 237.777 337.298 237.854 337.469 237.943L341.512 240.027C341.683 240.116 341.806 240.221 341.88 240.344C341.954 240.466 341.991 240.603 341.991 240.751V242.711L333.168 238.1V236.985Z" fill="white"/>
<path d="M346.014 245.051V228.494H348.766V234.856C349.211 234.433 349.702 234.091 350.236 233.832C350.772 233.572 351.399 233.441 352.119 233.441C352.743 233.441 353.296 233.547 353.78 233.759C354.262 233.971 354.665 234.268 354.988 234.649C355.311 235.033 355.557 235.49 355.723 236.022C355.891 236.553 355.973 237.138 355.973 237.775V245.051H353.222V237.775C353.222 237.078 353.06 236.538 352.737 236.154C352.414 235.773 351.929 235.58 351.284 235.58C350.809 235.58 350.363 235.688 349.947 235.903C349.53 236.118 349.137 236.412 348.766 236.783V245.051H346.014Z" fill="white"/>
<path d="M362.436 245.23C361.448 245.23 360.688 244.95 360.152 244.389C359.618 243.828 359.351 243.054 359.351 242.066V235.681H358.193C358.044 235.681 357.914 235.634 357.807 235.537C357.699 235.44 357.646 235.296 357.646 235.103V234.012L359.485 233.71L360.064 230.59C360.094 230.442 360.162 230.327 360.269 230.245C360.378 230.163 360.513 230.122 360.676 230.122H362.102V233.721H365.11V235.681H362.102V241.877C362.102 242.233 362.191 242.511 362.369 242.711C362.547 242.912 362.785 243.013 363.082 243.013C363.253 243.013 363.395 242.992 363.51 242.952C363.626 242.91 363.726 242.867 363.812 242.823C363.897 242.779 363.974 242.736 364.04 242.695C364.107 242.654 364.174 242.633 364.241 242.633C364.322 242.633 364.389 242.654 364.442 242.695C364.493 242.736 364.55 242.797 364.609 242.879L365.433 244.216C365.032 244.55 364.571 244.803 364.052 244.973C363.532 245.144 362.993 245.23 362.436 245.23Z" fill="white"/>
<path d="M367.303 245.051V233.621H368.986C369.341 233.621 369.576 233.788 369.687 234.121L369.865 234.969C370.066 234.746 370.276 234.541 370.494 234.356C370.714 234.17 370.948 234.01 371.196 233.876C371.445 233.743 371.712 233.637 371.998 233.559C372.285 233.481 372.598 233.442 372.94 233.442C373.66 233.442 374.253 233.637 374.717 234.027C375.182 234.416 375.528 234.934 375.759 235.581C375.936 235.203 376.16 234.878 376.427 234.605C376.694 234.335 376.988 234.115 377.307 233.943C377.627 233.773 377.966 233.646 378.327 233.565C378.687 233.483 379.049 233.442 379.412 233.442C380.044 233.442 380.605 233.538 381.095 233.732C381.586 233.925 381.998 234.207 382.333 234.578C382.666 234.95 382.921 235.403 383.095 235.938C383.269 236.472 383.357 237.085 383.357 237.775V245.051H380.605V237.775C380.605 237.048 380.445 236.501 380.127 236.133C379.807 235.765 379.338 235.581 378.722 235.581C378.439 235.581 378.179 235.63 377.937 235.726C377.696 235.822 377.483 235.962 377.302 236.145C377.119 236.326 376.977 236.553 376.873 236.829C376.769 237.104 376.717 237.419 376.717 237.775V245.051H373.954V237.775C373.954 237.011 373.799 236.454 373.491 236.106C373.183 235.756 372.728 235.581 372.127 235.581C371.733 235.581 371.364 235.68 371.018 235.876C370.673 236.072 370.352 236.343 370.054 236.684V245.051H367.303Z" fill="white"/>
<path d="M388.995 245.051H386.244V228.495H388.995V245.051Z" fill="white"/>
<path d="M393.188 242.71V240.75C393.188 240.602 393.224 240.466 393.298 240.343C393.372 240.221 393.494 240.116 393.666 240.027L397.711 237.944C398.037 237.78 398.419 237.646 398.858 237.541C398.642 237.49 398.44 237.433 398.25 237.37C398.061 237.306 397.881 237.229 397.711 237.139L393.666 235.069C393.494 234.98 393.372 234.874 393.298 234.751C393.224 234.629 393.188 234.493 393.188 234.344V232.385L402.01 236.985V238.098L393.188 242.71Z" fill="white"/>
<path d="M405.727 158.547V150.625H407.875V158.547C407.875 159.302 407.711 159.951 407.383 160.492C407.055 161.029 406.607 161.44 406.039 161.727C405.471 162.013 404.831 162.156 404.117 162.156C403.383 162.156 402.732 162.034 402.164 161.789C401.596 161.539 401.151 161.159 400.828 160.648C400.51 160.138 400.352 159.49 400.352 158.703H402.508C402.508 159.13 402.573 159.474 402.703 159.734C402.833 159.995 403.018 160.182 403.258 160.297C403.503 160.411 403.789 160.469 404.117 160.469C404.435 160.469 404.714 160.396 404.953 160.25C405.198 160.099 405.388 159.88 405.523 159.594C405.659 159.307 405.727 158.958 405.727 158.547ZM415.961 159.047C415.961 158.828 415.927 158.633 415.859 158.461C415.797 158.284 415.68 158.125 415.508 157.984C415.341 157.839 415.104 157.698 414.797 157.562C414.495 157.422 414.104 157.276 413.625 157.125C413.094 156.958 412.599 156.771 412.141 156.562C411.682 156.354 411.279 156.112 410.93 155.836C410.586 155.56 410.318 155.242 410.125 154.883C409.932 154.518 409.836 154.096 409.836 153.617C409.836 153.148 409.935 152.721 410.133 152.336C410.336 151.951 410.622 151.62 410.992 151.344C411.362 151.062 411.797 150.846 412.297 150.695C412.802 150.544 413.359 150.469 413.969 150.469C414.812 150.469 415.542 150.622 416.156 150.93C416.776 151.237 417.255 151.654 417.594 152.18C417.932 152.706 418.102 153.297 418.102 153.953H415.961C415.961 153.599 415.885 153.286 415.734 153.016C415.589 152.745 415.365 152.531 415.062 152.375C414.766 152.219 414.391 152.141 413.938 152.141C413.5 152.141 413.135 152.206 412.844 152.336C412.557 152.466 412.341 152.643 412.195 152.867C412.055 153.091 411.984 153.341 411.984 153.617C411.984 153.826 412.034 154.013 412.133 154.18C412.232 154.341 412.38 154.495 412.578 154.641C412.776 154.781 413.021 154.914 413.312 155.039C413.609 155.159 413.953 155.279 414.344 155.398C414.969 155.586 415.516 155.794 415.984 156.023C416.458 156.253 416.852 156.513 417.164 156.805C417.482 157.096 417.719 157.424 417.875 157.789C418.036 158.154 418.117 158.568 418.117 159.031C418.117 159.521 418.021 159.958 417.828 160.344C417.635 160.729 417.359 161.057 417 161.328C416.641 161.599 416.208 161.805 415.703 161.945C415.203 162.086 414.643 162.156 414.023 162.156C413.471 162.156 412.924 162.083 412.383 161.938C411.846 161.786 411.359 161.562 410.922 161.266C410.484 160.964 410.135 160.583 409.875 160.125C409.615 159.661 409.484 159.12 409.484 158.5H411.641C411.641 158.859 411.698 159.167 411.812 159.422C411.932 159.672 412.099 159.878 412.312 160.039C412.531 160.195 412.786 160.31 413.078 160.383C413.37 160.456 413.685 160.492 414.023 160.492C414.461 160.492 414.82 160.432 415.102 160.312C415.388 160.188 415.602 160.016 415.742 159.797C415.888 159.578 415.961 159.328 415.961 159.047Z" fill="white"/>
<path d="M497.474 158.527C497.474 162.664 494.12 166.017 489.983 166.017C485.846 166.017 482.492 162.664 482.492 158.527C482.492 154.39 485.846 151.036 489.983 151.036C494.12 151.036 497.474 154.39 497.474 158.527Z" fill="#5E5E5E"/>
<path d="M485.428 159.912L483.812 158.913V158.555L485.428 157.561V158.076L484.312 158.734L485.428 159.397V159.912Z" fill="white"/>
<path d="M488.242 157.538C488.063 157.538 487.922 157.643 487.819 157.852C487.716 158.061 487.664 158.352 487.664 158.725C487.664 159.501 487.866 159.889 488.271 159.889C488.449 159.889 488.634 159.833 488.828 159.72V160.274C488.665 160.383 488.456 160.437 488.201 160.437C487.823 160.437 487.533 160.287 487.331 159.987C487.128 159.687 487.027 159.264 487.027 158.721C487.027 158.177 487.131 157.753 487.34 157.448C487.548 157.145 487.838 156.992 488.209 156.992C488.332 156.992 488.449 157.009 488.561 157.043C488.673 157.077 488.794 157.135 488.922 157.219L488.716 157.726C488.647 157.679 488.574 157.635 488.496 157.596C488.418 157.557 488.333 157.538 488.242 157.538Z" fill="white"/>
<path d="M490.83 159.467C490.83 159.78 490.751 160.02 490.593 160.187C490.435 160.354 490.207 160.437 489.909 160.437C489.617 160.437 489.369 160.38 489.164 160.265V159.648C489.415 159.812 489.645 159.894 489.854 159.894C489.973 159.894 490.063 159.861 490.123 159.795C490.184 159.73 490.214 159.64 490.214 159.527C490.214 159.415 490.178 159.313 490.106 159.221C490.034 159.129 489.916 159.026 489.751 158.913C489.607 158.814 489.498 158.719 489.424 158.628C489.35 158.537 489.293 158.435 489.252 158.322C489.212 158.209 489.192 158.077 489.192 157.928C489.192 157.64 489.271 157.412 489.431 157.244C489.591 157.076 489.805 156.992 490.074 156.992C490.331 156.992 490.577 157.064 490.814 157.208L490.608 157.707C490.535 157.665 490.458 157.626 490.378 157.593C490.297 157.559 490.211 157.542 490.12 157.542C490.019 157.542 489.941 157.576 489.887 157.642C489.833 157.709 489.806 157.799 489.806 157.913C489.806 158.027 489.838 158.125 489.903 158.209C489.968 158.293 490.082 158.389 490.244 158.496C490.462 158.643 490.614 158.792 490.701 158.945C490.787 159.098 490.83 159.272 490.83 159.467Z" fill="white"/>
<path d="M492.768 159.467C492.768 159.78 492.689 160.02 492.53 160.187C492.372 160.354 492.144 160.437 491.846 160.437C491.554 160.437 491.306 160.38 491.102 160.265V159.648C491.352 159.812 491.582 159.894 491.791 159.894C491.91 159.894 492 159.861 492.061 159.795C492.121 159.73 492.151 159.64 492.151 159.527C492.151 159.415 492.115 159.313 492.043 159.221C491.971 159.129 491.853 159.026 491.688 158.913C491.544 158.814 491.436 158.719 491.362 158.628C491.287 158.537 491.23 158.435 491.19 158.322C491.149 158.209 491.129 158.077 491.129 157.928C491.129 157.64 491.209 157.412 491.369 157.244C491.528 157.076 491.742 156.992 492.011 156.992C492.268 156.992 492.515 157.064 492.752 157.208L492.545 157.707C492.472 157.665 492.395 157.626 492.315 157.593C492.235 157.559 492.149 157.542 492.057 157.542C491.956 157.542 491.878 157.576 491.825 157.642C491.77 157.709 491.743 157.799 491.743 157.913C491.743 158.027 491.776 158.125 491.84 158.209C491.906 158.293 492.019 158.389 492.181 158.496C492.399 158.643 492.552 158.792 492.638 158.945C492.724 159.098 492.768 159.272 492.768 159.467Z" fill="white"/>
<path d="M494.285 159.396L495.408 158.734L494.285 158.077V157.561L495.901 158.555V158.913L494.285 159.912V159.396Z" fill="white"/>
<path d="M425.622 110.5C425.871 110.714 426.231 110.746 426.514 110.579L434.604 105.826C438.494 107.84 442.734 109.248 447.191 109.932L450.927 118.532C451.059 118.832 451.366 119.018 451.695 118.992L462.914 118.119C463.242 118.093 463.518 117.861 463.6 117.543L465.958 108.468C470.255 107.103 474.227 105.055 477.758 102.462L486.487 105.904C486.793 106.023 487.142 105.937 487.355 105.687L494.67 97.1353C494.883 96.8851 494.915 96.5281 494.749 96.2436L489.997 88.1546C492.01 84.2631 493.418 80.0228 494.102 75.5662L502.702 71.8297C503.003 71.6982 503.189 71.3908 503.163 71.0626L502.288 59.8439C502.263 59.5152 502.032 59.2388 501.714 59.1573L492.638 56.7998C491.271 52.5021 489.225 48.5303 486.632 44.9984L490.073 36.2706C490.194 35.9642 490.107 35.6158 489.857 35.4023L481.306 28.0871C481.056 27.8732 480.698 27.8418 480.415 28.0078L472.325 32.7601C468.434 30.7462 464.194 29.3386 459.737 28.6549L456.001 20.0548C455.87 19.754 455.561 19.5685 455.234 19.594L444.013 20.4696C443.686 20.4941 443.41 20.7245 443.328 21.0435L440.97 30.1184C436.673 31.4847 432.701 33.5322 429.17 36.1247L420.441 32.6842C420.135 32.562 419.785 32.6499 419.572 32.8995L412.257 41.4516C412.044 41.7017 412.012 42.0603 412.179 42.3433L416.931 50.4318C414.917 54.3238 413.509 58.5641 412.826 63.0202L404.227 66.7567C403.924 66.8876 403.739 67.1961 403.765 67.5242L404.638 78.7435C404.665 79.0712 404.896 79.3465 405.214 79.4296L414.288 81.7881C415.653 86.0853 417.702 90.0556 420.295 93.5874L416.852 102.317C416.733 102.623 416.82 102.972 417.071 103.185L425.622 110.5Z" fill="#202020"/>
<path d="M458.003 94.5112C445.713 96.7308 433.291 89.6558 429.185 77.4769C424.673 64.0885 431.894 49.5275 445.281 45.0159C451.767 42.8281 458.715 43.299 464.844 46.3398C470.976 49.3795 475.556 54.6256 477.742 61.1111C482.255 74.499 475.032 89.0595 461.646 93.5721C460.439 93.9793 459.221 94.2906 458.003 94.5112Z" fill="white"/>
<path d="M337.226 69.1269C337.103 69.3093 337.11 69.55 337.242 69.725L341.027 74.735C339.99 77.477 339.383 80.4036 339.273 83.4191L333.847 86.5682C333.657 86.6793 333.558 86.8977 333.6 87.1139L335.051 94.5038C335.093 94.7199 335.268 94.8849 335.486 94.9156L341.699 95.7792C342.94 98.5291 344.61 101.011 346.606 103.158L344.994 109.226C344.938 109.438 345.023 109.663 345.205 109.787L351.456 113.986C351.639 114.108 351.879 114.102 352.055 113.969L357.062 110.184C359.805 111.22 362.733 111.827 365.748 111.937L368.897 117.364C369.008 117.554 369.227 117.654 369.443 117.611L376.833 116.161C377.049 116.118 377.214 115.944 377.244 115.726L378.109 109.512C380.859 108.27 383.34 106.602 385.487 104.605L391.554 106.217C391.767 106.274 391.992 106.189 392.115 106.006L396.314 99.7557C396.437 99.5724 396.43 99.3326 396.298 99.1566L392.513 94.1475C393.549 91.4062 394.157 88.478 394.266 85.4631L399.692 82.3134C399.883 82.2033 399.983 81.9848 399.94 81.7687L398.49 74.3788C398.447 74.1627 398.273 73.9977 398.055 73.967L391.841 73.1024C390.599 70.3525 388.931 67.8726 386.934 65.7247L388.545 59.6567C388.602 59.4442 388.517 59.2192 388.335 59.096L382.085 54.897C381.901 54.7744 381.661 54.781 381.485 54.9129L376.476 58.6986C373.735 57.6621 370.807 57.0544 367.791 56.9447L364.643 51.5185C364.532 51.3283 364.313 51.2293 364.097 51.2704L356.707 52.7207C356.492 52.7643 356.327 52.9388 356.296 53.1568L355.432 59.3715C352.681 60.6112 350.201 62.2808 348.053 64.2762L341.986 62.6648C341.774 62.6099 341.548 62.694 341.425 62.8764L337.226 69.1269Z" fill="#202020"/>
<path d="M350.784 89.256C349.749 85.8488 349.833 82.2158 351.056 78.8041C352.562 74.6072 355.612 71.2475 359.645 69.3443C367.966 65.4141 377.935 68.9887 381.867 77.3126C385.788 85.6547 382.22 95.6068 373.897 99.5367C369.865 101.441 365.331 101.661 361.135 100.154C356.937 98.6497 353.576 95.5991 351.674 91.5655C351.318 90.8115 351.022 90.0387 350.784 89.256Z" fill="white"/>
</svg>
