<svg width="128" height="82" viewBox="0 0 128 82" fill="none" xmlns="http://www.w3.org/2000/svg">
<path d="M87.8657 0.75C87.2181 0.75 86.625 1.26885 86.625 1.99072V24.6621L81.4849 21.665C81.1631 21.4753 80.8005 21.3831 80.4375 21.3831C80.0745 21.3831 79.7119 21.4753 79.3901 21.665L67.0393 28.8677C66.3958 29.2389 66 29.9259 66 30.6643V45.0857C66 45.8282 66.3958 46.5111 67.0393 46.8823L79.3901 54.085C79.7119 54.2747 80.0745 54.3669 80.4375 54.3669C80.8005 54.3669 81.1631 54.2747 81.4849 54.085L93.8357 46.8823C94.4792 46.5111 94.875 45.8241 94.875 45.0857V37.875V30.6643V5.82568C94.875 5.09143 94.4829 4.41642 93.8518 4.04517L88.478 0.919189C88.2759 0.803689 88.072 0.75 87.8657 0.75ZM47.4375 21.3831C47.0755 21.3831 46.714 21.4774 46.3901 21.665L34.0393 28.8677C33.3958 29.2389 33 29.9259 33 30.6643V45.0857C33 45.8282 33.3958 46.5111 34.0393 46.8823L46.3901 54.085C47.0378 54.4603 47.8372 54.4603 48.4849 54.085L60.8357 46.8823C61.4792 46.5111 61.875 45.8241 61.875 45.0857V30.6643C61.875 29.9218 61.4792 29.2389 60.8357 28.8677L48.4849 21.665C48.161 21.4773 47.7995 21.3831 47.4375 21.3831ZM113.438 21.3831C113.075 21.3831 112.712 21.4753 112.39 21.665L100.039 28.8677C99.3958 29.2389 99 29.9259 99 30.6643V45.0857C99 45.8282 99.3958 46.5111 100.039 46.8823L112.02 54.1252C112.663 54.5171 113.471 54.5209 114.122 54.1414L120.012 50.7173C120.622 50.3667 120.626 49.4809 120.012 49.1221L107.25 41.6052V34.2012L113.438 30.5999L119.625 34.2012V39.3574C119.625 40.0463 120.204 40.1524 120.592 39.9214C122.151 39.0056 126.852 36.2798 126.852 36.2798C127.483 35.9127 127.875 35.2335 127.875 34.4993V30.6643C127.875 29.9218 127.479 29.2389 126.836 28.8677L114.485 21.665C114.159 21.4753 113.8 21.3831 113.438 21.3831ZM14.4375 21.3911C14.0745 21.3911 13.7119 21.4833 13.3901 21.6731L1.03931 28.8677C0.395807 29.2431 0 29.9299 0 30.6724V49.0818C0 49.981 0.972791 50.5385 1.74829 50.0889L7.22681 46.8984C7.85793 46.5272 8.25 45.8522 8.25 45.1179V34.2173L14.4375 30.6079L20.625 34.2173V45.1179C20.625 45.8522 21.0171 46.5272 21.6482 46.8984L27.1267 50.0889C27.9022 50.5426 28.875 49.981 28.875 49.0818V30.6724C28.875 29.9299 28.4792 29.2431 27.8357 28.8677L15.4849 21.6731C15.1631 21.4833 14.8005 21.3911 14.4375 21.3911ZM80.4375 30.5999L86.625 34.2092V37.875V41.5408L80.4375 45.1501L74.25 41.5408V34.2092L80.4375 30.5999ZM113.438 33.7661L109.901 35.8286V39.9456L113.438 42L116.974 39.9456V35.8286L113.438 33.7661ZM63.5508 50.2419C63.1264 50.2419 62.6974 50.3458 62.3262 50.5562L50.7246 57.2593C49.9615 57.68 49.5 58.508 49.5 59.3701V72.7603C49.5 73.6224 49.9821 74.4338 50.7246 74.8711L53.7781 76.6113C55.2425 77.3332 55.7807 77.3364 56.4448 77.3364C58.6311 77.3364 59.877 76.029 59.877 73.719V60.49C59.877 60.2879 59.7201 60.1436 59.5386 60.1436H58.0723C57.8701 60.1436 57.7258 60.3085 57.7258 60.49V73.719C57.7258 74.7214 56.6666 75.7493 54.9382 74.8872L51.7639 73.0583C51.6608 72.9965 51.5867 72.8718 51.5867 72.7522V59.3621C51.5867 59.2424 51.6443 59.1017 51.7639 59.0398L63.3655 52.3528C63.4892 52.2909 63.629 52.2909 63.728 52.3528L75.3376 59.0398C75.4573 59.1017 75.5149 59.2218 75.5149 59.3621V72.7522C75.5149 72.8924 75.4366 73.0126 75.3376 73.0745L63.728 79.7856C63.6249 79.8475 63.4645 79.8475 63.3655 79.7856L60.4006 78.0212C60.3223 77.98 60.197 77.9558 60.1187 77.9971C59.2978 78.4797 59.1335 78.5429 58.3704 78.8027C58.1682 78.8646 57.8935 78.9886 58.4751 79.3103L62.3262 81.5984C62.7098 81.8005 63.13 81.9207 63.5508 81.9207C63.9922 81.9207 64.421 81.8009 64.7593 81.5823L76.3608 74.8711C77.124 74.4503 77.5854 73.6224 77.5854 72.7603V59.3701C77.5854 58.508 77.1033 57.7007 76.3608 57.2593L64.7593 50.5562C64.3983 50.3458 63.9751 50.2419 63.5508 50.2419ZM81.646 56.4214C80.4621 56.4214 79.4224 57.3786 79.4224 58.645C79.4224 59.8701 80.4209 60.8767 81.646 60.8767C82.8711 60.8767 83.8696 59.8701 83.8696 58.645C83.8696 57.3786 82.8505 56.4008 81.646 56.4214ZM81.6218 56.7759C82.6696 56.7759 83.5151 57.6014 83.5151 58.645C83.5151 59.668 82.6655 60.5136 81.6218 60.5383C80.5947 60.5383 79.7607 59.6886 79.7607 58.645C79.7607 57.6014 80.5988 56.7759 81.6218 56.7759ZM80.8081 57.3801V59.8857H81.2834V58.8867H81.7266C81.9081 58.8867 81.9512 58.964 81.9924 59.1042C81.9924 59.1249 82.0685 59.7742 82.0891 59.8938H82.6047C82.547 59.7742 82.5045 59.4313 82.4839 59.2251C82.4261 58.9033 82.4073 58.6818 82.0649 58.6611C82.2464 58.5993 82.5483 58.5028 82.5483 58.0408C82.5483 57.3766 81.9713 57.3801 81.6702 57.3801H80.8081ZM81.2834 57.783H81.6863C81.81 57.783 82.0488 57.779 82.0488 58.1213C82.0488 58.2616 81.988 58.488 81.6621 58.4839H81.2834V57.783ZM66.6606 59.8293C63.3483 59.8293 61.3835 61.2411 61.3835 63.5676C61.3835 66.1169 63.3516 66.7989 66.5237 67.1206C70.3187 67.5001 70.6165 68.0458 70.6165 68.7883C70.6165 70.0918 69.5701 70.6333 67.1199 70.6333C64.0467 70.6333 63.3707 69.8715 63.1479 68.3452C63.1273 68.1843 62.983 68.0632 62.8015 68.0632H61.2949C61.1134 68.0632 60.9565 68.2075 60.9565 68.4097C60.9565 70.3567 62.0178 72.6877 67.0957 72.6877C70.8206 72.6836 72.9287 71.2405 72.9287 68.7078C72.9287 66.1998 71.24 65.5327 67.6677 65.05C64.0542 64.5674 63.6958 64.3246 63.6958 63.479C63.6958 62.7778 63.9918 61.8596 66.6606 61.8596C69.049 61.8596 69.9392 62.3819 70.3022 63.9866C70.3435 64.1474 70.4556 64.2444 70.6165 64.2444H72.123C72.222 64.2444 72.307 64.2055 72.3647 64.1477C72.4266 64.0693 72.4659 63.9889 72.4453 63.8899C72.2061 61.1179 70.3773 59.8293 66.6606 59.8293Z" fill="#6E6E6E"/>
</svg>
