<svg width="132" height="70" viewBox="0 0 132 70" fill="none" xmlns="http://www.w3.org/2000/svg">
<path d="M38.555 24.8545H33.363L30.5305 39.4185H35.1395C38.1975 39.4185 40.4745 38.841 41.9705 37.6915C43.4665 36.5365 44.473 34.617 44.9955 31.922C45.5015 29.337 45.2705 27.511 44.3135 26.4495C43.351 25.388 41.437 24.8545 38.555 24.8545ZM66 0C29.5515 0 0 15.543 0 34.716C0 53.889 29.5515 69.4375 66 69.4375C102.449 69.4375 132 53.889 132 34.716C132 15.543 102.449 0 66 0ZM48.07 40.9805C46.6345 42.3555 44.9075 43.3895 43.0265 44.011C41.1785 44.605 38.819 44.913 35.959 44.913H29.4635L27.665 54.1585H20.086L26.851 19.3655H41.426C45.8095 19.3655 49.005 20.515 51.018 22.8195C53.031 25.1185 53.636 28.3305 52.833 32.4555C52.5254 34.0877 51.9591 35.6604 51.1555 37.114C50.369 38.5165 49.3405 39.809 48.07 40.9805ZM70.202 44.913L73.1885 29.5185C73.535 27.7695 73.403 26.5705 72.8145 25.938C72.226 25.3 70.9665 24.981 69.036 24.981H63.03L59.158 44.9185H51.634L58.399 10.12H65.9175L64.119 19.371H70.818C75.0365 19.371 77.9405 20.108 79.541 21.5765C81.1415 23.045 81.62 25.4265 80.9875 28.721L77.8415 44.913H70.202ZM111.986 32.4555C111.683 34.0891 111.116 35.6625 110.308 37.114C109.521 38.5165 108.493 39.809 107.223 40.9805C105.786 42.3513 104.064 43.3864 102.179 44.011C100.331 44.605 97.9715 44.913 95.106 44.913H88.616L86.8175 54.164H79.2385L86.0035 19.371H100.573C104.956 19.371 108.152 20.5205 110.165 22.825C112.178 25.1185 112.788 28.3305 111.986 32.4555ZM97.713 24.8545H92.5265L89.6885 39.4185H94.2975C97.361 39.4185 99.638 38.841 101.128 37.6915C102.624 36.5365 103.631 34.617 104.159 31.922C104.665 29.337 104.428 27.511 103.471 26.4495C102.514 25.388 100.59 24.8545 97.713 24.8545Z" fill="#6E6E6E"/>
</svg>
