<svg width="78" height="70" viewBox="0 0 78 70" fill="none" xmlns="http://www.w3.org/2000/svg">
<path d="M48.0213 50.7166C46.048 53.5391 43.8976 56.2319 41.5833 58.7788C47.7449 64.7949 53.479 67.612 56.6556 65.7624C59.8396 63.9164 60.2781 57.5148 58.1812 49.1413C55.0378 49.8456 51.6217 50.3793 48.0213 50.7166ZM43.1937 51.0391C40.3991 51.1555 37.6009 51.1555 34.8063 51.0391C36.1956 52.8629 37.5996 54.5531 39 56.0951C40.4004 54.5531 41.8007 52.8629 43.1937 51.0391ZM61.7669 21.778C71.5878 24.61 78 29.3175 78 35C78 40.6825 71.5878 45.39 61.7669 48.222C64.2359 58.1932 63.392 66.133 58.5018 68.9724C53.608 71.8155 46.3482 68.5832 39 61.4477C31.6518 68.5832 24.392 71.8155 19.4982 68.9724C14.608 66.133 13.7604 58.1932 16.2331 48.222C6.41217 45.39 0 40.6825 0 35C0 29.3175 6.41217 24.61 16.2331 21.778C13.7641 11.8068 14.608 3.86696 19.4982 1.02759C24.392 -1.81549 31.6518 1.4168 39 8.5523C46.3482 1.4168 53.608 -1.81549 58.5018 1.02759C63.392 3.86696 64.2396 11.8068 61.7669 21.778ZM58.1812 20.8587C60.2818 12.4815 59.8396 6.0836 56.6593 4.23764C53.479 2.38797 47.7449 5.2051 41.587 11.2212C43.7649 13.6046 45.9318 16.3142 48.0213 19.2834C51.6253 19.617 55.0378 20.1507 58.1812 20.8587ZM19.8188 49.1413C17.7182 57.5185 18.1604 63.9164 21.3407 65.7624C24.521 67.612 30.2551 64.7949 36.413 58.7788C34.1 56.2318 31.9508 53.539 29.9787 50.7166C26.5622 50.4095 23.1687 49.8833 19.8188 49.1413ZM34.8063 18.9609C37.6009 18.8445 40.3991 18.8445 43.1937 18.9609C41.8689 17.2167 40.4697 15.531 39 13.9086C37.5996 15.4506 36.1993 17.1409 34.8063 18.9646V18.9609ZM29.9787 19.2834C31.9532 16.4608 34.1048 13.7679 36.4204 11.2212C30.2551 5.2051 24.5173 2.38797 21.3444 4.23764C18.1604 6.0836 17.7219 12.4852 19.8188 20.8587C22.9622 20.1544 26.3783 19.6207 29.9787 19.2834ZM45.9797 47.1582C48.6029 43.2859 50.9348 39.2219 52.9557 35C50.9348 30.7781 48.6029 26.7141 45.9797 22.8418C41.3331 22.4919 36.6669 22.4919 32.0203 22.8418C29.3971 26.7141 27.0652 30.7781 25.0443 35C27.0652 39.2219 29.3971 43.2859 32.0203 47.1582C36.6669 47.5081 41.3331 47.5081 45.9797 47.1582ZM50.7114 46.6726C52.9778 46.376 55.1336 45.9942 57.1604 45.5457C56.4977 43.4542 55.7452 41.3926 54.9051 39.3666C53.6079 41.8578 52.2088 44.294 50.7114 46.6689V46.6726ZM27.2886 23.3237C25.0222 23.6203 22.8664 24.0021 20.8396 24.4506C21.466 26.4374 22.2178 28.5058 23.0949 30.6297C24.3921 28.1385 25.7912 25.7023 27.2886 23.3274V23.3237ZM20.8396 45.542C22.8664 45.9905 25.0222 46.3686 27.2886 46.6689C25.7912 44.294 24.3921 41.8578 23.0949 39.3666C22.2178 41.4868 21.466 43.5552 20.8396 45.542ZM17.2355 44.6339C18.1973 41.5424 19.4466 38.3027 20.9575 34.9963C19.4466 31.6899 18.1973 28.4502 17.2355 25.3587C8.97335 27.7199 3.68516 31.3044 3.68516 34.9963C3.68516 38.6882 8.97335 42.2727 17.2355 44.6339ZM57.1604 24.4506C55.1336 24.0021 52.9778 23.624 50.7114 23.3237C52.2088 25.6986 53.6079 28.1348 54.9051 30.626C55.7822 28.5058 56.534 26.4374 57.1604 24.4506ZM60.7645 25.3587C59.8027 28.4502 58.5534 31.6899 57.0425 34.9963C58.5534 38.3027 59.8027 41.5424 60.7645 44.6339C69.0266 42.2727 74.3148 38.6882 74.3148 34.9963C74.3148 31.3044 69.0266 27.7199 60.7645 25.3587ZM39 41.9687C38.0902 41.9687 37.1893 41.7884 36.3487 41.4382C35.5082 41.088 34.7444 40.5747 34.1011 39.9276C33.4578 39.2805 32.9474 38.5123 32.5993 37.6668C32.2511 36.8213 32.0719 35.9151 32.0719 35C32.0719 34.0849 32.2511 33.1787 32.5993 32.3332C32.9474 31.4877 33.4578 30.7195 34.1011 30.0724C34.7444 29.4253 35.5082 28.912 36.3487 28.5618C37.1893 28.2115 38.0902 28.0313 39 28.0313C40.8374 28.0313 42.5996 28.7655 43.8989 30.0724C45.1982 31.3793 45.9281 33.1518 45.9281 35C45.9281 36.8482 45.1982 38.6207 43.8989 39.9276C42.5996 41.2345 40.8374 41.9687 39 41.9687Z" fill="#6E6E6E"/>
</svg>
