<svg width="74" height="75" viewBox="0 0 74 75" fill="none" xmlns="http://www.w3.org/2000/svg">
<g clip-path="url(#clip0_218_14664)">
<path d="M36.9577 74.4231C16.2949 74.026 0.144485 57.0879 0 37.3808C0.401758 16.7334 17.25 0.567581 36.9577 0.423096C57.6063 0.835892 73.8553 17.6465 74 37.3808C73.5918 58.0448 56.6913 74.2784 36.9577 74.4231ZM36.9577 3.04479C17.7721 3.42256 2.6706 19.0607 2.53715 37.3808C2.9103 56.5816 18.6384 71.6679 36.9577 71.8013C56.1585 71.4281 71.2448 55.7 71.3783 37.3808C71.0161 18.1811 55.2505 3.17812 36.9577 3.04479ZM28.0777 67.6573L37.5497 40.4253L47.4445 67.0653C40.7783 69.297 34.4759 69.4322 28.0777 67.6573ZM20.8045 19.5362C17.337 20.0076 13.9647 20.1757 10.656 20.0437C16.9384 11.0619 26.9974 6.0088 36.9577 5.92025C45.1044 6.07441 52.6993 9.15392 58.2697 14.2082C55.6863 14.0173 54.1395 15.1503 53.0263 17.0836C51.4085 22.0749 54.827 25.7696 56.7475 29.5157C58.5632 32.9385 58.4192 36.8305 57.4241 40.1717L52.6881 56.3249L41.2709 22.4116C42.4605 22.301 43.6579 22.2653 44.7384 22.0733C46.0171 21.7886 46.2977 20.5986 45.4149 19.8745C45.1331 19.649 44.8229 19.5363 44.4846 19.5363L37.6344 20.0438H32.4332C30.9647 20.1305 26.8183 18.7119 26.4708 20.6358C26.2913 21.3769 26.8445 21.9577 27.4856 22.0735C28.617 22.22 29.9131 22.3865 30.9531 22.4963L35.9428 35.8586L29.008 56.3249L17.5063 22.4116C18.7234 22.3059 19.9565 22.2691 21.0583 22.0733C21.9605 21.9603 22.355 21.5093 22.2423 20.7202C22.0824 20.0186 21.457 19.5446 20.8045 19.5362ZM8.11885 24.7797L23.2572 65.7122C17.7949 63.0199 13.4764 59.0606 10.4022 54.3373C4.77855 45.3629 4.18698 33.9772 8.11885 24.7797ZM67.2766 45.7956C64.7913 53.9115 59.7153 60.6334 52.6881 64.6974C53.0263 63.7953 53.562 62.273 54.295 60.1305L63.0904 34.5899C63.9361 32.1091 64.5281 29.3465 64.8664 26.3019C64.9807 25.0563 64.9845 23.8005 64.7819 22.6653C68.3855 30.438 69.4078 38.137 67.2766 45.7956Z" fill="#6E6E6E"/>
</g>
<defs>
<clipPath id="clip0_218_14664">
<rect width="74" height="74" fill="white" transform="translate(0 0.423096)"/>
</clipPath>
</defs>
</svg>
