<svg width="96" height="103" viewBox="0 0 96 103" fill="none" xmlns="http://www.w3.org/2000/svg">
<g clip-path="url(#clip0_479_16714)">
<mask id="mask0_479_16714" style="mask-type:alpha" maskUnits="userSpaceOnUse" x="0" y="0" width="96" height="103">
<path d="M96 47.7318C96 21.3726 74.5074 0 48 0C21.4926 0 0 21.3726 0 47.7318C0 62.2272 6.50526 75.2027 16.7621 83.9515L11.0021 93.8684V101.744C11.0021 102.435 11.5705 103 12.2653 103C12.4989 103 12.7137 102.937 12.9032 102.831L19.7558 98.8991L25.1053 89.6918C31.9074 93.3722 39.7074 95.4636 48 95.4636C56.2926 95.4636 64.0926 93.3722 70.9011 89.6918L76.2505 98.8991L83.1032 102.831C83.2926 102.937 83.5074 103 83.7411 103C84.4358 103 85.0042 102.435 85.0042 101.744V93.8684L79.2442 83.9515C89.4947 75.2027 96 62.2272 96 47.7318Z" fill="white"/>
</mask>
<g mask="url(#mask0_479_16714)">
<path d="M48 95.4636C74.5097 95.4636 96 74.0934 96 47.7318C96 21.3703 74.5097 0 48 0C21.4903 0 0 21.3703 0 47.7318C0 74.0934 21.4903 95.4636 48 95.4636Z" fill="#45EF8A"/>
</g>
<mask id="mask1_479_16714" style="mask-type:alpha" maskUnits="userSpaceOnUse" x="0" y="0" width="96" height="103">
<path d="M96 47.7318C96 21.3726 74.5074 0 48 0C21.4926 0 0 21.3726 0 47.7318C0 62.2272 6.50526 75.2027 16.7621 83.9515L11.0021 93.8684V101.744C11.0021 102.435 11.5705 103 12.2653 103C12.4989 103 12.7137 102.937 12.9032 102.831L19.7558 98.8991L25.1053 89.6918C31.9074 93.3722 39.7074 95.4636 48 95.4636C56.2926 95.4636 64.0926 93.3722 70.9011 89.6918L76.2505 98.8991L83.1032 102.831C83.2926 102.937 83.5074 103 83.7411 103C84.4358 103 85.0042 102.435 85.0042 101.744V93.8684L79.2442 83.9515C89.4947 75.2027 96 62.2272 96 47.7318Z" fill="white"/>
</mask>
<g mask="url(#mask1_479_16714)">
<path d="M48 94.8352C74.299 94.8352 95.6463 73.8018 95.9811 47.7314H96C96 74.0907 74.5074 95.4633 48 95.4633C21.4926 95.4633 0 74.0907 0 47.7314H0.0189474C0.353684 73.8018 21.7011 94.8352 48 94.8352Z" fill="#263238" fill-opacity="0.2"/>
</g>
<mask id="mask2_479_16714" style="mask-type:alpha" maskUnits="userSpaceOnUse" x="0" y="0" width="96" height="103">
<path d="M96 47.7318C96 21.3726 74.5074 0 48 0C21.4926 0 0 21.3726 0 47.7318C0 62.2272 6.50526 75.2027 16.7621 83.9515L11.0021 93.8684V101.744C11.0021 102.435 11.5705 103 12.2653 103C12.4989 103 12.7137 102.937 12.9032 102.831L19.7558 98.8991L25.1053 89.6918C31.9074 93.3722 39.7074 95.4636 48 95.4636C56.2926 95.4636 64.0926 93.3722 70.9011 89.6918L76.2505 98.8991L83.1032 102.831C83.2926 102.937 83.5074 103 83.7411 103C84.4358 103 85.0042 102.435 85.0042 101.744V93.8684L79.2442 83.9515C89.4947 75.2027 96 62.2272 96 47.7318Z" fill="white"/>
</mask>
<g mask="url(#mask2_479_16714)">
<path d="M48 0C21.4926 0 0 21.3726 0 47.7318H96C96 21.3726 74.5074 0 48 0Z" fill="#3DDC84"/>
</g>
<mask id="mask3_479_16714" style="mask-type:alpha" maskUnits="userSpaceOnUse" x="0" y="0" width="96" height="103">
<path d="M96 47.7318C96 21.3726 74.5074 0 48 0C21.4926 0 0 21.3726 0 47.7318C0 62.2272 6.50526 75.2027 16.7621 83.9515L11.0021 93.8684V101.744C11.0021 102.435 11.5705 103 12.2653 103C12.4989 103 12.7137 102.937 12.9032 102.831L19.7558 98.8991L25.1053 89.6918C31.9074 93.3722 39.7074 95.4636 48 95.4636C56.2926 95.4636 64.0926 93.3722 70.9011 89.6918L76.2505 98.8991L83.1032 102.831C83.2926 102.937 83.5074 103 83.7411 103C84.4358 103 85.0042 102.435 85.0042 101.744V93.8684L79.2442 83.9515C89.4947 75.2027 96 62.2272 96 47.7318Z" fill="white"/>
</mask>
<g mask="url(#mask3_479_16714)">
<path d="M47.9994 46.476C51.4875 46.476 54.3152 43.6642 54.3152 40.1955C54.3152 36.7269 51.4875 33.915 47.9994 33.915C44.5113 33.915 41.6836 36.7269 41.6836 40.1955C41.6836 43.6642 44.5113 46.476 47.9994 46.476Z" fill="#3DDC84"/>
</g>
<mask id="mask4_479_16714" style="mask-type:alpha" maskUnits="userSpaceOnUse" x="0" y="0" width="96" height="103">
<path d="M96 47.7318C96 21.3726 74.5074 0 48 0C21.4926 0 0 21.3726 0 47.7318C0 62.2272 6.50526 75.2027 16.7621 83.9515L11.0021 93.8684V101.744C11.0021 102.435 11.5705 103 12.2653 103C12.4989 103 12.7137 102.937 12.9032 102.831L19.7558 98.8991L25.1053 89.6918C31.9074 93.3722 39.7074 95.4636 48 95.4636C56.2926 95.4636 64.0926 93.3722 70.9011 89.6918L76.2505 98.8991L83.1032 102.831C83.2926 102.937 83.5074 103 83.7411 103C84.4358 103 85.0042 102.435 85.0042 101.744V93.8684L79.2442 83.9515C89.4947 75.2027 96 62.2272 96 47.7318Z" fill="white"/>
</mask>
<g mask="url(#mask4_479_16714)">
<path d="M96 47.7316H0V47.1035H96V47.7316Z" fill="#263238" fill-opacity="0.05"/>
</g>
<mask id="mask5_479_16714" style="mask-type:alpha" maskUnits="userSpaceOnUse" x="0" y="0" width="96" height="103">
<path d="M96 47.7318C96 21.3726 74.5074 0 48 0C21.4926 0 0 21.3726 0 47.7318C0 62.2272 6.50526 75.2027 16.7621 83.9515L11.0021 93.8684V101.744C11.0021 102.435 11.5705 103 12.2653 103C12.4989 103 12.7137 102.937 12.9032 102.831L19.7558 98.8991L25.1053 89.6918C31.9074 93.3722 39.7074 95.4636 48 95.4636C56.2926 95.4636 64.0926 93.3722 70.9011 89.6918L76.2505 98.8991L83.1032 102.831C83.2926 102.937 83.5074 103 83.7411 103C84.4358 103 85.0042 102.435 85.0042 101.744V93.8684L79.2442 83.9515C89.4947 75.2027 96 62.2272 96 47.7318Z" fill="white"/>
</mask>
<g mask="url(#mask5_479_16714)">
<path d="M96 48.3595H0V47.7314H96V48.3595Z" fill="white" fill-opacity="0.05"/>
</g>
<mask id="mask6_479_16714" style="mask-type:alpha" maskUnits="userSpaceOnUse" x="0" y="0" width="96" height="103">
<path d="M96 47.7318C96 21.3726 74.5074 0 48 0C21.4926 0 0 21.3726 0 47.7318C0 62.2272 6.50526 75.2027 16.7621 83.9515L11.0021 93.8684V101.744C11.0021 102.435 11.5705 103 12.2653 103C12.4989 103 12.7137 102.937 12.9032 102.831L19.7558 98.8991L25.1053 89.6918C31.9074 93.3722 39.7074 95.4636 48 95.4636C56.2926 95.4636 64.0926 93.3722 70.9011 89.6918L76.2505 98.8991L83.1032 102.831C83.2926 102.937 83.5074 103 83.7411 103C84.4358 103 85.0042 102.435 85.0042 101.744V93.8684L79.2442 83.9515C89.4947 75.2027 96 62.2272 96 47.7318Z" fill="white"/>
</mask>
<g mask="url(#mask6_479_16714)">
<path d="M37.7877 47.7314L12.2656 103H96.0004V60.2924L53.053 17.585L42.9477 25.1216L37.7877 47.7314Z" fill="url(#paint0_linear_479_16714)"/>
</g>
<mask id="mask7_479_16714" style="mask-type:alpha" maskUnits="userSpaceOnUse" x="0" y="0" width="96" height="103">
<path d="M96 47.7318C96 21.3726 74.5074 0 48 0C21.4926 0 0 21.3726 0 47.7318C0 62.2272 6.50526 75.2027 16.7621 83.9515L11.0021 93.8684V101.744C11.0021 102.435 11.5705 103 12.2653 103C12.4989 103 12.7137 102.937 12.9032 102.831L19.7558 98.8991L25.1053 89.6918C31.9074 93.3722 39.7074 95.4636 48 95.4636C56.2926 95.4636 64.0926 93.3722 70.9011 89.6918L76.2505 98.8991L83.1032 102.831C83.2926 102.937 83.5074 103 83.7411 103C84.4358 103 85.0042 102.435 85.0042 101.744V93.8684L79.2442 83.9515C89.4947 75.2027 96 62.2272 96 47.7318Z" fill="white"/>
</mask>
<g mask="url(#mask7_479_16714)">
<path d="M48 0.62805C74.299 0.62805 95.6463 21.6615 95.9811 47.7318H96C96 21.3726 74.5074 0 48 0C21.4926 0 0 21.3726 0 47.7318H0.0189474C0.353684 21.6615 21.7011 0.62805 48 0.62805Z" fill="white" fill-opacity="0.2"/>
</g>
<mask id="mask8_479_16714" style="mask-type:alpha" maskUnits="userSpaceOnUse" x="0" y="0" width="96" height="103">
<path d="M96 47.7318C96 21.3726 74.5074 0 48 0C21.4926 0 0 21.3726 0 47.7318C0 62.2272 6.50526 75.2027 16.7621 83.9515L11.0021 93.8684V101.744C11.0021 102.435 11.5705 103 12.2653 103C12.4989 103 12.7137 102.937 12.9032 102.831L19.7558 98.8991L25.1053 89.6918C31.9074 93.3722 39.7074 95.4636 48 95.4636C56.2926 95.4636 64.0926 93.3722 70.9011 89.6918L76.2505 98.8991L83.1032 102.831C83.2926 102.937 83.5074 103 83.7411 103C84.4358 103 85.0042 102.435 85.0042 101.744V93.8684L79.2442 83.9515C89.4947 75.2027 96 62.2272 96 47.7318Z" fill="white"/>
</mask>
<g mask="url(#mask8_479_16714)">
<path d="M58.2126 47.7314H46.541L76.2505 98.8987L83.1031 102.83C83.2926 102.937 83.5073 103 83.741 103C84.4358 103 85.0042 102.435 85.0042 101.744V93.868L58.2126 47.7314Z" fill="#D7EFFE"/>
<path opacity="0.3" d="M58.2126 47.7314H46.541L76.2505 98.8987L83.1031 102.83C83.2926 102.937 83.5073 103 83.741 103C84.4358 103 85.0042 102.435 85.0042 101.744V93.868L58.2126 47.7314Z" fill="#BDBDBD"/>
<path d="M84.9973 93.868L58.212 47.7314H57.8457L84.9973 94.4961V93.868Z" fill="white" fill-opacity="0.2"/>
<path d="M83.7347 102.372C83.501 102.372 83.2863 102.309 83.0968 102.202L76.2442 98.2706L46.9073 47.7314H46.541L76.2505 98.8987L83.1031 102.83C83.2926 102.937 83.5073 103 83.741 103C84.4358 103 85.0042 102.435 85.0042 101.744V101.116C84.9978 101.807 84.4294 102.372 83.7347 102.372Z" fill="#212121" fill-opacity="0.1"/>
</g>
<mask id="mask9_479_16714" style="mask-type:alpha" maskUnits="userSpaceOnUse" x="0" y="0" width="96" height="103">
<path d="M96 47.7318C96 21.3726 74.5074 0 48 0C21.4926 0 0 21.3726 0 47.7318C0 62.2272 6.50526 75.2027 16.7621 83.9515L11.0021 93.8684V101.744C11.0021 102.435 11.5705 103 12.2653 103C12.4989 103 12.7137 102.937 12.9032 102.831L19.7558 98.8991L25.1053 89.6918C31.9074 93.3722 39.7074 95.4636 48 95.4636C56.2926 95.4636 64.0926 93.3722 70.9011 89.6918L76.2505 98.8991L83.1032 102.831C83.2926 102.937 83.5074 103 83.7411 103C84.4358 103 85.0042 102.435 85.0042 101.744V93.8684L79.2442 83.9515C89.4947 75.2027 96 62.2272 96 47.7318Z" fill="white"/>
</mask>
<g mask="url(#mask9_479_16714)">
<path d="M73.2635 47.7314C73.2635 61.6051 61.9519 72.8535 48.0003 72.8535C43.8508 72.8535 39.935 71.8549 36.4803 70.09L48.0003 50.2436L49.4593 47.7314H37.7877L10.9961 93.868V101.744C10.9961 102.435 11.5645 103 12.2593 103C12.4929 103 12.7077 102.937 12.8971 102.83L19.7498 98.8987L31.4214 78.8011C36.3666 81.4138 42.0066 82.9023 48.0003 82.9023C67.535 82.9023 83.3687 67.157 83.3687 47.7314H73.2635Z" fill="#D7EFFE"/>
<path d="M37.7877 47.7314L10.9961 93.868V94.4961L38.154 47.7314H37.7877ZM48.0003 72.8535C43.8508 72.8535 39.935 71.8549 36.4803 70.09V70.7181C39.935 72.4829 43.8508 73.4815 48.0003 73.4815C61.9519 73.4815 73.2635 62.2331 73.2635 48.3595H83.3498C83.3561 48.1522 83.3687 47.945 83.3687 47.7314H73.2635C73.2635 61.6051 61.9519 72.8535 48.0003 72.8535Z" fill="white" fill-opacity="0.4"/>
<path d="M49.4593 47.7314H49.0929L36.474 69.462V70.09L49.4593 47.7314ZM83.3498 47.7314C83.0087 66.8619 67.3203 82.2742 48.0003 82.2742C42.0066 82.2742 36.3666 80.7857 31.4214 78.173L19.7498 98.2706L12.8971 102.202C12.7077 102.309 12.4929 102.372 12.2593 102.372C11.5645 102.372 10.9961 101.807 10.9961 101.116V101.744C10.9961 102.435 11.5645 103 12.2593 103C12.4929 103 12.7077 102.937 12.8971 102.83L19.7498 98.8987L31.4214 78.8011C36.3666 81.4138 42.0066 82.9023 48.0003 82.9023C67.535 82.9023 83.3687 67.157 83.3687 47.7314H83.3498Z" fill="#212121" fill-opacity="0.1"/>
</g>
<mask id="mask10_479_16714" style="mask-type:alpha" maskUnits="userSpaceOnUse" x="0" y="0" width="96" height="103">
<path d="M96 47.7318C96 21.3726 74.5074 0 48 0C21.4926 0 0 21.3726 0 47.7318C0 62.2272 6.50526 75.2027 16.7621 83.9515L11.0021 93.8684V101.744C11.0021 102.435 11.5705 103 12.2653 103C12.4989 103 12.7137 102.937 12.9032 102.831L19.7558 98.8991L25.1053 89.6918C31.9074 93.3722 39.7074 95.4636 48 95.4636C56.2926 95.4636 64.0926 93.3722 70.9011 89.6918L76.2505 98.8991L83.1032 102.831C83.2926 102.937 83.5074 103 83.7411 103C84.4358 103 85.0042 102.435 85.0042 101.744V93.8684L79.2442 83.9515C89.4947 75.2027 96 62.2272 96 47.7318Z" fill="white"/>
</mask>
<g mask="url(#mask10_479_16714)">
<path d="M59.3681 25.1216H53.0523V17.585H42.9471V25.1216H36.6313C34.5471 25.1216 32.8418 26.8173 32.8418 28.8899V47.7314L45.3218 60.1291C46.0102 60.8074 46.9513 61.2345 47.9997 61.2345C49.0481 61.2345 49.9955 60.8137 50.6776 60.1291L63.1576 47.7314V28.8899C63.1576 26.8173 61.4523 25.1216 59.3681 25.1216ZM47.9997 46.4753C44.5134 46.4753 41.6839 43.6616 41.6839 40.1948C41.6839 36.7279 44.5134 33.9143 47.9997 33.9143C51.486 33.9143 54.3155 36.7279 54.3155 40.1948C54.3155 43.6616 51.486 46.4753 47.9997 46.4753Z" fill="#073042"/>
</g>
<mask id="mask11_479_16714" style="mask-type:alpha" maskUnits="userSpaceOnUse" x="0" y="0" width="96" height="103">
<path d="M96 47.7318C96 21.3726 74.5074 0 48 0C21.4926 0 0 21.3726 0 47.7318C0 62.2272 6.50526 75.2027 16.7621 83.9515L11.0021 93.8684V101.744C11.0021 102.435 11.5705 103 12.2653 103C12.4989 103 12.7137 102.937 12.9032 102.831L19.7558 98.8991L25.1053 89.6918C31.9074 93.3722 39.7074 95.4636 48 95.4636C56.2926 95.4636 64.0926 93.3722 70.9011 89.6918L76.2505 98.8991L83.1032 102.831C83.2926 102.937 83.5074 103 83.7411 103C84.4358 103 85.0042 102.435 85.0042 101.744V93.8684L79.2442 83.9515C89.4947 75.2027 96 62.2272 96 47.7318Z" fill="white"/>
</mask>
<g mask="url(#mask11_479_16714)">
<path d="M59.3681 25.1216H53.0523V25.7496H59.3681C61.4523 25.7496 63.1576 27.4453 63.1576 29.5179V28.8899C63.1576 26.8173 61.4523 25.1216 59.3681 25.1216ZM53.0523 17.585H42.9471V18.213H53.0523V17.585ZM42.9471 25.1216H36.6313C34.5471 25.1216 32.8418 26.8173 32.8418 28.8899V29.5179C32.8418 27.4453 34.5471 25.7496 36.6313 25.7496H42.9471V25.1216ZM47.9997 46.4753C44.5134 46.4753 41.6839 43.6616 41.6839 40.1948V40.8228C41.6839 44.2897 44.5134 47.1033 47.9997 47.1033C51.486 47.1033 54.3155 44.2897 54.3155 40.8228V40.1948C54.3155 43.6616 51.486 46.4753 47.9997 46.4753Z" fill="white" fill-opacity="0.1"/>
</g>
<mask id="mask12_479_16714" style="mask-type:alpha" maskUnits="userSpaceOnUse" x="0" y="0" width="96" height="103">
<path d="M96 47.7318C96 21.3726 74.5074 0 48 0C21.4926 0 0 21.3726 0 47.7318C0 62.2272 6.50526 75.2027 16.7621 83.9515L11.0021 93.8684V101.744C11.0021 102.435 11.5705 103 12.2653 103C12.4989 103 12.7137 102.937 12.9032 102.831L19.7558 98.8991L25.1053 89.6918C31.9074 93.3722 39.7074 95.4636 48 95.4636C56.2926 95.4636 64.0926 93.3722 70.9011 89.6918L76.2505 98.8991L83.1032 102.831C83.2926 102.937 83.5074 103 83.7411 103C84.4358 103 85.0042 102.435 85.0042 101.744V93.8684L79.2442 83.9515C89.4947 75.2027 96 62.2272 96 47.7318Z" fill="white"/>
</mask>
<g mask="url(#mask12_479_16714)">
<path d="M47.9997 33.9152C51.486 33.9152 54.3155 36.7288 54.3155 40.1957V39.5676C54.3155 36.1008 51.486 33.2871 47.9997 33.2871C44.5134 33.2871 41.6839 36.1008 41.6839 39.5676V40.1957C41.6839 36.7288 44.5134 33.9152 47.9997 33.9152ZM50.6776 59.5019C49.9892 60.1802 49.0481 60.6073 47.9997 60.6073C46.9513 60.6073 46.0039 60.1865 45.3218 59.5019L32.8418 47.1042V47.7323L45.3218 60.13C46.0102 60.8083 46.9513 61.2353 47.9997 61.2353C49.0481 61.2353 49.9955 60.8146 50.6776 60.13L63.1576 47.7323V47.1042L50.6776 59.5019Z" fill="#212121" fill-opacity="0.1"/>
</g>
<path d="M96 47.7318C96 21.3725 74.5074 0 48 0C21.4926 0 0 21.3725 0 47.7318C0 62.2272 6.50526 75.2027 16.7621 83.9515L11.0021 93.8684V101.744C11.0021 102.435 11.5705 103 12.2653 103C12.4989 103 12.7137 102.937 12.9032 102.831L19.7558 98.8991L25.1053 89.6918C31.9074 93.3722 39.7074 95.4636 48 95.4636C56.2926 95.4636 64.0926 93.3722 70.901 89.6918L76.2505 98.8991L83.1032 102.831C83.2926 102.937 83.5074 103 83.7411 103C84.4358 103 85.0042 102.435 85.0042 101.744V93.8684L79.2442 83.9515C89.4947 75.2027 96 62.2272 96 47.7318Z" fill="url(#paint1_radial_479_16714)"/>
</g>
<defs>
<linearGradient id="paint0_linear_479_16714" x1="36.8588" y1="62.1282" x2="82.0486" y2="87.5719" gradientUnits="userSpaceOnUse">
<stop stop-color="#263238" stop-opacity="0.2"/>
<stop offset="1" stop-color="#263238" stop-opacity="0.02"/>
</linearGradient>
<radialGradient id="paint1_radial_479_16714" cx="0" cy="0" r="1" gradientUnits="userSpaceOnUse" gradientTransform="translate(14.1208 13.9371) scale(113.763 122.058)">
<stop stop-color="white" stop-opacity="0.1"/>
<stop offset="1" stop-color="white" stop-opacity="0"/>
</radialGradient>
<clipPath id="clip0_479_16714">
<rect width="96" height="103" fill="white"/>
</clipPath>
</defs>
</svg>
