<svg width="82" height="96" viewBox="0 0 82 96" fill="none" xmlns="http://www.w3.org/2000/svg">
<path d="M81.9958 28.2239C81.9952 26.6097 81.6638 25.1833 80.9935 23.9595C80.3352 22.7554 79.3493 21.7464 78.0268 20.9487C67.1103 14.392 56.1833 7.85536 45.2703 1.29199C42.3283 -0.477275 39.4757 -0.41244 36.5555 1.38222C32.2104 4.05115 10.4561 17.0339 3.97356 20.945C1.30388 22.5552 0.00481255 25.0189 0.00417087 28.2209C0 41.4068 0.00417087 54.5927 0 67.7786C0 69.3574 0.317949 70.7563 0.958659 71.9618C1.61734 73.202 2.61706 74.2387 3.97003 75.0545C10.4528 78.9657 32.21 91.9473 36.5542 94.6173C39.4757 96.4129 42.3283 96.4771 45.2713 94.7075C56.1845 88.1438 67.1122 81.6072 78.0303 75.0505C79.3833 74.235 80.383 73.1977 81.0417 71.9585C81.6814 70.7527 82 69.354 82 67.7749C82 67.7749 82 41.4101 81.9958 28.2239Z" fill="#A179DC"/>
<path d="M41.1252 47L1 71.5266C1.65799 72.7893 2.65668 73.8448 4.00825 74.6753C10.4843 78.6573 32.219 91.874 36.5586 94.5923C39.4771 96.4204 42.3267 96.4858 45.2667 94.6841C56.1686 88.0016 67.085 81.3466 77.9917 74.6712C79.3433 73.841 80.342 72.7849 81 71.5232L41.1252 47Z" fill="#280068"/>
<path d="M81.9958 28.1757C81.9952 26.5951 81.6627 25.1984 80.9905 24L41 47.4144L81.0387 71C81.6804 69.8193 81.9994 68.4498 82 66.9035C82 66.9035 82 41.0875 81.9958 28.1757Z" fill="#390091"/>
<path d="M64.7288 38.4131V42.9194H69.043V38.4131H71.2001V42.9194H75.5143V45.1725H71.2001V49.6785H75.5143V51.9317H71.2001V56.438H69.043V51.9317H64.7288V56.438H62.5717V51.9317H58.2578V49.6785H62.5717V45.1725H58.2578V42.9194H62.5717V38.4131H64.7288ZM69.043 45.1722H64.7288V49.6785H69.043V45.1722Z" fill="white"/>
<path d="M41.215 15.7826C52.4676 15.7826 62.2919 22.1658 67.5542 31.6539L67.503 31.5626L54.2632 39.5251C51.655 34.9121 46.8733 31.7988 41.3876 31.7345L41.2147 31.7335C32.8498 31.7335 26.0682 38.8171 26.0682 47.5544C26.0655 50.3083 26.7543 53.0148 28.0659 55.4038C30.6767 60.1646 35.5848 63.3756 41.215 63.3756C46.8801 63.3756 51.8161 60.1238 54.4134 55.3122L54.3503 55.4276L67.5699 63.4268C62.3653 72.8347 52.6754 79.1982 41.5537 79.3249L41.215 79.3269C29.9268 79.3269 20.0746 72.9043 14.8255 63.3659C12.263 58.7095 10.7969 53.3112 10.7969 47.5544C10.7969 30.0075 24.4151 15.7822 41.2147 15.7822L41.215 15.7826Z" fill="white"/>
</svg>
