<svg width="78" height="105" viewBox="0 0 78 105" fill="none" xmlns="http://www.w3.org/2000/svg">
<path d="M38.2668 19.38C33.434 22.779 27.9566 26.6315 25.0217 33.0053C19.9241 44.1253 35.4527 56.2549 36.1164 56.7658C36.2706 56.8845 36.4553 56.9438 36.6393 56.9438C36.8348 56.9438 37.0305 56.877 37.1895 56.7438C37.4977 56.486 37.5851 56.048 37.4001 55.6913C37.3439 55.583 31.7699 44.7562 31.977 36.989C32.0504 34.2837 35.8363 31.2148 39.8443 27.9657C43.5152 24.9897 47.6764 21.6169 50.111 17.6712C55.4558 8.98598 49.5153 0.445814 49.4547 0.360424C49.2187 0.0290809 48.7832 -0.0908319 48.4108 0.0723885C48.0388 0.23663 47.8327 0.638859 47.9177 1.03659C47.9297 1.09318 49.0849 6.74073 45.8704 12.5593C44.5462 14.9636 41.6364 17.0101 38.2668 19.38Z" fill="#DB380E"/>
<path d="M58.6278 23.2101C58.9688 22.9534 59.0689 22.4849 58.8627 22.1111C58.6562 21.7373 58.2068 21.5724 57.8076 21.724C56.9866 22.0361 37.7031 29.4693 37.7031 38.4505C37.7031 44.6416 40.3477 47.9122 42.2788 50.3006C43.0363 51.2375 43.6902 52.0464 43.9057 52.7371C44.5124 54.7274 43.0751 58.3248 42.4706 59.5431C42.2964 59.8932 42.3818 60.3177 42.6782 60.5735C42.8383 60.7118 43.0383 60.7821 43.2385 60.7821C43.4089 60.7821 43.5801 60.7314 43.728 60.6285C44.0595 60.398 51.8312 54.9033 50.4374 48.2832C49.9181 45.7668 48.6816 43.9283 47.5905 42.3059C45.9003 39.7922 44.6795 37.9766 46.5315 34.6231C48.7014 30.7115 58.5283 23.2845 58.6278 23.2101Z" fill="#DB380E"/>
<path d="M8.43274 60.9241C8.10222 61.9138 8.25829 62.8956 8.88359 63.7642C10.974 66.6664 18.3786 68.2643 29.7341 68.2643C29.7347 68.2643 29.7351 68.2643 29.7356 68.2643C31.2742 68.2643 32.8986 68.234 34.5625 68.1744C52.718 67.5246 59.4519 61.8685 59.7297 61.628C60.0324 61.3659 60.1133 60.9296 59.9252 60.5766C59.7368 60.2238 59.3309 60.0465 58.943 60.1533C52.5488 61.8991 40.6092 62.5189 32.3277 62.5189C23.0609 62.5189 18.3416 61.8513 17.1862 61.3584C17.779 60.5443 21.4356 59.0906 25.9668 58.1994C26.3999 58.1144 26.6975 57.7144 26.6546 57.2752C26.6117 56.836 26.2428 56.501 25.8013 56.501C23.1452 56.501 9.82512 56.7142 8.43274 60.9241Z" fill="#73A1FB"/>
<path d="M69.1845 55.0977C65.4398 55.0977 61.8888 56.9746 61.7392 57.0541C61.393 57.2395 61.2173 57.6367 61.3123 58.0183C61.4077 58.3992 61.7503 58.6671 62.1431 58.6675C62.2226 58.6675 70.1309 58.7322 70.8471 63.2507C71.4816 67.1488 63.3645 73.4648 60.1832 75.5697C59.8396 75.797 59.7062 76.2362 59.8658 76.6162C60.0016 76.9396 60.3164 77.1418 60.6559 77.1418C60.7152 77.1418 60.7752 77.1357 60.8349 77.123C61.5899 76.9614 79.3031 73.058 77.4302 62.7449C76.2877 56.4245 72.3153 55.0977 69.1845 55.0977Z" fill="#73A1FB"/>
<path d="M57.0369 74.3068C57.0986 73.9764 56.9611 73.6404 56.6861 73.4474L52.4389 70.4724C52.2318 70.3274 51.9701 70.2818 51.727 70.3462C51.6827 70.3574 47.2412 71.5251 40.7929 72.2411C38.2337 72.5281 35.3672 72.6797 32.5028 72.6797C26.0561 72.6797 21.8409 71.9222 21.2271 71.3666C21.1458 71.2105 21.1715 71.1396 21.186 71.1002C21.2976 70.7901 21.8953 70.4216 22.2806 70.2757C22.7061 70.1182 22.9355 69.6561 22.8031 69.2222C22.6711 68.7877 22.2236 68.5322 21.7819 68.6382C17.5214 69.6663 15.4382 71.1041 15.5897 72.9113C15.859 76.1157 23.2809 77.7603 29.5554 78.1951C30.4577 78.2567 31.4336 78.288 32.4552 78.288C32.4558 78.288 32.4562 78.288 32.4568 78.288C42.8902 78.288 56.2657 75.0144 56.3993 74.9811C56.726 74.9014 56.975 74.6377 57.0369 74.3068Z" fill="#73A1FB"/>
<path d="M25.0159 81.1845C25.3376 80.9753 25.4802 80.5775 25.366 80.2113C25.2522 79.845 24.9097 79.6043 24.5248 79.6095C23.9538 79.6246 18.9379 79.8509 18.5868 83.0444C18.4805 83.9988 18.7539 84.8709 19.3996 85.6359C21.2005 87.7703 26.062 89.0388 34.2592 89.514C35.2289 89.5722 36.214 89.6014 37.1874 89.6014C47.6087 89.6014 54.6274 86.3385 54.9214 86.1995C55.2063 86.0647 55.3943 85.7847 55.411 85.4701C55.4278 85.1555 55.2707 84.857 55.0019 84.6926L49.6344 81.4159C49.4481 81.3023 49.2252 81.2647 49.0128 81.3082C48.9788 81.3154 45.5708 82.0222 40.4277 82.7204C39.4545 82.8528 38.2357 82.92 36.8058 82.92C31.6681 82.92 25.9535 82.0806 24.8576 81.5309C24.8416 81.4284 24.8619 81.298 25.0159 81.1845Z" fill="#73A1FB"/>
<path d="M32.3307 99.4531C56.2017 99.4329 69.0136 95.1878 71.4817 92.5164C72.3554 91.5714 72.4498 90.6766 72.3756 90.0922C72.1922 88.654 70.8821 87.7736 70.7336 87.678C70.3753 87.4476 69.8944 87.5078 69.615 87.8302C69.3361 88.1525 69.3296 88.6236 69.6095 88.9458C69.76 89.1394 69.847 89.4636 69.4068 89.9042C68.4201 90.8257 58.4686 93.623 41.8992 94.4634C39.6294 94.5812 37.2487 94.6413 34.8237 94.6417C19.9882 94.6417 9.1309 92.6095 7.70563 91.4255C8.25494 90.6362 12.0954 89.3751 16.1796 88.6618C16.6399 88.5815 16.9508 88.1478 16.8795 87.6862C16.8082 87.2247 16.3827 86.907 15.9175 86.9673C15.8023 86.983 15.4113 87.0063 14.9586 87.0341C8.21981 87.4455 0.43242 88.3625 0.0261054 91.8347C-0.0972802 92.8927 0.217109 93.8532 0.960895 94.6891C2.78083 96.734 8.01185 99.4527 32.3298 99.4527C32.3302 99.4531 32.3302 99.4531 32.3307 99.4531Z" fill="#73A1FB"/>
<path d="M76.1698 93.2698C75.8323 93.1137 75.4336 93.1926 75.1819 93.4643C75.147 93.5021 71.558 97.2549 60.767 99.4587C56.6359 100.286 48.8814 100.706 37.7189 100.706C26.5355 100.706 15.8939 100.266 15.7879 100.262C15.3434 100.24 14.9632 100.563 14.9027 101.001C14.8421 101.438 15.124 101.85 15.5532 101.952C15.6639 101.979 26.8162 104.591 42.0645 104.591C49.378 104.591 56.4947 103.997 63.2174 102.825C75.7523 100.628 76.6298 94.4124 76.6611 94.1488C76.7048 93.7805 76.5067 93.4259 76.1698 93.2698Z" fill="#73A1FB"/>
</svg>
