<svg width="106" height="104" viewBox="0 0 106 104" fill="none" xmlns="http://www.w3.org/2000/svg">
<path d="M52.9089 0C27.8401 0 27.5708 9.582 27.5708 11.5543C27.5708 14.5465 27.5708 23.5249 27.5708 23.5249H53.3916V27.1187C53.3916 27.1187 26.5071 27.1187 17.3149 27.1187C9.64201 27.1187 0 31.7125 0 52.0694C0 70.7686 7.52133 78 15.1122 78C17.366 78 24.1316 78 24.1316 78C24.1316 78 24.1316 68.7184 24.1316 65.5247C24.1316 60.3055 26.758 50.6436 39.0024 50.6436C54.3597 50.6436 58.2797 50.6436 64.6118 50.6436C68.3783 50.6436 79 49.0316 79 36.9507C79 24.1646 79 19.9463 79 13.9305C79.001 10.9336 78.4807 0 52.9089 0ZM38.6713 8.04979C41.2408 8.04979 43.3171 10.0934 43.3171 12.6246C43.3171 15.1538 41.2408 17.1993 38.6713 17.1993C36.1018 17.1993 34.0255 15.1548 34.0255 12.6246C34.0255 10.0934 36.1018 8.04979 38.6713 8.04979Z" fill="url(#paint0_linear_1521_20006)"/>
<path d="M53.0917 104C78.1486 104 78.4604 94.2374 78.4604 92.4457C78.4604 89.4535 78.4604 80.4751 78.4604 80.4751H52.6091V76.8813C52.6091 76.8813 79.667 76.8813 88.6853 76.8813C96.416 76.8813 106 72.1725 106 51.9306C106 29.763 95.8282 26 90.888 26C88.6332 26 81.8687 26 81.8687 26C81.8687 26 81.8687 35.7103 81.8687 38.4753C81.8687 43.6945 79.3292 53.3564 66.9981 53.3564C51.6409 53.3564 48.1988 53.3564 41.388 53.3564C37.6313 53.3564 27 55.1585 27 67.0493C27 80.8078 27 84.4102 27 90.0695C27 95.0406 30.0849 104 53.0917 104ZM67.3301 95.9502C64.7606 95.9502 62.6844 93.9057 62.6844 91.3755C62.6844 88.8452 64.7597 86.8007 67.3301 86.8007C69.8987 86.8007 71.9759 88.8452 71.9759 91.3755C71.9759 93.9057 69.8987 95.9502 67.3301 95.9502Z" fill="url(#paint1_linear_1521_20006)"/>
<defs>
<linearGradient id="paint0_linear_1521_20006" x1="9.95041" y1="9.33981" x2="61.9126" y2="62.2855" gradientUnits="userSpaceOnUse">
<stop stop-color="#387EB8"/>
<stop offset="1" stop-color="#366994"/>
</linearGradient>
<linearGradient id="paint1_linear_1521_20006" x1="41.8465" y1="42.1005" x2="97.597" y2="96.3412" gradientUnits="userSpaceOnUse">
<stop stop-color="#FFE052"/>
<stop offset="1" stop-color="#FFC331"/>
</linearGradient>
</defs>
</svg>
