<svg width="103" height="96" viewBox="0 0 103 96" fill="none" xmlns="http://www.w3.org/2000/svg">
<path d="M71.0253 0.156668C72.3119 0.156668 73.3539 1.19952 73.3539 2.48519C73.379 3.99587 72.1299 4.78377 70.7702 4.77711L68.6967 7.54268V23.4439H72.4085C72.9421 23.5455 73.3645 24.0653 73.3547 24.6086V28.1019H92.3122C92.7151 27.4067 93.4525 26.9372 94.3135 26.9372C95.6 26.9372 96.642 27.9801 96.642 29.2658C96.642 30.5523 95.5991 31.5943 94.3135 31.5943C93.4598 31.5943 92.7175 31.1143 92.3122 30.4296H73.3547V37.4162C77.0308 37.4056 82.5049 37.4267 87.6356 37.4267C87.8631 37.3894 88.0791 37.5575 88.2545 37.6087L92.3123 40.9103H98.1342C98.537 40.215 99.2745 39.7456 100.135 39.7456C101.422 39.7456 102.464 40.7884 102.464 42.0741C102.464 43.3606 101.421 44.4026 100.135 44.4026C99.2818 44.4026 98.5394 43.9226 98.1342 43.2379H91.9851C91.7633 43.2257 91.5465 43.1494 91.3662 43.0194L87.3084 39.7544C82.7463 39.5165 77.9625 39.7439 73.3549 39.7439V46.7305H92.3124C92.7153 46.0352 93.4527 45.5658 94.3137 45.5658C95.6002 45.5658 96.6422 46.6086 96.6422 47.8943C96.6422 49.1808 95.5993 50.2228 94.3137 50.2228C93.46 50.2228 92.7177 49.7436 92.3124 49.0581H73.3549V56.0447H92.2026C92.3903 56.0853 92.5665 56.1747 92.7119 56.2997L96.9695 59.6833C98.9326 59.1131 100.097 60.6319 100.136 61.8664C100.136 63.153 99.0927 64.195 97.807 64.195C96.4052 64.1836 95.5084 62.9328 95.5151 61.5026L91.5858 58.3731H73.356V65.3597H82.416L86.2 63.8677C86.36 62.7372 87.3176 61.8665 88.4919 61.8665C89.7784 61.8665 90.8204 62.9093 90.8204 64.195C90.8204 65.4815 89.7776 66.5235 88.4919 66.5235C87.9429 66.5235 87.4344 66.3318 87.0364 66.0143L83.1071 67.5786C82.9707 67.6427 82.8212 67.6801 82.6702 67.6882H73.355V71.1815C73.355 71.7915 72.8003 72.3454 72.1903 72.3462H68.697V88.2109L70.7714 91.013C72.4583 91.0017 73.3209 92.1777 73.355 93.305C73.355 94.5915 72.3122 95.6335 71.0265 95.6335C69.5824 95.5474 68.2886 94.2763 68.8799 92.3953L66.588 89.339C66.4451 89.1392 66.3671 88.8932 66.3695 88.6479V72.3472H59.3829V81.3351L59.5649 81.6624C60.7653 81.7558 61.7114 82.7661 61.7114 83.9909C61.7114 85.2774 60.6686 86.3194 59.3829 86.3194C58.0964 86.3194 57.0544 85.2765 57.0544 83.9909C57.0544 83.5263 57.1835 83.0812 57.4183 82.7174L57.1632 82.1716C57.0893 82.0132 57.052 81.8369 57.0544 81.6623V72.3472H50.0678V81.1523L55.7443 86.8288C55.9579 87.0497 56.0789 87.3583 56.0716 87.6653L55.9628 91.3406C56.6198 91.7523 57.0543 92.4727 57.0543 93.3052C57.0543 94.5918 56.0115 95.6338 54.7258 95.6338C53.4393 95.6338 52.3973 94.5909 52.3973 93.3052C52.3973 92.4151 52.9009 91.6597 53.6343 91.2674L53.7431 88.138L48.0666 82.4615C47.8612 82.2495 47.7418 81.9563 47.7393 81.6607V72.3456H40.7527V81.1507L45.9922 86.3901C47.7839 86.1034 48.8673 87.4735 48.9031 88.6465C48.9031 89.933 47.8602 90.975 46.5745 90.975C44.9372 90.9222 44.241 89.9589 44.3182 88.0275L38.7515 82.4608C38.546 82.2488 38.4266 81.9556 38.4242 81.6599V72.3448H31.4376V81.6599C31.4351 81.9556 31.3157 82.248 31.1103 82.4608L25.5436 88.0275C25.948 89.9767 24.4788 90.9384 23.2872 90.975C22.0007 90.975 20.9587 89.9321 20.9587 88.6465C20.9343 87.0351 22.1737 86.131 23.8696 86.3901L29.109 81.1507V72.3456H25.6157C25.0057 72.3456 24.451 71.7908 24.451 71.1809V67.6876H8.29568L4.62044 69.143C4.46613 70.2793 3.50692 71.1808 2.32852 71.1808C1.042 71.1808 0 70.138 0 68.8523C0 67.5666 1.04286 66.5238 2.32852 66.5238C2.87026 66.5238 3.35189 66.7228 3.74742 67.033L7.71333 65.4322C7.85221 65.3794 8.00165 65.355 8.1503 65.3599H24.451V58.3733H18.3019C17.8966 59.058 17.1543 59.538 16.3006 59.538C15.0141 59.538 13.9721 58.4952 13.9721 57.2095C13.9721 55.9238 15.015 54.881 16.3006 54.881C17.1616 54.881 17.899 55.3504 18.3019 56.0457H24.451V49.0591H16.8098L12.0796 54.5902C11.8554 54.8485 11.5119 54.9996 11.1699 54.9906L5.45687 54.9184C5.0459 55.5779 4.3263 56.0465 3.49218 56.0465C2.20566 56.0465 1.16366 55.0036 1.16366 53.718C1.16366 52.4315 2.20651 51.3895 3.49218 51.3895C4.37098 51.3895 5.13362 51.8719 5.52998 52.5899L10.6607 52.6622L15.4275 47.131C15.6443 46.8817 15.9708 46.7322 16.3006 46.7306H24.4509V39.744H12.8073C12.4946 39.7416 12.1851 39.6068 11.9707 39.3801L8.84131 36.2507H5.49334C5.08806 36.9354 4.34572 37.4154 3.49209 37.4154C2.20558 37.4154 1.16357 36.3726 1.16357 35.0869C1.16357 33.8004 2.20643 32.7584 3.49209 32.7584C4.35302 32.7584 5.09049 33.2278 5.49334 33.9231H9.53244C9.76554 33.9661 9.98484 34.0823 10.1513 34.2504L13.3174 37.4164H24.4518V30.4298H8.15113C7.90098 30.4217 7.65488 30.3315 7.45995 30.1748L4.4403 27.9178C4.1536 28.0437 3.8271 28.0997 3.49409 28.0997C2.20757 28.0997 1.16557 27.0569 1.16557 25.7712C1.16557 24.4847 2.20842 23.4427 3.49409 23.4427C4.80173 23.493 5.79267 24.3921 5.78601 26.0263L8.55159 28.1007H24.4528V24.6074C24.4528 23.9974 25.0076 23.4427 25.6175 23.4427H29.1108V4.48516C28.4156 4.08232 27.9461 3.34484 27.9461 2.48391C27.9461 1.1974 28.989 0.155396 30.2747 0.155396C31.5612 0.155396 32.6032 1.19825 32.6032 2.48391C32.6032 3.34484 32.1337 4.08232 31.4385 4.48516V23.4427H38.4251V14.1276C38.4218 13.9789 38.4462 13.8303 38.4982 13.6906L40.099 9.68808C39.7953 9.29498 39.5898 8.84097 39.5898 8.30573C39.5898 7.01921 40.6326 5.97721 41.9183 5.97721C43.2048 5.97721 44.2468 7.02007 44.2468 8.30573C44.2468 9.48097 43.3778 10.4394 42.2456 10.5977L40.7527 14.3467V23.4433H47.7393V14.492L46.7208 12.9278C45.2191 12.9935 44.2615 11.8825 44.247 10.6358C44.247 9.34931 45.2898 8.30731 46.5755 8.30731C47.862 8.30731 48.904 9.35017 48.904 10.6358C48.904 11.007 48.8041 11.3432 48.649 11.6543L49.886 13.4736C50.0094 13.6678 50.0736 13.8984 50.0679 14.1283V23.4434H57.0545V14.6019L51.5599 9.10736C51.3536 8.89538 51.2343 8.60217 51.2318 8.30652V4.48595C50.5366 4.08311 50.0671 3.34563 50.0671 2.4847C50.0671 1.19819 51.11 0.156185 52.3956 0.156185C53.6822 0.156185 54.7242 1.19904 54.7242 2.4847C54.7242 3.34563 54.2547 4.08311 53.5595 4.48595V7.79732L59.054 13.2919C59.2676 13.5128 59.3886 13.8214 59.3813 14.1284V23.4435H66.3679V7.14287C66.3574 6.8854 66.4353 6.62468 66.5864 6.41514L68.8783 3.39549C68.7614 3.11608 68.6972 2.80665 68.6972 2.48502C68.6972 1.1985 69.7401 0.156497 71.0257 0.156497L71.0253 0.156668ZM62.875 33.9232H34.9303V61.8679H62.875V33.9232ZM58.218 37.4165C58.8612 37.4165 59.3827 37.9379 59.3827 38.5812C59.3827 39.2245 58.8612 39.7459 58.218 39.7459C57.5747 39.7459 57.0533 39.2245 57.0533 38.5812C57.0533 37.9379 57.5747 37.4165 58.218 37.4165ZM53.5609 37.4165C54.2042 37.4165 54.7256 37.9379 54.7256 38.5812C54.7256 39.2245 54.2042 39.7459 53.5609 39.7459C52.9176 39.7459 52.3962 39.2245 52.3962 38.5812C52.3962 37.9379 52.9176 37.4165 53.5609 37.4165ZM48.9039 37.4165C49.5472 37.4165 50.0686 37.9379 50.0686 38.5812C50.0686 39.2245 49.5472 39.7459 48.9039 39.7459C48.2606 39.7459 47.7392 39.2245 47.7392 38.5812C47.7392 37.9379 48.2606 37.4165 48.9039 37.4165ZM44.2468 37.4165C44.8901 37.4165 45.4115 37.9379 45.4115 38.5812C45.4115 39.2245 44.8901 39.7459 44.2468 39.7459C43.6036 39.7459 43.0821 39.2245 43.0821 38.5812C43.0821 37.9379 43.6036 37.4165 44.2468 37.4165ZM39.5898 37.4165C40.2331 37.4165 40.7545 37.9379 40.7545 38.5812C40.7545 39.2245 40.2331 39.7459 39.5898 39.7459C38.9465 39.7459 38.4251 39.2245 38.4251 38.5812C38.4251 37.9379 38.9465 37.4165 39.5898 37.4165ZM58.22 42.0736C58.8633 42.0736 59.3847 42.595 59.3847 43.2382C59.3847 43.8815 58.8633 44.4029 58.22 44.4029C57.5768 44.4029 57.0553 43.8815 57.0553 43.2382C57.0553 42.595 57.5768 42.0736 58.22 42.0736ZM53.563 42.0736C54.2063 42.0736 54.7277 42.595 54.7277 43.2382C54.7277 43.8815 54.2063 44.4029 53.563 44.4029C52.9197 44.4029 52.3983 43.8815 52.3983 43.2382C52.3983 42.595 52.9197 42.0736 53.563 42.0736ZM48.906 42.0736C49.5492 42.0736 50.0707 42.595 50.0707 43.2382C50.0707 43.8815 49.5492 44.4029 48.906 44.4029C48.2627 44.4029 47.7413 43.8815 47.7413 43.2382C47.7413 42.595 48.2627 42.0736 48.906 42.0736ZM44.2489 42.0736C44.8922 42.0736 45.4136 42.595 45.4136 43.2382C45.4136 43.8815 44.8922 44.4029 44.2489 44.4029C43.6057 44.4029 43.0842 43.8815 43.0842 43.2382C43.0842 42.595 43.6057 42.0736 44.2489 42.0736ZM39.5919 42.0736C40.2352 42.0736 40.7566 42.595 40.7566 43.2382C40.7566 43.8815 40.2352 44.4029 39.5919 44.4029C38.9486 44.4029 38.4272 43.8815 38.4272 43.2382C38.4272 42.595 38.9486 42.0736 39.5919 42.0736ZM58.2221 46.7306C58.8654 46.7306 59.3868 47.252 59.3868 47.8953C59.3868 48.5386 58.8654 49.06 58.2221 49.06C57.5788 49.06 57.0574 48.5386 57.0574 47.8953C57.0574 47.252 57.5788 46.7306 58.2221 46.7306ZM53.5651 46.7306C54.2083 46.7306 54.7298 47.252 54.7298 47.8953C54.7298 48.5386 54.2083 49.06 53.5651 49.06C52.9218 49.06 52.4004 48.5386 52.4004 47.8953C52.4004 47.252 52.9218 46.7306 53.5651 46.7306ZM48.908 46.7306C49.5513 46.7306 50.0727 47.252 50.0727 47.8953C50.0727 48.5386 49.5513 49.06 48.908 49.06C48.2648 49.06 47.7433 48.5386 47.7433 47.8953C47.7433 47.252 48.2648 46.7306 48.908 46.7306ZM44.251 46.7306C44.8943 46.7306 45.4157 47.252 45.4157 47.8953C45.4157 48.5386 44.8943 49.06 44.251 49.06C43.6077 49.06 43.0863 48.5386 43.0863 47.8953C43.0863 47.252 43.6077 46.7306 44.251 46.7306ZM39.594 46.7306C40.2372 46.7306 40.7587 47.252 40.7587 47.8953C40.7587 48.5386 40.2372 49.06 39.594 49.06C38.9507 49.06 38.4293 48.5386 38.4293 47.8953C38.4293 47.252 38.9507 46.7306 39.594 46.7306ZM58.2242 51.3876C58.8675 51.3876 59.3889 51.9091 59.3889 52.5523C59.3889 53.1956 58.8675 53.717 58.2242 53.717C57.5809 53.717 57.0595 53.1956 57.0595 52.5523C57.0595 51.9091 57.5809 51.3876 58.2242 51.3876ZM53.5672 51.3876C54.2104 51.3876 54.7319 51.9091 54.7319 52.5523C54.7319 53.1956 54.2104 53.717 53.5672 53.717C52.9239 53.717 52.4025 53.1956 52.4025 52.5523C52.4025 51.9091 52.9239 51.3876 53.5672 51.3876ZM48.9101 51.3876C49.5534 51.3876 50.0748 51.9091 50.0748 52.5523C50.0748 53.1956 49.5534 53.717 48.9101 53.717C48.2668 53.717 47.7454 53.1956 47.7454 52.5523C47.7454 51.9091 48.2668 51.3876 48.9101 51.3876ZM44.2531 51.3876C44.8963 51.3876 45.4178 51.9091 45.4178 52.5523C45.4178 53.1956 44.8963 53.717 44.2531 53.717C43.6098 53.717 43.0884 53.1956 43.0884 52.5523C43.0884 51.9091 43.6098 51.3876 44.2531 51.3876ZM39.596 51.3876C40.2393 51.3876 40.7607 51.9091 40.7607 52.5523C40.7607 53.1956 40.2393 53.717 39.596 53.717C38.9528 53.717 38.4313 53.1956 38.4313 52.5523C38.4313 51.9091 38.9528 51.3876 39.596 51.3876ZM58.2263 56.0447C58.8695 56.0447 59.391 56.5661 59.391 57.2094C59.391 57.8526 58.8695 58.3741 58.2263 58.3741C57.583 58.3741 57.0616 57.8526 57.0616 57.2094C57.0616 56.5661 57.583 56.0447 58.2263 56.0447ZM53.5692 56.0447C54.2125 56.0447 54.7339 56.5661 54.7339 57.2094C54.7339 57.8526 54.2125 58.3741 53.5692 58.3741C52.926 58.3741 52.4045 57.8526 52.4045 57.2094C52.4045 56.5661 52.926 56.0447 53.5692 56.0447ZM48.9122 56.0447C49.5555 56.0447 50.0769 56.5661 50.0769 57.2094C50.0769 57.8526 49.5555 58.3741 48.9122 58.3741C48.2689 58.3741 47.7475 57.8526 47.7475 57.2094C47.7475 56.5661 48.2689 56.0447 48.9122 56.0447ZM44.2552 56.0447C44.8984 56.0447 45.4199 56.5661 45.4199 57.2094C45.4199 57.8526 44.8984 58.3741 44.2552 58.3741C43.6119 58.3741 43.0905 57.8526 43.0905 57.2094C43.0905 56.5661 43.6119 56.0447 44.2552 56.0447ZM39.5981 56.0447C40.2414 56.0447 40.7628 56.5661 40.7628 57.2094C40.7628 57.8526 40.2414 58.3741 39.5981 58.3741C38.9548 58.3741 38.4334 57.8526 38.4334 57.2094C38.4334 56.5661 38.9548 56.0447 39.5981 56.0447Z" fill="white"/>
</svg>
