<svg width="128" height="75" viewBox="0 0 128 75" fill="none" xmlns="http://www.w3.org/2000/svg">
<path d="M13.7261 61.6034H84.5972V55.9125H13.7261C13.3304 55.9125 13.0155 55.5898 13.0155 55.199V6.56275C13.0155 6.16894 13.3294 5.84916 13.7261 5.84916H89.648C90.0438 5.84916 90.3636 6.17189 90.3636 6.56275V12.5025C91.5806 11.9567 92.9161 11.6369 94.3343 11.6369H96.0517V6.5628C96.0517 3.02847 93.1765 0.156382 89.6452 0.156382L13.7259 0.155396C10.1943 0.155396 7.31641 3.02748 7.31641 6.56181V55.1955C7.31641 58.7298 10.1946 61.6029 13.7259 61.6029L13.7261 61.6034Z" fill="white"/>
<path d="M84.6024 64.7062H66.1881L62.1414 67.672H41.2371L37.1904 64.7062H1.98602C-2.17417 64.7062 0.20352 74.7922 9.10016 74.7922H85.9216C85.1033 73.369 84.6029 71.7385 84.6029 69.9847L84.6024 64.7062Z" fill="white"/>
<path d="M122.548 16.5778H94.3377C91.6887 16.5778 89.541 18.7255 89.541 21.3775V69.9834C89.541 72.6374 91.6917 74.7909 94.3377 74.7909H122.548C125.2 74.7909 127.345 72.6403 127.345 69.9834V21.375C127.345 18.724 125.197 16.5763 122.548 16.5763V16.5778ZM111.139 72.5844H105.742C105.08 72.5844 104.539 72.0553 104.539 71.3871C104.539 70.7219 105.077 70.184 105.742 70.184H111.139C111.804 70.184 112.344 70.7219 112.344 71.3871C112.344 72.0583 111.806 72.5844 111.139 72.5844ZM124.241 65.5895C124.241 66.914 123.171 67.9889 121.843 67.9889H95.0352C93.7107 67.9889 92.6378 66.913 92.6378 65.5895L92.6388 24.3817C92.6388 23.0572 93.7117 21.9794 95.0362 21.9794H121.844C123.172 21.9794 124.242 23.0572 124.242 24.3817L124.241 65.5895Z" fill="white"/>
</svg>
