<svg width="84" height="84" viewBox="0 0 84 84" fill="none" xmlns="http://www.w3.org/2000/svg">
<path d="M41.9996 0.599976C19.172 0.599976 0.599609 19.1706 0.599609 42C0.599609 64.8294 19.172 83.4 41.9996 83.4C64.8272 83.4 83.3996 64.8294 83.3996 42C83.3996 35.835 82.0345 29.9839 79.6063 24.7207C77.9413 27.4405 75.3508 29.5329 72.2656 30.5355C73.6228 34.1067 74.3996 37.959 74.3996 42C74.3996 59.865 59.8646 74.4 41.9996 74.4C24.1346 74.4 9.59961 59.865 9.59961 42C9.59961 24.135 24.1346 9.59998 41.9996 9.59998C46.8596 9.59998 51.4545 10.7044 55.5945 12.6304C56.8095 9.64244 59.0646 7.19121 61.9086 5.71521C55.9974 2.45721 49.2122 0.599976 41.9996 0.599976ZM68.0996 7.79998C65.474 7.79998 62.9559 8.84301 61.0993 10.6996C59.2426 12.5562 58.1996 15.0743 58.1996 17.7C58.1996 20.3256 59.2426 22.8437 61.0993 24.7003C62.9559 26.5569 65.474 27.6 68.0996 27.6C70.7253 27.6 73.2434 26.5569 75.1 24.7003C76.9566 22.8437 77.9996 20.3256 77.9996 17.7C77.9996 15.0743 76.9566 12.5562 75.1 10.6996C73.2434 8.84301 70.7253 7.79998 68.0996 7.79998ZM41.9996 24C37.2257 24 32.6473 25.8964 29.2717 29.2721C25.896 32.6477 23.9996 37.2261 23.9996 42C23.9996 46.7739 25.896 51.3522 29.2717 54.7279C32.6473 58.1036 37.2257 60 41.9996 60C46.7735 60 51.3519 58.1036 54.7275 54.7279C58.1032 51.3522 59.9996 46.7739 59.9996 42C59.9996 37.2261 58.1032 32.6477 54.7275 29.2721C51.3519 25.8964 46.7735 24 41.9996 24Z" fill="#6E6E6E"/>
</svg>
