<svg width="488" height="401" viewBox="0 0 488 401" fill="none" xmlns="http://www.w3.org/2000/svg">
<path d="M235.735 400.725C357.644 400.725 456.47 394.848 456.47 387.598C456.47 380.348 357.644 374.47 235.735 374.47C113.826 374.47 15 380.348 15 387.598C15 394.848 113.826 400.725 235.735 400.725Z" fill="#E04048"/>
<path opacity="0.6" d="M235.735 400.725C357.644 400.725 456.47 394.848 456.47 387.598C456.47 380.348 357.644 374.47 235.735 374.47C113.826 374.47 15 380.348 15 387.598C15 394.848 113.826 400.725 235.735 400.725Z" fill="white"/>
<path d="M439.027 31.7791C387.933 -17.2509 315.161 -3.79329 275.177 33.277C245.962 60.4044 199.94 99.7393 164.309 98.0291C128.984 96.3189 88.5995 71.8216 44.7119 90.6929C1.40234 109.281 -10.4276 170.766 9.15137 217.779C28.8011 264.957 100.5 303.301 187.249 339.062C219.118 352.411 253.378 359.105 287.927 358.736C287.927 358.736 366.455 357.922 395.965 339.039C419.071 324.225 428.967 314.494 453.947 276.787C472.819 248.244 485.462 208.119 486.878 169.245C488.659 121.748 477.195 68.4129 439.027 31.7791Z" fill="#E04048"/>
<path opacity="0.8" d="M439.027 31.7791C387.933 -17.2509 315.161 -3.79329 275.177 33.277C245.962 60.4044 199.94 99.7393 164.309 98.0291C128.984 96.3189 88.5995 71.8216 44.7119 90.6929C1.40234 109.281 -10.4276 170.766 9.15137 217.779C28.8011 264.957 100.5 303.301 187.249 339.062C219.118 352.411 253.378 359.105 287.927 358.736C287.927 358.736 366.455 357.922 395.965 339.039C419.071 324.225 428.967 314.494 453.947 276.787C472.819 248.244 485.462 208.119 486.878 169.245C488.659 121.748 477.195 68.4129 439.027 31.7791Z" fill="white"/>
<path d="M52.9191 109.458H420.496C423.768 109.458 426.906 110.758 429.22 113.071C431.534 115.385 432.833 118.523 432.833 121.795V364.055H40.5938V121.795C40.5937 118.525 41.8919 115.389 44.203 113.075C46.5141 110.762 49.6491 109.461 52.9191 109.458Z" fill="#E04048" stroke="#263238" stroke-width="0.920603" stroke-miterlimit="10"/>
<path d="M416.924 129.355H56.5059V333.035H416.924V129.355Z" fill="white"/>
<g style="mix-blend-mode:multiply" opacity="0.4">
<path d="M416.924 333.035V159.172L118.793 333.035H416.924Z" fill="#E04048"/>
</g>
<path d="M416.924 129.355H56.5059V333.035H416.924V129.355Z" stroke="#263238" stroke-width="0.690452" stroke-miterlimit="10"/>
<path d="M372.387 351.801H102.822V365.081H372.387V351.801Z" fill="#E04048" stroke="#263238" stroke-width="0.691688" stroke-miterlimit="10"/>
<path d="M372.387 358.205H102.822V365.093H372.387V358.205Z" fill="#E04048" stroke="#263238" stroke-width="0.691688" stroke-miterlimit="10"/>
<path d="M8.86719 372.96C8.86719 372.96 13.3019 378.374 26.559 382.797H448.639C448.639 382.797 458.475 380.332 462.91 373.444L8.86719 372.96Z" fill="#E04048" stroke="#263238" stroke-width="0.920603" stroke-miterlimit="10"/>
<path d="M460.681 363.265H11.1552C9.39647 363.265 7.9707 364.69 7.9707 366.449V370.424C7.9707 372.183 9.39647 373.608 11.1552 373.608H460.681C462.44 373.608 463.865 372.183 463.865 370.424V366.449C463.865 364.69 462.44 363.265 460.681 363.265Z" fill="#E04048" stroke="#263238" stroke-width="0.920603" stroke-miterlimit="10"/>
<path d="M236.632 120.604C238.534 120.604 240.076 119.062 240.076 117.16C240.076 115.258 238.534 113.716 236.632 113.716C234.729 113.716 233.188 115.258 233.188 117.16C233.188 119.062 234.729 120.604 236.632 120.604Z" fill="#263238"/>
<path d="M191.129 113.715H105.029C104.803 113.715 104.579 113.671 104.37 113.584C104.161 113.498 103.971 113.371 103.811 113.211C103.651 113.051 103.524 112.861 103.438 112.652C103.351 112.444 103.307 112.22 103.307 111.993V111.993C103.307 111.767 103.351 111.543 103.438 111.334C103.524 111.126 103.651 110.936 103.811 110.776C103.971 110.616 104.161 110.489 104.37 110.403C104.579 110.316 104.803 110.271 105.029 110.271H191.129C191.585 110.275 192.021 110.457 192.343 110.779C192.665 111.102 192.848 111.538 192.851 111.993V111.993C192.851 112.45 192.669 112.888 192.346 113.211C192.024 113.534 191.586 113.715 191.129 113.715V113.715Z" fill="#E04048" stroke="#263238" stroke-width="0.691688" stroke-miterlimit="10"/>
<path d="M366.738 113.715H280.638C280.181 113.715 279.743 113.534 279.42 113.211C279.097 112.888 278.916 112.45 278.916 111.993V111.993C278.919 111.538 279.102 111.102 279.424 110.779C279.746 110.457 280.182 110.275 280.638 110.271H366.738C367.195 110.271 367.633 110.453 367.956 110.776C368.279 111.099 368.46 111.537 368.46 111.993V111.993C368.46 112.45 368.279 112.888 367.956 113.211C367.633 113.534 367.195 113.715 366.738 113.715V113.715Z" fill="#E04048" stroke="#263238" stroke-width="0.691688" stroke-miterlimit="10"/>
<path d="M429.459 181.11C429.199 181.11 428.949 181.007 428.763 180.824C428.578 180.64 428.472 180.391 428.469 180.131V151.6C428.472 151.338 428.577 151.088 428.762 150.902C428.947 150.717 429.198 150.612 429.459 150.609C429.72 150.612 429.969 150.718 430.152 150.903C430.336 151.089 430.438 151.339 430.438 151.6V180.131C430.438 180.39 430.335 180.639 430.152 180.823C429.968 181.006 429.719 181.11 429.459 181.11V181.11Z" fill="#E04048" stroke="#263238" stroke-width="0.691688" stroke-miterlimit="10"/>
<path d="M44.2875 181.11C44.159 181.11 44.0317 181.084 43.9129 181.035C43.7941 180.986 43.6862 180.914 43.5953 180.823C43.5044 180.732 43.4323 180.624 43.3831 180.505C43.3339 180.387 43.3086 180.259 43.3086 180.131V151.6C43.3086 151.339 43.4113 151.089 43.5946 150.903C43.7778 150.718 44.0268 150.612 44.2875 150.609V150.609C44.5493 150.612 44.7996 150.717 44.9847 150.902C45.1699 151.088 45.2752 151.338 45.2783 151.6V180.131C45.2752 180.391 45.1694 180.64 44.984 180.824C44.7985 181.007 44.5483 181.11 44.2875 181.11V181.11Z" fill="#E04048" stroke="#263238" stroke-width="0.691688" stroke-miterlimit="10"/>
<path d="M313.875 188.588C315.549 187.409 317.354 185.309 317.413 183.092C317.435 182.572 317.348 182.054 317.158 181.57C316.968 181.086 316.679 180.647 316.309 180.282C315.939 179.916 315.497 179.632 315.01 179.448C314.524 179.263 314.005 179.183 313.485 179.211C310.36 179.494 307.588 184.401 306.928 187.126C306.928 187.361 306.456 191.147 306.515 191.136C306.574 191.124 311.893 189.992 313.875 188.588Z" fill="#263238"/>
<path d="M286.878 247.726C286.803 247.305 286.64 246.905 286.399 246.552C286.158 246.199 285.845 245.901 285.48 245.678C285.116 245.455 284.708 245.312 284.284 245.258C283.86 245.205 283.429 245.242 283.021 245.367C280.662 246.181 279.329 250.604 279.365 252.892C279.365 253.033 279.589 254.755 279.718 255.628C279.447 254.956 279.188 254.272 278.916 253.564C278.527 252.538 278.15 251.453 277.737 250.391L277.206 248.705C277.017 248.139 276.899 247.525 276.746 247.006C276.534 246.157 276.357 245.272 276.18 244.388C278.097 243.856 279.92 243.028 281.582 241.935C282.867 240.755 284.177 239.021 284.047 237.217C284.032 236.793 283.927 236.377 283.74 235.996C283.553 235.615 283.288 235.278 282.962 235.006C282.636 234.735 282.256 234.535 281.848 234.42C281.439 234.305 281.011 234.277 280.591 234.339C278.079 234.787 276.145 238.962 275.873 241.227C275.873 241.298 275.873 241.781 275.873 242.406C275.732 241.534 275.578 240.673 275.461 239.788C275.107 237.288 274.835 234.728 274.552 232.169C274.493 231.626 274.423 231.095 274.364 230.565C276.335 230.012 278.212 229.165 279.931 228.052C281.216 226.873 282.525 225.139 282.396 223.335C282.379 222.911 282.273 222.496 282.085 222.116C281.898 221.736 281.632 221.4 281.307 221.128C280.981 220.857 280.602 220.657 280.195 220.542C279.787 220.426 279.359 220.397 278.94 220.457C276.428 220.905 274.493 225.08 274.222 227.345C274.222 227.427 274.222 228.005 274.222 228.642C274.045 227.262 273.856 225.87 273.621 224.502C273.235 222.154 272.695 219.833 272.005 217.555C272.323 217.461 276.298 216.258 277.749 214.996C279.022 213.816 280.343 212.083 280.202 210.278C280.187 209.854 280.082 209.438 279.895 209.057C279.708 208.676 279.443 208.339 279.117 208.067C278.791 207.796 278.411 207.596 278.003 207.481C277.594 207.366 277.166 207.339 276.746 207.4C274.234 207.848 272.3 212.024 272.028 214.288C272.028 214.441 271.958 216.541 271.969 217.284C271.964 217.257 271.964 217.229 271.969 217.201C271.228 214.985 270.293 212.838 269.174 210.785C268.188 208.945 267.093 207.164 265.895 205.454C264.798 203.85 263.701 202.458 262.711 201.232C262.18 200.571 261.673 199.97 261.201 199.427C261.201 199.427 260.352 196.467 260.269 196.278C259.361 194.19 256.377 190.687 253.829 190.947C253.409 191 253.005 191.141 252.643 191.36C252.281 191.58 251.97 191.874 251.729 192.223C251.489 192.571 251.325 192.966 251.248 193.383C251.17 193.799 251.182 194.227 251.282 194.638C251.636 196.408 253.381 197.764 254.926 198.507C256.891 199.125 258.941 199.431 261 199.415C261.484 200.005 261.991 200.595 262.534 201.326C263.489 202.576 264.562 203.992 265.612 205.607C265.895 206.044 266.178 206.516 266.461 206.964C265.824 206.303 264.94 205.395 264.834 205.324C263.064 203.885 258.807 202.152 256.672 203.543C256.323 203.786 256.029 204.099 255.808 204.462C255.588 204.825 255.447 205.231 255.393 205.652C255.34 206.074 255.376 206.502 255.499 206.909C255.621 207.315 255.828 207.692 256.106 208.013C256.749 208.648 257.521 209.138 258.369 209.449C259.218 209.76 260.123 209.886 261.024 209.818C262.793 209.818 266.143 208.167 266.921 207.813C267.546 208.827 268.101 209.889 268.726 211.033C269.786 213.082 270.663 215.221 271.344 217.426C271.344 217.555 271.344 217.697 271.439 217.827C271.179 217.437 269.61 215.468 269.481 215.314C267.877 213.687 263.831 211.493 261.555 212.649C261.181 212.85 260.854 213.128 260.595 213.465C260.336 213.802 260.151 214.189 260.052 214.602C259.953 215.015 259.942 215.444 260.02 215.862C260.098 216.279 260.263 216.675 260.505 217.024C261.472 218.534 263.595 219.183 265.294 219.313C267.252 219.466 271.309 217.968 271.462 217.909C272.079 220.129 272.552 222.387 272.878 224.667C273.125 226.354 273.314 228.064 273.479 229.798C273.137 229.303 271.663 227.439 271.545 227.321C269.941 225.693 265.895 223.511 263.619 224.656C263.245 224.857 262.918 225.135 262.659 225.472C262.4 225.808 262.215 226.196 262.116 226.609C262.017 227.022 262.006 227.451 262.084 227.868C262.162 228.286 262.327 228.682 262.569 229.031C263.536 230.553 265.659 231.19 267.358 231.32C269.268 231.473 273.161 230.057 273.491 229.94C273.573 230.718 273.644 231.508 273.715 232.298C273.951 234.87 274.163 237.441 274.458 239.977C274.564 240.849 274.694 241.71 274.824 242.571C274.281 241.852 273.255 240.566 273.161 240.46C271.557 238.844 267.511 236.651 265.235 237.807C264.86 238.006 264.532 238.282 264.272 238.617C264.012 238.952 263.826 239.338 263.726 239.751C263.625 240.163 263.613 240.591 263.691 241.008C263.768 241.425 263.932 241.821 264.173 242.17C265.152 243.692 267.275 244.329 268.974 244.459C270.995 244.329 272.984 243.887 274.871 243.149C275.095 244.588 275.343 246.004 275.661 247.384C275.814 247.985 275.932 248.563 276.109 249.153C276.286 249.743 276.428 250.332 276.593 250.851C276.97 252.031 277.312 253.057 277.69 254.118C277.878 254.649 278.067 255.144 278.256 255.663C277.819 254.85 277.076 253.576 277.006 253.47C275.673 251.63 272.005 248.846 269.575 249.636C269.176 249.779 268.811 250.005 268.504 250.298C268.198 250.591 267.957 250.946 267.796 251.339C267.636 251.732 267.56 252.154 267.574 252.578C267.588 253.002 267.691 253.418 267.877 253.8C268.608 255.451 270.613 256.406 272.264 256.796C273.915 257.185 278.032 256.454 278.504 256.359C278.975 257.621 279.447 258.848 279.895 259.992C281.346 263.601 282.679 266.55 283.646 268.602C284.613 270.654 285.215 271.81 285.215 271.81C285.327 272.011 285.513 272.16 285.733 272.226C285.953 272.292 286.19 272.27 286.394 272.164C286.593 272.05 286.74 271.864 286.806 271.645C286.871 271.425 286.851 271.189 286.748 270.985C286.748 270.985 286.146 269.876 285.144 267.859C284.141 265.842 282.785 262.964 281.252 259.426C280.815 258.4 280.367 257.315 279.919 256.194C280.379 255.97 283.976 254.236 285.179 252.797C286.382 251.358 287.279 249.483 286.878 247.726Z" fill="#263238"/>
<path d="M266.92 207.318C266.92 207.318 270.729 204.959 271.826 203.296C272.77 201.869 273.56 199.758 273.006 198.106C272.878 197.702 272.666 197.33 272.385 197.013C272.103 196.697 271.758 196.443 271.372 196.268C270.986 196.093 270.568 196.002 270.144 196C269.72 195.997 269.301 196.084 268.913 196.255C266.554 197.34 265.846 201.881 266.141 204.145C266.141 204.334 266.92 207.341 266.92 207.318Z" fill="#263238"/>
<path d="M324.974 188.588C326.944 190.05 332.345 191.135 332.345 191.135C332.345 191.135 331.992 187.361 331.933 187.125C331.307 184.401 328.512 179.494 325.387 179.211C324.867 179.181 324.347 179.26 323.86 179.444C323.373 179.627 322.93 179.911 322.559 180.277C322.189 180.643 321.9 181.083 321.71 181.567C321.521 182.052 321.435 182.572 321.459 183.092C321.483 185.25 323.287 187.29 324.974 188.588Z" fill="#263238"/>
<path d="M347.382 240.897C344.256 241.027 341.202 245.78 340.447 248.481C340.447 248.634 340.116 250.415 339.951 251.547C339.951 250.863 339.951 250.215 339.951 249.519C339.951 248.139 339.881 246.759 339.822 245.284C339.822 244.577 339.727 243.857 339.668 243.126C339.609 242.395 339.503 241.64 339.421 240.897C339.196 239.163 338.89 237.429 338.536 235.672C339.715 235.672 344.032 235.542 345.931 234.669C347.83 233.796 350 232.145 350.472 229.951C350.604 229.447 350.627 228.92 350.54 228.406C350.453 227.892 350.259 227.402 349.969 226.969C349.679 226.535 349.301 226.168 348.859 225.892C348.417 225.615 347.922 225.435 347.405 225.363C344.292 224.998 340.553 229.244 339.397 231.803C339.326 231.957 338.701 233.879 338.383 234.941C338.159 233.891 337.946 232.841 337.699 231.791C336.956 228.748 336.106 225.694 335.281 222.639C335.021 221.707 334.785 220.763 334.538 219.832C335.21 219.832 340.116 219.832 342.192 218.817C344.268 217.803 346.261 216.293 346.733 214.1C346.863 213.595 346.884 213.069 346.797 212.556C346.709 212.042 346.515 211.553 346.225 211.12C345.936 210.687 345.558 210.32 345.117 210.043C344.677 209.766 344.182 209.585 343.667 209.512C340.553 209.158 336.826 213.404 335.67 215.951C335.576 216.14 334.679 218.912 334.49 219.631C333.948 217.567 333.429 215.515 333.004 213.463C332.417 210.705 332.011 207.911 331.789 205.1C332.155 205.1 337.345 205.1 339.491 204.086C341.39 203.213 343.56 201.562 344.044 199.368C344.172 198.863 344.192 198.337 344.102 197.823C344.013 197.31 343.817 196.821 343.527 196.388C343.237 195.956 342.859 195.589 342.417 195.312C341.976 195.035 341.481 194.854 340.966 194.78C337.852 194.426 334.125 198.672 332.969 201.22C332.875 201.42 331.919 204.404 331.789 204.947C331.789 204.794 331.789 204.617 331.789 204.452C331.632 201.622 331.727 198.784 332.073 195.971C332.249 194.414 332.497 192.928 332.78 191.501C333.795 191.607 338.3 192.008 340.364 191.313C342.428 190.617 344.693 189.26 345.4 187.161C345.582 186.673 345.66 186.153 345.628 185.634C345.596 185.115 345.455 184.608 345.215 184.147C344.975 183.686 344.641 183.28 344.234 182.956C343.827 182.632 343.356 182.397 342.853 182.266C339.786 181.57 335.611 185.38 334.184 187.786C334.113 187.916 333.464 189.331 333.004 190.381C333.134 189.732 333.264 189.06 333.405 188.446C333.936 186.088 334.585 184.047 335.127 182.207C335.458 181.169 335.776 180.226 336.083 179.353C337.109 178.94 341.213 177.253 342.699 175.708C344.186 174.163 345.589 171.887 345.247 169.705C345.186 169.188 345.016 168.689 344.749 168.241C344.482 167.794 344.124 167.408 343.698 167.109C343.271 166.809 342.787 166.603 342.275 166.504C341.764 166.404 341.237 166.414 340.73 166.532C337.699 167.322 335.752 172.63 335.587 175.425C335.587 175.661 335.8 179.471 335.847 179.447H335.906C335.599 180.285 335.269 181.181 334.927 182.172C334.325 184 333.653 186.076 333.075 188.387C332.422 190.868 331.914 193.384 331.554 195.924C331.142 198.767 330.984 201.64 331.082 204.511V204.617C330.775 203.756 329.832 201.361 329.737 201.196C328.416 198.719 324.406 194.733 321.328 195.299C320.638 195.423 320.004 195.756 319.511 196.254C319.021 195.754 318.385 195.42 317.695 195.299C314.617 194.745 310.618 198.731 309.297 201.196C309.203 201.361 308.248 203.756 307.941 204.617C307.941 204.617 307.941 204.546 307.941 204.511C308.035 201.64 307.873 198.766 307.457 195.924C307.095 193.386 306.591 190.87 305.948 188.387C305.37 186.029 304.697 184 304.084 182.172C303.742 181.181 303.424 180.285 303.105 179.447H303.164C303.164 179.447 303.435 175.661 303.424 175.425C303.27 172.63 301.312 167.322 298.281 166.532C297.774 166.414 297.247 166.404 296.736 166.504C296.224 166.603 295.74 166.809 295.313 167.109C294.887 167.408 294.528 167.794 294.262 168.241C293.995 168.689 293.825 169.188 293.764 169.705C293.422 171.887 294.861 174.21 296.311 175.708C297.762 177.206 301.902 178.94 302.928 179.353C303.235 180.226 303.553 181.169 303.895 182.207C304.462 184.047 305.075 186.135 305.606 188.446C305.747 189.06 305.877 189.732 306.018 190.381C305.558 189.331 304.921 187.916 304.839 187.786C303.412 185.427 299.237 181.57 296.182 182.266C295.677 182.395 295.206 182.629 294.798 182.953C294.39 183.276 294.055 183.682 293.814 184.144C293.574 184.606 293.434 185.114 293.403 185.633C293.371 186.153 293.45 186.674 293.634 187.161C294.342 189.26 296.677 190.699 298.659 191.313C300.64 191.926 305.228 191.607 306.254 191.501C306.526 192.928 306.773 194.414 306.95 195.971C307.3 198.784 307.399 201.622 307.245 204.452C307.245 204.617 307.245 204.794 307.186 204.947C307.056 204.404 306.089 201.409 306.007 201.22C304.827 198.672 301.112 194.426 297.998 194.78C297.482 194.853 296.988 195.034 296.547 195.312C296.106 195.589 295.729 195.956 295.44 196.389C295.15 196.822 294.955 197.311 294.868 197.824C294.78 198.338 294.802 198.864 294.932 199.368C295.403 201.527 297.574 203.178 299.472 204.086C301.619 205.077 306.809 205.1 307.174 205.1C306.941 207.919 306.527 210.72 305.936 213.486C305.499 215.539 304.98 217.591 304.438 219.655C304.249 218.935 303.353 216.116 303.258 215.975C302.079 213.427 298.364 209.181 295.25 209.535C294.734 209.608 294.24 209.789 293.799 210.067C293.358 210.344 292.981 210.711 292.691 211.144C292.402 211.577 292.207 212.066 292.12 212.579C292.032 213.093 292.054 213.619 292.183 214.123C292.655 216.282 294.825 217.933 296.724 218.841C298.8 219.796 303.718 219.855 304.379 219.855C304.131 220.787 303.895 221.731 303.636 222.662C302.81 225.717 301.961 228.772 301.277 231.815C301.018 232.865 300.805 233.914 300.581 234.964C300.263 233.903 299.638 231.98 299.567 231.827C298.387 229.267 294.672 225.021 291.558 225.387C291.043 225.46 290.548 225.641 290.107 225.918C289.667 226.196 289.289 226.563 289 226.996C288.71 227.429 288.515 227.918 288.428 228.431C288.34 228.945 288.362 229.471 288.492 229.975C288.963 232.133 291.134 233.773 293.033 234.693C294.932 235.613 299.201 235.684 300.428 235.695C300.074 237.453 299.767 239.234 299.543 240.92C299.461 241.663 299.331 242.43 299.296 243.15C299.26 243.869 299.189 244.6 299.142 245.308C299.083 246.782 299.036 248.162 299.024 249.542C299.024 250.238 299.024 250.887 299.024 251.571C298.859 250.391 298.564 248.658 298.517 248.504C297.762 245.803 294.719 241.05 291.582 240.92C291.062 240.916 290.547 241.022 290.07 241.229C289.593 241.437 289.165 241.743 288.813 242.126C288.462 242.51 288.195 242.963 288.03 243.456C287.865 243.949 287.805 244.472 287.855 244.99C287.996 247.207 289.895 249.153 291.641 250.309C293.386 251.465 298.246 252.349 299.012 252.467C299.012 254.13 299.012 255.734 299.012 257.244C299.142 262.021 299.425 265.984 299.661 268.767C299.897 271.551 300.098 273.131 300.098 273.131C300.165 273.398 300.329 273.631 300.559 273.783C300.788 273.935 301.066 273.997 301.338 273.956C301.611 273.914 301.858 273.773 302.032 273.56C302.206 273.347 302.294 273.076 302.28 272.801C302.28 272.801 302.055 271.268 301.761 268.52C301.466 265.771 301.1 261.856 300.864 257.138C300.805 255.782 300.746 254.331 300.711 252.845C301.489 252.774 306.266 252.29 308.212 251.182C310.158 250.073 312.057 248.316 312.34 246.122C312.424 245.608 312.398 245.083 312.266 244.579C312.133 244.076 311.896 243.606 311.57 243.2C311.245 242.794 310.837 242.462 310.374 242.223C309.912 241.985 309.404 241.846 308.884 241.817C305.747 241.734 302.397 246.287 301.466 248.894C301.407 249.059 300.923 251.134 300.711 252.196C300.711 251.3 300.711 250.415 300.711 249.471C300.711 248.139 300.711 246.711 300.711 245.332C300.711 244.624 300.793 243.904 300.829 243.173C300.864 242.442 300.959 241.734 301.018 241.015C301.135 239.941 301.301 238.856 301.477 237.759C302.881 237.83 306.879 237.948 308.755 237.229C310.63 236.509 312.989 234.976 313.591 232.853C313.752 232.358 313.808 231.835 313.754 231.317C313.7 230.799 313.538 230.299 313.278 229.848C313.017 229.397 312.665 229.007 312.243 228.701C311.821 228.396 311.34 228.183 310.831 228.076C307.752 227.51 303.754 231.508 302.421 233.973L301.902 235.259C302.091 234.198 302.291 233.136 302.527 232.074C303.188 229.043 303.966 225.977 304.733 222.898L305.193 220.976C306.372 221.035 310.713 221.212 312.682 220.457C314.652 219.702 316.917 218.204 317.53 216.081C317.69 215.585 317.744 215.062 317.688 214.544C317.633 214.026 317.469 213.526 317.208 213.076C316.946 212.625 316.593 212.235 316.171 211.93C315.749 211.624 315.268 211.411 314.758 211.304C311.68 210.738 307.681 214.737 306.349 217.202C306.349 217.296 306.042 217.945 305.747 218.688C306.136 217.013 306.502 215.338 306.82 213.663C307.379 210.794 307.742 207.889 307.906 204.971C308.566 204.971 313.484 205.277 315.619 204.452C317.117 203.904 318.454 202.992 319.511 201.798C320.569 202.992 321.906 203.904 323.404 204.452C325.538 205.277 330.48 205.006 331.117 204.971C331.287 207.889 331.649 210.793 332.202 213.663C332.521 215.338 332.886 217.013 333.276 218.688C332.981 217.945 332.721 217.296 332.674 217.202C331.353 214.737 327.355 210.738 324.265 211.304C323.755 211.411 323.274 211.624 322.852 211.929C322.431 212.235 322.078 212.625 321.818 213.076C321.557 213.527 321.395 214.028 321.341 214.545C321.287 215.063 321.343 215.586 321.505 216.081C322.118 218.204 324.394 219.702 326.34 220.457C328.287 221.212 332.674 221.035 333.83 220.976C333.983 221.624 334.137 222.261 334.302 222.898C335.057 225.977 335.835 229.043 336.507 232.074C336.743 233.136 336.932 234.198 337.132 235.259C336.873 234.61 336.649 234.08 336.602 233.973C335.281 231.508 331.282 227.51 328.192 228.076C327.683 228.183 327.201 228.396 326.78 228.701C326.358 229.007 326.006 229.397 325.745 229.848C325.485 230.299 325.322 230.799 325.268 231.317C325.214 231.835 325.27 232.358 325.432 232.853C326.046 234.976 328.322 236.474 330.268 237.229C332.214 237.984 336.165 237.83 337.557 237.759C337.722 238.856 337.899 239.941 338.005 241.015C338.076 241.734 338.182 242.43 338.206 243.173C338.229 243.916 338.276 244.624 338.312 245.332C338.312 246.711 338.312 248.139 338.312 249.471C338.312 250.415 338.312 251.3 338.312 252.196C338.088 251.134 337.604 249.059 337.545 248.894C336.613 246.252 333.264 241.699 330.126 241.817C329.607 241.846 329.099 241.985 328.637 242.223C328.174 242.462 327.766 242.794 327.441 243.2C327.115 243.606 326.878 244.076 326.745 244.579C326.613 245.083 326.587 245.608 326.671 246.122C326.954 248.316 329.03 250.144 330.799 251.182C332.568 252.22 337.522 252.774 338.3 252.845C338.3 254.331 338.218 255.782 338.147 257.138C337.923 261.856 337.557 265.783 337.262 268.52C336.967 271.256 336.731 272.801 336.731 272.801C336.717 273.076 336.805 273.347 336.979 273.56C337.153 273.773 337.4 273.914 337.673 273.956C337.945 273.997 338.223 273.935 338.452 273.783C338.681 273.631 338.846 273.398 338.913 273.131V273.131C338.913 273.131 339.114 271.539 339.362 268.767C339.609 265.996 339.881 262.021 339.998 257.244C339.998 255.734 340.057 254.13 340.057 252.467C340.824 252.349 345.554 251.559 347.441 250.309C349.328 249.059 351.085 247.207 351.215 244.99C351.269 244.461 351.21 243.927 351.04 243.423C350.87 242.919 350.594 242.458 350.231 242.07C349.868 241.682 349.425 241.376 348.934 241.174C348.442 240.972 347.913 240.877 347.382 240.897Z" fill="#263238"/>
<path d="M65.4582 300.907C65.4582 300.907 65.6587 308.916 67.0151 313.209C68.0011 316.147 69.1832 319.016 70.5535 321.795C70.5535 321.795 65.4818 324.532 63.1347 324.732C60.7876 324.933 57.6738 314.376 57.6738 307.158C57.6738 299.94 60.3866 297.782 65.4582 300.907Z" fill="white" stroke="#263238" stroke-width="0.48509" stroke-linecap="round" stroke-linejoin="round"/>
<path d="M51.3159 279.924C51.3159 279.924 59.5721 279.618 62.7212 281.965C65.8704 284.312 67.0145 294.656 67.9934 298.76L68.9724 302.865C66.6754 303.771 64.3087 304.489 61.8956 305.011C60.9758 305.08 60.0616 305.21 59.1593 305.401C59.1593 305.401 56.6706 291.2 53.7456 287.048C52.2665 284.912 50.6346 282.886 48.8626 280.986C48.8626 280.986 47.5417 279.405 51.3159 279.924Z" fill="white" stroke="#263238" stroke-width="0.48509" stroke-linecap="round" stroke-linejoin="round"/>
<path d="M44.5706 267.316C43.8886 269.93 42.8361 272.432 41.4451 274.747C39.0861 278.651 38.119 281.376 30.9007 281.576C23.6825 281.777 19.9672 287.662 16.877 305.2C13.7868 322.739 11.9941 342.106 17.2662 354.407C22.5384 366.709 38.1072 365.506 48.2741 361.826C58.441 358.146 60.7763 346.599 60.965 334.109C61.1537 321.619 61.1655 301.886 59.2076 291.92C57.2497 281.953 51.6002 279.819 49.0525 279.04C46.5049 278.262 49.8428 273.568 49.8428 273.568L44.5706 267.316Z" fill="white"/>
<g style="mix-blend-mode:multiply" opacity="0.4">
<path d="M23.9526 305.636C23.9526 305.636 22.2306 310.354 25.2854 314.022C28.3402 317.69 35.9005 315.933 34.4379 317.643C32.9754 319.353 26.4294 321.465 25.2854 323.175C24.9501 323.606 24.7527 324.128 24.7191 324.673C24.6854 325.218 24.817 325.761 25.0967 326.23C25.0967 326.23 19.0814 327.303 18.6568 326.288C18.2322 325.274 22.1952 311.062 22.1952 311.062L23.9526 305.636Z" fill="#E04048"/>
</g>
<g style="mix-blend-mode:multiply" opacity="0.4">
<path d="M25.7922 331.573C25.7922 331.573 21.6052 336.149 21.7939 337.47C21.9826 338.791 25.7922 335.76 25.0374 337.659C24.2825 339.558 21.0272 342.624 20.0719 344.146C19.1165 345.667 15.3541 348.368 15.3541 348.368L14.0095 338.048L13.75 336.243L25.7922 331.573Z" fill="#E04048"/>
</g>
<path d="M44.5706 267.316C43.8886 269.93 42.8361 272.432 41.4451 274.747C39.0861 278.651 38.119 281.376 30.9007 281.576C23.6825 281.777 19.9672 287.662 16.877 305.2C13.7868 322.739 11.9941 342.106 17.2662 354.407C22.5384 366.709 38.1072 365.506 48.2741 361.826C58.441 358.146 60.7763 346.599 60.965 334.109C61.1537 321.619 61.1655 301.886 59.2076 291.92C57.2497 281.953 51.6002 279.819 49.0525 279.04C46.5049 278.262 49.8428 273.568 49.8428 273.568L44.5706 267.316Z" stroke="#263238" stroke-width="0.48509" stroke-linecap="round" stroke-linejoin="round"/>
<path d="M51.318 279.925C50.5882 279.569 49.8309 279.274 49.0535 279.04C46.5176 278.262 49.8437 273.568 49.8437 273.568L44.5715 267.316C43.8895 269.93 42.837 272.432 41.446 274.747C39.4527 278.061 38.4384 280.526 33.7441 281.317C35.233 283.462 36.32 285.86 36.9523 288.393C38.1317 293.477 40.6557 301.674 45.35 299.728C49.8083 297.876 53.1933 287.178 51.318 279.925Z" fill="white"/>
<g style="mix-blend-mode:multiply" opacity="0.4">
<path d="M39.1432 281.222C37.9064 282.1 36.5252 282.755 35.0623 283.156L33.8828 281.139C33.8828 281.139 38.754 281.741 43.6251 270.524C44.6844 272.601 46.1813 274.424 48.0127 275.867L42.198 276.61" fill="#E04048"/>
</g>
<path d="M51.318 279.925C50.5882 279.569 49.8309 279.274 49.0535 279.04C46.5176 278.262 49.8437 273.568 49.8437 273.568L44.5715 267.316C43.8895 269.93 42.837 272.432 41.446 274.747C39.4527 278.061 38.4384 280.526 33.7441 281.317C35.233 283.462 36.32 285.86 36.9523 288.393C38.1317 293.477 40.6557 301.674 45.35 299.728C49.8083 297.876 53.1933 287.178 51.318 279.925Z" stroke="#263238" stroke-width="0.48509" stroke-linecap="round" stroke-linejoin="round"/>
<path d="M24.4375 303.82L30.0517 298.831" stroke="#263238" stroke-width="0.48509" stroke-linecap="round" stroke-linejoin="round"/>
<path d="M30.9004 281.576C30.9004 281.576 32.5516 283.84 33.8018 290.398C35.0521 296.956 38.7909 302.888 42.5416 304.127C46.2923 305.365 48.1558 304.127 48.1558 304.127" stroke="#263238" stroke-width="0.48509" stroke-linecap="round" stroke-linejoin="round"/>
<path d="M12.3481 303.254C12.3481 303.254 9.42305 329.202 9.22254 333.707C9.02203 338.213 10.7794 337.034 13.7163 336.255C16.6531 335.477 33.4368 327.999 37.3054 326.678C41.174 325.357 41.7991 324.921 44.9246 325.31C47.6607 325.72 50.4167 325.983 53.1808 326.1C55.1387 326.1 52.9803 321.606 50.0553 320.828C47.1302 320.049 47.3189 320.238 44.0047 321.016C40.6904 321.795 35.4064 324.142 29.7451 325.31C24.0837 326.477 19.2007 326.878 18.6228 326.289C18.0449 325.699 22.1612 308.715 22.1612 308.715L12.3481 303.254Z" fill="white" stroke="#263238" stroke-width="0.48509" stroke-linecap="round" stroke-linejoin="round"/>
<path d="M33.7421 281.316C31.565 281.576 29.3658 281.596 27.1843 281.375C25.1889 281.233 23.1859 281.509 21.3032 282.186C19.4205 282.862 17.6997 283.924 16.2508 285.303C13.1252 288.417 10.3535 298.572 9.17407 301.119C7.99461 303.667 7.61719 304.823 7.61719 304.823L22.0655 311.074L28.1161 293.889" fill="white"/>
<g style="mix-blend-mode:multiply" opacity="0.4">
<path d="M33.5908 281.187C30.751 281.492 27.8957 281.63 25.0397 281.599C23.3145 281.624 21.6162 282.031 20.0665 282.789C18.5168 283.548 17.1541 284.64 16.0759 285.987C13.3985 289.042 7.91406 304.705 7.91406 304.705L11.2755 306.144C11.2755 306.144 14.9318 289.042 19.1189 286.376C22.8 284.182 27.0455 283.119 31.3262 283.321C32.5057 283.321 33.8267 283.239 34.6641 283.156L33.5908 281.187Z" fill="#E04048"/>
</g>
<path d="M33.7421 281.316C31.565 281.576 29.3658 281.596 27.1843 281.375C25.1889 281.233 23.1859 281.509 21.3032 282.186C19.4205 282.862 17.6997 283.924 16.2508 285.303C13.1252 288.417 10.3535 298.572 9.17407 301.119C7.99461 303.667 7.61719 304.823 7.61719 304.823L22.0655 311.074L28.1161 293.889" stroke="#263238" stroke-width="0.48509" stroke-linecap="round" stroke-linejoin="round"/>
<path d="M15.3789 346.634C15.3789 346.634 21.2762 341.327 25.3689 341.02" stroke="#263238" stroke-width="0.48509" stroke-linecap="round" stroke-linejoin="round"/>
<path d="M25.9937 338.473C23.0944 339.75 20.2779 341.208 17.5605 342.837" stroke="#263238" stroke-width="0.48509" stroke-linecap="round" stroke-linejoin="round"/>
<path d="M62.5599 261.878C64.8641 252.724 62.4715 244.232 57.2159 242.909C51.9602 241.586 45.8318 247.933 43.5276 257.086C41.2234 266.24 43.616 274.732 48.8716 276.055C54.1272 277.378 60.2557 271.031 62.5599 261.878Z" fill="white"/>
<g style="mix-blend-mode:multiply" opacity="0.4">
<path d="M47.873 275.702C47.2125 274.381 46.3397 271.209 46.9648 269.204C47.9201 266.161 53.0626 262.74 53.0626 262.74C53.0626 262.74 50.7037 263.306 48.3447 263.672C45.9858 264.038 42.7188 264.568 42.7188 264.568L43.5326 270.277C44.6295 272.848 45.9622 274.948 47.873 275.702Z" fill="#E04048"/>
</g>
<path d="M62.5599 261.878C64.8641 252.724 62.4715 244.232 57.2159 242.909C51.9602 241.586 45.8318 247.933 43.5276 257.086C41.2234 266.24 43.616 274.732 48.8716 276.055C54.1272 277.378 60.2557 271.031 62.5599 261.878Z" stroke="#263238" stroke-width="0.48509" stroke-linecap="round" stroke-linejoin="round"/>
<g style="mix-blend-mode:multiply" opacity="0.4">
<path d="M43.604 270.784C42.7076 272.553 39.9241 278.073 37.0462 279.889C36.2339 280.413 35.3472 280.81 34.416 281.069" fill="#E04048"/>
</g>
<g style="mix-blend-mode:multiply" opacity="0.4">
<path d="M48.2961 299.728C48.2961 299.728 49.0628 310.59 48.2961 313.268C47.5295 315.945 44.4865 315.745 46.008 317.266C47.6654 318.646 49.4551 319.859 51.3509 320.887L54.0165 323.564L54.618 319.507C54.618 319.507 52.7073 320.085 50.7966 313.409C49.5771 308.928 48.7406 304.351 48.2961 299.728V299.728Z" fill="#E04048"/>
</g>
<path d="M57.3799 264.238C56.7601 265.136 56.3565 266.166 56.2005 267.246C56.2005 267.599 56.2005 267.918 56.2005 268.177C56.211 268.301 56.1946 268.426 56.1522 268.543C56.1099 268.66 56.0427 268.767 55.9553 268.855C55.8678 268.944 55.7622 269.012 55.6457 269.056C55.5292 269.1 55.4046 269.118 55.2805 269.109L53.877 269.003" stroke="#263238" stroke-width="0.48509" stroke-linecap="round" stroke-linejoin="round"/>
<path d="M51.3775 271.833C50.7255 271.906 50.0704 271.727 49.5463 271.332C49.0223 270.937 48.6689 270.357 48.5586 269.71" stroke="#263238" stroke-width="0.48509" stroke-linecap="round" stroke-linejoin="round"/>
<path d="M53.497 263.884L52.7894 265.299C52.3758 265.496 51.9086 265.551 51.4606 265.455C51.0126 265.359 50.6089 265.118 50.3125 264.768" stroke="#263238" stroke-width="0.48509" stroke-linecap="round" stroke-linejoin="round"/>
<path d="M59.1369 266.007L58.0872 267.423C58.0872 267.423 56.6719 267.423 56.6719 266.361" stroke="#263238" stroke-width="0.48509" stroke-linecap="round" stroke-linejoin="round"/>
<path d="M64.7272 253.458C67.0861 246.511 61.3422 239.304 52.7676 239.457C44.1929 239.611 38.1895 247.997 35.347 253.741C32.6889 256.405 30.4037 259.416 28.5533 262.693C25.015 268.743 25.015 272.258 22.3022 276.162C19.5895 280.066 11.5692 280.267 6.87496 285.35C2.18073 290.434 2.15714 296.284 4.33913 300.188C6.52112 304.092 7.8775 309.163 5.11757 312.678C2.35765 316.193 -0.343303 320.934 1.80331 328.896C2.20704 330.673 3.14391 332.285 4.48862 333.516C5.83334 334.747 7.5218 335.538 9.32823 335.784C9.21044 335.118 9.17479 334.441 9.22207 333.767C9.3754 330.228 11.1682 313.94 11.9584 306.734L7.66519 304.87C7.66519 304.87 8.05441 303.691 9.22207 301.167C10.3897 298.643 13.1261 288.464 16.2988 285.35C17.7487 283.973 19.47 282.913 21.3526 282.239C23.2352 281.565 25.2378 281.291 27.2324 281.434C29.4138 281.655 31.613 281.635 33.7901 281.375C35.1051 281.215 36.3614 280.738 37.4505 279.983C38.5396 279.229 39.4288 278.221 40.0412 277.047V277.047L40.3479 276.54V276.481C40.6781 275.938 41.0084 275.36 41.374 274.759C42.2208 273.332 42.9468 271.836 43.5442 270.288C42.9489 268.443 42.6309 266.519 42.6007 264.58C46.4457 264.45 57.0844 263.507 62.4627 257.185C62.7811 256.795 63.076 256.406 63.3355 256.005C63.2587 257.995 62.974 259.972 62.4863 261.903C61.4939 266.337 59.2555 270.397 56.0346 273.603L55.4685 274.086L55.1147 274.369C54.9378 274.499 54.7726 274.629 54.5957 274.735C54.4715 274.826 54.3415 274.909 54.2065 274.983C54.0467 275.09 53.8813 275.188 53.7111 275.278L53.2983 275.49L52.8029 275.702L52.3901 275.855L51.8948 276.009L51.482 276.115C50.6008 276.316 49.6858 276.316 48.8046 276.115L48.4625 275.997C48.0872 276.701 47.9664 277.514 48.1205 278.297C48.1813 278.494 48.2928 278.672 48.4438 278.813C48.5949 278.954 48.7803 279.052 48.9815 279.099V279.099C49.7386 279.326 50.4761 279.614 51.1871 279.96C50.7378 284.728 49.9496 289.458 48.8282 294.113C46.8703 302.311 49.0169 310.119 51.364 315.78C53.7111 321.441 60.9294 324.956 63.4652 321.677C66.001 318.398 65.2226 314.848 63.6657 307.028C62.1088 299.209 58.0043 287.898 58.0043 279.299C58.0043 270.701 63.076 267.977 65.6236 262.905C67.4518 259.237 65.8241 255.368 64.7272 253.458Z" fill="#263238"/>
<path d="M62.3432 250.828C62.3432 250.828 53.3322 258.718 44.6514 259.567C35.9706 260.417 35.0742 260.405 35.0742 260.405" stroke="white" stroke-width="0.345985" stroke-linecap="round" stroke-linejoin="round"/>
<path d="M60.3743 244.906C60.3743 244.906 52.2007 254.212 45.4424 256.465C38.6841 258.718 35.8652 258.718 35.8652 258.718" stroke="white" stroke-width="0.345985" stroke-linecap="round" stroke-linejoin="round"/>
<path d="M55.588 241.534C55.588 241.534 53.3352 248.61 47.9805 251.96" stroke="white" stroke-width="0.345985" stroke-linecap="round" stroke-linejoin="round"/>
<path d="M40.0889 268.012C40.0889 268.012 39.8059 277.035 34.7342 278.438C29.6626 279.842 24.0366 277.035 17.5496 280.408C15.0177 281.77 12.9607 283.871 11.6523 286.431C10.3439 288.991 9.84607 291.888 10.2251 294.738" stroke="white" stroke-width="0.345985" stroke-linecap="round" stroke-linejoin="round"/>
<path d="M8.25533 332.811C6.91164 330.861 6.0133 328.64 5.62399 326.304C5.23468 323.968 5.36393 321.575 6.00257 319.295C8.25533 311.687 9.94195 308.868 9.94195 308.868" stroke="white" stroke-width="0.345985" stroke-linecap="round" stroke-linejoin="round"/>
<path d="M58.1593 282.661C58.1593 282.661 59.5629 293.37 54.7743 300.128C49.9857 306.887 53.0877 316.193 53.0877 316.193" stroke="white" stroke-width="0.345985" stroke-linecap="round" stroke-linejoin="round"/>
<path d="M58.4056 272.801C58.4056 272.801 58.6887 275.903 54.7375 283.793C50.7864 291.684 49.6659 294.219 49.3828 299.857" stroke="white" stroke-width="0.345985" stroke-linecap="round" stroke-linejoin="round"/>
<path d="M85.4512 362.51C85.4512 362.51 91.7848 361.897 95.4529 363.524C99.1211 365.152 99.9467 367.806 100.76 365.364C101.574 362.923 101.574 361.484 98.5195 359.856C95.4647 358.228 94.2263 359.243 93.0115 358.016C92.4151 357.376 91.7275 356.828 90.971 356.388C90.971 356.388 87.7039 355.976 87.4916 357.816C87.2793 359.656 84.2363 360.257 84.2363 360.257L85.4512 362.51Z" fill="white" stroke="#263238" stroke-width="0.48509" stroke-miterlimit="10"/>
<path d="M111.929 314.577C109.783 309.694 100.831 313.044 90.4514 321.406C77.0174 332.233 66.5793 334.757 60.9651 335.194V335.017C58.04 333.649 53.8883 333.59 48.9464 334.392C48.7931 334.168 48.6398 333.944 48.4982 333.708C39.0626 319.071 36.5857 316.535 33.4602 319.071C30.3346 321.606 26.8198 325.51 27.9875 337.623C28.0917 338.576 28.2731 339.519 28.5301 340.442C23.885 342.65 19.4683 345.308 15.3438 348.38C15.7975 350.443 16.437 352.46 17.2545 354.407C22.503 366.673 38.0483 365.553 48.2034 361.861C51.2742 363.522 54.6108 364.636 58.0636 365.152C66.1075 366.154 71.5448 365.86 74.7293 364.645L80.1312 369.056C88.6343 362.604 95.8381 354.6 101.361 345.467C104.054 340.912 106.442 336.184 108.509 331.313C111.87 323.706 113.014 317.03 111.929 314.577Z" fill="#263238"/>
<path d="M48.4743 333.661C49.5989 335.419 50.8277 337.109 52.1542 338.721L88.8235 332.139L77.2766 322.892L44.5703 327.681C45.6908 329.403 47 331.408 48.4743 333.661Z" fill="#E04048" stroke="#263238" stroke-width="0.48509" stroke-linecap="round" stroke-linejoin="round"/>
<path opacity="0.5" d="M48.4743 333.661C49.5989 335.419 50.8277 337.109 52.1542 338.721L88.8235 332.139L77.2766 322.892L44.5703 327.681C45.6908 329.403 47 331.408 48.4743 333.661Z" fill="white" stroke="#263238" stroke-width="0.52825" stroke-linecap="round" stroke-linejoin="round"/>
<path d="M56.6363 311.994L50.9277 337.199C51.3287 337.73 51.7416 338.249 52.1072 338.756L88.8236 332.139L96.0773 305.743L56.6363 311.994Z" fill="#E04048" stroke="#263238" stroke-width="0.48509" stroke-linecap="round" stroke-linejoin="round"/>
<path d="M75.317 326.655C74.6071 326.856 73.8534 326.844 73.1506 326.619C72.4477 326.394 71.8268 325.967 71.3656 325.39C70.9044 324.814 70.6234 324.115 70.5578 323.38C70.4922 322.645 70.6449 321.907 70.9969 321.258C71.3488 320.609 71.8842 320.079 72.5362 319.733C73.1881 319.387 73.9276 319.242 74.662 319.314C75.3965 319.387 76.0932 319.674 76.665 320.141C77.2367 320.607 77.6582 321.232 77.8765 321.937C78.1555 322.902 78.0434 323.938 77.5644 324.821C77.0854 325.704 76.2781 326.363 75.317 326.655V326.655Z" fill="white"/>
<path opacity="0.5" d="M56.6363 311.994L50.9277 337.199C51.3287 337.73 51.7416 338.249 52.1072 338.756L88.8236 332.139L96.0773 305.743L56.6363 311.994Z" fill="white" stroke="#263238" stroke-width="0.52825" stroke-linecap="round" stroke-linejoin="round"/>
<path d="M75.317 326.655C74.6071 326.856 73.8534 326.844 73.1506 326.619C72.4477 326.394 71.8268 325.967 71.3656 325.39C70.9044 324.814 70.6234 324.115 70.5578 323.38C70.4922 322.645 70.6449 321.907 70.9969 321.258C71.3488 320.609 71.8842 320.079 72.5362 319.733C73.1881 319.387 73.9276 319.242 74.662 319.314C75.3965 319.387 76.0932 319.674 76.665 320.141C77.2367 320.607 77.6582 321.232 77.8765 321.937C78.1555 322.902 78.0434 323.938 77.5644 324.821C77.0854 325.704 76.2781 326.363 75.317 326.655V326.655Z" fill="white" stroke="#263238" stroke-width="0.52825" stroke-linecap="round" stroke-linejoin="round"/>
<path d="M73.4902 362.593C73.4902 362.593 68.4421 366.343 65.5996 367.9C62.7571 369.457 61.8489 368.926 59.1244 371.521C56.3999 374.116 54.0881 375.92 53.4394 376.958C52.7907 377.996 52.0123 379.022 51.6231 376.699C51.4639 375.507 51.6197 374.294 52.075 373.18C52.5302 372.067 53.269 371.092 54.2179 370.353C56.0224 369.056 58.4875 368.537 58.4875 366.815C58.4281 366.063 58.665 365.318 59.1476 364.738C59.6302 364.159 60.3203 363.791 61.0705 363.713C62.4976 363.713 63.4294 365.128 66.1186 363.713C67.9669 362.571 69.4838 360.965 70.5179 359.054L73.4902 362.593Z" fill="white" stroke="#263238" stroke-width="0.48509" stroke-miterlimit="10"/>
<path d="M28.8359 341.74C28.8359 341.74 34.4148 355.079 47.2708 361.142" stroke="white" stroke-width="0.345985" stroke-miterlimit="10"/>
<path d="M72.2051 352.661C72.2051 352.661 80.19 348.663 91.8902 328.447" stroke="white" stroke-width="0.345985" stroke-miterlimit="10"/>
<path d="M50.7969 337.612C50.7969 337.612 59.2536 350.008 69.1138 354.23" stroke="white" stroke-width="0.345985" stroke-miterlimit="10"/>
<path d="M202.57 211.41H130.152C125.156 211.41 121.105 215.46 121.105 220.457V373.338C121.105 378.334 125.156 382.384 130.152 382.384H202.57C207.567 382.384 211.617 378.334 211.617 373.338V220.457C211.617 215.46 207.567 211.41 202.57 211.41Z" fill="#263238"/>
<path d="M207.594 230.187H125.127V363.619H207.594V230.187Z" fill="white"/>
<g style="mix-blend-mode:multiply" opacity="0.4">
<path d="M207.596 318.776L130.719 363.607H207.596V318.776Z" fill="#E04048"/>
</g>
<path d="M207.594 230.187H125.127V363.619H207.594V230.187Z" stroke="#263238" stroke-width="0.52825" stroke-miterlimit="10"/>
<path d="M175.324 220.846H157.396C157.083 220.846 156.783 220.721 156.562 220.5C156.341 220.279 156.217 219.979 156.217 219.666C156.217 219.353 156.341 219.053 156.562 218.832C156.783 218.611 157.083 218.487 157.396 218.487H175.324C175.637 218.487 175.937 218.611 176.158 218.832C176.379 219.053 176.503 219.353 176.503 219.666C176.503 219.979 176.379 220.279 176.158 220.5C175.937 220.721 175.637 220.846 175.324 220.846Z" fill="#E04048"/>
<path opacity="0.4" d="M175.324 220.846H157.396C157.083 220.846 156.783 220.721 156.562 220.5C156.341 220.279 156.217 219.979 156.217 219.666C156.217 219.353 156.341 219.053 156.562 218.832C156.783 218.611 157.083 218.487 157.396 218.487H175.324C175.637 218.487 175.937 218.611 176.158 218.832C176.379 219.053 176.503 219.353 176.503 219.666C176.503 219.979 176.379 220.279 176.158 220.5C175.937 220.721 175.637 220.846 175.324 220.846Z" fill="white"/>
<path d="M171.256 371.143C171.256 370.175 170.969 369.229 170.431 368.424C169.894 367.619 169.129 366.992 168.235 366.621C167.34 366.251 166.356 366.154 165.407 366.343C164.457 366.531 163.585 366.998 162.9 367.682C162.216 368.367 161.75 369.239 161.561 370.188C161.372 371.138 161.469 372.122 161.839 373.016C162.21 373.911 162.837 374.675 163.642 375.213C164.447 375.751 165.393 376.038 166.362 376.038C167.66 376.038 168.905 375.522 169.823 374.604C170.741 373.686 171.256 372.441 171.256 371.143Z" fill="#E04048" stroke="#263238" stroke-width="0.704333" stroke-miterlimit="10"/>
<path d="M168.837 368.667H163.883V373.621H168.837V368.667Z" fill="#E04048" stroke="#263238" stroke-width="0.52825" stroke-linecap="round" stroke-linejoin="round"/>
<path opacity="0.6" d="M168.837 368.667H163.883V373.621H168.837V368.667Z" fill="white" stroke="#263238" stroke-width="0.52825" stroke-linecap="round" stroke-linejoin="round"/>
<path d="M168.837 368.667H163.883V373.621H168.837V368.667Z" stroke="#263238" stroke-width="0.52825" stroke-linecap="round" stroke-linejoin="round"/>
<path d="M447.59 369.622V264.096C447.59 256.814 441.686 250.91 434.404 250.91L211.64 250.91C204.357 250.91 198.454 256.814 198.454 264.096V369.622C198.454 376.905 204.357 382.809 211.64 382.809H434.404C441.686 382.809 447.59 376.905 447.59 369.622Z" fill="#E04048" stroke="#263238" stroke-width="0.868674" stroke-miterlimit="10"/>
<path d="M434.309 376.946V256.771H211.734V376.946H434.309Z" fill="white"/>
<g style="mix-blend-mode:multiply" opacity="0.4">
<path d="M434.308 280.892L269.621 376.935H434.308V280.892Z" fill="#E04048"/>
</g>
<path d="M434.309 376.946V256.771H211.734V376.946H434.309Z" stroke="#263238" stroke-width="0.651505" stroke-miterlimit="10"/>
<path d="M440.299 318.658C439.939 318.658 439.587 318.551 439.288 318.351C438.989 318.151 438.757 317.866 438.62 317.534C438.482 317.201 438.447 316.835 438.518 316.483C438.589 316.13 438.763 315.806 439.019 315.553C439.274 315.299 439.599 315.127 439.952 315.058C440.305 314.99 440.67 315.027 441.002 315.167C441.334 315.306 441.617 315.54 441.815 315.841C442.013 316.141 442.117 316.493 442.115 316.853C442.112 317.333 441.919 317.792 441.579 318.13C441.239 318.468 440.778 318.658 440.299 318.658Z" fill="#263238"/>
<path d="M408.053 252.113H416.015C416.256 252.113 416.451 251.918 416.451 251.677V251.347C416.451 251.106 416.256 250.91 416.015 250.91H408.053C407.812 250.91 407.617 251.106 407.617 251.347V251.677C407.617 251.918 407.812 252.113 408.053 252.113Z" fill="#E04048" stroke="#263238" stroke-width="0.652671" stroke-miterlimit="10"/>
<path d="M379.936 252.101H395.186C395.266 252.103 395.345 252.088 395.42 252.059C395.494 252.029 395.562 251.985 395.619 251.929C395.676 251.873 395.721 251.806 395.752 251.733C395.783 251.659 395.799 251.58 395.799 251.5C395.799 251.42 395.783 251.34 395.752 251.267C395.721 251.193 395.676 251.126 395.619 251.07C395.562 251.014 395.494 250.97 395.42 250.94C395.345 250.911 395.266 250.896 395.186 250.898H379.936C379.776 250.898 379.623 250.961 379.51 251.074C379.397 251.187 379.334 251.34 379.334 251.5V251.5C379.334 251.659 379.397 251.812 379.51 251.925C379.623 252.038 379.776 252.101 379.936 252.101V252.101Z" fill="#E04048" stroke="#263238" stroke-width="0.652671" stroke-miterlimit="10"/>
<path d="M421.843 386.147C421.843 387.904 411.322 389.331 398.348 389.331C385.374 389.331 374.842 387.916 374.842 386.147C374.842 384.378 385.363 382.95 398.348 382.95C411.334 382.95 421.843 384.378 421.843 386.147Z" fill="#E04048"/>
<path d="M378.119 338.874C378.119 365.719 399.349 387.468 399.349 387.468C399.349 387.468 420.58 365.719 420.58 338.874C420.58 312.03 399.349 290.281 399.349 290.281C399.349 290.281 378.119 312.03 378.119 338.874Z" fill="#263238"/>
<path d="M399.387 387.468V290.281" stroke="white" stroke-width="0.738" stroke-miterlimit="10"/>
<path d="M399.385 324.827L387.473 314.436" stroke="white" stroke-width="0.738" stroke-miterlimit="10"/>
<path d="M399.576 340.891L414.308 319.531" stroke="white" stroke-width="0.738" stroke-miterlimit="10"/>
<path d="M399.386 350.15L381.812 334.463" stroke="white" stroke-width="0.738" stroke-miterlimit="10"/>
<path d="M399.576 362.617L416.961 347.119" stroke="white" stroke-width="0.738" stroke-miterlimit="10"/>
<path d="M399.574 373.385L385.963 362.617" stroke="white" stroke-width="0.738" stroke-miterlimit="10"/>
<path d="M363.389 373.763C373.721 385.416 391.307 386.666 391.307 386.666C391.307 386.666 392.168 369.057 381.871 357.404C371.574 345.751 353.953 344.5 353.953 344.5C353.953 344.5 353.022 362.169 363.389 373.763Z" fill="#263238"/>
<path d="M391.307 386.713L353.918 344.547" stroke="white" stroke-width="0.738" stroke-miterlimit="10"/>
<path d="M367.211 359.539L358.047 359.609" stroke="white" stroke-width="0.738" stroke-miterlimit="10"/>
<path d="M373.473 366.438L371.645 351.506" stroke="white" stroke-width="0.738" stroke-miterlimit="10"/>
<path d="M376.951 370.519L363.293 370.484" stroke="white" stroke-width="0.738" stroke-miterlimit="10"/>
<path d="M381.836 375.862L383.416 362.452" stroke="white" stroke-width="0.738" stroke-miterlimit="10"/>
<path d="M385.977 380.533L375.928 381.099" stroke="white" stroke-width="0.738" stroke-miterlimit="10"/>
<path d="M417.573 357.05C406.722 368.207 406.781 385.852 406.781 385.852C406.781 385.852 424.414 385.392 435.253 374.222C446.093 363.053 446.045 345.456 446.045 345.456C446.045 345.456 428.412 345.88 417.573 357.05Z" fill="#263238"/>
<path d="M406.781 385.852L446.045 345.42" stroke="white" stroke-width="0.738" stroke-miterlimit="10"/>
<path d="M432.093 359.786L431.338 350.657" stroke="white" stroke-width="0.738" stroke-miterlimit="10"/>
<path d="M425.676 366.544L440.431 363.619" stroke="white" stroke-width="0.738" stroke-miterlimit="10"/>
<path d="M421.854 370.319L420.887 356.696" stroke="white" stroke-width="0.738" stroke-miterlimit="10"/>
<path d="M416.9 375.591L430.393 376.157" stroke="white" stroke-width="0.738" stroke-miterlimit="10"/>
<path d="M412.547 380.072L411.238 370.094" stroke="white" stroke-width="0.738" stroke-miterlimit="10"/>
</svg>
