<svg width="84" height="92" viewBox="0 0 84 92" fill="none" xmlns="http://www.w3.org/2000/svg">
<path d="M21.7153 0.168009C21.4988 0.194649 21.2861 0.264689 21.0853 0.379797C20.2823 0.840231 20.0048 1.85991 20.4684 2.65733L24.9867 10.4283C19.1895 14.9986 15.0768 21.7759 13.8534 29.4306H70.2581C69.1934 21.5982 65.0634 14.7623 59.1347 10.2231L63.5316 2.65733C63.9952 1.85991 63.7177 0.840231 62.9147 0.379797C62.1116 -0.0806367 61.0848 0.191677 60.6211 0.989095L56.3358 8.35932C52.2691 5.94656 47.5752 4.50935 42.5447 4.41354C37.1441 4.31103 32.0779 5.81694 27.7364 8.48313L23.3789 0.989095C23.0311 0.391031 22.365 0.0880898 21.7153 0.168009ZM29.4 16.0847C30.791 16.0847 31.92 17.2057 31.92 18.587C31.92 19.9683 30.791 21.0894 29.4 21.0894C28.009 21.0894 26.88 19.9683 26.88 18.587C26.88 17.2057 28.009 16.0847 29.4 16.0847ZM54.6 16.0847C55.991 16.0847 57.12 17.2057 57.12 18.587C57.12 19.9683 55.991 21.0894 54.6 21.0894C53.209 21.0894 52.08 19.9683 52.08 18.587C52.08 17.2057 53.209 16.0847 54.6 16.0847ZM13.5056 32.8583C13.4855 33.3021 13.44 33.7406 13.44 34.1877V69.3119C13.44 73.0821 16.4489 76.1413 20.16 76.1413H25.2V86.9848C25.2 89.2886 27.0799 91.1554 29.4 91.1554C31.7201 91.1554 33.6 89.2886 33.6 86.9848V76.1413H50.4V86.9848C50.4 89.2886 52.2799 91.1554 54.6 91.1554C56.9201 91.1554 58.8 89.2886 58.8 86.9848V76.1413H63.84C67.5511 76.1413 70.56 73.0821 70.56 69.3119V34.3473L13.5056 32.8583ZM4.2 34.4353C1.87992 34.4353 0 36.3021 0 38.6059V51.9518C0 54.2556 1.87992 56.1224 4.2 56.1224C6.52008 56.1224 8.4 54.2556 8.4 51.9518V38.6059C8.4 36.3021 6.52008 34.4353 4.2 34.4353ZM79.8 34.4353C77.4799 34.4353 75.6 36.3021 75.6 38.6059V51.9518C75.6 54.2556 77.4799 56.1224 79.8 56.1224C82.1201 56.1224 84 54.2556 84 51.9518V38.6059C84 36.3021 82.1201 34.4353 79.8 34.4353Z" fill="white"/>
</svg>
