<svg xmlns="http://www.w3.org/2000/svg" fill="none" viewBox="4.29 58.24 487.42 434.62">
<path d="M247.999 492.86C382.596 492.86 491.709 431.93 491.709 356.77C491.709 281.609 382.596 220.68 247.999 220.68C113.402 220.68 4.28906 281.609 4.28906 356.77C4.28906 431.93 113.402 492.86 247.999 492.86Z" fill="#F5F5F5"/>
<path d="M101.22 408.32C129.84 408.32 153.04 394.924 153.04 378.4C153.04 361.876 129.84 348.48 101.22 348.48C72.601 348.48 49.4004 361.876 49.4004 378.4C49.4004 394.924 72.601 408.32 101.22 408.32Z" fill="#E0E0E0"/>
<path d="M118.188 348C118.088 341.15 121.408 300.15 121.408 300.15L100.998 309.87C102.998 334.71 104.688 346.56 104.628 348.57C104.527 348.894 104.476 349.231 104.478 349.57C104.268 354.09 109.478 356.82 113.568 360.06C117.014 362.914 120.693 365.473 124.568 367.71C127.568 369.32 133.728 369.79 134.568 367.96C129.648 363.96 123.948 359.63 120.098 355.18C118.288 353 118.268 352.76 118.188 348Z" fill="#FDCACA"/>
<path d="M143.058 373.27C143.318 373.27 143.578 376.05 142.058 377.14C140.358 378.39 135.438 380.34 129.118 379.22C122.798 378.1 119.478 376 116.998 373.88C114.518 371.76 111.128 368.67 108.278 367.88C105.638 367.17 102.788 365.88 101.968 365.04C101.148 364.2 101.448 360.72 101.448 360.72L143.058 373.27Z" fill="black"/>
<path d="M124.229 356.94C123.839 356.52 123.459 356.1 123.099 355.68C122.153 354.54 121.405 353.249 120.889 351.86C120.621 351.276 120.384 350.679 120.179 350.07C119.959 349.23 119.839 348.35 119.669 347.5C119.596 347.083 119.482 346.675 119.329 346.28C119.235 346.017 119.041 345.801 118.789 345.68C118.634 345.65 118.474 345.65 118.319 345.68C115.937 345.758 113.593 346.302 111.419 347.28C110.849 347.54 110.419 347.85 110.349 348.49C110.402 349.23 110.297 349.974 110.039 350.67C109.985 350.799 109.894 350.91 109.779 350.99C109.695 351.036 109.6 351.061 109.504 351.061C109.408 351.061 109.313 351.036 109.229 350.99C109.057 350.895 108.913 350.757 108.809 350.59C108.179 349.7 108.029 348.51 107.309 347.68C106.91 347.244 106.38 346.95 105.799 346.84C105.519 346.78 104.569 346.76 104.509 346.36L104.329 344.51C104.329 344.51 103.759 344.24 103.389 345.34C103.129 346.483 102.981 347.648 102.949 348.82C102.829 350.09 102.659 351.08 102.439 352.34C102.169 353.84 101.919 355.34 101.679 356.84C101.329 358.279 101.191 359.761 101.269 361.24C101.342 361.893 101.66 362.493 102.159 362.92C102.915 363.678 103.803 364.292 104.779 364.73C106.099 365.37 107.479 365.89 108.839 366.46C112.031 367.984 114.98 369.972 117.589 372.36C121.423 375.321 125.975 377.209 130.779 377.83C137.099 378.25 141.659 376.47 143.029 374.37C143.249 372.91 143.439 371.37 142.829 370.29C140.829 366.73 135.999 365.29 132.179 363.14C130.518 362.161 128.925 361.072 127.409 359.88C126.27 358.989 125.207 358.006 124.229 356.94Z" fill="#37474F"/>
<path d="M120.57 366.18C120.683 366.247 120.815 366.275 120.945 366.259C121.076 366.242 121.197 366.183 121.29 366.09C124.05 363.38 129.29 361.77 131.01 362.39C131.01 362.39 130.8 361.55 129.01 361.04C129.01 361.04 124.42 360.6 119.88 364.91C119.815 364.973 119.765 365.05 119.735 365.136C119.705 365.221 119.695 365.312 119.705 365.402C119.716 365.492 119.747 365.578 119.796 365.654C119.846 365.73 119.912 365.794 119.99 365.84L120.57 366.18Z" fill="#FAFAFA"/>
<path d="M126.688 359.26C124.788 358.54 120.188 360.56 117.918 362.77C117.827 362.867 117.703 362.927 117.57 362.938C117.437 362.949 117.305 362.911 117.198 362.83L116.628 362.4C116.566 362.349 116.515 362.285 116.48 362.213C116.446 362.14 116.428 362.061 116.428 361.98C116.428 361.9 116.446 361.82 116.48 361.747C116.515 361.675 116.566 361.611 116.628 361.56C117.908 360.38 121.628 357.37 125.168 357.86C125.128 357.86 126.548 358.56 126.688 359.26Z" fill="#FAFAFA"/>
<path d="M123.099 355.68C121.729 355.37 118.099 356.13 115.099 358.49C115.04 358.535 114.973 358.567 114.901 358.584C114.829 358.6 114.754 358.601 114.682 358.586C114.609 358.57 114.541 358.54 114.482 358.495C114.423 358.451 114.374 358.395 114.339 358.33L114.079 357.81C114.023 357.708 114.006 357.59 114.03 357.476C114.054 357.363 114.117 357.261 114.209 357.19C115.209 356.37 118.759 353.88 122.079 354.32C122.533 354.675 122.885 355.144 123.099 355.68Z" fill="#FAFAFA"/>
<path d="M134.518 364.3C126.628 365.97 123.588 371.02 122.148 375.17C124.848 376.543 127.77 377.426 130.778 377.78C137.098 378.2 141.658 376.42 143.028 374.32C143.248 372.86 143.438 371.32 142.828 370.24C141.238 367.38 137.788 365.89 134.518 364.3Z" fill="#FAFAFA"/>
<path d="M85.9197 318.9L66.9197 316.21C67.2197 326.21 66.5697 339.55 66.1297 350.78C65.597 353.227 65.4988 355.749 65.8397 358.23C66.2297 360.39 62.8397 375.8 63.8397 380.3C65.2797 387.06 75.8397 384.95 76.2797 380.87C76.7197 376.79 77.9797 368.62 79.3597 357.87C80.4697 348.67 85.8297 319.54 85.9197 318.9Z" fill="#FDCACA"/>
<path d="M78.699 383.43L72.369 369.3C70.599 368.3 68.499 366.3 66.529 367.4C65.8346 367.75 65.1919 368.194 64.619 368.72C63.149 370.18 63.009 372.29 62.619 374.19C62.229 376.09 60.829 377.83 60.529 379.8C59.959 383.51 59.809 385.86 60.799 389.27C61.789 392.68 65.109 394.61 68.419 395.58C71.189 396.39 74.709 395.65 76.249 393.29C78.159 390.32 78.569 387.42 78.699 383.43Z" fill="black"/>
<path d="M78.6188 383.3C76.0688 379.86 63.7488 378.63 60.2988 381.72C60.2988 381.27 60.3888 380.78 60.4488 380.27C60.8043 376.904 61.5184 373.585 62.5788 370.37C63.2437 368.362 63.7552 366.306 64.1088 364.22C64.3788 362.07 64.6988 357.61 64.8388 356.09C64.8788 354.589 65.0191 353.092 65.2588 351.61C65.3688 351.17 65.4988 350.61 66.0788 350.78C66.0788 350.78 66.0788 351.52 65.9888 351.97C65.8988 352.42 65.9188 352.89 65.8888 353.28C65.8088 354.2 65.8088 355.03 65.7988 355.96C65.7733 356.314 65.8139 356.67 65.9188 357.01C65.948 357.087 66.0004 357.154 66.0688 357.2C66.3288 357.31 66.3088 356.7 66.3288 356.58L66.7388 354.29C66.746 354.169 66.7915 354.053 66.8688 353.96C66.9368 353.893 67.0188 353.842 67.1088 353.81C69.0388 353.06 70.4688 352.42 72.4588 352.75C73.5672 352.914 74.6584 353.178 75.7188 353.54C76.4888 353.81 77.8588 354.24 78.2888 354.99C78.4476 355.355 78.4827 355.763 78.3888 356.15C78.2788 357.15 78.1388 358.34 77.9888 359.5C77.8188 360.9 79.5988 356.21 79.8988 353.56C80.6388 353.73 80.5488 354.56 79.8988 357.7C79.1229 361.644 78.615 365.637 78.3788 369.65C78.1989 372.851 78.1989 376.059 78.3788 379.26C78.5188 380.68 78.5988 382 78.6188 383.3Z" fill="#37474F"/>
<path d="M64.4696 375.54C68.4077 375.057 72.4039 375.471 76.1596 376.75C76.2103 376.772 76.2657 376.78 76.3206 376.775C76.3756 376.77 76.4283 376.751 76.4741 376.72C76.5199 376.69 76.5572 376.648 76.5826 376.599C76.608 376.55 76.6207 376.495 76.6196 376.44V375.35C76.6192 375.289 76.601 375.228 76.5673 375.177C76.5336 375.126 76.4858 375.085 76.4296 375.06C72.6749 373.463 68.5178 373.068 64.5296 373.93C64.4614 373.943 64.3989 373.978 64.3506 374.028C64.3023 374.078 64.2706 374.141 64.2596 374.21L64.1096 375.21C64.1078 375.256 64.1161 375.303 64.134 375.346C64.1519 375.389 64.1789 375.427 64.2131 375.458C64.2474 375.49 64.2881 375.513 64.3324 375.527C64.3767 375.542 64.4235 375.546 64.4696 375.54Z" fill="#FAFAFA"/>
<path d="M65.62 370.12C69.1634 369.616 72.7772 370.104 76.06 371.53C76.1077 371.551 76.16 371.561 76.2122 371.557C76.2643 371.553 76.3148 371.537 76.3593 371.509C76.4037 371.482 76.4406 371.444 76.4669 371.398C76.4932 371.353 76.508 371.302 76.51 371.25V370.25C76.5082 370.191 76.4892 370.134 76.4554 370.086C76.4217 370.039 76.3746 370.001 76.32 369.98C75.38 369.56 72.06 367.58 65.67 368.65C65.6042 368.657 65.5424 368.686 65.4939 368.731C65.4453 368.776 65.4124 368.835 65.4 368.9L65.26 369.78C65.2583 369.827 65.2667 369.873 65.2845 369.917C65.3023 369.96 65.3291 369.999 65.3632 370.031C65.3972 370.063 65.4377 370.088 65.482 370.103C65.5263 370.119 65.5733 370.124 65.62 370.12Z" fill="#FAFAFA"/>
<path d="M66.5999 365.17C69.9148 364.657 73.3073 365.112 76.3699 366.48C76.4159 366.5 76.4663 366.508 76.5163 366.504C76.5664 366.5 76.6145 366.483 76.6563 366.455C76.6981 366.427 76.7323 366.389 76.7556 366.345C76.7789 366.3 76.7907 366.25 76.7899 366.2V365.2C76.786 365.145 76.7672 365.091 76.7355 365.045C76.7039 365 76.6605 364.963 76.6099 364.94C75.7399 364.53 72.6099 362.63 66.6099 363.71C66.5471 363.72 66.4891 363.749 66.4441 363.794C66.3992 363.839 66.3697 363.897 66.3599 363.96L66.2299 364.81C66.2205 364.86 66.2237 364.912 66.2391 364.961C66.2546 365.01 66.2818 365.054 66.3184 365.089C66.355 365.125 66.3999 365.151 66.449 365.165C66.4981 365.179 66.5499 365.181 66.5999 365.17Z" fill="#FAFAFA"/>
<path d="M60.3291 381.76C60.2191 385.11 60.5091 387.39 62.2691 389.89C64.5091 393.09 72.7891 396.08 76.3591 391.34C78.1291 388.98 78.5391 386.22 78.6991 383.43C76.3491 379.89 63.7491 378.62 60.3291 381.76Z" fill="#FAFAFA"/>
<path d="M71.4787 210.4C68.8087 231.95 69.1387 257.89 68.2987 271.78C67.4587 285.67 65.9087 295.11 65.7387 305.68C65.4487 323.55 65.9987 343 65.9987 343C65.9987 343 73.5187 347.29 81.9987 344.47C81.9987 344.47 89.0787 308.31 90.8887 297.17C93.4787 281.3 96.8887 253.09 96.8887 253.09L100.009 283.09C98.6233 290.527 98.3101 298.124 99.0787 305.65C99.8587 312.65 103.189 338.26 103.189 338.26C105.812 339.295 108.63 339.743 111.445 339.57C114.26 339.397 117.002 338.609 119.479 337.26C119.479 337.26 123.869 288.26 124.229 281.79C124.759 272.68 125.339 204.79 125.229 197.02L71.4787 210.4Z" fill="#455A64"/>
<path d="M96.8691 253.05L99.2591 237.05C99.2591 237.05 110.039 234.05 114.609 226.79C111.609 235.72 101.669 239.68 101.669 239.68L98.2591 255.21L99.9991 283.05L96.8691 253.05Z" fill="#37474F"/>
<path d="M112.24 138.11C120.75 139.45 123.54 142.38 126.56 149.59C131.7 161.88 136.69 174 136.69 174L160.2 183.4L158.13 198.4C158.13 198.4 140.07 194.7 129.45 191.89C126.45 191.08 125.36 189.16 123.88 186.98C122.66 185.2 111 163.49 111 163.49L112.24 138.11Z" fill="#263238"/>
<path d="M123.77 157.65C121.57 146.31 120.55 141.28 113.18 138.75C105.81 136.22 93.1796 136.32 93.1796 136.32C89.3796 137.32 77.5196 140.16 72.3496 141.7C67.1796 143.24 68.2496 155.26 69.4496 162.93C70.9025 171.689 71.8242 180.529 72.2096 189.4C72.0096 201.62 70.9096 209.87 70.4296 216.86C81.4296 223.86 113.62 222.62 125.29 215.59C125.56 209.78 125.65 194.45 125.55 186.93C125.36 172.82 124.69 162.43 123.77 157.65Z" fill="#37474F"/>
<path d="M75.8999 140.37C71.5099 141.13 65.9599 142.37 63.4699 146.37C61.6699 149.27 52.1199 171.7 52.3599 180.84C56.0199 191.21 74.9299 172.18 74.9299 172.18C77.1099 159.81 79.7899 146.94 75.8999 140.37Z" fill="#263238"/>
<path d="M116.561 92.1699C113.777 89.2313 110.119 87.2706 106.131 86.5799C102.172 85.8236 98.0907 86.0155 94.2206 87.1399C89.7406 88.4599 84.9306 92.3099 84.6406 97.7999C82.5006 98.2899 80.9306 100.48 80.4006 103.07C79.5806 107.07 80.8506 111.37 82.3106 114.99C82.3106 114.99 87.1406 123.69 88.0406 125.5C89.0406 127.61 89.8306 129.37 89.8306 129.37L89.5606 122.76C92.1843 122.705 94.787 122.277 97.2906 121.49C99.7746 120.595 102.182 119.502 104.491 118.22C109.06 115.62 113.381 112.608 117.401 109.22C119.691 107.35 120.111 105.22 120.221 102.33C120.322 100.478 120.05 98.6238 119.422 96.8785C118.793 95.1332 117.82 93.532 116.561 92.1699Z" fill="#263238"/>
<path d="M95.2298 99.15C94.6107 101.939 93.0972 104.45 90.9198 106.3C91.3998 108.943 91.4269 111.648 90.9998 114.3C90.8999 114.869 90.6892 115.412 90.3798 115.9C90.2184 116.14 90.0071 116.342 89.7602 116.492C89.5133 116.642 89.2369 116.737 88.9498 116.77C88.1798 116.77 87.8698 116.34 87.6398 115.77C87.3047 114.993 86.9205 114.238 86.4898 113.51C86.3032 113.19 86.0782 112.895 85.8198 112.63C84.6598 111.53 81.1898 110.16 79.5298 113.84C77.8698 117.52 80.8198 122.77 83.6098 123.59C88.4298 125.01 89.5198 121.73 89.5198 121.73L90.2098 139C92.7998 141.78 102.78 145.85 105.59 149.14C106.91 146.95 109.84 143.3 107.22 138.44V132.79C109.135 132.886 111.054 132.759 112.94 132.41C115.45 131.96 117.88 129.7 119.06 125.92C121.35 118.54 120.21 108.37 119.34 103.79C118.89 101.01 117.647 98.42 115.76 96.33C115.671 96.2327 115.56 96.1572 115.437 96.1094C115.314 96.0616 115.182 96.0428 115.05 96.0544C114.919 96.066 114.792 96.1077 114.679 96.1763C114.566 96.2449 114.471 96.3385 114.4 96.45C113.765 97.2914 112.963 97.9922 112.044 98.5085C111.125 99.0248 110.109 99.3454 109.06 99.45C106.06 99.85 101.19 99.07 97.5198 97.88C97.2863 97.7993 97.0385 97.7688 96.7925 97.7902C96.5464 97.8116 96.3076 97.8846 96.0916 98.0044C95.8756 98.1242 95.6873 98.2881 95.5388 98.4855C95.3903 98.6828 95.285 98.9092 95.2298 99.15Z" fill="#FDCACA"/>
<path d="M107.22 132.76C102.76 132.29 98.1002 131.53 95.6102 130.18C93.9945 129.345 92.6517 128.064 91.7402 126.49C91.7402 126.49 91.9302 128.27 94.2902 130.66C96.9502 133.35 107.22 134.46 107.22 134.46V132.76Z" fill="#874C4C"/>
<path d="M102.65 112.08C102.642 112.381 102.546 112.674 102.373 112.921C102.2 113.169 101.959 113.36 101.679 113.471C101.398 113.582 101.092 113.609 100.796 113.547C100.501 113.486 100.23 113.339 100.018 113.125C99.8054 112.911 99.6603 112.64 99.6007 112.344C99.5411 112.048 99.5696 111.742 99.6827 111.462C99.7958 111.183 99.9884 110.942 100.237 110.771C100.485 110.6 100.778 110.506 101.08 110.5C101.497 110.503 101.896 110.67 102.191 110.966C102.485 111.262 102.65 111.663 102.65 112.08Z" fill="#263238"/>
<path d="M112.939 104C114.544 104.265 116.065 104.902 117.379 105.86C117.617 105.253 117.611 104.577 117.361 103.975C117.111 103.372 116.637 102.89 116.039 102.63C115.747 102.51 115.433 102.45 115.116 102.454C114.8 102.459 114.487 102.527 114.198 102.655C113.908 102.783 113.647 102.968 113.431 103.199C113.215 103.43 113.048 103.703 112.939 104Z" fill="#263238"/>
<path d="M102.579 121.13L108.079 122.7C107.993 123.068 107.834 123.415 107.611 123.72C107.387 124.025 107.105 124.282 106.78 124.475C106.455 124.668 106.094 124.794 105.72 124.845C105.345 124.895 104.964 124.87 104.599 124.77C103.857 124.542 103.232 124.036 102.855 123.357C102.479 122.678 102.38 121.88 102.579 121.13Z" fill="#874C4C"/>
<path d="M103.11 122.4C103.738 122.448 104.328 122.725 104.766 123.178C105.205 123.632 105.462 124.23 105.49 124.86C105.19 124.875 104.89 124.844 104.6 124.77C104.091 124.6 103.637 124.297 103.286 123.893C102.934 123.488 102.697 122.997 102.6 122.47C102.767 122.43 102.938 122.407 103.11 122.4Z" fill="#F28F8F"/>
<path d="M101.771 107.78C100.185 108.068 98.7474 108.895 97.7005 110.12C97.5454 109.859 97.4441 109.569 97.4024 109.269C97.3608 108.968 97.3796 108.662 97.4578 108.368C97.5361 108.075 97.6722 107.8 97.8581 107.56C98.044 107.32 98.276 107.119 98.5405 106.97C99.0791 106.661 99.7165 106.573 100.319 106.724C100.921 106.875 101.442 107.253 101.771 107.78Z" fill="#263238"/>
<path d="M116.279 110.88C116.273 111.184 116.178 111.479 116.006 111.73C115.833 111.98 115.591 112.174 115.309 112.287C115.027 112.401 114.718 112.429 114.42 112.368C114.122 112.308 113.849 112.161 113.634 111.946C113.419 111.731 113.272 111.457 113.211 111.16C113.15 110.862 113.178 110.553 113.292 110.271C113.406 109.989 113.6 109.746 113.85 109.574C114.1 109.401 114.395 109.306 114.699 109.3C115.118 109.3 115.52 109.467 115.817 109.763C116.113 110.059 116.279 110.461 116.279 110.88Z" fill="#263238"/>
<path d="M107.09 107.93L108.09 119.31L113.73 117.58C112.219 113.933 109.956 110.645 107.09 107.93Z" fill="#874C4C"/>
<path d="M105.589 149.11C103.589 147.89 99.7093 145.03 97.7693 147.48C95.8293 149.93 94.3993 152.79 92.9793 152.36C91.5593 151.93 86.8993 147.48 85.1393 143.64C84.2518 141.538 83.7896 139.281 83.7793 137C83.7793 137 85.4693 135.14 86.8693 133.7C88.4193 132.1 88.6793 131.7 89.8693 131.6L90.0293 135.86C90.1598 136.705 90.4568 137.516 90.9031 138.246C91.3494 138.975 91.9362 139.609 92.6293 140.11C96.1293 142.64 103.099 143.55 105.589 149.11Z" fill="#263238"/>
<path d="M105.59 149.11C106.77 148.05 108.42 145.19 110.32 145.75C112.22 146.31 114.07 150.07 114.13 149.05C114.19 148.03 112.5 142.62 110.92 139.63C109.71 137.33 108.49 135.3 107.22 135.07V138.41C107.22 138.41 107.22 141.3 107.08 143.03C107.005 145.137 106.498 147.207 105.59 149.11Z" fill="#263238"/>
<path d="M75.6797 148.45C77.5841 146.065 78.9948 143.325 79.8297 140.39C80.6797 136.97 83.3797 133.82 84.2997 132.53C85.2197 131.24 87.1997 129.33 88.7097 127.53C90.2197 125.73 90.7097 125.2 92.8397 124.84C95.8397 124.33 98.1697 123.84 99.3397 124.22C100.51 124.6 100.47 125.34 99.4597 126.37C98.4497 127.4 96.2997 127.66 95.6397 127.86C94.9797 128.06 93.5197 128.7 93.5197 128.7L90.7497 132.77C92.6496 133.094 94.5243 133.552 96.3597 134.14C97.2797 134.64 98.0697 137.01 97.6597 138.33C97.6597 138.33 99.3797 139.49 98.6597 141.18C98.6597 141.18 99.7097 142.55 98.9897 143.68C98.1763 144.812 97.2406 145.852 96.1997 146.78C95.6297 147.27 93.3697 147.39 93.3697 147.39C92.3732 148.908 91.1832 150.289 89.8297 151.5C88.2197 152.69 87.1697 152.61 85.4097 155.11L75.6797 148.45Z" fill="#FDCACA"/>
<path d="M92.8594 133.17C93.9694 132.69 94.2194 131.94 95.2694 132.34C96.3194 132.74 95.9094 133.93 95.9094 133.93L92.8594 133.17Z" fill="#874C4C"/>
<path d="M97.63 138.41C96.9364 137.824 96.17 137.33 95.35 136.94C94.58 136.56 93 136 93 136C94.1187 136.094 95.2173 136.354 96.26 136.77C96.7936 136.977 97.306 137.235 97.79 137.54C97.7869 137.8 97.7499 138.059 97.68 138.31L97.63 138.41Z" fill="#874C4C"/>
<path d="M97.7797 140C98.1514 140.156 98.5122 140.336 98.8597 140.54C98.8308 140.8 98.7704 141.055 98.6797 141.3C97.8034 140.505 96.7859 139.88 95.6797 139.46C96.398 139.559 97.1025 139.741 97.7797 140Z" fill="#874C4C"/>
<path d="M93 148C93.6437 146.703 94.4106 145.47 95.29 144.32C95.5734 144.001 95.967 143.801 96.3918 143.76C96.8166 143.719 97.241 143.841 97.58 144.1C97.87 144.55 96.35 144.49 95.91 144.69C94.7734 145.635 93.7916 146.752 93 148Z" fill="#874C4C"/>
<path d="M89.4707 132.63C89.4707 132.63 90.3307 131.42 91.8607 129.49C93.3907 127.56 93.3107 127.84 94.8007 127.55C96.2907 127.26 99.1207 126.75 99.8807 125.86C99.7533 126.034 99.6129 126.197 99.4607 126.35C98.4607 127.35 96.3007 127.64 95.6407 127.84C94.9807 128.04 93.5207 128.68 93.5207 128.68L90.6707 132.87L89.4707 132.63Z" fill="#874C4C"/>
<path d="M75.6798 148.45C70.6698 154.5 57.1598 169 53.9998 174.83C51.8398 178.83 51.2998 188.14 53.4998 191.52C55.6998 194.9 62.0098 193.52 67.1198 189C71.5198 185.13 75.1998 175.82 78.3998 169.19C81.5998 162.56 85.3998 155.09 85.3998 155.09L75.6798 148.45Z" fill="#FDCACA"/>
<path d="M75.6797 148.45C76.8271 146.919 77.8313 145.285 78.6797 143.57C79.0869 142.706 79.4213 141.81 79.6797 140.89C79.8969 139.953 80.2015 139.039 80.5897 138.16C81.4318 136.435 82.4577 134.805 83.6497 133.3C84.7848 131.76 86.0244 130.3 87.3597 128.93C88.0097 128.23 88.6197 127.5 89.2297 126.76C89.8099 125.965 90.6092 125.357 91.5297 125.01C92.4605 124.763 93.4056 124.572 94.3597 124.44C95.2997 124.28 96.2397 124.11 97.1997 124.01C97.6805 123.95 98.1655 123.93 98.6497 123.95C99.161 123.951 99.6597 124.108 100.08 124.4C100.192 124.487 100.28 124.602 100.334 124.734C100.388 124.865 100.408 125.009 100.39 125.15C100.346 125.41 100.243 125.656 100.09 125.87C99.8047 126.273 99.4406 126.613 99.0197 126.87C98.1649 127.335 97.2391 127.656 96.2797 127.82C95.3594 128.066 94.4652 128.401 93.6097 128.82L93.6797 128.77L90.8997 132.83L90.8197 132.63C92.5197 132.97 94.2197 133.29 95.8897 133.8C96.1054 133.863 96.3134 133.95 96.5097 134.06C96.7065 134.185 96.8765 134.348 97.0097 134.54C97.2634 134.906 97.4622 135.307 97.5997 135.73C97.9191 136.565 97.992 137.475 97.8097 138.35V138.23C98.2753 138.561 98.6446 139.009 98.8797 139.53C98.9964 139.794 99.0544 140.081 99.0497 140.37C99.0518 140.658 98.9974 140.943 98.8897 141.21V141.11C99.1611 141.44 99.344 141.833 99.4209 142.253C99.4979 142.673 99.4665 143.106 99.3297 143.51C98.8964 144.211 98.3866 144.862 97.8097 145.45C97.5297 145.75 97.2497 146.04 96.9497 146.33C96.6745 146.647 96.3331 146.899 95.9497 147.07C95.1588 147.3 94.3427 147.431 93.5197 147.46H93.5797C93.0532 148.233 92.4857 148.977 91.8797 149.69C91.3019 150.44 90.6296 151.112 89.8797 151.69C89.1097 152.24 88.2397 152.59 87.4797 153.14C86.7414 153.702 86.0967 154.377 85.5697 155.14C86.046 154.337 86.6468 153.615 87.3497 153C88.0997 152.44 88.9697 152.07 89.7197 151.51C90.4715 150.934 91.144 150.262 91.7197 149.51C92.3105 148.788 92.8646 148.037 93.3797 147.26C94.1891 147.219 94.991 147.084 95.7697 146.86C96.1311 146.7 96.4497 146.456 96.6997 146.15C96.9897 145.87 97.2797 145.58 97.5497 145.28C98.1107 144.702 98.607 144.065 99.0297 143.38C99.1478 143.007 99.1704 142.61 99.0953 142.225C99.0201 141.841 98.8497 141.481 98.5997 141.18V141.13C98.6904 140.883 98.7377 140.623 98.7397 140.36C98.7365 140.099 98.6822 139.84 98.5797 139.6C98.3561 139.117 98.0116 138.701 97.5797 138.39H97.5197V138.31C97.6892 137.48 97.6163 136.619 97.3097 135.83C97.0197 135.05 96.6097 134.22 95.7397 134.06C94.0897 133.57 92.3797 133.25 90.7397 132.92H90.5397L90.6497 132.75L93.4097 128.68C94.2783 128.259 95.186 127.924 96.1197 127.68C97.0477 127.52 97.9451 127.216 98.7797 126.78C99.1841 126.526 99.5259 126.184 99.7797 125.78C100.05 125.42 100.18 124.94 99.7797 124.68C98.9557 124.262 98.0122 124.141 97.1097 124.34C96.1097 124.44 95.2197 124.59 94.2797 124.75C93.34 124.88 92.4085 125.064 91.4897 125.3C90.6061 125.629 89.8379 126.21 89.2797 126.97C88.6697 127.7 88.0497 128.44 87.3997 129.14C86.0527 130.494 84.8061 131.945 83.6697 133.48C82.4792 134.968 81.4533 136.581 80.6097 138.29C80.2104 139.158 79.8956 140.062 79.6697 140.99C79.4122 141.91 79.0777 142.806 78.6697 143.67C77.8173 145.349 76.8167 146.949 75.6797 148.45Z" fill="#874C4C"/>
<path d="M173.02 163.49L132.79 178.33L122.35 226.61L123.27 227.56L161.5 212.65L173.94 164.43L173.02 163.49Z" fill="#E04048"/>
<path opacity="0.25" d="M173.02 163.49L132.79 178.33L122.35 226.61L123.27 227.56L161.5 212.65L173.94 164.43L173.02 163.49Z" fill="white"/>
<path d="M133.71 179.28L123.27 227.56L122.35 226.61L132.79 178.33L133.71 179.28Z" fill="#E04048"/>
<path opacity="0.35" d="M133.71 179.28L123.27 227.56L122.35 226.61L132.79 178.33L133.71 179.28Z" fill="black"/>
<path d="M173.94 164.43L133.71 179.28L123.27 227.56L161.5 212.65L173.94 164.43Z" fill="#E04048"/>
<g opacity="0.2">
<path d="M155.35 203C155.74 203.94 158.87 206 163.35 205.54L164.07 202.75L155.35 203Z" fill="black"/>
</g>
<g opacity="0.1">
<path d="M161.9 174.46L162.21 172.85C162.38 171.95 160.01 172.45 156.92 173.97L149.66 176.28C146.57 177.8 143.66 178.93 143.47 179.82L143.16 181.44L161.9 174.46Z" fill="black"/>
</g>
<path d="M164.2 167.13C164.31 166.57 163.38 166.7 162.1 167.06L159.78 167.89C159.78 167.89 160.56 165.12 155.21 167.11C148.36 169.65 149.08 171.87 149.08 171.87C148.135 172.293 147.167 172.66 146.18 172.97C144.18 173.65 143.96 174.05 143.8 174.62L143.52 175.62L164 168.09C164 168.09 164.09 167.69 164.2 167.13Z" fill="#37474F"/>
<path d="M162.08 170.26C160.18 171.15 159.39 171.59 159.08 172.96C158.77 174.54 158.71 175.19 158.71 175.19L148.04 179.58C148.04 179.58 148.59 177.26 148.72 176.49C148.85 175.72 147.43 175.73 145.59 176.62L146 174.69L162.48 168.69L162.08 170.26Z" fill="#263238"/>
<path d="M162.449 174.48L162.759 172.87C162.929 171.97 160.569 172.47 157.479 173.99L150.209 176.3C147.119 177.81 144.209 178.95 144.019 179.84L143.709 181.46L162.449 174.48Z" fill="#263238"/>
<path d="M169.679 181C169.679 181 168.319 186.3 167.959 187.64C167.599 188.98 161.029 192.13 157.719 192.64C151.389 193.52 150.719 194.91 152.279 199.39C153.739 203.52 157.899 205.03 163.609 204.27C165.406 203.896 167.071 203.05 168.433 201.82C169.795 200.59 170.805 199.02 171.359 197.27C173.139 191.94 172.059 186.27 172.749 183.18C173.439 180.09 171.259 179.09 169.679 181Z" fill="#9E6767"/>
<path d="M184.631 240C185.141 238.8 186.451 237.93 188.431 237.69C190.613 237.542 192.8 237.914 194.811 238.774C196.822 239.635 198.601 240.959 200.001 242.64C201.201 244.23 201.491 245.78 201.001 246.98L168.051 333.1C167.421 334.92 165.561 336.23 162.651 336.59C157.111 337.26 149.901 334.19 146.551 329.73C144.791 327.39 144.461 325.13 145.321 323.42L184.631 240Z" fill="#455A64"/>
<path d="M200.001 242.64C202.401 245.83 201.131 248.81 197.171 249.29C195.001 249.433 192.827 249.063 190.825 248.21C188.824 247.357 187.051 246.045 185.651 244.38C183.251 241.19 184.521 238.21 188.481 237.73C190.652 237.585 192.827 237.955 194.828 238.808C196.83 239.661 198.602 240.974 200.001 242.64Z" fill="#37474F"/>
<path d="M200.81 215C202.131 214.911 203.454 215.136 204.671 215.658C205.888 216.179 206.964 216.982 207.81 218C208.134 218.344 208.359 218.769 208.463 219.23C208.567 219.69 208.545 220.171 208.4 220.62L197.74 245.62C197.516 246.037 197.185 246.385 196.78 246.63C196.375 246.874 195.913 247.006 195.44 247.01C194.119 247.1 192.795 246.875 191.578 246.354C190.362 245.832 189.286 245.029 188.44 244.01C188.116 243.664 187.891 243.238 187.787 242.775C187.683 242.313 187.705 241.831 187.85 241.38L198.51 216.38C198.737 215.967 199.069 215.622 199.473 215.379C199.877 215.137 200.339 215.006 200.81 215Z" fill="#E04048"/>
<path opacity="0.2" d="M200.81 215C202.131 214.911 203.454 215.136 204.671 215.658C205.888 216.179 206.964 216.982 207.81 218C208.134 218.344 208.359 218.769 208.463 219.23C208.567 219.69 208.545 220.171 208.4 220.62L197.74 245.62C197.516 246.037 197.185 246.385 196.78 246.63C196.375 246.874 195.913 247.006 195.44 247.01C194.119 247.1 192.795 246.875 191.578 246.354C190.362 245.832 189.286 245.029 188.44 244.01C188.116 243.664 187.891 243.238 187.787 242.775C187.683 242.313 187.705 241.831 187.85 241.38L198.51 216.38C198.737 215.967 199.069 215.622 199.473 215.379C199.877 215.137 200.339 215.006 200.81 215Z" fill="black"/>
<path opacity="0.2" d="M193.602 227.93L194.342 228.36L194.452 228.43L194.592 228.51L194.752 228.59C195.221 228.869 195.705 229.123 196.202 229.35C196.8 229.653 197.414 229.923 198.042 230.16C198.593 230.4 199.158 230.61 199.732 230.79C200.023 230.895 200.32 230.982 200.622 231.05C200.947 231.173 201.281 231.27 201.622 231.34C201.962 231.44 202.272 231.52 202.622 231.59C202.861 231.659 203.105 231.709 203.352 231.74H203.602L208.372 220.54C208.517 220.091 208.538 219.61 208.435 219.15C208.331 218.689 208.105 218.264 207.782 217.92C207.491 217.546 207.155 217.21 206.782 216.92C203.804 217.832 200.723 218.36 197.612 218.49L193.602 227.93Z" fill="black"/>
<path opacity="0.15" d="M193.241 249L158.551 336.44C159.902 336.666 161.278 336.71 162.641 336.57C165.551 336.21 167.411 334.9 168.041 333.08L200.921 247C200.411 248.21 199.101 249.06 197.121 249.3C195.82 249.421 194.508 249.32 193.241 249Z" fill="black"/>
<path d="M301.62 111.46C301.62 110.74 301.56 110.03 301.5 109.32C301.44 108.61 301.42 107.93 301.35 107.24C301.35 106.77 301.26 106.31 301.2 105.85C301.08 104.65 300.91 103.46 300.71 102.33C300.62 101.81 300.53 101.33 300.43 100.77C300.33 100.21 300.23 99.77 300.12 99.32C299.82 98.01 299.5 96.73 299.12 95.5C298.93 94.92 298.75 94.34 298.55 93.77C298.515 93.683 298.488 93.5925 298.47 93.5C298.26 92.93 298.06 92.39 297.84 91.86C297.62 91.33 297.35 90.61 297.07 90.03C296.79 89.45 296.68 89.16 296.45 88.74C296.321 88.4218 296.167 88.1142 295.99 87.82C295.81 87.45 295.62 87.07 295.4 86.71C295.36 86.6267 295.313 86.5465 295.26 86.47C295.08 86.15 294.89 85.83 294.7 85.47C294.51 85.11 294.43 85.06 294.31 84.86C293.402 83.4451 292.378 82.1073 291.25 80.86L290.69 80.22C290.53 80.04 290.37 79.88 290.21 79.72C290.05 79.56 289.81 79.31 289.59 79.1C289.014 78.5102 288.399 77.959 287.75 77.45C287.45 77.19 287.13 76.94 286.81 76.71C286.49 76.48 286.17 76.23 285.81 76C285.29 75.63 284.76 75.28 284.23 75L283.81 74.74L283.72 74.67L273.82 68.84L273.68 68.76C268.864 66.0701 263.426 64.6909 257.91 64.76C249.69 64.76 240.41 67.45 230.57 73.12C196.79 92.6101 169.4 140 169.4 179C169.4 198.45 176.21 212.14 187.2 218.55H187.31L197.23 224.36L197.34 224.43L197.48 224.51C197.54 224.51 197.59 224.57 197.64 224.59C198.11 224.869 198.594 225.123 199.09 225.35C199.69 225.65 200.31 225.92 200.94 226.16C201.487 226.402 202.048 226.609 202.62 226.78C202.91 226.893 203.207 226.983 203.51 227.05C203.835 227.173 204.17 227.27 204.51 227.34C204.85 227.44 205.16 227.52 205.51 227.59C205.751 227.654 205.994 227.704 206.24 227.74C206.67 227.83 207.12 227.92 207.57 227.97C207.669 228.01 207.774 228.031 207.88 228.03C208.4 228.11 208.94 228.19 209.46 228.24C218.57 229.24 229.16 226.63 240.46 220.09C274.25 200.59 301.64 153.14 301.64 114.15C301.67 113.31 301.65 112.39 301.62 111.46ZM190.16 203.46C188.755 198.244 188.062 192.862 188.1 187.46C188.1 150.46 215.1 103.65 247.15 85.17C251.83 82.4009 256.881 80.3132 262.15 78.97C264.672 78.3341 267.26 77.9984 269.86 77.97C271.17 77.9639 272.477 78.0642 273.77 78.27H273.88C280.43 86.02 281.39 98.44 281.39 105.07C281.39 142.07 254.39 188.88 222.39 207.35C214.25 212.05 206.39 214.54 199.7 214.54C198.306 214.549 196.917 214.37 195.57 214.01C193.07 210.912 191.229 207.335 190.16 203.5V203.46Z" fill="#37474F"/>
<path opacity="0.25" d="M292.871 111.63C292.871 131.26 285.241 153.68 273.291 173.16C272.731 174.09 272.151 175 271.561 175.91C270.971 176.82 270.561 177.47 270.031 178.25C268.901 179.92 267.771 181.56 266.581 183.17C266.021 183.944 265.451 184.704 264.871 185.45C264.241 186.28 263.601 187.1 262.961 187.91C261.731 189.46 260.451 190.97 259.161 192.44C258.311 193.44 257.441 194.39 256.571 195.32C249.95 202.603 242.287 208.865 233.831 213.9C232.301 214.79 230.831 215.59 229.291 216.32C224.424 218.803 219.15 220.388 213.721 221C212.867 221.087 212.009 221.131 211.151 221.13C210.701 221.13 210.281 221.13 209.851 221.13C209.036 221.099 208.224 221.016 207.421 220.88C207.031 220.82 206.641 220.76 206.271 220.67C205.901 220.58 205.521 220.51 205.151 220.4C201.361 219.435 197.992 217.253 195.561 214.19C196.904 214.547 198.29 214.722 199.681 214.71C206.401 214.71 214.231 212.24 222.381 207.54C254.381 189.07 281.381 142.21 281.381 105.25C281.381 98.6102 280.381 86.2502 273.861 78.4502H273.761C282.111 79.7902 286.851 85.4502 289.531 92.0202C290.287 93.8793 290.896 95.7953 291.351 97.7502C291.351 97.8602 291.401 97.9602 291.421 98.0702C291.511 98.4202 291.601 98.7802 291.661 99.1402C291.721 99.5002 291.801 99.8302 291.861 100.14C291.867 100.23 291.867 100.32 291.861 100.41C291.931 100.78 292.001 101.15 292.061 101.51C292.271 102.88 292.441 104.21 292.551 105.51C292.551 105.89 292.621 106.24 292.641 106.59C292.661 106.94 292.641 107.13 292.701 107.39C292.701 107.5 292.701 107.61 292.701 107.72C292.701 108.01 292.701 108.29 292.751 108.57C292.756 108.647 292.756 108.724 292.751 108.8C292.751 109.16 292.751 109.494 292.751 109.8C292.871 110.4 292.871 111 292.871 111.63Z" fill="black"/>
<path d="M196.38 224L187.2 218.6C176.2 212.17 169.4 198.49 169.4 179.07C169.4 161.68 174.85 142.61 183.87 125.07L194.33 131.07C185.33 148.57 179.33 167.43 179.33 184.83C179.31 203.89 185.79 217.39 196.38 224Z" fill="#263238"/>
<path d="M283.85 74.7101L283.76 74.6401L273.86 68.8201L273.72 68.7301C268.904 66.0389 263.466 64.6595 257.95 64.7301C249.73 64.7301 240.45 67.4201 230.61 73.0901C211.89 83.9001 195.14 103.3 183.93 125.09L194.34 131.21L194.11 131.64C205.36 110.1 222.03 90.6401 240.55 78.9301C257.31 68.3701 273.22 68.2201 284.33 74.9301L283.85 74.7101Z" fill="#455A64"/>
<path opacity="0.1" d="M287.55 108.49C287.55 145.49 260.55 192.3 228.5 210.78C223.822 213.553 218.77 215.641 213.5 216.98C210.978 217.616 208.39 217.952 205.79 217.98C203.12 218.012 200.467 217.558 197.96 216.64C193.96 213.3 191.58 208.48 190.14 203.52C188.734 198.304 188.041 192.922 188.08 187.52C188.08 150.52 215.08 103.71 247.13 85.2301C251.81 82.461 256.86 80.3733 262.13 79.0301C264.651 78.3942 267.239 78.0585 269.84 78.0301C272.509 77.9959 275.162 78.4465 277.67 79.3601C281.67 82.6901 284.05 87.5301 285.49 92.4801C286.896 97.6993 287.589 103.085 287.55 108.49Z" fill="#E04048"/>
<path opacity="0.3" d="M205.81 218C208.411 217.972 210.999 217.636 213.52 217C218.791 215.661 223.843 213.573 228.52 210.8C260.52 192.32 287.57 145.47 287.57 108.51C287.609 103.108 286.916 97.7261 285.51 92.5101C284.07 87.5701 281.68 82.7401 277.72 79.4101L277.34 79.2801C276.99 79.1501 276.64 79.0401 276.27 78.9301L275.64 78.7601C275.28 78.6601 274.9 78.5901 274.53 78.5101L273.87 78.3801H273.8H273.87C280.43 86.1301 281.39 98.5401 281.39 105.18C281.39 142.18 254.39 189 222.39 207.47C214.24 212.17 206.39 214.64 199.69 214.64C198.3 214.652 196.914 214.477 195.57 214.12L195.63 214.2C196.362 215.078 197.168 215.891 198.04 216.63C200.527 217.551 203.159 218.015 205.81 218Z" fill="white"/>
<path d="M360.64 126.13L315.45 152.22C313.03 153.61 311.07 152.13 311.07 148.9V109.7C311.07 106.47 313.07 102.7 315.45 101.32L360.64 75.2401C363.06 73.8401 365.02 75.3201 365.02 78.5501V117.76C365 121 363.06 124.73 360.64 126.13Z" fill="#FAFAFA"/>
<path d="M313.71 153.22C313.232 153.224 312.763 153.1 312.35 152.86C311.23 152.22 310.59 150.78 310.59 148.86V109.7C310.59 106.32 312.67 102.38 315.21 100.91L360.4 74.82C360.883 74.4822 361.45 74.2823 362.038 74.2418C362.626 74.2013 363.215 74.3216 363.74 74.59C364.86 75.24 365.5 76.68 365.5 78.59V117.8C365.5 121.17 363.43 125.12 360.88 126.59L315.7 152.63C315.1 152.998 314.414 153.202 313.71 153.22ZM362.38 75.22C361.848 75.2375 361.33 75.3963 360.88 75.68L315.7 101.74C313.41 103.06 311.55 106.63 311.55 109.74V148.94C311.55 150.46 312.02 151.6 312.83 152.07C313.211 152.248 313.633 152.321 314.051 152.28C314.47 152.24 314.87 152.088 315.21 151.84L360.4 125.75C362.68 124.43 364.54 120.87 364.54 117.8V78.55C364.54 77.03 364.07 75.89 363.26 75.42C362.991 75.2701 362.687 75.1942 362.38 75.2V75.22Z" fill="#E0E0E0"/>
<path d="M350.73 96.75L341.51 129.91L359.95 119.26L350.73 96.75Z" fill="#E04048"/>
<path opacity="0.3" d="M350.73 96.75L341.51 129.91L359.95 119.26L350.73 96.75Z" fill="white"/>
<path d="M338.05 94.47L328.82 137.23L347.27 126.58L338.05 94.47Z" fill="#E04048"/>
<path d="M325.47 116.59L316.25 144.49L334.69 133.85L325.47 116.59Z" fill="#E04048"/>
<path opacity="0.3" d="M325.47 116.59L316.25 144.49L334.69 133.85L325.47 116.59Z" fill="black"/>
<path d="M318 107.64L316.55 108.48C316.38 108.57 316.25 108.48 316.25 108.25V105.88C316.252 105.768 316.279 105.658 316.332 105.559C316.384 105.46 316.459 105.375 316.55 105.31L318 104.47C318.17 104.37 318.3 104.47 318.3 104.7V107.06C318.298 107.173 318.271 107.285 318.218 107.385C318.166 107.486 318.092 107.573 318 107.64Z" fill="#E04048"/>
<path opacity="0.3" d="M318 107.64L316.55 108.48C316.38 108.57 316.25 108.48 316.25 108.25V105.88C316.252 105.768 316.279 105.658 316.332 105.559C316.384 105.46 316.459 105.375 316.55 105.31L318 104.47C318.17 104.37 318.3 104.47 318.3 104.7V107.06C318.298 107.173 318.271 107.285 318.218 107.385C318.166 107.486 318.092 107.573 318 107.64Z" fill="black"/>
<path d="M318 112.2L316.55 113.04C316.38 113.14 316.25 113.04 316.25 112.81V110.45C316.252 110.337 316.279 110.225 316.332 110.125C316.384 110.024 316.458 109.937 316.55 109.87L318 109C318.17 108.91 318.3 109 318.3 109.23V111.6C318.303 111.717 318.278 111.833 318.225 111.938C318.173 112.042 318.096 112.132 318 112.2Z" fill="#E04048"/>
<path d="M318 116.76L316.55 117.6C316.38 117.7 316.25 117.6 316.25 117.38V115C316.25 114.888 316.277 114.777 316.329 114.678C316.382 114.578 316.457 114.493 316.55 114.43L318 113.59C318.17 113.49 318.3 113.59 318.3 113.81V116.18C318.302 116.294 318.275 116.406 318.223 116.508C318.171 116.609 318.094 116.695 318 116.76Z" fill="#E04048"/>
<path opacity="0.3" d="M318 116.76L316.55 117.6C316.38 117.7 316.25 117.6 316.25 117.38V115C316.25 114.888 316.277 114.777 316.329 114.678C316.382 114.578 316.457 114.493 316.55 114.43L318 113.59C318.17 113.49 318.3 113.59 318.3 113.81V116.18C318.302 116.294 318.275 116.406 318.223 116.508C318.171 116.609 318.094 116.695 318 116.76Z" fill="white"/>
<path d="M239.431 257.77C239.516 257.73 239.591 257.67 239.648 257.595C239.706 257.52 239.744 257.433 239.761 257.34C239.965 256.526 240.125 255.701 240.241 254.87C240.357 254.085 240.427 253.293 240.451 252.5C240.451 252.3 240.351 252.19 240.211 252.24L238.571 252.74C238.555 251.634 238.38 250.536 238.051 249.48L239.451 247.48C239.51 247.403 239.55 247.313 239.569 247.218C239.588 247.122 239.585 247.024 239.561 246.93C239.153 245.896 238.509 244.971 237.681 244.23C237.581 244.15 237.421 244.23 237.301 244.4L235.911 246.4C235.243 245.947 234.458 245.697 233.651 245.68L233.991 243.3C233.991 243.09 233.941 242.95 233.811 242.95C233.254 242.993 232.703 243.101 232.171 243.27C231.584 243.45 231.014 243.684 230.471 243.97C230.392 244.028 230.325 244.101 230.275 244.185C230.225 244.269 230.193 244.363 230.181 244.46L229.841 246.84C228.86 247.463 227.966 248.213 227.181 249.07L226.261 247.74C226.181 247.63 226.021 247.66 225.891 247.81C224.808 249.092 223.857 250.479 223.051 251.95C223.008 252.032 222.985 252.123 222.985 252.215C222.985 252.307 223.008 252.398 223.051 252.48L223.971 253.8C223.35 255.044 222.845 256.343 222.461 257.68L220.821 258.18C220.735 258.221 220.66 258.281 220.601 258.355C220.542 258.43 220.501 258.517 220.481 258.61C220.281 259.43 220.121 260.25 220.001 261.08C219.892 261.869 219.825 262.664 219.801 263.46C219.801 263.65 219.901 263.76 220.041 263.72L221.681 263.22C221.695 264.32 221.87 265.411 222.201 266.46L220.801 268.46C220.743 268.538 220.702 268.627 220.683 268.722C220.664 268.818 220.667 268.916 220.691 269.01C221.094 270.047 221.739 270.972 222.571 271.71C222.671 271.79 222.831 271.71 222.951 271.55L224.341 269.55C225.008 269.997 225.788 270.247 226.591 270.27L226.261 272.65C226.261 272.85 226.311 273 226.441 272.99C226.998 272.95 227.548 272.846 228.081 272.68C228.668 272.497 229.237 272.259 229.781 271.97C229.862 271.914 229.929 271.841 229.98 271.757C230.03 271.672 230.061 271.578 230.071 271.48L230.411 269.1C231.391 268.48 232.286 267.734 233.071 266.88L233.991 268.2C234.071 268.32 234.231 268.29 234.361 268.14C235.443 266.857 236.391 265.466 237.191 263.99C237.235 263.909 237.259 263.818 237.259 263.725C237.259 263.632 237.235 263.541 237.191 263.46L236.271 262.14C236.89 260.898 237.395 259.603 237.781 258.27L239.431 257.77ZM231.001 263.85C226.721 267.18 223.781 262.96 226.061 256.74C226.681 254.936 227.776 253.333 229.231 252.1C233.511 248.76 236.451 252.99 234.171 259.21C233.551 261.014 232.456 262.617 231.001 263.85Z" fill="#E6E6E6"/>
<path d="M251.92 258.28C251.952 258.241 251.976 258.197 251.99 258.148C252.003 258.1 252.007 258.05 252 258C251.965 257.523 251.898 257.048 251.8 256.58C251.708 256.156 251.577 255.741 251.41 255.34C251.41 255.27 251.3 255.27 251.23 255.34L250.12 256.34C249.871 255.828 249.496 255.388 249.03 255.06L249.61 253.41C249.61 253.3 249.61 253.19 249.61 253.16C248.996 252.836 248.301 252.697 247.61 252.76C247.54 252.76 247.46 252.85 247.42 252.96L246.84 254.61C246.206 254.723 245.601 254.961 245.06 255.31L244.77 254C244.767 253.983 244.759 253.967 244.748 253.954C244.737 253.941 244.723 253.931 244.707 253.925C244.691 253.919 244.673 253.917 244.656 253.92C244.64 253.922 244.623 253.929 244.61 253.94C244.207 254.225 243.823 254.536 243.46 254.87C243.071 255.234 242.703 255.622 242.36 256.03C242.325 256.069 242.298 256.115 242.283 256.165C242.267 256.215 242.263 256.268 242.27 256.32L242.56 257.63C242.011 258.338 241.532 259.099 241.13 259.9L240.13 259.71C240.07 259.71 239.98 259.71 239.94 259.86C239.433 260.937 239.038 262.063 238.76 263.22C238.76 263.33 238.76 263.42 238.83 263.43L239.83 263.63C239.655 264.458 239.571 265.303 239.58 266.15L238.48 267.15C238.439 267.186 238.408 267.231 238.387 267.281C238.366 267.331 238.357 267.386 238.36 267.44C238.389 267.918 238.456 268.392 238.56 268.86C238.652 269.284 238.783 269.699 238.95 270.1C238.95 270.17 239.06 270.17 239.13 270.1L240.24 269.1C240.484 269.616 240.86 270.057 241.33 270.38L240.75 272.04C240.75 272.14 240.75 272.25 240.75 272.28C241.364 272.604 242.059 272.743 242.75 272.68C242.82 272.68 242.9 272.59 242.94 272.48L243.51 270.84C244.146 270.718 244.753 270.477 245.3 270.13L245.59 271.44C245.589 271.459 245.594 271.477 245.605 271.493C245.615 271.509 245.631 271.521 245.648 271.528C245.666 271.534 245.685 271.535 245.704 271.53C245.722 271.525 245.738 271.515 245.75 271.5C246.155 271.217 246.539 270.907 246.9 270.57C247.289 270.209 247.656 269.825 248 269.42C248.067 269.335 248.099 269.228 248.09 269.12L247.8 267.82C248.347 267.106 248.826 266.343 249.23 265.54L250.23 265.74C250.29 265.74 250.38 265.68 250.42 265.58C250.921 264.501 251.316 263.375 251.6 262.22C251.6 262.11 251.6 262.02 251.53 262.01L250.53 261.81C250.705 260.981 250.789 260.136 250.78 259.29L251.92 258.28ZM246.92 265.36C244.63 268.54 241.8 267.9 241.99 264.18C242.096 262.706 242.608 261.29 243.47 260.09C245.77 256.92 248.59 257.56 248.41 261.28C248.307 262.753 247.791 264.167 246.92 265.36Z" fill="#E6E6E6"/>
<path d="M255.14 236.08C255.181 236.044 255.213 235.999 255.233 235.949C255.254 235.898 255.263 235.844 255.26 235.79C255.23 235.312 255.163 234.837 255.06 234.37C254.968 233.946 254.837 233.531 254.67 233.13C254.67 233.06 254.56 233.06 254.49 233.13L253.38 234.13C253.131 233.618 252.761 233.175 252.3 232.84L252.87 231.2C252.87 231.09 252.87 230.98 252.87 230.95C252.256 230.626 251.562 230.487 250.87 230.55C250.8 230.55 250.72 230.64 250.68 230.75L250.11 232.39C249.474 232.512 248.867 232.753 248.32 233.1L248.03 231.79C248.027 231.773 248.02 231.757 248.008 231.744C247.997 231.731 247.983 231.721 247.967 231.715C247.951 231.709 247.934 231.707 247.917 231.71C247.9 231.712 247.884 231.719 247.87 231.73C247.468 232.015 247.084 232.326 246.72 232.66C246.333 233.023 245.966 233.407 245.62 233.81C245.587 233.851 245.562 233.9 245.548 233.951C245.534 234.003 245.532 234.057 245.54 234.11L245.83 235.42C245.274 236.126 244.792 236.886 244.39 237.69L243.39 237.49C243.33 237.49 243.25 237.55 243.2 237.65C242.691 238.725 242.289 239.847 242 241C242 241.11 242 241.2 242.07 241.21L243.07 241.41C242.895 242.238 242.812 243.083 242.82 243.93L241.72 244.93C241.68 244.966 241.648 245.011 241.627 245.061C241.606 245.111 241.597 245.166 241.6 245.22C241.63 245.698 241.697 246.173 241.8 246.64C241.893 247.064 242.023 247.479 242.19 247.88C242.19 247.95 242.3 247.95 242.37 247.88L243.48 246.88C243.73 247.391 244.105 247.832 244.57 248.16L243.99 249.82C243.99 249.92 243.99 250.03 243.99 250.06C244.604 250.384 245.299 250.523 245.99 250.46C246.06 250.46 246.14 250.37 246.18 250.26L246.76 248.62C247.392 248.493 247.995 248.253 248.54 247.91L248.83 249.22C248.833 249.237 248.841 249.253 248.852 249.266C248.863 249.279 248.877 249.289 248.893 249.295C248.909 249.301 248.927 249.303 248.944 249.3C248.961 249.297 248.977 249.29 248.99 249.28C249.397 249 249.781 248.689 250.14 248.35C250.529 247.989 250.897 247.605 251.24 247.2C251.276 247.159 251.302 247.111 251.318 247.06C251.333 247.008 251.337 246.953 251.33 246.9L251.04 245.6C251.587 244.886 252.066 244.123 252.47 243.32L253.47 243.52C253.53 243.52 253.62 243.46 253.67 243.36C254.168 242.28 254.56 241.155 254.84 240C254.84 239.89 254.84 239.8 254.77 239.79L253.77 239.59C253.945 238.761 254.029 237.916 254.02 237.07L255.14 236.08ZM250.14 243.16C247.84 246.34 245.02 245.7 245.2 241.98C245.305 240.504 245.821 239.087 246.69 237.89C248.98 234.72 251.81 235.35 251.62 239.08C251.515 240.549 251.007 241.961 250.15 243.16H250.14Z" fill="#E6E6E6"/>
<path d="M142.308 123.85C142.138 123.94 141.998 123.85 141.998 123.55V84.8999C141.996 84.7734 142.022 84.648 142.076 84.5335C142.13 84.419 142.209 84.3185 142.308 84.2399C142.478 84.1399 142.618 84.2399 142.618 84.5399V123.19C142.619 123.316 142.592 123.441 142.539 123.555C142.485 123.67 142.406 123.77 142.308 123.85Z" fill="#E0E0E0"/>
<path d="M182.599 100.59L138.599 125.98C138.429 126.08 138.299 125.98 138.299 125.68C138.296 125.556 138.321 125.433 138.373 125.32C138.425 125.207 138.503 125.108 138.599 125.03L182.599 99.64C182.769 99.54 182.899 99.64 182.899 99.93C182.903 100.056 182.878 100.18 182.826 100.295C182.774 100.409 182.696 100.51 182.599 100.59Z" fill="#E0E0E0"/>
<path d="M149.9 87.73L144.5 90.85V117.99L149.9 114.87V87.73Z" fill="#F5F5F5"/>
<path d="M157.57 102.13L152.17 105.25V113.56L157.57 110.44V102.13Z" fill="#EBEBEB"/>
<path d="M165.24 72.4199L159.84 75.5399V109.13L165.24 106.01V72.4199Z" fill="#F5F5F5"/>
<path d="M172.91 81.4099L167.51 84.5299V104.7L172.91 101.58V81.4099Z" fill="#E0E0E0"/>
<path d="M180.58 84.7998L175.18 87.9198V100.27L180.58 97.1598V84.7998Z" fill="#F5F5F5"/>
<path d="M300.42 180.63V192.91L293 204.82C290.37 201.44 291.14 193.01 295.25 186.35C296.492 184.058 298.265 182.096 300.42 180.63Z" fill="#E0E0E0"/>
<path d="M310.559 191.46C309.079 198.92 303.929 205.86 298.859 207.1C297.992 207.366 297.068 207.392 296.187 207.173C295.307 206.955 294.502 206.501 293.859 205.86L301.369 193.72L310.559 191.46Z" fill="#F0F0F0"/>
<path d="M310.75 190.17L301.91 192.33L306.91 179.28C310 180.47 311.53 184.65 310.75 190.17Z" fill="#E0E0E0"/>
<path d="M305.941 179.18L301.461 191V180C302.8 179.179 304.398 178.886 305.941 179.18Z" fill="#F0F0F0"/>
<path d="M365.599 425.42C355.949 425.42 346.309 423.3 338.969 419.06C331.629 414.82 327.789 409.34 327.789 403.4C327.789 397.46 331.789 391.91 338.969 387.75C353.649 379.27 377.539 379.27 392.229 387.75C399.429 391.91 403.399 397.47 403.399 403.4C403.399 409.33 399.399 414.9 392.229 419.06C384.879 423.3 375.239 425.42 365.599 425.42ZM365.599 382.35C356.129 382.35 346.659 384.43 339.449 388.59C332.559 392.59 328.759 397.83 328.759 403.4C328.759 408.97 332.559 414.24 339.449 418.22C353.869 426.54 377.319 426.54 391.739 418.22C398.629 414.22 402.429 408.98 402.429 403.4C402.429 397.82 398.629 392.57 391.739 388.59C384.539 384.43 375.059 382.35 365.599 382.35Z" fill="#E04048"/>
<path d="M366.589 395.53V401.81L360.389 385V378.73L366.589 395.53Z" fill="#263238"/>
<path d="M366.6 395.53V401.81L392.18 392.93V386.66L366.6 395.53Z" fill="#37474F"/>
<path d="M360.389 378.68L366.599 395.53L392.179 386.66C385.159 380.53 372.999 377.47 360.389 378.68Z" fill="#455A64"/>
<path d="M333.67 396.7C333.665 396.763 333.665 396.827 333.67 396.89V396.7Z" fill="#E04048"/>
<path d="M364.049 403.45L360.249 421.32C344.739 419.81 333.539 411.96 333.669 403V396.88C333.669 405.77 344.849 413.53 360.259 415.04L362.869 402.76L364.049 403.45Z" fill="#E04048"/>
<path opacity="0.4" d="M364.049 403.45L360.249 421.32C344.739 419.81 333.539 411.96 333.669 403V396.88C333.669 405.77 344.849 413.53 360.259 415.04L362.869 402.76L364.049 403.45Z" fill="black"/>
<path d="M363.16 415.25V421.53C369.545 421.91 375.942 421.051 382 419C389.31 416.46 394.47 412.43 396.53 407.66C397.157 406.279 397.497 404.786 397.53 403.27C397.53 402.68 397.53 396.79 397.53 396.79C397.53 396.79 395.76 396.65 393.69 394.44L388.9 396.1L367 403.66L363.16 415.25Z" fill="#E04048"/>
<path opacity="0.6" d="M363.16 415.25V421.53C369.545 421.91 375.942 421.051 382 419C389.31 416.46 394.47 412.43 396.53 407.66C397.157 406.279 397.497 404.786 397.53 403.27C397.53 402.68 397.53 396.79 397.53 396.79C397.53 396.79 395.76 396.65 393.69 394.44L388.9 396.1L367 403.66L363.16 415.25Z" fill="white"/>
<path d="M344.068 389.52L363.128 400.52V394.25L344.068 383.25V389.52Z" fill="#E04048"/>
<path opacity="0.1" d="M344.068 389.52L363.128 400.52V394.25L344.068 383.25V389.52Z" fill="black"/>
<path d="M333.899 394.62C331.809 404.43 343.539 413.41 360.249 415.05L364.049 397.18L341.999 384.45C337.389 387.33 334.739 390.67 333.899 394.62Z" fill="#E04048"/>
<path opacity="0.3" d="M333.899 394.62C331.809 404.43 343.539 413.41 360.249 415.05L364.049 397.18L341.999 384.45C337.389 387.33 334.739 390.67 333.899 394.62Z" fill="black"/>
<path d="M363.27 414.73L363.16 415.25C369.548 415.619 375.947 414.743 382 412.67C389.31 410.13 394.47 406.11 396.53 401.33C398.48 396.83 397.45 392.17 393.65 388.11L388.86 389.77L367 397.38L363.27 414.73Z" fill="#E04048"/>
<path opacity="0.75" d="M363.27 414.73L363.16 415.25C369.548 415.619 375.947 414.743 382 412.67C389.31 410.13 394.47 406.11 396.53 401.33C398.48 396.83 397.45 392.17 393.65 388.11L388.86 389.77L367 397.38L363.27 414.73Z" fill="white"/>
<path d="M344.068 383.25L363.128 394.25L357.518 379C352.814 379.589 348.257 381.029 344.068 383.25Z" fill="#E04048"/>
<path d="M364.05 403.45V397.18L360.25 415.05V421.32L364.05 403.45Z" fill="#E04048"/>
<path opacity="0.55" d="M364.05 403.45V397.18L360.25 415.05V421.32L364.05 403.45Z" fill="black"/>
<path d="M388.359 369.26L384.209 371.66L388.359 374.06L392.509 371.66L388.359 369.26Z" fill="#E04048"/>
<path opacity="0.3" d="M388.359 369.26L384.209 371.66L388.359 374.06L392.509 371.66L388.359 369.26Z" fill="black"/>
<path d="M392.509 371.66V374.06L388.359 376.46V374.06L392.509 371.66Z" fill="#E04048"/>
<path opacity="0.4" d="M392.509 371.66V374.06L388.359 376.46V374.06L392.509 371.66Z" fill="black"/>
<path d="M388.359 374.06V376.46L384.209 374.06V371.66L388.359 374.06Z" fill="#E04048"/>
<path opacity="0.55" d="M388.359 374.06V376.46L384.209 374.06V371.66L388.359 374.06Z" fill="black"/>
<path d="M394.699 367.4L410.079 358.52C410.574 358.259 411.123 358.118 411.682 358.108C412.241 358.097 412.795 358.218 413.299 358.46C414.159 358.96 414.119 359.79 413.199 360.32L397.819 369.2C397.325 369.463 396.776 369.606 396.216 369.616C395.657 369.627 395.102 369.505 394.599 369.26C393.729 368.77 393.779 367.93 394.699 367.4Z" fill="#E0E0E0"/>
<path d="M397.709 374.67L393.559 377.06L397.709 379.46L401.869 377.06L397.709 374.67Z" fill="#E04048"/>
<path opacity="0.88" d="M397.709 374.67L393.559 377.06L397.709 379.46L401.869 377.06L397.709 374.67Z" fill="white"/>
<path d="M401.869 377.06V379.46L397.709 381.86V379.46L401.869 377.06Z" fill="#E04048"/>
<path opacity="0.75" d="M401.869 377.06V379.46L397.709 381.86V379.46L401.869 377.06Z" fill="white"/>
<path d="M397.709 379.46V381.86L393.559 379.46V377.06L397.709 379.46Z" fill="#E04048"/>
<path opacity="0.6" d="M397.709 379.46V381.86L393.559 379.46V377.06L397.709 379.46Z" fill="white"/>
<path d="M404.049 372.81L419.429 363.92C419.925 363.659 420.476 363.518 421.037 363.507C421.597 363.497 422.153 363.618 422.659 363.86C423.519 364.36 423.469 365.19 422.549 365.72L407.169 374.61C406.674 374.872 406.124 375.013 405.565 375.021C405.005 375.03 404.451 374.906 403.949 374.66C403.089 374.17 403.129 373.33 404.049 372.81Z" fill="#E0E0E0"/>
<path d="M407.07 380.06L402.92 382.46L407.07 384.86L411.22 382.46L407.07 380.06Z" fill="#E04048"/>
<path opacity="0.3" d="M407.07 380.06L402.92 382.46L407.07 384.86L411.22 382.46L407.07 380.06Z" fill="white"/>
<path d="M411.218 382.46V384.86L407.068 387.26V384.86L411.218 382.46Z" fill="#E04048"/>
<path d="M407.07 384.86V387.26L402.92 384.86V382.46L407.07 384.86Z" fill="#E04048"/>
<path opacity="0.1" d="M407.07 384.86V387.26L402.92 384.86V382.46L407.07 384.86Z" fill="black"/>
<path d="M413.409 378.21L428.789 369.32C429.284 369.059 429.833 368.918 430.392 368.908C430.951 368.897 431.505 369.018 432.009 369.26C432.869 369.76 432.819 370.59 431.909 371.12L416.519 380C416.025 380.262 415.475 380.403 414.915 380.411C414.356 380.42 413.802 380.296 413.299 380.05C412.439 379.57 412.489 378.74 413.409 378.21Z" fill="#E0E0E0"/>
<path d="M416.42 385.46L412.27 387.86L416.42 390.26L420.57 387.86L416.42 385.46Z" fill="#455A64"/>
<path d="M420.57 387.86V390.26L416.42 392.66V390.26L420.57 387.86Z" fill="#37474F"/>
<path d="M416.42 390.26V392.66L412.27 390.26V387.86L416.42 390.26Z" fill="#263238"/>
<path d="M422.76 383.61L438.14 374.72C438.634 374.459 439.184 374.318 439.744 374.309C440.303 374.3 440.857 374.424 441.36 374.67C442.22 375.16 442.18 375.99 441.26 376.52L425.88 385.41C425.385 385.671 424.836 385.812 424.277 385.823C423.717 385.833 423.164 385.712 422.66 385.47C421.8 385 421.84 384.14 422.76 383.61Z" fill="#E0E0E0"/>
<g opacity="0.3">
<path d="M348.609 357.91C348.529 357.911 348.449 357.89 348.379 357.85L318.759 340.75C318.69 340.708 318.633 340.649 318.593 340.579C318.553 340.51 318.531 340.431 318.529 340.35C318.53 340.271 318.551 340.193 318.592 340.124C318.632 340.056 318.69 339.999 318.759 339.96L355.759 318.58C355.828 318.541 355.905 318.52 355.984 318.52C356.063 318.52 356.141 318.541 356.209 318.58L385.839 335.68C385.908 335.721 385.965 335.78 386.004 335.85C386.042 335.92 386.062 336 386.059 336.08C386.061 336.159 386.041 336.237 386.003 336.305C385.964 336.374 385.908 336.431 385.839 336.47L348.839 357.85C348.769 357.89 348.69 357.911 348.609 357.91ZM319.899 340.35L348.609 356.93L384.729 336.08L355.999 319.5L319.899 340.35Z" fill="#E04048"/>
</g>
<path d="M348.609 353.18V220.75L326.389 207.92V340.35L348.609 353.18Z" fill="#E04048"/>
<path opacity="0.2" d="M348.609 353.18V220.75L326.389 207.92V340.35L348.609 353.18Z" fill="black"/>
<path d="M348.609 353.18L378.229 336.08L378.239 203.65L348.609 220.75V353.18Z" fill="#E04048"/>
<path d="M378.239 203.65L356.019 190.82L326.389 207.92L348.609 220.75L378.239 203.65Z" fill="#E04048"/>
<path opacity="0.25" d="M378.239 203.65L356.019 190.82L326.389 207.92L348.609 220.75L378.239 203.65Z" fill="white"/>
<path opacity="0.3" d="M378.239 203.65L348.309 220.15L338.589 214.72L326.389 207.92L338.389 215.1L348.219 220.96C347.979 224.3 347.919 339.63 347.959 342.96C347.984 346.376 348.205 349.789 348.619 353.18C349.029 349.788 349.246 346.376 349.269 342.96C349.269 339.73 349.269 224.51 349.029 221.28L378.239 203.65Z" fill="white"/>
<g opacity="0.3">
<path d="M293.06 390C292.98 389.999 292.901 389.979 292.83 389.94L263.21 372.84C263.142 372.798 263.084 372.739 263.044 372.669C263.004 372.6 262.982 372.521 262.98 372.44C262.981 372.36 263.002 372.282 263.043 372.214C263.083 372.145 263.141 372.089 263.21 372.05L300.21 350.67C300.281 350.631 300.36 350.61 300.44 350.61C300.521 350.61 300.6 350.631 300.67 350.67L330.29 367.77C330.361 367.809 330.421 367.866 330.462 367.935C330.503 368.005 330.525 368.084 330.525 368.165C330.525 368.246 330.503 368.325 330.462 368.395C330.421 368.464 330.361 368.521 330.29 368.56L293.29 389.94C293.22 389.98 293.141 390 293.06 390ZM264.35 372.44L293.06 389L329.18 368.15L300.47 351.57L264.35 372.44Z" fill="#E04048"/>
</g>
<path d="M293.06 385.25V291.18L270.84 278.35V372.42L293.06 385.25Z" fill="#E04048"/>
<path opacity="0.1" d="M293.06 385.25V291.18L270.84 278.35V372.42L293.06 385.25Z" fill="white"/>
<path d="M293.059 385.25L322.689 368.14V274.08L293.059 291.18V385.25Z" fill="#E04048"/>
<path opacity="0.3" d="M293.059 385.25L322.689 368.14V274.08L293.059 291.18V385.25Z" fill="white"/>
<path d="M322.69 274.08L300.47 261.25L270.84 278.35L293.06 291.18L322.69 274.08Z" fill="#E04048"/>
<path opacity="0.55" d="M322.69 274.08L300.47 261.25L270.84 278.35L293.06 291.18L322.69 274.08Z" fill="white"/>
<path opacity="0.3" d="M293.45 291.72L322.69 274.08L292.76 290.58C289.53 288.75 286.29 286.95 283.05 285.15L270.84 278.35L282.84 285.52C286.12 287.52 289.39 289.46 292.68 291.39C292.58 294.85 292.47 320.09 292.44 323.55C292.41 327.01 292.39 360.55 292.44 364.07C292.49 367.59 292.52 371.13 292.63 374.66C292.74 378.19 292.87 381.72 293.09 385.25C293.32 381.72 293.46 378.19 293.55 374.66C293.64 371.13 293.72 367.6 293.74 364.07C293.76 360.54 293.74 327.07 293.74 323.55C293.66 320.2 293.55 295.07 293.45 291.72Z" fill="white"/>
<g opacity="0.3">
<path d="M237.52 422.05C237.439 422.05 237.36 422.03 237.29 421.99L207.66 404.89C207.592 404.847 207.536 404.788 207.498 404.718C207.459 404.648 207.439 404.57 207.44 404.49C207.438 404.411 207.458 404.333 207.496 404.265C207.535 404.196 207.591 404.139 207.66 404.1L244.66 382.72C244.728 382.68 244.806 382.66 244.885 382.66C244.964 382.66 245.041 382.68 245.11 382.72L274.74 399.82C274.809 399.861 274.865 399.92 274.904 399.99C274.943 400.06 274.962 400.14 274.96 400.22C274.961 400.299 274.942 400.376 274.903 400.445C274.864 400.514 274.808 400.571 274.74 400.61L237.74 421.99C237.673 422.029 237.597 422.05 237.52 422.05ZM208.8 404.49L237.52 421.07L273.64 400.22L244.92 383.64L208.8 404.49Z" fill="#E04048"/>
</g>
<path d="M237.519 417.32L237.509 353.18L215.289 340.35L215.299 404.49L237.519 417.32Z" fill="#E04048"/>
<path opacity="0.45" d="M237.519 417.32L237.509 353.18L215.289 340.35L215.299 404.49L237.519 417.32Z" fill="black"/>
<path d="M237.52 417.32L267.14 400.21L267.15 336.08L237.51 353.18L237.52 417.32Z" fill="#E04048"/>
<path opacity="0.3" d="M237.52 417.32L267.14 400.21L267.15 336.08L237.51 353.18L237.52 417.32Z" fill="black"/>
<path d="M267.149 336.08L244.929 323.25L215.289 340.35L237.509 353.18L267.149 336.08Z" fill="#E04048"/>
<path opacity="0.15" d="M267.149 336.08L244.929 323.25L215.289 340.35L237.509 353.18L267.149 336.08Z" fill="black"/>
<path opacity="0.3" d="M267.149 336.08L237.219 352.57L227.499 347.15L215.289 340.35L227.289 347.52L237.119 353.39C236.889 355.39 236.829 408.99 236.869 411.02C236.891 413.136 237.112 415.245 237.529 417.32C237.938 415.244 238.156 413.136 238.179 411.02C238.179 409.09 238.179 355.63 237.959 353.7L267.149 336.08Z" fill="white"/>
<g opacity="0.3">
<path d="M404.15 325.84C404.073 325.839 403.997 325.818 403.93 325.78L374.3 308.68C374.231 308.639 374.173 308.58 374.133 308.51C374.093 308.44 374.071 308.361 374.07 308.28C374.071 308.201 374.092 308.123 374.133 308.054C374.173 307.986 374.231 307.929 374.3 307.89L411.3 286.51C411.371 286.471 411.45 286.45 411.53 286.45C411.611 286.45 411.69 286.471 411.76 286.51L441.38 303.61C441.451 303.649 441.51 303.706 441.552 303.775C441.593 303.845 441.615 303.924 441.615 304.005C441.615 304.086 441.593 304.165 441.552 304.235C441.51 304.304 441.451 304.361 441.38 304.4L404.38 325.78C404.31 325.82 404.231 325.841 404.15 325.84ZM375.44 308.28L404.15 324.86L440.27 304L411.56 287.42L375.44 308.28Z" fill="#E04048"/>
</g>
<path d="M404.15 321.11V128.42L381.93 115.59L381.94 308.28L404.15 321.11Z" fill="#E04048"/>
<path opacity="0.3" d="M404.15 321.11V128.42L381.93 115.59L381.94 308.28L404.15 321.11Z" fill="white"/>
<path d="M404.15 321.11L433.78 304.01V111.32L404.15 128.42V321.11Z" fill="#E04048"/>
<path opacity="0.55" d="M404.15 321.11L433.78 304.01V111.32L404.15 128.42V321.11Z" fill="white"/>
<path d="M433.78 111.32L411.56 98.49L381.93 115.59L404.15 128.42L433.78 111.32Z" fill="#E04048"/>
<path opacity="0.75" d="M433.78 111.32L411.56 98.49L381.93 115.59L404.15 128.42L433.78 111.32Z" fill="white"/>
<path opacity="0.3" d="M404.54 129L433.78 111.35L403.85 127.85C400.63 126.02 397.38 124.22 394.14 122.42L381.93 115.62L393.93 122.8C397.21 124.8 400.48 126.73 403.78 128.66C403.67 132.58 403.56 136.5 403.53 140.42C403.5 144.34 403.53 293.21 403.53 297.2C403.53 301.19 403.61 305.2 403.73 309.2C403.85 313.2 403.96 317.2 404.19 321.2C404.41 317.2 404.55 313.2 404.64 309.2C404.73 305.2 404.82 301.2 404.84 297.2C404.86 293.2 404.84 144.41 404.84 140.42C404.75 136.59 404.65 132.78 404.54 129Z" fill="white"/>
<path d="M353.621 151.44L328.731 165.81C328.042 166.259 327.468 166.865 327.057 167.577C326.645 168.289 326.407 169.088 326.361 169.91V190.1C326.361 191.61 327.421 192.22 328.731 191.47L337.901 186.16L340.361 190.41C340.469 190.602 340.629 190.758 340.824 190.86C341.018 190.961 341.238 191.004 341.457 190.983C341.675 190.962 341.883 190.877 342.054 190.74C342.225 190.603 342.353 190.419 342.421 190.21L345.311 181.89L353.621 177.1C354.312 176.652 354.888 176.047 355.302 175.335C355.715 174.622 355.955 173.822 356.001 173V152.81C356.001 151.3 354.931 150.69 353.621 151.44Z" fill="#FAFAFA"/>
<path d="M327.671 192.33C327.361 192.332 327.056 192.249 326.791 192.09C326.457 191.88 326.187 191.583 326.01 191.23C325.834 190.877 325.758 190.483 325.791 190.09V169.91C325.835 168.996 326.097 168.105 326.554 167.312C327.012 166.519 327.651 165.846 328.421 165.35L353.351 151C353.671 150.779 354.044 150.646 354.433 150.616C354.821 150.586 355.21 150.66 355.561 150.83C355.892 151.042 356.161 151.34 356.337 151.692C356.513 152.044 356.59 152.437 356.561 152.83V173C356.517 173.916 356.254 174.807 355.795 175.601C355.335 176.394 354.693 177.066 353.921 177.56L345.791 182.25L342.971 190.39C342.865 190.694 342.674 190.961 342.42 191.16C342.167 191.358 341.861 191.48 341.541 191.51C341.221 191.536 340.901 191.472 340.617 191.326C340.332 191.179 340.094 190.955 339.931 190.68L337.751 186.89L329.041 191.89C328.631 192.156 328.158 192.308 327.671 192.33ZM354.671 151.65C354.391 151.667 354.119 151.753 353.881 151.9L329.001 166.27C328.392 166.673 327.886 167.212 327.52 167.843C327.154 168.474 326.938 169.182 326.891 169.91V190.1C326.867 190.3 326.894 190.503 326.969 190.69C327.044 190.877 327.165 191.042 327.321 191.17C327.509 191.243 327.712 191.266 327.911 191.238C328.111 191.21 328.3 191.132 328.461 191.01L338.101 185.44L340.821 190.15C340.878 190.251 340.963 190.333 341.066 190.386C341.169 190.439 341.285 190.461 341.401 190.45C341.518 190.439 341.629 190.394 341.721 190.322C341.813 190.249 341.883 190.151 341.921 190.04L344.871 181.52L353.351 176.64C353.958 176.236 354.463 175.697 354.827 175.066C355.191 174.435 355.405 173.728 355.451 173V152.81C355.477 152.611 355.452 152.408 355.378 152.221C355.305 152.034 355.185 151.868 355.031 151.74C354.921 151.678 354.797 151.647 354.671 151.65Z" fill="#E0E0E0"/>
<path d="M331.92 183.67C331.839 183.67 331.76 183.649 331.689 183.609C331.619 183.568 331.561 183.51 331.52 183.44C331.49 183.388 331.471 183.331 331.463 183.272C331.455 183.212 331.459 183.152 331.475 183.094C331.491 183.037 331.518 182.983 331.555 182.936C331.592 182.888 331.638 182.849 331.69 182.82L350.2 172.13C350.252 172.091 350.312 172.064 350.375 172.05C350.438 172.036 350.504 172.035 350.567 172.048C350.631 172.061 350.691 172.088 350.743 172.125C350.796 172.163 350.84 172.212 350.872 172.268C350.905 172.324 350.925 172.386 350.932 172.45C350.939 172.515 350.932 172.58 350.912 172.641C350.892 172.703 350.86 172.76 350.816 172.808C350.773 172.856 350.72 172.894 350.66 172.92L332.14 183.61C332.073 183.648 331.997 183.669 331.92 183.67Z" fill="#E0E0E0"/>
<path d="M331.92 179.39C331.839 179.39 331.76 179.369 331.689 179.329C331.619 179.288 331.561 179.23 331.52 179.16C331.49 179.108 331.471 179.051 331.463 178.992C331.455 178.932 331.459 178.872 331.475 178.814C331.491 178.756 331.518 178.702 331.555 178.655C331.592 178.608 331.638 178.569 331.69 178.54L350.2 167.85C350.307 167.791 350.432 167.776 350.55 167.808C350.667 167.839 350.768 167.915 350.83 168.02C350.888 168.125 350.903 168.249 350.872 168.365C350.84 168.48 350.764 168.579 350.66 168.64L332.14 179.33C332.073 179.368 331.997 179.389 331.92 179.39Z" fill="#E0E0E0"/>
<path d="M331.92 175.12C331.839 175.12 331.76 175.099 331.689 175.059C331.619 175.018 331.561 174.96 331.52 174.89C331.49 174.838 331.471 174.781 331.463 174.722C331.455 174.662 331.459 174.602 331.475 174.544C331.491 174.487 331.518 174.433 331.555 174.385C331.592 174.338 331.638 174.299 331.69 174.27L350.2 163.58C350.252 163.541 350.312 163.514 350.375 163.5C350.438 163.486 350.504 163.485 350.567 163.498C350.631 163.511 350.691 163.538 350.743 163.575C350.796 163.613 350.84 163.662 350.872 163.718C350.905 163.774 350.925 163.836 350.932 163.9C350.939 163.965 350.932 164.03 350.912 164.091C350.892 164.153 350.86 164.21 350.816 164.258C350.773 164.306 350.72 164.344 350.66 164.37L332.14 175.06C332.073 175.098 331.997 175.119 331.92 175.12Z" fill="#E0E0E0"/>
<path d="M331.921 170.84C331.841 170.84 331.762 170.82 331.692 170.782C331.622 170.743 331.563 170.688 331.521 170.62C331.49 170.568 331.471 170.51 331.463 170.449C331.455 170.389 331.459 170.328 331.475 170.27C331.491 170.211 331.518 170.156 331.555 170.108C331.592 170.06 331.638 170.02 331.691 169.99L350.201 159.3C350.308 159.241 350.433 159.226 350.55 159.258C350.668 159.29 350.768 159.366 350.831 159.47C350.889 159.575 350.904 159.699 350.872 159.815C350.84 159.931 350.765 160.029 350.661 160.09L332.141 170.78C332.074 170.818 331.998 170.839 331.921 170.84Z" fill="#E04048"/>
<path d="M298.1 221.86L273.21 236.23C272.52 236.678 271.945 237.283 271.533 237.996C271.121 238.708 270.884 239.508 270.84 240.33V260.51C270.84 262.02 271.9 262.64 273.21 261.88L282.38 256.58L284.84 260.83C284.95 261.018 285.111 261.17 285.305 261.269C285.499 261.368 285.717 261.41 285.934 261.389C286.15 261.368 286.357 261.285 286.528 261.151C286.699 261.016 286.828 260.835 286.9 260.63L289.79 252.3L298.1 247.51C298.79 247.062 299.365 246.457 299.777 245.744C300.188 245.032 300.426 244.232 300.47 243.41V223.22C300.47 221.71 299.41 221.1 298.1 221.86Z" fill="#FAFAFA"/>
<path d="M272.15 262.74C271.841 262.741 271.538 262.661 271.27 262.51C270.938 262.298 270.67 262 270.494 261.648C270.318 261.296 270.24 260.903 270.27 260.51V240.33C270.314 239.414 270.576 238.522 271.033 237.728C271.491 236.933 272.13 236.258 272.9 235.76L297.79 221.39C298.103 221.161 298.476 221.027 298.863 221.006C299.25 220.985 299.635 221.077 299.971 221.271C300.307 221.465 300.58 221.753 300.755 222.099C300.931 222.445 301.002 222.834 300.96 223.22V243.41C300.917 244.326 300.654 245.218 300.195 246.011C299.736 246.805 299.093 247.476 298.32 247.97L290.19 252.66L287.37 260.8C287.266 261.105 287.076 261.374 286.822 261.573C286.568 261.772 286.261 261.892 285.94 261.92C285.62 261.954 285.297 261.893 285.011 261.746C284.725 261.598 284.488 261.37 284.33 261.09L282.15 257.3L273.44 262.3C273.056 262.557 272.611 262.709 272.15 262.74ZM298.36 222.32L273.48 236.69C272.87 237.092 272.362 237.629 271.996 238.261C271.63 238.893 271.415 239.601 271.37 240.33V260.51C271.307 260.711 271.314 260.928 271.39 261.125C271.467 261.322 271.608 261.487 271.791 261.593C271.973 261.699 272.187 261.739 272.396 261.708C272.604 261.677 272.796 261.575 272.94 261.42L282.58 255.85L285.3 260.56C285.354 260.663 285.439 260.748 285.543 260.801C285.646 260.855 285.764 260.875 285.88 260.86C285.998 260.853 286.111 260.81 286.204 260.736C286.297 260.663 286.365 260.563 286.4 260.45L289.4 251.94L297.88 247.05C298.487 246.647 298.993 246.108 299.357 245.477C299.722 244.845 299.935 244.138 299.98 243.41V223.22C300.005 223.021 299.98 222.818 299.906 222.631C299.833 222.444 299.714 222.279 299.56 222.15C299.37 222.077 299.164 222.054 298.962 222.083C298.761 222.113 298.57 222.195 298.41 222.32H298.36Z" fill="#E0E0E0"/>
<path d="M276.399 254.08C276.318 254.08 276.238 254.059 276.168 254.019C276.098 253.978 276.039 253.92 275.999 253.85C275.969 253.798 275.949 253.741 275.941 253.682C275.934 253.622 275.938 253.562 275.954 253.504C275.969 253.447 275.997 253.393 276.034 253.345C276.07 253.298 276.116 253.259 276.169 253.23L294.679 242.54C294.731 242.501 294.79 242.474 294.854 242.46C294.917 242.446 294.982 242.445 295.046 242.458C295.109 242.471 295.169 242.498 295.222 242.535C295.274 242.573 295.318 242.622 295.351 242.677C295.384 242.733 295.404 242.796 295.411 242.86C295.418 242.925 295.411 242.99 295.391 243.051C295.371 243.113 295.338 243.17 295.295 243.218C295.251 243.266 295.198 243.304 295.139 243.33L276.619 254C276.554 254.045 276.478 254.073 276.399 254.08Z" fill="#E04048"/>
<path d="M276.399 249.81C276.318 249.81 276.238 249.789 276.168 249.749C276.098 249.708 276.039 249.65 275.999 249.58C275.969 249.528 275.949 249.471 275.941 249.412C275.934 249.352 275.938 249.292 275.954 249.234C275.969 249.177 275.997 249.123 276.034 249.075C276.07 249.028 276.116 248.989 276.169 248.96L294.679 238.27C294.731 238.231 294.79 238.204 294.854 238.19C294.917 238.176 294.982 238.175 295.046 238.188C295.109 238.201 295.169 238.228 295.222 238.265C295.274 238.303 295.318 238.352 295.351 238.407C295.384 238.463 295.404 238.526 295.411 238.59C295.418 238.655 295.411 238.72 295.391 238.781C295.371 238.843 295.338 238.899 295.295 238.948C295.251 238.996 295.198 239.034 295.139 239.06L276.619 249.75C276.552 249.788 276.476 249.809 276.399 249.81Z" fill="#E0E0E0"/>
<path d="M276.399 245.53C276.318 245.53 276.238 245.509 276.168 245.469C276.098 245.428 276.039 245.37 275.999 245.3C275.969 245.248 275.949 245.191 275.941 245.132C275.934 245.072 275.938 245.012 275.954 244.954C275.969 244.896 275.997 244.842 276.034 244.795C276.07 244.748 276.116 244.709 276.169 244.68L294.679 234C294.731 233.97 294.789 233.95 294.849 233.942C294.91 233.934 294.971 233.938 295.029 233.954C295.088 233.97 295.143 233.997 295.191 234.034C295.239 234.071 295.279 234.117 295.309 234.17C295.367 234.275 295.382 234.399 295.35 234.515C295.318 234.63 295.242 234.729 295.139 234.79L276.619 245.48C276.551 245.515 276.475 245.532 276.399 245.53Z" fill="#E0E0E0"/>
<path d="M276.399 241.26C276.318 241.26 276.238 241.239 276.168 241.199C276.098 241.158 276.039 241.1 275.999 241.03C275.969 240.978 275.949 240.921 275.941 240.862C275.934 240.802 275.938 240.742 275.954 240.684C275.969 240.626 275.997 240.572 276.034 240.525C276.07 240.478 276.116 240.439 276.169 240.41L294.679 229.72C294.731 229.681 294.79 229.654 294.854 229.64C294.917 229.626 294.982 229.625 295.046 229.638C295.109 229.651 295.169 229.677 295.222 229.715C295.274 229.753 295.318 229.801 295.351 229.857C295.384 229.913 295.404 229.976 295.411 230.04C295.418 230.104 295.411 230.17 295.391 230.231C295.371 230.293 295.338 230.349 295.295 230.397C295.251 230.446 295.198 230.484 295.139 230.51L276.619 241.2C276.552 241.238 276.476 241.259 276.399 241.26Z" fill="#E0E0E0"/>
<path d="M242.571 283.85L217.681 298.22C216.99 298.668 216.416 299.273 216.004 299.986C215.592 300.698 215.354 301.498 215.311 302.32V322.5C215.311 324.01 216.371 324.63 217.681 323.87L226.851 318.57L229.311 322.82C229.422 323.007 229.585 323.159 229.779 323.257C229.974 323.356 230.192 323.397 230.409 323.376C230.626 323.355 230.832 323.273 231.004 323.139C231.176 323.005 231.307 322.825 231.381 322.62L234.261 314.29L242.571 309.5C243.261 309.052 243.835 308.447 244.247 307.734C244.659 307.022 244.897 306.222 244.941 305.4V285.21C244.941 283.7 243.881 283.09 242.571 283.85Z" fill="#FAFAFA"/>
<path d="M216.62 324.73C216.312 324.729 216.009 324.65 215.74 324.5C215.409 324.288 215.141 323.99 214.965 323.638C214.788 323.286 214.711 322.892 214.74 322.5V302.32C214.784 301.403 215.047 300.51 215.506 299.715C215.965 298.92 216.608 298.246 217.38 297.75L242.26 283.38C242.573 283.151 242.946 283.017 243.334 282.996C243.721 282.975 244.106 283.067 244.442 283.261C244.778 283.455 245.05 283.743 245.226 284.089C245.401 284.435 245.472 284.824 245.43 285.21V305.4C245.388 306.315 245.127 307.206 244.669 307.999C244.212 308.792 243.571 309.465 242.8 309.96L234.66 314.65L231.84 322.79C231.733 323.086 231.543 323.346 231.294 323.539C231.045 323.732 230.746 323.851 230.432 323.881C230.118 323.911 229.802 323.852 229.52 323.71C229.239 323.569 229.003 323.35 228.84 323.08L226.65 319.29L217.94 324.29C217.548 324.552 217.092 324.704 216.62 324.73ZM242.84 284.31L218 298.68C217.392 299.082 216.885 299.62 216.521 300.252C216.157 300.884 215.944 301.592 215.9 302.32V322.5C215.875 322.701 215.899 322.905 215.973 323.093C216.046 323.282 216.166 323.449 216.32 323.58C216.511 323.648 216.716 323.668 216.917 323.638C217.117 323.608 217.307 323.53 217.47 323.41L227.1 317.84L229.82 322.55C229.88 322.65 229.966 322.73 230.07 322.783C230.174 322.835 230.29 322.857 230.406 322.845C230.521 322.834 230.631 322.789 230.722 322.718C230.813 322.646 230.882 322.549 230.92 322.44L233.87 313.93L242.3 309C242.909 308.597 243.416 308.059 243.782 307.427C244.149 306.796 244.363 306.088 244.41 305.36V285.21C244.434 285.01 244.408 284.807 244.332 284.62C244.257 284.433 244.136 284.268 243.98 284.14C243.792 284.066 243.588 284.043 243.388 284.073C243.188 284.103 242.999 284.185 242.84 284.31Z" fill="#E0E0E0"/>
<path d="M220.87 316.07C220.767 316.076 220.665 316.046 220.581 315.985C220.497 315.925 220.437 315.838 220.41 315.738C220.383 315.638 220.391 315.533 220.433 315.438C220.475 315.344 220.548 315.267 220.64 315.22L239.16 304.53C239.265 304.47 239.389 304.455 239.505 304.486C239.563 304.502 239.616 304.529 239.664 304.566C239.711 304.602 239.75 304.648 239.78 304.7C239.809 304.752 239.828 304.809 239.836 304.868C239.843 304.927 239.839 304.987 239.823 305.045C239.807 305.103 239.78 305.156 239.744 305.204C239.707 305.251 239.662 305.29 239.61 305.32L221.1 316C221.03 316.042 220.951 316.066 220.87 316.07Z" fill="#E0E0E0"/>
<path d="M220.87 311.8C220.789 311.8 220.709 311.779 220.639 311.739C220.569 311.698 220.51 311.64 220.47 311.57C220.412 311.465 220.397 311.341 220.428 311.225C220.46 311.109 220.536 311.011 220.64 310.95L239.16 300.26C239.211 300.229 239.268 300.209 239.327 300.201C239.385 300.192 239.446 300.195 239.503 300.21C239.561 300.225 239.615 300.251 239.662 300.287C239.71 300.323 239.75 300.368 239.78 300.42C239.839 300.526 239.854 300.652 239.822 300.769C239.79 300.887 239.714 300.987 239.61 301.05L221.1 311.74C221.029 311.778 220.95 311.799 220.87 311.8Z" fill="#E0E0E0"/>
<path d="M220.87 307.52C220.767 307.526 220.665 307.496 220.581 307.436C220.497 307.375 220.437 307.288 220.41 307.188C220.383 307.089 220.391 306.983 220.433 306.888C220.475 306.794 220.548 306.717 220.64 306.67L239.16 296C239.212 295.97 239.269 295.951 239.328 295.944C239.387 295.937 239.447 295.941 239.505 295.957C239.563 295.972 239.616 295.999 239.664 296.036C239.711 296.073 239.75 296.118 239.78 296.17C239.809 296.222 239.828 296.279 239.836 296.338C239.843 296.398 239.839 296.458 239.823 296.515C239.807 296.573 239.78 296.627 239.744 296.674C239.707 296.721 239.662 296.76 239.61 296.79L221.1 307.46C221.029 307.499 220.95 307.519 220.87 307.52Z" fill="#E04048"/>
<path d="M220.87 303.25C220.789 303.25 220.709 303.229 220.639 303.189C220.569 303.148 220.51 303.09 220.47 303.02C220.412 302.915 220.397 302.791 220.428 302.675C220.46 302.559 220.536 302.461 220.64 302.4L239.16 291.71C239.264 291.651 239.386 291.634 239.502 291.664C239.618 291.694 239.717 291.768 239.78 291.87C239.839 291.976 239.854 292.102 239.822 292.219C239.79 292.337 239.714 292.437 239.61 292.5L221.1 303.19C221.029 303.228 220.95 303.249 220.87 303.25Z" fill="#E0E0E0"/>
<path d="M409.19 59.0999L384.3 73.4699C383.609 73.9181 383.035 74.5231 382.623 75.2357C382.211 75.9482 381.974 76.748 381.93 77.5699V97.7599C381.93 99.2699 382.99 99.8799 384.3 99.1199L393.47 93.8199L395.93 98.0699C396.039 98.2607 396.2 98.416 396.395 98.517C396.591 98.6181 396.811 98.6606 397.029 98.6395C397.248 98.6183 397.456 98.5345 397.628 98.3979C397.8 98.2614 397.929 98.078 398 97.8699L400.88 89.5399L409.19 84.7499C409.88 84.3017 410.455 83.6967 410.866 82.9841C411.278 82.2716 411.516 81.4717 411.56 80.6499V60.4699C411.56 58.9999 410.5 58.3399 409.19 59.0999Z" fill="#FAFAFA"/>
<path d="M383.24 99.9999C382.932 99.9994 382.629 99.9202 382.36 99.7699C382.028 99.5587 381.759 99.2609 381.583 98.9086C381.406 98.5563 381.33 98.1626 381.36 97.7699V77.5699C381.402 76.6523 381.663 75.7582 382.123 74.9628C382.582 74.1675 383.226 73.4943 384 72.9999L408.88 58.6299C409.193 58.4007 409.566 58.2674 409.953 58.2464C410.341 58.2253 410.726 58.3174 411.062 58.5113C411.398 58.7053 411.67 58.9927 411.845 59.3387C412.021 59.6847 412.092 60.0742 412.05 60.4599V80.6499C412.006 81.5656 411.744 82.4576 411.287 83.2522C410.829 84.0469 410.189 84.7213 409.42 85.2199L401.28 89.8999L398.5 97.9999C398.398 98.3045 398.209 98.5728 397.957 98.7718C397.705 98.9707 397.4 99.0917 397.08 99.1199C396.76 99.1563 396.436 99.0968 396.149 98.9491C395.863 98.8014 395.626 98.572 395.47 98.2899L393.28 94.5099L384.57 99.5099C384.18 99.7914 383.72 99.9608 383.24 99.9999ZM409.46 59.5799L384.57 73.9299C383.963 74.3332 383.457 74.8717 383.093 75.5033C382.728 76.1348 382.515 76.8422 382.47 77.5699V97.7599C382.411 97.9606 382.421 98.1754 382.499 98.3697C382.577 98.5639 382.718 98.7262 382.899 98.8303C383.081 98.9344 383.292 98.9742 383.499 98.9432C383.706 98.9123 383.897 98.8125 384.04 98.6599L393.67 93.0899L396.39 97.7999C396.444 97.9033 396.529 97.9875 396.633 98.0412C396.737 98.0948 396.854 98.1153 396.97 98.0999C397.087 98.0935 397.199 98.0519 397.292 97.9805C397.385 97.9091 397.454 97.8113 397.49 97.6999L400.44 89.1799L408.92 84.2899C409.523 83.8838 410.025 83.3442 410.385 82.7129C410.746 82.0816 410.956 81.3757 411 80.6499V60.4699C411.063 60.2684 411.056 60.0514 410.98 59.8545C410.903 59.6577 410.762 59.4927 410.579 59.3868C410.396 59.2809 410.183 59.2404 409.974 59.2718C409.765 59.3033 409.573 59.4049 409.43 59.5599L409.46 59.5799Z" fill="#E0E0E0"/>
<path d="M395.25 87C395.251 86.395 395.389 85.7981 395.654 85.2542C395.919 84.7103 396.304 84.2336 396.78 83.86C397.59 83.4 398.24 84.08 398.24 85.27C398.257 85.8794 398.134 86.4845 397.881 87.0391C397.628 87.5937 397.251 88.0831 396.78 88.47C395.92 89 395.25 88.28 395.25 87ZM395.43 71.54L398.14 70L397.6 81.58L395.97 82.52L395.43 71.54Z" fill="#E04048"/>
</svg>