<svg width="88" height="88" viewBox="0 0 88 88" fill="none" xmlns="http://www.w3.org/2000/svg">
<g clip-path="url(#clip0_1390_21114)">
<path d="M80.9377 0H65.0171C63.1462 0.00676286 61.3539 0.752964 60.031 2.07588C58.708 3.3988 57.9618 5.19112 57.9551 7.062V88H80.9377C82.8086 87.9932 84.6009 87.247 85.9239 85.9241C87.2468 84.6012 87.993 82.8089 87.9997 80.938V7.062C87.993 5.19112 87.2468 3.3988 85.9239 2.07588C84.6009 0.752964 82.8086 0.00676286 80.9377 0V0Z" fill="#6E6E6E"/>
<path d="M27.7897 34.738V57.8967H6.94833C5.10764 57.9015 3.34367 58.6346 2.04175 59.9358C0.739842 61.2371 0.00580638 63.0006 0 64.8413L0 81.0517C0.00483925 82.893 0.738448 84.6575 2.04047 85.9595C3.34248 87.2616 5.10701 87.9952 6.94833 88H57.8967V27.7897H34.738C32.8967 27.7945 31.1322 28.5281 29.8301 29.8301C28.5281 31.1322 27.7945 32.8967 27.7897 34.738Z" fill="#5C5C5C" fill-opacity="0.31"/>
<path d="M57.8926 27.7897V88H80.8752C82.7461 87.9932 84.5384 87.247 85.8614 85.9241C87.1843 84.6012 87.9305 82.8089 87.9372 80.938V57.8967L57.8926 27.7897Z" fill="#6E6E6E"/>
</g>
<defs>
<clipPath id="clip0_1390_21114">
<rect width="88" height="88" fill="white"/>
</clipPath>
</defs>
</svg>
