<svg width="88" height="88" viewBox="0 0 88 88" fill="none" xmlns="http://www.w3.org/2000/svg">
<path d="M81.5156 0H6.48404C2.87141 0 0 2.96403 0 6.48293V66.5905C1.57465 65.4793 3.24244 64.2751 4.81701 63.1638C5.92839 62.4228 7.04033 61.6818 8.15174 61.0338V19.079H79.756V65.2942C79.756 65.572 79.5705 65.7574 79.2927 65.7574H67.6212C67.9915 66.406 68.3624 67.1463 68.6402 67.9803C69.289 70.0179 69.289 72.0556 68.7326 74H81.516C85.1286 74 88 71.036 88 67.5171V6.48339C88 2.96449 85.0355 0.000463076 81.516 0.000463076L81.5156 0ZM10.7451 12.3179C9.17044 12.3179 7.96598 11.1137 7.96598 9.53924C7.96598 8.05724 9.17039 6.76061 10.7451 6.76061C12.3198 6.76061 13.5242 8.05719 13.5242 9.53924C13.6166 11.1136 12.3198 12.3179 10.7451 12.3179ZM19.2672 12.3179C17.6925 12.3179 16.4881 11.1137 16.4881 9.53924C16.4881 8.05724 17.6925 6.76061 19.2672 6.76061C20.8419 6.76061 22.0463 8.05719 22.0463 9.53924C22.0463 11.1136 20.8419 12.3179 19.2672 12.3179ZM27.7893 12.3179C26.3071 12.3179 25.0102 11.1137 25.0102 9.53924C25.0102 8.05724 26.307 6.76061 27.7893 6.76061C29.364 6.76061 30.5684 8.05719 30.5684 9.53924C30.5684 11.1136 29.364 12.3179 27.7893 12.3179Z" fill="#6E6E6E"/>
<path d="M56.0759 67.7446C54.3545 68.3908 51.5461 69.1285 48.466 69.8668C47.3791 71.7122 45.3859 73.2809 42.3058 73.8344C41.581 74.0191 40.7658 74.0191 39.8596 74.1112C37.6851 74.2032 35.1484 74.0191 32.2497 73.7424C32.0683 73.7424 31.8876 73.7424 31.7062 73.6503C30.9814 73.5583 30.4379 73.0967 30.3475 72.3585C30.2572 71.4354 30.982 70.6978 31.8876 70.7898C32.0689 70.7898 32.3407 70.7898 32.5221 70.8819C36.1456 71.1586 39.6788 71.4354 41.8534 71.0666C45.8398 70.2363 47.0177 67.7446 46.7453 65.6224C46.4736 63.8689 45.2956 62.3004 43.3025 62.3923C40.4942 62.6691 37.1423 62.3923 33.8808 62.2076C30.1662 61.9308 26.3614 61.9308 23.6433 62.2076C20.6537 62.5764 14.4933 64.8833 9.14765 68.6669C6.52069 70.5123 3.6213 72.7273 1.80954 74.019C0.903321 74.6652 0.722583 76.0491 1.44743 76.8794L9.42004 87.2144C10.1449 88.1374 11.3229 88.2295 12.2283 87.5832L15.1277 85.2763C15.8526 84.7227 16.6678 84.538 17.574 84.8147C22.8286 86.4754 28.5364 87.5832 32.2504 87.768C40.3134 88.1368 55.7147 78.2633 60.1539 75.1261C64.2299 72.1735 60.9685 65.8989 56.076 67.7443L56.0759 67.7446Z" fill="#6E6E6E"/>
<path d="M26.2717 54.1457C26.9212 55.4546 28.4046 55.9223 29.703 55.3613L38.7914 50.8735C42.4084 55.7357 49.0857 57.4183 54.743 54.7072C61.1423 51.5284 63.8314 43.7678 60.6784 37.3163C57.5254 30.8649 49.8277 28.1536 43.4285 31.3324C37.7713 34.1375 35.0821 40.4018 36.5655 46.2926L27.477 50.7804C26.1793 51.2474 25.623 52.8367 26.2718 54.1457L26.2717 54.1457ZM45.5619 35.8198C49.457 33.95 54.0941 35.5394 56.0418 39.4663C57.8965 43.3932 56.32 48.0682 52.4249 50.0319C48.5298 51.9017 43.8927 50.3123 41.945 46.3854C40.0903 42.4579 41.7593 37.783 45.5619 35.8198Z" fill="#6E6E6E"/>
</svg>
