<svg width="85" height="86" viewBox="0 0 85 86" fill="none" xmlns="http://www.w3.org/2000/svg">
<path d="M43 41.3667V35.6333L36.6933 34.63C36.2633 33.1967 35.69 31.7633 34.9733 30.4733L38.7 25.3133L34.6867 21.3L29.5267 25.0267C28.2367 24.31 26.8033 23.7367 25.37 23.3067L24.3667 17H18.6333L17.63 23.3067C16.1967 23.7367 14.7633 24.31 13.4733 25.0267L8.31333 21.3L4.3 25.3133L8.02667 30.4733C7.31 31.7633 6.73667 33.1967 6.30667 34.63L0 35.6333V41.3667L6.30667 42.37C6.73667 43.8033 7.31 45.2367 8.02667 46.5267L4.3 51.6867L8.31333 55.7L13.4733 51.9733C14.7633 52.69 16.1967 53.2633 17.63 53.6933L18.6333 60H24.3667L25.37 53.6933C26.8033 53.2633 28.2367 52.69 29.5267 51.9733L34.6867 55.7L38.7 51.6867L34.9733 46.5267C35.69 45.2367 36.2633 43.8033 36.6933 42.37L43 41.3667ZM21.5 45.6667C17.4867 45.6667 14.3333 42.5133 14.3333 38.5C14.3333 34.4867 17.4867 31.3333 21.5 31.3333C25.5133 31.3333 28.6667 34.4867 28.6667 38.5C28.6667 42.5133 25.5133 45.6667 21.5 45.6667Z" fill="#6E6E6E"/>
<path d="M75.16 78.067V83.2165H9.84V59L7.852 60.3918L7 59.5567V86H78V76.8144C77.148 77.232 76.154 77.6495 75.16 78.067Z" fill="#6E6E6E"/>
<path d="M9.84 19.4396V11.6054H75.16V54.6943C76.154 55.1295 77.148 55.5648 78 56V0H7V18.8601L7.852 17.9896L9.84 19.4396ZM21.2 2.90073H24.04V5.80228H21.2V2.90073ZM15.52 2.90073H18.36V5.80228H15.52V2.90073ZM9.84 2.90073H12.68V5.80228H9.84V2.90073Z" fill="#6E6E6E"/>
<path d="M62 55C44.6054 55 39 66.5 39 66.5C39 66.5 44.6063 78 62 78C79.25 78 85 66.5 85 66.5C85 66.5 79.25 55 62 55ZM62 75.125C57.2563 75.125 53.375 71.2437 53.375 66.5C53.375 61.7563 57.2563 57.875 62 57.875C63.4375 57.875 64.7313 58.1625 65.8813 58.7375L62 66.5L70.3375 64.2C70.4813 64.9188 70.625 65.7812 70.625 66.5C70.625 71.2437 66.7438 75.125 62 75.125Z" fill="#6E6E6E"/>
</svg>
