<svg width="622" height="536" viewBox="0 0 622 536" fill="none" xmlns="http://www.w3.org/2000/svg">
<g clip-path="url(#clip0_775_4077)">
<path d="M683 443.011H-61V443.383H683V443.011Z" fill="#EBEBEB"/>
<path d="M608.451 466.953H559.168V467.325H608.451V466.953Z" fill="#EBEBEB"/>
<path d="M431.857 471H418.926V471.372H431.857V471Z" fill="#EBEBEB"/>
<path d="M557.68 453.145H529.125V453.517H557.68V453.145Z" fill="#EBEBEB"/>
<path d="M81.3251 455.645H17.0586V456.017H81.3251V455.645Z" fill="#EBEBEB"/>
<path d="M104.005 455.645H94.5859V456.017H104.005V455.645Z" fill="#EBEBEB"/>
<path d="M274.025 461.924H134.629V462.296H274.025V461.924Z" fill="#EBEBEB"/>
<path d="M291.655 376.646H4.33707C2.08627 376.643 -0.071032 375.746 -1.66123 374.153C-3.25143 372.56 -4.14453 370.401 -4.14453 368.15V-35.7378C-4.12493 -37.9757 -3.22313 -40.1156 -1.63513 -41.6925C-0.0470319 -43.2694 2.09907 -44.1561 4.33707 -44.1599H291.655C293.908 -44.1599 296.069 -43.2647 297.663 -41.6714C299.256 -40.078 300.151 -37.9168 300.151 -35.6634V368.15C300.151 370.403 299.256 372.565 297.663 374.158C296.069 375.751 293.908 376.646 291.655 376.646ZM4.33707 -43.8623C2.18497 -43.8584 0.122272 -43.0007 -1.39813 -41.4775C-2.91863 -39.9542 -3.77253 -37.89 -3.77253 -35.7378V368.15C-3.77253 370.302 -2.91863 372.366 -1.39813 373.89C0.122272 375.413 2.18497 376.271 4.33707 376.274H291.655C293.808 376.271 295.873 375.413 297.395 373.891C298.918 372.368 299.776 370.304 299.779 368.15V-35.7378C299.776 -37.8914 298.918 -39.9556 297.395 -41.4784C295.873 -43.0011 293.808 -43.8584 291.655 -43.8623H4.33707Z" fill="#EBEBEB"/>
<path d="M613.525 376.646H326.192C323.94 376.643 321.781 375.746 320.188 374.154C318.596 372.561 317.699 370.402 317.695 368.15V-35.7378C317.719 -37.9771 318.624 -40.1169 320.214 -41.6934C321.805 -43.2699 323.952 -44.1561 326.192 -44.1599H613.525C615.76 -44.1522 617.902 -43.2638 619.487 -41.6873C621.072 -40.1108 621.972 -37.9732 621.991 -35.7378V368.15C621.991 370.398 621.1 372.555 619.513 374.147C617.926 375.74 615.773 376.639 613.525 376.646ZM326.192 -43.8623C324.038 -43.8584 321.974 -43.0011 320.451 -41.4784C318.928 -39.9556 318.071 -37.8914 318.067 -35.7378V368.15C318.071 370.304 318.928 372.368 320.451 373.891C321.974 375.413 324.038 376.271 326.192 376.274H613.525C615.678 376.271 617.742 375.413 619.265 373.891C620.788 372.368 621.645 370.304 621.649 368.15V-35.7378C621.645 -37.8914 620.788 -39.9556 619.265 -41.4784C617.742 -43.0011 615.678 -43.8584 613.525 -43.8623H326.192Z" fill="#EBEBEB"/>
<path d="M190.68 28.425H84.6602V388.089H190.68V28.425Z" fill="#FAFAFA"/>
<path d="M174.893 28.425H168.703L131.727 388.089H137.917L174.893 28.425Z" fill="#F5F5F5"/>
<path d="M188.806 29.823H83.9766V32.993H188.806V29.823Z" fill="#E0E0E0"/>
<path d="M188.806 384.949H83.9766V391.735H188.806V384.949Z" fill="#EBEBEB"/>
<path d="M187.064 391.422H88.0078V391.72H187.064V391.422Z" fill="#EBEBEB"/>
<path d="M88.0079 29.823H187.064V391.422H193.001V25.374H82.0859V391.422H88.0079V29.823Z" fill="#EBEBEB"/>
<path d="M308.665 28.425H202.645V388.089H308.665V28.425Z" fill="#FAFAFA"/>
<path d="M279.261 28.425H245.453L208.477 388.089H242.269L279.261 28.425Z" fill="#F5F5F5"/>
<path d="M309.767 29.823H201.961V32.993H309.767V29.823Z" fill="#E0E0E0"/>
<path d="M309.767 384.949H201.961V391.735H309.767V384.949Z" fill="#EBEBEB"/>
<path d="M305.048 391.422H205.992V391.72H305.048V391.422Z" fill="#EBEBEB"/>
<path d="M205.992 29.823H305.048V391.422H310.97V25.374H200.055V391.422H205.992V29.823Z" fill="#EBEBEB"/>
<path d="M423.657 28.425H320.613V388.089H423.657V28.425Z" fill="#FAFAFA"/>
<path d="M379.003 28.425H372.813L335.836 388.089H342.026L379.003 28.425Z" fill="#F5F5F5"/>
<path d="M424.771 29.823H319.941V32.993H424.771V29.823Z" fill="#E0E0E0"/>
<path d="M424.771 384.949H319.941V391.735H424.771V384.949Z" fill="#EBEBEB"/>
<path d="M423.033 391.422H323.977V391.72H423.033V391.422Z" fill="#EBEBEB"/>
<path d="M323.976 29.823H423.017V391.422H428.955V25.374H318.039V391.422H323.976V29.823Z" fill="#EBEBEB"/>
<path d="M544.618 28.425H438.598V388.089H544.618V28.425Z" fill="#FAFAFA"/>
<path d="M534.245 28.425H500.453L463.461 388.089H497.268L534.245 28.425Z" fill="#F5F5F5"/>
<path d="M542.755 29.823H437.926V32.993H542.755V29.823Z" fill="#E0E0E0"/>
<path d="M542.755 384.949H437.926V391.735H542.755V384.949Z" fill="#EBEBEB"/>
<path d="M441.943 29.823H540.999V391.422H546.936V25.374H436.02V391.422H441.943V29.823Z" fill="#EBEBEB"/>
<path d="M540.998 391.422H441.941V391.72H540.998V391.422Z" fill="#EBEBEB"/>
<path d="M157.872 305.327H111.848V384.92H157.872V305.327Z" fill="#EBEBEB"/>
<path d="M149.048 294.211V314.165H145.417H124.317H120.688V294.211H149.048Z" fill="#EBEBEB"/>
<path d="M149.031 314.18H154.924V308.288H149.031V314.18Z" fill="#FAFAFA"/>
<path d="M137.617 314.18H143.51V308.288H137.617V314.18Z" fill="#FAFAFA"/>
<path d="M126.223 314.18H132.115V308.288H126.223V314.18Z" fill="#FAFAFA"/>
<path d="M114.809 314.18H120.701V308.288H114.809V314.18Z" fill="#F0F0F0"/>
<path d="M149.031 324.879H154.924V318.986H149.031V324.879Z" fill="#F0F0F0"/>
<path d="M137.617 324.879H143.51V318.986H137.617V324.879Z" fill="#F0F0F0"/>
<path d="M126.223 324.879H132.115V318.986H126.223V324.879Z" fill="#FAFAFA"/>
<path d="M114.809 324.879H120.701V318.986H114.809V324.879Z" fill="#FAFAFA"/>
<path d="M149.031 335.578H154.924V329.685H149.031V335.578Z" fill="#F0F0F0"/>
<path d="M137.617 335.578H143.51V329.685H137.617V335.578Z" fill="#FAFAFA"/>
<path d="M126.223 335.578H132.115V329.685H126.223V335.578Z" fill="#FAFAFA"/>
<path d="M137.617 304.91H143.51V299.017H137.617V304.91Z" fill="#FAFAFA"/>
<path d="M126.223 304.91H132.115V299.017H126.223V304.91Z" fill="#F0F0F0"/>
<path d="M114.809 335.578H120.701V329.685H114.809V335.578Z" fill="#F0F0F0"/>
<path d="M149.031 346.291H154.924V340.399H149.031V346.291Z" fill="#FAFAFA"/>
<path d="M137.617 346.291H143.51V340.399H137.617V346.291Z" fill="#F0F0F0"/>
<path d="M126.223 346.291H132.115V340.399H126.223V346.291Z" fill="#F0F0F0"/>
<path d="M114.809 346.291H120.701V340.399H114.809V346.291Z" fill="#FAFAFA"/>
<path d="M149.031 357.005H154.924V351.112H149.031V357.005Z" fill="#F0F0F0"/>
<path d="M137.617 357.005H143.51V351.112H137.617V357.005Z" fill="#FAFAFA"/>
<path d="M126.223 357.005H132.115V351.112H126.223V357.005Z" fill="#FAFAFA"/>
<path d="M114.809 357.005H120.701V351.112H114.809V357.005Z" fill="#F0F0F0"/>
<path d="M149.031 367.719H154.924V361.826H149.031V367.719Z" fill="#F0F0F0"/>
<path d="M137.617 367.719H143.51V361.826H137.617V367.719Z" fill="#FAFAFA"/>
<path d="M126.223 367.719H132.115V361.826H126.223V367.719Z" fill="#F0F0F0"/>
<path d="M114.809 367.719H120.701V361.826H114.809V367.719Z" fill="#FAFAFA"/>
<path d="M149.031 378.417H154.924V372.525H149.031V378.417Z" fill="#FAFAFA"/>
<path d="M137.617 378.417H143.51V372.525H137.617V378.417Z" fill="#FAFAFA"/>
<path d="M126.223 378.417H132.115V372.525H126.223V378.417Z" fill="#F0F0F0"/>
<path d="M114.809 378.417H120.701V372.525H114.809V378.417Z" fill="#F0F0F0"/>
<path d="M417.364 305.327H371.34V384.92H417.364V305.327Z" fill="#EBEBEB"/>
<path d="M408.538 294.211V314.165H404.907H383.822H380.191V294.211H408.538Z" fill="#EBEBEB"/>
<path d="M408.539 314.18H414.432V308.288H408.539V314.18Z" fill="#FAFAFA"/>
<path d="M397.109 314.18H403.002V308.288H397.109V314.18Z" fill="#FAFAFA"/>
<path d="M385.695 314.18H391.588V308.288H385.695V314.18Z" fill="#FAFAFA"/>
<path d="M374.285 314.18H380.178V308.288H374.285V314.18Z" fill="#F0F0F0"/>
<path d="M408.539 324.879H414.432V318.986H408.539V324.879Z" fill="#F0F0F0"/>
<path d="M397.109 324.879H403.002V318.986H397.109V324.879Z" fill="#F0F0F0"/>
<path d="M385.695 324.879H391.588V318.986H385.695V324.879Z" fill="#FAFAFA"/>
<path d="M374.285 324.879H380.178V318.986H374.285V324.879Z" fill="#FAFAFA"/>
<path d="M408.539 335.578H414.432V329.685H408.539V335.578Z" fill="#F0F0F0"/>
<path d="M397.109 335.578H403.002V329.685H397.109V335.578Z" fill="#FAFAFA"/>
<path d="M385.695 335.578H391.588V329.685H385.695V335.578Z" fill="#FAFAFA"/>
<path d="M397.109 304.91H403.002V299.017H397.109V304.91Z" fill="#FAFAFA"/>
<path d="M385.695 304.91H391.588V299.017H385.695V304.91Z" fill="#F0F0F0"/>
<path d="M374.285 335.578H380.178V329.685H374.285V335.578Z" fill="#F0F0F0"/>
<path d="M408.539 346.291H414.432V340.399H408.539V346.291Z" fill="#FAFAFA"/>
<path d="M397.109 346.291H403.002V340.399H397.109V346.291Z" fill="#F0F0F0"/>
<path d="M385.695 346.291H391.588V340.399H385.695V346.291Z" fill="#F0F0F0"/>
<path d="M374.285 346.291H380.178V340.399H374.285V346.291Z" fill="#FAFAFA"/>
<path d="M408.539 357.005H414.432V351.112H408.539V357.005Z" fill="#F0F0F0"/>
<path d="M397.109 357.005H403.002V351.112H397.109V357.005Z" fill="#FAFAFA"/>
<path d="M385.695 357.005H391.588V351.112H385.695V357.005Z" fill="#FAFAFA"/>
<path d="M374.285 357.005H380.178V351.112H374.285V357.005Z" fill="#F0F0F0"/>
<path d="M408.539 367.719H414.432V361.826H408.539V367.719Z" fill="#F0F0F0"/>
<path d="M397.109 367.719H403.002V361.826H397.109V367.719Z" fill="#FAFAFA"/>
<path d="M385.695 367.719H391.588V361.826H385.695V367.719Z" fill="#F0F0F0"/>
<path d="M374.285 367.719H380.178V361.826H374.285V367.719Z" fill="#FAFAFA"/>
<path d="M408.539 378.417H414.432V372.525H408.539V378.417Z" fill="#FAFAFA"/>
<path d="M397.109 378.417H403.002V372.525H397.109V378.417Z" fill="#FAFAFA"/>
<path d="M385.695 378.417H391.588V372.525H385.695V378.417Z" fill="#F0F0F0"/>
<path d="M374.285 378.417H380.178V372.525H374.285V378.417Z" fill="#F0F0F0"/>
<path d="M490.482 334.328H449.25V384.92H490.482V334.328Z" fill="#F0F0F0"/>
<path d="M452.836 339.938H462.419H465.067H467.701V345.22H465.067H462.419H452.836V339.938Z" fill="#E6E6E6"/>
<path d="M452.836 350.16H462.419H465.067H467.701V355.443H465.067H462.419H452.836V350.16Z" fill="#FAFAFA"/>
<path d="M452.836 360.383H462.419H465.067H467.701V365.665H465.067H462.419H452.836V360.383Z" fill="#E6E6E6"/>
<path d="M452.836 370.62H462.419H466.511H467.701V375.888H466.511H462.419H452.836V370.62Z" fill="#FAFAFA"/>
<path d="M472.016 339.938H481.613H484.247H486.881V345.22H484.247H481.613H472.016V339.938Z" fill="#FAFAFA"/>
<path d="M472.016 350.16H481.613H485.333H486.881V355.443H485.333H481.613H472.016V350.16Z" fill="#FAFAFA"/>
<path d="M472.016 360.383H481.613H484.247H486.881V365.665H484.247H481.613H472.016V360.383Z" fill="#E6E6E6"/>
<path d="M472.016 370.62H481.613H484.247H486.881V375.888H484.247H481.613H472.016V370.62Z" fill="#FAFAFA"/>
<path d="M293.843 353.493H256.375V384.935H293.843V353.493Z" fill="#F0F0F0"/>
<path d="M286.641 362.198H291.433V357.407H286.641V362.198Z" fill="#FAFAFA"/>
<path d="M277.355 362.198H282.146V357.407H277.355V362.198Z" fill="#FAFAFA"/>
<path d="M268.07 362.198H272.861V357.407H268.07V362.198Z" fill="#FAFAFA"/>
<path d="M258.77 362.198H263.561V357.407H258.77V362.198Z" fill="#FAFAFA"/>
<path d="M286.641 370.903H291.433V366.111H286.641V370.903Z" fill="#FAFAFA"/>
<path d="M277.355 370.903H282.146V366.111H277.355V370.903Z" fill="#FAFAFA"/>
<path d="M268.07 370.903H272.861V366.111H268.07V370.903Z" fill="#FAFAFA"/>
<path d="M258.77 370.903H263.561V366.111H258.77V370.903Z" fill="#E6E6E6"/>
<path d="M286.641 379.637H291.433V374.846H286.641V379.637Z" fill="#E6E6E6"/>
<path d="M277.355 379.637H282.146V374.846H277.355V379.637Z" fill="#E6E6E6"/>
<path d="M268.07 379.637H272.861V374.846H268.07V379.637Z" fill="#FAFAFA"/>
<path d="M258.77 379.637H263.561V374.846H258.77V379.637Z" fill="#E6E6E6"/>
<path d="M367.409 353.493H329.941V384.935H367.409V353.493Z" fill="#F0F0F0"/>
<path d="M360.223 362.198H365.015V357.407H360.223V362.198Z" fill="#FAFAFA"/>
<path d="M350.922 362.198H355.714V357.407H350.922V362.198Z" fill="#FAFAFA"/>
<path d="M341.637 362.198H346.429V357.407H341.637V362.198Z" fill="#FAFAFA"/>
<path d="M332.352 362.198H337.144V357.407H332.352V362.198Z" fill="#FAFAFA"/>
<path d="M360.223 370.903H365.015V366.111H360.223V370.903Z" fill="#FAFAFA"/>
<path d="M350.922 370.903H355.714V366.111H350.922V370.903Z" fill="#FAFAFA"/>
<path d="M341.637 370.903H346.429V366.111H341.637V370.903Z" fill="#FAFAFA"/>
<path d="M332.352 370.903H337.144V366.111H332.352V370.903Z" fill="#E6E6E6"/>
<path d="M360.223 379.637H365.015V374.846H360.223V379.637Z" fill="#E6E6E6"/>
<path d="M350.922 379.637H355.714V374.846H350.922V379.637Z" fill="#E6E6E6"/>
<path d="M341.637 379.637H346.429V374.846H341.637V379.637Z" fill="#FAFAFA"/>
<path d="M332.352 379.637H337.144V374.846H332.352V379.637Z" fill="#E6E6E6"/>
<path d="M251.304 330.236H213.836V384.92H251.304V330.236Z" fill="#F0F0F0"/>
<path d="M248.905 332.631H234.812V346.142H248.905V332.631Z" fill="#FAFAFA"/>
<path d="M230.321 332.631H216.23V346.142H230.321V332.631Z" fill="#FAFAFA"/>
<path d="M248.905 350.071H234.812V363.582H248.905V350.071Z" fill="#FAFAFA"/>
<path d="M230.321 350.071H216.23V363.582H230.321V350.071Z" fill="#FAFAFA"/>
<path d="M248.905 367.495H234.812V381.006H248.905V367.495Z" fill="#FAFAFA"/>
<path d="M230.321 367.495H216.23V381.006H230.321V367.495Z" fill="#FAFAFA"/>
<path d="M534.214 330.236H496.746V384.92H534.214V330.236Z" fill="#F0F0F0"/>
<path d="M531.821 332.631H517.73V346.142H531.821V332.631Z" fill="#FAFAFA"/>
<path d="M513.236 332.631H499.145V346.142H513.236V332.631Z" fill="#FAFAFA"/>
<path d="M531.821 350.071H517.73V363.582H531.821V350.071Z" fill="#FAFAFA"/>
<path d="M513.236 350.071H499.145V363.582H513.236V350.071Z" fill="#FAFAFA"/>
<path d="M531.821 367.495H517.73V381.006H531.821V367.495Z" fill="#FAFAFA"/>
<path d="M513.236 367.495H499.145V381.006H513.236V367.495Z" fill="#FAFAFA"/>
<path d="M65.079 404.457C65.079 404.457 57.55 388.015 66.15 371.81C74.751 355.606 77.266 351.782 71.775 348.464C66.284 345.145 63.769 361.424 63.769 361.424C61.048 354.07 60.766 346.036 62.966 338.509C66.775 326.784 69.171 307.678 63.963 305.624C58.755 303.571 62.966 329.432 58.442 338.271C56.124 332.084 54.623 325.621 53.978 319.046C53.353 309.627 54.335 294.583 50.214 290.774C46.092 286.965 43.458 289.584 47.506 310.371C49.939 322.789 51.283 335.395 51.523 348.047C51.523 348.047 42.595 320.787 36.6431 319.983C30.6911 319.18 30.6911 328.019 35.7801 335.682C40.869 343.345 50.824 357.05 52.446 364.118C52.446 364.118 42.64 343.598 33.801 349.877C24.9623 356.157 41.494 368.567 48.845 373.046C56.195 377.524 61.314 405.588 61.314 405.588L65.079 404.457Z" fill="#E0E0E0"/>
<path d="M59.1278 411.168C59.1278 411.168 66.4778 394.622 57.6398 378.536C48.8008 362.451 46.3008 358.686 51.6878 355.279C57.0738 351.871 59.8418 368.12 59.8418 368.12C59.8418 368.12 64.3058 356.856 60.3778 345.19C56.4488 333.524 53.8749 314.448 59.0679 312.365C64.2608 310.282 60.3478 336.173 65.0198 344.922C67.2518 338.684 68.6619 332.181 69.2159 325.578C69.7219 316.159 68.5618 301.13 72.6388 297.217C76.7158 293.304 79.3789 295.922 75.6149 316.769C73.3059 329.258 72.0908 341.924 71.9838 354.624C71.9838 354.624 80.5988 327.23 86.5958 326.352C92.5928 325.474 92.6819 334.298 87.6379 342.036C82.5929 349.773 72.9208 363.552 71.3138 370.62C71.3138 370.62 80.8819 349.967 89.7799 356.112C98.6789 362.258 82.3398 374.906 75.0188 379.503C67.6988 384.101 62.9368 412.239 62.9368 412.239L59.1278 411.168Z" fill="#EBEBEB"/>
<path d="M92.9771 399.398H32.3555L37.2659 442.773H88.0661L92.9771 399.398Z" fill="#EBEBEB"/>
<path d="M547.327 396.288C547.55 394.8 552.564 360.13 542.506 348.166C541.501 346.906 540.23 345.883 538.785 345.171C537.339 344.458 535.754 344.074 534.143 344.044C513.817 343.568 511.034 359.892 511.02 360.055L513.415 360.427C513.505 359.847 515.914 346.038 534.083 346.47C535.351 346.485 536.601 346.786 537.737 347.35C538.873 347.914 539.867 348.727 540.646 349.729C550.02 360.874 544.976 395.574 544.931 395.857L547.327 396.288Z" fill="#EBEBEB"/>
<path d="M548.557 394.8L550.968 394.726C550.968 394.413 550.164 362.778 565.758 356.246C581.025 349.848 587.9 363.002 588.182 363.567L590.355 362.481C590.281 362.317 582.216 346.708 564.821 354.014C547.694 361.112 548.512 393.312 548.557 394.8Z" fill="#EBEBEB"/>
<path d="M548.484 397.226C548.484 396.72 548.633 346.634 558.379 332.051C567.754 318.004 582.857 324.611 583.497 324.909L584.494 322.692C584.315 322.617 566.891 314.924 556.37 330.712C546.207 345.949 546.059 395.128 546.059 397.211L548.484 397.226Z" fill="#EBEBEB"/>
<path d="M531.224 345.28C531.224 345.28 540.152 348.553 537.459 356.276C534.766 363.999 506.762 376.706 506.762 376.706C506.762 376.706 495.006 365.933 505.794 348.434C516.582 330.935 530.986 339.744 531.224 345.28Z" fill="#E0E0E0"/>
<path d="M558.824 329.417C558.824 329.417 552.515 328.748 553.021 324.953C553.527 321.159 577.513 311.234 591.709 327.2C591.709 327.2 582.647 342.765 569.553 342.973C556.458 343.181 558.824 329.417 558.824 329.417Z" fill="#E0E0E0"/>
<path d="M565.285 355.056C565.285 355.056 560.94 351.544 565.628 349.833C570.315 348.121 593.349 348.598 593.587 371.409C593.587 371.409 566.803 375.873 563.455 367.183C560.107 358.493 565.285 355.056 565.285 355.056Z" fill="#E0E0E0"/>
<path d="M526.462 442.773H568.082L572.561 397.211H521.969L526.462 442.773Z" fill="#EBEBEB"/>
<path d="M519.754 402.24H574.795V392.181H519.754V402.24Z" fill="#E0E0E0"/>
<path d="M311 510.209C470.339 510.209 599.509 502.668 599.509 493.365C599.509 484.062 470.339 476.521 311 476.521C151.662 476.521 22.4922 484.062 22.4922 493.365C22.4922 502.668 151.662 510.209 311 510.209Z" fill="#F5F5F5"/>
<path d="M451.435 488.038V493.008C451.435 493.304 451.318 493.588 451.108 493.797C450.899 494.006 450.615 494.124 450.319 494.124H310.998C309.809 494.122 308.639 493.829 307.59 493.27C306.541 492.711 305.645 491.904 304.98 490.919C304.315 489.934 303.901 488.801 303.775 487.619C303.649 486.437 303.815 485.243 304.257 484.14L348.421 374.786L419.771 375.277L417.33 389.473L401.572 481.253C401.453 481.951 401.488 482.666 401.674 483.349C401.86 484.032 402.192 484.666 402.648 485.207C403.105 485.748 403.673 486.184 404.315 486.482C404.957 486.781 405.656 486.936 406.364 486.937H450.319C450.465 486.935 450.61 486.962 450.745 487.016C450.88 487.071 451.004 487.152 451.107 487.254C451.211 487.357 451.294 487.479 451.35 487.613C451.406 487.748 451.435 487.892 451.435 488.038Z" fill="#263238"/>
<path opacity="0.6" d="M451.435 488.038V493.008C451.435 493.304 451.318 493.588 451.108 493.797C450.899 494.006 450.615 494.124 450.319 494.124H310.998C309.809 494.122 308.639 493.829 307.59 493.27C306.541 492.711 305.645 491.904 304.98 490.919C304.315 489.934 303.901 488.801 303.775 487.619C303.649 486.437 303.815 485.243 304.257 484.14L331.636 416.361L348.421 374.786L419.771 375.277L417.33 389.473L410.485 429.411L401.557 481.297C401.438 481.995 401.473 482.71 401.659 483.393C401.845 484.076 402.177 484.711 402.633 485.252C403.09 485.793 403.658 486.228 404.3 486.527C404.942 486.826 405.641 486.981 406.349 486.982H450.304C450.594 486.974 450.875 487.08 451.087 487.278C451.298 487.475 451.424 487.749 451.435 488.038Z" fill="white"/>
<path opacity="0.2" d="M406.366 486.937H315.702C315.167 486.947 314.639 486.822 314.165 486.575C313.692 486.327 313.288 485.964 312.992 485.519C312.695 485.075 312.516 484.563 312.469 484.03C312.423 483.498 312.511 482.962 312.726 482.473L351.414 389.369H417.258L401.574 481.253C401.455 481.95 401.49 482.666 401.676 483.349C401.861 484.032 402.194 484.666 402.65 485.207C403.106 485.748 403.675 486.183 404.317 486.482C404.959 486.781 405.658 486.936 406.366 486.937Z" fill="black"/>
<path opacity="0.1" d="M419.755 375.233L417.315 389.428L410.47 429.366L331.621 416.316L348.391 374.742L419.755 375.233Z" fill="black"/>
<path d="M558.499 171.392H228.163C227.053 171.392 225.954 171.61 224.928 172.035C223.903 172.46 222.971 173.082 222.186 173.867C221.402 174.652 220.779 175.584 220.354 176.609C219.93 177.634 219.711 178.734 219.711 179.843V403.475C219.715 405.715 220.607 407.863 222.191 409.447C223.775 411.031 225.922 411.923 228.163 411.927H558.499C560.74 411.927 562.89 411.036 564.475 409.451C566.06 407.866 566.951 405.717 566.951 403.475V179.843C566.951 177.602 566.06 175.452 564.475 173.867C562.89 172.282 560.74 171.392 558.499 171.392Z" fill="#263238"/>
<path opacity="0.7" d="M558.499 171.392H228.163C227.053 171.392 225.954 171.61 224.928 172.035C223.903 172.46 222.971 173.082 222.186 173.867C221.402 174.652 220.779 175.584 220.354 176.609C219.93 177.634 219.711 178.734 219.711 179.843V403.475C219.715 405.715 220.607 407.863 222.191 409.447C223.775 411.031 225.922 411.923 228.163 411.927H558.499C560.74 411.927 562.89 411.036 564.475 409.451C566.06 407.866 566.951 405.717 566.951 403.475V179.843C566.951 177.602 566.06 175.452 564.475 173.867C562.89 172.282 560.74 171.392 558.499 171.392Z" fill="white"/>
<path opacity="0.2" d="M235.109 411.912H228.101C225.863 411.912 223.717 411.023 222.135 409.441C220.553 407.859 219.664 405.713 219.664 403.475V179.843C219.662 178.734 219.879 177.636 220.302 176.61C220.725 175.585 221.346 174.653 222.13 173.868C222.914 173.083 223.844 172.46 224.869 172.035C225.893 171.61 226.992 171.392 228.101 171.392H235.109C234 171.392 232.901 171.61 231.875 172.035C230.85 172.46 229.918 173.082 229.133 173.867C228.348 174.652 227.726 175.584 227.301 176.609C226.876 177.634 226.658 178.734 226.658 179.843V403.475C226.658 404.584 226.876 405.683 227.301 406.707C227.726 407.732 228.349 408.662 229.134 409.446C229.919 410.23 230.851 410.851 231.876 411.274C232.902 411.697 234 411.914 235.109 411.912Z" fill="black"/>
<path d="M559.334 179.665H234.34V395.306H559.334V179.665Z" fill="#E04048"/>
<path opacity="0.4" d="M559.334 179.665H234.34V198.934H559.334V179.665Z" fill="black"/>
<path d="M287.417 190.334H245.366C245.007 190.334 244.662 190.191 244.408 189.937C244.154 189.683 244.012 189.339 244.012 188.98C244.012 188.621 244.154 188.276 244.408 188.022C244.662 187.768 245.007 187.626 245.366 187.626H287.417C287.776 187.626 288.12 187.768 288.374 188.022C288.628 188.276 288.771 188.621 288.771 188.98C288.771 189.339 288.628 189.683 288.374 189.937C288.12 190.191 287.776 190.334 287.417 190.334Z" fill="white"/>
<path d="M413.09 190.334H388.999C388.822 190.334 388.647 190.299 388.484 190.231C388.32 190.162 388.172 190.062 388.047 189.936C387.923 189.81 387.824 189.661 387.758 189.497C387.691 189.333 387.658 189.157 387.66 188.98C387.658 188.803 387.691 188.627 387.758 188.463C387.824 188.299 387.923 188.149 388.047 188.023C388.172 187.897 388.32 187.797 388.484 187.729C388.647 187.661 388.822 187.626 388.999 187.626H413.09C413.449 187.626 413.794 187.768 414.048 188.022C414.302 188.276 414.444 188.621 414.444 188.98C414.444 189.339 414.302 189.683 414.048 189.937C413.794 190.191 413.449 190.334 413.09 190.334Z" fill="white"/>
<path d="M451.574 190.334H427.483C427.124 190.334 426.78 190.191 426.526 189.937C426.272 189.683 426.129 189.339 426.129 188.98C426.129 188.621 426.272 188.276 426.526 188.022C426.78 187.768 427.124 187.626 427.483 187.626H451.574C451.933 187.626 452.277 187.768 452.531 188.022C452.785 188.276 452.928 188.621 452.928 188.98C452.928 189.339 452.785 189.683 452.531 189.937C452.277 190.191 451.933 190.334 451.574 190.334Z" fill="white"/>
<path d="M490.05 190.334H465.961C465.601 190.334 465.257 190.191 465.003 189.937C464.749 189.683 464.605 189.339 464.605 188.98C464.605 188.621 464.749 188.276 465.003 188.022C465.257 187.768 465.601 187.626 465.961 187.626H490.05C490.409 187.626 490.754 187.768 491.008 188.022C491.262 188.276 491.404 188.621 491.404 188.98C491.404 189.339 491.262 189.683 491.008 189.937C490.754 190.191 490.409 190.334 490.05 190.334Z" fill="white"/>
<path d="M542.531 188.087L547.01 192.581L551.489 188.087H542.531Z" fill="white"/>
<path d="M497.879 179.665V199.009H535.079V179.665H497.879ZM528.517 190.334H504.441C504.082 190.334 503.738 190.191 503.484 189.937C503.23 189.683 503.087 189.339 503.087 188.98C503.087 188.621 503.23 188.276 503.484 188.022C503.738 187.768 504.082 187.626 504.441 187.626H528.532C528.891 187.626 529.235 187.768 529.489 188.022C529.743 188.276 529.886 188.621 529.886 188.98C529.886 189.339 529.743 189.683 529.489 189.937C529.235 190.191 528.891 190.334 528.532 190.334H528.517Z" fill="white"/>
<path d="M372.007 273.677H252.967C252.608 273.677 252.264 273.534 252.01 273.28C251.756 273.026 251.613 272.682 251.613 272.323C251.613 271.963 251.756 271.619 252.01 271.365C252.264 271.111 252.608 270.969 252.967 270.969H372.007C372.185 270.969 372.361 271.004 372.526 271.072C372.69 271.14 372.839 271.239 372.965 271.365C373.091 271.491 373.19 271.64 373.258 271.804C373.326 271.969 373.361 272.145 373.361 272.323C373.361 272.5 373.326 272.676 373.258 272.841C373.19 273.005 373.091 273.154 372.965 273.28C372.839 273.406 372.69 273.506 372.526 273.574C372.361 273.642 372.185 273.677 372.007 273.677Z" fill="white"/>
<path d="M372.007 281.459H252.967C252.608 281.459 252.264 281.316 252.01 281.062C251.756 280.808 251.613 280.464 251.613 280.105C251.613 279.928 251.648 279.752 251.717 279.589C251.785 279.426 251.885 279.277 252.011 279.153C252.137 279.028 252.286 278.93 252.45 278.863C252.615 278.797 252.79 278.764 252.967 278.766H372.007C372.184 278.764 372.36 278.797 372.524 278.863C372.689 278.93 372.838 279.028 372.964 279.153C373.09 279.277 373.19 279.426 373.258 279.589C373.326 279.752 373.361 279.928 373.361 280.105C373.361 280.283 373.326 280.459 373.258 280.623C373.19 280.787 373.091 280.937 372.965 281.062C372.839 281.188 372.69 281.288 372.526 281.356C372.361 281.424 372.185 281.459 372.007 281.459Z" fill="white"/>
<path d="M359.121 289.256H252.967C252.608 289.256 252.264 289.113 252.01 288.859C251.756 288.605 251.613 288.261 251.613 287.902C251.613 287.543 251.756 287.198 252.01 286.944C252.264 286.691 252.608 286.548 252.967 286.548H359.136C359.495 286.548 359.84 286.691 360.094 286.944C360.348 287.198 360.49 287.543 360.49 287.902C360.49 288.081 360.455 288.258 360.386 288.424C360.317 288.589 360.216 288.739 360.088 288.865C359.961 288.991 359.81 289.09 359.644 289.157C359.478 289.224 359.3 289.258 359.121 289.256Z" fill="white"/>
<path d="M372.007 297.038H252.967C252.608 297.038 252.264 296.896 252.01 296.642C251.756 296.388 251.613 296.043 251.613 295.684C251.613 295.325 251.756 294.981 252.01 294.727C252.264 294.473 252.608 294.33 252.967 294.33H372.007C372.185 294.33 372.361 294.365 372.526 294.433C372.69 294.501 372.839 294.601 372.965 294.727C373.091 294.852 373.19 295.002 373.258 295.166C373.326 295.33 373.361 295.506 373.361 295.684C373.361 295.862 373.326 296.038 373.258 296.202C373.19 296.367 373.091 296.516 372.965 296.642C372.839 296.767 372.69 296.867 372.526 296.935C372.361 297.003 372.185 297.038 372.007 297.038Z" fill="white"/>
<path d="M359.121 304.821H252.967C252.608 304.821 252.264 304.678 252.01 304.424C251.756 304.17 251.613 303.826 251.613 303.466C251.613 303.289 251.648 303.114 251.717 302.951C251.785 302.787 251.885 302.639 252.011 302.514C252.137 302.39 252.286 302.291 252.45 302.225C252.615 302.158 252.79 302.125 252.967 302.127H359.136C359.313 302.125 359.489 302.158 359.653 302.225C359.817 302.291 359.967 302.39 360.093 302.514C360.219 302.639 360.319 302.787 360.387 302.951C360.455 303.114 360.49 303.289 360.49 303.466C360.49 303.646 360.455 303.823 360.386 303.988C360.317 304.153 360.216 304.303 360.088 304.429C359.961 304.555 359.81 304.655 359.644 304.722C359.478 304.789 359.3 304.823 359.121 304.821Z" fill="white"/>
<path d="M307.83 312.618H252.967C252.608 312.618 252.264 312.475 252.01 312.221C251.756 311.967 251.613 311.623 251.613 311.264C251.632 310.917 251.783 310.592 252.035 310.354C252.287 310.116 252.621 309.983 252.967 309.984H307.845C308.022 309.984 308.197 310.019 308.361 310.087C308.524 310.155 308.673 310.255 308.797 310.381C308.922 310.507 309.02 310.657 309.086 310.821C309.153 310.985 309.186 311.161 309.184 311.338C309.169 311.685 309.019 312.013 308.766 312.252C308.513 312.491 308.178 312.622 307.83 312.618Z" fill="white"/>
<path d="M344.046 245.658H254.453C254.074 245.658 253.699 245.583 253.348 245.438C252.998 245.293 252.68 245.08 252.412 244.812C252.144 244.544 251.931 244.226 251.786 243.876C251.641 243.526 251.566 243.15 251.566 242.771C251.566 242.393 251.641 242.018 251.786 241.669C251.932 241.319 252.145 241.002 252.413 240.735C252.681 240.468 252.999 240.257 253.35 240.114C253.7 239.97 254.075 239.897 254.453 239.899H344.016C344.393 239.897 344.768 239.97 345.117 240.114C345.466 240.257 345.784 240.469 346.051 240.736C346.318 241.003 346.529 241.32 346.673 241.67C346.817 242.019 346.89 242.393 346.888 242.771C346.892 243.53 346.595 244.26 346.062 244.801C345.53 245.342 344.805 245.65 344.046 245.658Z" fill="white"/>
<path d="M382.51 257.458H254.453C253.687 257.458 252.953 257.153 252.412 256.612C251.871 256.071 251.566 255.336 251.566 254.571C251.566 254.192 251.641 253.818 251.786 253.468C251.932 253.119 252.145 252.802 252.413 252.535C252.681 252.268 252.999 252.057 253.35 251.913C253.7 251.77 254.075 251.697 254.453 251.699H382.421C382.799 251.697 383.174 251.77 383.525 251.913C383.875 252.057 384.193 252.268 384.461 252.535C384.73 252.802 384.943 253.119 385.088 253.468C385.233 253.818 385.308 254.192 385.308 254.571C385.308 255.321 385.016 256.042 384.494 256.581C383.972 257.12 383.26 257.434 382.51 257.458Z" fill="white"/>
<path opacity="0.4" d="M308.93 325.563H255.109C253.17 325.563 251.598 327.135 251.598 329.075V336.857C251.598 338.797 253.17 340.369 255.109 340.369H308.93C310.87 340.369 312.442 338.797 312.442 336.857V329.075C312.442 327.135 310.87 325.563 308.93 325.563Z" fill="black"/>
<path d="M301.191 329.819V336.113L308.006 332.959L301.191 329.819Z" fill="white"/>
<path opacity="0.2" d="M436.708 244.066C462.391 244.631 455.397 296.146 423.316 292.961C391.235 289.777 409.21 243.47 436.708 244.066Z" fill="black"/>
<path opacity="0.2" d="M465.349 273.915C465.721 273.319 466.138 272.724 466.584 272.129C475.646 259.957 501.404 255.091 514.81 261.43C535.866 271.4 544.407 296.919 536.074 320.787C532.131 331.75 524.844 341.197 515.242 347.794C499.095 359.501 479.312 365.086 459.427 363.552C445.618 362.272 433.848 359.519 425.025 353.136C421.434 350.616 418.67 347.09 417.079 343.003C415.161 337.236 415.561 330.95 418.195 325.474C420.754 320.236 425.426 316.918 430.024 314.418C436.289 310.996 442.985 307.618 449.1 301.8C454.363 296.507 458.45 290.164 461.094 283.185C462.246 279.979 463.67 276.878 465.349 273.915Z" fill="black"/>
<path d="M471.121 329.015C469.93 333.479 462.743 335.563 455.08 333.479C447.417 331.396 442.194 326.144 443.399 321.575C444.605 317.007 451.777 315.028 459.425 317.111C467.074 319.195 472.326 324.492 471.121 329.015Z" fill="#263238"/>
<path d="M481.091 315.594C482.03 315.084 482.734 314.231 483.055 313.213C484.231 308.749 475.749 302.663 464.083 299.583C452.417 296.503 442.031 297.589 440.856 302.038C440.645 303.062 440.837 304.128 441.391 305.014C441.046 305.393 440.792 305.846 440.647 306.338C440.45 307.366 440.652 308.431 441.213 309.314C440.854 309.698 440.594 310.162 440.454 310.668C440.349 311.179 440.348 311.706 440.45 312.217C440.552 312.728 440.756 313.213 441.049 313.644C440.669 314.025 440.392 314.496 440.246 315.013C440.143 315.528 440.148 316.058 440.261 316.57C440.374 317.082 440.591 317.565 440.9 317.989C440.495 318.363 440.201 318.842 440.052 319.373C439.07 323.063 446.123 328.137 455.81 330.712C465.497 333.286 474.157 332.363 475.154 328.673C475.304 328.143 475.304 327.581 475.154 327.051C475.631 326.834 476.058 326.521 476.408 326.132C476.759 325.743 477.026 325.286 477.193 324.79C477.334 324.268 477.334 323.719 477.193 323.197C478.104 322.745 478.803 321.955 479.142 320.995C479.257 320.506 479.257 319.996 479.142 319.507C479.609 319.267 480.025 318.937 480.365 318.536C480.704 318.136 480.961 317.671 481.121 317.171C481.243 316.651 481.233 316.109 481.091 315.594Z" fill="#263238"/>
<path opacity="0.3" d="M481.091 315.594C482.03 315.084 482.734 314.231 483.055 313.213C484.231 308.749 475.749 302.663 464.083 299.583C452.417 296.503 442.031 297.589 440.856 302.038C440.645 303.062 440.837 304.128 441.391 305.014C441.046 305.393 440.792 305.846 440.647 306.338C440.45 307.366 440.652 308.431 441.213 309.314C440.854 309.698 440.594 310.162 440.454 310.668C440.349 311.179 440.348 311.706 440.45 312.217C440.552 312.728 440.756 313.213 441.049 313.644C440.669 314.025 440.392 314.496 440.246 315.013C440.143 315.528 440.148 316.058 440.261 316.57C440.374 317.082 440.591 317.565 440.9 317.989C440.495 318.363 440.201 318.842 440.052 319.373C439.07 323.063 446.123 328.137 455.81 330.712C465.497 333.286 474.157 332.363 475.154 328.673C475.304 328.143 475.304 327.581 475.154 327.051C475.631 326.834 476.058 326.521 476.408 326.132C476.759 325.743 477.026 325.286 477.193 324.79C477.334 324.268 477.334 323.719 477.193 323.197C478.104 322.745 478.803 321.955 479.142 320.995C479.257 320.506 479.257 319.996 479.142 319.507C479.609 319.267 480.025 318.937 480.365 318.536C480.704 318.136 480.961 317.671 481.121 317.171C481.243 316.651 481.233 316.109 481.091 315.594Z" fill="white"/>
<path d="M509.036 280.789C510.731 274.479 510.8 267.842 509.237 261.498C507.674 255.153 504.529 249.308 500.096 244.507C495.664 239.707 490.087 236.107 483.887 234.044C477.687 231.981 471.066 231.522 464.641 232.71C458.215 233.897 452.196 236.693 447.143 240.836C442.09 244.979 438.169 250.334 435.745 256.402C433.321 262.47 432.473 269.053 433.281 275.537C434.089 282.021 436.526 288.194 440.365 293.482C440.988 294.326 441.393 295.311 441.543 296.35C441.694 297.388 441.585 298.447 441.228 299.434C441.184 299.53 441.149 299.629 441.124 299.731C439.933 304.195 448.564 310.43 460.393 313.57C472.223 316.71 482.788 315.594 483.993 311.085C483.993 310.981 483.993 310.892 483.993 310.787C484.177 309.754 484.613 308.782 485.262 307.957C485.911 307.131 486.752 306.479 487.713 306.055C492.92 303.691 497.534 300.196 501.223 295.826C504.911 291.456 507.58 286.319 509.036 280.789Z" fill="#E04048"/>
<path opacity="0.7" d="M509.036 280.789C510.731 274.479 510.8 267.842 509.237 261.498C507.674 255.153 504.529 249.308 500.096 244.507C495.664 239.707 490.087 236.107 483.887 234.044C477.687 231.981 471.066 231.522 464.641 232.71C458.215 233.897 452.196 236.693 447.143 240.836C442.09 244.979 438.169 250.334 435.745 256.402C433.321 262.47 432.473 269.053 433.281 275.537C434.089 282.021 436.526 288.194 440.365 293.482C440.988 294.326 441.393 295.311 441.543 296.35C441.694 297.388 441.585 298.447 441.228 299.434C441.184 299.53 441.149 299.629 441.124 299.731C439.933 304.195 448.564 310.43 460.393 313.57C472.223 316.71 482.788 315.594 483.993 311.085C483.993 310.981 483.993 310.892 483.993 310.787C484.177 309.754 484.613 308.782 485.262 307.957C485.911 307.131 486.752 306.479 487.713 306.055C492.92 303.691 497.534 300.196 501.223 295.826C504.911 291.456 507.58 286.319 509.036 280.789Z" fill="white"/>
<path d="M468.622 309.166H468.444C468.388 309.141 468.337 309.106 468.295 309.062C468.253 309.019 468.22 308.967 468.198 308.91C468.176 308.853 468.165 308.793 468.166 308.732C468.168 308.671 468.181 308.611 468.206 308.555C468.503 307.856 475.214 292.187 485.407 288.125L479.857 286.637C479.77 286.615 479.691 286.568 479.63 286.502C479.569 286.436 479.529 286.354 479.515 286.265L478.815 281.399L472.283 289.078C472.225 289.144 472.15 289.193 472.066 289.219C471.982 289.246 471.892 289.248 471.807 289.226C471.72 289.204 471.641 289.157 471.58 289.091C471.519 289.025 471.479 288.943 471.464 288.854L469.56 278.84L463.295 285.491C463.238 285.553 463.164 285.597 463.082 285.618C463 285.639 462.914 285.636 462.834 285.61C462.754 285.593 462.681 285.552 462.623 285.494C462.565 285.436 462.525 285.363 462.507 285.283L460.349 276.444L457.299 280.373C457.241 280.444 457.165 280.498 457.077 280.527C456.99 280.556 456.897 280.559 456.808 280.536L450.856 278.959C452.641 282.262 457.968 293.542 454.918 305.074C454.871 305.176 454.79 305.258 454.689 305.306C454.588 305.354 454.472 305.365 454.364 305.337C454.255 305.308 454.16 305.242 454.096 305.15C454.031 305.059 454.001 304.947 454.01 304.835C457.537 291.562 449.546 278.602 449.546 278.468C449.496 278.391 449.469 278.3 449.469 278.208C449.469 278.115 449.496 278.025 449.546 277.947C449.6 277.871 449.676 277.814 449.764 277.782C449.852 277.75 449.947 277.745 450.037 277.769L456.763 279.554L460.23 275.09C460.285 275.024 460.357 274.973 460.438 274.945C460.519 274.916 460.607 274.91 460.691 274.927C460.776 274.947 460.853 274.989 460.916 275.049C460.979 275.11 461.025 275.185 461.048 275.269L463.221 284.197L469.53 277.501C469.59 277.442 469.664 277.4 469.745 277.379C469.826 277.359 469.911 277.359 469.991 277.382C470.075 277.404 470.15 277.449 470.208 277.512C470.266 277.575 470.304 277.654 470.319 277.739L472.208 287.709L478.785 279.986C478.847 279.919 478.924 279.871 479.011 279.845C479.097 279.818 479.189 279.816 479.276 279.837C479.361 279.866 479.436 279.917 479.494 279.985C479.552 280.053 479.59 280.136 479.604 280.224L480.407 285.789L487.133 287.575C487.233 287.6 487.322 287.658 487.386 287.738C487.451 287.819 487.487 287.918 487.49 288.021C487.49 288.123 487.457 288.222 487.395 288.302C487.333 288.383 487.246 288.441 487.148 288.467C476.568 291.443 469.143 308.689 469.069 308.868C469.037 308.959 468.976 309.038 468.895 309.091C468.815 309.145 468.719 309.171 468.622 309.166Z" fill="#263238"/>
<path opacity="0.4" d="M489.335 247.056C491.017 255.374 482.728 264.094 470.81 266.519C458.891 268.945 447.85 264.153 446.153 255.836C444.457 247.518 452.76 238.798 464.679 236.373C476.598 233.947 487.639 238.738 489.335 247.056Z" fill="white"/>
<path opacity="0.4" d="M479.959 273.617C480.644 276.965 477.311 280.462 472.519 281.429C467.728 282.396 463.309 280.492 462.624 277.144C461.94 273.796 465.273 270.299 470.064 269.332C474.856 268.365 479.29 270.284 479.959 273.617Z" fill="white"/>
<path opacity="0.1" d="M268.219 395.306C313.141 366.528 428.551 302.693 559.331 307.41V395.306H268.219Z" fill="white"/>
<path opacity="0.1" d="M234.34 312.558V179.665H481.958C472.465 206.449 453.478 243.262 416.665 269.54C350.419 316.799 273.549 316.65 234.34 312.558Z" fill="white"/>
<path d="M170.549 105.399V297.351C170.547 297.783 170.459 298.211 170.291 298.609C170.123 299.008 169.877 299.369 169.569 299.672C169.26 299.975 168.895 300.214 168.493 300.375C168.092 300.536 167.663 300.615 167.23 300.61H49.2171C48.4281 300.61 47.6711 300.296 47.1131 299.738C46.5551 299.18 46.2411 298.423 46.2411 297.634V105.146C46.2251 104.799 46.2781 104.452 46.3971 104.125C46.5151 103.799 46.6981 103.499 46.9331 103.243C47.1681 102.987 47.4511 102.78 47.7671 102.634C48.0821 102.488 48.4231 102.406 48.7711 102.393H78.3071C78.7201 102.404 79.1191 102.537 79.4561 102.776C79.7921 103.014 80.0501 103.347 80.1971 103.732L81.4321 106.708C81.5791 107.091 81.8381 107.421 82.1751 107.655C82.5121 107.888 82.9121 108.015 83.3221 108.018H133.542C133.952 108.015 134.352 107.891 134.691 107.66C135.03 107.43 135.293 107.103 135.447 106.723L136.667 103.747C136.815 103.36 137.075 103.025 137.415 102.787C137.754 102.548 138.157 102.416 138.571 102.408H167.647C168.426 102.427 169.166 102.752 169.709 103.311C170.251 103.87 170.553 104.62 170.549 105.399Z" fill="#E04048"/>
<path opacity="0.1" d="M164.106 102.393C153.109 132.852 117.338 216.508 46.256 250.628V105.146C46.242 104.798 46.297 104.451 46.417 104.124C46.538 103.797 46.721 103.498 46.958 103.242C47.194 102.986 47.478 102.78 47.795 102.634C48.111 102.488 48.453 102.406 48.801 102.393H78.293C78.708 102.399 79.112 102.53 79.451 102.769C79.791 103.008 80.0511 103.344 80.1971 103.732L81.4171 106.708C81.5661 107.094 81.8271 107.427 82.1671 107.663C82.5061 107.899 82.9091 108.028 83.3221 108.033H133.542C133.952 108.03 134.352 107.905 134.691 107.675C135.03 107.444 135.293 107.118 135.447 106.738L136.667 103.762C136.815 103.375 137.075 103.04 137.415 102.801C137.754 102.563 138.157 102.431 138.572 102.423L164.106 102.393Z" fill="white"/>
<path opacity="0.1" d="M170.546 211.776V297.291C170.546 297.725 170.46 298.154 170.292 298.554C170.125 298.954 169.88 299.317 169.571 299.622C169.262 299.927 168.896 300.167 168.494 300.329C168.092 300.49 167.661 300.571 167.228 300.565H49.2143C48.4253 300.565 47.6683 300.251 47.1103 299.693C46.5523 299.135 46.2383 298.378 46.2383 297.589V275.76C79.0933 232.608 135.518 217.281 170.546 211.776Z" fill="white"/>
<path opacity="0.6" d="M59.9609 111.396H61.4929V109.342H59.9609V111.396Z" fill="white"/>
<path opacity="0.6" d="M57.4609 111.396H58.9929V108.672H57.4609V111.396Z" fill="white"/>
<path opacity="0.6" d="M54.9609 111.396H56.4929V107.988H54.9609V111.396Z" fill="white"/>
<path opacity="0.6" d="M52.4453 111.381H53.9783V107.289H52.4453V111.381Z" fill="white"/>
<path opacity="0.6" d="M156.471 108.598H155.562V110.652H156.471V108.598Z" fill="white"/>
<path opacity="0.6" d="M157.113 111.381H164.359V107.839H157.113V111.381Z" fill="white"/>
<path d="M146.757 249.973H70.0656C69.9496 249.975 69.8346 249.953 69.7266 249.91C69.6196 249.867 69.5216 249.802 69.4396 249.72C69.3576 249.638 69.2936 249.541 69.2496 249.433C69.2066 249.326 69.1856 249.211 69.1876 249.095C69.1876 248.98 69.2096 248.867 69.2546 248.761C69.2986 248.655 69.3636 248.56 69.4456 248.479C69.5266 248.399 69.6236 248.336 69.7306 248.293C69.8366 248.251 69.9506 248.23 70.0656 248.232H146.757C146.87 248.232 146.983 248.254 147.087 248.298C147.192 248.341 147.287 248.404 147.367 248.485C147.448 248.565 147.511 248.66 147.554 248.765C147.598 248.869 147.62 248.982 147.62 249.095C147.622 249.209 147.601 249.323 147.559 249.43C147.516 249.536 147.453 249.633 147.373 249.715C147.292 249.796 147.197 249.861 147.091 249.906C146.985 249.95 146.872 249.973 146.757 249.973Z" fill="white"/>
<path d="M146.757 254.928H70.0656C69.9506 254.93 69.8366 254.909 69.7306 254.866C69.6236 254.824 69.5266 254.761 69.4456 254.68C69.3636 254.6 69.2986 254.504 69.2546 254.399C69.2096 254.293 69.1876 254.179 69.1876 254.065C69.1856 253.949 69.2066 253.834 69.2496 253.726C69.2936 253.619 69.3576 253.521 69.4396 253.44C69.5216 253.358 69.6196 253.293 69.7266 253.25C69.8346 253.206 69.9496 253.185 70.0656 253.187H146.757C146.872 253.187 146.985 253.21 147.091 253.254C147.197 253.298 147.292 253.363 147.373 253.445C147.453 253.527 147.516 253.624 147.559 253.73C147.601 253.836 147.622 253.95 147.62 254.065C147.62 254.178 147.598 254.29 147.554 254.395C147.511 254.5 147.448 254.595 147.367 254.675C147.287 254.755 147.192 254.819 147.087 254.862C146.983 254.906 146.87 254.928 146.757 254.928Z" fill="white"/>
<path d="M142.62 260.002H74.1716C73.9426 260.002 73.7226 259.911 73.5606 259.749C73.3996 259.587 73.3086 259.368 73.3086 259.139C73.3086 258.909 73.3986 258.688 73.5596 258.523C73.7216 258.359 73.9406 258.265 74.1716 258.261H142.62C142.85 258.265 143.069 258.359 143.231 258.523C143.392 258.688 143.483 258.909 143.483 259.139C143.483 259.368 143.392 259.587 143.23 259.749C143.068 259.911 142.849 260.002 142.62 260.002Z" fill="white"/>
<path d="M146.757 265.031H70.0645C69.8325 265.031 69.6085 264.939 69.4445 264.774C69.2795 264.61 69.1875 264.386 69.1875 264.153C69.1875 264.039 69.2095 263.925 69.2545 263.82C69.2985 263.714 69.3635 263.618 69.4455 263.538C69.5265 263.458 69.6235 263.394 69.7305 263.352C69.8365 263.309 69.9505 263.288 70.0645 263.29H146.757C146.87 263.29 146.983 263.313 147.087 263.356C147.192 263.399 147.287 263.463 147.367 263.543C147.447 263.623 147.51 263.718 147.553 263.823C147.597 263.928 147.619 264.04 147.619 264.153C147.619 264.384 147.529 264.605 147.367 264.769C147.206 264.933 146.987 265.027 146.757 265.031Z" fill="white"/>
<path d="M142.62 270.046H74.1717C74.0567 270.046 73.9437 270.023 73.8377 269.979C73.7317 269.934 73.6367 269.87 73.5557 269.788C73.4757 269.706 73.4127 269.609 73.3697 269.503C73.3277 269.396 73.3067 269.283 73.3087 269.168C73.3087 268.939 73.3997 268.72 73.5607 268.558C73.7227 268.396 73.9427 268.305 74.1717 268.305H142.62C142.733 268.305 142.845 268.327 142.95 268.371C143.055 268.414 143.15 268.478 143.23 268.558C143.31 268.638 143.374 268.733 143.417 268.838C143.46 268.942 143.483 269.055 143.483 269.168C143.485 269.283 143.464 269.396 143.421 269.503C143.379 269.609 143.316 269.706 143.235 269.788C143.155 269.87 143.059 269.934 142.953 269.979C142.848 270.023 142.734 270.046 142.62 270.046Z" fill="white"/>
<path d="M126.087 275.061H90.7772C90.5482 275.061 90.3292 274.97 90.1672 274.808C90.0052 274.646 89.9142 274.426 89.9142 274.198C89.9122 274.083 89.9332 273.969 89.9762 273.863C90.0182 273.756 90.0812 273.659 90.1622 273.578C90.2422 273.496 90.3382 273.431 90.4432 273.387C90.5492 273.342 90.6632 273.32 90.7772 273.32H126.147C126.38 273.32 126.603 273.412 126.768 273.577C126.932 273.741 127.025 273.965 127.025 274.198C127.023 274.317 126.997 274.434 126.948 274.543C126.9 274.652 126.829 274.75 126.742 274.831C126.654 274.911 126.551 274.973 126.438 275.013C126.326 275.052 126.206 275.069 126.087 275.061Z" fill="white"/>
<path d="M137.263 143.938H79.5436C79.0496 143.938 78.5766 143.742 78.2276 143.393C77.8796 143.044 77.6836 142.571 77.6836 142.078C77.6876 141.587 77.8846 141.118 78.2336 140.772C78.5816 140.427 79.0526 140.233 79.5436 140.233H137.263C137.754 140.233 138.225 140.427 138.573 140.772C138.922 141.118 139.119 141.587 139.123 142.078C139.123 142.571 138.927 143.044 138.578 143.393C138.23 143.742 137.756 143.938 137.263 143.938Z" fill="white"/>
<path d="M149.674 151.542H67.1496C66.6586 151.542 66.1876 151.348 65.8396 151.002C65.4906 150.657 65.2936 150.187 65.2896 149.697C65.2836 149.449 65.3266 149.202 65.4176 148.971C65.5086 148.74 65.6446 148.53 65.8176 148.352C65.9916 148.175 66.1986 148.034 66.4266 147.938C66.6556 147.841 66.9016 147.792 67.1496 147.792H149.674C150.165 147.796 150.634 147.994 150.98 148.342C151.325 148.69 151.519 149.161 151.519 149.652C151.523 149.897 151.478 150.141 151.388 150.369C151.297 150.598 151.162 150.806 150.99 150.981C150.819 151.157 150.614 151.297 150.388 151.393C150.162 151.489 149.92 151.54 149.674 151.542Z" fill="white"/>
<path opacity="0.4" d="M125.763 280.432H91.0628C89.8128 280.432 88.8008 281.445 88.8008 282.694V287.709C88.8008 288.958 89.8128 289.97 91.0628 289.97H125.763C127.012 289.97 128.025 288.958 128.025 287.709V282.694C128.025 281.445 127.012 280.432 125.763 280.432Z" fill="black"/>
<path d="M120.762 283.185V287.232L125.151 285.209L120.762 283.185Z" fill="white"/>
<path opacity="0.2" d="M85.1953 165.484C101.742 165.841 97.2333 199.024 76.5653 196.985C55.8963 194.947 67.4433 165.097 85.1953 165.484Z" fill="black"/>
<path opacity="0.2" d="M103.662 184.724C103.9 184.337 104.168 183.95 104.451 183.564C110.299 175.722 126.905 172.582 135.535 176.674C149.106 183.102 154.612 199.545 149.24 214.931C146.713 221.991 142.027 228.077 135.848 232.325C125.45 239.87 112.706 243.467 99.8978 242.473C90.9698 241.64 83.4108 239.869 77.7268 235.718C75.4138 234.092 73.6328 231.82 72.6078 229.186C71.3718 225.471 71.6278 221.421 73.3218 217.892C75.0568 214.775 77.7268 212.281 80.9558 210.764C85.4038 208.623 89.5388 205.885 93.2458 202.625C96.6388 199.217 99.2708 195.13 100.969 190.632C101.696 188.589 102.597 186.612 103.662 184.724Z" fill="black"/>
<path d="M107.382 220.228C106.608 223.204 101.981 224.454 96.9659 223.204C91.9519 221.954 88.6629 218.472 89.4369 215.555C90.2109 212.639 94.8379 211.329 99.7639 212.579C104.689 213.829 108.156 217.311 107.382 220.228Z" fill="#263238"/>
<path d="M113.814 211.583C114.406 211.261 114.856 210.731 115.078 210.095C115.837 207.238 110.361 203.294 102.847 201.3C95.3329 199.307 88.6369 200.021 87.8779 202.878C87.7319 203.552 87.8539 204.257 88.2199 204.842C87.9999 205.085 87.8369 205.375 87.7439 205.69C87.6039 206.357 87.7319 207.052 88.1009 207.624C87.8699 207.874 87.7019 208.175 87.6099 208.502C87.4829 209.168 87.6209 209.857 87.9969 210.422C87.7539 210.665 87.5799 210.968 87.4909 211.3C87.4209 211.633 87.4229 211.978 87.4939 212.311C87.5659 212.644 87.7069 212.959 87.9069 213.234C87.6459 213.47 87.4559 213.774 87.3569 214.112C86.7169 216.493 91.2699 219.767 97.5199 221.418C103.77 223.07 109.335 222.49 109.96 220.109C110.056 219.768 110.056 219.408 109.96 219.067C110.27 218.925 110.548 218.719 110.773 218.463C110.999 218.207 111.168 217.905 111.269 217.579C111.358 217.243 111.358 216.889 111.269 216.552C111.574 216.405 111.847 216.197 112.069 215.941C112.292 215.686 112.46 215.387 112.564 215.064C112.653 214.738 112.653 214.394 112.564 214.067C113.169 213.759 113.629 213.224 113.843 212.579C113.913 212.249 113.902 211.908 113.814 211.583Z" fill="#263238"/>
<path opacity="0.3" d="M113.814 211.583C114.406 211.261 114.856 210.731 115.078 210.095C115.837 207.238 110.361 203.294 102.847 201.3C95.3329 199.307 88.6369 200.021 87.8779 202.878C87.7319 203.552 87.8539 204.257 88.2199 204.842C87.9999 205.085 87.8369 205.375 87.7439 205.69C87.6039 206.357 87.7319 207.052 88.1009 207.624C87.8699 207.874 87.7019 208.175 87.6099 208.502C87.4829 209.168 87.6209 209.857 87.9969 210.422C87.7539 210.665 87.5799 210.968 87.4909 211.3C87.4209 211.633 87.4229 211.978 87.4939 212.311C87.5659 212.644 87.7069 212.959 87.9069 213.234C87.6459 213.47 87.4559 213.774 87.3569 214.112C86.7169 216.493 91.2699 219.767 97.5199 221.418C103.77 223.07 109.335 222.49 109.96 220.109C110.056 219.768 110.056 219.408 109.96 219.067C110.27 218.925 110.548 218.719 110.773 218.463C110.999 218.207 111.168 217.905 111.269 217.579C111.358 217.243 111.358 216.889 111.269 216.552C111.574 216.405 111.847 216.197 112.069 215.941C112.292 215.686 112.46 215.387 112.564 215.064C112.653 214.738 112.653 214.394 112.564 214.067C113.169 213.759 113.629 213.224 113.843 212.579C113.913 212.249 113.902 211.908 113.814 211.583Z" fill="white"/>
<path d="M131.817 189.143C132.892 185.086 132.924 180.822 131.91 176.749C130.896 172.675 128.868 168.925 126.015 165.845C123.162 162.766 119.577 160.458 115.592 159.136C111.608 157.815 107.354 157.522 103.227 158.285C99.0992 159.049 95.2312 160.843 91.9832 163.503C88.7352 166.162 86.2122 169.599 84.6492 173.495C83.0862 177.391 82.5342 181.619 83.0432 185.786C83.5532 189.953 85.1082 193.923 87.5642 197.327C87.9592 197.869 88.2172 198.5 88.3132 199.164C88.4092 199.828 88.3402 200.505 88.1142 201.137C88.1062 201.201 88.1062 201.266 88.1142 201.33C87.3402 204.306 92.8912 208.22 100.524 210.258C108.157 212.297 114.958 211.568 115.731 208.666V208.473C115.847 207.806 116.127 207.178 116.545 206.646C116.963 206.113 117.507 205.693 118.127 205.422C121.471 203.89 124.433 201.635 126.8 198.82C129.168 196.006 130.881 192.7 131.817 189.143Z" fill="#E04048"/>
<path opacity="0.7" d="M131.817 189.143C132.892 185.086 132.924 180.822 131.91 176.749C130.896 172.675 128.868 168.925 126.015 165.845C123.162 162.766 119.577 160.458 115.592 159.136C111.608 157.815 107.354 157.522 103.227 158.285C99.0992 159.049 95.2312 160.843 91.9832 163.503C88.7352 166.162 86.2122 169.599 84.6492 173.495C83.0862 177.391 82.5342 181.619 83.0432 185.786C83.5532 189.953 85.1082 193.923 87.5642 197.327C87.9592 197.869 88.2172 198.5 88.3132 199.164C88.4092 199.828 88.3402 200.505 88.1142 201.137C88.1062 201.201 88.1062 201.266 88.1142 201.33C87.3402 204.306 92.8912 208.22 100.524 210.258C108.157 212.297 114.958 211.568 115.731 208.666V208.473C115.847 207.806 116.127 207.178 116.545 206.646C116.963 206.113 117.507 205.693 118.127 205.422C121.471 203.89 124.433 201.635 126.8 198.82C129.168 196.006 130.881 192.7 131.817 189.143Z" fill="white"/>
<path d="M105.775 207.431H105.656C105.582 207.398 105.524 207.338 105.493 207.263C105.463 207.188 105.462 207.104 105.492 207.029C105.686 206.583 109.956 196.494 116.578 193.875L113.007 192.923C112.951 192.909 112.899 192.88 112.86 192.837C112.82 192.795 112.794 192.742 112.784 192.685L112.337 189.545L108.126 194.5C108.088 194.544 108.039 194.576 107.983 194.591C107.928 194.607 107.869 194.607 107.814 194.59C107.759 194.575 107.71 194.545 107.673 194.502C107.636 194.46 107.612 194.407 107.605 194.352L106.37 187.894L102.323 192.179C102.288 192.217 102.243 192.246 102.194 192.261C102.144 192.277 102.091 192.279 102.04 192.268C101.988 192.252 101.94 192.223 101.901 192.184C101.863 192.145 101.834 192.098 101.817 192.045L100.433 186.346L98.4686 188.876C98.4346 188.925 98.3866 188.962 98.3306 188.983C98.2746 189.004 98.2146 189.008 98.1566 188.995L94.3176 187.968C95.4626 190.111 98.8856 197.372 96.9216 204.812C96.9106 204.85 96.8926 204.886 96.8676 204.917C96.8436 204.948 96.8126 204.974 96.7786 204.993C96.7436 205.013 96.7056 205.025 96.6666 205.03C96.6276 205.034 96.5876 205.031 96.5496 205.021C96.5106 205.01 96.4756 204.992 96.4446 204.967C96.4136 204.943 96.3876 204.912 96.3676 204.878C96.3486 204.843 96.3366 204.805 96.3316 204.766C96.3266 204.726 96.3306 204.687 96.3406 204.649C98.6176 196.093 93.4986 187.745 93.4396 187.656C93.4076 187.607 93.3906 187.55 93.3906 187.492C93.3906 187.434 93.4076 187.377 93.4396 187.328C93.4756 187.278 93.5266 187.24 93.5846 187.219C93.6436 187.198 93.7066 187.194 93.7666 187.209L98.0966 188.355L100.329 185.498C100.365 185.455 100.411 185.422 100.463 185.401C100.515 185.381 100.571 185.373 100.627 185.379C100.682 185.392 100.734 185.42 100.776 185.459C100.817 185.498 100.848 185.547 100.865 185.602L102.264 191.376L106.326 187.06C106.361 187.018 106.408 186.987 106.461 186.971C106.514 186.955 106.57 186.955 106.623 186.971C106.68 186.985 106.731 187.014 106.771 187.057C106.81 187.099 106.837 187.152 106.847 187.209L108.052 193.637L112.293 188.653C112.332 188.61 112.381 188.58 112.436 188.564C112.491 188.548 112.55 188.548 112.605 188.563C112.661 188.576 112.711 188.605 112.748 188.648C112.786 188.691 112.808 188.745 112.813 188.801L113.334 192.402L117.679 193.548C117.743 193.562 117.801 193.598 117.842 193.649C117.882 193.701 117.904 193.765 117.902 193.831C117.902 193.898 117.88 193.963 117.84 194.016C117.8 194.07 117.743 194.109 117.679 194.128C110.864 196.003 106.073 207.163 106.028 207.267C106.007 207.317 105.972 207.359 105.927 207.388C105.882 207.417 105.829 207.432 105.775 207.431Z" fill="#263238"/>
<path opacity="0.4" d="M119.049 167.404C120.15 172.775 114.793 178.385 107.145 179.948C99.4958 181.51 92.3538 178.46 91.2528 173.058C90.1518 167.657 95.5088 162.092 103.157 160.529C110.805 158.967 118.022 162.047 119.049 167.404Z" fill="white"/>
<path opacity="0.4" d="M113.097 184.531C113.529 186.688 111.386 188.995 108.306 189.56C105.226 190.126 102.354 188.95 101.922 186.792C101.491 184.635 103.634 182.328 106.714 181.763C109.794 181.198 112.636 182.373 113.097 184.531Z" fill="white"/>
<path opacity="0.4" d="M170.549 105.399V131.722H46.2567V105.146C46.2407 104.799 46.2937 104.452 46.4117 104.125C46.5307 103.799 46.7127 103.499 46.9477 103.243C47.1827 102.987 47.4667 102.78 47.7817 102.634C48.0977 102.488 48.4387 102.406 48.7857 102.393H78.3077C78.7197 102.404 79.1197 102.537 79.4557 102.776C79.7927 103.014 80.0507 103.347 80.1977 103.732L81.4327 106.708C81.5797 107.091 81.8387 107.421 82.1757 107.655C82.5127 107.888 82.9127 108.015 83.3227 108.018H133.543C133.953 108.015 134.353 107.891 134.692 107.66C135.031 107.43 135.294 107.103 135.447 106.723L136.668 103.747C136.816 103.36 137.076 103.025 137.415 102.787C137.755 102.548 138.157 102.416 138.572 102.408H167.648C168.427 102.427 169.167 102.752 169.709 103.311C170.252 103.87 170.553 104.62 170.549 105.399Z" fill="black"/>
<path d="M78.9633 122.793H51.8663C51.6333 122.793 51.4103 122.701 51.2453 122.536C51.0813 122.372 50.9883 122.148 50.9883 121.916C50.9923 121.685 51.0863 121.466 51.2513 121.304C51.4153 121.143 51.6363 121.052 51.8663 121.052H78.9633C79.1933 121.052 79.4143 121.143 79.5783 121.304C79.7423 121.466 79.8373 121.685 79.8413 121.916C79.8413 122.148 79.7483 122.372 79.5833 122.536C79.4193 122.701 79.1963 122.793 78.9633 122.793Z" fill="white"/>
<path d="M164.281 119.52H156.246C156.08 119.52 155.921 119.454 155.804 119.337C155.687 119.22 155.621 119.061 155.621 118.895C155.621 118.729 155.687 118.57 155.804 118.453C155.921 118.336 156.08 118.27 156.246 118.27H164.341C164.424 118.268 164.507 118.283 164.584 118.313C164.662 118.344 164.733 118.389 164.792 118.448C164.852 118.506 164.899 118.575 164.932 118.652C164.964 118.729 164.981 118.812 164.981 118.895C164.981 118.984 164.963 119.071 164.927 119.153C164.891 119.234 164.838 119.306 164.772 119.365C164.706 119.424 164.628 119.469 164.543 119.495C164.459 119.522 164.369 119.53 164.281 119.52Z" fill="white"/>
<path d="M164.281 122.496H156.246C156.08 122.496 155.921 122.43 155.804 122.313C155.687 122.196 155.621 122.037 155.621 121.871C155.621 121.705 155.687 121.546 155.804 121.429C155.921 121.312 156.08 121.246 156.246 121.246H164.341C164.424 121.244 164.507 121.259 164.584 121.289C164.662 121.32 164.733 121.365 164.792 121.424C164.852 121.482 164.899 121.552 164.932 121.628C164.964 121.705 164.981 121.788 164.981 121.871C164.981 121.96 164.963 122.048 164.927 122.129C164.891 122.21 164.838 122.282 164.772 122.341C164.706 122.401 164.628 122.445 164.543 122.472C164.459 122.498 164.369 122.507 164.281 122.496Z" fill="white"/>
<path d="M164.281 125.606H156.246C156.163 125.606 156.08 125.589 156.004 125.557C155.927 125.524 155.857 125.477 155.799 125.418C155.741 125.358 155.695 125.287 155.664 125.21C155.634 125.132 155.619 125.049 155.621 124.966C155.621 124.8 155.687 124.641 155.804 124.524C155.921 124.407 156.08 124.341 156.246 124.341H164.341C164.424 124.339 164.507 124.354 164.585 124.384C164.662 124.415 164.733 124.46 164.792 124.519C164.852 124.577 164.899 124.646 164.932 124.723C164.964 124.8 164.981 124.883 164.981 124.966C164.981 125.055 164.963 125.144 164.927 125.225C164.891 125.307 164.839 125.381 164.773 125.441C164.707 125.501 164.629 125.547 164.545 125.575C164.46 125.604 164.37 125.614 164.281 125.606Z" fill="white"/>
<path d="M297.176 368.79H289.527V380.694H297.176V368.79Z" fill="#E04048"/>
<path d="M288.948 368.79H143.332C135.651 368.782 128.286 365.727 122.855 360.295C117.423 354.864 114.369 347.5 114.361 339.818V305.267H117.56L108.483 293.021L99.4062 305.267H102.531V339.818C102.543 350.656 106.853 361.045 114.516 368.709C122.179 376.372 132.569 380.682 143.406 380.694H289.022L288.948 368.79Z" fill="#E04048"/>
<path d="M303.651 368.79H299.336V380.694H303.651V368.79Z" fill="#E04048"/>
<path d="M309.184 368.79H307.785V380.694H309.184V368.79Z" fill="#E04048"/>
<g opacity="0.7">
<path d="M297.176 368.79H289.527V380.694H297.176V368.79Z" fill="white"/>
<path d="M288.948 368.79H143.332C135.651 368.782 128.286 365.727 122.855 360.295C117.423 354.864 114.369 347.5 114.361 339.818V305.267H117.56L108.483 293.021L99.4062 305.267H102.531V339.818C102.543 350.656 106.853 361.045 114.516 368.709C122.179 376.372 132.569 380.682 143.406 380.694H289.022L288.948 368.79Z" fill="white"/>
<path d="M303.651 368.79H299.336V380.694H303.651V368.79Z" fill="white"/>
<path d="M309.184 368.79H307.785V380.694H309.184V368.79Z" fill="white"/>
</g>
<path d="M234.695 198.577L236.436 203.741L238.296 208.993C239.561 212.505 240.855 215.987 242.18 219.409L244.233 224.603L245.29 227.192C245.587 227.874 245.84 228.575 246.049 229.29C246.227 229.855 246.45 230.302 246.54 230.614C246.585 230.717 246.608 230.829 246.608 230.941C246.608 231.054 246.585 231.166 246.54 231.269C246.465 231.433 246.54 231.73 246.926 231.849C247.162 231.921 247.409 231.951 247.656 231.938H248.087C248.206 231.938 248.429 231.938 248.429 231.938C248.731 231.609 249.097 231.345 249.505 231.163C249.913 230.98 250.354 230.883 250.8 230.878C251.247 230.872 251.69 230.958 252.102 231.13C252.515 231.302 252.887 231.556 253.197 231.878C253.508 232.199 253.749 232.58 253.906 232.999C254.063 233.417 254.133 233.862 254.112 234.309C254.09 234.755 253.978 235.192 253.781 235.593C253.584 235.994 253.307 236.35 252.968 236.641C252.625 237.087 252.462 237.295 252.209 237.578C251.971 237.846 251.718 238.099 251.45 238.337C250.881 238.849 250.251 239.288 249.575 239.646C247.961 240.486 246.125 240.803 244.322 240.554C242.516 240.289 240.809 239.561 239.367 238.441C238.194 237.545 237.152 236.488 236.272 235.301C235.568 234.368 234.95 233.372 234.427 232.325L233.058 229.721C232.165 227.965 231.347 226.195 230.499 224.409C228.847 220.853 227.3 217.252 225.886 213.591C225.172 211.761 224.517 209.916 223.877 208.056C223.237 206.196 222.613 204.366 222.047 202.327C221.626 200.685 221.852 198.944 222.678 197.464C223.505 195.984 224.869 194.879 226.487 194.376C228.106 193.873 229.856 194.012 231.376 194.764C232.895 195.515 234.068 196.822 234.65 198.414L234.695 198.577Z" fill="#CE7A63"/>
<path d="M224.814 189.56C233.742 190.245 238.072 196.717 242.298 211.508C239.114 216.508 226.332 220.243 226.332 220.243C226.332 220.243 217.969 198.384 224.814 189.56Z" fill="#E04048"/>
<path opacity="0.7" d="M224.814 189.56C233.742 190.245 238.072 196.717 242.298 211.508C239.114 216.508 226.332 220.243 226.332 220.243C226.332 220.243 217.969 198.384 224.814 189.56Z" fill="white"/>
<path d="M191.707 464.483L197.897 468.129C200.795 464.22 203.936 460.498 207.301 456.983C209.087 455.079 210.977 452.981 212.941 450.719C216.854 446.255 221.095 441.092 225.544 435.571L229.532 430.586C245.022 411.094 261.777 388.178 268.041 372.688C269.991 367.867 271.017 363.76 270.511 360.71C269.247 351.469 265.646 337.527 261.584 324.075C255.334 303.511 248.296 284.018 248.296 284.018L231.02 313.302C231.02 313.302 236.317 325.95 241.153 339.417C245.9 352.645 250.2 366.677 248.593 370.322C248.444 370.679 248.251 371.111 248.028 371.557C245.156 377.509 237.21 390.976 228.193 405.856L225.44 410.32C220.589 418.266 215.56 426.435 210.887 433.934C209.072 436.91 207.301 439.723 205.62 442.416C197.644 455.228 191.707 464.483 191.707 464.483Z" fill="#E4897B"/>
<path opacity="0.2" d="M229.889 430.512C221.705 440.779 213.848 450.109 208.015 456.909C207.182 452.728 206.334 447.773 205.664 442.386C212.42 431.539 220.678 418.161 228.192 405.781C228.035 414.058 228.603 422.334 229.889 430.512Z" fill="black"/>
<path d="M199.028 345.83C201.171 360.427 204.221 373.655 206.215 381.542C207.405 386.259 208.209 389.056 208.209 389.056C208.231 404.063 209.111 419.057 210.843 433.964C211.497 439.827 212.212 445.466 212.941 450.704C215.634 470.048 218.461 484.035 218.461 484.035L225.827 483.083L225.544 435.556L225.395 410.349L225.187 376.125L225.113 370.173L224.696 344.044L224.16 305.594L198.537 294.062C195.159 308.674 196.424 328.257 199.028 345.83Z" fill="#E4897B"/>
<path opacity="0.2" d="M267.61 346.068C261.063 350.532 252.224 353.314 246.183 354.773C244.784 349.996 242.969 344.625 241.094 339.402C236.258 326.01 230.961 313.287 230.961 313.287L248.237 284.003C248.237 284.003 255.275 303.496 261.524 324.06C263.816 331.545 265.944 339.178 267.61 346.068Z" fill="black"/>
<path opacity="0.2" d="M224.964 360.174C217.004 360 209.058 359.424 201.156 358.448C200.412 354.445 199.669 350.205 199.044 345.83C196.454 328.257 195.175 308.63 198.612 294.062L224.235 305.594L224.771 344.044L224.964 360.174Z" fill="black"/>
<path d="M268.86 343.524C252.819 352.943 205.664 356.916 205.664 356.916L197.912 335.28L198.745 356.722H196.469C196.469 356.722 179.238 298.422 202.123 260.21L243.132 257.041L247.596 278.156C247.596 278.156 259.218 308.496 268.86 343.524Z" fill="#263238"/>
<path d="M238.787 493.484C237.578 492.754 236.247 492.25 234.858 491.996C234.858 491.996 230.394 488.633 226.734 477.042L221.347 476.432C220.435 476.342 219.517 476.535 218.718 476.985C217.92 477.435 217.279 478.12 216.883 478.946C216.766 479.176 216.686 479.422 216.645 479.676C216.556 480.983 216.556 482.296 216.645 483.604C216.97 487.981 217.561 492.334 218.416 496.639L219.353 496.505L218.565 488.276C218.312 485.479 220.901 488.425 221.927 491.327C222.954 494.228 224.695 497.279 230.855 496.52C237.923 495.672 240.825 494.972 238.787 493.484Z" fill="#2E353A"/>
<path d="M225.245 472.95C225.245 472.95 227.164 478.188 229.709 483.961C230.886 486.949 232.629 489.683 234.842 492.011C234.842 492.011 230.378 493.499 227.983 490.672C225.587 487.845 221.48 477.801 216.867 478.961C217.11 478.138 217.455 477.348 217.894 476.61C218.593 475.464 225.245 472.95 225.245 472.95Z" fill="#E4897B"/>
<path d="M193.643 488.931C193.39 487.547 192.885 486.22 192.155 485.017C192.155 485.017 191.693 479.378 197.988 469.021L194.878 464.557C194.34 463.812 193.586 463.25 192.718 462.95C191.85 462.649 190.91 462.623 190.027 462.876C189.78 462.946 189.545 463.052 189.327 463.188C188.277 463.987 187.283 464.857 186.351 465.792C183.288 468.931 180.421 472.256 177.766 475.747L178.48 476.372L184.119 470.331C186.054 468.277 185.607 472.176 184.119 474.869C182.631 477.563 181.545 480.821 186.128 484.958C191.426 489.72 193.881 491.52 193.643 488.931Z" fill="#2E353A"/>
<path d="M200.041 465.182C200.041 465.182 197.393 470.093 194.774 475.836C193.316 478.701 192.417 481.817 192.125 485.017C192.125 485.017 188.093 482.637 188.599 478.991C189.105 475.345 193.926 465.599 189.997 462.891C190.778 462.539 191.597 462.279 192.438 462.117C193.747 461.864 200.041 465.182 200.041 465.182Z" fill="#E4897B"/>
<path d="M201.808 255.999L201.57 262.189L243.949 260.538L244.231 253.217L201.808 255.999Z" fill="#263238"/>
<path opacity="0.2" d="M201.808 255.999L201.57 262.189L243.949 260.538L244.231 253.217L201.808 255.999Z" fill="white"/>
<path d="M216.067 253.941L213.969 253.969L214.111 264.667L216.209 264.639L216.067 253.941Z" fill="#263238"/>
<path d="M234.394 253.934L225.121 254.414L225.484 261.442L234.757 260.963L234.394 253.934Z" fill="white"/>
<path d="M241.989 252.095L239.891 252.123L240.033 262.82L242.13 262.793L241.989 252.095Z" fill="#263238"/>
<path d="M238.415 204.455C239.749 210.234 240.699 216.094 241.257 221.999C242.284 230.599 244.233 240.39 245.245 254.601L200.605 257.026C199.549 244.765 196.275 234.275 184.237 208.22C183.556 206.867 183.186 205.379 183.155 203.864C183.123 202.35 183.431 200.847 184.056 199.467C184.681 198.087 185.607 196.865 186.767 195.89C187.926 194.914 189.288 194.211 190.755 193.831C192.421 193.384 194.207 192.953 196.052 192.566C202.502 191.063 209.051 190.023 215.649 189.456C217.807 189.322 220.113 189.233 222.196 189.188C229.949 189.054 236.972 196.896 238.415 204.455Z" fill="#E04048"/>
<path opacity="0.7" d="M184.297 208.22C186.097 212.133 187.719 215.66 189.148 218.963C192.421 226.403 194.772 232.355 196.483 237.474C198.697 243.788 200.102 250.358 200.665 257.026L245.305 254.601C244.323 240.39 242.329 230.584 241.317 221.999C240.774 216.092 239.824 210.231 238.475 204.455C236.987 196.911 230.023 189.054 222.256 189.203C220.113 189.203 217.866 189.337 215.708 189.471C209.131 190.036 202.601 191.07 196.171 192.566C194.326 192.953 192.54 193.384 190.874 193.816C189.402 194.191 188.032 194.891 186.866 195.865C185.701 196.839 184.768 198.061 184.137 199.443C183.506 200.825 183.193 202.331 183.22 203.85C183.248 205.368 183.616 206.862 184.297 208.22Z" fill="white"/>
<path opacity="0.2" d="M189.145 218.963C192.419 226.403 194.77 232.355 196.481 237.474C210.022 227.846 200.097 214.93 200.097 214.93C196.088 214.954 192.213 216.38 189.145 218.963Z" fill="black"/>
<path d="M196.423 212.937C197.107 215.347 197.911 218.13 198.818 220.704C199.726 223.278 200.649 225.912 201.661 228.456C202.672 231.001 203.803 233.456 204.979 235.896C206.168 238.243 207.484 240.523 208.922 242.726L208.059 241.804C207.81 241.564 207.481 241.426 207.136 241.417C207.337 241.466 207.546 241.466 207.746 241.417C208.829 241.314 209.894 241.074 210.916 240.703C213.544 239.759 216.096 238.615 218.549 237.28C221.138 235.926 223.728 234.423 226.302 232.816C228.876 231.209 231.48 229.647 233.995 228.055H234.069C234.747 227.63 235.556 227.468 236.346 227.597C237.135 227.726 237.85 228.138 238.357 228.757C238.864 229.375 239.128 230.157 239.101 230.956C239.073 231.756 238.755 232.517 238.206 233.099C235.989 235.45 233.742 237.563 231.316 239.691C228.891 241.819 226.421 243.798 223.787 245.643C221.049 247.643 218.136 249.391 215.082 250.866C213.271 251.721 211.362 252.351 209.398 252.741C208.08 253.002 206.728 253.047 205.395 252.875C203.517 252.644 201.742 251.885 200.277 250.687C200.023 250.481 199.793 250.246 199.592 249.988L199.414 249.765C197.403 247.254 195.573 244.604 193.938 241.834C192.355 239.136 190.919 236.354 189.637 233.501C188.358 230.674 187.227 227.802 186.215 224.885C185.724 223.397 185.248 221.909 184.816 220.496C184.385 219.082 183.983 217.52 183.581 215.883C183.364 215.045 183.315 214.172 183.435 213.314C183.556 212.457 183.844 211.631 184.283 210.885C184.722 210.139 185.305 209.487 185.996 208.966C186.687 208.444 187.475 208.065 188.313 207.848C189.151 207.631 190.024 207.581 190.882 207.702C191.739 207.822 192.565 208.11 193.311 208.549C194.057 208.989 194.709 209.571 195.23 210.262C195.752 210.954 196.131 211.741 196.348 212.579L196.423 212.937Z" fill="#CE7A63"/>
<path d="M258.472 229.424L258.025 232.221C257.944 232.741 257.739 233.233 257.428 233.657C257.118 234.082 256.71 234.426 256.24 234.661L251.776 236.893C250.898 237.335 249.927 237.557 248.945 237.541C247.963 237.526 246.999 237.273 246.136 236.804L245.035 236.224C245.467 231.522 249.38 226.745 249.38 226.745L250.347 225.257C250.538 224.947 250.787 224.678 251.082 224.465C251.376 224.251 251.71 224.098 252.064 224.014C252.418 223.93 252.785 223.916 253.144 223.973C253.503 224.031 253.847 224.159 254.157 224.349L257.133 226.239C257.641 226.582 258.039 227.066 258.277 227.632C258.515 228.197 258.582 228.82 258.472 229.424Z" fill="#CE7A63"/>
<path d="M240.751 236.804H251.004C251.504 236.785 251.984 236.604 252.37 236.287C252.757 235.97 253.03 235.535 253.146 235.048L257.893 212.832C257.953 212.623 257.961 212.403 257.919 212.19C257.876 211.977 257.783 211.777 257.648 211.607C257.513 211.437 257.339 211.301 257.141 211.212C256.943 211.122 256.726 211.081 256.509 211.091H246.257C245.761 211.11 245.285 211.29 244.901 211.604C244.517 211.919 244.246 212.35 244.129 212.832L239.368 235.048C239.309 235.258 239.301 235.479 239.343 235.692C239.386 235.906 239.479 236.107 239.613 236.278C239.748 236.449 239.922 236.586 240.119 236.677C240.317 236.769 240.534 236.812 240.751 236.804Z" fill="#263238"/>
<path d="M201.187 187.536C200.901 188.865 200.282 190.099 199.387 191.123C199.387 191.123 205.339 190.126 218.329 197.819C221.945 192.462 219.162 190.81 219.162 190.81C213.21 189.53 211.975 185.796 212.124 181.793C212.159 180.86 212.254 179.931 212.407 179.01L203.33 171.957L199.402 168.847C199.684 169.814 199.967 170.916 200.25 172.076C201.336 176.957 202.259 183.192 201.187 187.536Z" fill="#CE7A63"/>
<path d="M227.673 151.274C227.673 151.274 236.407 142.152 245.201 146.096C253.995 150.039 244.74 164.205 241.303 171.868C237.865 179.531 245.157 182.105 245.201 186.748C245.246 191.39 239.16 192.7 239.16 192.7C239.16 192.7 244.234 190.245 242.255 187.507C240.276 184.769 230.931 185.781 233.982 173.698C237.032 161.616 234.354 156.913 229.771 159.86C225.188 162.806 227.673 151.274 227.673 151.274Z" fill="#263238"/>
<path d="M215.602 196.286C211.406 196.941 210.186 203.339 210.186 203.339C210.186 203.339 199.949 196.33 196.66 191.346C197.92 190.604 199.142 189.8 200.321 188.935C200.321 188.935 213.103 193.92 215.602 196.286Z" fill="#E04048"/>
<path d="M219.607 195.542C219.607 195.542 223.268 196.464 224.666 201.494C225.47 192.209 221.11 190.691 221.11 190.691C219.945 190.062 218.588 189.887 217.301 190.2C218.25 190.679 219.001 191.476 219.423 192.453C219.844 193.429 219.91 194.522 219.607 195.542Z" fill="#E04048"/>
<path opacity="0.5" d="M215.602 196.286C211.406 196.941 210.186 203.339 210.186 203.339C210.186 203.339 199.949 196.33 196.66 191.346C197.92 190.604 199.142 189.8 200.321 188.935C200.321 188.935 213.103 193.92 215.602 196.286Z" fill="white"/>
<path opacity="0.5" d="M219.607 195.542C219.607 195.542 223.268 196.464 224.666 201.494C225.47 192.209 221.11 190.691 221.11 190.691C219.945 190.062 218.588 189.887 217.301 190.2C218.25 190.679 219.001 191.476 219.423 192.453C219.844 193.429 219.91 194.522 219.607 195.542Z" fill="white"/>
<path d="M187.495 195.408C180.159 200.586 179.802 208.354 183.775 223.219C189.072 225.882 201.958 222.504 201.958 222.504C201.958 222.504 197.911 199.396 187.495 195.408Z" fill="#E04048"/>
<path opacity="0.7" d="M187.495 195.408C180.159 200.586 179.802 208.354 183.775 223.219C189.072 225.882 201.958 222.504 201.958 222.504C201.958 222.504 197.911 199.396 187.495 195.408Z" fill="white"/>
<path opacity="0.2" d="M201.188 187.536C205.28 186.632 209.056 184.648 212.124 181.793C212.16 180.86 212.254 179.931 212.407 179.01L203.33 171.957C202.278 171.943 201.225 171.982 200.176 172.076C201.336 176.957 202.259 183.191 201.188 187.536Z" fill="black"/>
<path d="M220.229 141.721C220.229 141.721 217.03 135.635 204.605 138.894C192.18 142.152 186.109 159.264 194.412 165.469C202.715 171.674 209.292 170.097 209.292 170.097L215.586 177.388C215.586 177.388 221.538 180.171 228.234 170.767C234.93 161.363 234.841 141.617 220.229 141.721Z" fill="#263238"/>
<path d="M223.043 161.973C219.68 171.868 218.475 176.124 211.987 180.186C202.211 186.287 190.768 180.707 191.08 170.172C191.363 160.693 196.794 146.096 207.761 144.206C210.103 143.719 212.532 143.869 214.797 144.639C217.062 145.409 219.079 146.771 220.639 148.585C222.198 150.398 223.244 152.596 223.667 154.951C224.09 157.305 223.874 159.73 223.043 161.973Z" fill="#CE7A63"/>
<path d="M209.816 161.824C209.578 162.672 208.938 163.312 208.328 163.148C207.718 162.984 207.539 162.24 207.777 161.392C208.016 160.544 208.67 159.904 209.265 160.083C209.861 160.261 210.054 160.99 209.816 161.824Z" fill="#263238"/>
<path d="M199.25 159.19C199.012 160.038 198.372 160.678 197.762 160.499C197.152 160.321 196.973 159.607 197.211 158.758C197.449 157.91 198.104 157.27 198.699 157.449C199.294 157.628 199.503 158.357 199.25 159.19Z" fill="#263238"/>
<path d="M198.936 157.553L197.105 156.527C197.105 156.527 197.671 158.342 198.936 157.553Z" fill="#263238"/>
<path d="M201.96 161.749C200.657 163.519 199.132 165.114 197.422 166.496C197.77 166.895 198.204 167.211 198.691 167.419C199.177 167.628 199.705 167.724 200.234 167.701L201.96 161.749Z" fill="#BA4D3C"/>
<path d="M204.117 171.853C203.616 171.846 203.117 171.786 202.629 171.674C202.597 171.667 202.567 171.654 202.541 171.635C202.514 171.616 202.492 171.592 202.475 171.564C202.459 171.536 202.448 171.505 202.443 171.473C202.439 171.441 202.442 171.408 202.45 171.377C202.471 171.313 202.514 171.258 202.571 171.222C202.628 171.187 202.696 171.173 202.763 171.183C203.835 171.416 204.947 171.403 206.014 171.145C207.08 170.887 208.075 170.392 208.923 169.695C208.947 169.674 208.974 169.657 209.004 169.646C209.034 169.635 209.066 169.63 209.097 169.632C209.129 169.633 209.16 169.641 209.189 169.654C209.218 169.668 209.244 169.687 209.265 169.71C209.287 169.734 209.304 169.761 209.315 169.791C209.325 169.821 209.33 169.853 209.329 169.884C209.328 169.916 209.32 169.947 209.306 169.976C209.293 170.005 209.274 170.031 209.251 170.052C207.819 171.263 205.991 171.904 204.117 171.853Z" fill="#263238"/>
<path d="M212.907 156.884C212.841 156.876 212.776 156.853 212.72 156.817C212.663 156.781 212.615 156.732 212.58 156.675C212.243 156.151 211.78 155.719 211.235 155.418C210.69 155.117 210.078 154.956 209.455 154.949C209.39 154.953 209.325 154.944 209.264 154.922C209.202 154.9 209.146 154.865 209.099 154.821C209.052 154.776 209.014 154.722 208.988 154.662C208.962 154.603 208.949 154.538 208.949 154.473C208.956 154.336 209.013 154.205 209.108 154.107C209.204 154.008 209.333 153.948 209.47 153.937C210.259 153.934 211.035 154.128 211.729 154.503C212.423 154.877 213.013 155.419 213.443 156.08C213.511 156.198 213.533 156.337 213.502 156.47C213.472 156.602 213.392 156.718 213.279 156.794C213.169 156.865 213.038 156.897 212.907 156.884Z" fill="#263238"/>
<path d="M196.513 152.702C196.384 152.7 196.261 152.646 196.171 152.554C196.076 152.459 196.023 152.33 196.023 152.196C196.023 152.063 196.076 151.934 196.171 151.839C196.741 151.245 197.44 150.789 198.214 150.508C198.988 150.227 199.816 150.127 200.635 150.217C200.7 150.229 200.762 150.255 200.816 150.292C200.871 150.329 200.917 150.377 200.952 150.433C200.987 150.489 201.01 150.552 201.019 150.617C201.029 150.682 201.025 150.749 201.007 150.813C200.969 150.944 200.885 151.057 200.77 151.131C200.655 151.204 200.517 151.234 200.382 151.214C199.73 151.152 199.072 151.239 198.459 151.468C197.845 151.697 197.292 152.064 196.841 152.539C196.751 152.625 196.637 152.683 196.513 152.702Z" fill="#263238"/>
<path d="M209.486 160.187L207.656 159.16C207.656 159.16 208.222 160.976 209.486 160.187Z" fill="#263238"/>
<path d="M210.482 145.59C210.482 145.59 207.58 160.842 217.922 167.701C228.263 174.561 232.058 150.961 223.874 143.983C215.69 137.004 198.578 139.236 194.426 149.176C194.367 149.176 198.831 143.864 210.482 145.59Z" fill="#263238"/>
<path d="M224.13 170.96C222.613 172.58 220.515 173.532 218.297 173.609C215.455 173.609 214.949 170.722 216.497 168.252C217.91 166.035 221.065 163.342 223.55 164.487C226.035 165.633 226.065 168.907 224.13 170.96Z" fill="#CE7A63"/>
<path opacity="0.5" d="M240.751 236.804H251.004C251.504 236.785 251.984 236.604 252.37 236.287C252.757 235.97 253.03 235.535 253.146 235.048L257.893 212.832C257.953 212.623 257.961 212.403 257.919 212.19C257.876 211.977 257.783 211.777 257.648 211.607C257.513 211.437 257.339 211.301 257.141 211.212C256.943 211.122 256.726 211.081 256.509 211.091H246.257C245.761 211.11 245.285 211.29 244.901 211.604C244.517 211.919 244.246 212.35 244.129 212.832L239.368 235.048C239.309 235.258 239.301 235.479 239.343 235.692C239.386 235.906 239.479 236.107 239.613 236.278C239.748 236.449 239.922 236.586 240.119 236.677C240.317 236.769 240.534 236.812 240.751 236.804Z" fill="white"/>
<path d="M244.143 223.68L240.974 222.966C240.386 222.834 239.776 222.844 239.193 222.997C238.61 223.15 238.073 223.44 237.626 223.844L233.385 227.668C232.547 228.421 231.902 229.364 231.503 230.417C231.105 231.471 230.964 232.605 231.094 233.724L231.257 235.123C236.436 236.611 243.161 234.483 243.161 234.483L245.155 234.081C245.566 234.011 245.958 233.86 246.31 233.637C246.661 233.413 246.964 233.122 247.201 232.779C247.438 232.437 247.604 232.05 247.69 231.643C247.776 231.235 247.779 230.815 247.7 230.406L246.956 226.463C246.81 225.775 246.466 225.145 245.966 224.65C245.466 224.156 244.833 223.819 244.143 223.68Z" fill="#CE7A63"/>
</g>
<defs>
<clipPath id="clip0_775_4077">
<rect width="622" height="536" fill="white"/>
</clipPath>
</defs>
</svg>
