<svg width="73" height="53" viewBox="0 0 73 53" fill="none" xmlns="http://www.w3.org/2000/svg">
<path d="M38.6 48.2H9.00001C4.58173 48.2 1 44.6183 1 40.2V9.00001C1 4.58173 4.58172 1 9 1H55.4C59.8183 1 63.4 4.58172 63.4 9V17.4" stroke="#E04048" stroke-width="2"/>
<path d="M36.6 37.8H17C12.5817 37.8 9 34.2183 9 29.8V14.6C9 10.1817 12.5817 6.59998 17 6.59998H47.4C51.8183 6.59998 55.4 10.1817 55.4 14.6V15.8" stroke="#E04048" stroke-width="2"/>
<line x1="41.998" y1="25" x2="41.998" y2="44.2" stroke="#E04048" stroke-width="2"/>
<line x1="64.998" y1="20.4" x2="45.798" y2="20.4" stroke="#E04048" stroke-width="2"/>
<line x1="49.1992" y1="19.4" x2="49.1992" y2="49.8" stroke="#E04048" stroke-width="2"/>
<line x1="70.5996" y1="27.6" x2="40.1996" y2="27.6" stroke="#E04048" stroke-width="2"/>
<line x1="56.3984" y1="17" x2="56.3984" y2="52.2" stroke="#E04048" stroke-width="2"/>
<line x1="72.998" y1="34.8" x2="37.798" y2="34.8" stroke="#E04048" stroke-width="2"/>
<line x1="63.5996" y1="19.4" x2="63.5996" y2="49.8" stroke="#E04048" stroke-width="2"/>
<line x1="70.5996" y1="42" x2="40.1996" y2="42" stroke="#E04048" stroke-width="2"/>
<line x1="70.7988" y1="25.8" x2="70.7988" y2="43.4001" stroke="#E04048" stroke-width="2"/>
<line x1="64.1992" y1="49.2" x2="46.5992" y2="49.1999" stroke="#E04048" stroke-width="2"/>
<circle cx="55.4008" cy="34.6" r="16.6" stroke="#E04048" stroke-width="2"/>
</svg>
