<svg width="56" height="60" viewBox="0 0 56 60" fill="none" xmlns="http://www.w3.org/2000/svg">
<path d="M53.686 0C52.4132 0 51.3719 1.05469 51.3719 2.34375V54.8203C51.3719 55.0078 51.3372 55.3125 51.1868 55.3125H14.2777L17.2512 48.4336C17.4595 48.457 17.6678 48.4336 17.876 48.4336C21.8678 48.4336 25.1074 45.1289 25.1074 41.0977C25.1074 40.0195 24.876 38.9766 24.4595 38.0508L30.8231 32.2148C31.2975 32.3203 31.7603 32.3789 32.2694 32.3789C36.0529 32.3789 39.1074 29.25 39.1074 25.418C39.1074 24.1406 38.8066 22.9453 38.205 21.9141L41.757 15.1406C42.0347 15.1758 42.3355 15.1992 42.6248 15.1992C44.3603 15.1992 45.9917 14.5195 47.2182 13.2773C48.4446 12.0352 49.1157 10.3828 49.1157 8.63672C49.1157 5.01562 46.2116 2.0625 42.6364 2.0625C40.9008 2.0625 39.281 2.74219 38.0545 3.98438C36.8281 5.22656 36.157 6.87891 36.157 8.625C36.157 10.2539 36.7471 11.7422 37.719 12.8906L34.6182 18.8437C33.9008 18.5859 33.1256 18.4453 32.3273 18.4453C28.5438 18.4453 25.4545 21.5625 25.4545 25.4062C25.4545 26.9648 25.9636 28.4062 26.8198 29.5664L21.2893 34.6172C20.2711 34.0664 19.114 33.75 17.876 33.75C13.8843 33.75 10.6446 37.0312 10.6446 41.0742C10.6446 43.2188 11.5587 45.2109 13.005 46.5469L9.22149 55.3125H2.31405C1.04132 55.3125 0 56.3672 0 57.6562C0 58.9453 1.04132 60 2.31405 60H51.1868C53.9058 60 56 57.6094 56 54.8203V2.34375C56 1.05469 54.9587 0 53.686 0ZM41.3174 7.30078C41.6645 6.94922 42.1388 6.75 42.6364 6.75C43.6661 6.75 44.4992 7.59375 44.4992 8.63672C44.4992 9.14062 44.3025 9.60938 43.9554 9.97266C43.6083 10.3242 43.1339 10.5234 42.6364 10.5234C41.6066 10.5234 40.7736 9.67969 40.7736 8.63672C40.7736 8.13281 40.9702 7.65234 41.3174 7.30078ZM32.3157 23.1445C33.5537 23.1445 34.5603 24.1641 34.5603 25.418C34.5603 26.6719 33.5537 27.6914 32.3157 27.6914C31.0777 27.6914 30.0711 26.6719 30.0711 25.418C30.0711 24.1641 31.0777 23.1445 32.3157 23.1445ZM17.8876 38.4375C19.3223 38.4375 20.4909 39.6211 20.4909 41.0742C20.4909 42.5273 19.3223 43.7109 17.8876 43.7109C16.4529 43.7109 15.2843 42.5273 15.2843 41.0742C15.2843 39.6211 16.4529 38.4375 17.8876 38.4375Z" fill="#E04048"/>
</svg>
