<svg width="71" height="48" viewBox="0 0 71 48" fill="none" xmlns="http://www.w3.org/2000/svg">
<rect x="1" y="1" width="69" height="46" stroke="#E04048" stroke-width="2"/>
<line x1="1" y1="9" x2="70" y2="9" stroke="#E04048" stroke-width="2"/>
<circle cx="5" cy="5" r="1" fill="#E04048"/>
<circle cx="8" cy="5" r="1" fill="#E04048"/>
<circle cx="11" cy="5" r="1" fill="#E04048"/>
<path d="M14.335 21.5V35H12.709V21.5H14.335ZM13.9482 29.8848L13.2715 29.8584C13.2773 29.208 13.374 28.6074 13.5615 28.0566C13.749 27.5 14.0127 27.0166 14.3525 26.6064C14.6924 26.1963 15.0967 25.8799 15.5654 25.6572C16.04 25.4287 16.5645 25.3145 17.1387 25.3145C17.6074 25.3145 18.0293 25.3789 18.4043 25.5078C18.7793 25.6309 19.0986 25.8301 19.3623 26.1055C19.6318 26.3809 19.8369 26.7383 19.9775 27.1777C20.1182 27.6113 20.1885 28.1416 20.1885 28.7686V35H18.5537V28.751C18.5537 28.2529 18.4805 27.8545 18.334 27.5557C18.1875 27.251 17.9736 27.0312 17.6924 26.8965C17.4111 26.7559 17.0654 26.6855 16.6553 26.6855C16.251 26.6855 15.8818 26.7705 15.5479 26.9404C15.2197 27.1104 14.9355 27.3447 14.6953 27.6436C14.4609 27.9424 14.2764 28.2852 14.1416 28.6719C14.0127 29.0527 13.9482 29.457 13.9482 29.8848ZM26.6045 25.4902V26.7383H21.4629V25.4902H26.6045ZM23.2031 23.1787H24.8291V32.6445C24.8291 32.9668 24.8789 33.21 24.9785 33.374C25.0781 33.5381 25.207 33.6465 25.3652 33.6992C25.5234 33.752 25.6934 33.7783 25.875 33.7783C26.0098 33.7783 26.1504 33.7666 26.2969 33.7432C26.4492 33.7139 26.5635 33.6904 26.6396 33.6729L26.6484 35C26.5195 35.041 26.3496 35.0791 26.1387 35.1143C25.9336 35.1553 25.6846 35.1758 25.3916 35.1758C24.9932 35.1758 24.627 35.0967 24.293 34.9385C23.959 34.7803 23.6924 34.5166 23.4932 34.1475C23.2998 33.7725 23.2031 33.2686 23.2031 32.6357V23.1787ZM32.4932 25.4902V26.7383H27.3516V25.4902H32.4932ZM29.0918 23.1787H30.7178V32.6445C30.7178 32.9668 30.7676 33.21 30.8672 33.374C30.9668 33.5381 31.0957 33.6465 31.2539 33.6992C31.4121 33.752 31.582 33.7783 31.7637 33.7783C31.8984 33.7783 32.0391 33.7666 32.1855 33.7432C32.3379 33.7139 32.4521 33.6904 32.5283 33.6729L32.5371 35C32.4082 35.041 32.2383 35.0791 32.0273 35.1143C31.8223 35.1553 31.5732 35.1758 31.2803 35.1758C30.8818 35.1758 30.5156 35.0967 30.1816 34.9385C29.8477 34.7803 29.5811 34.5166 29.3818 34.1475C29.1885 33.7725 29.0918 33.2686 29.0918 32.6357V23.1787ZM36.0264 27.3184V38.6562H34.3916V25.4902H35.8857L36.0264 27.3184ZM42.4336 30.166V30.3506C42.4336 31.042 42.3516 31.6836 42.1875 32.2754C42.0234 32.8613 41.7832 33.3711 41.4668 33.8047C41.1562 34.2383 40.7725 34.5752 40.3154 34.8154C39.8584 35.0557 39.334 35.1758 38.7422 35.1758C38.1387 35.1758 37.6055 35.0762 37.1426 34.877C36.6797 34.6777 36.2871 34.3877 35.9648 34.0068C35.6426 33.626 35.3848 33.1689 35.1914 32.6357C35.0039 32.1025 34.875 31.502 34.8047 30.834V29.8496C34.875 29.1465 35.0068 28.5166 35.2002 27.96C35.3936 27.4033 35.6484 26.9287 35.9648 26.5361C36.2871 26.1377 36.6768 25.8359 37.1338 25.6309C37.5908 25.4199 38.1182 25.3145 38.7158 25.3145C39.3135 25.3145 39.8438 25.4316 40.3066 25.666C40.7695 25.8945 41.1592 26.2227 41.4756 26.6504C41.792 27.0781 42.0293 27.5908 42.1875 28.1885C42.3516 28.7803 42.4336 29.4395 42.4336 30.166ZM40.7988 30.3506V30.166C40.7988 29.6914 40.749 29.2461 40.6494 28.8301C40.5498 28.4082 40.3945 28.0391 40.1836 27.7227C39.9785 27.4004 39.7148 27.1484 39.3926 26.9668C39.0703 26.7793 38.6865 26.6855 38.2412 26.6855C37.8311 26.6855 37.4736 26.7559 37.1689 26.8965C36.8701 27.0371 36.6152 27.2275 36.4043 27.4678C36.1934 27.7021 36.0205 27.9717 35.8857 28.2764C35.7568 28.5752 35.6602 28.8857 35.5957 29.208V31.4844C35.7129 31.8945 35.877 32.2812 36.0879 32.6445C36.2988 33.002 36.5801 33.292 36.9316 33.5146C37.2832 33.7314 37.7256 33.8398 38.2588 33.8398C38.6982 33.8398 39.0762 33.749 39.3926 33.5674C39.7148 33.3799 39.9785 33.125 40.1836 32.8027C40.3945 32.4805 40.5498 32.1113 40.6494 31.6953C40.749 31.2734 40.7988 30.8252 40.7988 30.3506ZM44.4375 34.1387C44.4375 33.8633 44.5225 33.6318 44.6924 33.4443C44.8682 33.251 45.1201 33.1543 45.4482 33.1543C45.7764 33.1543 46.0254 33.251 46.1953 33.4443C46.3711 33.6318 46.459 33.8633 46.459 34.1387C46.459 34.4082 46.3711 34.6367 46.1953 34.8242C46.0254 35.0117 45.7764 35.1055 45.4482 35.1055C45.1201 35.1055 44.8682 35.0117 44.6924 34.8242C44.5225 34.6367 44.4375 34.4082 44.4375 34.1387ZM44.4463 26.3779C44.4463 26.1025 44.5312 25.8711 44.7012 25.6836C44.877 25.4902 45.1289 25.3936 45.457 25.3936C45.7852 25.3936 46.0342 25.4902 46.2041 25.6836C46.3799 25.8711 46.4678 26.1025 46.4678 26.3779C46.4678 26.6475 46.3799 26.876 46.2041 27.0635C46.0342 27.251 45.7852 27.3447 45.457 27.3447C45.1289 27.3447 44.877 27.251 44.7012 27.0635C44.5312 26.876 44.4463 26.6475 44.4463 26.3779ZM54.5273 22.2031L49.1924 36.0986H47.7949L53.1387 22.2031H54.5273ZM59.9941 22.2031L54.6592 36.0986H53.2617L58.6055 22.2031H59.9941Z" fill="#E04048"/>
</svg>
