<svg width="104" height="89" viewBox="0 0 104 89" fill="none" xmlns="http://www.w3.org/2000/svg">
<path d="M29.6035 14.2228H37.0432V0L29.6035 7.11133V14.2228ZM74.9649 14.2228H67.5252V0L74.9649 7.11133V14.2228Z" fill="#7B7B7B"/>
<path d="M37.043 0H67.5249V7.11145H37.043V0Z" fill="#5A5A5A"/>
<path d="M104 42.4707V80.3978C104 84.7438 100.279 88.2997 95.7328 88.2997H8.42098C3.87435 88.2997 0.154297 84.7438 0.154297 80.3978V42.4707" fill="#E6E7E8"/>
<path d="M89.173 14.0746H14.6722L0 27.7048V42.5202H103.845V27.7048L89.173 14.0746Z" fill="#D0D1D2"/>
<path d="M91.9105 42.6683V32.2484C91.9105 30.0754 90.0505 28.2974 87.7771 28.2974H16.3775C14.1042 28.2974 12.2441 30.0753 12.2441 32.2484V42.6683" fill="#6E6E6E"/>
<path d="M20.5637 37.4705C22.2114 37.4705 23.5472 36.1936 23.5472 34.6185C23.5472 33.0435 22.2114 31.7666 20.5637 31.7666C18.9159 31.7666 17.5801 33.0435 17.5801 34.6185C17.5801 36.1936 18.9159 37.4705 20.5637 37.4705Z" fill="#E6E7E8"/>
<path d="M29.8098 37.4705C31.4575 37.4705 32.7933 36.1936 32.7933 34.6185C32.7933 33.0435 31.4575 31.7666 29.8098 31.7666C28.162 31.7666 26.8262 33.0435 26.8262 34.6185C26.8262 36.1936 28.162 37.4705 29.8098 37.4705Z" fill="#E6E7E8"/>
<path d="M12.2441 42.6683H91.9105V88.2998H12.2441V42.6683Z" fill="white"/>
<path d="M17.5781 82.3736H51.9218V88.2997H17.5781V82.3736ZM17.5781 48.0751H44.1723V76.4475H17.5781V48.0751ZM60.1623 48.2405L79.4762 66.7022V51.0668L91.7553 62.8041V88.2998H75.145L58.044 71.9534L60.1623 48.2405Z" fill="#D2D3D4"/>
<path d="M85.0134 63.2124C85.0134 56.5454 80.898 50.8002 74.9647 48.1624V63.8051L67.5637 67.8546L60.1627 63.8051V48.2405C54.3261 50.9137 50.2949 56.6128 50.2949 63.2125C50.2949 69.8122 54.3261 75.5113 60.1627 78.1845V88.2998H75.1454V78.1845C80.9822 75.5111 85.0134 69.8122 85.0134 63.2124Z" fill="#505050"/>
</svg>
