<svg width="54" height="68" viewBox="0 0 54 68" fill="none" xmlns="http://www.w3.org/2000/svg">
<path d="M40.0084 18.559L39.9625 18.5543C37.7498 18.3263 35.5121 18.9798 33.3483 19.8001C32.9201 19.9624 32.4569 20.1467 31.9972 20.3296C31.396 20.5688 30.8008 20.8056 30.2977 20.9878C29.3796 21.3204 28.3648 21.632 27.4238 21.632C26.5148 21.632 25.5808 21.3766 24.7275 21.0827C24.0941 20.8645 23.4083 20.5888 22.7337 20.3175C22.4976 20.2226 22.2629 20.1282 22.0323 20.037C20.1646 19.2987 18.3316 18.6782 16.5178 18.7124L16.5138 18.7124C11.4502 18.7943 6.73083 21.6917 4.08243 26.3626L4.08071 26.3656C1.39038 31.0848 0.989908 37.0577 2.02446 42.9841C3.0569 48.8983 5.48869 54.5778 8.21608 58.5602L8.21665 58.5611C9.61798 60.6102 11.0616 62.6428 12.6517 64.1489C14.2396 65.6529 15.7823 66.4491 17.3807 66.3892C19.0486 66.3236 20.2024 65.8278 21.6571 65.2027C21.7555 65.1604 21.8553 65.1175 21.9567 65.0742C23.5812 64.3793 25.4671 63.6426 28.3048 63.6426C31.1637 63.6426 33.0225 64.4346 34.6135 65.1308L34.6648 65.1532C36.1865 65.8192 37.3763 66.3398 39.2154 66.3056L39.2159 66.3056C40.9796 66.2733 42.4843 65.4772 43.9412 64.0977C45.4276 62.6902 46.746 60.7903 48.1421 58.7248L48.1424 58.7243C50.2812 55.5627 51.5432 52.47 52.1368 50.8091C49.6241 49.4356 43.6624 45.2356 43.5822 36.481L40.0084 18.559ZM40.0084 18.559L40.0545 18.5609M40.0084 18.559L40.0545 18.5609M40.0545 18.5609C41.8794 18.6361 46.6332 19.2572 50.1039 23.3671C50.0866 23.3806 50.0693 23.3941 50.0518 23.4079M40.0545 18.5609L50.0518 23.4079M50.0518 23.4079C49.2967 24.0005 48.3243 24.8651 47.3635 26.014M50.0518 23.4079L47.3635 26.014M47.3635 26.014C45.4371 28.3177 43.5381 31.7932 43.5822 36.4806L47.3635 26.014ZM31.054 5.95394L31.054 5.95396L31.0606 5.94728C33.1435 3.83107 36.5146 2.16125 39.548 1.65309C39.4258 4.39821 38.0424 7.14813 36.0101 9.28374C33.9269 11.4648 30.6836 13.1854 27.4436 13.3993C27.5426 10.7064 29.1187 7.89578 31.054 5.95394Z" stroke="#111111" stroke-width="3"/>
</svg>
