<svg width="505" height="504" viewBox="0 0 505 504" fill="none" xmlns="http://www.w3.org/2000/svg">
<path d="M206.797 289.817L214.842 282.12C215.179 281.739 221.534 274.46 221.305 272.081C221.293 271.955 220.929 272.078 220.876 271.982C220.866 271.966 220.532 272.181 220.519 272.163L220.511 272.152C220.452 272.069 220.699 271.773 220.599 271.72C219.667 271.264 217.242 272.026 211.307 275.766L182.376 305.181L184.899 310.758L184.9 310.757L194.439 301.635L206.797 289.817Z" fill="#FF965F"/>
<path d="M217.959 294.761L226.076 287.013L226.065 286.998C225.97 286.866 232.669 279.384 232.443 277.034C232.414 276.749 232.256 276.558 232.012 276.451L220.924 271.462C220.932 271.465 220.926 271.476 220.934 271.479C221.038 271.532 221.115 271.604 221.175 271.689C221.189 271.708 221.194 271.728 221.205 271.746C221.259 271.842 221.299 271.948 221.312 272.076C221.541 274.452 215.187 281.73 214.851 282.11L214.856 282.113L184.899 310.755L195.981 315.756L217.896 294.798L217.959 294.761Z" fill="#FF765F"/>
<path d="M247.264 312.474L206.798 289.815L194.44 301.635L198.545 313.302L210.376 346.941L210.964 348.604L249.59 313.777L247.264 312.474Z" fill="#005DFF"/>
<path d="M251.514 382.321C239.377 370.015 227.048 353.428 226.716 335.419C226.66 332.44 226.865 329.544 227.305 326.748C227.263 325.97 227.24 325.197 227.245 324.428C226.734 324.496 226.415 324.546 226.415 324.546C205.121 339.759 191.116 365.563 188.751 369.66C188.722 369.676 188.686 369.688 188.658 369.708C183.412 373.455 187.269 387.844 197.271 401.844C207.271 415.841 219.631 424.152 224.877 420.404C224.877 420.404 257.829 413.912 277.281 400.741C274.229 398.732 271.355 396.449 268.597 394.016C262.415 391.314 256.657 387.536 251.514 382.321Z" fill="#B514BA"/>
<path d="M240.113 465.78C240.096 465.589 240.02 465.437 239.921 465.3C239.895 465.263 239.864 465.226 239.833 465.193C239.737 465.09 239.618 465.003 239.478 464.931C239.466 464.927 239.455 464.92 239.446 464.916C237.673 464.076 232.959 465.516 232.658 465.605L224.268 469.595L211.346 475.739L201.379 480.473L200.192 488.662L230.738 475.861C238.04 470.084 240.249 467.163 240.113 465.78Z" fill="#FF965F"/>
<path d="M383.398 238.955C346.733 249.084 290.169 270.622 238.768 314.421L226.979 324.088C219.233 329.622 224.927 350.863 239.696 371.536C254.462 392.204 272.71 404.474 280.455 398.941C336.905 366.58 382.261 319.341 409.49 277.537C409.49 277.537 383.428 240.514 383.398 238.955Z" fill="#E3E3EA"/>
<path d="M383.398 238.956C388.236 262.613 409.488 277.535 409.49 277.538C420.264 264.198 430.144 235.121 430.221 235.005C430.221 235.005 407.176 232.363 383.398 238.956Z" fill="#65FD8D"/>
<path d="M347.568 271.764L347.499 271.359L347.188 270.769C347.126 270.627 347.056 270.482 346.972 270.317C346.845 270.034 346.712 269.758 346.57 269.512C346.453 269.307 346.326 269.109 346.073 268.755C346.052 268.726 345.795 268.36 345.795 268.36L345.511 267.986C345.311 267.741 345.087 267.508 344.836 267.263C344.649 267.058 344.457 266.858 344.225 266.652C343.354 265.881 342.353 265.225 341.248 264.7L340.506 264.353L340.362 264.329C340.285 264.299 340.205 264.27 340.114 264.237C339.87 264.14 339.626 264.047 339.406 263.977C339.118 263.883 338.815 263.806 338.343 263.693C338.099 263.623 337.855 263.562 337.596 263.514C336.389 263.275 335.101 263.156 333.766 263.158C331.868 263.16 329.877 263.407 327.839 263.883C325.948 264.333 324.026 264.982 322.144 265.816C320.306 266.626 318.513 267.608 316.811 268.728C312.594 271.514 309.234 274.958 307.104 278.689C306.182 280.297 305.511 281.952 305.139 283.495C305.088 283.673 305.042 283.85 305 284.035L304.926 284.462C304.282 287.952 304.957 291.305 306.832 293.929C306.976 294.131 307.129 294.333 307.288 294.523C308.06 295.467 308.99 296.296 310.049 296.984C312.495 298.567 315.526 299.367 319.054 299.362C320.341 299.361 321.67 299.247 323.001 299.026C324.268 298.819 325.579 298.513 326.892 298.112C328.156 297.728 329.424 297.25 330.658 296.704C331.882 296.165 333.099 295.544 334.276 294.858C339.237 291.96 343.304 288.041 345.719 283.814C348.086 279.669 348.731 275.415 347.568 271.764Z" fill="#010080"/>
<path d="M342.495 273.04C342.492 273.033 342.488 273.03 342.483 273.02C342.425 272.871 342.345 272.735 342.28 272.588C342.203 272.429 342.139 272.265 342.049 272.11C341.957 271.954 341.845 271.813 341.74 271.665C341.651 271.54 341.574 271.406 341.476 271.284C341.36 271.143 341.222 271.021 341.097 270.893C340.989 270.781 340.89 270.663 340.771 270.559C340.249 270.096 339.637 269.696 338.939 269.371C338.936 269.371 338.934 269.371 338.928 269.368C338.731 269.277 338.517 269.206 338.309 269.128C338.143 269.066 337.992 268.993 337.819 268.941C337.61 268.874 337.373 268.822 337.147 268.767C336.962 268.722 336.789 268.667 336.597 268.626C335.734 268.458 334.789 268.37 333.773 268.37C332.238 268.374 330.649 268.578 329.042 268.958C327.438 269.336 325.821 269.891 324.247 270.585C322.669 271.281 321.132 272.123 319.682 273.08C316.305 275.309 313.408 278.167 311.631 281.274C310.922 282.514 310.454 283.708 310.178 284.842C310.153 284.935 310.12 285.031 310.101 285.123C310.088 285.182 310.082 285.24 310.072 285.296C309.613 287.641 310.065 289.687 311.321 291.219C311.752 291.745 312.272 292.207 312.884 292.603C314.411 293.591 316.488 294.15 319.039 294.148C320.061 294.147 321.106 294.054 322.165 293.88C323.227 293.707 324.299 293.453 325.368 293.126C326.438 292.798 327.509 292.396 328.561 291.933C329.61 291.468 330.645 290.936 331.649 290.355C335.657 288.017 339.158 284.791 341.193 281.226C342.972 278.114 343.332 275.263 342.495 273.04Z" fill="#88AEF0"/>
<path d="M295.508 299.938L295.311 299.54C295.311 299.54 295.049 299.138 294.957 298.998C294.833 298.791 294.702 298.584 294.483 298.278L294.45 298.231C294.262 297.98 294.056 297.736 293.788 297.451C293.614 297.246 293.431 297.043 293.216 296.834C292.998 296.624 292.758 296.428 292.473 296.203C292.263 296.022 292.046 295.846 291.812 295.682C290.952 295.081 289.993 294.583 288.961 294.2L288.558 293.99L288.02 293.896C287.858 293.853 287.668 293.807 287.433 293.748C287.207 293.684 286.983 293.626 286.669 293.564C286.407 293.515 286.125 293.476 285.611 293.414C285.374 293.373 285.139 293.34 284.864 293.32C283.645 293.226 282.353 293.253 281.012 293.41C279.114 293.633 277.162 294.102 275.222 294.81C273.379 295.473 271.546 296.341 269.778 297.38C268.046 298.394 266.381 299.573 264.816 300.882C260.948 304.129 258.006 307.936 256.314 311.894C255.581 313.595 255.108 315.323 254.914 316.906C254.882 317.081 254.857 317.26 254.84 317.43L254.824 317.713C254.578 320.854 255.324 323.74 256.978 326.054C257.373 326.608 257.821 327.128 258.31 327.604C259.191 328.457 260.209 329.17 261.334 329.726C263.946 331.018 267.05 331.467 270.555 331.063C271.818 330.912 273.129 330.648 274.444 330.27C275.693 329.914 276.957 329.461 278.202 328.922C279.397 328.394 280.608 327.776 281.779 327.09C282.929 326.417 284.063 325.661 285.156 324.843C289.757 321.401 293.345 317.038 295.261 312.558C297.236 307.948 297.305 303.431 295.508 299.938Z" fill="#010080"/>
<path d="M290.823 302.227C290.822 302.22 290.818 302.214 290.815 302.21C290.741 302.065 290.645 301.94 290.56 301.8C290.466 301.648 290.383 301.496 290.277 301.351C290.169 301.208 290.04 301.079 289.919 300.945C289.816 300.83 289.724 300.707 289.611 300.596C289.482 300.475 289.331 300.365 289.189 300.253C289.069 300.156 288.959 300.048 288.829 299.956C288.258 299.558 287.603 299.235 286.874 298.99C286.871 298.99 286.868 298.986 286.864 298.987C286.657 298.92 286.435 298.873 286.22 298.819C286.05 298.777 285.888 298.723 285.713 298.689C285.492 298.646 285.253 298.623 285.022 298.593C284.835 298.572 284.657 298.534 284.459 298.518C283.581 298.447 282.637 298.468 281.625 298.587C280.101 298.766 278.543 299.154 276.993 299.711C275.442 300.27 273.904 301.006 272.416 301.878C270.929 302.752 269.498 303.759 268.169 304.876C265.069 307.479 262.515 310.651 261.109 313.944C260.547 315.256 260.215 316.494 260.073 317.651C260.061 317.747 260.039 317.848 260.027 317.943C260.024 318.001 260.027 318.058 260.024 318.117C259.835 320.498 260.518 322.478 261.938 323.858C262.428 324.329 262.998 324.73 263.651 325.052C265.282 325.86 267.409 326.177 269.946 325.882L269.947 325.881C270.959 325.765 271.989 325.55 273.02 325.257C274.053 324.963 275.088 324.588 276.115 324.141C277.139 323.694 278.156 323.17 279.147 322.592C280.139 322.008 281.104 321.364 282.032 320.668C285.748 317.888 288.857 314.28 290.469 310.506C291.879 307.212 291.911 304.339 290.823 302.227Z" fill="#88AEF0"/>
<path d="M239.427 464.893L239.45 464.904L266.47 401.118L255.386 396.114L224.266 469.598L232.658 465.605C232.957 465.513 237.673 464.074 239.447 464.912L239.448 464.91C239.438 464.906 239.437 464.898 239.427 464.893Z" fill="#010080"/>
<path d="M217.207 412.877L211.343 475.735L224.265 469.596L255.39 396.117L217.207 412.877Z" fill="#005DFF"/>
<path d="M251.195 470.782C251.155 470.355 250.899 470.069 250.508 469.892L239.449 464.902L239.43 464.893C239.435 464.898 239.44 464.907 239.447 464.908C239.459 464.914 239.466 464.924 239.479 464.93C239.619 465.004 239.737 465.089 239.832 465.193C239.868 465.227 239.896 465.262 239.923 465.298C240.02 465.434 240.096 465.586 240.116 465.779C240.249 467.159 238.042 470.08 230.737 475.859L200.191 488.66L211.272 493.664L241.819 480.862C249.121 475.083 251.33 472.165 251.195 470.782Z" fill="#FF765F"/>
<path d="M189.111 156.051C189.111 156.051 198.675 155.291 205.161 150.884C212.542 145.868 213.142 141.801 213.142 141.801L229.043 154.258C229.043 154.258 228.313 157.532 221.965 163.692C215.312 170.145 209.196 171.635 205.427 172.215C204.455 172.365 203.885 172.413 203.885 172.413L189.111 156.051Z" fill="#C5FFF4"/>
<path d="M207.715 168.111L197.121 157.431L207.715 168.111Z" fill="#004E15"/>
<path d="M207.425 168.399L196.831 157.718L197.409 157.144L208.004 167.823L207.425 168.399Z" fill="white"/>
<path d="M211.969 166.38L201.497 155.923L211.969 166.38Z" fill="#004E15"/>
<path d="M211.68 166.669L201.208 156.212L201.786 155.635L212.258 166.091L211.68 166.669Z" fill="white"/>
<path d="M215.925 163.826L205.699 154.121L215.925 163.826Z" fill="#004E15"/>
<path d="M215.643 164.122L205.419 154.418L205.981 153.825L216.206 163.529L215.643 164.122Z" fill="white"/>
<path d="M219.708 160.767L210 151.86L219.708 160.767Z" fill="#004E15"/>
<path d="M219.431 161.067L209.723 152.162L210.274 151.56L219.983 160.466L219.431 161.067Z" fill="white"/>
<path d="M223.65 157.058L213.285 148.967L223.65 157.058Z" fill="#004E15"/>
<path d="M223.399 157.379L213.033 149.288L213.535 148.644L223.901 156.735L223.399 157.379Z" fill="white"/>
<path d="M184.15 210.554C184.15 210.554 193.547 212.486 201.004 210.058C209.488 207.295 211.196 203.554 211.196 203.554L223.004 219.944C223.004 219.944 221.392 222.887 213.581 227.036C205.395 231.384 199.104 231.112 195.323 230.621C194.347 230.494 193.787 230.383 193.787 230.383L184.15 210.554Z" fill="#C5FFF4"/>
<path d="M198.662 227.314L191.458 214.107L198.662 227.314Z" fill="#004E15"/>
<path d="M198.304 227.51L191.099 214.303L191.815 213.913L199.02 227.119L198.304 227.51Z" fill="white"/>
<path d="M203.231 226.835L196.083 213.878L203.231 226.835Z" fill="#004E15"/>
<path d="M202.872 227.033L195.724 214.076L196.441 213.682L203.589 226.638L202.872 227.033Z" fill="white"/>
<path d="M207.741 225.482L200.621 213.316L207.741 225.482Z" fill="#004E15"/>
<path d="M207.388 225.689L200.269 213.523L200.973 213.111L208.092 225.276L207.388 225.689Z" fill="white"/>
<path d="M212.225 223.598L205.378 212.341L212.225 223.598Z" fill="#004E15"/>
<path d="M211.876 223.811L205.03 212.553L205.727 212.129L212.575 223.385L211.876 223.811Z" fill="white"/>
<path d="M217.044 221.132L209.34 210.478L217.044 221.132Z" fill="#004E15"/>
<path d="M216.715 221.371L209.01 210.716L209.671 210.237L217.376 220.892L216.715 221.371Z" fill="white"/>
<path d="M165.109 172.025C165.109 172.025 166.403 181.532 171.167 187.76C176.587 194.848 180.684 195.218 180.684 195.218L169.138 211.794C169.138 211.794 165.828 211.249 159.322 205.255C152.506 198.975 150.674 192.951 149.884 189.221C149.679 188.258 149.599 187.693 149.599 187.693L165.109 172.025Z" fill="#C5FFF4"/>
<path d="M154.111 191.274L164.179 180.098L154.111 191.274Z" fill="#004E15"/>
<path d="M153.806 191.001L163.876 179.825L164.482 180.37L154.413 191.547L153.806 191.001Z" fill="white"/>
<path d="M156.077 195.425L165.93 184.383L156.077 195.425Z" fill="#004E15"/>
<path d="M155.773 195.153L165.624 184.111L166.234 184.657L156.381 195.698L155.773 195.153Z" fill="white"/>
<path d="M158.849 199.232L167.965 188.48L158.849 199.232Z" fill="#004E15"/>
<path d="M158.538 198.968L167.654 188.216L168.277 188.743L159.162 199.495L158.538 198.968Z" fill="white"/>
<path d="M162.115 202.836L170.464 192.644L162.115 202.836Z" fill="#004E15"/>
<path d="M161.8 202.578L170.147 192.386L170.779 192.902L162.432 203.096L161.8 202.578Z" fill="white"/>
<path d="M166.04 206.565L173.536 195.763L166.04 206.565Z" fill="#004E15"/>
<path d="M165.706 206.333L173.201 195.531L173.873 195.995L166.376 206.798L165.706 206.333Z" fill="white"/>
<path d="M273.268 205.983C273.268 205.983 268.952 219.339 268.315 229.292C267.677 239.244 265.749 256.914 260.939 266.962C256.129 277.01 245.681 298.335 244.849 298.808C244.017 299.282 253.928 299.16 253.928 299.16C253.928 299.16 274.033 275.772 278.638 262.618C283.244 249.465 287.95 226.232 290.431 223.979C292.912 221.727 299.383 220.781 302.165 215.386C305.757 208.419 302.081 199.24 302.081 199.24C302.081 199.24 275.825 202.175 273.268 205.983Z" fill="url(#paint0_linear_2623_24821)"/>
<path d="M293.414 205.967C293.414 205.967 289.508 209.034 285.701 210.37C281.893 211.706 277.639 216.763 276.287 220.025C274.935 223.287 272.701 251.305 272.422 253.348C272.143 255.39 276.734 258.609 275.517 258.741C274.3 258.873 267.558 259.392 269.026 259.714C270.494 260.036 274.982 261.976 273.301 262.512C271.619 263.047 265.238 263.479 266.235 264.195C267.231 264.911 271.614 267.153 269.16 267.256C266.706 267.359 259.083 281.734 256.491 287.158C253.899 292.583 253.928 299.16 253.928 299.16L244.625 299.073C244.625 299.073 261.84 265.71 263.011 261.684C264.183 257.659 267.76 228.708 268.413 222.554C269.19 215.244 270.4 211.899 270.4 211.899C270.4 211.899 283.993 204.059 287.929 204.136C291.865 204.212 293.414 205.967 293.414 205.967Z" fill="url(#paint1_linear_2623_24821)"/>
<path d="M220.841 180.718L219.923 180.003L217.995 182.481L218.914 183.196L220.841 180.718Z" fill="#FFB600"/>
<path d="M231.19 190.505L230.272 189.79L229.077 191.326L229.996 192.04L231.19 190.505Z" fill="#FFB600"/>
<path d="M222.671 215.731L194.509 193.825L208.509 175.827L236.67 197.731L222.671 215.731Z" fill="#FF3C00"/>
<path d="M230.01 207.672L200.604 184.798L208.803 174.257L238.209 197.131L230.01 207.672Z" fill="#FF3C00"/>
<path d="M197.345 190.178C197.345 190.178 201.332 194.157 211.587 199.031C220.318 203.181 223.883 202.906 223.883 202.906L201.181 185.247L197.345 190.178Z" fill="#CE2C00"/>
<path d="M215.756 199.984L212.377 197.356L215.673 193.119L219.052 195.748L215.756 199.984Z" fill="#FFB600"/>
<path d="M215.853 193.259C215.853 193.259 214.845 194.956 214.766 196.932C214.686 198.908 215.874 199.833 215.874 199.833L219.052 195.748L215.853 193.259Z" fill="white"/>
<path d="M234.727 187.737L221.048 177.098L218.236 180.713L220.489 182.465L222.246 180.305L231.338 187.376L229.581 189.538L231.914 191.353L234.727 187.737Z" fill="#FF3C00"/>
<path d="M219.296 184.082L228.389 191.154L228.887 190.512L219.795 183.44L219.296 184.082Z" fill="#FF3C00"/>
<path d="M301.709 203.027L313.556 180.767L309.249 201.94L301.709 203.027Z" fill="#020023"/>
<path d="M302.423 202.442C302.423 202.442 311.077 190.831 316.288 175.854C321.499 160.876 312.425 156.7 311.79 156.207C307.447 152.835 288.391 149.985 286.75 152.108C282.795 157.229 289.922 171.99 287.286 185.539C285.475 194.846 269.607 211.357 267.236 212.818C263.347 215.213 273.234 217.132 285.848 205.826C287.215 204.6 288.112 206.411 292.177 205.683C293.481 205.449 294.848 204.736 295.907 204.259C299.086 202.827 302.423 202.442 302.423 202.442Z" fill="url(#paint2_linear_2623_24821)"/>
<path d="M308.022 159.873L312.591 175.225L308.729 155.543L308.022 159.873Z" fill="#FF9100"/>
<path d="M283.306 203.305C283.306 203.305 295.803 191.231 300.549 183.698C305.296 176.164 305.861 167.794 305.829 165.614C305.797 163.434 307.173 160.025 307.173 160.025L303.43 157.292L298.983 156.21C298.983 156.21 284.625 200.146 283.306 203.305Z" fill="#FF9100"/>
<path d="M298.662 152.31C298.662 152.31 304.756 144.45 305.525 141.365C306.293 138.281 307.625 131.799 312.758 131.988C317.891 132.177 318.229 137.277 318.078 139.222C317.926 141.167 317.213 146.399 316.884 146.403C316.554 146.407 315.702 145.378 315.702 145.378C315.702 145.378 315.148 148.662 313.551 149.354C311.955 150.046 310.264 149.231 310.264 149.231C310.264 149.231 307.501 153.233 307.421 154.648C307.341 156.064 308.109 159.493 308.109 159.493C308.109 159.493 298.557 157.532 298.662 152.31Z" fill="#FFB68E"/>
<path d="M298.004 151.519C298.004 151.519 302.988 162.717 303.184 169.601C303.38 176.484 284.416 204.409 279.217 207.245C274.018 210.081 266.716 210.269 266.716 210.269C266.716 210.269 279.067 187.926 282.655 175.911C286.243 163.895 283.745 154.255 287.616 151.4C291.489 148.546 298.004 151.519 298.004 151.519Z" fill="#19437F"/>
<path d="M308.759 154.067C308.759 154.067 310.203 164.982 312.276 171.136C314.348 177.29 309.177 201.929 309.177 201.929L310.586 201.506C310.586 201.506 319.442 173.481 320.01 167.936C320.579 162.391 317.918 157.395 316.105 156.824C314.292 156.252 308.759 154.067 308.759 154.067Z" fill="#19437F"/>
<path d="M266.717 210.269C266.717 210.269 276.891 211.003 281.997 204.835C287.102 198.666 295.468 179.234 296.135 173.565C296.801 167.895 296.259 167.219 296.259 167.219L299.91 167.291L296.312 164.493C296.312 164.493 296.902 162.736 295.357 158.872C293.811 155.008 290.797 150.448 290.797 150.448C290.797 150.448 286.041 149.327 285.433 156.195C284.825 163.063 282.344 174.902 281.083 179.037C279.821 183.173 269.231 207.131 266.717 210.269Z" fill="url(#paint3_linear_2623_24821)"/>
<path d="M313.561 155.916C313.561 155.916 316.734 166.34 317.097 167.714C317.46 169.089 314.265 168.342 314.265 168.342L317.087 169.862C317.087 169.862 317.331 174.065 316.944 177.181C316.556 180.297 312.143 190.539 312.143 190.539L309.177 201.929L311.512 201.479C311.512 201.479 320.541 174.262 320.645 167.461C320.75 160.66 317.791 157.884 316.948 157.354C316.105 156.823 313.561 155.916 313.561 155.916Z" fill="url(#paint4_linear_2623_24821)"/>
<path d="M319.747 169.812C319.747 169.812 342.947 179.318 346.196 175.353C349.445 171.388 350.277 151.701 349.745 150.064C349.212 148.427 348.107 148.418 348.107 148.418L344.228 148.985C344.228 148.985 341.282 164.721 340.677 165.592C340.072 166.463 323.203 158.283 316.949 157.354C316.949 157.354 319.069 169.293 319.747 169.812Z" fill="url(#paint5_linear_2623_24821)"/>
<path d="M289.464 150.459C289.464 150.459 256.357 155.112 247.213 163.293C238.07 171.473 232.68 176.552 232.68 176.552L236.299 181.699C236.299 181.699 250.42 170.511 259.18 167.169C267.942 163.828 285.824 164.1 289.211 161.177C292.597 158.255 289.464 150.459 289.464 150.459Z" fill="url(#paint6_linear_2623_24821)"/>
<path d="M232.681 176.552C232.681 176.552 238.85 176.781 243.107 173.91C249.549 169.563 252.563 168.598 251.948 167.483C251.275 166.265 251.056 163.766 252.135 164.562C253.214 165.358 255.813 168.434 255.991 167.324C256.17 166.212 253.758 161.547 255.3 162.692C256.842 163.837 258.976 166.719 258.995 165.698C259.015 164.676 258.11 160.267 259.633 162.379C261.156 164.492 267.277 162.547 272.139 161.847C277.002 161.146 287.302 155.381 287.302 155.381C287.302 155.381 286.919 162.417 284.668 162.808C277.952 163.973 263.967 165.455 259.181 167.169C254.396 168.884 236.3 181.699 236.3 181.699L232.681 176.552Z" fill="#020023"/>
<path d="M320.32 170.583C320.32 170.583 320.011 167.934 319.41 164.737C318.894 161.996 317.838 159.559 317.838 159.559C317.838 159.559 325.579 166.384 328.499 167.984C331.419 169.584 337.955 173.163 339.708 173.505C341.462 173.847 340.776 171.81 340.235 169.854C339.696 167.899 341.772 171.434 342.718 172.092C343.664 172.75 340.732 166.46 341.798 166.843C342.865 167.225 345.552 171.435 345.637 170.486C345.721 169.537 343.35 165.545 343.843 165.925C344.336 166.304 346.682 167.319 346.682 167.319C346.682 167.319 347.315 154.953 346.99 152.669C346.665 150.385 344.228 148.985 344.228 148.985C344.228 148.985 347.87 147.587 349.111 148.433C350.352 149.278 349.745 150.064 349.745 150.064C349.745 150.064 350.11 161.187 349.161 167.22C348.213 173.252 346.971 174.511 345.971 175.789C344.096 178.184 325.415 173.675 320.32 170.583Z" fill="#020023"/>
<path d="M235.634 180.753C235.634 180.753 234.372 183.877 232.491 186.127C230.61 188.378 230.221 187.437 230.959 185.673C231.696 183.908 231.803 182.785 231.803 182.785C231.803 182.785 230.154 183.606 229.444 184.673C229.123 185.156 230.185 186.145 229.852 186.263C228.169 186.859 227.021 184.614 227.021 184.614C227.021 184.614 226.207 185.425 225.596 185.142C224.3 184.542 225.603 183.33 225.603 183.33C225.603 183.33 224.242 184.082 224.182 182.935C224.12 181.786 224.24 181.857 224.24 181.857C224.24 181.857 220.674 183.473 221.118 182.053C221.562 180.633 232.68 176.552 232.68 176.552L235.634 180.753Z" fill="#FFB68E"/>
<path d="M308.759 154.067L308.129 154.438C308.129 154.438 311.344 167.289 311.922 171.139C312.835 177.231 312.405 179.007 312.381 181.978C312.374 182.806 311.835 186.517 311.835 186.517L309.213 201.744C309.213 201.744 314.634 185.998 313.575 176.088C313.155 172.155 308.759 154.067 308.759 154.067Z" fill="#020023"/>
<path d="M234.085 177.554L233.788 177.243C234.437 176.624 249.487 162.291 252.375 161.507C252.423 161.494 252.466 161.484 252.507 161.479C253.619 161.33 260.641 159.107 268.075 156.751C279.254 153.21 286.637 150.897 287.412 151.003C287.49 151.014 287.602 151.057 287.687 151.203C288.177 152.048 287.528 156.978 286.83 158.709L286.431 158.548C287.186 156.68 287.699 151.842 287.307 151.408C286.618 151.326 276.408 154.563 268.206 157.162C260.752 159.524 253.711 161.754 252.563 161.905C252.529 161.91 252.494 161.917 252.455 161.928C250.18 162.545 238.479 173.363 234.085 177.554Z" fill="#020023"/>
<path d="M275.591 190.595L282.189 190.726L283.313 188.797L276.296 189.034L275.591 190.595Z" fill="#020023"/>
<path d="M277.094 189.217C277.035 189.233 276.97 189.224 276.916 189.187C276.819 189.12 276.794 188.985 276.861 188.887C276.925 188.794 283.265 179.545 285.569 174.154C287.864 168.785 288.181 166.585 288.183 166.563C288.199 166.445 288.308 166.363 288.425 166.378C288.543 166.394 288.625 166.501 288.609 166.619C288.597 166.71 288.289 168.884 285.964 174.323C283.642 179.754 277.278 189.037 277.215 189.13C277.185 189.174 277.141 189.205 277.094 189.217Z" fill="#020023"/>
<path d="M281.536 178.835C281.497 178.845 281.454 178.845 281.413 178.831C281.3 178.795 281.239 178.674 281.275 178.561L285.208 166.466C285.245 166.352 285.366 166.29 285.479 166.328C285.593 166.364 285.655 166.486 285.618 166.599L281.684 178.693C281.66 178.765 281.603 178.816 281.536 178.835Z" fill="#020023"/>
<path d="M302.106 169.385C302.042 169.403 301.97 169.389 301.914 169.344L296.09 164.589L296.098 164.478C296.098 164.464 296.179 163.101 295.148 158.923C294.113 154.732 290.667 150.628 290.632 150.587C290.555 150.496 290.567 150.361 290.658 150.284C290.747 150.207 290.883 150.218 290.961 150.309C290.996 150.351 294.507 154.531 295.566 158.819C296.464 162.458 296.531 163.987 296.53 164.394L302.186 169.012C302.278 169.087 302.292 169.221 302.217 169.313C302.187 169.35 302.148 169.374 302.106 169.385Z" fill="#020023"/>
<path d="M289.259 192.549C289.208 192.563 289.152 192.559 289.101 192.531C288.997 192.475 288.958 192.344 289.014 192.24C289.051 192.171 292.745 185.272 294.529 178.83C296.312 172.388 296.425 167.274 296.426 167.223C296.428 167.104 296.525 167.01 296.646 167.012C296.765 167.014 296.859 167.113 296.857 167.231C296.856 167.283 296.742 172.452 294.944 178.944C293.147 185.434 289.429 192.375 289.391 192.443C289.363 192.498 289.314 192.535 289.259 192.549Z" fill="#020023"/>
<path d="M316.829 168.585C316.092 168.785 314.713 168.622 314.237 168.556C314.119 168.54 314.036 168.431 314.052 168.313C314.07 168.195 314.176 168.114 314.295 168.13C315.54 168.302 316.782 168.283 316.904 168.089C316.756 167.399 313.866 157.659 313.837 157.562C313.803 157.448 313.868 157.328 313.982 157.294C313.984 157.293 313.985 157.293 313.986 157.292C314.098 157.261 314.215 157.327 314.249 157.439C314.367 157.841 317.174 167.294 317.322 168.004C317.351 168.146 317.314 168.282 317.215 168.387C317.132 168.476 316.998 168.54 316.829 168.585Z" fill="#020023"/>
<path d="M313.952 187.327C313.911 187.338 313.865 187.338 313.821 187.321C313.71 187.28 313.652 187.156 313.695 187.045C313.715 186.992 315.741 181.585 316.52 178.206C317.294 174.845 316.897 170.328 316.893 170.282C316.883 170.164 316.972 170.055 317.088 170.048C317.206 170.038 317.311 170.124 317.322 170.243C317.325 170.289 317.729 174.876 316.939 178.303C316.153 181.711 314.118 187.143 314.098 187.196C314.073 187.264 314.017 187.31 313.952 187.327Z" fill="#020023"/>
<path d="M303.392 144.886C303.392 144.886 306.114 144.028 307.462 142.517C308.81 141.006 309.284 140.096 309.128 139.255C308.801 137.489 310.409 134.666 310.86 135.663C311.312 136.661 310.461 138.842 311.148 138.416C311.835 137.99 312.334 135.034 314.209 134.631C316.084 134.228 316.852 135.899 318.878 136.042C321.072 136.196 324.287 135.838 325.459 135.33C329.35 133.645 331.204 131.299 330.432 128.923C329.244 125.262 325.355 124.886 319.784 125.537C314.01 126.212 306.358 128.215 306.25 129.861C306.141 131.507 308.613 133.642 307.088 133.283C305.564 132.923 304.517 133.669 304.325 134.986C303.923 137.733 305.187 141.95 303.392 144.886Z" fill="#172755"/>
<path d="M297.515 150.27C297.734 150.257 299.756 151.337 302.36 153.412C304.963 155.489 306.559 157.873 306.559 157.873C306.559 157.873 306.227 158.299 306.836 159.189C307.446 160.079 307.173 160.025 307.173 160.025C307.173 160.025 306.401 160.342 306.078 160.003C305.756 159.664 305.033 158.602 305.033 158.602L303.443 160.491C303.443 160.491 301.031 158.233 298.881 155.453C297.231 153.319 294.943 150.529 294.943 150.529L297.515 150.27Z" fill="url(#paint7_linear_2623_24821)"/>
<path d="M307.776 153.304L310.389 153.876C310.389 153.876 311.338 155.295 311.066 156.969C310.794 158.643 309.374 160.512 309.336 160.418C309.299 160.324 308.585 158.63 308.396 158.782C308.207 158.934 308.026 159.709 308.026 159.709C308.026 159.709 307.154 155.409 307.344 154.646C307.534 153.884 307.776 153.304 307.776 153.304Z" fill="url(#paint8_linear_2623_24821)"/>
<path d="M306.244 160.11L308.346 163.648L308.923 159.509C308.923 159.509 307.177 160.041 306.244 160.11Z" fill="#FF3C00"/>
<path d="M280.356 195.45L284.936 190.78C284.936 190.78 294.664 184.425 300.657 177.174C306.651 169.924 307.729 161.889 307.729 161.889L308.446 163.275C308.446 163.275 306.797 176.328 299.466 185.156C292.135 193.983 287.133 195.583 280.356 195.45Z" fill="#FF3C00"/>
<path d="M310.187 149.23L307.845 146.597C307.845 146.597 306.782 150.237 306.402 152.179C306.021 154.121 307.456 156.018 307.456 156.018C307.456 156.018 307.244 155.059 307.703 153.756C308.161 152.452 310.187 149.23 310.187 149.23Z" fill="#EF8B59"/>
<path d="M309.091 140.041C309.091 140.041 307.501 138.177 306.713 136.351C305.925 134.525 306.142 133.204 306.142 133.204C306.142 133.204 304.45 133.105 304.214 135.092C303.966 137.168 304.445 140.469 304.186 142.107C303.926 143.744 303.392 144.886 303.392 144.886C303.392 144.886 308.392 143.571 309.091 140.041Z" fill="#020023"/>
<path d="M316.06 134.527C316.049 134.528 316.04 134.528 316.035 134.528C315.917 134.533 315.817 134.44 315.813 134.321C315.809 134.204 315.901 134.104 316.019 134.099C316.019 134.099 316.018 134.098 316.024 134.098C316.194 134.09 321.444 133.828 324.33 130.702C324.904 130.078 325.105 129.529 324.926 129.067C324.434 127.795 321.223 127.244 320.027 127.139C319.909 127.128 319.821 127.024 319.832 126.906C319.841 126.787 319.947 126.699 320.065 126.71C320.251 126.727 324.64 127.131 325.328 128.912C325.57 129.54 325.341 130.241 324.646 130.994C321.676 134.212 316.512 134.508 316.06 134.527Z" fill="#020023"/>
<path d="M314.852 134.431C314.774 134.453 314.686 134.427 314.631 134.361C314.555 134.269 314.567 134.134 314.658 134.058C317.725 131.502 320.146 128.977 319.944 128.544C319.676 127.968 317.995 128.108 316.999 128.332C316.883 128.358 316.769 128.285 316.742 128.169C316.716 128.053 316.791 127.936 316.905 127.912C317.204 127.845 319.834 127.287 320.335 128.362C320.809 129.381 316.321 133.233 314.933 134.389C314.909 134.408 314.881 134.424 314.852 134.431Z" fill="#020023"/>
<path d="M311.648 136.624C311.633 136.622 311.62 136.618 311.606 136.612C311.495 136.571 311.437 136.448 311.478 136.337C311.485 136.32 311.934 134.99 310.775 132.729C309.615 130.465 307.332 130.234 307.305 130.229C307.191 130.22 307.101 130.113 307.111 129.995C307.122 129.878 307.227 129.791 307.345 129.802C307.447 129.812 309.891 130.062 311.158 132.532C312.415 134.983 311.904 136.426 311.882 136.486C311.845 136.583 311.746 136.639 311.648 136.624Z" fill="#020023"/>
<path d="M323.611 135.082C320.85 135.831 318.256 135.597 318.095 135.582C317.976 135.57 317.891 135.464 317.901 135.347C317.913 135.228 318.017 135.142 318.135 135.153C318.192 135.159 323.914 135.676 327.311 132.746C328.168 132.007 328.555 131.364 328.431 130.884C328.255 130.206 327.132 129.963 327.121 129.961C327.005 129.936 326.93 129.822 326.954 129.706C326.978 129.592 327.091 129.517 327.209 129.539C327.266 129.551 328.605 129.838 328.847 130.775C329.018 131.433 328.596 132.205 327.591 133.071C326.411 134.088 324.991 134.708 323.611 135.082Z" fill="#020023"/>
<path d="M359.243 144.249L322.186 142.889L322.3 139.789L359.356 141.148L359.243 144.249Z" fill="#FF3C00"/>
<path d="M372.33 146.655L335.304 144.466L335.498 139.179L372.589 139.583L372.33 146.655Z" fill="#FF3C00"/>
<path d="M386.485 149.281L354.716 146.708L355.028 138.221L386.901 137.926L386.485 149.281Z" fill="#FF3C00"/>
<path d="M385.852 137.768L354.716 146.708L385.433 149.196L385.852 137.768Z" fill="#DD2400"/>
<path d="M354.852 139.389L354.756 145.615L335.304 144.466L354.852 139.389Z" fill="#DD2400"/>
<path d="M335.45 140.474L335.345 143.373L323.416 142.849L335.45 140.474Z" fill="#DD2400"/>
<path d="M388.636 152.24L385.325 152.118L385.926 135.758L389.236 135.879L388.636 152.24Z" fill="#FF3C00"/>
<path d="M323.382 143.763L320.928 143.673L321.103 138.915L323.557 139.005L323.382 143.763Z" fill="#FF3C00"/>
<path d="M345.531 139.474C345.531 139.474 346.137 142.065 346.569 142.325C347.002 142.584 347.179 141.545 347.179 141.545C347.179 141.545 347.364 142.832 347.864 142.77C348.363 142.707 348.449 141.708 348.449 141.708C348.449 141.708 348.636 142.751 349.054 142.536C349.472 142.321 349.635 141.384 349.635 141.384C349.635 141.384 349.552 142.264 350.053 142.411C350.554 142.558 350.668 141.266 350.496 140.12C350.324 138.974 350.114 138.521 349.802 138.508C349.49 138.495 349.394 138.654 349.394 138.654C349.394 138.654 348.948 138.043 348.555 138.21C348.161 138.376 348.127 138.613 348.127 138.613C348.127 138.613 347.391 137.82 347.007 138.04C346.624 138.26 346.495 138.594 346.495 138.594C346.495 138.594 345.855 137.913 345.569 138.184C345.282 138.454 344.809 139.281 344.809 139.281L345.531 139.474Z" fill="#FFB68E"/>
<path d="M344.788 148.765C344.788 148.765 342.097 144.714 342.176 143.829C342.255 142.945 344.133 140.744 344.514 140.473C344.894 140.201 344.224 143.452 344.049 144.13C343.874 144.808 345.245 144.813 346.7 145.032C348.632 145.324 349.567 145.406 349.75 145.715C349.932 146.023 348.293 148.416 348.293 148.416L344.788 148.765Z" fill="#FFB68E"/>
<path d="M348.292 148.416C348.292 148.416 347.097 148.3 345.822 147.379C344.547 146.457 344.233 144.632 344.233 144.632C344.233 144.632 346.308 144.36 347.846 144.746C349.383 145.131 349.938 145.33 349.938 145.33C349.938 145.33 349.651 147.221 348.292 148.416Z" fill="#EF8B59"/>
<path d="M323.415 142.849L335.449 140.474L323.415 142.849Z" fill="#DD2400"/>
<g opacity="0.66">
<path d="M356.512 138.208C356.512 138.208 362.652 139.26 368.072 140.289C373.491 141.317 381.027 137.981 381.027 137.981L356.512 138.208Z" fill="url(#paint9_linear_2623_24821)"/>
</g>
<g opacity="0.66">
<path d="M385.926 135.758C385.926 135.758 386.635 141.987 387.162 144.785C387.689 147.583 388.731 149.62 388.731 149.62L389.236 135.879L385.926 135.758Z" fill="url(#paint10_linear_2623_24821)"/>
</g>
<path d="M302.423 202.442C306.629 200.576 343.325 200.888 345.279 206.878C347.234 212.867 332.896 251.071 332.896 251.071L324.236 251.652C324.236 251.652 326.308 243.736 328.064 234.643C330.901 219.954 331.528 218.028 331.528 218.028C329.495 216.304 288.173 221.818 288.173 221.818C288.173 221.818 297.634 204.567 302.423 202.442Z" fill="#19437F"/>
<path d="M290.431 223.979C289.26 224.006 294.347 220.909 295.07 215.892C295.793 210.874 297.129 207.699 296.872 208.044C296.615 208.389 298.012 215.205 298.906 214.806C299.8 214.408 307.263 210.535 325.655 209.829C333.404 209.53 334.244 211.168 334.94 211.229C335.636 211.291 342.338 208.151 341.098 209.329C339.859 210.507 334.643 214.799 335.613 214.616C336.583 214.433 340.764 213.568 338.742 215.117C336.72 216.665 332.472 219.778 333.68 219.583C334.888 219.388 337.434 219.258 336.152 220.427C334.871 221.595 331.76 236.006 331.781 240.016C331.802 244.027 332.895 251.071 332.895 251.071L324.235 251.652C324.235 251.652 331.625 218.995 330.126 218.075C327.76 216.624 303.585 219.608 300.3 220.49C297.542 221.231 295.254 223.867 290.431 223.979Z" fill="url(#paint11_linear_2623_24821)"/>
<path d="M251.272 304.794C251.272 304.794 250.161 304.357 250.51 302.587C250.859 300.818 251.53 299.238 251.53 299.238L245.311 299.113C245.311 299.113 244.088 307.632 246.276 308.547C247.717 309.15 249.404 306.035 251.272 304.794Z" fill="white"/>
<path d="M244.329 307.454C244.329 307.454 245.472 310.048 247.436 309.406C249.401 308.765 263.65 303.418 263.185 302.989C262.721 302.56 262.683 301.508 262.292 301.605C261.901 301.702 255.333 303.603 253.513 302.388C251.693 301.173 251.924 299.487 251.924 299.487L248.789 300.725C248.789 300.725 250.03 303.152 249.681 304.298C249.331 305.444 244.329 307.454 244.329 307.454Z" fill="#050023"/>
<path d="M332.459 256.751C332.459 256.751 331.322 256.386 331.557 254.598C331.793 252.809 332.358 251.189 332.358 251.189L326.145 251.463C326.145 251.463 325.472 260.043 327.713 260.817C329.19 261.327 330.674 258.109 332.459 256.751Z" fill="white"/>
<path d="M325.7 259.85C325.7 259.85 327.008 262.366 328.926 261.6C330.845 260.833 344.722 254.584 344.231 254.186C343.74 253.788 343.635 252.739 343.251 252.862C342.867 252.984 336.435 255.301 334.54 254.206C332.646 253.109 332.768 251.413 332.768 251.413L329.72 252.849C329.72 252.849 331.113 255.192 330.838 256.358C330.563 257.524 325.7 259.85 325.7 259.85Z" fill="#050023"/>
<path d="M267.06 214.795C266.984 214.778 266.942 214.765 266.931 214.761C266.789 214.715 266.712 214.561 266.759 214.42C266.805 214.278 266.96 214.205 267.099 214.247C267.117 214.254 269.125 214.845 274.165 213.059C277.658 211.822 281.612 208.729 283.976 206.881C285.425 205.748 286.027 205.286 286.34 205.253C286.567 205.228 286.972 205.28 287.53 205.35C289.076 205.544 291.666 205.87 293.402 205C295.231 204.084 297.082 203.597 298.434 203.242C298.903 203.119 299.32 203.009 299.668 202.9C301.027 202.473 302.351 202.18 302.364 202.177C302.51 202.144 302.654 202.238 302.687 202.383C302.719 202.529 302.628 202.673 302.481 202.705C302.468 202.709 301.166 202.998 299.83 203.417C299.476 203.529 299.049 203.64 298.571 203.766C297.243 204.115 295.422 204.593 293.644 205.484C291.76 206.427 289.07 206.09 287.462 205.888C286.979 205.827 286.561 205.775 286.397 205.792C286.189 205.838 285.234 206.586 284.31 207.308C281.92 209.177 277.922 212.303 274.346 213.57C269.75 215.198 267.59 214.912 267.06 214.795Z" fill="#020023"/>
<path d="M282.798 206.544C282.773 206.538 282.748 206.529 282.725 206.515C282.594 206.442 282.549 206.276 282.622 206.145C282.688 206.027 284.286 203.212 286.944 200.976C290.035 198.375 292.34 197.316 292.437 197.271C292.572 197.21 292.732 197.271 292.794 197.406C292.857 197.542 292.797 197.704 292.661 197.765C292.638 197.775 290.322 198.843 287.292 201.39C284.712 203.561 283.109 206.383 283.093 206.411C283.033 206.518 282.912 206.569 282.798 206.544Z" fill="#020023"/>
<path d="M289.916 205.932C289.779 205.901 289.686 205.768 289.707 205.626C289.713 205.581 289.887 204.502 290.725 203.261C291.544 202.049 294.086 199.428 294.194 199.318C294.298 199.21 294.47 199.209 294.577 199.313C294.685 199.416 294.688 199.587 294.583 199.695C294.557 199.722 291.966 202.393 291.174 203.564C290.409 204.699 290.245 205.698 290.243 205.709C290.219 205.856 290.081 205.958 289.933 205.936C289.927 205.934 289.922 205.933 289.916 205.932Z" fill="#020023"/>
<path d="M270.821 220.38L271.237 217.627L271.435 217.596C271.486 217.588 276.51 216.809 279.082 216.092C281.55 215.404 282.088 215 282.109 214.983L282.565 214.628L282.473 217.521L282.307 217.586C282.276 217.597 279.109 218.833 276.843 219.494C274.559 220.161 271.293 220.351 271.154 220.36L270.821 220.38ZM271.714 218.1L271.457 219.797C272.356 219.728 274.883 219.501 276.691 218.973C278.638 218.405 281.264 217.408 281.944 217.146L281.993 215.663C281.554 215.871 280.728 216.196 279.227 216.614C276.917 217.259 272.675 217.947 271.714 218.1Z" fill="#020023"/>
<path d="M269.162 266.813C268.459 266.658 267.49 266.228 266.249 265.204C263.51 262.942 262.81 261.874 262.782 261.83L262.723 261.737L262.745 261.63C262.752 261.6 263.368 258.572 263.846 255.627C264.321 252.706 267.521 227.935 268.145 222.523C268.756 217.219 269.747 214.526 269.79 214.414C269.842 214.274 269.994 214.209 270.138 214.256C270.278 214.309 270.349 214.465 270.297 214.605C270.287 214.632 269.285 217.355 268.683 222.585C268.059 227.999 264.857 252.789 264.381 255.714C263.954 258.342 263.418 261.037 263.3 261.622C263.518 261.912 264.366 262.945 266.594 264.786C269.11 266.866 270.29 266.274 270.304 266.266C270.434 266.198 270.597 266.243 270.67 266.371C270.742 266.499 270.701 266.661 270.574 266.735C270.541 266.754 270.075 267.015 269.162 266.813Z" fill="#020023"/>
<path d="M271.056 262.283C271.028 262.276 271 262.266 270.974 262.251C269.241 261.209 265.205 258.694 265.145 257.873C265.136 257.744 265.187 257.625 265.285 257.544C265.909 257.032 272.168 257.578 274.831 257.837C274.976 257.847 275.089 257.984 275.074 258.132C275.06 258.281 274.927 258.389 274.779 258.376C270.888 257.998 266.626 257.743 265.744 257.929C266.189 258.534 268.848 260.339 271.254 261.786C271.382 261.864 271.424 262.03 271.346 262.158C271.284 262.261 271.167 262.307 271.056 262.283Z" fill="#020023"/>
<path d="M267.712 256.242L267.649 255.703L274.001 254.958L274.065 255.497L267.712 256.242Z" fill="#020023"/>
<path d="M244.967 299.004C244.944 298.999 244.921 298.99 244.899 298.979C244.767 298.909 244.715 298.746 244.785 298.614L246.881 294.628L255.176 295.88C255.327 295.893 255.426 296.04 255.403 296.188C255.381 296.336 255.243 296.438 255.095 296.415L247.181 295.222L245.265 298.865C245.206 298.976 245.083 299.03 244.967 299.004Z" fill="#020023"/>
<path d="M290.374 224.243C290.337 224.235 290.302 224.22 290.27 224.196C290.15 224.106 290.125 223.938 290.215 223.817C290.216 223.818 291.855 221.613 293.646 219.131C294.968 217.298 295.03 215.814 295.074 214.73C295.089 214.382 295.104 214.053 295.156 213.761C295.364 212.602 296.561 208.162 296.611 207.973C296.65 207.829 296.804 207.736 296.943 207.782C297.088 207.821 297.173 207.97 297.134 208.114C297.122 208.16 295.893 212.721 295.69 213.858C295.643 214.113 295.631 214.409 295.617 214.752C295.569 215.904 295.502 217.483 294.085 219.448C292.291 221.935 290.649 224.141 290.649 224.141C290.584 224.229 290.474 224.265 290.374 224.243Z" fill="#020023"/>
<path d="M290.373 224.243C290.246 224.215 290.154 224.099 290.161 223.964C290.169 223.814 290.296 223.702 290.446 223.709C290.486 223.712 294.442 223.898 297.439 221.524C299.54 219.858 301.78 219.664 306.246 219.274C308.602 219.068 311.537 218.812 315.41 218.261C322.82 217.206 326.168 217.353 328.169 217.442C329.076 217.482 329.731 217.511 330.369 217.413C331.878 217.182 336.035 212.605 337.509 210.86C337.606 210.746 337.777 210.732 337.891 210.828C338.005 210.925 338.02 211.095 337.924 211.209C337.366 211.867 332.433 217.645 330.45 217.948C329.758 218.053 329.082 218.024 328.144 217.983C326.162 217.896 322.846 217.749 315.486 218.797C311.6 219.35 308.658 219.607 306.293 219.813C301.937 220.193 299.749 220.384 297.776 221.948C294.614 224.453 290.586 224.259 290.416 224.249C290.401 224.248 290.387 224.247 290.373 224.243Z" fill="#020023"/>
<path d="M332.224 220.126C331.68 220.006 331.641 219.823 331.619 219.726C331.492 219.156 333.806 217.271 338.492 214.123C338.618 214.038 338.785 214.074 338.868 214.197C338.951 214.32 338.918 214.49 338.794 214.573C335.802 216.583 332.626 218.931 332.193 219.586C332.784 219.81 335.643 219.664 338.114 219.383C338.259 219.366 338.398 219.474 338.413 219.623C338.43 219.771 338.324 219.905 338.175 219.922C334.551 220.333 332.944 220.285 332.224 220.126Z" fill="#020023"/>
<path d="M323.872 251.942L325.302 246.922L328.502 246.707L334.693 246.964L333.086 251.337L332.904 251.342C332.89 251.343 331.484 251.38 330.275 251.518C329.045 251.658 324.446 251.912 324.25 251.922L323.872 251.942ZM325.718 247.436L324.601 251.36C325.755 251.295 329.202 251.095 330.214 250.981C331.186 250.87 332.278 250.822 332.704 250.806L333.928 247.474L328.509 247.247L325.718 247.436Z" fill="#020023"/>
<path d="M309.644 201.264L309.128 201.1C309.157 201.004 312.08 191.395 313.621 186.982C313.933 186.087 313.95 186.038 314.218 186.124C314.318 186.157 314.384 186.181 314.332 186.49L314.368 186.511C314.354 186.54 314.326 186.616 314.28 186.742C314.093 187.528 313.492 189.382 312.041 193.872C310.846 197.569 309.644 201.264 309.644 201.264Z" fill="#020023"/>
<defs>
<linearGradient id="paint0_linear_2623_24821" x1="263.851" y1="249.945" x2="308.324" y2="256.646" gradientUnits="userSpaceOnUse">
<stop offset="0.12" stop-color="#0A2D51"/>
<stop offset="0.3" stop-color="#123868"/>
<stop offset="0.49" stop-color="#19437F"/>
</linearGradient>
<linearGradient id="paint1_linear_2623_24821" x1="263.108" y1="253.189" x2="297.077" y2="258.309" gradientUnits="userSpaceOnUse">
<stop offset="0.12" stop-color="#0A2D51"/>
<stop offset="0.3" stop-color="#123868"/>
<stop offset="0.49" stop-color="#19437F"/>
</linearGradient>
<linearGradient id="paint2_linear_2623_24821" x1="286.712" y1="186.362" x2="330.459" y2="192.955" gradientUnits="userSpaceOnUse">
<stop offset="0.11" stop-color="#FFFFA4"/>
<stop offset="0.26" stop-color="#FFE96C"/>
<stop offset="0.41" stop-color="#FFD234"/>
<stop offset="0.61" stop-color="#FFB21A"/>
<stop offset="0.8" stop-color="#FF9200"/>
</linearGradient>
<linearGradient id="paint3_linear_2623_24821" x1="290.252" y1="188.767" x2="342.398" y2="157.708" gradientUnits="userSpaceOnUse">
<stop offset="0.12" stop-color="#0A2D51"/>
<stop offset="0.3" stop-color="#123868"/>
<stop offset="0.49" stop-color="#19437F"/>
</linearGradient>
<linearGradient id="paint4_linear_2623_24821" x1="326.33" y1="184.857" x2="335.072" y2="186.175" gradientUnits="userSpaceOnUse">
<stop offset="0.12" stop-color="#0A2D51"/>
<stop offset="0.56" stop-color="#0A2D51"/>
<stop offset="1" stop-color="#0A2D51"/>
</linearGradient>
<linearGradient id="paint5_linear_2623_24821" x1="334.487" y1="165.956" x2="366.999" y2="170.856" gradientUnits="userSpaceOnUse">
<stop offset="0.12" stop-color="#0A2D51"/>
<stop offset="0.56" stop-color="#0A2D51"/>
<stop offset="1" stop-color="#0A2D51"/>
</linearGradient>
<linearGradient id="paint6_linear_2623_24821" x1="262.211" y1="172.809" x2="316.274" y2="153.694" gradientUnits="userSpaceOnUse">
<stop offset="0.12" stop-color="#0A2D51"/>
<stop offset="0.3" stop-color="#123868"/>
<stop offset="0.49" stop-color="#19437F"/>
</linearGradient>
<linearGradient id="paint7_linear_2623_24821" x1="323.052" y1="158.252" x2="312.153" y2="166.322" gradientUnits="userSpaceOnUse">
<stop offset="0.11" stop-color="#FFFFA4"/>
<stop offset="0.26" stop-color="#FFE96C"/>
<stop offset="0.41" stop-color="#FFD234"/>
<stop offset="0.61" stop-color="#FFB21A"/>
<stop offset="0.8" stop-color="#FF9200"/>
</linearGradient>
<linearGradient id="paint8_linear_2623_24821" x1="329.078" y1="159.712" x2="322.213" y2="166.589" gradientUnits="userSpaceOnUse">
<stop offset="0.11" stop-color="#FFFFA4"/>
<stop offset="0.26" stop-color="#FFE96C"/>
<stop offset="0.41" stop-color="#FFD234"/>
<stop offset="0.61" stop-color="#FFB21A"/>
<stop offset="0.8" stop-color="#FF9200"/>
</linearGradient>
<linearGradient id="paint9_linear_2623_24821" x1="375.515" y1="146.774" x2="399.45" y2="150.381" gradientUnits="userSpaceOnUse">
<stop offset="0.06" stop-color="white"/>
<stop offset="0.24" stop-color="white"/>
<stop offset="0.43" stop-color="white"/>
<stop offset="0.71" stop-color="white"/>
<stop offset="1" stop-color="white"/>
</linearGradient>
<linearGradient id="paint10_linear_2623_24821" x1="404.393" y1="153.687" x2="409.182" y2="154.408" gradientUnits="userSpaceOnUse">
<stop offset="0.06" stop-color="white"/>
<stop offset="0.24" stop-color="white"/>
<stop offset="0.43" stop-color="white"/>
<stop offset="0.71" stop-color="white"/>
<stop offset="1" stop-color="white"/>
</linearGradient>
<linearGradient id="paint11_linear_2623_24821" x1="303.762" y1="230.797" x2="351.446" y2="237.983" gradientUnits="userSpaceOnUse">
<stop offset="0.12" stop-color="#0A2D51"/>
<stop offset="0.56" stop-color="#0A2D51"/>
<stop offset="1" stop-color="#0A2D51"/>
</linearGradient>
</defs>
</svg>
