<svg width="79" height="125" viewBox="0 0 79 125" fill="none" xmlns="http://www.w3.org/2000/svg">
<path opacity="0.15" d="M3.14432 113.907L0.937752 115.575L9.65927 123.35L23.2007 124.466L36.8378 122.176L48.9893 124.873L57.3749 117.245L69.8902 116.207L79 109.161L71.7916 100.338C71.7916 100.338 42.16 99.1055 42.1261 99.2011C42.0922 99.2966 23.9435 107.741 23.9435 107.741L7.87182 110.564L3.14432 113.907Z" fill="black"/>
<path d="M70.4925 88.707C69.8762 91.7888 70.6836 95.7274 70.6836 95.7274L70.021 95.3422C69.5526 91.0061 70.4925 88.707 70.4925 88.707Z" fill="#E04048"/>
<path opacity="0.15" d="M70.4925 88.707C69.8762 91.7888 70.6836 95.7274 70.6836 95.7274L70.021 95.3422C69.5526 91.0061 70.4925 88.707 70.4925 88.707Z" fill="black"/>
<path opacity="0.15" d="M70.3454 95.4993C70.3454 95.4993 70.3454 95.5209 70.3454 95.5332L70.0187 95.3422C69.5503 91.0061 70.4902 88.707 70.4902 88.707C69.9756 90.2017 70.0095 93.8136 70.3454 95.4993Z" fill="black"/>
<path d="M70.6798 95.7274C70.8836 93.9357 71.3315 92.1802 72.0112 90.5099C73.0682 88.0938 74.3965 87.0151 74.3965 87.0151C74.3965 87.0151 72.7724 87.7579 71.441 90.3527C70.6493 91.8859 70.1003 93.5327 69.8138 95.2343L70.6798 95.7274Z" fill="#E04048"/>
<path opacity="0.2" d="M70.6798 95.7274C70.8836 93.9357 71.3315 92.1802 72.0112 90.5099C73.0682 88.0938 74.3965 87.0151 74.3965 87.0151C74.3965 87.0151 72.7724 87.7579 71.441 90.3527C70.6493 91.8859 70.1003 93.5327 69.8138 95.2343L70.6798 95.7274Z" fill="black"/>
<path opacity="0.1" d="M70.2296 95.4624L69.8135 95.2251C70.1029 93.5263 70.6539 91.8827 71.4469 90.3527C72.7782 87.7579 74.4023 87.0151 74.4023 87.0151C72.8183 88.0352 70.7073 91.379 70.2296 95.4624Z" fill="black"/>
<path d="M70.6786 95.7271C70.6786 95.7271 71.144 93.4219 74.0039 91.502C72.2606 92.2675 70.8469 93.6288 70.016 95.3419L70.6786 95.7271Z" fill="#E04048"/>
<path opacity="0.1" d="M70.3438 95.4991V95.5237L70.0356 95.3419C70.8664 93.6288 72.2801 92.2675 74.0234 91.502C72.6829 92.2724 71.0618 93.5791 70.3438 95.4991Z" fill="black"/>
<path d="M10.3206 102.113C10.8076 104.603 10.1665 107.771 10.1665 107.771L10.7028 107.463C11.0818 103.965 10.3206 102.113 10.3206 102.113Z" fill="#E04048"/>
<path opacity="0.15" d="M10.3206 102.113C10.8076 104.603 10.1665 107.771 10.1665 107.771L10.7028 107.463C11.0818 103.965 10.3206 102.113 10.3206 102.113Z" fill="black"/>
<path opacity="0.15" d="M10.4436 107.587C10.4436 107.587 10.4436 107.605 10.4436 107.614L10.7086 107.46C11.0877 103.965 10.3265 102.113 10.3265 102.113C10.7425 103.318 10.7148 106.227 10.4436 107.587Z" fill="black"/>
<path d="M10.1665 107.771C10.0044 106.323 9.64354 104.905 9.09402 103.555C8.24344 101.611 7.17097 100.742 7.17097 100.742C7.17097 100.742 8.48382 101.336 9.55629 103.429C10.1948 104.662 10.6378 105.986 10.8691 107.355L10.1665 107.771Z" fill="#E04048"/>
<path opacity="0.2" d="M10.1665 107.771C10.0044 106.323 9.64354 104.905 9.09402 103.555C8.24344 101.611 7.17097 100.742 7.17097 100.742C7.17097 100.742 8.48382 101.336 9.55629 103.429C10.1948 104.662 10.6378 105.986 10.8691 107.355L10.1665 107.771Z" fill="black"/>
<path opacity="0.1" d="M10.5363 107.562L10.8691 107.368C10.6378 105.999 10.1948 104.674 9.55629 103.442C8.48382 101.349 7.17097 100.754 7.17097 100.754C8.44992 101.571 10.1511 104.268 10.5363 107.562Z" fill="black"/>
<path d="M10.1669 107.771C10.1669 107.771 9.79399 105.922 7.4888 104.366C8.89105 104.98 10.03 106.072 10.7031 107.448L10.1669 107.771Z" fill="#E04048"/>
<path opacity="0.1" d="M10.4437 107.586V107.608L10.6934 107.46C10.0202 106.085 8.88128 104.993 7.47903 104.378C8.55766 104.985 9.86435 106.039 10.4437 107.586Z" fill="black"/>
<path d="M3.68413 111.942L3.40061 115.332L11.817 122.22L23.8916 122.873L37.5286 120.472L46.0868 123.193C46.0868 123.193 55.5787 116.192 55.8869 115.997C56.1951 115.803 69.225 112.94 69.225 112.94L76.2207 107.772L72.3623 96.4155L3.68413 111.942Z" fill="#455A64"/>
<path d="M37.5336 120.472L38.6708 114.863L44.5293 114.016L46.0918 123.193L37.5336 120.472Z" fill="#263238"/>
<path d="M46.0933 123.193L44.5309 114.015L52.1059 101.438L55.875 115.997L46.0933 123.193Z" fill="#37474F"/>
<path d="M11.8206 122.218L23.8982 122.871L24.4961 107.771L15.3154 109.875L11.8206 122.218Z" fill="#37474F"/>
<path d="M23.898 122.873L37.9141 118.604L37.535 120.472L23.898 122.873Z" fill="#37474F"/>
<path d="M3.68238 111.941L11.8184 122.219L3.39886 115.322L3.68238 111.941Z" fill="#37474F"/>
<path d="M69.2109 112.94L65.2785 98.415L60.5665 99.4967L58.5879 115.322L69.2109 112.94Z" fill="#37474F"/>
<path d="M69.2113 112.94L65.2789 98.4156L72.3486 96.4155L76.207 107.772L69.2113 112.94Z" fill="#263238"/>
<path d="M3.08206 111.846C4.12371 109.997 4.99894 109.337 6.33028 108.286C6.33028 108.286 13.9485 106.067 14.1766 105.944C14.4046 105.821 31.709 102.631 31.709 102.631L51.7069 92.8403H66.6321C69.6615 93.5769 72.4474 95.1825 72.9066 95.7557L73.0176 96.5416L71.3103 99.3152L65.9756 101.389L60.1541 104.48L53.6207 107.667L44.8622 116.12H38.6985L24.214 118.872L12.4692 117.566C8.55843 115.812 4.52434 114.046 3.20533 112.635L3.08206 111.846Z" fill="#E04048"/>
<path opacity="0.2" d="M3.08206 111.846C4.12371 109.997 4.99894 109.337 6.33028 108.286C6.33028 108.286 13.9485 106.067 14.1766 105.944C14.4046 105.821 31.709 102.631 31.709 102.631L51.7069 92.8403H66.6321C69.6615 93.5769 72.4474 95.1825 72.9066 95.7557L73.0176 96.5416L71.3103 99.3152L65.9756 101.389L60.1541 104.48L53.6207 107.667L44.8622 116.12H38.6985L24.214 118.872L12.4692 117.566C8.55843 115.812 4.52434 114.046 3.20533 112.635L3.08206 111.846Z" fill="black"/>
<path opacity="0.1" d="M66.0742 101.333L65.8677 100.581L60.0462 103.684L59.9229 104.587L66.0742 101.333Z" fill="black"/>
<path opacity="0.2" d="M65.8647 100.581L71.1993 98.5103L72.9066 95.7397L73.0176 96.5256L71.3103 99.2992L66.0712 101.333L65.8647 100.581Z" fill="black"/>
<path opacity="0.1" d="M71.3103 99.2992L71.1993 98.5103L72.9066 95.7397L73.0176 96.5256L71.3103 99.2992Z" fill="black"/>
<path opacity="0.1" d="M53.5121 106.869L53.623 107.658L44.8645 116.111L44.7536 115.323L53.5121 106.869Z" fill="black"/>
<path opacity="0.2" d="M38.6904 116.111L38.5795 115.322H44.7523L44.8633 116.111H38.6904Z" fill="black"/>
<path opacity="0.2" d="M24.2012 118.862L24.0902 118.073L12.3455 116.767L12.4564 117.556L24.2012 118.862Z" fill="black"/>
<path d="M66.6317 92.8247C69.6611 93.5613 72.4471 95.1669 72.9062 95.7401L71.1989 98.5137L65.8643 100.585L60.0428 103.688L53.5093 106.872L44.7508 115.325H38.5872L24.1027 118.077L12.3579 116.77C8.45018 115.02 4.4161 113.251 3.11249 111.839C4.15414 109.99 5.02938 109.331 6.36072 108.28C6.36072 108.28 13.979 106.061 14.207 105.938C14.4351 105.815 31.7086 102.631 31.7086 102.631L51.7065 92.8401L66.6317 92.8247Z" fill="#E04048"/>
<path opacity="0.1" d="M66.6317 92.8247C69.6611 93.5613 72.4471 95.1669 72.9062 95.7401L71.1989 98.5137L65.8643 100.585L60.0428 103.688L53.5093 106.872L44.7508 115.325H38.5872L24.1027 118.077L12.3579 116.77C8.45018 115.02 4.4161 113.251 3.11249 111.839C4.15414 109.99 5.02938 109.331 6.36072 108.28C6.36072 108.28 13.979 106.061 14.207 105.938C14.4351 105.815 31.7086 102.631 31.7086 102.631L51.7065 92.8401L66.6317 92.8247Z" fill="white"/>
<path d="M7.43107 109.741L11.9028 112.94L19.709 112.961L29.3828 114.863L40.3602 112.302L47.1094 106.622L37.8393 101.611L21.5581 88.085L19.4131 93.5151L16.7196 93.6168L16.1156 97.9714L12.553 101.774L11.8196 105.947L7.43107 109.741Z" fill="#455A64"/>
<path d="M21.5581 88.085L19.4131 93.5151L25.0898 91.0189L21.5581 88.085Z" fill="#263238"/>
<path d="M11.9028 112.939L11.8195 105.947L12.553 101.774L19.709 112.961L11.9028 112.939Z" fill="#37474F"/>
<path d="M16.1157 97.9717V102.111L18.9201 106.385L19.7091 112.962L21.666 104.462L17.4254 101.334L16.1157 97.9717Z" fill="#37474F"/>
<path d="M21.6679 104.461L25.1689 111.158L29.3848 114.863L19.711 112.961L21.6679 104.461Z" fill="#263238"/>
<path d="M25.168 111.159L30.9063 108.179L40.3613 112.302L29.3839 114.863L25.168 111.159Z" fill="#37474F"/>
<path d="M21.6671 104.462L19.7102 99.9748L20.6871 97.7744L27.5996 101.118L25.1681 111.159L21.6671 104.462Z" fill="#37474F"/>
<path d="M40.3602 112.302L38.5789 102.012L47.1094 106.622L40.3602 112.302Z" fill="#263238"/>
<path d="M30.9063 108.178L32.1637 101.657L38.58 102.011L40.3613 112.301L30.9063 108.178Z" fill="#37474F"/>
<path d="M30.9063 108.179L35.6338 113.405L40.3613 112.302L30.9063 108.179Z" fill="#263238"/>
<path d="M15.765 93.617C15.765 93.617 18.1503 91.6231 22.4464 90.4705L20.4648 89.1514L20.6836 88.4056C20.6836 88.4056 22.6929 87.1945 27.3711 86.2021L30.906 91.2286L38.9556 93.503L43.3534 97.5093L50.2012 97.2474L47.1194 106.613L38.5982 104.061H31.6333L26.7024 104.634L18.0456 99.1519L15.54 94.3535L15.765 93.617Z" fill="#E04048"/>
<path opacity="0.2" d="M15.765 93.617C15.765 93.617 18.1503 91.6231 22.4464 90.4705L20.4648 89.1514L20.6836 88.4056C20.6836 88.4056 22.6929 87.1945 27.3711 86.2021L30.906 91.2286L38.9556 93.503L43.3534 97.5093L50.2012 97.2474L49.819 98.4061L47.1101 106.638L38.5889 104.086H31.624L26.6931 104.659L18.0363 99.1766L15.5308 94.3782L15.765 93.617Z" fill="black"/>
<path opacity="0.2" d="M20.6841 88.4053L20.4653 89.1511L22.4469 90.4732L23.4238 90.2328L20.6841 88.4053Z" fill="black"/>
<path d="M23.4274 90.2332L20.6846 88.4056C20.6846 88.4056 22.6939 87.1945 27.3721 86.2021L30.9069 91.2286L38.9566 93.503L43.3544 97.5093L49.8262 98.4061L47.1111 106.638L38.8087 103.337H31.85L26.9191 103.898L18.2623 98.4154L15.7568 93.617C15.7568 93.617 18.515 91.318 23.4274 90.2332Z" fill="#E04048"/>
<path opacity="0.1" d="M23.4274 90.2332L20.6846 88.4056C20.6846 88.4056 22.6939 87.1945 27.3721 86.2021L30.9069 91.2286L38.9566 93.503L43.3544 97.5093L49.8262 98.4061L47.1111 106.638L38.8087 103.337H31.85L26.9191 103.898L18.2623 98.4154L15.7568 93.617C15.7568 93.617 18.515 91.318 23.4274 90.2332Z" fill="white"/>
<path opacity="0.2" d="M18.269 98.415L18.0533 99.1608L26.707 104.643L26.9258 103.898L18.269 98.415Z" fill="black"/>
<path opacity="0.2" d="M38.5882 104.07L38.807 103.324L47.1094 106.622L38.5882 104.07Z" fill="black"/>
<path opacity="0.2" d="M48.2797 100.52L40.9141 100.048L43.2317 97.4347L51.7066 93.2866H66.6318C67.2482 93.4345 67.8307 93.6164 68.3977 93.8167L69.3223 97.2899L64.6472 100.017L57.673 102.649L48.2797 100.52Z" fill="black"/>
<path d="M23.0404 87.3879V87.391L26.9975 93.0215L35.9963 95.5671L40.9149 100.048L48.5763 99.7552L57.4766 101.493L68.1797 96.5656L65.3598 80.1765L29.1917 76.8481L27.7063 82.8669L24.7262 83.5418L23.0404 87.3879Z" fill="#455A64"/>
<path d="M40.916 100.048L47.3169 91.3852L47.81 85.0151L50.3926 94.0079L48.5774 99.7554L40.916 100.048Z" fill="#37474F"/>
<path d="M55.8299 95.682L57.4756 101.497L64.2125 98.81L64.6562 91.0099L61.6361 85.5859L53.5155 89.7248L55.8299 95.682Z" fill="#37474F"/>
<path d="M68.1777 96.5658L64.2145 98.8094L64.6583 91.0093L61.6381 85.8904L65.361 80.1768L68.1777 96.5658Z" fill="#263238"/>
<path d="M48.5743 99.7554L50.3895 94.0079L47.807 85.0151L53.5145 89.7241L55.8289 95.6813L57.4746 101.497L48.5743 99.7554Z" fill="#263238"/>
<path d="M31.638 87.203L28.8459 85.1382L27.7087 82.8669L29.1941 76.8481L32.2852 80.7805L31.638 87.203Z" fill="#37474F"/>
<path d="M35.9961 95.5673L31.6353 87.2033L32.2825 80.7808L35.5862 82.8271L35.9961 95.5673Z" fill="#263238"/>
<path d="M31.6367 87.2027L29.9972 90.2075L23.0415 87.3876L24.7242 83.5415L31.6367 87.2027Z" fill="#37474F"/>
<path d="M26.9944 93.0248L29.9961 90.208L23.0404 87.3882L26.9944 93.0248Z" fill="#263238"/>
<path d="M46.5549 93.9585C46.7768 96.7876 45.6611 99.8663 45.6611 99.8663H46.296C47.162 96.0295 46.5549 93.9585 46.5549 93.9585Z" fill="#E04048"/>
<path opacity="0.15" d="M46.5549 93.9585C46.7768 96.7876 45.6611 99.8663 45.6611 99.8663H46.296C47.162 96.0295 46.5549 93.9585 46.5549 93.9585Z" fill="black"/>
<path opacity="0.15" d="M45.9937 99.8575H46.3019C47.1678 96.0207 46.5607 93.9497 46.5607 93.9497C46.8658 95.3519 46.4652 98.3906 45.9937 99.8575Z" fill="black"/>
<path d="M45.6621 99.8574C45.6551 98.3507 45.4351 96.8525 45.0087 95.4073C44.3091 93.136 43.2305 92.0327 43.2305 92.0327C43.2305 92.0327 44.6112 92.8648 45.5357 95.3241C46.088 96.7765 46.4113 98.3058 46.4941 99.8574H45.6621Z" fill="#E04048"/>
<path opacity="0.5" d="M45.6621 99.8574C45.6551 98.3507 45.4351 96.8525 45.0087 95.4073C44.3091 93.136 43.2305 92.0327 43.2305 92.0327C43.2305 92.0327 44.6112 92.8648 45.5357 95.3241C46.088 96.7765 46.4113 98.3058 46.4941 99.8574H45.6621Z" fill="white"/>
<path opacity="0.1" d="M46.0997 99.8574H46.4941C46.4113 98.3058 46.088 96.7765 45.5357 95.3241C44.6112 92.8586 43.2305 92.0327 43.2305 92.0327C44.5434 93.1206 46.0935 96.1593 46.0997 99.8574Z" fill="black"/>
<path d="M45.6581 99.8571C45.6581 99.8571 45.4794 98.1067 43.1156 96.0942C44.6059 96.9097 45.7387 98.2513 46.293 99.8571H45.6581Z" fill="#E04048"/>
<path opacity="0.1" d="M45.9946 99.8571H46.3027C45.7485 98.2513 44.6156 96.9097 43.1254 96.0942C44.2318 96.9263 45.5477 98.0728 45.9946 99.8571Z" fill="black"/>
<path d="M27.7529 76.5036C29.7227 75.3577 31.7582 74.3287 33.8488 73.4218L43.5318 71.5049L59.4432 73.6005C59.4432 73.6005 63.881 76.4358 66.0938 80.1062V81.0092L62.7222 86.4024L53.5169 89.7245L43.3962 86.1435L35.7194 85.7829L29.7561 82.5224V81.6194L30.1845 80.0323L27.7529 77.4065V76.5036Z" fill="#E04048"/>
<path opacity="0.1" d="M27.7529 76.5036C29.7227 75.3577 31.7582 74.3287 33.8488 73.4218L43.5318 71.5049L59.4432 73.6005C59.4432 73.6005 63.881 76.4358 66.0938 80.1062V81.0092L62.7222 86.4024L53.5169 89.7245L43.3962 86.1435L35.7194 85.7829L29.7561 82.5224V81.6194L30.1845 80.0323L27.7529 77.4065V76.5036Z" fill="black"/>
<path d="M66.0938 80.1062L62.7222 85.4994L53.5169 88.8185L43.3962 85.2405L35.7194 84.8799L29.7561 81.6194L30.3971 79.2926L27.7529 76.519C29.7227 75.3731 31.7582 74.3441 33.8488 73.4372L43.5318 71.5049L59.4432 73.6005C59.4432 73.6005 63.881 76.4358 66.0938 80.1062Z" fill="#E04048"/>
<path opacity="0.2" d="M66.0938 80.1062L62.7222 85.4994L53.5169 88.8185L43.3962 85.2405L35.7194 84.8799L29.7561 81.6194L30.3971 79.2926L27.7529 76.519C29.7227 75.3731 31.7582 74.3441 33.8488 73.4372L43.5318 71.5049L59.4432 73.6005C59.4432 73.6005 63.881 76.4358 66.0938 80.1062Z" fill="white"/>
<path opacity="0.2" d="M27.7542 76.5029L30.3984 79.292L30.1858 80.0316L27.7542 77.4059V76.5029Z" fill="black"/>
<path opacity="0.2" d="M35.7216 85.7829V84.8799L43.3984 85.2405V86.1434L35.7216 85.7829Z" fill="black"/>
<path opacity="0.1" d="M43.3969 85.2397L53.5176 88.8208V89.7238L43.3969 86.1427V85.2397Z" fill="black"/>
<path opacity="0.3" d="M62.7222 86.4026V85.4996L66.0938 80.1064V81.0094L62.7222 86.4026Z" fill="black"/>
<path d="M23.9106 83.971L25.4423 82.8276L27.7074 82.8677L28.8446 85.139L31.6367 87.2038L23.51 85.5119L23.9106 83.971Z" fill="#E04048"/>
<path opacity="0.2" d="M23.9106 83.9707L23.51 85.5116L31.6367 87.2035L26.5425 85.0709L23.9106 83.9707Z" fill="black"/>
<path d="M27.7074 82.8677L28.8446 85.139L31.6367 87.2038L25.2944 85.0157L23.9106 83.971L25.4423 82.8276L27.7074 82.8677Z" fill="#E04048"/>
<path opacity="0.1" d="M27.7074 82.8677L28.8446 85.139L31.6367 87.2038L25.2944 85.0157L23.9106 83.971L25.4423 82.8276L27.7074 82.8677Z" fill="white"/>
<path opacity="0.15" d="M60.1263 76.6042C64.373 78.6782 64.8507 80.7245 61.0508 82.589C57.251 84.4535 48.9732 83.9358 44.8652 83.794C40.7047 83.6492 38.2239 83.3841 36.3779 83.0852C34.3377 82.7585 29.5023 80.9803 31.8106 79.6675C34.4671 78.1543 40.8157 79.2977 45.1394 78.4779C49.4632 77.6582 49.3708 76.2559 52.2615 75.6303C54.9182 75.065 57.6877 75.4079 60.1263 76.6042Z" fill="black"/>
<path d="M38.4753 73.4334C39.1564 72.9496 39.708 72.7616 39.8097 73.1253C39.9114 73.4889 39.705 74.5922 39.705 74.5922L39.3444 75.5938L39.292 76.4968C39.292 76.4968 39.067 77.0361 39.0547 77.0761C39.0424 77.1162 38.3767 75.5938 38.3767 75.5938C38.3767 75.5938 37.5261 73.9173 38.4753 73.4334Z" fill="black"/>
<path d="M56.0157 72.2037C56.0157 72.2037 52.0093 65.6425 49.9846 61.7255C48.4899 58.8348 48.3666 58.2831 48.0523 56.4217C47.3773 52.4154 47.2171 51.4908 47.2171 51.4908L45.5899 59.4388C45.7532 60.3171 46.0891 62.0553 46.0614 63.0692C45.9612 65.0447 45.7088 67.0095 45.3064 68.9462C44.9104 71.1298 44.396 73.2903 43.7655 75.418C43.4388 75.6214 42.5112 75.6214 41.7099 75.5629C40.9304 75.4805 40.1637 75.3046 39.4263 75.0389C39.4263 75.0389 39.1797 65.5747 39.1366 62.9737C39.0904 59.8518 39.078 58.6252 39.0534 56.9117C39.0164 54.1813 38.813 50.2211 39.1427 45.2224C39.8023 35.2774 42.2708 30.8335 42.2708 30.8335L53.8337 29.7856C54.6381 33.1756 56.6074 33.6595 56.6074 38.2452C56.6074 39.2869 55.9571 41.327 55.8647 42.9357C55.5565 48.1748 54.7275 56.357 54.7275 56.357C55.9386 57.5497 56.8169 58.6191 57.572 61.2879C58.0435 62.9305 59.4704 68.1141 59.8926 69.5656C58.1236 69.9632 56.0157 72.2037 56.0157 72.2037Z" fill="#455A64"/>
<path d="M45.7573 36.7476L46.0655 36.7168C46.2535 38.532 46.6018 40.5968 46.8391 40.7694C47.2459 41.0776 48.8022 41.3672 49.1566 41.2964C49.511 41.2255 49.8346 40.9604 50.4941 40.1592C50.9594 39.5983 50.9286 39.2346 50.8608 38.4334C50.8331 38.1252 50.8054 37.7954 50.7961 37.3701H51.1043C51.1043 37.7862 51.1413 38.119 51.1659 38.4149C51.2337 39.2192 51.2769 39.7031 50.7314 40.3626C50.0164 41.2286 49.662 41.5183 49.2121 41.5953C49.1475 41.6008 49.0825 41.6008 49.0179 41.5953C48.4015 41.5953 47.061 41.2871 46.6572 41.0005C46.195 40.6862 45.8498 37.666 45.7573 36.7476Z" fill="#37474F"/>
<path d="M40.8379 36.935L41.1461 37.0305C40.1414 40.0507 40.4311 42.1956 41.9504 43.114C42.3442 40.9451 42.8472 38.7974 43.4574 36.6792L43.7656 36.7624C41.6669 44.0355 41.1954 49.8139 41.1153 56.7942C41.0536 62.1011 40.992 71.2294 40.9643 75.4638L40.6561 75.3991C40.6838 71.1369 40.7455 62.0702 40.8071 56.788C40.8595 52.0728 41.0968 47.8939 41.8888 43.4345C40.1322 42.473 39.7593 40.1709 40.8379 36.935Z" fill="#37474F"/>
<path d="M56.4145 39.703C56.2163 39.8776 55.9799 40.0033 55.7242 40.0697C55.2373 40.0697 54.4637 39.3609 54.2573 38.837C54.1644 38.5373 54.1136 38.2262 54.1063 37.9125C54.081 37.4474 54.015 36.9854 53.909 36.5318L54.2172 36.4609C54.3271 36.9297 54.3962 37.4071 54.4237 37.8878C54.4297 38.1737 54.4732 38.4576 54.5531 38.7322C54.7103 39.1452 55.3883 39.7616 55.7119 39.7616C56.011 39.6271 56.2802 39.4343 56.5039 39.1945C56.4854 39.3455 56.4454 39.552 56.4145 39.703Z" fill="#37474F"/>
<path d="M50.386 43.1515C50.2381 47.2534 50.7281 54.9148 51.1102 57.2107C51.4184 59.1769 56.0812 68.0155 57.582 70.8138L57.3355 71.008C55.8624 68.2498 51.1534 59.3125 50.8144 57.26C50.4322 54.9548 49.9391 47.2595 50.0871 43.1392L50.386 43.1515Z" fill="#37474F"/>
<path d="M52.3794 35.8447C53.1067 37.0929 53.4858 39.2347 52.3794 41.5276L52.102 41.3951C53.1591 39.2131 52.8016 37.1792 52.1174 35.9988L52.3794 35.8447Z" fill="#37474F"/>
<path d="M47.2182 51.4885L48.8392 43.1522C48.8392 43.1522 52.0905 42.844 52.6699 39.9102C52.6699 41.673 51.8841 43.1522 49.8408 43.8764L47.8931 51.5502L48.0534 56.4317L47.2182 51.4885Z" fill="#37474F"/>
<path d="M31.8195 79.5688C31.6284 79.538 31.613 80.2561 31.6654 80.4934C31.7178 80.7307 32.4451 81.5658 33.8227 81.9357C35.2003 82.3055 37.3329 82.1206 38.1588 82.1391C38.9847 82.1576 39.7644 82.5859 40.9047 82.8016C41.9217 82.9927 43.3208 82.8171 43.8293 82.3856C43.9225 82.2864 43.9927 82.1678 44.0348 82.0384C44.0769 81.9089 44.0898 81.7718 44.0728 81.6367C44.0913 81.1067 44.0481 80.9957 43.9865 80.9957L31.8195 79.5688Z" fill="#263238"/>
<path d="M44.0741 79.8253C44.1349 80.3396 44.1089 80.8605 43.9971 81.3662C43.7998 81.7514 43.2544 81.9363 42.8784 82.0226C41.8799 82.2476 41.1402 82.1459 40.077 81.8685C39.3926 81.6597 38.6841 81.5406 37.9691 81.5141C37.1154 81.5141 35.9351 81.5788 35.0906 81.4401C34.3719 81.3554 33.6703 81.161 33.0104 80.8638C32.4619 80.5865 31.9318 80.2475 31.8116 79.6681C31.8048 79.2825 31.9176 78.9042 32.1345 78.5852C32.3513 78.2663 32.6616 78.0223 33.0227 77.8868C33.6638 77.5786 34.4743 77.6187 35.18 77.6002C36.0676 77.5786 36.3973 77.6526 37.3003 77.4646C37.7749 77.366 38.4313 77.594 38.6779 77.0886C38.9706 76.4907 38.8166 75.3227 38.9429 74.6848C38.9471 74.6318 38.9625 74.5802 38.988 74.5335C39.0135 74.4867 39.0485 74.4459 39.0908 74.4136C39.2264 74.3396 39.399 74.4383 39.51 74.5307C40.0806 74.9362 40.74 75.1993 41.433 75.2981C43.3345 75.6371 43.8985 74.9899 43.8985 74.9899L44.0125 74.5954C44.0125 74.5954 44.4254 74.6848 44.2313 75.5816C44.0599 76.3195 43.9568 77.0715 43.9231 77.8283C43.8835 78.4977 43.9343 79.1694 44.0741 79.8253V79.8253Z" fill="#37474F"/>
<path d="M35.5206 77.594C34.8302 77.8683 34.9689 79.0702 34.9689 79.0702C35.7044 79.2277 36.4621 79.2528 37.2063 79.1442C38.4884 78.8853 39.0554 78.0532 39.0831 77.0116C39.1109 75.9699 38.4421 74.7033 38.2634 74.2842C38.1853 74.1419 38.1636 73.9756 38.2024 73.818C38.2412 73.6605 38.3378 73.5233 38.4729 73.4336C37.8566 73.8034 37.8104 74.2225 37.9829 74.7279C38.1555 75.2334 38.436 76.2689 38.3065 76.6664C38.1771 77.064 37.1447 77.5355 35.5206 77.594Z" fill="#263238"/>
<path d="M55.9057 71.812C55.5267 72.3544 55.1014 72.7366 56.1892 73.4485C57.0275 73.997 57.083 74.4408 57.348 75.0294C57.613 75.618 57.5668 76.8045 57.5668 76.8045C57.5668 76.8045 58.9844 74.6226 58.5561 73.2296C58.1277 71.8367 55.9057 71.812 55.9057 71.812Z" fill="#263238"/>
<path d="M60.5091 70.5243C60.7803 70.9126 61.4059 71.2423 61.9237 71.5597C62.2904 71.7816 62.6664 72.0004 62.7773 72.4134C62.7773 72.4596 62.5647 72.7216 62.5709 72.7678C62.5914 72.9732 62.5852 73.1804 62.5524 73.3842C62.4753 74.0899 62.0932 74.6169 62.0161 75.3195C61.9904 75.5996 61.9409 75.8769 61.8682 76.1486C61.8096 76.4801 61.7848 76.8167 61.7942 77.1532C61.7758 77.5045 61.7542 77.859 61.7388 78.2103C61.7233 78.3579 61.7244 78.5067 61.7419 78.6541C61.7758 78.802 59.3935 80.0224 58.4351 80.5032C58.3796 80.5309 58.3241 80.5525 58.2625 80.5771C57.676 80.7397 57.0503 80.6828 56.5028 80.4169C54.5766 79.7358 54.6907 79.0393 54.6907 79.0393C54.6907 79.0393 54.626 78.238 55.5967 77.6895C55.7117 77.6205 55.8336 77.5636 55.9604 77.52H55.9789C56.4554 77.339 56.9758 77.3078 57.4705 77.4306C57.5627 77.1452 57.6044 76.8459 57.5937 76.5461C57.6261 76.0967 57.6261 75.6456 57.5937 75.1963C57.5048 74.687 57.3037 74.2038 57.0051 73.7817C56.5952 73.2208 56.1484 72.5151 55.8679 72.1114C55.5597 71.7662 55.5135 70.7708 57.1006 69.6151C58.6231 68.5118 59.7479 68.7306 59.9667 69.1867C60.0955 69.6519 60.2775 70.1007 60.5091 70.5243V70.5243Z" fill="#37474F"/>
<path d="M56.4462 78.1149C56.5705 77.7897 56.8095 77.5211 57.118 77.3599C57.2324 77.3708 57.3457 77.3903 57.457 77.4184C57.266 77.6033 56.5756 77.8745 56.4462 78.1149Z" fill="#263238"/>
<path d="M63.0172 72.823C63.4455 72.9986 63.0172 74.1605 62.6905 75.2638C62.3638 76.3671 62.219 76.743 62.3268 77.6676C62.4347 78.5921 62.5025 79.0174 62.1019 79.3441C61.7012 79.6708 58.5578 80.9682 58.5578 80.9682C59.0155 79.869 59.2883 78.7017 59.3652 77.5135C59.5132 75.4672 59.7011 74.1512 60.712 73.2514C61.0305 72.9942 61.4079 72.8204 61.8104 72.7456C62.2128 72.6708 62.6276 72.6974 63.0172 72.823V72.823Z" fill="#E04048"/>
<path opacity="0.4" d="M63.0172 72.823C63.4455 72.9986 63.0172 74.1605 62.6905 75.2638C62.3638 76.3671 62.219 76.743 62.3268 77.6676C62.4347 78.5921 62.5025 79.0174 62.1019 79.3441C61.7012 79.6708 58.5578 80.9682 58.5578 80.9682C59.0155 79.869 59.2883 78.7017 59.3652 77.5135C59.5132 75.4672 59.7011 74.1512 60.712 73.2514C61.0305 72.9942 61.4079 72.8204 61.8104 72.7456C62.2128 72.6708 62.6276 72.6974 63.0172 72.823V72.823Z" fill="black"/>
<path d="M54.6787 79.027C54.731 79.4245 55.8775 80.2289 57.2273 80.2043C58.5771 80.1796 58.6881 79.8961 58.8884 78.3089C59.0887 76.7218 59.2151 74.5337 59.8931 73.5876C60.5711 72.6415 61.4648 72.0806 62.7838 72.4134C62.9348 72.4843 63.3447 72.888 63.1937 73.2702C63.1937 73.2702 63.1937 72.962 62.6544 72.8172C62.1921 72.6877 61.6405 72.7062 60.8731 73.375C59.9763 74.1608 59.7883 75.9853 59.6958 77.5539C59.6034 79.1225 59.474 80.9439 58.1765 81.0856C56.91 81.1763 55.6591 80.7619 54.6971 79.933C54.6172 79.6371 54.6108 79.326 54.6787 79.027V79.027Z" fill="#263238"/>
<path d="M52.1943 14.3584C53.9725 14.3584 55.8678 14.8761 57.8494 17.8686C59.341 20.1196 60.5587 22.5405 61.4767 25.08C61.8804 26.2665 62.8574 28.3313 62.016 29.1234C61.1747 29.9154 56.9927 29.5517 55.384 28.0601C53.7753 26.5685 53.0695 20.2169 53.0695 20.2169L52.1943 14.3584Z" fill="#FFBDA7"/>
<path d="M29.5789 19.16C27.9794 18.3033 29.508 15.7392 30.7377 13.3046C32.7316 9.37528 34.593 6.48762 35.6963 5.26414C36.2603 4.64778 37.644 3.82493 38.7535 3.33184C39.3236 3.07605 39.6349 2.85724 40.2266 2.86341C40.9107 2.86341 41.6534 2.80177 42.5657 2.7802C43.2961 2.72626 44.0295 2.72626 44.7599 2.7802C44.8756 2.7812 44.9863 2.82769 45.0681 2.90964C45.0951 2.95648 45.1094 3.00963 45.1094 3.06373C45.1094 3.11782 45.0951 3.17097 45.0681 3.21782C45.0109 3.3114 44.9328 3.3905 44.84 3.44895C44.6607 3.57934 44.4635 3.68314 44.2545 3.75713C44.342 3.80426 44.4162 3.87278 44.4701 3.9563C44.524 4.03983 44.5558 4.13565 44.5627 4.23481C44.5627 4.50601 44.2545 4.66627 44.0203 4.7957C43.9904 4.81067 43.9657 4.8343 43.9494 4.8635C43.936 4.90139 43.936 4.94273 43.9494 4.98061C43.9744 5.08109 43.9703 5.18661 43.9375 5.28485C43.9048 5.38308 43.8448 5.46996 43.7645 5.53534C43.604 5.66488 43.4182 5.75936 43.219 5.8127C42.4732 6.06233 41.5487 5.99453 40.8737 6.40133C40.5501 6.65906 40.2546 6.95038 39.9923 7.2704C39.6636 7.6207 39.2602 7.89246 38.812 8.06551C37.7241 8.41991 37.5793 7.92991 37.0276 9.12257C36.476 10.3152 34.7656 16.4604 34.7656 16.4604L29.5789 19.16Z" fill="#FFBDA7"/>
<path d="M38.4196 4.47224C38.4011 4.57702 38.512 4.65406 38.6076 4.66947C38.7036 4.6833 38.8012 4.6833 38.8973 4.66947C39.0908 4.65469 39.2826 4.62272 39.4705 4.57394C39.8464 4.4784 40.1978 4.33047 40.5583 4.26576C40.7345 4.22772 40.9143 4.20912 41.0946 4.21028C41.1788 4.20853 41.2629 4.21891 41.3442 4.2411C41.4127 4.25796 41.4748 4.29436 41.523 4.34588C41.6031 4.42909 41.5692 4.56161 41.4706 4.69413C41.3592 4.82979 41.2283 4.94819 41.0823 5.04545C40.764 5.22798 40.4216 5.36492 40.0653 5.45225C39.8704 5.50585 39.6845 5.58789 39.5136 5.69572C39.3451 5.8183 39.2105 5.98158 39.1222 6.17031C39.0328 6.35214 38.9866 6.54321 38.9157 6.70963C38.847 6.8784 38.7524 7.03541 38.6353 7.17499C38.378 7.44812 38.0618 7.65892 37.7108 7.79135C38.0903 7.70428 38.4414 7.52184 38.7308 7.26128C38.8713 7.12321 38.9879 6.96284 39.076 6.78668C39.1654 6.60793 39.2208 6.42919 39.3102 6.2751C39.389 6.12102 39.5056 5.98952 39.6492 5.89295C39.8029 5.80388 39.9691 5.73843 40.1423 5.6988C40.528 5.6169 40.8983 5.4744 41.2394 5.27659C41.4111 5.16225 41.5639 5.02189 41.6925 4.86055C41.7615 4.76931 41.8099 4.66416 41.8342 4.55236C41.8448 4.48539 41.8404 4.41689 41.8212 4.35185C41.802 4.28681 41.7686 4.22686 41.7233 4.17638C41.6403 4.10152 41.5426 4.04477 41.4365 4.00975C41.3304 3.97473 41.2181 3.96221 41.1069 3.97298C40.9065 3.97588 40.7075 4.00595 40.5152 4.06236C40.1361 4.16714 39.791 4.33356 39.4366 4.45375C39.2616 4.52148 39.0812 4.57407 38.8973 4.61092C38.8071 4.62932 38.7148 4.63554 38.623 4.62941C38.5991 4.6338 38.5746 4.63312 38.551 4.62741C38.5275 4.62169 38.5054 4.61108 38.4862 4.59625C38.467 4.58142 38.4511 4.56271 38.4396 4.54134C38.4282 4.51997 38.4213 4.49643 38.4196 4.47224V4.47224Z" fill="#F0997A"/>
<path d="M41.992 4.12096C41.8212 3.86175 41.7214 3.56227 41.7024 3.25242C41.6835 2.94256 41.7462 2.63316 41.8842 2.35508C42.1276 1.79419 42.6146 1.21173 43.9952 0.56455C45.6378 -0.208985 50.0879 -0.631193 52.1651 2.34584C52.4733 2.77729 47.7982 10.7962 47.9461 12.5158C46.8644 11.2831 43.2926 6.96855 43.2926 6.96855C42.4235 6.55867 41.9027 6.21967 41.7517 5.37834C41.697 4.94434 41.7811 4.50418 41.992 4.12096V4.12096Z" fill="#263238"/>
<path d="M42.5664 6.47852C42.5664 6.47852 41.2998 8.38307 41.4231 8.54641C41.6927 8.77589 41.9814 8.98209 42.286 9.16277L42.5664 6.47852Z" fill="#F0997A"/>
<path d="M44.1793 2.96859C43.3626 3.31376 42.6384 3.89314 42.3302 5.64977C42.247 6.10588 42.5829 6.74689 42.3949 7.35093C41.5998 9.93965 42.3426 12.1524 42.8326 12.6516C43.1654 12.9906 44.9559 13.2033 45.9144 12.9783C47.1039 12.6948 49.7112 11.6346 51.0024 9.83795C52.5218 7.72691 52.9686 4.82384 51.4123 3.59112C49.2242 1.85606 45.0545 2.5957 44.1793 2.96859Z" fill="#FFBDA7"/>
<path d="M50.1734 11.2861L50.4569 14.4142C51.1626 14.633 51.0394 15.6253 50.6233 16.2355L50.7065 17.1601L46.1054 17.573L45.412 12.2877L50.1734 11.2861Z" fill="#FFBDA7"/>
<path d="M42.9331 12.7219C43.3429 12.9684 44.2582 13.1749 45.5156 13.0485L45.4386 12.4014C45.0471 12.5405 44.6438 12.6437 44.2336 12.7095C43.803 12.7773 43.3648 12.7814 42.9331 12.7219V12.7219Z" fill="#F0997A"/>
<path d="M42.9636 3.85884C42.8773 4.99603 43.58 5.38125 44.0761 5.62472C43.8665 6.03648 43.7768 6.49886 43.8173 6.95914C43.9066 7.5416 44.11 8.02236 44.6709 8.23501C45.013 8.36752 45.1209 8.21652 45.2565 7.9484C45.4475 7.56317 45.691 6.97455 46.5231 7.12247C47.4784 7.28889 47.6757 8.74351 47.0809 9.67113C46.9649 9.86652 46.8035 10.031 46.6104 10.1507C46.4172 10.2703 46.198 10.3416 45.9714 10.3584C45.8469 10.3509 45.7254 10.3171 45.6149 10.2592C45.5044 10.2013 45.4074 10.1206 45.3304 10.0225C45.3304 10.0225 45.3304 11.2891 46.9391 12.0965C46.9391 12.0965 48.5417 13.0827 50.2367 12.6482C51.0274 11.8402 51.7743 10.9905 52.4741 10.1026C54.3478 7.61248 54.8717 2.94354 51.8823 1.98818C51.7406 1.94195 49.0224 1.45811 47.6818 1.68C43.5615 2.4258 42.979 3.6616 42.9636 3.85884Z" fill="#263238"/>
<path d="M45.3323 10.0219C45.3323 11.4272 45.9179 12.8726 47.1506 13.6276C47.8571 14.0858 48.7047 14.275 49.539 14.1608C50.4451 14.0283 51.3141 13.6677 52.2356 13.643C54.1309 13.5937 55.8413 15.0268 57.7335 14.9127C58.7553 14.8166 59.7113 14.3664 60.4363 13.6399C61.0527 13.0513 61.5642 12.3209 62.3162 11.9265C63.0682 11.532 63.9989 11.5258 64.8494 11.3317C65.9872 11.0673 67.0108 10.4464 67.771 9.55963C68.3117 8.9617 68.6447 8.20499 68.7202 7.40236C68.7286 7.01027 68.6322 6.62305 68.441 6.28066C68.2497 5.93827 67.9706 5.65312 67.6323 5.45466C67.0499 5.09408 66.1654 4.96465 65.586 4.59791C64.9357 4.19111 64.8525 3.42682 64.2762 2.91832C63.6852 2.45018 62.9641 2.17575 62.2114 2.13246C61.235 2.03749 60.2496 2.15633 59.3238 2.48071C58.279 2.85361 57.262 3.49771 56.1557 3.40525C55.1233 3.3128 54.2634 2.64405 53.4837 2.0246C52.4236 1.18943 51.4836 0.847348 50.7101 0.958293C50.667 0.958293 50.8087 9.55038 48.1923 10.5335C45.5758 11.5166 45.3323 10.0219 45.3323 10.0219Z" fill="#263238"/>
<path d="M55.2387 16.6854C54.7087 15.2431 51.2724 14.3401 51.4851 14.3247C51.0136 14.3617 50.4558 14.4141 50.4558 14.4141C50.7424 14.9842 50.3294 15.3879 49.5867 15.6006C48.6252 15.8779 47.149 15.9796 46.1104 15.3633L45.8022 15.1568C44.9024 15.2848 44.0104 15.4628 43.1303 15.6899C41.5062 16.3063 41.0994 16.858 39.4136 21.2372C38.6956 23.1079 39.1393 25.0463 41.0809 26.1065C41.2257 27.2621 41.3891 29.0804 41.3891 29.0804C40.8532 31.5624 40.4601 34.073 40.2118 36.6C40.2118 36.6 41.235 38.9206 48.3201 38.5292C53.8026 38.2211 56.3574 35.4474 56.3574 35.4474C56.2218 34.1007 55.3712 31.9527 53.6239 27.897C55.6733 22.0631 55.9969 18.7502 55.2387 16.6854Z" fill="#263238"/>
<path d="M50.4556 14.4142C50.4556 14.4142 52.7516 15.4312 53.2138 16.8981L55.3711 16.6269C55.3711 16.6269 53.8918 14.8579 52.0705 14.3248C50.8501 14.2046 50.4556 14.4142 50.4556 14.4142Z" fill="#E04048"/>
<path opacity="0.35" d="M50.4556 14.4142C50.4556 14.4142 52.7516 15.4312 53.2138 16.8981L55.3711 16.6269C55.3711 16.6269 53.8918 14.8579 52.0705 14.3248C50.9364 14.2046 50.4556 14.4142 50.4556 14.4142Z" fill="black"/>
<path d="M45.4789 18.9973C45.4789 18.9973 44.4526 16.0511 43.1151 15.6905C43.9349 15.4152 44.788 15.2514 45.6515 15.2036C46.5424 15.8528 47.2505 16.7212 47.707 17.7245L45.4789 18.9973Z" fill="#E04048"/>
<path opacity="0.35" d="M45.4789 18.9973C45.4789 18.9973 44.4526 16.0511 43.1151 15.6905C43.9349 15.4152 44.788 15.2514 45.6515 15.2036C46.5424 15.8528 47.2505 16.7212 47.707 17.7245L45.4789 18.9973Z" fill="black"/>
<path d="M54.0813 15.1391C55.3941 15.0404 57.4158 16.3441 57.8996 17.3364C58.4081 18.378 60.4822 32.7455 59.3974 34.1631C58.0476 35.9413 51.2152 39.6703 48.1858 39.7627C47.3309 39.7858 46.4843 39.5908 45.7256 39.1962C44.967 38.8015 44.3214 38.2201 43.8497 37.5068C43.2025 36.4529 43.6339 21.5153 44.3951 20.2148C45.634 18.0945 52.4109 15.2654 54.0813 15.1391Z" fill="#E04048"/>
<path opacity="0.2" d="M54.0813 15.1391C55.3941 15.0404 57.4158 16.3441 57.8996 17.3364C58.4081 18.378 60.4822 32.7455 59.3974 34.1631C58.0476 35.9413 51.2152 39.6703 48.1858 39.7627C47.3309 39.7858 46.4843 39.5908 45.7256 39.1962C44.967 38.8015 44.3214 38.2201 43.8497 37.5068C43.2025 36.4529 43.6339 21.5153 44.3951 20.2148C45.634 18.0945 52.4109 15.2654 54.0813 15.1391Z" fill="white"/>
<path opacity="0.1" d="M43.6324 27.8115C43.6571 27.1951 43.6848 26.5787 43.7187 25.9624C43.7187 25.722 43.7433 25.4878 43.7588 25.2536C43.7865 24.7913 43.8173 24.329 43.8481 23.9191C43.8481 23.7065 43.882 23.5 43.8974 23.3028C43.9252 22.9946 43.9498 22.7172 43.9776 22.4491C44.0053 22.181 44.0361 21.9314 44.0669 21.7033C44.0669 21.6263 44.0854 21.5523 44.0978 21.4814C44.1358 21.0411 44.2397 20.6089 44.4059 20.1994C44.4417 20.137 44.4819 20.0773 44.5261 20.0207C44.5395 19.9994 44.5539 19.9788 44.5693 19.959L44.6679 19.8357L44.7295 19.7649C44.7634 19.7248 44.8004 19.6878 44.8374 19.6477L44.9083 19.5738L45.0839 19.4074L45.2041 19.2964L45.2904 19.2255L45.4106 19.1146L45.4815 19.0591L45.6479 18.9297C46.8375 19.3488 46.9762 19.281 47.0101 19.3026C47.044 19.3242 48.2983 19.9929 48.2829 21.8235L48.4493 29.2199L48.4678 29.9225C48.4678 30.9025 49.5341 39.9045 46.745 39.547H46.6341C44.7511 38.9954 44.1686 38.0061 43.8389 37.5099C43.77 37.3554 43.7253 37.1911 43.7064 37.023C43.7064 36.9275 43.6786 36.8196 43.6632 36.7148C43.6632 36.6573 43.6571 36.5957 43.6447 36.5299C43.6262 36.3388 43.6108 36.1231 43.5985 35.8889C43.5985 35.8088 43.5985 35.7286 43.5985 35.6454C43.5369 34.4127 43.5245 32.6869 43.5554 30.8409C43.5554 30.4742 43.5554 30.0982 43.5769 29.7222C43.5769 29.4726 43.5769 29.2199 43.5985 28.9702C43.5985 28.8439 43.5985 28.7175 43.5985 28.5912C43.6139 28.3107 43.6232 28.0518 43.6324 27.8115Z" fill="black"/>
<path opacity="0.4" d="M44.1791 21.0407C44.2161 20.7518 44.2939 20.4696 44.4102 20.2025C45.6429 18.0945 52.4229 15.2716 54.0932 15.1391C55.4061 15.0404 57.4278 16.3441 57.9116 17.3364C58.0588 17.7636 58.1681 18.2029 58.2383 18.6493C55.6496 20.1902 48.9528 23.6664 48.2501 23.4538C47.3903 23.1949 44.2438 21.1578 44.1821 21.0438L44.1791 21.0407Z" fill="black"/>
<path d="M51.4734 31.6172C52.8479 30.8868 55.902 28.9545 56.7526 28.5107C56.8924 28.4185 57.0541 28.3649 57.2212 28.3551C57.3884 28.3454 57.5552 28.3799 57.7048 28.4552C57.8281 28.5353 58.2596 28.8127 58.3736 28.8743C58.4645 28.9268 58.5406 29.0016 58.5945 29.0917C58.6484 29.1817 58.6785 29.2841 58.6818 29.389C58.7342 30.9515 58.7865 31.5925 58.7342 32.3506C58.7003 32.8684 58.614 33.3306 57.8713 33.9162C57.1285 34.5017 53.8988 36.4248 52.9404 36.9456C52.0405 37.4325 51.0913 37.8116 50.6783 37.5435C50.5735 37.4726 50.1051 37.1922 49.9818 37.112C49.9173 37.062 49.8662 36.9965 49.8334 36.9217C49.8006 36.8469 49.787 36.7651 49.7938 36.6837C49.7938 35.8824 49.7291 34.1751 49.7106 33.6018C49.686 32.8745 50.0342 32.3876 51.4734 31.6172Z" fill="#E04048"/>
<path opacity="0.3" d="M51.4734 31.6172C52.8479 30.8868 55.902 28.9545 56.7526 28.5107C56.8924 28.4185 57.0541 28.3649 57.2212 28.3551C57.3884 28.3454 57.5552 28.3799 57.7048 28.4552C57.8281 28.5353 58.2596 28.8127 58.3736 28.8743C58.4645 28.9268 58.5406 29.0016 58.5945 29.0917C58.6484 29.1817 58.6785 29.2841 58.6818 29.389C58.7342 30.9515 58.7865 31.5925 58.7342 32.3506C58.7003 32.8684 58.614 33.3306 57.8713 33.9162C57.1285 34.5017 53.8988 36.4248 52.9404 36.9456C52.0405 37.4325 51.0913 37.8116 50.6783 37.5435C50.5735 37.4726 50.1051 37.1922 49.9818 37.112C49.9173 37.062 49.8662 36.9965 49.8334 36.9217C49.8006 36.8469 49.787 36.7651 49.7938 36.6837C49.7938 35.8824 49.7291 34.1751 49.7106 33.6018C49.686 32.8745 50.0342 32.3876 51.4734 31.6172Z" fill="black"/>
<path opacity="0.4" d="M50.5245 33.3707L49.8187 32.9701C50.0067 32.5417 50.4783 32.1441 51.4737 31.6172C52.8482 30.8868 55.9022 28.9545 56.7528 28.5107C56.8927 28.4185 57.0543 28.3649 57.2215 28.3551C57.3887 28.3454 57.5555 28.3799 57.7051 28.4552C57.8284 28.5353 58.2598 28.8127 58.3739 28.8743C58.5094 28.9534 58.6098 29.0813 58.6543 29.2318L50.5245 33.3707Z" fill="black"/>
<path d="M58.6661 29.3887C58.7185 30.9512 58.7709 31.5922 58.7185 32.3503C58.6846 32.8681 58.5983 33.3304 57.8556 33.9159C57.1129 34.5014 53.8832 36.4245 52.9247 36.9453C51.7536 37.5802 50.4593 38.0332 50.4593 37.1148C50.4593 36.3135 50.3946 34.6093 50.3761 34.033C50.3545 33.3149 50.6843 32.8249 52.142 32.0545C53.5164 31.3272 56.5736 29.3949 57.4211 28.948C58.1638 28.5659 58.6661 28.9203 58.6661 29.3887Z" fill="#E04048"/>
<path opacity="0.18" d="M58.6661 29.3887C58.7185 30.9512 58.7709 31.5922 58.7185 32.3503C58.6846 32.8681 58.5983 33.3304 57.8556 33.9159C57.1129 34.5014 53.8832 36.4245 52.9247 36.9453C51.7536 37.5802 50.4593 38.0332 50.4593 37.1148C50.4593 36.3135 50.3946 34.6093 50.3761 34.033C50.3545 33.3149 50.6843 32.8249 52.142 32.0545C53.5164 31.3272 56.5736 29.3949 57.4211 28.948C58.1638 28.5659 58.6661 28.9203 58.6661 29.3887Z" fill="black"/>
<path d="M49.8172 32.9823C49.9682 32.5694 50.6462 32.8406 50.788 33.383C50.9298 33.9254 50.902 34.6465 50.9729 34.8838C51.0438 35.1211 58.5911 30.711 58.8007 30.4614C58.8962 30.3474 58.8284 29.0315 58.5634 28.7972C58.2984 28.563 57.6851 28.1531 57.2721 28.2425C56.8592 28.3319 52.2765 31.0346 51.3828 31.5123C50.4891 31.99 49.7833 32.4584 49.8172 32.9823Z" fill="#E04048"/>
<path opacity="0.1" d="M49.8172 32.9823C49.9682 32.5694 50.6462 32.8406 50.788 33.383C50.9298 33.9254 50.902 34.6465 50.9729 34.8838C51.0438 35.1211 58.5911 30.711 58.8007 30.4614C58.8962 30.3474 58.8284 29.0315 58.5634 28.7972C58.2984 28.563 57.6851 28.1531 57.2721 28.2425C56.8592 28.3319 52.2765 31.0346 51.3828 31.5123C50.4891 31.99 49.7833 32.4584 49.8172 32.9823Z" fill="black"/>
<path d="M58.5645 28.7853C58.7895 28.9671 58.8943 29.7807 58.9159 30.4772C58.9374 31.1737 56.4812 33.6792 55.6707 34.0706C54.8602 34.4619 50.9648 35.3803 50.9217 34.9273C50.8785 34.4743 50.8878 33.445 50.6998 33.1583C50.6566 33.0905 53.3347 31.7191 54.8941 30.9025C56.4535 30.0858 58.355 28.6312 58.5645 28.7853Z" fill="#E04048"/>
<path d="M55.339 32.5908C55.2407 32.6518 55.1603 32.7379 55.1061 32.8403C55.052 32.9426 55.026 33.0575 55.0309 33.1732C55.0276 33.2188 55.0371 33.2645 55.0583 33.305C55.0796 33.3455 55.1116 33.3794 55.1509 33.4027C55.1903 33.426 55.2353 33.438 55.2811 33.4372C55.3268 33.4364 55.3714 33.4229 55.4099 33.3982C55.5085 33.3374 55.5891 33.2513 55.6433 33.1489C55.6974 33.0465 55.7233 32.9315 55.7181 32.8157C55.6996 32.5877 55.5301 32.4891 55.339 32.5908Z" fill="#37474F"/>
<path opacity="0.15" d="M59.207 25.2768C59.0714 24.1396 58.9975 23.363 58.8403 22.4138C58.4797 22.1519 57.9774 21.8252 57.9774 21.8252L54.7477 22.947L51.7244 23.9979L51.0372 24.2352C50.8245 24.3122 50.6057 24.4447 50.3931 24.5033C49.8414 24.6512 49.0432 24.1951 48.6395 23.8869C48.2358 23.5787 47.9892 23.2706 47.4684 23.1627C47.5075 24.19 47.5547 25.2224 47.6102 26.2599C47.6626 27.2307 47.6441 28.2138 47.9461 29.1353C48.0187 29.3689 48.1501 29.5799 48.3276 29.7483C48.5051 29.9166 48.7229 30.0366 48.96 30.0968C49.5364 30.2154 50.131 30.2154 50.7074 30.0968C50.7074 30.0968 50.7598 30.9689 50.843 31.3973C50.9139 31.556 51.0175 31.6978 51.1471 31.8136C51.2767 31.9294 51.4293 32.0165 51.595 32.0691C52.1004 31.9366 52.1836 29.5759 52.1836 29.5759L56.042 27.5204C56.0275 27.8512 56.0545 28.1825 56.1221 28.5066C56.3225 28.8332 56.7138 29.1938 56.8649 29.1568C57.5059 28.9935 57.4535 26.7284 57.4535 26.7284C58.1218 26.3558 58.7162 25.8638 59.207 25.2768V25.2768Z" fill="black"/>
<path d="M54.2172 15.1289C54.9531 15.1141 55.682 15.274 56.3441 15.5954C57.0062 15.9168 57.5827 16.3906 58.0263 16.978C58.7876 18.0628 59.6597 23.5391 59.1512 24.5407C58.6427 25.5423 54.6579 27.8383 52.2541 28.9754C50.3311 29.9 49.351 29.675 48.6052 29.299C48.0444 29.0155 48.0567 28.0879 48.0074 27.4037C47.8749 25.6348 47.7331 22.4728 46.6329 21.4928C45.5327 20.5128 44.4756 20.2354 44.1674 21.0398C44.1674 21.0398 43.8192 19.8779 46.0165 18.6051C49.6192 16.4941 52.4452 15.2398 54.2172 15.1289Z" fill="#E04048"/>
<path opacity="0.1" d="M54.2172 15.1289C54.9531 15.1141 55.682 15.274 56.3441 15.5954C57.0062 15.9168 57.5827 16.3906 58.0263 16.978C58.7876 18.0628 59.6597 23.5391 59.1512 24.5407C58.6427 25.5423 54.6579 27.8383 52.2541 28.9754C50.3311 29.9 49.351 29.675 48.6052 29.299C48.0444 29.0155 48.0567 28.0879 48.0074 27.4037C47.8749 25.6348 47.7331 22.4728 46.6329 21.4928C45.5327 20.5128 44.4756 20.2354 44.1674 21.0398C44.1674 21.0398 43.8192 19.8779 46.0165 18.6051C49.6192 16.4941 52.4452 15.2398 54.2172 15.1289Z" fill="black"/>
<path d="M58.223 17.3447C58.9256 18.9658 59.6159 23.6193 59.1475 24.5346C58.6482 25.5177 54.6573 27.8383 52.2535 28.9755C50.3304 29.9 49.3504 29.6751 48.6046 29.2991C48.0437 29.0155 48.0561 28.0879 48.0067 27.4038C47.9081 26.1063 47.8033 24.0538 47.3226 22.667C49.6247 21.5483 55.7328 18.5682 58.223 17.3447Z" fill="#E04048"/>
<path d="M51.9953 24.9199L50.7256 25.487C50.7256 25.487 51.1201 29.6505 51.1571 31.1791C51.1571 31.1791 51.4653 31.8201 51.7734 31.9095C52.0816 31.9988 52.3898 31.2407 52.4484 30.6767C52.5069 30.1128 52.1679 26.2359 51.9953 24.9199Z" fill="#455A64"/>
<path d="M52.0421 25.2194L50.7477 25.7525C50.7159 25.7686 50.6806 25.7763 50.645 25.7752C50.6094 25.774 50.5746 25.7639 50.544 25.7458C50.5133 25.7277 50.4876 25.7022 50.4694 25.6716C50.4511 25.641 50.4409 25.6063 50.4395 25.5707L50.3717 24.9543C50.3675 24.8827 50.385 24.8115 50.4218 24.75C50.4586 24.6884 50.5131 24.6394 50.5782 24.6092L51.8695 24.0452C51.901 24.0284 51.9362 24.0199 51.9719 24.0205C52.0075 24.0212 52.0425 24.0309 52.0733 24.0488C52.1042 24.0667 52.13 24.0922 52.1482 24.1228C52.1665 24.1535 52.1766 24.1883 52.1777 24.224L52.2455 24.8773C52.2497 24.9481 52.2326 25.0186 52.1963 25.0796C52.1601 25.1406 52.1063 25.1893 52.0421 25.2194V25.2194Z" fill="#37474F"/>
<path d="M51.7926 30.0731C51.6896 30.1282 51.6033 30.2098 51.5426 30.3095C51.4819 30.4092 51.4491 30.5234 51.4474 30.6402C51.442 30.6855 51.4493 30.7314 51.4685 30.7728C51.4876 30.8142 51.5179 30.8495 51.5559 30.8747C51.5939 30.9 51.6382 30.9142 51.6838 30.9157C51.7294 30.9173 51.7745 30.9062 51.8142 30.8836C51.917 30.8287 52.003 30.747 52.0632 30.6472C52.1234 30.5473 52.1556 30.4331 52.1562 30.3166C52.1501 30.0885 51.9868 29.9806 51.7926 30.0731Z" fill="#E0E0E0"/>
<path d="M57.1908 22.0449L55.9581 22.6767C55.9581 22.6767 56.3063 26.8186 56.4234 28.3257C56.4234 28.3257 56.7748 28.942 57.0614 29.0221C57.348 29.1023 57.6562 28.3257 57.6777 27.7678C57.6122 25.8532 57.4497 23.9431 57.1908 22.0449V22.0449Z" fill="#455A64"/>
<path d="M57.2494 22.343L55.9828 22.9409C55.952 22.9558 55.9182 22.9632 55.8839 22.9625C55.8497 22.9618 55.8162 22.9529 55.7861 22.9366C55.756 22.9204 55.7302 22.8972 55.7108 22.869C55.6914 22.8408 55.679 22.8084 55.6746 22.7745L55.576 22.1581C55.5683 22.087 55.5821 22.0152 55.6156 21.952C55.6491 21.8889 55.7008 21.8372 55.764 21.8037L57.0337 21.1873C57.0641 21.1709 57.098 21.1623 57.1325 21.1621C57.167 21.162 57.201 21.1703 57.2315 21.1865C57.262 21.2027 57.288 21.2261 57.3073 21.2547C57.3266 21.2834 57.3384 21.3163 57.3419 21.3507L57.4313 21.9917C57.4393 22.0617 57.4263 22.1325 57.3939 22.1951C57.3616 22.2577 57.3112 22.3092 57.2494 22.343V22.343Z" fill="#37474F"/>
<path d="M56.9991 27.1884C56.9007 27.2502 56.8204 27.3369 56.7663 27.4397C56.7122 27.5426 56.6862 27.6579 56.6909 27.774C56.6883 27.8193 56.6983 27.8645 56.7197 27.9046C56.7412 27.9447 56.7733 27.978 56.8125 28.001C56.8517 28.0239 56.8965 28.0356 56.942 28.0347C56.9874 28.0338 57.0317 28.0204 57.07 27.9959C57.1688 27.9353 57.2496 27.8492 57.3038 27.7468C57.358 27.6443 57.3837 27.5292 57.3782 27.4134C57.3597 27.1884 57.1902 27.0867 56.9991 27.1884Z" fill="#E0E0E0"/>
<path d="M42.5206 31.155C42.5977 31.1088 43.7287 30.1873 43.8612 30.1134C44.0954 29.9809 47.5594 32.1011 47.8676 32.474C48.0925 32.7329 47.8275 36.955 47.7011 37.2601C47.6549 37.371 46.4037 38.1846 46.3575 38.3017C46.2311 38.6099 42.5884 36.4527 42.3511 35.9072C42.1138 35.3617 42.1785 31.3461 42.5206 31.155Z" fill="#E04048"/>
<path opacity="0.18" d="M42.5206 31.155C42.5977 31.1088 43.7287 30.1873 43.8612 30.1134C44.0954 29.9809 47.5594 32.1011 47.8676 32.474C48.0925 32.7329 47.8275 36.955 47.7011 37.2601C47.6549 37.371 46.4037 38.1846 46.3575 38.3017C46.2311 38.6099 42.5884 36.4527 42.3511 35.9072C42.1138 35.3617 42.1785 31.3461 42.5206 31.155Z" fill="black"/>
<path d="M46.5252 33.512C46.7502 33.7739 46.4882 37.9929 46.3588 38.3011C46.2294 38.6093 42.5898 36.452 42.3525 35.9065C42.1152 35.3611 42.1768 31.3455 42.5189 31.1544C42.7531 31.0219 46.2047 33.1391 46.5252 33.512Z" fill="#E04048"/>
<path opacity="0.4" d="M43.8726 30.1134C43.74 30.1873 42.609 31.1119 42.532 31.152C42.7631 31.0225 46.2147 33.1397 46.5383 33.5126L47.8789 32.4741C47.5461 32.0981 44.0975 29.9809 43.8726 30.1134Z" fill="black"/>
<path opacity="0.3" d="M46.5252 33.512C46.7502 33.7739 46.4882 37.9929 46.3588 38.3011C46.2294 38.6093 42.5898 36.452 42.3525 35.9065C42.1152 35.3611 42.1768 31.3455 42.5189 31.1544C42.7531 31.0219 46.2047 33.1391 46.5252 33.512Z" fill="black"/>
<path d="M47.8789 32.4741C47.6231 32.3231 46.8712 32.7823 46.5476 33.0627C46.224 33.3432 45.8942 34.6992 45.0529 34.9519C44.2116 35.2046 42.9973 34.1506 42.7354 33.448C42.4734 32.7453 42.1467 31.2599 42.5474 30.7021C42.948 30.1443 43.6568 29.8176 44.2609 30.1073C44.8649 30.397 47.7834 31.8208 47.8789 32.4741Z" fill="#E04048"/>
<path opacity="0.2" d="M47.8789 32.4741C47.6231 32.3231 46.8712 32.7823 46.5476 33.0627C46.224 33.3432 45.8942 34.6992 45.0529 34.9519C44.2116 35.2046 42.9973 34.1506 42.7354 33.448C42.4734 32.7453 42.1467 31.2599 42.5474 30.7021C42.948 30.1443 43.6568 29.8176 44.2609 30.1073C44.8649 30.397 47.7834 31.8208 47.8789 32.4741Z" fill="black"/>
<path d="M44.0718 33.2529C44.1706 33.3097 44.2516 33.3927 44.3061 33.4928C44.3605 33.5929 44.386 33.7062 44.38 33.8199C44.3822 33.8662 44.3721 33.9122 44.3507 33.9533C44.3293 33.9944 44.2974 34.0291 44.2583 34.0538C44.2191 34.0786 44.1741 34.0925 44.1278 34.0942C44.0815 34.0959 44.0356 34.0852 43.9948 34.0634C43.8943 34.0085 43.8117 33.9259 43.7571 33.8253C43.7024 33.7247 43.6779 33.6105 43.6866 33.4963C43.7112 33.2714 43.8715 33.1604 44.0718 33.2529Z" fill="#37474F"/>
<path d="M42.9285 15.7609C41.6527 15.7394 41.175 16.0506 40.2258 16.2386C38.9345 16.4913 34.0036 15.499 34.0036 15.499C34.0036 15.499 32.0066 15.425 30.7153 16.026C29.2607 16.7009 28.8847 17.4467 28.9186 18.0384C28.9618 18.8674 29.5627 19.3297 31.1006 19.8875C32.3117 20.3158 38.2103 21.9307 40.3768 22.2019C43.5418 22.5902 45.1012 17.4467 42.9285 15.7609Z" fill="#FFBDA7"/>
<path d="M34.9988 15.6872C33.3254 15.4992 31.7968 15.379 30.6503 16.3252C31.0325 15.4191 32.1296 14.7842 35.1621 15.0924L34.9988 15.6872Z" fill="#F0997A"/>
</svg>
