<svg width="1352" height="228" viewBox="0 0 1352 228" fill="none" xmlns="http://www.w3.org/2000/svg">
<path d="M505.537 147.569L485.484 156.417C491.534 153.743 497.032 158.088 505.537 157.911C514.043 157.734 518.806 153.458 526.978 154.795C533.662 155.905 536.286 157.596 541.015 158.039C549.654 158.855 547.265 156.073 552.161 155.473C555.503 155.06 572.348 156.564 579.216 158.245C554.601 147.599 534.447 139.468 530.487 139.567C529.443 139.614 528.412 139.729 527.412 139.911C525.392 140.271 523.434 140.741 521.563 141.317L519.892 141.828C516.313 143.015 512.858 144.328 509.548 145.76C507.092 146.743 505.504 147.549 505.504 147.549L505.537 147.569Z" fill="#F0F0F0" fill-opacity="0.4"/>
<path d="M438.041 134.524C444.591 134.829 455.22 138.535 459.648 136.196C464.076 133.856 474.053 129.688 478.414 132.086C463.692 124.005 447.449 115.689 442.202 115.315C438.743 115.069 419.809 124.831 396.146 137.926C406.089 134.515 412.857 138.683 418.806 139.607C424.756 140.531 431.507 134.22 438.041 134.524Z" fill="#F0F0F0"/>
<path opacity="0.3" d="M453.865 127.721C460.85 132.833 447.047 128.871 440.413 130.021C433.779 131.171 464.911 143.784 459.397 146.842C456.322 148.513 436.419 144.02 440.162 148.1C441.365 149.417 461.886 158.845 452.294 159.563C446.596 159.995 438.792 158.255 442.067 163.023C444.269 166.177 447.532 169.036 451.659 171.428L505.535 147.569C505.535 147.569 454.918 117.477 442.97 115.423L442.201 115.314C440.029 115.737 446.897 122.599 453.865 127.721Z" fill="white"/>
<path d="M251.716 140.579C247.104 140.727 228.688 148.051 215.604 153.497C219.33 153.939 225.63 156.259 230.51 156.161C237.745 156.004 243.26 152.101 248.424 153.792C253.587 155.483 259.553 159.69 266.187 160.329C276.832 161.361 278.453 158.766 284.168 159.533C288.962 160.093 293.804 160.496 298.673 160.742C276.448 149.869 255.81 140.461 251.716 140.579Z" fill="#F0F0F0"/>
<path d="M665.089 31.9962C660.477 32.1437 642.061 39.4676 628.977 44.9138C632.703 45.3562 639.003 47.6762 643.883 47.5779C651.119 47.4206 656.633 43.5178 661.797 45.2087C666.96 46.8996 672.926 51.1072 679.561 51.7462C690.205 52.7784 691.826 50.1831 697.541 50.9499C702.335 51.5096 707.177 51.9132 712.047 52.159C689.821 41.2863 669.183 31.8782 665.089 31.9962Z" fill="#F0F0F0"/>
<path d="M140.07 148.896C145.635 149.162 154.659 152.308 158.452 150.322C162.245 148.336 167.058 146.802 171.62 147.589C176.182 148.375 182.967 149.653 182.967 149.653C167.927 142.153 148.726 132.941 143.563 132.587C140.688 132.381 122.223 139.793 98.627 149.86C110.425 148.503 113.032 154.313 120.685 153.32C128.673 152.268 134.505 148.641 140.07 148.896Z" fill="#F0F0F0"/>
<path d="M553.443 40.3134C559.008 40.5788 568.032 43.7247 571.825 41.7389C575.618 39.753 580.431 38.2195 584.993 39.0059C589.555 39.7924 596.34 41.0704 596.34 41.0704C581.3 33.5695 562.099 24.3581 556.936 24.0042C554.061 23.7978 535.596 31.2101 512 41.2768C523.798 39.9202 526.405 45.7301 534.058 44.7372C542.046 43.6853 547.878 40.0578 553.443 40.3134Z" fill="#F0F0F0"/>
<path opacity="0.3" d="M153.506 143.116C159.455 147.471 147.724 144.099 142.092 145.082C136.461 146.065 161.744 154.657 157.132 157.213C154.525 158.638 141.892 155.247 145.067 158.688C148.242 162.128 168.863 172.578 168.863 172.578L201.968 159.317C201.968 159.317 154.459 134.415 144.248 132.666L143.596 132.577C141.742 132.931 147.574 138.771 153.506 143.116Z" fill="white"/>
<path d="M153.574 5.11284C150.967 6.75241 147.09 6.76654 143.698 6.52626C139.737 6.21531 135.242 5.87609 132.251 8.10929C130.89 9.3825 129.67 10.7594 128.608 12.2224C125.266 15.9255 118.197 13.6358 115.423 18.5828C115.039 19.3036 115.156 21.5792 114.07 21.8478C112.983 22.1163 110.627 20.717 109.474 20.604C105.713 20.4257 101.941 20.7114 98.2777 21.452C96.5897 21.7192 94.9816 22.2679 93.547 23.0663C92.1125 23.8647 90.8803 24.8967 89.9222 26.1022C88.9864 27.3177 88.2512 28.8159 86.5801 29.1976C85.6127 29.3503 84.6148 29.282 83.6891 28.9997C80.4592 28.049 77.08 27.5107 73.6625 27.4025C70.2201 27.5014 66.5771 28.9149 65.3071 31.5438C65.1233 31.9113 64.9394 32.3636 64.4715 32.4626C64.0036 32.5615 63.5524 32.2788 63.1848 32.0244C61.8968 31.1647 60.3862 30.5755 58.7769 30.3053C57.1676 30.035 55.5055 30.0913 53.9269 30.4696C52.8819 30.6908 51.9462 31.1855 51.2532 31.8831C50.3508 32.9149 50.4177 34.3424 49.5821 35.3742C48.028 37.1551 44.7359 36.7876 42.1123 36.2929C38.6532 35.671 34.6258 35.3177 31.8853 37.1975C31.15 37.7064 30.5651 38.3424 29.7797 38.8088C27.6908 40.095 24.7664 39.8406 22.2264 39.7558C20.5553 39.7558 0.502161 41.1692 0.936645 42.5827C1.37113 43.9961 6.30085 43.4731 7.43719 43.5155C9.10828 43.5155 10.7794 43.7982 12.4505 43.7699C14.0931 43.4999 15.7797 43.4807 17.4303 43.7134C18.4831 44.0526 19.2017 44.7735 20.3547 45.0279C23.0527 45.4607 25.8434 45.1588 28.3258 44.1657C31.2502 43.1904 34.3585 41.6215 37.6004 41.5933C39.1409 41.7664 40.6371 42.1533 42.0288 42.7381C44.9915 43.3994 48.1191 43.306 51.0192 42.4696C52.6903 42.0314 55.2972 40.8724 57.1689 41.1975C58.2216 41.3813 59.4081 42.201 60.511 42.4837C61.9539 42.8578 63.4374 43.1088 64.9394 43.2328C70.3036 43.6286 75.4005 40.929 80.3636 39.6427C86.7138 38.0173 90.3902 39.0491 95.4034 42.0314C97.5221 43.2509 99.9655 44.0068 102.514 44.2313C105.063 44.4557 107.638 44.1418 110.009 43.3176C111.39 42.7128 112.813 42.1795 114.27 41.7205C117.937 40.7002 121.907 40.775 125.516 41.9325C127.565 42.9705 129.768 43.7738 132.067 44.3212C139.737 45.4802 146.539 37.664 154.109 39.2187C155.626 39.6113 157.084 40.1521 158.454 40.83C162.679 42.4491 167.092 43.6902 171.622 44.5332C172.436 44.7557 173.289 44.8608 174.145 44.8441C175.313 44.6933 176.419 44.3053 177.37 43.7134C179.221 42.6078 181.197 41.6609 183.269 40.8866C184.303 40.4981 185.422 40.2974 186.553 40.2974C187.684 40.2974 188.803 40.4981 189.837 40.8866C190.781 41.52 191.807 42.0605 192.895 42.4979C195.936 43.1339 198.376 40.1374 201.468 39.671C204.559 39.2046 207.3 41.1975 210.375 40.8724C213.449 40.5473 216.608 39.0208 219.983 38.7382C227.553 38.1021 235.29 39.4449 242.727 37.6498C245.483 36.7818 248.348 36.1842 251.266 35.8689C256.68 35.6428 262.078 38.3565 267.309 37.1834C267.514 37.1482 267.708 37.0758 267.877 36.9714C268.428 36.5898 268.111 35.7558 267.476 35.4731C266.808 35.2458 266.077 35.1869 265.37 35.3035C263.15 35.4495 260.917 35.2434 258.786 34.6958C256.628 33.9634 254.425 33.3311 252.185 32.8018C245.15 31.671 237.647 36.1375 231.012 33.8477C229.314 33.0467 227.562 32.3293 225.765 31.6993C221.989 30.823 217.978 32.7735 214.068 32.1799C210.976 31.7134 208.553 29.7064 206.531 27.6711C204.735 25.4927 202.467 23.6222 199.847 22.1587C197.073 20.9008 193.162 21.0138 191.324 23.2046C190.683 21.0903 189.657 19.0732 188.283 17.2259C187.592 16.3065 186.662 15.5322 185.565 14.9616C184.468 14.3911 183.231 14.0392 181.949 13.9326C180.815 14.069 179.658 13.9369 178.607 13.551C177.756 12.827 177.261 11.8575 177.22 10.8372C176.811 9.1258 175.975 7.50796 174.767 6.0918C173.56 4.67564 172.009 3.49378 170.218 2.62522C167.786 1.45367 165.153 0.609636 162.414 0.123458C161.476 -0.0522585 160.503 -0.0402538 159.572 0.158515C158.64 0.357284 157.777 0.737319 157.05 1.26833C156.213 2.17287 155.438 3.11666 154.727 4.09517C154.395 4.47375 154.007 4.81563 153.574 5.11284V5.11284Z" fill="#F0F0F0"/>
<path d="M985.644 12.1128C983.038 13.7524 979.161 13.7665 975.768 13.5263C971.808 13.2153 967.313 12.8761 964.321 15.1093C962.96 16.3825 961.74 17.7594 960.678 19.2224C957.336 22.9255 950.267 20.6358 947.493 25.5828C947.109 26.3036 947.226 28.5792 946.14 28.8478C945.054 29.1163 942.697 27.717 941.544 27.604C937.783 27.4257 934.012 27.7114 930.348 28.452C928.66 28.7192 927.052 29.2679 925.617 30.0663C924.183 30.8647 922.951 31.8967 921.993 33.1022C921.057 34.3177 920.321 35.8159 918.65 36.1976C917.683 36.3503 916.685 36.282 915.759 35.9997C912.53 35.049 909.15 34.5107 905.733 34.4025C902.29 34.5014 898.647 35.9149 897.377 38.5438C897.194 38.9113 897.01 39.3636 896.542 39.4626C896.074 39.5615 895.623 39.2788 895.255 39.0244C893.967 38.1647 892.457 37.5755 890.847 37.3053C889.238 37.035 887.576 37.0913 885.997 37.4696C884.952 37.6908 884.016 38.1855 883.324 38.8831C882.421 39.9149 882.488 41.3424 881.652 42.3742C880.098 44.1551 876.806 43.7876 874.183 43.2929C870.723 42.671 866.696 42.3177 863.956 44.1975C863.22 44.7064 862.635 45.3424 861.85 45.8088C859.761 47.095 856.837 46.8406 854.297 46.7558C852.626 46.7558 832.572 48.1692 833.007 49.5827C833.441 50.9961 838.371 50.4731 839.508 50.5155C841.179 50.5155 842.85 50.7982 844.521 50.7699C846.163 50.4999 847.85 50.4807 849.501 50.7134C850.553 51.0526 851.272 51.7735 852.425 52.0279C855.123 52.4607 857.914 52.1588 860.396 51.1657C863.321 50.1904 866.429 48.6215 869.671 48.5933C871.211 48.7664 872.707 49.1533 874.099 49.7381C877.062 50.3994 880.189 50.306 883.09 49.4696C884.761 49.0314 887.368 47.8724 889.239 48.1975C890.292 48.3813 891.478 49.201 892.581 49.4837C894.024 49.8578 895.508 50.1088 897.01 50.2328C902.374 50.6286 907.471 47.929 912.434 46.6427C918.784 45.0173 922.46 46.0491 927.474 49.0314C929.592 50.2509 932.036 51.0068 934.585 51.2313C937.134 51.4557 939.709 51.1418 942.079 50.3176C943.46 49.7128 944.883 49.1795 946.34 48.7205C950.007 47.7002 953.977 47.775 957.587 48.9325C959.636 49.9705 961.839 50.7738 964.137 51.3212C971.808 52.4802 978.609 44.664 986.179 46.2187C987.696 46.6113 989.155 47.1521 990.524 47.83C994.749 49.4491 999.162 50.6902 1003.69 51.5332C1004.51 51.7557 1005.36 51.8608 1006.22 51.8441C1007.38 51.6933 1008.49 51.3053 1009.44 50.7134C1011.29 49.6078 1013.27 48.6609 1015.34 47.8866C1016.37 47.4981 1017.49 47.2974 1018.62 47.2974C1019.75 47.2974 1020.87 47.4981 1021.91 47.8866C1022.85 48.52 1023.88 49.0605 1024.97 49.4979C1028.01 50.1339 1030.45 47.1374 1033.54 46.671C1036.63 46.2046 1039.37 48.1975 1042.44 47.8724C1045.52 47.5473 1048.68 46.0208 1052.05 45.7382C1059.62 45.1021 1067.36 46.4449 1074.8 44.6498C1077.55 43.7818 1080.42 43.1842 1083.34 42.8689C1088.75 42.6428 1094.15 45.3565 1099.38 44.1834C1099.58 44.1482 1099.78 44.0758 1099.95 43.9714C1100.5 43.5898 1100.18 42.7558 1099.55 42.4731C1098.88 42.2458 1098.15 42.1869 1097.44 42.3035C1095.22 42.4495 1092.99 42.2434 1090.86 41.6958C1088.7 40.9634 1086.49 40.3311 1084.26 39.8018C1077.22 38.671 1069.72 43.1375 1063.08 40.8477C1061.38 40.0467 1059.63 39.3293 1057.84 38.6993C1054.06 37.823 1050.05 39.7735 1046.14 39.1799C1043.05 38.7134 1040.62 36.7064 1038.6 34.6711C1036.81 32.4927 1034.54 30.6222 1031.92 29.1587C1029.14 27.9008 1025.23 28.0138 1023.39 30.2046C1022.75 28.0903 1021.73 26.0732 1020.35 24.2259C1019.66 23.3065 1018.73 22.5322 1017.64 21.9616C1016.54 21.3911 1015.3 21.0392 1014.02 20.9326C1012.89 21.069 1011.73 20.9369 1010.68 20.551C1009.83 19.827 1009.33 18.8575 1009.29 17.8372C1008.88 16.1258 1008.05 14.508 1006.84 13.0918C1005.63 11.6756 1004.08 10.4938 1002.29 9.62522C999.856 8.45367 997.224 7.60964 994.484 7.12346C993.547 6.94774 992.573 6.95975 991.642 7.15851C990.711 7.35728 989.847 7.73732 989.12 8.26833C988.284 9.17287 987.508 10.1167 986.797 11.0952C986.465 11.4737 986.077 11.8156 985.644 12.1128V12.1128Z" fill="#F0F0F0"/>
<path d="M1283.64 55.1128C1281.04 56.7524 1277.16 56.7665 1273.77 56.5263C1269.81 56.2153 1265.31 55.8761 1262.32 58.1093C1260.96 59.3825 1259.74 60.7594 1258.68 62.2224C1255.34 65.9255 1248.27 63.6358 1245.49 68.5828C1245.11 69.3036 1245.23 71.5792 1244.14 71.8478C1243.05 72.1163 1240.7 70.717 1239.54 70.604C1235.78 70.4257 1232.01 70.7114 1228.35 71.452C1226.66 71.7192 1225.05 72.2679 1223.62 73.0663C1222.18 73.8647 1220.95 74.8967 1219.99 76.1022C1219.06 77.3177 1218.32 78.8159 1216.65 79.1976C1215.68 79.3503 1214.69 79.282 1213.76 78.9997C1210.53 78.049 1207.15 77.5107 1203.73 77.4025C1200.29 77.5014 1196.65 78.9149 1195.38 81.5438C1195.19 81.9113 1195.01 82.3636 1194.54 82.4626C1194.07 82.5615 1193.62 82.2788 1193.26 82.0244C1191.97 81.1647 1190.46 80.5755 1188.85 80.3053C1187.24 80.035 1185.58 80.0913 1184 80.4696C1182.95 80.6908 1182.02 81.1855 1181.32 81.8831C1180.42 82.9149 1180.49 84.3424 1179.65 85.3742C1178.1 87.1551 1174.81 86.7876 1172.18 86.2929C1168.72 85.671 1164.7 85.3177 1161.96 87.1975C1161.22 87.7064 1160.64 88.3424 1159.85 88.8088C1157.76 90.095 1154.84 89.8406 1152.3 89.7558C1150.63 89.7558 1130.57 91.1692 1131.01 92.5827C1131.44 93.9961 1136.37 93.4731 1137.51 93.5155C1139.18 93.5155 1140.85 93.7982 1142.52 93.7699C1144.16 93.4999 1145.85 93.4807 1147.5 93.7134C1148.55 94.0526 1149.27 94.7735 1150.43 95.0279C1153.12 95.4607 1155.91 95.1588 1158.4 94.1657C1161.32 93.1904 1164.43 91.6215 1167.67 91.5933C1169.21 91.7664 1170.71 92.1533 1172.1 92.7381C1175.06 93.3994 1178.19 93.306 1181.09 92.4696C1182.76 92.0314 1185.37 90.8724 1187.24 91.1975C1188.29 91.3813 1189.48 92.201 1190.58 92.4837C1192.02 92.8578 1193.51 93.1088 1195.01 93.2328C1200.37 93.6286 1205.47 90.929 1210.43 89.6427C1216.78 88.0173 1220.46 89.0491 1225.47 92.0314C1227.59 93.2509 1230.04 94.0068 1232.58 94.2313C1235.13 94.4557 1237.71 94.1418 1240.08 93.3176C1241.46 92.7128 1242.88 92.1795 1244.34 91.7205C1248.01 90.7002 1251.98 90.775 1255.59 91.9325C1257.64 92.9705 1259.84 93.7738 1262.14 94.3212C1269.81 95.4802 1276.61 87.664 1284.18 89.2187C1285.7 89.6113 1287.15 90.1521 1288.52 90.83C1292.75 92.4491 1297.16 93.6902 1301.69 94.5332C1302.51 94.7557 1303.36 94.8608 1304.22 94.8441C1305.38 94.6933 1306.49 94.3053 1307.44 93.7134C1309.29 92.6078 1311.27 91.6609 1313.34 90.8866C1314.37 90.4981 1315.49 90.2974 1316.62 90.2974C1317.75 90.2974 1318.87 90.4981 1319.91 90.8866C1320.85 91.52 1321.88 92.0605 1322.97 92.4979C1326.01 93.1339 1328.45 90.1374 1331.54 89.671C1334.63 89.2046 1337.37 91.1975 1340.44 90.8724C1343.52 90.5473 1346.68 89.0208 1350.05 88.7382C1357.62 88.1021 1365.36 89.4449 1372.8 87.6498C1375.55 86.7818 1378.42 86.1842 1381.34 85.8689C1386.75 85.6428 1392.15 88.3565 1397.38 87.1834C1397.58 87.1482 1397.78 87.0758 1397.95 86.9714C1398.5 86.5898 1398.18 85.7558 1397.55 85.4731C1396.88 85.2458 1396.15 85.1869 1395.44 85.3035C1393.22 85.4495 1390.99 85.2434 1388.86 84.6958C1386.7 83.9634 1384.49 83.3311 1382.26 82.8018C1375.22 81.671 1367.72 86.1375 1361.08 83.8477C1359.38 83.0467 1357.63 82.3293 1355.84 81.6993C1352.06 80.823 1348.05 82.7735 1344.14 82.1799C1341.05 81.7134 1338.62 79.7064 1336.6 77.6711C1334.81 75.4927 1332.54 73.6222 1329.92 72.1587C1327.14 70.9008 1323.23 71.0138 1321.39 73.2046C1320.75 71.0903 1319.73 69.0732 1318.35 67.2259C1317.66 66.3065 1316.73 65.5322 1315.64 64.9616C1314.54 64.3911 1313.3 64.0392 1312.02 63.9326C1310.89 64.069 1309.73 63.9369 1308.68 63.551C1307.83 62.827 1307.33 61.8575 1307.29 60.8372C1306.88 59.1258 1306.05 57.508 1304.84 56.0918C1303.63 54.6756 1302.08 53.4938 1300.29 52.6252C1297.86 51.4537 1295.22 50.6096 1292.48 50.1235C1291.55 49.9477 1290.57 49.9597 1289.64 50.1585C1288.71 50.3573 1287.85 50.7373 1287.12 51.2683C1286.28 52.1729 1285.51 53.1167 1284.8 54.0952C1284.46 54.4737 1284.08 54.8156 1283.64 55.1128V55.1128Z" fill="#F0F0F0"/>
<path d="M316.387 54.8228L315.819 55.0631C312.761 56.2503 309.218 55.2609 305.793 55.2892C302.542 55.3125 299.408 56.3148 296.952 58.1161C295.515 59.2044 294.362 60.533 292.959 61.6637C291.159 63.1027 289.003 64.1853 286.647 64.8331C284.292 65.4809 281.796 65.6777 279.339 65.4093C277.833 65.1575 276.309 64.9922 274.777 64.9146C270.833 64.9146 267.391 67.0772 263.614 68.0524C255.259 70.1867 246.318 66.328 237.796 67.6567C233.017 68.4058 228.722 70.7379 223.909 71.2609C220.951 71.586 217.893 71.1619 214.969 71.7838C214.969 73.1973 221.285 73.6213 222.689 73.6778C225.914 73.8276 229.142 73.4287 232.181 72.5047C234.06 71.8174 235.985 71.2228 237.946 70.7238C242.809 69.7627 247.689 71.3033 251.967 73.1266C253.781 73.7221 255.662 74.1579 257.582 74.4269C260.088 75.0347 262.444 76.0948 264.968 76.7167C269.682 78.1181 274.798 78.2269 279.59 77.0276C282.414 76.1655 284.954 74.6672 287.862 74.0312C292.741 72.957 297.888 74.4976 302.367 76.5047C305.124 77.7343 308.015 79.2043 311.107 78.8651C315.451 78.3987 318.159 74.6248 322.136 73.0983C327.383 71.0771 333.833 72.7874 338.847 74.5118C341.671 75.5725 344.594 76.4329 347.587 77.0842C350.593 77.7203 353.738 77.7203 356.744 77.0842C358.917 76.3324 361.151 75.7136 363.428 75.2326C366.169 74.8934 368.976 75.6425 371.784 75.3174C372.75 75.185 373.701 74.9816 374.625 74.7096C376.914 74.0453 379.325 73.7341 381.744 73.7909C381.954 73.8194 382.169 73.779 382.345 73.6778C382.411 73.6154 382.458 73.5401 382.481 73.4588C382.505 73.3774 382.504 73.2925 382.479 73.2114C382.411 72.9687 382.269 72.7454 382.067 72.5642C381.864 72.383 381.609 72.2503 381.326 72.1796C380.783 72.0486 380.218 71.996 379.655 72.0241C376.062 72.0241 372.452 72.2361 368.86 72.5047C365.638 72.6298 362.417 72.2611 359.351 71.4164C357.078 70.8651 354.956 70.0029 352.667 69.692C350.576 69.1498 348.792 67.9782 347.653 66.3987C345.765 64.3634 343.76 61.7344 340.384 61.5507C339.731 61.5873 339.075 61.5054 338.462 61.3104C337.593 60.9288 337.343 59.9959 337.075 59.2044C335.604 55.7051 332.667 52.7834 328.82 50.9924C327.539 50.3447 326.042 50.0713 324.559 50.2143C323.077 50.3573 321.691 50.9089 320.615 51.7839C319.325 52.9101 317.909 53.9278 316.387 54.8228V54.8228Z" fill="#F0F0F0"/>
<path d="M48.5 73C65.3447 73 79 60.2401 79 44.5C79 28.7599 65.3447 16 48.5 16C31.6553 16 18 28.7599 18 44.5C18 60.2401 31.6553 73 48.5 73Z" fill="#FFBDA7"/>
<path d="M503.563 152.263C503.437 152.266 503.312 152.243 503.198 152.197C503.085 152.15 502.986 152.081 502.911 151.995C502.841 151.923 502.789 151.84 502.758 151.751C502.727 151.662 502.717 151.568 502.73 151.476C502.742 151.384 502.777 151.295 502.831 151.214C502.885 151.133 502.958 151.062 503.045 151.005L505.017 149.691C505.192 149.575 505.414 149.522 505.635 149.545C505.856 149.567 506.057 149.663 506.195 149.811C506.332 149.959 506.394 150.147 506.368 150.334C506.341 150.521 506.228 150.691 506.053 150.808L504.081 152.122C503.932 152.217 503.749 152.266 503.563 152.263V152.263Z" fill="#F0F0F0" fill-opacity="0.4"/>
<path d="M384.416 222.878C384.276 222.881 384.137 222.852 384.014 222.795C383.891 222.738 383.787 222.654 383.714 222.553C383.595 222.396 383.554 222.204 383.601 222.022C383.648 221.839 383.779 221.679 383.965 221.578L388.142 219.316C388.235 219.26 388.339 219.221 388.45 219.2C388.561 219.179 388.675 219.178 388.787 219.195C388.898 219.213 389.004 219.25 389.098 219.304C389.192 219.358 389.272 219.427 389.334 219.508C389.395 219.588 389.436 219.679 389.455 219.773C389.474 219.868 389.469 219.965 389.442 220.058C389.415 220.151 389.366 220.239 389.298 220.315C389.23 220.392 389.143 220.456 389.045 220.504L384.867 222.765C384.734 222.841 384.576 222.88 384.416 222.878V222.878ZM395.545 216.829C395.406 216.827 395.269 216.797 395.147 216.74C395.024 216.683 394.92 216.602 394.844 216.504C394.724 216.346 394.684 216.155 394.731 215.972C394.778 215.789 394.908 215.63 395.094 215.528L399.255 213.239C399.441 213.138 399.667 213.103 399.884 213.143C400.1 213.183 400.288 213.293 400.408 213.451C400.47 213.528 400.512 213.615 400.533 213.707C400.553 213.798 400.552 213.892 400.528 213.983C400.505 214.074 400.46 214.161 400.396 214.237C400.333 214.313 400.251 214.377 400.158 214.426L395.997 216.716C395.862 216.789 395.706 216.828 395.545 216.829V216.829ZM406.625 210.709C406.485 210.707 406.348 210.677 406.226 210.62C406.104 210.563 406 210.482 405.923 210.384C405.802 210.228 405.759 210.038 405.803 209.855C405.846 209.673 405.974 209.512 406.157 209.408L410.301 207.09C410.485 206.988 410.71 206.951 410.926 206.988C411.142 207.025 411.332 207.133 411.454 207.288C411.576 207.446 411.62 207.638 411.576 207.823C411.532 208.008 411.405 208.171 411.22 208.278L407.076 210.581C406.945 210.663 406.787 210.708 406.625 210.709V210.709ZM417.637 204.518C417.5 204.518 417.364 204.488 417.244 204.431C417.124 204.374 417.024 204.292 416.952 204.193C416.83 204.039 416.784 203.85 416.824 203.667C416.865 203.485 416.989 203.323 417.169 203.217L421.297 200.885C421.386 200.82 421.49 200.771 421.603 200.742C421.716 200.712 421.835 200.704 421.952 200.717C422.069 200.729 422.182 200.763 422.283 200.815C422.383 200.867 422.47 200.937 422.536 201.019C422.603 201.102 422.648 201.195 422.669 201.293C422.69 201.392 422.686 201.493 422.657 201.589C422.628 201.686 422.576 201.777 422.503 201.855C422.429 201.934 422.337 201.998 422.233 202.044L418.105 204.391C417.969 204.474 417.805 204.519 417.637 204.518V204.518ZM428.616 198.256C428.433 198.262 428.253 198.217 428.103 198.128C427.953 198.039 427.842 197.91 427.787 197.763C427.732 197.615 427.736 197.456 427.798 197.31C427.861 197.164 427.978 197.04 428.132 196.956L432.243 194.596C432.427 194.491 432.652 194.452 432.87 194.488C433.088 194.523 433.28 194.631 433.404 194.786C433.528 194.942 433.574 195.133 433.532 195.317C433.489 195.501 433.362 195.664 433.178 195.769L429.084 198.129C428.946 198.209 428.784 198.254 428.616 198.256V198.256ZM439.512 191.924C439.377 191.921 439.245 191.891 439.126 191.837C439.007 191.783 438.905 191.707 438.827 191.613C438.704 191.459 438.658 191.27 438.699 191.088C438.74 190.905 438.863 190.744 439.044 190.638L443.121 188.249C443.303 188.154 443.522 188.121 443.731 188.158C443.941 188.194 444.126 188.298 444.248 188.446C444.37 188.595 444.42 188.778 444.388 188.957C444.356 189.136 444.243 189.297 444.074 189.408L439.996 191.797C439.853 191.879 439.685 191.924 439.512 191.924V191.924ZM450.374 185.521C450.24 185.523 450.107 185.497 449.988 185.445C449.868 185.394 449.766 185.318 449.689 185.225C449.564 185.07 449.515 184.88 449.552 184.696C449.589 184.511 449.71 184.346 449.889 184.235C451.243 183.444 452.58 182.638 453.95 181.818C454.132 181.717 454.352 181.678 454.566 181.709C454.781 181.741 454.973 181.84 455.103 181.988C455.167 182.064 455.213 182.15 455.238 182.241C455.262 182.332 455.265 182.426 455.247 182.518C455.228 182.61 455.188 182.698 455.129 182.777C455.07 182.856 454.993 182.924 454.903 182.977L450.859 185.394C450.716 185.476 450.547 185.521 450.374 185.521V185.521ZM461.169 179.048C461.035 179.05 460.902 179.024 460.783 178.972C460.663 178.92 460.561 178.844 460.484 178.751C460.42 178.675 460.374 178.589 460.35 178.498C460.325 178.407 460.322 178.313 460.341 178.221C460.359 178.129 460.399 178.041 460.458 177.962C460.517 177.883 460.594 177.815 460.685 177.762C462.021 176.956 463.358 176.15 464.695 175.317C464.785 175.262 464.887 175.224 464.994 175.203C465.102 175.182 465.213 175.179 465.322 175.195C465.431 175.211 465.535 175.245 465.628 175.295C465.721 175.345 465.802 175.41 465.865 175.486C465.992 175.639 466.044 175.828 466.009 176.012C465.975 176.197 465.857 176.363 465.681 176.476L461.654 178.921C461.511 179.003 461.342 179.047 461.169 179.048V179.048ZM471.881 172.504C471.75 172.5 471.622 172.471 471.507 172.42C471.391 172.369 471.29 172.296 471.212 172.207C471.145 172.133 471.097 172.047 471.069 171.957C471.042 171.866 471.037 171.772 471.054 171.679C471.071 171.587 471.111 171.498 471.169 171.419C471.228 171.339 471.305 171.271 471.396 171.218L475.39 168.744C475.567 168.632 475.79 168.583 476.01 168.61C476.229 168.636 476.427 168.735 476.56 168.885C476.687 169.038 476.739 169.227 476.704 169.412C476.67 169.596 476.552 169.762 476.376 169.875L472.382 172.334C472.262 172.419 472.118 172.477 471.964 172.504H471.881ZM482.526 165.861C482.394 165.86 482.265 165.833 482.149 165.781C482.032 165.73 481.932 165.655 481.857 165.564C481.724 165.414 481.667 165.225 481.699 165.04C481.73 164.854 481.847 164.687 482.024 164.574L486.002 162.059C486.18 161.95 486.402 161.904 486.62 161.93C486.838 161.956 487.036 162.053 487.171 162.2C487.304 162.35 487.361 162.538 487.33 162.724C487.299 162.909 487.182 163.077 487.004 163.189L483.027 165.719C482.88 165.808 482.706 165.857 482.526 165.861ZM493.104 159.105C492.975 159.106 492.848 159.083 492.732 159.036C492.617 158.99 492.515 158.921 492.435 158.836C492.301 158.688 492.241 158.5 492.269 158.315C492.297 158.13 492.411 157.961 492.586 157.847L496.53 155.288C496.615 155.225 496.716 155.177 496.824 155.147C496.933 155.118 497.047 155.107 497.161 155.117C497.274 155.126 497.384 155.155 497.484 155.202C497.584 155.248 497.672 155.312 497.741 155.388C497.811 155.464 497.861 155.552 497.89 155.646C497.918 155.739 497.923 155.836 497.905 155.932C497.887 156.027 497.846 156.118 497.785 156.199C497.724 156.281 497.643 156.351 497.549 156.405C496.245 157.267 494.925 158.115 493.605 158.963C493.461 159.056 493.285 159.106 493.104 159.105V159.105Z" fill="#F0F0F0" fill-opacity="0.4"/>
<path d="M375.375 227.698C375.191 227.699 375.012 227.65 374.865 227.556C374.718 227.463 374.612 227.331 374.562 227.182C374.513 227.032 374.523 226.873 374.591 226.728C374.66 226.584 374.782 226.463 374.941 226.383L377.063 225.267C377.251 225.168 377.478 225.136 377.695 225.178C377.911 225.22 378.098 225.334 378.216 225.493C378.333 225.652 378.371 225.845 378.321 226.027C378.271 226.21 378.137 226.369 377.948 226.468L375.809 227.585C375.68 227.656 375.529 227.695 375.375 227.698Z" fill="#F0F0F0" fill-opacity="0.4"/>
<path d="M450.874 78.0448C450.741 78.0498 450.609 78.0254 450.49 77.9741C449.671 77.6066 448.936 77.2957 448.284 77.0271C448.177 76.9916 448.08 76.9379 447.999 76.8693C447.918 76.8007 447.854 76.7187 447.812 76.6284C447.77 76.5381 447.75 76.4415 447.754 76.3445C447.758 76.2475 447.786 76.1522 447.836 76.0646C447.885 75.9771 447.955 75.899 448.042 75.8354C448.129 75.7719 448.23 75.724 448.339 75.695C448.449 75.6659 448.564 75.6563 448.678 75.6666C448.792 75.6769 448.903 75.707 449.003 75.755C449.688 76.0236 450.44 76.3487 451.259 76.7162C451.357 76.7593 451.444 76.8185 451.515 76.8904C451.586 76.9622 451.639 77.0453 451.672 77.1347C451.704 77.2241 451.716 77.3181 451.705 77.4112C451.694 77.5044 451.662 77.5948 451.609 77.6773C451.539 77.7898 451.433 77.8837 451.303 77.9485C451.173 78.0134 451.025 78.0467 450.874 78.0448V78.0448Z" fill="#E0E0E0"/>
<path d="M515.83 128.589C515.651 128.59 515.477 128.542 515.332 128.453C515.188 128.364 515.081 128.238 515.028 128.094C514.794 127.458 514.509 126.808 514.209 126.158C514.15 126.07 514.115 125.973 514.105 125.873C514.094 125.773 514.109 125.672 514.149 125.577C514.188 125.482 514.251 125.396 514.333 125.323C514.416 125.25 514.515 125.194 514.625 125.156C514.736 125.119 514.854 125.101 514.973 125.106C515.092 125.11 515.208 125.136 515.314 125.181C515.42 125.226 515.513 125.29 515.588 125.368C515.662 125.447 515.716 125.538 515.746 125.635C516.08 126.313 516.364 127.048 516.632 127.67C516.695 127.85 516.673 128.044 516.57 128.21C516.467 128.377 516.291 128.502 516.08 128.561L515.83 128.589Z" fill="#E0E0E0"/>
</svg>
