<svg width="253" height="126" viewBox="0 0 253 126" fill="none" xmlns="http://www.w3.org/2000/svg">
<g filter="url(#filter0_d_474_16271)">
<path d="M139.497 74.2544C135.396 70.4554 128.126 70.899 124.517 75.1753C123.097 76.8604 122.131 79.0675 120.178 80.089C117.195 81.6586 113.557 79.6789 110.186 79.966C106.234 80.3015 102.991 84.313 103.476 88.2463C103.696 90.0209 104.538 91.911 103.703 93.4918C102.641 95.5087 99.5648 95.5908 98.2711 97.466C97.1042 99.1623 98.0138 101.664 99.7102 102.835C101.406 104.005 103.591 104.151 105.649 104.057C107.707 103.964 109.795 103.685 111.801 104.132C114.011 104.632 115.902 105.996 118.023 106.831C123.082 108.859 129.006 107.73 133.681 104.945C138.356 102.16 141.995 97.9022 145.157 93.462" fill="#E04048"/>
<g opacity="0.8">
<path d="M139.499 74.2544C135.398 70.4554 128.128 70.899 124.519 75.1753C123.099 76.8604 122.133 79.0675 120.18 80.089C117.197 81.6586 113.559 79.6789 110.188 79.966C106.236 80.3015 102.993 84.313 103.478 88.2463C103.698 90.0209 104.54 91.911 103.705 93.4918C102.642 95.5087 99.5667 95.5908 98.273 97.466C97.1061 99.1623 98.0158 101.664 99.7121 102.835C101.408 104.005 103.593 104.151 105.651 104.057C107.709 103.964 109.797 103.685 111.803 104.132C114.013 104.632 115.904 105.996 118.025 106.831C123.084 108.859 129.008 107.73 133.683 104.945C138.358 102.16 141.997 97.9022 145.159 93.462" fill="white"/>
</g>
<path d="M138.503 79.4295C135.148 76.1562 128.963 76.6147 126.145 80.3467C124.426 82.6246 123.438 86.1067 120.608 86.487C118.692 86.7479 116.88 85.3051 114.945 85.4542C112.373 85.6481 110.818 88.7835 111.478 91.2739C112.138 93.7644 114.33 95.5576 116.63 96.7283C124.597 100.773 135.215 98.6334 140.998 91.8182" fill="#E04048"/>
<path d="M214.454 87.7621L210.141 81.6479L215.752 77.6699L219.681 85.652L214.711 87.7099" fill="#FFBE9D"/>
<path d="M219.447 84.5591L222.501 90.0656C222.501 90.0656 229.122 88.8129 229.786 89.7748L219.324 96.0754L214.217 87.6907L219.447 84.5591Z" fill="#E04048"/>
<g opacity="0.6">
<path d="M218.985 91.5611C218.903 91.6528 218.857 91.7716 218.857 91.8948C218.857 92.018 218.903 92.1368 218.985 92.2285C219.075 92.3118 219.193 92.3581 219.315 92.3581C219.438 92.3581 219.555 92.3118 219.645 92.2285C219.733 92.1313 219.781 92.0051 219.781 91.8743C219.781 91.7435 219.733 91.6173 219.645 91.5201C219.544 91.4415 219.416 91.405 219.288 91.4182C219.16 91.4314 219.042 91.4932 218.959 91.5909" fill="white"/>
</g>
<g opacity="0.6">
<path d="M219.323 96.0753L218.842 95.2103L229.053 89.495C229.053 89.495 229.642 89.4168 229.799 89.7747L219.323 96.0753Z" fill="white"/>
</g>
<path d="M222.637 89.9094C222.663 89.9616 222.424 90.1406 222.264 90.4538C222.104 90.7669 222.104 91.0652 222.048 91.0764C221.992 91.0875 221.884 90.7408 222.078 90.3643C222.271 89.9877 222.618 89.8572 222.637 89.9094Z" fill="#263238"/>
<path d="M224.005 89.7046C224.046 89.7456 223.878 89.9656 223.833 90.2862C223.788 90.6068 223.878 90.8678 223.833 90.8939C223.788 90.92 223.576 90.6553 223.635 90.2564C223.695 89.8575 223.975 89.6636 224.005 89.7046Z" fill="#263238"/>
<path d="M225.422 90.6438C225.381 90.681 225.158 90.4685 225.12 90.1106C225.083 89.7527 225.255 89.4955 225.299 89.5253C225.344 89.5551 225.299 89.7937 225.326 90.0883C225.352 90.3828 225.467 90.6065 225.422 90.6438Z" fill="#263238"/>
<path d="M221.803 88.7313C221.803 88.791 221.53 88.8618 221.255 89.0557C220.979 89.2496 220.807 89.477 220.755 89.4472C220.703 89.4173 220.807 89.1079 221.128 88.8842C221.448 88.6605 221.803 88.6791 221.803 88.7313Z" fill="#263238"/>
<path d="M221.165 87.6315C221.165 87.6539 220.994 87.8068 220.639 87.9447C220.306 88.0754 219.95 88.1376 219.592 88.1274C219.514 88.1323 219.435 88.1234 219.361 88.1013C219.305 88.0861 219.256 88.0523 219.222 88.0055C219.188 87.9587 219.171 87.9017 219.174 87.844C219.178 87.7927 219.194 87.7431 219.22 87.6991C219.247 87.655 219.283 87.6178 219.327 87.5905C219.393 87.5495 219.464 87.5193 219.54 87.501C219.661 87.4619 219.786 87.4332 219.912 87.4153C220.137 87.3888 220.365 87.3976 220.587 87.4414C220.96 87.5197 221.165 87.6613 221.154 87.6837C221.143 87.7061 220.926 87.6241 220.565 87.5868C220.356 87.5657 220.146 87.572 219.938 87.6054C219.812 87.6241 219.687 87.654 219.566 87.6949C219.435 87.7322 219.342 87.7881 219.342 87.8552C219.342 87.9223 219.342 87.8888 219.39 87.9074C219.447 87.9144 219.505 87.9144 219.562 87.9074C219.689 87.9074 219.815 87.9074 219.935 87.9074C220.146 87.8884 220.356 87.851 220.561 87.7956C220.759 87.7283 220.96 87.6735 221.165 87.6315Z" fill="#263238"/>
<path d="M221.141 87.747C221.141 87.7656 220.917 87.6426 220.697 87.3219C220.571 87.1345 220.479 86.9262 220.425 86.7068C220.391 86.5763 220.371 86.4426 220.365 86.3079C220.352 86.2217 220.361 86.1336 220.392 86.0521C220.423 85.9705 220.474 85.8981 220.54 85.8419C220.586 85.8122 220.639 85.7964 220.693 85.7964C220.747 85.7964 220.801 85.8122 220.846 85.8419C220.912 85.8855 220.97 85.9397 221.017 86.0022C221.105 86.1077 221.177 86.2258 221.23 86.3526C221.318 86.5673 221.353 86.8002 221.331 87.0312C221.29 87.404 221.114 87.6127 221.1 87.5978C221.137 87.418 221.166 87.2363 221.185 87.0535C221.186 86.8488 221.141 86.6464 221.055 86.4607C221.005 86.3525 220.94 86.252 220.861 86.1625C220.779 86.0618 220.682 85.9984 220.648 86.0357C220.615 86.0736 220.591 86.1184 220.578 86.1667C220.564 86.2151 220.562 86.2658 220.57 86.3153C220.569 86.4408 220.583 86.5659 220.611 86.6882C220.653 86.8926 220.725 87.0898 220.824 87.2735C220.995 87.5643 221.163 87.7209 221.141 87.747Z" fill="#263238"/>
<path d="M198.479 66.0307L211.878 87.0874L219.203 82.1066L206.863 56.7363" fill="#263238"/>
<path d="M199.562 61.4114C199.618 61.4338 199.215 62.2912 199.025 63.4209C198.835 64.5505 198.913 65.49 198.854 65.4975C198.58 64.0899 198.832 62.6309 199.562 61.3965V61.4114Z" fill="#455A64"/>
<path d="M198.187 61.4707C198.243 61.4707 198.187 62.3953 198.34 63.5137C198.493 64.6322 198.772 65.5046 198.713 65.5232C198.133 64.2564 197.948 62.844 198.183 61.4707H198.187Z" fill="#455A64"/>
<path d="M146.229 65.967L137.039 63.1299C125.951 77.2485 126.693 92.7614 144.54 101.944L154.453 90.8414L146.229 65.967Z" fill="#263238"/>
<path d="M147.126 63.7149C141.243 67.1486 138.316 74.3775 139.032 81.461C139.819 89.2231 144.949 96.7913 154.351 98.8828L217.555 86.248C220.163 85.7262 222.635 84.6683 224.813 83.1412C226.992 81.6141 228.829 79.6511 230.209 77.3768C231.589 75.1024 232.481 72.5662 232.83 69.9288C233.178 67.2915 232.975 64.6105 232.233 62.0559C230.855 57.3117 227.702 53.2809 223.429 50.8015C219.156 48.322 214.092 47.5846 209.289 48.7426L147.126 63.7149Z" fill="#E0E0E0"/>
<path d="M147.127 63.715L147.712 63.5659L149.438 63.1409L156.086 61.5191L180.55 55.5913L197.446 51.4903L206.864 49.2162L209.305 48.6308L210.562 48.3922C210.771 48.3512 210.979 48.3065 211.192 48.2729L211.833 48.217C212.262 48.1835 212.691 48.1313 213.119 48.1089H214.424C214.861 48.1108 215.297 48.1407 215.729 48.1984L216.385 48.2655L216.713 48.3028L217.038 48.3661L218.339 48.6308C218.771 48.7315 219.193 48.8769 219.621 49.0037C219.834 49.0708 220.05 49.1304 220.263 49.205L220.885 49.4548L221.508 49.712C221.721 49.7886 221.927 49.8808 222.127 49.9879L223.331 50.6142C223.73 50.8342 224.103 51.0989 224.49 51.3599C224.68 51.4866 224.863 51.6022 225.061 51.7327L225.601 52.1577L226.146 52.5864L226.418 52.7989L226.668 53.0375C229.491 55.5733 231.509 58.8811 232.472 62.5518C233.469 66.3604 233.271 70.3832 231.906 74.0756C230.495 77.8711 227.932 81.1301 224.576 83.3961C223.16 84.3532 221.622 85.1145 220.002 85.6591C218.391 86.2221 216.717 86.4681 215.088 86.8111L205.395 88.746L186.888 92.4667L154.386 98.95H154.352C152.695 98.5596 151.086 97.9883 149.554 97.2463C146.723 95.8241 144.298 93.7093 142.504 91.0985C141.696 89.9048 141.009 88.6334 140.453 87.3032C140.319 86.9826 140.215 86.6508 140.081 86.3302C139.956 86.0148 139.85 85.6924 139.764 85.3646C139.671 85.0402 139.581 84.7196 139.492 84.399L139.29 83.4408C139.216 83.1274 139.16 82.81 139.123 82.4901C139.082 82.177 139.037 81.8638 138.996 81.5544C138.955 81.2449 138.951 80.9355 138.929 80.6298C138.906 80.3241 138.888 80.0221 138.891 79.7238C138.844 77.5335 139.154 75.35 139.809 73.2592C140.325 71.5838 141.079 69.9908 142.045 68.5281C142.754 67.4518 143.595 66.4697 144.551 65.6052C144.745 65.4337 144.924 65.2585 145.099 65.1168L145.613 64.7254L146.046 64.3936L146.419 64.1512L147.108 63.7188L146.43 64.1699L146.057 64.4159L145.624 64.7515L145.132 65.1429C144.957 65.2883 144.782 65.4598 144.588 65.6351C143.642 66.5023 142.809 67.4856 142.109 68.5617C141.148 70.0214 140.402 71.6107 139.891 73.2815C139.247 75.3654 138.943 77.5396 138.992 79.7201C138.992 80.0184 138.992 80.3203 139.029 80.6223C139.067 80.9243 139.067 81.2337 139.104 81.5432C139.141 81.8526 139.186 82.1621 139.231 82.4752C139.269 82.7925 139.325 83.1075 139.398 83.4185C139.466 83.7316 139.533 84.0522 139.6 84.3729C139.667 84.6935 139.782 85.0067 139.872 85.331C139.96 85.6571 140.066 85.9782 140.189 86.2929C140.308 86.6098 140.412 86.9379 140.562 87.2548C141.115 88.5761 141.8 89.8387 142.605 91.0239C143.486 92.2639 144.498 93.4051 145.624 94.4278C146.844 95.4753 148.18 96.3785 149.606 97.1195C151.127 97.8553 152.725 98.4205 154.371 98.8046H154.341L186.832 92.2729L205.354 88.5671L215.047 86.6284C216.68 86.2817 218.35 86.0394 219.935 85.4801C221.538 84.9435 223.06 84.1909 224.461 83.2432C227.785 80.9973 230.324 77.7667 231.719 74.0048C233.072 70.3496 233.268 66.3671 232.282 62.5966C231.331 58.9613 229.335 55.6847 226.541 53.1718L226.291 52.9369L226.034 52.7542L225.497 52.3329L224.96 51.9116C224.781 51.7737 224.587 51.6618 224.393 51.5388C224.021 51.3002 223.648 51.0355 223.249 50.8193L222.056 50.1967C221.857 50.0941 221.653 50.002 221.444 49.9208L220.826 49.671L220.207 49.4175C219.998 49.3466 219.785 49.287 219.573 49.2236C219.148 49.1006 218.73 48.9515 218.302 48.8508L217.015 48.5898L216.695 48.5227L216.367 48.4892L215.718 48.4221C215.289 48.3632 214.857 48.3321 214.424 48.3289H213.134C212.706 48.3512 212.281 48.4034 211.859 48.437L211.222 48.4929C211.013 48.5227 210.804 48.5675 210.595 48.6085L209.354 48.8433L206.901 49.3988L197.487 51.6618L180.587 55.7367L156.112 61.59L149.453 63.1931L147.72 63.6032L147.127 63.715Z" fill="#263238"/>
<path d="M154.352 98.8753L146.016 117.829C146.016 117.829 185.348 114.038 183.67 93.0146L154.352 98.8753Z" fill="#E04048"/>
<path d="M176.894 56.5422C176.894 56.5422 157.981 38.1922 133.949 45.9207L147.136 63.7153L176.894 56.5422Z" fill="#E04048"/>
<path d="M211.42 48.4741C219.536 54.4392 224.498 77.7627 220.588 85.1706C243.59 78.4412 248.415 58.7005 248.415 58.7005C231.787 43.2137 211.42 48.4741 211.42 48.4741Z" fill="#E04048"/>
<path d="M142.521 90.2072C142.558 90.2408 141.294 91.7544 139.695 93.585C138.096 95.4155 136.765 96.8695 136.712 96.8322C136.66 96.7949 137.935 95.285 139.538 93.4545C141.142 91.624 142.484 90.17 142.521 90.2072Z" fill="#455A64"/>
<path d="M248.402 58.6934C248.402 58.6934 248.358 58.7791 248.261 58.9432L247.825 59.6664L247.112 60.8445C246.971 61.0757 246.818 61.3255 246.658 61.5902L246.084 62.4104C245.677 62.9882 245.234 63.6369 244.73 64.3304L242.974 66.5076C242.642 66.8804 242.285 67.2533 241.923 67.6596C241.561 68.066 241.203 68.4761 240.804 68.8638C239.977 69.6468 239.127 70.5005 238.135 71.2871C236.024 73.0635 233.715 74.5897 231.253 75.8355C229.883 76.5337 228.468 77.139 227.018 77.6474C226.272 77.9196 225.504 78.1544 224.747 78.4303C223.958 78.6816 223.155 78.8882 222.342 79.0492C215.826 80.492 208.641 81.9684 201.092 83.523C186.004 86.6398 172.34 89.421 162.446 91.4193L150.724 93.7867L147.537 94.4168L146.705 94.5733C146.519 94.6106 146.422 94.6218 146.422 94.6218L146.701 94.5547L147.529 94.3758L150.709 93.7121L162.416 91.2963L201.055 83.3441C208.593 81.7782 215.781 80.3056 222.305 78.8703C223.108 78.7116 223.902 78.51 224.684 78.2663C225.456 77.983 226.22 77.7555 226.962 77.4834C228.407 76.9797 229.816 76.3806 231.182 75.6901C233.636 74.454 235.942 72.9418 238.053 71.1828C239.041 70.3998 239.895 69.5535 240.719 68.7744C241.136 68.4015 241.49 67.9653 241.859 67.5813C242.229 67.1973 242.583 66.8133 242.915 66.4368L244.678 64.2744C245.185 63.5847 245.632 62.9398 246.046 62.3693L246.624 61.5529L247.086 60.8072L247.813 59.6403C248.011 59.3309 248.16 59.0923 248.265 58.9245C248.369 58.7567 248.402 58.6934 248.402 58.6934Z" fill="#263238"/>
<path d="M188.551 92.0647C188.551 92.0647 188.525 92.0423 188.484 91.9901L188.301 91.759L187.619 90.8642L187.127 90.2118C186.955 89.9694 186.784 89.6936 186.59 89.4028C186.217 88.8212 185.747 88.1725 185.326 87.4045L184.636 86.2114C184.398 85.7976 184.189 85.3428 183.954 84.8842C183.466 83.9745 183.044 82.9567 182.578 81.9017C180.658 77.2346 179.553 72.2723 179.313 67.2313C179.283 66.0718 179.231 64.972 179.286 63.9393C179.309 63.4248 179.286 62.9252 179.342 62.448C179.398 61.9708 179.424 61.5123 179.462 61.0761C179.518 60.1999 179.663 59.417 179.756 58.7273C179.812 58.3843 179.849 58.0637 179.905 57.7692C179.961 57.4746 180.021 57.2137 180.073 56.9713C180.174 56.5016 180.252 56.1362 180.312 55.8529C180.338 55.7373 180.36 55.6441 180.379 55.5658C180.397 55.4875 180.405 55.4689 180.409 55.4726C180.411 55.5061 180.411 55.5398 180.409 55.5733C180.409 55.6478 180.379 55.7448 180.36 55.8603L180.159 56.9788C180.114 57.2211 180.062 57.4858 180.006 57.7766C179.95 58.0674 179.924 58.3918 179.876 58.7385C179.794 59.4282 179.659 60.2074 179.611 61.0798C179.577 61.516 179.54 61.9746 179.506 62.448C179.473 62.9215 179.477 63.4211 179.462 63.9393C179.413 64.9683 179.462 66.0644 179.503 67.2201C179.755 72.2389 180.85 77.1794 182.742 81.8346C183.201 82.8934 183.615 83.9112 184.096 84.8171C184.331 85.2757 184.536 85.7268 184.767 86.1443L185.445 87.3374C185.856 88.1091 186.31 88.7615 186.679 89.3468C186.87 89.6414 187.052 89.9172 187.205 90.1633C187.358 90.4094 187.537 90.6219 187.679 90.8232C187.958 91.196 188.174 91.5204 188.335 91.7403L188.499 91.9827C188.519 92.0079 188.537 92.0354 188.551 92.0647Z" fill="#263238"/>
<path d="M170.797 72.5139L131.155 80.7159C131.155 80.7159 130.98 84.5894 131.953 84.6193C132.765 84.6454 162.237 79.329 171.796 77.5991C172.163 77.5328 172.512 77.3875 172.817 77.1733C173.123 76.9592 173.379 76.6812 173.566 76.3587C173.754 76.0362 173.87 75.6767 173.905 75.3051C173.941 74.9335 173.895 74.5587 173.772 74.2065C173.563 73.6132 173.147 73.1153 172.6 72.8043C172.054 72.4933 171.413 72.3902 170.797 72.5139Z" fill="#E04048"/>
<path d="M210.629 68.8533C210.636 63.9899 206.4 60.0414 201.168 60.0341C195.936 60.0268 191.689 63.9635 191.682 68.8268C191.675 73.6902 195.911 77.6387 201.143 77.646C206.375 77.6533 210.622 73.7167 210.629 68.8533Z" fill="#FAFAFA"/>
<path d="M210.632 68.8563C210.628 68.8066 210.628 68.7568 210.632 68.7072C210.632 68.599 210.61 68.4574 210.599 68.2747C210.599 68.1778 210.599 68.0734 210.576 67.9541C210.554 67.8348 210.535 67.7117 210.509 67.5812C210.483 67.4508 210.461 67.2979 210.435 67.1413C210.409 66.9847 210.345 66.8207 210.297 66.6455C210.187 66.2637 210.052 65.89 209.89 65.527C209.198 64.0325 208.112 62.7551 206.747 61.8324C205.581 61.0377 204.255 60.5083 202.863 60.2815C202.483 60.217 202.099 60.1772 201.714 60.1622C201.517 60.1622 201.319 60.1361 201.122 60.1398L200.521 60.1696H200.219L199.914 60.2106L199.302 60.3001L198.695 60.4455L198.385 60.5164L198.087 60.6207C196.38 61.163 194.866 62.1856 193.725 63.566C192.487 65.0428 191.808 66.9085 191.808 68.8358C191.808 70.763 192.487 72.6287 193.725 74.1055C194.861 75.4883 196.372 76.5147 198.076 77.062L198.378 77.1664L198.687 77.2409L199.295 77.3864L199.906 77.4758L200.208 77.5206H200.514L201.114 77.5504C201.312 77.5504 201.509 77.5504 201.703 77.5317C202.088 77.5171 202.472 77.4773 202.852 77.4125C204.236 77.1887 205.553 76.6616 206.71 75.869C208.445 74.7513 209.713 73.0404 210.278 71.0559C210.323 70.8807 210.379 70.7204 210.412 70.5638C210.446 70.4072 210.468 70.2581 210.491 70.1201C210.513 69.9822 210.539 69.8592 210.558 69.7473C210.576 69.6355 210.558 69.5236 210.58 69.4304C210.595 69.2465 210.606 69.1011 210.614 68.9942C210.617 68.9454 210.623 68.8968 210.632 68.8488C210.636 68.8984 210.636 68.9483 210.632 68.998V69.4304C210.632 69.5274 210.632 69.6355 210.632 69.7548C210.632 69.8741 210.595 70.0008 210.573 70.1276C210.55 70.2543 210.528 70.4147 210.505 70.575C210.483 70.7353 210.42 70.8956 210.375 71.0746C210.27 71.4653 210.137 71.8478 209.976 72.2191C209.778 72.6595 209.545 73.0834 209.279 73.4867C208.626 74.4689 207.789 75.3158 206.815 75.9808C205.634 76.7938 204.288 77.335 202.874 77.5653C202.488 77.6312 202.098 77.6723 201.707 77.6883C201.509 77.6883 201.308 77.7144 201.107 77.7107L200.499 77.6846H200.19L199.88 77.6399L199.258 77.5504L198.639 77.405L198.326 77.3304L198.02 77.226C196.279 76.672 194.734 75.6273 193.572 74.2174C192.303 72.7084 191.607 70.8 191.607 68.8283C191.607 66.8567 192.303 64.9483 193.572 63.4392C194.746 62.0361 196.299 61.0006 198.046 60.4567L198.352 60.356L198.665 60.2815L199.287 60.1361L199.91 60.0466L200.216 60.0056H200.525L201.137 59.9795C201.338 59.9795 201.539 59.9981 201.737 60.0056C202.128 60.021 202.518 60.0633 202.904 60.1323C204.304 60.362 205.637 60.898 206.807 61.7019C207.781 62.3686 208.615 63.2182 209.264 64.2035C209.764 64.9403 210.133 65.7575 210.356 66.6194C210.401 66.7946 210.45 66.9586 210.483 67.1189C210.517 67.2793 210.532 67.4284 210.55 67.5663C210.569 67.7043 210.591 67.831 210.61 67.9391C210.629 68.0473 210.61 68.1628 210.61 68.2598C210.61 68.4462 210.61 68.5878 210.61 68.696C210.622 68.7486 210.629 68.8023 210.632 68.8563Z" fill="#263238"/>
<path d="M89.09 100.672C87.994 101.157 86.745 101.097 85.5557 100.967C84.3664 100.836 83.1622 100.635 81.9879 100.866C80.1685 101.239 78.5654 102.596 76.7125 102.499C74.1438 102.365 72.6115 99.5987 70.341 98.3982C67.5822 96.9069 63.8801 97.839 61.6581 95.095C60.9981 94.2782 60.5951 93.284 60.5002 92.2381C60.4053 91.1922 60.6228 90.1417 61.125 89.2194C62.7393 86.3077 66.4675 85.8231 69.3754 86.8707C71.8771 87.7692 73.9238 89.5922 75.8737 91.3967C76.5373 92.0118 77.2009 92.6307 77.8869 93.2235C78.9832 94.1678 80.2601 94.8792 81.64 95.3144C83.0199 95.7496 84.474 95.8995 85.9136 95.7549C87.3068 95.6109 88.7017 96.0117 89.8059 96.8734C90.1027 97.1093 90.3359 97.4156 90.4844 97.7644C90.6399 98.0999 90.7079 98.4693 90.682 98.8381C90.5925 99.7515 89.9774 100.281 89.09 100.672Z" fill="#E04048"/>
<g opacity="0.8">
<path d="M89.09 100.672C87.994 101.157 86.745 101.097 85.5557 100.967C84.3664 100.836 83.1622 100.635 81.9879 100.866C80.1685 101.239 78.5654 102.596 76.7125 102.499C74.1438 102.365 72.6115 99.5987 70.341 98.3982C67.5822 96.9069 63.8801 97.839 61.6581 95.095C60.9981 94.2782 60.5951 93.284 60.5002 92.2381C60.4053 91.1922 60.6228 90.1417 61.125 89.2194C62.7393 86.3077 66.4675 85.8231 69.3754 86.8707C71.8771 87.7692 73.9238 89.5922 75.8737 91.3967C76.5373 92.0118 77.2009 92.6307 77.8869 93.2235C78.9832 94.1678 80.2601 94.8792 81.64 95.3144C83.0199 95.7496 84.474 95.8995 85.9136 95.7549C87.3068 95.6109 88.7017 96.0117 89.8059 96.8734C90.1027 97.1093 90.3359 97.4156 90.4844 97.7644C90.6399 98.0999 90.7079 98.4693 90.682 98.8381C90.5925 99.7515 89.9774 100.281 89.09 100.672Z" fill="white"/>
</g>
<path d="M46.9065 99.4344C46.1609 98.1407 43.924 98.1109 42.5744 98.767C41.2248 99.4232 40.3076 100.676 39.4017 101.858C38.4957 103.04 37.4705 104.244 36.0463 104.728C34.529 105.247 32.8774 104.833 31.2743 104.844C29.6711 104.855 27.7959 105.623 27.5461 107.204C27.4698 107.662 27.5023 108.131 27.6409 108.574C27.7795 109.017 28.0203 109.421 28.3439 109.754C28.9869 110.361 29.7347 110.846 30.551 111.186C32.6844 112.045 34.9618 112.49 37.2617 112.498C38.7377 112.472 40.1882 112.108 41.5015 111.434C42.8149 110.76 43.9561 109.794 44.8374 108.609C46.5747 106.231 48.9048 102.093 46.8655 99.4344" fill="#E04048"/>
<g opacity="0.8">
<path d="M46.9045 99.4344C46.1589 98.1407 43.922 98.1109 42.5724 98.767C41.2228 99.4232 40.3057 100.676 39.3997 101.858C38.4938 103.04 37.4685 104.244 36.0444 104.728C34.527 105.247 32.8754 104.833 31.2723 104.844C29.6692 104.855 27.7939 105.623 27.5441 107.204C27.4679 107.662 27.5004 108.131 27.6389 108.574C27.7775 109.017 28.0184 109.421 28.342 109.754C28.9849 110.361 29.7328 110.846 30.549 111.186C32.6825 112.045 34.9599 112.49 37.2598 112.498C38.7358 112.472 40.1862 112.108 41.4996 111.434C42.8129 110.76 43.9541 109.794 44.8354 108.609C46.5727 106.231 48.9028 102.093 46.8635 99.4344" fill="white"/>
</g>
<path d="M6.26875 107.048C5.60016 107.285 5.00164 107.687 4.52769 108.215C4.29246 108.48 4.12839 108.801 4.0508 109.147C3.97322 109.494 3.98465 109.854 4.08404 110.194C4.19939 110.529 4.43618 110.808 4.74755 110.977C5.05892 111.145 5.42218 111.191 5.76545 111.104C6.11963 110.981 6.41042 110.694 6.77951 110.631C7.36856 110.534 7.89797 111.041 8.47211 111.145C9.34823 111.298 10.1722 110.418 10.1647 109.527C10.1572 108.636 9.41906 107.965 8.71444 107.439C8.36152 107.196 7.95887 107.035 7.53579 106.967C7.11272 106.9 6.67987 106.927 6.26875 107.048Z" fill="#E04048"/>
<g opacity="0.8">
<path d="M6.26875 107.048C5.60016 107.285 5.00164 107.687 4.52769 108.215C4.29246 108.48 4.12839 108.801 4.0508 109.147C3.97322 109.494 3.98465 109.854 4.08404 110.194C4.19939 110.529 4.43618 110.808 4.74755 110.977C5.05892 111.145 5.42218 111.191 5.76545 111.104C6.11963 110.981 6.41042 110.694 6.77951 110.631C7.36856 110.534 7.89797 111.041 8.47211 111.145C9.34823 111.298 10.1722 110.418 10.1647 109.527C10.1572 108.636 9.41906 107.965 8.71444 107.439C8.36152 107.196 7.95887 107.035 7.53579 106.967C7.11272 106.9 6.67987 106.927 6.26875 107.048Z" fill="white"/>
</g>
<path d="M169.056 46.1888C166.01 46.0396 164.507 48.3362 162.804 48.7985C161.1 49.2608 159.239 49.3428 157.603 48.6792C155.478 47.8143 154.027 45.857 152.167 44.5186C148.439 41.8305 142.903 41.9908 139.331 44.8914C139.249 46.9232 140.986 48.5301 142.668 49.6709C144.349 50.8117 149.006 52.4521 149.613 54.3982C150.061 55.8522 146.921 57.0751 147.712 58.3762C148.502 59.6773 151.116 59.5468 152.558 59.297C161.663 57.7312 158.468 60.5162 161.286 60.2589C161.286 60.2589 167.188 58.7676 171.815 57.9996" fill="#455A64"/>
<path d="M199.742 99.7928L196.785 92.9217L203.097 90.189L205.293 98.8085L200.01 99.7928" fill="#FFBE9D"/>
<path d="M205.291 97.6899L207.155 103.711C207.155 103.711 213.892 103.853 214.343 104.934L202.786 108.934L199.523 99.6733L205.291 97.6899Z" fill="#E04048"/>
<g opacity="0.6">
<path d="M203.398 104.445C203.299 104.518 203.23 104.625 203.204 104.745C203.179 104.866 203.199 104.991 203.26 105.098C203.328 105.2 203.432 105.271 203.552 105.299C203.671 105.326 203.796 105.306 203.901 105.243C204.007 105.167 204.08 105.054 204.107 104.926C204.134 104.799 204.112 104.666 204.047 104.553C203.965 104.454 203.848 104.39 203.72 104.375C203.591 104.361 203.463 104.396 203.361 104.475" fill="white"/>
</g>
<g opacity="0.6">
<path d="M202.787 108.934L202.496 107.987L213.681 104.505C213.681 104.505 214.273 104.55 214.341 104.934L202.787 108.934Z" fill="white"/>
</g>
<path d="M207.307 103.588C207.307 103.644 207.05 103.767 206.837 104.043C206.625 104.319 206.554 104.61 206.494 104.606C206.435 104.602 206.409 104.233 206.673 103.916C206.938 103.599 207.3 103.532 207.307 103.588Z" fill="#263238"/>
<path d="M208.691 103.666C208.72 103.719 208.512 103.898 208.403 104.203C208.295 104.509 208.325 104.777 208.269 104.796C208.213 104.815 208.064 104.505 208.206 104.129C208.348 103.752 208.672 103.614 208.691 103.666Z" fill="#263238"/>
<path d="M209.879 104.878C209.831 104.907 209.655 104.654 209.693 104.292C209.73 103.931 209.954 103.722 209.991 103.759C210.028 103.796 209.928 104.02 209.901 104.315C209.875 104.609 209.935 104.852 209.879 104.878Z" fill="#263238"/>
<path d="M206.733 102.26C206.733 102.32 206.442 102.331 206.129 102.465C205.816 102.6 205.607 102.782 205.559 102.745C205.51 102.708 205.682 102.424 206.051 102.272C206.42 102.119 206.744 102.208 206.733 102.26Z" fill="#263238"/>
<path d="M206.336 101.053C206.164 101.172 205.963 101.24 205.754 101.251C205.533 101.285 205.31 101.294 205.087 101.277C204.955 101.264 204.824 101.243 204.695 101.213C204.617 101.202 204.541 101.176 204.472 101.139C204.421 101.112 204.38 101.068 204.357 101.016C204.333 100.963 204.328 100.904 204.341 100.848C204.357 100.799 204.383 100.754 204.419 100.716C204.454 100.679 204.498 100.65 204.546 100.632C204.619 100.608 204.694 100.593 204.77 100.587C204.904 100.576 205.039 100.576 205.173 100.587C205.399 100.607 205.62 100.662 205.829 100.751C206.202 100.908 206.347 101.087 206.332 101.105C206.317 101.124 206.119 101.001 205.777 100.889C205.577 100.825 205.37 100.787 205.161 100.777C205.037 100.768 204.913 100.768 204.789 100.777C204.654 100.777 204.55 100.822 204.539 100.885C204.528 100.949 204.539 100.919 204.576 100.949C204.627 100.973 204.681 100.991 204.736 101.001C204.859 101.033 204.983 101.056 205.109 101.072C205.319 101.098 205.532 101.104 205.743 101.09C205.94 101.065 206.138 101.052 206.336 101.053Z" fill="#263238"/>
<path d="M206.292 101.161C206.292 101.161 206.091 101.012 205.945 100.654C205.86 100.444 205.812 100.221 205.804 99.9941C205.8 99.8594 205.808 99.7246 205.83 99.5915C205.833 99.5044 205.86 99.4198 205.907 99.3464C205.955 99.273 206.02 99.2135 206.098 99.1739C206.149 99.1567 206.204 99.1545 206.256 99.1677C206.309 99.181 206.356 99.209 206.393 99.2485C206.446 99.3064 206.492 99.3717 206.527 99.4424C206.59 99.5593 206.635 99.6849 206.661 99.8152C206.707 100.042 206.694 100.277 206.624 100.497C206.501 100.87 206.288 101.023 206.277 101.008C206.355 100.829 206.423 100.646 206.482 100.46C206.525 100.261 206.525 100.055 206.482 99.8562C206.455 99.7403 206.413 99.6286 206.355 99.5244C206.296 99.4088 206.214 99.3268 206.173 99.3529C206.133 99.3839 206.1 99.4234 206.077 99.4685C206.053 99.5136 206.04 99.5632 206.039 99.6139C206.015 99.7367 206.002 99.8615 206.001 99.9867C206.003 100.195 206.033 100.402 206.091 100.602C206.184 100.952 206.318 101.142 206.292 101.161Z" fill="#263238"/>
<path d="M169.556 46.4165C169.556 46.4165 164.087 57.2469 167.763 59.7857C171.439 62.3246 188.607 75.2241 188.607 75.2241L197.365 98.611L205.567 95.2556L198.733 67.8833L181.479 52.3816L169.556 46.4165Z" fill="#263238"/>
<path d="M190.616 70.9326C190.665 70.9699 190.098 71.723 189.677 72.7967C189.255 73.8704 189.14 74.7987 189.08 74.7913C189.106 73.3611 189.652 71.9893 190.616 70.9326Z" fill="#455A64"/>
<path d="M189.264 70.709C189.32 70.709 189.073 71.6112 188.991 72.7371C188.909 73.863 188.991 74.7764 188.943 74.7839C188.763 74.1123 188.714 73.4124 188.798 72.7222C188.819 72.0271 188.978 71.343 189.264 70.709Z" fill="#455A64"/>
<path d="M198.193 98.2605C198.171 98.2244 198.153 98.1855 198.141 98.1449C198.104 98.0592 198.059 97.9436 197.999 97.7945C197.873 97.4776 197.697 97.0265 197.47 96.4449C197.019 95.2668 196.352 93.5518 195.576 91.4118C194.801 89.2719 193.85 86.7031 192.869 83.8026C192.623 83.0794 192.381 82.33 192.142 81.5657C191.904 80.8014 191.684 80.0073 191.363 79.2244C190.737 77.6698 189.988 76.0965 189.167 74.5008L189.193 74.5269C188.273 73.7477 187.3 72.9313 186.3 72.1111C185.521 71.4698 184.749 70.8398 183.97 70.247L181.659 68.4947C180.145 67.3427 178.676 66.2354 177.256 65.2251C175.835 64.2148 174.434 63.3275 173.155 62.4439C171.948 61.647 170.817 60.7423 169.773 59.741C169.318 59.2994 168.915 58.8065 168.573 58.2721C168.274 57.7888 168.053 57.2617 167.917 56.71C167.714 55.8253 167.703 54.9076 167.883 54.0182C167.993 53.4596 168.153 52.9119 168.36 52.3815C168.428 52.1989 168.491 52.0646 168.528 51.9714C168.546 51.9235 168.569 51.8773 168.595 51.8335C168.595 51.8335 168.595 51.8857 168.547 51.9789C168.498 52.0721 168.457 52.21 168.398 52.3927C168.208 52.927 168.061 53.4755 167.958 54.0331C167.794 54.9116 167.817 55.8147 168.025 56.6839C168.161 57.2231 168.382 57.7376 168.677 58.2087C169.02 58.7301 169.42 59.2115 169.87 59.644C170.915 60.6315 172.046 61.5248 173.248 62.3134C174.531 63.1858 175.944 64.0656 177.368 65.0797C178.792 66.0938 180.264 67.1899 181.782 68.3419L184.093 70.0941C184.88 70.6906 185.652 71.3207 186.431 71.9582C187.43 72.7821 188.403 73.5986 189.324 74.3815V74.4002C190.144 76.0033 190.893 77.5803 191.52 79.1461C191.818 79.9139 192.077 80.6966 192.295 81.4911C192.53 82.2591 192.772 83.0048 193.011 83.7281C193.98 86.6286 194.905 89.1973 195.677 91.3447L197.518 96.3964C197.731 96.9817 197.891 97.4403 198.014 97.7609L198.137 98.1337C198.162 98.1731 198.181 98.2158 198.193 98.2605Z" fill="#455A64"/>
<path d="M176.301 49.8838L186.874 51.3825L192.295 52.7619L184.872 55.4239L176.301 49.8838Z" fill="#263238"/>
<path d="M163.356 49.1193C163.295 49.214 163.221 49.2994 163.136 49.3728C162.923 49.5909 162.697 49.7951 162.458 49.9842C160.878 51.2483 158.975 52.0429 156.966 52.277C156.664 52.3141 156.36 52.3316 156.056 52.3292C155.944 52.3407 155.83 52.3331 155.721 52.3068C155.721 52.2733 156.194 52.2584 156.947 52.1391C157.927 51.9883 158.885 51.7191 159.799 51.3375C160.713 50.9532 161.578 50.4614 162.376 49.8723C162.987 49.4212 163.334 49.0969 163.356 49.1193Z" fill="#263238"/>
<path d="M170.946 33.6397L168.906 48.97C168.906 48.97 175.684 48.5263 180.464 50.1145C185.243 51.7027 188.181 51.658 188.181 51.658L187.182 42.1213L190.75 34.2921L192.319 43.4448L199.649 50.9906L204.425 49.9095L199.474 41.618L196.036 24.7219C195.746 23.3135 194.983 22.0466 193.874 21.1317L193.736 21.0198L186.541 17.0083L184.125 17.0568C182.083 17.1013 180.048 17.3108 178.04 17.6831C176.787 17.9163 175.637 18.5324 174.748 19.4465C173.949 20.3445 173.372 21.4189 173.067 22.5819L170.946 33.6397Z" fill="#E04048"/>
<path d="M193.804 27.2275C193.761 27.3981 193.701 27.5642 193.625 27.7234L193.081 29.0357C192.611 30.1542 191.963 31.6641 191.217 33.3417L189.308 37.6329C189.07 38.1511 188.868 38.5836 188.715 38.9266C188.648 39.0873 188.57 39.2431 188.48 39.3926C188.514 39.221 188.569 39.0544 188.645 38.8967C188.768 38.5798 188.95 38.1325 189.181 37.577C189.644 36.4585 190.3 34.9449 191.045 33.2635C191.791 31.5821 192.466 30.0721 192.965 28.9798L193.569 27.6898C193.631 27.528 193.71 27.3731 193.804 27.2275Z" fill="#263238"/>
<path d="M173.467 24.5579C174.868 28.465 177.568 37.3865 178.88 40.8276C179.283 41.8717 179.957 42.7894 180.833 43.4858L195.373 53.7719L198.729 49.4062L187.831 38.8927L181.956 21.4858C181.128 19.1632 177.694 17.9031 175.562 19.1445C173.944 20.1027 172.837 22.7683 173.467 24.5579Z" fill="#E04048"/>
<path d="M182.238 22.2095C182.238 22.2095 182.279 22.3101 182.35 22.5077L182.663 23.395C182.931 24.1817 183.326 25.3188 183.822 26.769L187.923 38.867L187.901 38.8334L198.817 49.3357L198.877 49.3953L198.824 49.4624L196.409 52.6053C196.084 53.0229 195.764 53.4441 195.465 53.8319L195.409 53.9064L195.331 53.8505L184.169 45.8088L181.667 44.0081L181.067 43.5757C180.863 43.4365 180.668 43.2832 180.485 43.1171C180.131 42.7855 179.82 42.4096 179.561 41.9986C179.313 41.6058 179.109 41.187 178.953 40.7497L178.472 39.5119C178.167 38.7029 177.876 37.9237 177.607 37.1744C176.537 34.1918 175.743 31.7536 175.214 30.0685C174.953 29.2296 174.752 28.5772 174.61 28.1261C174.547 27.9099 174.494 27.7533 174.461 27.6191C174.443 27.5615 174.428 27.503 174.416 27.4438C174.416 27.4438 174.438 27.4998 174.479 27.6153C174.52 27.7309 174.573 27.9024 174.647 28.1149C174.793 28.5623 175.02 29.211 175.285 30.0461C175.84 31.7238 176.645 34.1471 177.734 37.1296C178.006 37.8753 178.301 38.6507 178.61 39.4597C178.771 39.8624 178.931 40.2762 179.095 40.6938C179.25 41.1207 179.451 41.5295 179.695 41.9129C179.95 42.3072 180.253 42.668 180.597 42.9866C180.775 43.1485 180.964 43.2968 181.164 43.4303L181.768 43.8627L184.277 45.6709L195.462 53.6977H195.331L196.274 52.4711L198.69 49.332V49.4587L187.796 38.9602V38.9415C186.119 33.9197 184.728 29.7478 183.751 26.8212L182.633 23.4323L182.346 22.5413C182.264 22.3139 182.238 22.2095 182.238 22.2095Z" fill="#263238"/>
<path d="M180.85 20.0841C180.828 20.1065 180.586 19.8529 180.105 19.5584C179.491 19.1724 178.788 18.9514 178.063 18.9168C177.339 18.8822 176.618 19.0351 175.97 19.3608C175.471 19.6069 175.206 19.838 175.184 19.8119C175.38 19.5697 175.626 19.3736 175.907 19.2378C176.566 18.8654 177.317 18.6871 178.073 18.7234C178.829 18.7596 179.559 19.0091 180.179 19.4428C180.447 19.6058 180.676 19.8245 180.85 20.0841Z" fill="#263238"/>
<path d="M199.795 41.8456C199.795 41.9053 199.105 41.8456 198.304 42.032C197.502 42.2184 196.924 42.5987 196.891 42.5465C197.266 42.1794 197.742 41.9339 198.259 41.8419C198.759 41.6862 199.295 41.6875 199.795 41.8456Z" fill="#263238"/>
<path d="M175.379 30.4336C175.332 30.4514 175.284 30.4639 175.234 30.4709C175.101 30.5 174.967 30.5212 174.831 30.5343C174.382 30.581 173.929 30.552 173.489 30.4486C172.919 30.2972 172.389 30.0208 171.938 29.6395C171.898 29.609 171.862 29.574 171.83 29.5352C172.336 29.909 172.904 30.1916 173.508 30.3703C174.124 30.4925 174.756 30.514 175.379 30.4336Z" fill="#FAFAFA"/>
<path d="M176.511 33.759C176.289 33.6104 176.059 33.4747 175.821 33.3526C175.235 33.0796 174.603 32.9189 173.957 32.8792C173.312 32.8393 172.665 32.853 172.022 32.9202L171.437 32.9761C171.365 32.9811 171.293 32.9811 171.221 32.9761C171.29 32.9552 171.361 32.9414 171.433 32.9351C171.571 32.9127 171.769 32.8866 172.019 32.8568C172.662 32.7715 173.313 32.749 173.961 32.7897C174.609 32.8329 175.243 33.004 175.825 33.293C176 33.3824 176.168 33.4872 176.325 33.6062C176.393 33.6484 176.456 33.6999 176.511 33.759Z" fill="#FAFAFA"/>
<g opacity="0.4">
<path d="M174.635 28.1108C174.635 28.1108 175.008 33.9417 175.444 36.6372C175.88 39.3327 176.73 42.0766 178.661 44.0041C180.592 45.9315 183.366 46.8039 186.062 47.3594C185.189 46.7033 184.339 46.0285 183.5 45.3313C182.423 44.4365 180.842 43.5604 179.974 42.4569C178.303 40.3355 177.942 37.655 177.08 35.0974C176.29 32.7338 175.429 30.4857 174.635 28.1258" fill="black"/>
</g>
<path d="M184.759 30.3854C184.665 30.4517 184.562 30.5033 184.453 30.5382C184.154 30.644 183.838 30.6921 183.521 30.6799C182.719 30.6799 181.657 30.3071 180.449 30.4152C179.421 30.4948 178.427 30.814 177.545 31.3473C177.279 31.5096 177.023 31.6889 176.78 31.8841L176.586 32.0482C176.542 32.0854 176.516 32.1041 176.516 32.1004C176.811 31.7893 177.147 31.5197 177.515 31.2988C178.4 30.7466 179.405 30.4166 180.445 30.3369C181.668 30.2213 182.738 30.6203 183.521 30.624C183.832 30.6415 184.144 30.6036 184.442 30.5121C184.651 30.46 184.755 30.3854 184.759 30.3854Z" fill="#FAFAFA"/>
<path d="M183.679 27.5704C183.656 27.589 183.631 27.6052 183.605 27.6189L183.392 27.7419C183.206 27.8501 182.93 27.9917 182.583 28.1558C180.763 29.0078 178.788 29.4773 176.779 29.5352C176.406 29.5352 176.081 29.5352 175.869 29.5352H175.623C175.594 29.5379 175.566 29.5379 175.537 29.5352H175.623H175.869C176.081 29.5352 176.395 29.5352 176.775 29.5165C177.771 29.4728 178.761 29.3355 179.731 29.1065C180.702 28.8728 181.649 28.5508 182.561 28.1446C182.908 27.988 183.187 27.8501 183.377 27.7718L183.597 27.6599C183.65 27.5779 183.676 27.5667 183.679 27.5704Z" fill="#FAFAFA"/>
<path d="M191.936 30.6276L191.836 30.6052C191.739 30.5784 191.645 30.5461 191.552 30.5083C191.217 30.3605 190.909 30.1562 190.643 29.9043C189.934 29.3004 189.282 28.167 188.182 27.2946C186.958 26.3176 185.481 25.7086 183.924 25.5386L183.63 25.5088C183.597 25.5152 183.563 25.5152 183.529 25.5088C184.032 25.5073 184.533 25.5674 185.021 25.6878C186.198 25.9627 187.298 26.4978 188.242 27.2536C188.753 27.6768 189.217 28.1543 189.625 28.6778C189.951 29.1058 190.307 29.5095 190.691 29.8857C190.952 30.1373 191.251 30.345 191.578 30.5008C191.798 30.5903 191.94 30.6164 191.936 30.6276Z" fill="#FAFAFA"/>
<path d="M191.501 32.4061C191.395 32.3827 191.29 32.3528 191.188 32.3166C190.918 32.2025 190.666 32.0479 190.442 31.8581C190.111 31.573 189.806 31.26 189.529 30.9223C189.19 30.5166 188.816 30.1423 188.411 29.8038C187.995 29.4749 187.5 29.2626 186.975 29.1887C186.548 29.1288 186.115 29.12 185.685 29.1626C185.312 29.1961 185.018 29.2409 184.813 29.267L184.574 29.3005C184.547 29.3047 184.519 29.3047 184.492 29.3005C184.517 29.2886 184.543 29.2811 184.57 29.2782L184.805 29.2297C185.01 29.1924 185.309 29.1402 185.678 29.1029C186.112 29.0471 186.552 29.0471 186.986 29.1029C187.532 29.1704 188.048 29.3871 188.478 29.7293C188.887 30.0746 189.262 30.4592 189.596 30.8775C189.871 31.2121 190.17 31.5261 190.491 31.817C190.715 32.0089 190.966 32.1671 191.236 32.2868C191.393 32.3651 191.501 32.3986 191.501 32.4061Z" fill="#FAFAFA"/>
<path d="M197.211 31.2055C196.942 31.1323 196.662 31.1046 196.383 31.1234C196.081 31.1498 195.784 31.2162 195.5 31.321C195.179 31.4329 194.836 31.5969 194.475 31.761C194.135 31.9209 193.78 32.0458 193.416 32.1338C193.114 32.2037 192.802 32.2201 192.495 32.1822C192.287 32.1538 192.086 32.0882 191.902 31.9884C191.843 31.9569 191.786 31.9194 191.734 31.8765C191.973 32.0208 192.24 32.1123 192.517 32.145C192.817 32.1756 193.12 32.1542 193.412 32.0816C193.772 31.9922 194.121 31.8673 194.456 31.7088C194.829 31.5447 195.164 31.3844 195.492 31.2726C195.783 31.1703 196.087 31.1076 196.395 31.0862C196.603 31.0736 196.812 31.0937 197.013 31.1458C197.081 31.1584 197.148 31.1784 197.211 31.2055Z" fill="#FAFAFA"/>
<path d="M197.799 33.2335C197.501 33.0091 197.143 32.8792 196.77 32.8607C196.369 32.8473 195.97 32.9198 195.599 33.0732C195.149 33.2738 194.723 33.5239 194.328 33.8188C193.93 34.1162 193.507 34.3794 193.064 34.6055C192.697 34.7854 192.298 34.893 191.89 34.9224C191.615 34.9385 191.34 34.8979 191.081 34.8031C190.986 34.7672 190.896 34.7196 190.812 34.6614C191.145 34.8249 191.516 34.8958 191.886 34.8665C192.286 34.8303 192.675 34.7203 193.034 34.5421C193.47 34.3118 193.888 34.0488 194.283 33.7555C194.684 33.4594 195.117 33.2092 195.573 33.0098C195.954 32.8558 196.364 32.7871 196.774 32.8085C197.05 32.8243 197.319 32.9034 197.56 33.0396C197.649 33.093 197.729 33.1582 197.799 33.2335Z" fill="#FAFAFA"/>
<g opacity="0.4">
<path d="M191.598 39.236C192.343 36.1827 192.507 32.8758 192.615 29.7329C192.351 30.8327 191.676 31.7834 191.258 32.8385C191.057 33.3381 190.74 34.2477 190.74 34.2477L191.583 39.1615" fill="black"/>
</g>
<path d="M186.679 3.31885C186.638 3.60029 186.519 3.86483 186.337 4.08325C186.155 4.30168 185.916 4.46549 185.646 4.5566C185.34 4.65726 185.005 4.65726 184.703 4.77284C184.548 4.81674 184.412 4.91236 184.318 5.04389C184.225 5.17543 184.179 5.33497 184.188 5.4961C184.241 5.73471 184.461 5.88756 184.64 6.04787C184.818 6.20818 184.983 6.4617 184.878 6.67794C184.774 6.89417 184.42 6.93891 184.241 7.1365C184.159 7.2507 184.118 7.38931 184.126 7.52956C184.133 7.6698 184.188 7.80334 184.282 7.90823C184.474 8.11318 184.697 8.28788 184.942 8.42645C185.188 8.5677 185.369 8.7989 185.449 9.07143" fill="#263238"/>
<path d="M197.737 8.16156C198.557 6.42796 197.96 4.26935 196.682 2.83773C195.403 1.40611 193.568 0.600821 191.727 0.0676914C191.462 -0.00687214 191.134 -0.0627959 190.948 0.142254C190.878 0.241484 190.845 0.361762 190.853 0.482705C190.862 0.603649 190.913 0.717822 190.996 0.805872C191.169 0.978994 191.381 1.10702 191.615 1.17869C190.871 0.790239 190.052 0.56765 189.214 0.526258C188.921 0.503816 188.627 0.565916 188.368 0.705209C188.241 0.779288 188.142 0.891027 188.082 1.02475C188.023 1.15848 188.006 1.30748 188.036 1.45084C188.058 1.52116 188.097 1.58514 188.149 1.63735C188.201 1.68956 188.264 1.72847 188.335 1.75078C188.405 1.77309 188.479 1.77815 188.552 1.76553C188.625 1.75291 188.693 1.72297 188.752 1.67826C187.954 1.59163 187.15 1.77969 186.474 2.21139C185.997 2.5171 185.56 3.04651 185.676 3.602C185.797 3.9118 185.937 4.21429 186.093 4.50795C186.291 5.08582 186.004 5.70469 185.784 6.27138C185.419 7.15261 185.291 8.11389 185.411 9.06006C185.473 9.53263 185.639 9.98559 185.897 10.3865C186.155 10.7874 186.498 11.1263 186.902 11.379" fill="#263238"/>
<path d="M186.302 22.7798C185.81 22.6479 185.349 22.4189 184.947 22.1062C184.545 21.7935 184.209 21.4035 183.96 20.9591C183.711 20.5147 183.553 20.025 183.497 19.5188C183.44 19.0125 183.485 18.5 183.629 18.0114L187.051 6.42427C187.24 5.71705 187.568 5.05483 188.017 4.47678C188.466 3.89874 189.026 3.41661 189.665 3.05892C190.304 2.70124 191.007 2.47526 191.735 2.39437C192.462 2.31348 193.198 2.37931 193.9 2.58797L194.168 2.68491C195.47 3.15596 196.548 4.09966 197.186 5.32846C197.824 6.55727 197.977 7.98122 197.613 9.31733C196.909 11.8935 196.096 14.7344 195.593 16.0728C194.552 18.8428 191.615 18.2687 191.615 18.2687L190.891 20.3453C190.576 21.2559 189.927 22.0131 189.075 22.4648C188.224 22.9164 187.233 23.029 186.302 22.7798Z" fill="#FFBE9D"/>
<path d="M191.634 18.2314C190.34 17.7911 189.208 16.9761 188.379 15.8901C188.379 15.8901 188.513 18.2016 191.361 18.9547L191.634 18.2314Z" fill="#EB996E"/>
<path d="M191.108 4.28817C190.881 3.78859 190.594 2.69997 190.206 2.30851C189.818 1.91705 189.188 2.04753 188.659 2.19666C188.386 2.27567 188.136 2.41826 187.929 2.6127C187.723 2.80714 187.565 3.04787 187.469 3.31511C186.724 5.31715 186.649 7.21106 186.105 9.17954C186.055 9.30775 186.044 9.44753 186.071 9.58218C186.176 9.91399 186.541 10.0333 186.888 10.0855C187.742 10.2085 188.178 9.58591 188.58 8.83654C188.716 8.38273 188.816 7.91902 188.879 7.44966C188.926 6.79125 189.146 6.15696 189.517 5.61052C189.887 5.06409 190.395 4.62475 190.989 4.33663L191.108 4.28817Z" fill="#263238"/>
<path d="M187.532 8.0161C187.495 7.97882 185.825 6.75971 185.198 8.68345C184.572 10.6072 186.634 10.8421 186.656 10.7861C186.679 10.7302 187.532 8.0161 187.532 8.0161Z" fill="#FFBE9D"/>
<path d="M186.306 9.88046C186.306 9.88046 186.265 9.88046 186.198 9.90282C186.107 9.9087 186.017 9.88084 185.945 9.82453C185.846 9.70512 185.782 9.56166 185.758 9.40895C185.733 9.25625 185.75 9.09983 185.807 8.95587C185.856 8.7889 185.941 8.63484 186.056 8.50476C186.094 8.45097 186.145 8.40701 186.203 8.37653C186.261 8.34606 186.326 8.32994 186.392 8.32953C186.433 8.33318 186.472 8.35058 186.503 8.37895C186.533 8.40732 186.553 8.44505 186.56 8.48612C186.56 8.5495 186.56 8.58305 186.56 8.59051C186.56 8.59796 186.612 8.57187 186.623 8.48612C186.627 8.43486 186.614 8.38369 186.586 8.34072C186.566 8.31231 186.54 8.28814 186.511 8.26959C186.481 8.25104 186.449 8.23847 186.414 8.2326C186.33 8.22316 186.245 8.23531 186.167 8.26792C186.088 8.30053 186.02 8.35253 185.967 8.41901C185.832 8.5591 185.733 8.72899 185.676 8.91486C185.612 9.08351 185.598 9.26745 185.637 9.44378C185.676 9.62011 185.766 9.78104 185.896 9.90655C185.943 9.93825 185.995 9.95908 186.051 9.96747C186.106 9.97586 186.163 9.97161 186.217 9.95502C186.288 9.91401 186.31 9.88046 186.306 9.88046Z" fill="#EB996E"/>
<path d="M190.367 4.70208C191.314 4.05338 192.29 4.374 192.943 4.75428C193.595 5.13455 194.147 5.67141 194.807 6.01813C195.467 6.36485 196.35 6.48415 196.947 6.01813C197.157 5.83002 197.327 5.60044 197.444 5.34381C197.561 5.08718 197.624 4.80903 197.629 4.52686C197.672 3.98983 197.607 3.44972 197.439 2.93778C197.272 2.42583 197.004 1.95221 196.652 1.54432C196.47 1.33181 196.186 1.12676 195.929 1.23861C195.612 1.38028 195.664 1.84257 195.765 2.17438C195.765 2.17438 192.529 0.977634 190.546 1.66735C188.562 2.35706 190.367 4.70208 190.367 4.70208Z" fill="#263238"/>
<path d="M191.581 0.0302734C191.581 0.0302734 191.618 0.171944 191.719 0.403091C191.871 0.724537 192.079 1.0162 192.334 1.2643C192.712 1.63296 193.148 1.93768 193.624 2.16652C193.905 2.29849 194.2 2.39733 194.504 2.46104C194.821 2.53188 195.16 2.58035 195.503 2.67355C195.847 2.75785 196.167 2.91981 196.439 3.14703C196.688 3.36366 196.881 3.63739 197.002 3.94486C197.112 4.22415 197.152 4.52638 197.117 4.82471C197.083 5.0818 196.989 5.32714 196.841 5.54052C196.631 5.85144 196.323 6.08258 195.965 6.19668C195.868 6.22411 195.768 6.23914 195.667 6.24142C195.6 6.24142 195.563 6.24142 195.563 6.24142C195.563 6.24142 195.708 6.24142 195.936 6.14076C196.264 6.01206 196.544 5.7823 196.733 5.4846C196.862 5.28163 196.944 5.05228 196.972 4.81353C196.998 4.54028 196.956 4.26486 196.849 4.01197C196.736 3.72494 196.556 3.46923 196.323 3.26633C196.072 3.06131 195.777 2.91486 195.462 2.83759C195.134 2.74811 194.795 2.69592 194.47 2.62136C194.155 2.55358 193.85 2.44714 193.561 2.30446C193.072 2.06356 192.629 1.73933 192.252 1.34632C191.995 1.08262 191.795 0.769281 191.663 0.425459C191.628 0.331782 191.604 0.234123 191.592 0.134662C191.582 0.100884 191.578 0.0654638 191.581 0.0302734Z" fill="#455A64"/>
<path d="M189.446 0.612305C189.446 0.612305 189.494 0.753975 189.602 0.985122C189.764 1.31994 189.989 1.62006 190.266 1.8687C190.681 2.23389 191.167 2.50933 191.694 2.67772C192.345 2.88143 193.01 3.03597 193.684 3.14001C194.372 3.23902 195.044 3.43221 195.679 3.71415C195.966 3.85242 196.196 4.08551 196.331 4.37404C196.431 4.6324 196.446 4.91533 196.376 5.18305C196.266 5.5617 196.02 5.8867 195.686 6.09645C195.6 6.154 195.507 6.20271 195.411 6.24185C195.378 6.2585 195.343 6.26983 195.306 6.27541C195.306 6.27541 195.437 6.20084 195.649 6.04053C195.949 5.82626 196.164 5.51356 196.257 5.15695C196.317 4.91796 196.3 4.66624 196.208 4.43742C196.082 4.18166 195.872 3.97746 195.612 3.85955C194.987 3.5935 194.331 3.4105 193.658 3.31523C192.976 3.20903 192.304 3.04693 191.649 2.83057C191.106 2.65087 190.609 2.35579 190.191 1.96563C189.912 1.69926 189.694 1.3764 189.55 1.01868C189.512 0.922236 189.483 0.822358 189.464 0.720422C189.45 0.68608 189.444 0.64925 189.446 0.612305Z" fill="#455A64"/>
<path d="M195.756 10.6558C195.719 10.7688 195.638 10.8626 195.532 10.917C195.426 10.9714 195.303 10.982 195.19 10.9466C195.133 10.9324 195.079 10.9069 195.033 10.8715C194.986 10.8362 194.947 10.7918 194.918 10.741C194.888 10.6902 194.87 10.634 194.863 10.5758C194.855 10.5176 194.86 10.4586 194.877 10.4023C194.915 10.2889 194.996 10.1948 195.102 10.1399C195.209 10.085 195.332 10.0735 195.447 10.1078C195.504 10.1229 195.557 10.1491 195.603 10.185C195.649 10.2208 195.688 10.2656 195.717 10.3167C195.746 10.3677 195.764 10.424 195.771 10.4823C195.778 10.5405 195.773 10.5995 195.756 10.6558Z" fill="#263238"/>
<path d="M196.58 10.4098C196.505 10.4471 196.263 10.0929 195.793 9.93261C195.324 9.7723 194.906 9.88414 194.876 9.80958C194.846 9.73501 194.947 9.69401 195.137 9.63808C195.386 9.56883 195.649 9.57746 195.893 9.6628C196.136 9.74813 196.347 9.90607 196.498 10.1153C196.606 10.2756 196.617 10.3949 196.58 10.4098Z" fill="#263238"/>
<path d="M191.149 9.32855C191.111 9.44184 191.03 9.53565 190.923 9.58998C190.817 9.64431 190.693 9.65485 190.579 9.61935C190.522 9.60471 190.469 9.57888 190.423 9.54337C190.377 9.50787 190.338 9.46341 190.309 9.41265C190.28 9.36189 190.262 9.30585 190.255 9.24786C190.248 9.18986 190.253 9.13109 190.269 9.07503C190.307 8.96191 190.387 8.86789 190.493 8.8129C190.599 8.75792 190.722 8.7463 190.836 8.78051C190.893 8.79516 190.947 8.8211 190.993 8.8568C191.04 8.8925 191.079 8.93722 191.109 8.98832C191.138 9.03942 191.156 9.09587 191.163 9.15431C191.17 9.21275 191.166 9.272 191.149 9.32855Z" fill="#263238"/>
<path d="M191.969 8.90334C191.894 8.94435 191.652 8.58645 191.186 8.42614C190.72 8.26582 190.295 8.37767 190.265 8.3031C190.235 8.22854 190.339 8.18753 190.526 8.13161C190.771 8.06413 191.031 8.07324 191.271 8.15771C191.514 8.24072 191.724 8.39868 191.872 8.60882C191.991 8.76167 192.002 8.88843 191.969 8.90334Z" fill="#263238"/>
<path d="M192.48 12.9524C192.753 12.961 193.024 13.0035 193.286 13.0791C193.409 13.1089 193.528 13.1239 193.577 13.0493C193.628 12.9321 193.643 12.8024 193.621 12.6765C193.621 12.3484 193.595 12.0054 193.584 11.6475C193.523 10.7657 193.535 9.88045 193.618 9.00049C193.746 9.87561 193.805 10.7594 193.797 11.6438C193.797 12.0166 193.797 12.3447 193.797 12.6727C193.823 12.8423 193.787 13.0157 193.696 13.1611C193.664 13.1971 193.625 13.2255 193.581 13.2442C193.538 13.2629 193.49 13.2715 193.442 13.2693C193.369 13.2682 193.296 13.2569 193.226 13.2357C192.967 13.1721 192.716 13.0769 192.48 12.9524Z" fill="#263238"/>
<path d="M190.988 12.7992C191.063 12.7992 190.888 13.3249 191.197 13.8357C191.506 14.3464 192.066 14.4769 192.043 14.5515C192.021 14.6261 191.89 14.6074 191.67 14.5515C191.373 14.4529 191.119 14.2522 190.955 13.9848C190.795 13.7292 190.743 13.4211 190.809 13.1273C190.843 12.8887 190.94 12.7843 190.988 12.7992Z" fill="#263238"/>
<path d="M192.726 7.11747C192.633 7.22931 192.189 7.00935 191.608 6.88259C191.026 6.75584 190.545 6.75584 190.512 6.61789C190.512 6.55079 190.616 6.45758 190.836 6.39793C191.126 6.32749 191.427 6.32448 191.718 6.38912C192.009 6.45375 192.281 6.58432 192.514 6.77075C192.7 6.93106 192.767 7.06527 192.726 7.11747Z" fill="#263238"/>
<path d="M196.882 9.00035C196.763 9.07864 196.48 8.85868 196.096 8.71701C195.712 8.57534 195.35 8.54178 195.32 8.40384C195.32 8.34046 195.395 8.25098 195.57 8.19879C195.804 8.14656 196.048 8.1643 196.272 8.24981C196.497 8.33532 196.69 8.48483 196.83 8.67973C196.927 8.83631 196.953 8.96307 196.882 9.00035Z" fill="#263238"/>
<path d="M188.097 50.3643C188.513 50.5158 188.862 50.8107 189.08 51.196C189.299 51.5813 189.373 52.0319 189.29 52.4669L186.769 53.4624L186.195 51.0391L188.097 50.3643Z" fill="#455A64"/>
<path d="M166.941 50.3572C166.941 50.3572 171.986 49.8353 175.143 50.95C178.301 52.0647 182.253 52.8961 183.994 52.5047C184.926 52.2774 185.759 51.7542 186.369 51.0134C186.369 51.0134 181.343 50.4094 178.976 49.6452C177.384 49.1307 174.237 45.5628 168.414 46.424L166.941 50.3572Z" fill="#455A64"/>
<path d="M187.152 52.184C186.973 51.7236 186.696 51.3076 186.34 50.9648L186.384 51.0245C185.856 51.0477 185.332 51.1238 184.819 51.2519C184.304 51.3843 183.842 51.6704 183.495 52.0721C183.376 52.1995 183.309 52.3673 183.309 52.5419C183.333 52.655 183.381 52.7619 183.449 52.8556C183.517 52.9493 183.604 53.0278 183.704 53.0862C184.165 53.5019 184.703 53.8225 185.288 54.0294C185.582 54.1278 185.899 54.139 186.199 54.0616C186.499 53.9842 186.771 53.8215 186.981 53.5932C187.121 53.3896 187.21 53.155 187.24 52.9096C187.269 52.6642 187.24 52.4153 187.152 52.184Z" fill="#455A64"/>
<path d="M183.492 52.0086C183.522 51.9015 183.577 51.8031 183.652 51.7215C183.854 51.4998 184.112 51.3363 184.398 51.248C184.823 51.1066 185.275 51.0683 185.718 51.1362C185.991 51.1772 186.252 51.2763 186.484 51.4268C186.715 51.5773 186.912 51.7757 187.06 52.0086C187.213 52.2538 187.287 52.5401 187.273 52.8288C187.252 53.0988 187.155 53.3574 186.993 53.5744C186.846 53.7686 186.645 53.9152 186.415 53.9957C186.216 54.0629 186.005 54.0883 185.796 54.0703C185.497 54.0419 185.205 53.969 184.928 53.854C184.831 53.8167 184.756 53.7832 184.704 53.7571C184.677 53.7474 184.652 53.7335 184.629 53.7161L184.711 53.7422L184.939 53.8242C185.215 53.9278 185.505 53.9918 185.8 54.0143C186.012 54.0341 186.225 54.0005 186.42 53.9165C186.616 53.8324 186.787 53.7007 186.918 53.5334C187.081 53.3212 187.173 53.0641 187.184 52.7972C187.195 52.5303 187.123 52.2666 186.978 52.0421C186.835 51.8186 186.646 51.6281 186.424 51.4834C186.201 51.3388 185.95 51.2432 185.688 51.2033C185.257 51.1323 184.815 51.1642 184.398 51.2965C184.116 51.3776 183.86 51.529 183.652 51.7364C183.59 51.8214 183.536 51.9126 183.492 52.0086Z" fill="#263238"/>
<path d="M184.558 52.0908C184.464 51.9973 184.365 51.9101 184.26 51.8298C184.14 51.7567 184.016 51.6931 183.887 51.6396C184.021 51.6657 184.148 51.7192 184.26 51.7969C184.372 51.8745 184.467 51.9746 184.539 52.0908H184.558Z" fill="#FAFAFA"/>
<path d="M185.374 52.128C185.374 52.128 185.258 52.0124 185.101 51.8819C184.945 51.7514 184.807 51.6657 184.811 51.6582C184.928 51.7011 185.036 51.767 185.128 51.8521C185.226 51.9277 185.31 52.0213 185.374 52.128Z" fill="#FAFAFA"/>
<path d="M185.706 53.8725C185.706 53.8725 185.687 53.7868 185.646 53.6526C185.592 53.4813 185.514 53.3183 185.415 53.1679C185.31 53.0191 185.185 52.8861 185.042 52.7727C184.934 52.6832 184.86 52.6385 184.863 52.6348C184.933 52.6664 184.999 52.7052 185.061 52.7503C185.206 52.8625 185.332 52.9971 185.434 53.1493C185.535 53.301 185.611 53.4685 185.658 53.6451C185.682 53.7189 185.698 53.7952 185.706 53.8725Z" fill="#FAFAFA"/>
<path d="M186.534 53.2203C186.53 53.1483 186.53 53.0761 186.534 53.0041C186.538 52.8305 186.526 52.657 186.497 52.4858C186.466 52.316 186.417 52.1498 186.352 51.99C186.303 51.867 186.266 51.7924 186.27 51.7887C186.274 51.7849 186.27 51.7887 186.303 51.8371C186.331 51.883 186.356 51.9303 186.378 51.9788C186.45 52.1396 186.503 52.3086 186.534 52.4821C186.566 52.6542 186.575 52.8297 186.561 53.0041C186.564 53.0574 186.564 53.111 186.561 53.1644C186.553 53.1837 186.545 53.2024 186.534 53.2203Z" fill="#FAFAFA"/>
<path d="M186.538 51.6655C185.725 51.942 185.01 52.4499 184.48 53.127C184.533 53.0111 184.604 52.9042 184.689 52.8101C185.081 52.3296 185.596 51.9659 186.181 51.7587C186.295 51.7105 186.415 51.6791 186.538 51.6655Z" fill="#263238"/>
<path d="M185.29 51.2627C185.01 51.4735 184.775 51.7385 184.6 52.0419C184.445 52.3552 184.352 52.6959 184.328 53.0448C184.307 52.9414 184.307 52.835 184.328 52.7316C184.348 52.4768 184.422 52.2292 184.544 52.0046C184.667 51.7794 184.833 51.5805 185.032 51.4193C185.107 51.3507 185.194 51.2975 185.29 51.2627Z" fill="#263238"/>
<path d="M186.672 53.8732C186.672 53.8732 186.65 53.7502 186.575 53.5712C186.474 53.3404 186.323 53.1352 186.132 52.971C185.677 52.5982 185.218 52.3931 185.237 52.3633C185.339 52.3933 185.438 52.4346 185.531 52.4863C185.766 52.5993 185.986 52.7422 186.184 52.9113C186.384 53.0838 186.537 53.3045 186.627 53.5526C186.67 53.6539 186.685 53.7643 186.672 53.8732Z" fill="#263238"/>
<path d="M176.075 51.2074C175.907 51.1933 175.741 51.162 175.579 51.1142C175.262 51.0433 174.807 50.9427 174.241 50.8345C172.764 50.5523 171.269 50.3779 169.767 50.3126C168.946 50.2555 168.122 50.3221 167.321 50.5102C166.674 50.6835 166.069 50.9839 165.539 51.3938C165.056 51.7846 164.63 52.24 164.271 52.7471C164.332 52.5881 164.414 52.4386 164.518 52.3034C164.779 51.9212 165.094 51.5785 165.453 51.2857C165.988 50.8465 166.609 50.5239 167.276 50.3387C168.093 50.1359 168.935 50.0617 169.774 50.1187C171.288 50.1821 172.794 50.3767 174.274 50.7003C174.841 50.8271 175.296 50.9501 175.605 51.0433C175.767 51.0804 175.925 51.1354 176.075 51.2074Z" fill="#263238"/>
<path d="M139.016 46.1519C139.095 46.0764 139.181 46.009 139.273 45.9505C139.528 45.773 139.802 45.6231 140.089 45.5032C141.159 45.0528 142.345 44.9612 143.471 45.2422C144.25 45.4323 144.972 45.8055 145.577 46.3308C146.253 46.9415 146.848 47.6356 147.348 48.3962C147.901 49.2229 148.495 50.0205 149.13 50.786C149.818 51.5985 150.566 52.3587 151.367 53.0602C153.015 54.4955 154.797 55.6699 156.587 56.244C157.435 56.5308 158.323 56.6781 159.219 56.6802C159.995 56.7114 160.764 56.5213 161.437 56.1322C161.976 55.7822 162.446 55.3361 162.824 54.8161C163.17 54.365 163.443 53.9512 163.666 53.6157L164.177 52.8402C164.233 52.7477 164.295 52.6593 164.363 52.5755C164.32 52.6759 164.268 52.772 164.207 52.8626L163.73 53.6567C163.517 53.9997 163.253 54.4023 162.91 54.8795C162.534 55.4196 162.06 55.8839 161.511 56.2478C160.819 56.6597 160.024 56.8666 159.219 56.8443C158.305 56.849 157.397 56.7042 156.531 56.4155C154.693 55.8265 152.888 54.6558 151.225 53.2093C150.415 52.5011 149.66 51.7322 148.966 50.909C148.329 50.1374 147.735 49.3322 147.184 48.4969C146.693 47.7469 146.112 47.0595 145.454 46.4501C144.87 45.936 144.173 45.568 143.419 45.3764C142.319 45.0911 141.158 45.1603 140.101 45.574C139.723 45.7356 139.36 45.9289 139.016 46.1519Z" fill="#263238"/>
<path d="M148.3 42.8449H148.039C147.868 42.8449 147.625 42.8673 147.323 42.9008C145.75 43.0831 144.25 43.6616 142.961 44.5822C142.719 44.7575 142.525 44.9103 142.395 45.0184L142.193 45.1862C142.427 44.9598 142.676 44.7505 142.939 44.5599C144.222 43.6212 145.731 43.0397 147.312 42.8747C147.64 42.8426 147.97 42.8327 148.3 42.8449Z" fill="#FAFAFA"/>
<path d="M154.285 46.4688L154.013 46.506C153.834 46.5284 153.581 46.5694 153.268 46.6328C152.456 46.7988 151.669 47.0643 150.923 47.4232C150.175 47.7827 149.474 48.2321 148.835 48.7616C148.592 48.9629 148.402 49.1344 148.276 49.2612L148.074 49.4513C148.307 49.1979 148.556 48.96 148.82 48.7392C149.456 48.2035 150.156 47.7489 150.904 47.3859C151.655 47.0278 152.448 46.766 153.264 46.6067C153.601 46.5391 153.942 46.493 154.285 46.4688Z" fill="#FAFAFA"/>
<path d="M154.102 54.9578C154.08 54.8631 154.062 54.7673 154.05 54.6708C154.016 54.4087 154.007 54.1441 154.024 53.8804C154.085 53.0064 154.339 52.1569 154.769 51.3937C155.208 50.6391 155.727 49.9341 156.317 49.291C156.76 48.7877 157.062 48.4932 157.062 48.4932L156.872 48.7131L156.35 49.3059C155.772 49.9547 155.261 50.6604 154.825 51.4123C154.393 52.1696 154.129 53.0116 154.054 53.8804C154.029 54.1433 154.029 54.4078 154.054 54.6708C154.054 54.764 154.076 54.8348 154.08 54.8833L154.102 54.9578Z" fill="#FAFAFA"/>
<path d="M160.663 51.1995C160.621 51.1068 160.588 51.0108 160.562 50.9124C160.442 50.4362 160.433 49.9387 160.536 49.4585C160.557 49.3601 160.587 49.264 160.626 49.1714C160.626 49.1714 160.6 49.2832 160.562 49.4659C160.473 49.9425 160.483 50.4325 160.592 50.905C160.633 51.0877 160.667 51.1958 160.663 51.1995Z" fill="#FAFAFA"/>
<path d="M161.812 55.7369C161.602 55.604 161.402 55.4544 161.216 55.2895C160.293 54.5001 159.641 53.4414 159.352 52.2622C159.289 52.0176 159.248 51.7682 159.229 51.5166C159.229 51.5166 159.229 51.5874 159.266 51.7142C159.303 51.841 159.322 52.0236 159.378 52.2436C159.68 53.4099 160.322 54.4599 161.223 55.2597C161.358 55.3812 161.498 55.4957 161.644 55.6027C161.756 55.6959 161.812 55.7369 161.812 55.7369Z" fill="#FAFAFA"/>
<path d="M166.841 50.5846C166.841 50.5846 166.651 50.4988 166.356 50.3274C165.976 50.1047 165.612 49.8556 165.268 49.5817C164.922 49.3076 164.595 49.0099 164.291 48.6907C164.06 48.4446 163.918 48.2769 163.918 48.2769L164.022 48.3812L164.298 48.672C164.606 48.9843 164.932 49.2781 165.275 49.5519C165.621 49.8203 165.982 50.0693 166.356 50.2975L166.703 50.5026L166.841 50.5846Z" fill="#FAFAFA"/>
<path d="M170.416 50.0888C170.416 50.0888 170.416 50.0366 170.416 49.9434C170.416 49.8502 170.416 49.675 170.397 49.5408C170.397 49.2015 170.345 48.7355 170.278 48.2247C170.211 47.714 170.118 47.2517 170.043 46.9236L169.954 46.5321C169.931 46.4389 169.924 46.3867 169.924 46.3867C169.924 46.3867 169.924 46.4352 169.969 46.5284C170.013 46.6216 170.032 46.7521 170.073 46.9012C170.151 47.2293 170.244 47.6916 170.315 48.2061C170.374 48.6438 170.41 49.0843 170.423 49.5258C170.423 49.6936 170.423 49.8316 170.423 49.9285C170.423 50.0254 170.416 50.0888 170.416 50.0888Z" fill="#FAFAFA"/>
<path d="M175.058 47.5347C175.064 47.5755 175.064 47.6169 175.058 47.6577C175.058 47.7733 175.036 47.8814 175.029 47.9858C174.995 48.2654 174.939 48.6494 174.853 49.0669C174.768 49.4845 174.667 49.8611 174.585 50.1295C174.551 50.2301 174.518 50.3345 174.484 50.4464C174.451 50.5582 174.439 50.5582 174.439 50.5582C174.445 50.5175 174.455 50.4775 174.469 50.4389C174.499 50.3308 174.529 50.2227 174.559 50.122C174.633 49.8536 174.73 49.477 174.816 49.0595C174.902 48.6419 174.961 48.2617 175.002 47.982C175.002 47.8777 175.029 47.7695 175.043 47.654L175.058 47.5347Z" fill="#FAFAFA"/>
<path d="M178.219 50.6181C178.241 50.4134 178.277 50.2103 178.327 50.0104C178.36 49.807 178.409 49.6063 178.472 49.4102C178.447 49.6145 178.411 49.8174 178.364 50.0179C178.329 50.2208 178.28 50.4213 178.219 50.6181Z" fill="#FAFAFA"/>
<path d="M183.447 52.3516C183.447 52.3516 183.447 52.2584 183.477 52.1018C183.507 51.9453 183.507 51.729 183.511 51.4904C183.511 51.3264 183.511 51.1474 183.511 50.879V50.6926C183.507 50.6704 183.507 50.6477 183.511 50.6255C183.524 50.7093 183.532 50.7941 183.533 50.879C183.533 51.0356 183.533 51.2518 183.533 51.4942C183.529 51.6988 183.513 51.903 183.485 52.1056C183.48 52.1886 183.468 52.271 183.447 52.3516Z" fill="#FAFAFA"/>
<path d="M184.45 53.5667C184.047 51.9449 182.381 50.901 180.721 50.6401C179.062 50.3791 177.388 50.7184 175.729 50.9309C174.07 51.1434 172.3 51.1956 170.812 50.4238C170.34 51.2991 170.102 52.2816 170.122 53.2759H170.995C171.177 54.536 172.329 55.5128 173.571 55.77C174.812 56.0273 175.633 56.0496 176.796 55.5426C178.019 55.0058 179.603 54.1967 180.803 53.7755C182.004 53.3542 183.331 53.1454 184.532 53.5406" fill="#455A64"/>
<path d="M171.68 50.8115C171.639 50.9317 171.589 51.0489 171.531 51.162C171.413 51.4374 171.312 51.7201 171.229 52.0083C171.145 52.3012 171.084 52.6004 171.046 52.903C171.041 53.0281 171.028 53.1527 171.005 53.2758C170.988 53.1522 170.988 53.0267 171.005 52.903C171.025 52.5948 171.079 52.2897 171.166 51.9934C171.248 51.6963 171.359 51.4079 171.497 51.1321C171.543 51.0175 171.605 50.9096 171.68 50.8115Z" fill="#263238"/>
<path d="M171.063 52.5681C170.91 52.5702 170.756 52.5565 170.605 52.527C170.449 52.5221 170.294 52.5021 170.143 52.4674C170.297 52.4321 170.458 52.4321 170.612 52.4674C170.768 52.4677 170.922 52.502 171.063 52.5681Z" fill="#263238"/>
<path d="M171.254 51.5612C171.254 51.5612 171.082 51.4568 170.855 51.3748C170.627 51.2928 170.43 51.2891 170.43 51.2667C170.581 51.2396 170.736 51.2526 170.881 51.3043C171.025 51.3559 171.154 51.4445 171.254 51.5612Z" fill="#263238"/>
<path d="M172.985 51.0281H173.246C173.414 51.0281 173.663 51.0281 173.991 51.0281C174.905 51.0184 175.816 50.9248 176.713 50.7485C178.062 50.467 179.451 50.4291 180.814 50.6367C181.625 50.7665 182.397 51.076 183.073 51.5426C183.804 52.0592 184.348 52.7981 184.624 53.649L184.647 53.7311L184.568 53.6938C184.218 53.5232 183.838 53.4195 183.45 53.3881C182.504 53.3669 181.563 53.5355 180.684 53.8839C179.849 54.17 179.031 54.5024 178.234 54.8793C177.861 55.0583 177.488 55.2522 177.116 55.3938C176.763 55.5584 176.396 55.6918 176.02 55.7927C175.335 55.9539 174.627 55.9818 173.932 55.8748C173.358 55.7934 172.809 55.5859 172.325 55.2671C171.963 55.02 171.657 54.7 171.426 54.3276C171.283 54.0951 171.171 53.8443 171.095 53.5819C171.046 53.3993 171.031 53.3023 171.031 53.3023C171.119 53.661 171.261 54.0041 171.453 54.3201C171.685 54.6853 171.991 54.9977 172.351 55.2372C172.831 55.551 173.375 55.7535 173.943 55.83C174.63 55.9312 175.33 55.8995 176.005 55.7368C176.378 55.638 176.741 55.5045 177.09 55.3379C177.462 55.1776 177.835 55.0024 178.208 54.8234C179.007 54.442 179.828 54.106 180.665 53.8168C181.555 53.4678 182.505 53.298 183.461 53.3172C183.862 53.3498 184.254 53.4559 184.617 53.6304L184.565 53.6751C184.293 52.8408 183.76 52.1163 183.043 51.6097C182.374 51.1481 181.61 50.8412 180.807 50.7112C179.456 50.5047 178.079 50.5375 176.739 50.8082C175.84 50.9821 174.926 51.0671 174.01 51.0617C173.339 51.0542 172.985 51.0281 172.985 51.0281Z" fill="#263238"/>
<path d="M172.926 55.5654C172.901 55.5099 172.879 55.4526 172.863 55.3939C172.812 55.2373 172.77 55.078 172.736 54.9167C172.515 53.8412 172.594 52.7256 172.963 51.6918C173.019 51.5369 173.082 51.3851 173.154 51.237C173.177 51.1801 173.207 51.1262 173.243 51.0767C173.243 51.0767 173.142 51.319 173.016 51.7104C172.847 52.224 172.742 52.756 172.702 53.2949C172.668 53.8334 172.698 54.3742 172.792 54.9055C172.863 55.3156 172.941 55.5617 172.926 55.5654Z" fill="#FAFAFA"/>
<path d="M176.154 53.3691C176.183 53.4716 176.203 53.5764 176.214 53.6823C176.244 53.8762 176.3 54.1409 176.374 54.4279C176.527 55.0058 176.676 55.4718 176.654 55.4793C176.6 55.3868 176.559 55.2878 176.531 55.1848C176.464 54.9984 176.374 54.7411 176.3 54.4391C176.233 54.1948 176.185 53.9454 176.158 53.6935C176.139 53.5863 176.138 53.4767 176.154 53.3691Z" fill="#FAFAFA"/>
<path d="M175.703 52.106C175.728 52.3076 175.742 52.5105 175.744 52.7137C175.77 53.0455 175.826 53.3102 175.804 53.3176C175.659 52.9308 175.624 52.5114 175.703 52.106Z" fill="#FAFAFA"/>
<path d="M176.493 50.8047C176.516 50.8047 176.415 51.0545 176.359 51.3639C176.303 51.6734 176.307 51.9343 176.285 51.9343C176.236 51.7422 176.236 51.5411 176.285 51.349C176.307 51.1528 176.379 50.9655 176.493 50.8047Z" fill="#FAFAFA"/>
<path d="M179.059 51.5274C178.947 51.4016 178.867 51.25 178.828 51.0861C178.788 50.9222 178.789 50.7511 178.832 50.5879C178.858 50.5879 178.832 50.8116 178.902 51.0688C178.973 51.3261 179.089 51.5162 179.059 51.5274Z" fill="#FAFAFA"/>
<path d="M181.071 53.6231C180.989 53.5337 180.917 53.4349 180.859 53.3286C180.702 53.0807 180.566 52.8201 180.452 52.5494C180.337 52.2799 180.242 52.0019 180.169 51.718C180.133 51.5967 180.112 51.4715 180.105 51.3452C180.154 51.4561 180.192 51.5708 180.221 51.6882C180.288 51.9007 180.389 52.1915 180.523 52.5047C180.657 52.8178 180.795 53.09 180.896 53.2876C180.966 53.393 181.025 53.5054 181.071 53.6231Z" fill="#FAFAFA"/>
<path d="M181.632 50.9165C181.632 50.9351 181.58 50.9985 181.516 51.0843C181.453 51.17 181.416 51.2483 181.393 51.2408C181.371 51.2334 181.393 51.1364 181.453 51.0358C181.513 50.9351 181.621 50.8904 181.632 50.9165Z" fill="#FAFAFA"/>
<path d="M184.58 53.6937C184.542 53.6647 184.506 53.6336 184.472 53.6005C183.989 53.1731 183.381 52.9118 182.738 52.8548C181.996 52.7742 181.246 52.8556 180.539 53.0934C179.676 53.394 178.831 53.7426 178.007 54.1373C177.185 54.5302 176.303 54.7823 175.398 54.883C174.646 54.9509 173.889 54.8852 173.161 54.6891C172.673 54.5613 172.202 54.3748 171.759 54.1336C171.602 54.0479 171.487 53.9733 171.408 53.9211L171.289 53.8428L171.412 53.9174C171.49 53.9658 171.61 54.0367 171.766 54.1187C172.875 54.7099 174.131 54.9688 175.383 54.8643C176.288 54.762 177.17 54.5101 177.992 54.1187C178.816 53.7217 179.663 53.3731 180.527 53.0748C181.24 52.8361 181.996 52.756 182.742 52.8399C183.245 52.905 183.728 53.0807 184.155 53.3544C184.309 53.4505 184.452 53.5643 184.58 53.6937Z" fill="#FAFAFA"/>
<path d="M178.361 51.938C178.361 51.938 178.268 51.9827 178.097 52.0536C177.925 52.1244 177.679 52.2213 177.351 52.3294C176.533 52.6122 175.674 52.7547 174.808 52.7507C173.945 52.7261 173.089 52.5818 172.266 52.322C171.632 52.1393 171.244 52.0014 171.244 52.0014L171.524 52.0797L172.269 52.2959C173.092 52.547 173.945 52.6874 174.805 52.7134C175.666 52.7165 176.523 52.5779 177.34 52.3033C177.653 52.199 177.903 52.1095 178.085 52.0387L178.361 51.938Z" fill="#FAFAFA"/>
<path d="M182.145 51.5424L182.052 51.4828C181.967 51.4249 181.879 51.3726 181.787 51.3262C181.453 51.148 181.093 51.0223 180.721 50.9534C180.172 50.8542 179.613 50.8328 179.058 50.89C178.428 50.9497 177.746 51.0913 177.026 51.2255C175.798 51.471 174.538 51.5063 173.298 51.3299C172.344 51.1957 171.77 51.0503 171.77 51.0503L172.18 51.1249C172.441 51.1733 172.825 51.2405 173.298 51.3001C174.538 51.4725 175.799 51.4347 177.026 51.1883C177.746 51.054 178.432 50.9124 179.066 50.8527C179.626 50.7904 180.193 50.8118 180.747 50.9161C181.12 50.982 181.48 51.1079 181.813 51.2889C181.93 51.3644 182.041 51.4492 182.145 51.5424Z" fill="#FAFAFA"/>
<path d="M184.496 53.5001C184.199 53.0884 183.855 52.713 183.47 52.3816C183.046 52.0354 182.558 51.7746 182.035 51.6136C181.394 51.4179 180.716 51.3745 180.055 51.4869C179.393 51.6189 178.762 51.8717 178.191 52.2325C177.654 52.5457 177.17 52.8514 176.733 53.0564C176.394 53.2323 176.031 53.3579 175.656 53.4293C175.555 53.4476 175.453 53.4576 175.35 53.4591C175.279 53.4591 175.242 53.4591 175.242 53.4591C175.74 53.3585 176.222 53.1891 176.674 52.9558C177.091 52.7395 177.561 52.4264 178.102 52.102C178.683 51.7202 179.332 51.4544 180.014 51.3191C180.64 51.2091 181.281 51.2396 181.893 51.4086C182.505 51.5776 183.072 51.8807 183.552 52.2959C183.838 52.5471 184.089 52.8355 184.298 53.1534C184.38 53.2588 184.447 53.3756 184.496 53.5001Z" fill="#263238"/>
<path d="M179.316 51.5986C178.596 51.9092 177.825 52.0812 177.041 52.1056C176.263 52.1944 175.475 52.1336 174.719 51.9267C174.719 51.8707 175.759 52.005 177.026 51.9267C178.294 51.8484 179.301 51.5427 179.316 51.5986Z" fill="#263238"/>
<path d="M177.47 50.4538L177.052 50.2749C176.772 50.1593 176.366 49.9915 175.833 49.7976C174.33 49.2312 172.747 48.9029 171.143 48.8246C170.037 48.787 168.933 48.9305 167.873 49.2496C166.649 49.61 165.532 50.264 164.619 51.1547C163.649 52.083 162.836 53.2574 161.722 54.2155C161.157 54.7093 160.486 55.0654 159.761 55.2557C159.005 55.4182 158.218 55.3718 157.487 55.1215C156.757 54.8746 156.08 54.4955 155.488 54.003C154.918 53.5224 154.404 52.9783 153.956 52.3813C153.061 51.2218 152.349 49.999 151.533 48.929C150.779 47.9054 149.914 46.9689 148.953 46.1366C148.114 45.4115 147.165 44.8239 146.142 44.3955C144.657 43.7613 143.014 43.5973 141.433 43.9258C141.007 44.0214 140.593 44.1601 140.195 44.3396L139.785 44.5446L140.192 44.3321C140.588 44.1494 141.003 44.0082 141.429 43.9109C143.014 43.5777 144.662 43.7377 146.153 44.3694C147.18 44.7967 148.131 45.3857 148.971 46.1142C149.945 46.9437 150.821 47.8819 151.581 48.9103C152.398 49.9766 153.11 51.2032 154.004 52.3589C154.45 52.9525 154.962 53.494 155.529 53.9732C156.118 54.4665 156.793 54.8458 157.52 55.0917C158.24 55.3373 159.013 55.3837 159.757 55.2259C160.476 55.0367 161.141 54.6832 161.699 54.1932C162.818 53.2425 163.623 52.0681 164.6 51.1361C165.516 50.2424 166.638 49.587 167.866 49.2272C168.931 48.9066 170.042 48.7642 171.154 48.806C172.756 48.8815 174.336 49.2073 175.837 49.7715C176.903 50.1779 177.47 50.4538 177.47 50.4538Z" fill="#FAFAFA"/>
<path d="M159.177 51.5424C158.981 51.5596 158.783 51.5521 158.588 51.52C158.052 51.4294 157.542 51.2206 157.097 50.9086C156.45 50.4382 155.891 49.8577 155.445 49.1937C154.909 48.3815 154.332 47.5975 153.715 46.8449C152.554 45.5074 151.156 44.3953 149.592 43.5641C149.117 43.3144 148.629 43.0904 148.131 42.893L147.594 42.688C147.594 42.688 147.795 42.7514 148.153 42.8819C148.654 43.075 149.143 43.2966 149.618 43.5455C151.191 44.3702 152.596 45.4817 153.76 46.8225C154.378 47.5759 154.955 48.3611 155.49 49.175C155.932 49.8375 156.486 50.4178 157.127 50.89C157.564 51.2001 158.064 51.4113 158.592 51.5089C158.735 51.5306 158.88 51.5431 159.024 51.5461L159.177 51.5424Z" fill="#FAFAFA"/>
<path d="M176.341 48.3926C176.301 48.3735 176.263 48.3523 176.225 48.3292C176.154 48.2882 176.046 48.2211 175.904 48.1465C175.506 47.9241 175.094 47.7274 174.67 47.5575C173.272 46.9887 171.77 46.719 170.261 46.7659C168.752 46.8128 167.27 47.1751 165.909 47.8297C165.498 48.0256 165.1 48.2472 164.716 48.4933C164.578 48.579 164.478 48.6536 164.403 48.6983L164.295 48.7692C164.295 48.7692 164.437 48.661 164.705 48.4821C165.088 48.2316 165.486 48.0062 165.898 47.8073C167.259 47.1421 168.746 46.7735 170.26 46.726C171.774 46.6784 173.281 46.9529 174.682 47.5314C175.105 47.7033 175.516 47.9039 175.912 48.1316C176.192 48.2808 176.341 48.3926 176.341 48.3926Z" fill="#FAFAFA"/>
<path d="M168.761 50.0549C168.761 50.0549 168.742 50.0027 168.716 49.9058C168.69 49.8089 168.646 49.6746 168.593 49.5069C168.447 49.0707 168.271 48.6448 168.068 48.2318C167.861 47.8204 167.626 47.4242 167.363 47.0463C167.262 46.9009 167.18 46.7853 167.121 46.707C167.061 46.6287 167.031 46.584 167.031 46.584C167.158 46.7261 167.276 46.8755 167.385 47.0314C167.925 47.7832 168.342 48.6164 168.619 49.4994C168.677 49.6817 168.725 49.8672 168.761 50.0549Z" fill="#FAFAFA"/>
<path d="M172.721 46.5918C172.721 46.5918 172.743 46.7968 172.751 47.1361C172.754 47.5739 172.725 48.0114 172.661 48.4447C172.599 48.8787 172.505 49.3075 172.378 49.7272C172.277 50.0478 172.195 50.238 172.195 50.238C172.195 50.238 172.195 50.1895 172.236 50.1C172.277 50.0105 172.315 49.8428 172.352 49.7272C172.468 49.3056 172.559 48.8773 172.624 48.4447C172.686 48.0137 172.718 47.579 172.721 47.1436C172.721 47.0094 172.721 46.8789 172.721 46.7447C172.721 46.6104 172.721 46.5918 172.721 46.5918Z" fill="#FAFAFA"/>
<path d="M164.145 52.915C163.995 52.8311 163.849 52.739 163.709 52.6391C163.37 52.3979 163.052 52.1285 162.759 51.8338C162.461 51.5434 162.189 51.2279 161.946 50.8906C161.846 50.7488 161.754 50.602 161.67 50.4507C161.67 50.4507 161.703 50.4917 161.752 50.5663C161.8 50.6408 161.875 50.7452 161.968 50.8757C162.21 51.2105 162.478 51.5259 162.77 51.8189C163.062 52.1132 163.376 52.3849 163.709 52.6317L164.019 52.8479L164.145 52.915Z" fill="#FAFAFA"/>
<path d="M158.378 51.7552C158.34 51.6331 158.31 51.5085 158.289 51.3824C158.237 51.0658 158.221 50.7445 158.24 50.4243C158.259 50.1034 158.314 49.7857 158.404 49.4773C158.441 49.3499 158.487 49.2253 158.542 49.1045C158.534 49.1398 158.524 49.1747 158.512 49.2089C158.49 49.2723 158.464 49.3655 158.43 49.4848C158.348 49.7934 158.297 50.1093 158.278 50.428C158.259 50.7453 158.272 51.0637 158.315 51.3787C158.333 51.5017 158.348 51.5986 158.363 51.6657C158.371 51.6951 158.376 51.725 158.378 51.7552Z" fill="#FAFAFA"/>
<path d="M158.36 56.5871C158.257 56.3909 158.165 56.1893 158.084 55.9831C157.888 55.4839 157.734 54.9688 157.626 54.4434C157.52 53.9178 157.463 53.3837 157.454 52.8477C157.45 52.6263 157.458 52.4048 157.476 52.1841V52.3817C157.476 52.4935 157.476 52.6613 157.476 52.8663C157.497 53.3998 157.559 53.9309 157.663 54.4545C157.768 54.978 157.916 55.4918 158.106 55.9905C158.181 56.1807 158.244 56.3335 158.289 56.4379L158.36 56.5871Z" fill="#FAFAFA"/>
<path d="M162.742 48.8213C162.76 48.9193 162.782 49.0163 162.809 49.1121C162.869 49.2649 162.958 49.3693 162.947 49.3768C162.866 49.3112 162.807 49.2229 162.776 49.1233C162.734 49.0285 162.722 48.923 162.742 48.8213Z" fill="#FAFAFA"/>
<path d="M155.462 47.4268L155.22 47.561C155.063 47.643 154.847 47.7698 154.568 47.9338C153.147 48.7961 151.901 49.9179 150.895 51.2407C150.705 51.4942 150.556 51.7067 150.459 51.8521C150.362 51.9975 150.299 52.0795 150.299 52.0795C150.476 51.7849 150.669 51.4999 150.877 51.2258C151.869 49.8875 153.119 48.7607 154.553 47.9114C154.847 47.7339 155.151 47.5722 155.462 47.4268Z" fill="#FAFAFA"/>
<path d="M150.977 43.687L150.746 43.7429C150.593 43.7765 150.373 43.8324 150.112 43.9032C149.42 44.0979 148.744 44.3472 148.091 44.6489C147.442 44.9495 146.819 45.3023 146.227 45.704C146 45.8605 145.817 45.991 145.694 46.0768L145.5 46.2147C145.5 46.2147 145.757 45.991 146.212 45.6741C146.802 45.2645 147.425 44.9065 148.076 44.6041C148.732 44.2998 149.411 44.0504 150.108 43.8585C150.637 43.7392 150.977 43.687 150.977 43.687Z" fill="#FAFAFA"/>
<path d="M181.405 50.2568C181.402 50.3352 181.39 50.4129 181.368 50.488C181.356 50.5652 181.331 50.6396 181.293 50.7079C181.293 50.6294 181.306 50.5514 181.33 50.4768C181.342 50.3996 181.367 50.3251 181.405 50.2568Z" fill="#FAFAFA"/>
<path d="M198.332 50.0889C198.332 50.0889 200.017 50.4393 200.733 50.5959C200.968 50.6481 201.207 50.5959 201.441 50.6518C202.474 50.8209 203.529 50.802 204.555 50.5959C205.267 50.3349 205.3 51.2446 204.528 51.6361C204.142 51.8507 203.722 51.9982 203.287 52.0723L205.151 53.5635C205.247 53.6411 205.311 53.7513 205.33 53.873L205.803 57.1538C205.832 57.2888 205.809 57.4294 205.74 57.549C205.672 57.6686 205.561 57.7588 205.431 57.8025C205.398 57.819 205.362 57.8288 205.326 57.8313C205.289 57.8339 205.252 57.8291 205.218 57.8173C205.183 57.8055 205.151 57.7869 205.123 57.7626C205.096 57.7383 205.074 57.7087 205.058 57.6757L205.11 58.1156C205.136 58.2669 205.1 58.4222 205.012 58.5474C204.923 58.6725 204.788 58.7573 204.637 58.783C204.485 58.8087 204.33 58.7732 204.205 58.6844C204.08 58.5957 203.995 58.4608 203.969 58.3095C203.967 58.2996 203.967 58.2895 203.969 58.2797L203.317 58.6525C203.317 58.6525 202.884 59.0999 202.418 58.4773C202.045 57.9628 200.879 55.9197 200.879 55.9197C200.879 55.9197 195.965 53.8506 196.032 53.0229L198.332 50.0889Z" fill="#FFBE9D"/>
<path d="M203.985 58.3058C203.92 58.0451 203.875 57.7795 203.851 57.5117C203.776 57.027 203.635 56.3448 203.538 55.5992C203.471 55.2263 203.385 54.8722 203.303 54.5776C203.253 54.4479 203.16 54.3397 203.038 54.2719L202.695 54.0557C202.459 53.9251 202.239 53.7674 202.039 53.5859C202.302 53.6691 202.553 53.7869 202.785 53.9364L203.139 54.134C203.296 54.213 203.42 54.3451 203.489 54.5068C203.596 54.8529 203.682 55.2053 203.747 55.5619C203.847 56.3075 203.963 56.9898 204.008 57.4893C204.042 57.761 204.034 58.0364 203.985 58.3058Z" fill="#EB996E"/>
<path d="M205.073 57.6719C204.995 57.6719 204.872 56.4938 204.57 55.0622C204.534 54.7349 204.427 54.4194 204.257 54.1376C204.069 53.9345 203.868 53.7452 203.653 53.5709C203.511 53.4511 203.359 53.3438 203.198 53.2503C203.083 53.1869 203.012 53.172 203.012 53.1571C203.012 53.1421 203.094 53.1347 203.228 53.1794C203.409 53.2503 203.58 53.3457 203.735 53.4628C203.97 53.6268 204.188 53.8128 204.387 54.0183C204.592 54.3168 204.72 54.6613 204.76 55.0211C204.895 55.6356 204.988 56.2584 205.04 56.8852C205.079 57.1455 205.09 57.4092 205.073 57.6719Z" fill="#EB996E"/>
<path d="M201.055 54.5659C201.282 54.6344 201.498 54.7362 201.696 54.8679L202.009 55.0394C202.15 55.0993 202.277 55.1883 202.382 55.3004C202.484 55.4266 202.555 55.5746 202.591 55.7328C202.635 55.8857 202.684 56.0423 202.736 56.1989C203.003 56.9618 203.208 57.7447 203.351 58.5402C203.024 57.8034 202.756 57.0417 202.55 56.2622L202.412 55.7962C202.383 55.6613 202.326 55.5342 202.244 55.4234C202.16 55.3278 202.059 55.2493 201.946 55.1922L201.647 54.9984C201.43 54.8837 201.23 54.7381 201.055 54.5659Z" fill="#EB996E"/>
<path d="M201.188 51.021C201.21 50.9465 201.907 51.2186 202.679 51.6697C203.451 52.1208 204.032 52.5906 203.991 52.6391C203.95 52.6875 203.361 52.2662 202.582 51.8375L201.594 51.2634C201.45 51.1981 201.313 51.1168 201.188 51.021Z" fill="#EB996E"/>
</g>
<defs>
<filter id="filter0_d_474_16271" x="0" y="0" width="252.414" height="125.83" filterUnits="userSpaceOnUse" color-interpolation-filters="sRGB">
<feFlood flood-opacity="0" result="BackgroundImageFix"/>
<feColorMatrix in="SourceAlpha" type="matrix" values="0 0 0 0 0 0 0 0 0 0 0 0 0 0 0 0 0 0 127 0" result="hardAlpha"/>
<feOffset dy="4"/>
<feGaussianBlur stdDeviation="2"/>
<feComposite in2="hardAlpha" operator="out"/>
<feColorMatrix type="matrix" values="0 0 0 0 0 0 0 0 0 0 0 0 0 0 0 0 0 0 0.34 0"/>
<feBlend mode="normal" in2="BackgroundImageFix" result="effect1_dropShadow_474_16271"/>
<feBlend mode="normal" in="SourceGraphic" in2="effect1_dropShadow_474_16271" result="shape"/>
</filter>
</defs>
</svg>
