<svg width="1525" height="327" viewBox="0 0 1525 327" fill="none" xmlns="http://www.w3.org/2000/svg">
<circle cx="160.312" cy="111.688" r="29.5625" fill="#FF8800"/>
<circle cx="161" cy="111" r="26.125" fill="#FF9500"/>
<circle cx="161" cy="111" r="23.375" fill="#FFA200"/>
<circle cx="160.312" cy="111.688" r="21.3125" fill="#FFAA00"/>
<circle cx="160.312" cy="111.688" r="18.5625" fill="#FFB700"/>
<circle cx="161" cy="111" r="15.125" fill="#FFC300"/>
<circle cx="160.312" cy="111.688" r="11.6875" fill="#FFD000"/>
<circle cx="161" cy="111" r="9.625" fill="#FFDD00"/>
<circle cx="161" cy="111" r="4" fill="#FFEA00"/>
<path d="M737.001 42.8754C737.001 32.1373 745.706 23.4327 756.444 23.4327C759.318 23.4327 762.044 24.0612 764.499 25.1804C764.714 11.2372 776.081 0 790.076 0C801.991 0 812.003 8.1456 814.848 19.172C817.65 17.9231 820.753 17.2278 824.019 17.2278C836.47 17.2278 846.563 27.3217 846.563 39.7731C846.563 52.0855 836.693 62.0914 824.434 62.313L824.435 62.3182H755.701L755.706 62.2996C745.311 61.9115 737.001 53.3662 737.001 42.8754Z" fill="#EFEFEF"/>
<path d="M150 136.875C150 126.137 158.705 117.433 169.443 117.433C172.317 117.433 175.043 118.061 177.498 119.18C177.713 105.237 189.08 94 203.075 94C214.99 94 225.002 102.146 227.847 113.172C230.649 111.923 233.752 111.228 237.018 111.228C249.469 111.228 259.563 121.322 259.563 133.773C259.563 146.085 249.692 156.091 237.433 156.313L237.435 156.318H168.7L168.705 156.3C158.31 155.911 150 147.366 150 136.875Z" fill="#EFEFEF"/>
<path d="M375 73.8754C375 63.1373 383.705 54.4327 394.443 54.4327C397.317 54.4327 400.043 55.0612 402.498 56.1804C402.713 42.2372 414.08 31 428.075 31C439.99 31 450.002 39.1456 452.847 50.172C455.649 48.9231 458.752 48.2278 462.018 48.2278C474.469 48.2278 484.563 58.3217 484.563 70.7731C484.563 83.0855 474.692 93.0914 462.433 93.313L462.435 93.3182H393.7L393.705 93.2996C383.31 92.9115 375 84.3662 375 73.8754Z" fill="#EFEFEF"/>
<path d="M1415 108.875C1415 98.1373 1423.7 89.4327 1434.44 89.4327C1437.32 89.4327 1440.04 90.0612 1442.5 91.1804C1442.71 77.2372 1454.08 66 1468.07 66C1479.99 66 1490 74.1456 1492.85 85.172C1495.65 83.9231 1498.75 83.2278 1502.02 83.2278C1514.47 83.2278 1524.56 93.3217 1524.56 105.773C1524.56 118.085 1514.69 128.091 1502.43 128.313L1502.43 128.318H1433.7L1433.71 128.3C1423.31 127.911 1415 119.366 1415 108.875Z" fill="#EFEFEF"/>
<path d="M0 306.875C0 296.137 8.70486 287.433 19.4426 287.433C22.3169 287.433 25.0427 288.061 27.4976 289.18C27.7127 275.237 39.0805 264 53.0749 264C64.9903 264 75.0025 272.146 77.8474 283.172C80.6493 281.923 83.752 281.228 87.0178 281.228C99.4687 281.228 109.563 291.322 109.563 303.773C109.563 316.085 99.6923 326.091 87.433 326.313L87.4345 326.318H18.6997L18.7055 326.3C8.3097 325.911 0 317.366 0 306.875Z" fill="#EFEFEF"/>
<path d="M1248 143.875C1248 133.137 1256.7 124.433 1267.44 124.433C1270.32 124.433 1273.04 125.061 1275.5 126.18C1275.71 112.237 1287.08 101 1301.07 101C1312.99 101 1323 109.146 1325.85 120.172C1328.65 118.923 1331.75 118.228 1335.02 118.228C1347.47 118.228 1357.56 128.322 1357.56 140.773C1357.56 153.085 1347.69 163.091 1335.43 163.313L1335.43 163.318H1266.7L1266.71 163.3C1256.31 162.911 1248 154.366 1248 143.875Z" fill="#EFEFEF"/>
</svg>
