<svg width="128" height="75" viewBox="0 0 128 75" fill="none" xmlns="http://www.w3.org/2000/svg">
<path d="M95.0517 6.5628V10.6369H94.3343C93.2978 10.6369 92.3034 10.7913 91.3636 11.0681V6.56275C91.3636 5.62049 90.597 4.84916 89.648 4.84916H13.7261C12.769 4.84916 12.0155 5.6248 12.0155 6.56275V55.199C12.0155 56.1322 12.7682 56.9125 13.7261 56.9125H83.5972V60.6034H14.3018L14.3016 60.6029H13.7259C10.7461 60.6029 8.31641 58.1768 8.31641 55.1955V6.56181C8.31641 3.58067 10.7457 1.1554 13.7258 1.1554C13.7258 1.1554 13.7259 1.1554 13.7259 1.1554L89.6452 1.15638C92.6246 1.15638 95.0517 3.58106 95.0517 6.5628Z" stroke="white" stroke-width="2"/>
<path d="M62.1414 68.672H62.4686L62.7325 68.4786L66.5153 65.7062H83.6025L83.6029 69.9847C83.6029 71.3354 83.8705 72.6153 84.3329 73.7922H9.10016C5.07877 73.7922 2.5907 71.5317 1.55161 69.3234C1.02147 68.1968 0.90891 67.1721 1.06471 66.5118C1.1401 66.1923 1.2663 66.001 1.39022 65.8927C1.50377 65.7935 1.67998 65.7062 1.98602 65.7062H36.8631L40.646 68.4786L40.9099 68.672H41.2371H62.1414Z" stroke="white" stroke-width="2"/>
<path d="M122.548 17.5778H122.656C124.703 17.6351 126.345 19.3122 126.345 21.375V69.9834C126.345 72.0903 124.646 73.7909 122.548 73.7909H94.3377C92.2458 73.7909 90.541 72.087 90.541 69.9834V21.3775C90.541 19.2774 92.2414 17.5778 94.3377 17.5778H122.548ZM105.742 73.5844H111.139C112.347 73.5844 113.344 72.6213 113.344 71.3871C113.344 70.1675 112.354 69.184 111.139 69.184H105.742C104.524 69.184 103.539 70.1696 103.539 71.3871C103.539 72.6172 104.537 73.5844 105.742 73.5844ZM121.843 68.9889C123.725 68.9889 125.241 67.4644 125.241 65.5895L125.242 24.3818C125.242 22.5084 123.728 20.9794 121.844 20.9794H95.0362C93.1567 20.9794 91.6388 22.5076 91.6388 24.3817C91.6388 24.3817 91.6388 24.3817 91.6388 24.3817L91.6378 65.5895C91.6378 67.464 93.1571 68.9889 95.0352 68.9889H121.843Z" stroke="white" stroke-width="2"/>
</svg>
