<svg width="1458" height="278" viewBox="0 0 1458 278" fill="none" xmlns="http://www.w3.org/2000/svg">
<path d="M406.372 82.7309V96.472H393.197V100.044H386.934V225.495H355.833V194.991H351.297V140.99H345.249V138.242H332.722V126.838H325.379V120.587L319.763 117.976L313.932 120.587V128.35H307.452V138.517H298.598V230.578H293.198V197.052H294.494V194.716H289.31V188.395H273.111V194.716H264.04V188.052C264.04 188.052 263.285 184.822 257.669 184.822C252.054 184.822 251.406 186.953 251.406 186.953C251.406 186.953 250.326 184.96 244.602 184.96C239.634 184.96 239.202 188.052 239.202 188.052V194.853H235.531V196.777H237.474V245.28H230.995V196.777H232.939V194.853H227.972V188.12H212.205V194.029H202.485V187.158C202.485 187.158 201.405 184.96 196.438 184.96C192.009 184.96 190.39 187.158 190.39 187.158C190.39 187.158 189.526 184.892 184.45 184.892C180.564 184.892 178.728 187.021 178.728 187.021V194.716H176.135V225.631H171.6V133.159H173.327V130.273H166.2V119.555H141.362V130.136H116.309V225.631H105.509V177.815H107.237V175.616H101.19V167.647H82.4V175.616H74.192V171.082H76.3517V163.388L70.7361 161.189L63.8243 163.662V171.219H65.9847V175.754H58.8574V261.219H1337.26L1337.47 261.357V209.28H1334.23V175.891H1328.4V167.372H1313.71V145.937H1303.99V131.922H1309.18V128.761H1274.19V107.739H1263.82V99.3568H1267.28V85.6162L1260.15 82.3191L1251.29 85.7539V99.4941H1255.18V107.739H1246.11V93.1735H1221.06V107.739H1214.79V189.219H1179.37V218.35H1170.09V225.495H1152.16V194.716H1147.62V188.258H1132.29V194.578H1125.81V191.28H1122.78V187.296L1116.09 184.822L1110.04 186.746L1104.86 184.822L1099.24 186.334V194.853H1096.43V225.906H1092.76V209.83H1088.01V175.754H1082.4V168.334H1061.66V175.891H1040.5V228.654H1030.78V209.418H1026.89V175.754H1019.98V168.471H1013.71V163.388L1008.31 161.601L1001.62 163.525V167.372H994.491V175.754H981.964V177.677H976.781V194.716H972.245V106.502H964.902V102.793H948.055V93.1735H938.552V87.2656L930.777 84.6549L923.001 87.1279V90.7005H915.442V103.617H907.019V158.029H890.388V166.822H877.213V156.243L846.544 167.922H839.2V198.7H823.433V201.861H814.794V208.594H808.962V202.273H789.956V225.495H785.42V194.991H782.182V175.891H778.509V162.151L772.462 157.067V147.861L766.847 146.074L760.583 148.273V157.067L756.263 162.288V153.22H734.448V162.151H731.425V194.716H727.97V209.143H723.433V194.716H721.058V175.754H715.227V168.746H693.844V175.754L672.678 175.616V185.097L669.006 186.608V194.716H658.207V127.387H653.024V115.708H632.505V127.25H611.123V195.952H603.996V147.998H605.939V144.838H598.165V134.533H589.741V128.212L581.102 125.739L573.327 128.074V134.533H562.527V145.25H545.896V148.136H538.121V201.586H533.37V175.616H524.947V170.945H528.186V163.388L522.355 161.326L515.875 163.388V170.945H519.115V175.754H511.34V166.822H502.916V129.036H480.454V116.945H459.072V129.036H455.4V139.066H440.929V149.921H437.258V96.3342H423.218V82.7309L414.579 77.3726L406.372 82.7309Z" fill="#A83B3B"/>
<path d="M1140.47 4.82558V17.6942H1130.39V39.6103H1112.12V45.4409H1103.29V234.845H1052.25V101.338H1024.52V84.0463H1012.24V75.4L1004.36 70.3733L996.799 75.1989V86.4588H986.716V101.338H979.154V183.373H959.62V173.722H935.674V182.971H885.262V262.995H873.29V188.601H877.07V183.373H871.399V172.917H848.083V183.775H795.781V240.877H787.589V94.5009H792V88.8719H783.177V71.982H747.889V88.8719H732.135V79.2202H737.177V62.3308L726.464 57.5051L715.121 62.3308V79.2202H720.163V89.2735H708.19V227.205H694.957V155.223H688.655V143.963H657.778V137.127L648.956 132.704L639.504 137.127V154.821H625.64V137.53H568.927V154.419H515.364V173.722H490.158V183.373H480.705V169.7H437.855V203.881H425.882V102.544L416.43 97.3161L408.868 102.142V110.586L401.937 106.565L391.224 110.586V118.227H376.731V128.281H357.196V134.714H346.483V194.23H300.483V217.956H283.468V228.411H253.851V260.18H233.056V228.009H216.672V215.945H183.275V225.597H163.74V233.237H141.684V137.932H102.615V147.583H86.2308V160.853H76.1491V146.778H62.9152V112.999H55.0388V89.4746L47.7924 84.8506L42.1205 88.4697V112.999H30.7776V97.7178H0.530433V113.402H0V277.698C481.536 277.672 1280.88 277.83 1457.04 277.867V85.6545H1433.49V199.056H1424.67V109.782H1411.44V94.5009H1361.66V114.608H1321.96V155.626H1284.78V143.561H1272.8V86.861H1263.04V59.7166L1255.79 55.0921L1248.86 59.5155V88.0675H1239.41V70.3733H1209.16V88.8719H1202.23V117.423H1176.39V39.6103H1166.31V17.6942H1157.17V5.83106L1148.03 0L1140.47 4.82558Z" fill="#D3787C"/>
</svg>
