<svg width="74" height="248" viewBox="0 0 74 248" fill="none" xmlns="http://www.w3.org/2000/svg">
<path d="M70.125 0.0537109L72.5664 7.13379C60.929 10.7959 52.5876 17.0622 47.542 25.9326C42.5778 34.8031 40.0957 45.0977 40.0957 56.8164V85.9912C40.0957 93.3968 38.7529 100.151 36.0674 106.255C33.4632 112.277 29.2721 117.078 23.4941 120.659C17.7161 124.159 10.1071 125.908 0.666992 125.908V118.828C11.165 118.828 18.7334 115.858 23.3721 109.917C28.0107 103.976 30.3301 96.001 30.3301 85.9912V56.8164C30.3301 48.2715 31.5101 40.2962 33.8701 32.8906C36.3115 25.4036 40.4212 18.8525 46.1992 13.2373C51.9772 7.54069 59.9525 3.14616 70.125 0.0537109ZM73.0547 239.8L70.125 247.002C59.9525 243.828 51.9772 239.474 46.1992 233.94C40.4212 228.407 36.3115 221.937 33.8701 214.531C31.5101 207.207 30.3301 199.272 30.3301 190.728V161.675C30.3301 155.002 29.3128 149.224 27.2783 144.341C25.2438 139.377 22.07 135.552 17.7568 132.866C13.4437 130.099 7.74707 128.716 0.666992 128.716V121.636C10.1071 121.636 17.7161 123.426 23.4941 127.007C29.2721 130.588 33.4632 135.389 36.0674 141.411C38.7529 147.433 40.0957 154.188 40.0957 161.675V190.728C40.0957 198.54 41.235 205.661 43.5137 212.09C45.7923 218.6 49.3324 224.215 54.1338 228.936C59.0166 233.656 65.3236 237.277 73.0547 239.8Z" fill="#E04048" fill-opacity="0.59"/>
</svg>
