<svg width="73" height="248" viewBox="0 0 73 248" fill="none" xmlns="http://www.w3.org/2000/svg">
<path d="M0.976562 240.866L3.2959 247.946C13.5498 244.854 21.5658 240.459 27.3438 234.763C33.1217 229.147 37.1908 222.596 39.5508 215.109C41.9108 207.704 43.0908 199.729 43.0908 191.184V162.009C43.0908 155.336 44.1081 149.517 46.1426 144.553C48.1771 139.67 51.3509 135.886 55.6641 133.2C60.0586 130.515 65.7552 129.172 72.7539 129.172V122.336C63.3138 122.336 55.7048 124.086 49.9268 127.585C44.2301 131.084 40.0391 135.845 37.3535 141.867C34.668 147.889 33.3252 154.603 33.3252 162.009V191.184C33.3252 198.996 32.2266 206.198 30.0293 212.79C27.9134 219.382 24.4548 225.078 19.6533 229.88C14.9333 234.763 8.70768 238.425 0.976562 240.866ZM3.2959 0.998047L0.488281 8.2002C8.13802 10.723 14.3636 14.3444 19.165 19.0645C24.0479 23.7845 27.6286 29.3997 29.9072 35.9102C32.1859 42.3392 33.3252 49.46 33.3252 57.2725V86.3252C33.3252 93.8122 34.668 100.526 37.3535 106.467C40.0391 112.489 44.2301 117.25 49.9268 120.749C55.7048 124.33 63.3138 126.12 72.7539 126.12V119.284C62.2559 119.284 54.6875 116.273 50.0488 110.251C45.4102 104.31 43.0908 96.335 43.0908 86.3252V57.2725C43.0908 48.7275 41.9108 40.793 39.5508 33.4688C37.1908 26.0632 33.1217 19.5934 27.3438 14.0596C21.5658 8.52572 13.5498 4.17188 3.2959 0.998047Z" fill="#E04048" fill-opacity="0.59"/>
</svg>
