<svg width="248" height="243" viewBox="0 0 248 243" fill="none" xmlns="http://www.w3.org/2000/svg">
<path d="M240.158 93.968C212.687 46.9159 138.169 63.6727 122.951 40.7892C115.156 29.0882 106.436 15.4878 93.7884 8.42544C81.7323 1.66185 67.7542 -0.711046 55.5685 0.179494C12.0504 3.36402 -6.39726 42.2998 1.96141 85.0569C13.1213 142.091 63.6792 200.354 123.74 200.759C155.157 200.996 185.176 189.723 208.679 173.869L209.204 173.513C232.707 157.512 261.137 129.888 240.158 93.968Z" fill="#E04048"/>
<path opacity="0.7" d="M240.158 93.968C212.687 46.9159 138.169 63.6727 122.951 40.7892C115.156 29.0882 106.436 15.4878 93.7884 8.42544C81.7323 1.66185 67.7542 -0.711046 55.5685 0.179494C12.0504 3.36402 -6.39726 42.2998 1.96141 85.0569C13.1213 142.091 63.6792 200.354 123.74 200.759C155.157 200.996 185.176 189.723 208.679 173.869L209.204 173.513C232.707 157.512 261.137 129.888 240.158 93.968Z" fill="white"/>
<path d="M123.74 242.232C183.357 242.232 231.687 235.479 231.687 227.149C231.687 218.819 183.357 212.066 123.74 212.066C64.1225 212.066 15.793 218.819 15.793 227.149C15.793 235.479 64.1225 242.232 123.74 242.232Z" fill="#E04048"/>
<path opacity="0.5" d="M123.74 242.232C183.357 242.232 231.687 235.479 231.687 227.149C231.687 218.819 183.357 212.066 123.74 212.066C64.1225 212.066 15.793 218.819 15.793 227.149C15.793 235.479 64.1225 242.232 123.74 242.232Z" fill="white"/>
<path d="M225.497 51.3627V152.85C225.497 156.168 224.179 159.35 221.834 161.696C219.489 164.043 216.308 165.362 212.99 165.363H34.4875C31.1699 165.362 27.9887 164.043 25.6433 161.696C23.298 159.35 21.9805 156.168 21.9805 152.85V51.3627C21.9805 51.064 21.9805 50.7991 22.0199 50.4835C22.2397 47.3264 23.6486 44.3702 25.9624 42.2112C28.2762 40.0522 31.3228 38.851 34.4875 38.8501H212.99C216.158 38.8514 219.208 40.0557 221.522 42.2194C223.837 44.3832 225.243 47.345 225.457 50.506C225.486 50.7766 225.497 51.0697 225.497 51.3627Z" fill="white" stroke="#263238" stroke-width="1.10311" stroke-linecap="round" stroke-linejoin="round"/>
<path d="M28.0684 55.1731H220.047V148.922C220.047 152.031 218.812 155.013 216.613 157.212C214.415 159.41 211.433 160.646 208.324 160.646H39.7976C36.6883 160.646 33.7063 159.41 31.5077 157.212C29.3092 155.013 28.074 152.031 28.074 148.922V55.1731H28.0684Z" fill="#263238"/>
<path opacity="0.2" d="M220.053 55.1731V148.922C220.07 152.014 218.857 154.986 216.683 157.184C214.509 159.383 211.551 160.628 208.459 160.646H39.6624C36.5706 160.628 33.6124 159.383 31.4382 157.184C29.2641 154.986 28.052 152.014 28.0685 148.922V55.1731H220.053Z" fill="white"/>
<path d="M225.457 50.5063H22.0195C22.2393 47.3493 23.6482 44.393 25.962 42.234C28.2758 40.075 31.3224 38.8739 34.4871 38.8729H212.99C216.154 38.8739 219.201 40.075 221.515 42.234C223.828 44.393 225.237 47.3493 225.457 50.5063Z" fill="#E04048" stroke="#263238" stroke-width="1.10311" stroke-miterlimit="10"/>
<path d="M47.0161 44.667C47.0161 45.1051 46.8862 45.5334 46.6428 45.8977C46.3994 46.2619 46.0534 46.5458 45.6487 46.7135C45.2439 46.8811 44.7986 46.925 44.3689 46.8395C43.9392 46.7541 43.5445 46.5431 43.2347 46.2333C42.9249 45.9235 42.714 45.5289 42.6285 45.0992C42.543 44.6695 42.5869 44.2241 42.7546 43.8194C42.9222 43.4146 43.2061 43.0687 43.5704 42.8253C43.9347 42.5819 44.3629 42.452 44.801 42.452C45.3885 42.452 45.9519 42.6853 46.3673 43.1007C46.7827 43.5161 47.0161 44.0796 47.0161 44.667Z" fill="#263238"/>
<path d="M56.3852 44.667C56.3852 45.1051 56.2553 45.5334 56.0119 45.8977C55.7685 46.2619 55.4226 46.5458 55.0178 46.7135C54.6131 46.8811 54.1677 46.925 53.738 46.8395C53.3083 46.7541 52.9136 46.5431 52.6039 46.2333C52.2941 45.9235 52.0831 45.5289 51.9976 45.0992C51.9122 44.6695 51.956 44.2241 52.1237 43.8194C52.2913 43.4146 52.5753 43.0687 52.9395 42.8253C53.3038 42.5819 53.7321 42.452 54.1702 42.452C54.7576 42.452 55.321 42.6853 55.7364 43.1007C56.1519 43.5161 56.3852 44.0796 56.3852 44.667Z" fill="#263238"/>
<path d="M63.5373 46.8821C64.7607 46.8821 65.7524 45.8904 65.7524 44.667C65.7524 43.4437 64.7607 42.452 63.5373 42.452C62.314 42.452 61.3223 43.4437 61.3223 44.667C61.3223 45.8904 62.314 46.8821 63.5373 46.8821Z" fill="#263238"/>
<path d="M220.046 55.1731V148.922C220.046 152.031 218.811 155.013 216.612 157.212C214.414 159.41 211.432 160.646 208.322 160.646H39.7963C37.0826 160.645 34.4531 159.703 32.3563 157.981C30.2595 156.258 28.8253 153.861 28.2982 151.199V151.165C28.1549 150.422 28.0832 149.667 28.084 148.911V55.1731H220.046Z" stroke="#263238" stroke-width="1.10311" stroke-miterlimit="10"/>
<path d="M219.866 69.6695C219.044 69.208 218.17 68.8466 217.262 68.593L216.208 63.8867H211.733L210.69 68.593C209.777 68.842 208.899 69.2036 208.075 69.6695L204.034 67.0825L200.872 70.2332L203.414 74.2744C202.948 75.0984 202.587 75.9768 202.337 76.8897L197.631 77.9324V82.4076L202.337 83.4616C202.584 84.379 202.946 85.2615 203.414 86.0881L200.827 90.1576L203.994 93.3195L208.058 90.7325C208.88 91.1991 209.757 91.5626 210.668 91.8146L211.716 96.5153H216.174L217.223 91.8146C218.131 91.5601 219.005 91.1968 219.827 90.7325L220.035 90.8677V69.5568L219.866 69.6695ZM213.982 86.0149C212.838 86.0149 211.72 85.6756 210.768 85.0399C209.817 84.4042 209.076 83.5007 208.639 82.4437C208.201 81.3867 208.087 80.2237 208.311 79.1017C208.534 77.9798 209.085 76.9494 209.895 76.1409C210.704 75.3324 211.735 74.7821 212.857 74.5596C213.979 74.3371 215.142 74.4524 216.199 74.8909C217.255 75.3295 218.158 76.0716 218.793 77.0233C219.428 77.975 219.766 79.0937 219.765 80.2376C219.765 80.9968 219.615 81.7485 219.324 82.4498C219.034 83.1511 218.608 83.7882 218.071 84.3248C217.534 84.8613 216.896 85.2867 216.194 85.5767C215.493 85.8667 214.741 86.0156 213.982 86.0149Z" fill="#263238"/>
<path d="M139.21 74.2069V64.7717L129.29 62.5679C128.754 60.6511 127.998 58.8031 127.035 57.0612L128.236 55.1731H81.3977L82.5531 57.0105C81.5787 58.7447 80.8215 60.5923 80.2986 62.5116L70.373 64.721V74.1788L80.2986 76.3938C80.8215 78.3274 81.5787 80.1899 82.5531 81.94L77.1028 90.5128L83.7819 97.1862L92.3491 91.7303C94.0871 92.708 95.9358 93.4743 97.8558 94.013L100.065 103.905H109.478L111.699 93.9904C113.612 93.4492 115.455 92.6829 117.188 91.7077L125.761 97.1637L132.435 90.4903L127.018 81.9174C127.978 80.1783 128.735 78.3344 129.273 76.422L139.21 74.2069ZM104.828 81.6807C102.417 81.6807 100.06 80.9657 98.0547 79.6261C96.0499 78.2865 94.4873 76.3825 93.5645 74.1548C92.6418 71.9271 92.4004 69.4758 92.8708 67.1109C93.3412 64.746 94.5023 62.5737 96.2073 60.8687C97.9123 59.1637 100.085 58.0026 102.449 57.5322C104.814 57.0618 107.266 57.3032 109.493 58.226C111.721 59.1487 113.625 60.7113 114.965 62.7162C116.304 64.721 117.019 67.0781 117.019 69.4893C117.02 71.0905 116.705 72.6762 116.093 74.1557C115.48 75.6351 114.582 76.9794 113.45 78.1116C112.318 79.2438 110.974 80.1418 109.494 80.7542C108.015 81.3666 106.429 81.6814 104.828 81.6807Z" fill="#263238"/>
<path d="M76.6084 138.996L77.0086 131.505L69.2474 129.319C68.8871 127.779 68.3539 126.285 67.6579 124.866L72.3473 118.283L67.3197 112.708L60.2969 116.654C58.9545 115.809 57.519 115.123 56.0189 114.608L54.6775 106.649L47.1924 106.305L45.0281 114.089C43.486 114.435 41.991 114.965 40.5754 115.667L33.9978 110.984L28.4122 116.006L32.3914 123.034C31.5383 124.371 30.8495 125.805 30.3398 127.306L28.0853 127.678V137.824L29.7311 138.286C30.0725 139.83 30.6006 141.327 31.3036 142.744L28.0684 147.282L28.2825 151.165V151.199L31.6249 154.902L38.659 150.928C39.9991 151.79 41.4395 152.485 42.9483 152.997L44.2672 160.64L44.3292 160.961L51.8142 161.355L52.0115 160.64L53.9786 153.577C55.5276 153.23 57.0299 152.701 58.4538 151.999L65.0201 156.677L70.6001 151.661L66.6546 144.627C67.4998 143.292 68.1793 141.859 68.6781 140.36L76.6084 138.996ZM56.7291 127.301C55.4469 125.875 53.7706 124.861 51.9122 124.388C50.0537 123.914 48.0967 124.003 46.2886 124.642C44.4805 125.281 42.9026 126.442 41.7545 127.979C40.6064 129.515 39.9397 131.357 39.8388 133.272C39.7378 135.187 40.2071 137.089 41.1873 138.737C42.1675 140.386 43.6146 141.706 45.3454 142.532C47.0763 143.358 49.0132 143.652 50.9111 143.376C52.809 143.101 54.5826 142.269 56.0076 140.986C57.9103 139.267 59.0544 136.864 59.1896 134.304C59.3248 131.743 58.4401 129.233 56.7291 127.323V127.301Z" fill="#263238"/>
<path d="M136.477 127.831C136.767 126.671 136.92 125.481 136.934 124.286L142.316 121.467L140.829 116.006L134.753 116.288C134.137 115.267 133.405 114.321 132.571 113.47L134.369 107.658L129.466 104.84L125.362 109.316C124.205 109.036 123.019 108.885 121.828 108.865L119.01 103.482L113.554 104.964L113.842 111.046C112.821 111.661 111.875 112.393 111.024 113.227L105.207 111.429L102.389 116.327L106.898 120.425C106.606 121.58 106.457 122.767 106.453 123.959L101.059 126.777L102.547 132.233L108.634 131.945C109.237 132.971 109.966 133.918 110.804 134.764L108.995 140.546L113.904 143.365L117.984 138.923C119.144 139.215 120.334 139.365 121.53 139.368L124.348 144.757L129.804 143.274L129.561 138.078L129.522 137.187C130.557 136.578 131.515 135.845 132.374 135.006L138.185 136.81L140.586 132.616L140.992 131.906L136.477 127.831ZM123.587 131.145C122.188 131.531 120.706 131.493 119.328 131.035C117.951 130.577 116.741 129.721 115.851 128.574C114.961 127.428 114.431 126.043 114.33 124.595C114.228 123.147 114.559 121.702 115.28 120.442C116.001 119.182 117.079 118.165 118.379 117.519C119.679 116.874 121.141 116.629 122.581 116.815C124.02 117.002 125.372 117.611 126.464 118.567C127.556 119.523 128.34 120.781 128.716 122.183C129.217 124.052 128.959 126.042 127.998 127.721C127.037 129.4 125.452 130.631 123.587 131.145Z" fill="#263238"/>
<path d="M198.883 137.435L200.123 129.939L192.537 126.89C192.365 125.292 191.999 123.721 191.449 122.212L196.911 116.13L192.492 109.93L184.962 113.126C183.711 112.124 182.345 111.276 180.892 110.601L180.453 102.434L172.956 101.194L169.884 108.746C168.294 108.933 166.73 109.302 165.223 109.845L159.125 104.384L152.953 108.803L156.154 116.327C155.273 117.427 154.508 118.615 153.872 119.873C153.787 120.047 153.697 120.222 153.618 120.397L145.457 120.848L144.211 128.333L145.44 128.829L151.797 131.393C151.971 132.983 152.336 134.546 152.885 136.049L147.412 142.17L151.837 148.37L159.361 145.157C160.608 146.168 161.972 147.024 163.425 147.705L163.848 155.832L171.339 157.072L174.405 149.576C175.999 149.402 177.566 149.035 179.072 148.482L185.159 153.944L191.359 149.52L188.157 141.989C189.177 140.738 190.039 139.366 190.722 137.903L198.883 137.435ZM177.86 137.097C176.283 138.229 174.406 138.867 172.466 138.932C170.526 138.996 168.61 138.484 166.962 137.46C165.313 136.436 164.005 134.946 163.203 133.178C162.401 131.41 162.142 129.445 162.457 127.53C162.772 125.615 163.649 123.836 164.975 122.419C166.301 121.002 168.018 120.01 169.908 119.568C171.798 119.127 173.777 119.256 175.593 119.939C177.41 120.622 178.983 121.829 180.114 123.406C181.629 125.522 182.242 128.154 181.817 130.721C181.392 133.288 179.964 135.582 177.849 137.097H177.86Z" fill="#263238"/>
<path d="M97.2949 81.9402H38.3502C34.2692 81.9402 30.9609 85.2485 30.9609 89.3294V170.938C30.9609 175.019 34.2692 178.327 38.3502 178.327H97.2949C101.376 178.327 104.684 175.019 104.684 170.938V89.3294C104.684 85.2485 101.376 81.9402 97.2949 81.9402Z" fill="#E04048" stroke="#263238" stroke-width="1.10311" stroke-miterlimit="10"/>
<path opacity="0.2" d="M97.2949 81.9402H38.3502C34.2692 81.9402 30.9609 85.2485 30.9609 89.3294V170.938C30.9609 175.019 34.2692 178.327 38.3502 178.327H97.2949C101.376 178.327 104.684 175.019 104.684 170.938V89.3294C104.684 85.2485 101.376 81.9402 97.2949 81.9402Z" fill="black"/>
<path d="M111.544 96.6118V178.22C111.544 179.191 111.354 180.152 110.983 181.05C110.612 181.947 110.068 182.762 109.381 183.449C108.695 184.136 107.88 184.68 106.983 185.052C106.087 185.424 105.125 185.615 104.154 185.615H45.2098C44.2394 185.614 43.2787 185.422 42.3825 185.05C41.4862 184.678 40.6721 184.133 39.9864 183.447C39.3008 182.76 38.7571 181.945 38.3865 181.048C38.0158 180.152 37.8254 179.191 37.8262 178.22V96.6118C37.8262 94.653 38.6039 92.7744 39.9884 91.3888C41.373 90.0032 43.251 89.2241 45.2098 89.2226H104.154C106.114 89.2226 107.994 90.0011 109.379 91.3868C110.765 92.7726 111.544 94.6521 111.544 96.6118Z" fill="white" stroke="#263238" stroke-width="1.10311" stroke-linecap="round" stroke-linejoin="round"/>
<path d="M111.544 96.6118V100.98H37.8262V96.6118C37.8262 94.653 38.6039 92.7744 39.9884 91.3888C41.373 90.0032 43.251 89.2241 45.2098 89.2226H104.154C106.114 89.2226 107.994 90.0011 109.379 91.3868C110.765 92.7726 111.544 94.6521 111.544 96.6118Z" fill="#E04048" stroke="#263238" stroke-width="1.10311" stroke-miterlimit="10"/>
<path d="M62.8955 106.041H44.7578V109.084H62.8955V106.041Z" fill="#E04048"/>
<path d="M62.8955 133.316H44.7578V136.359H62.8955V133.316Z" fill="#E04048"/>
<path d="M62.8955 158.047H44.7578V161.091H62.8955V158.047Z" fill="#E04048"/>
<path d="M96.2682 113.577H44.7578V115.809H96.2682V113.577Z" fill="#263238"/>
<path d="M86.9795 117.844H44.7578V120.019H86.9795V117.844Z" fill="#263238"/>
<path d="M92.5088 122.042H44.7578V124.218H92.5088V122.042Z" fill="#263238"/>
<path d="M92.5088 126.236H44.7578V128.412H92.5088V126.236Z" fill="#263238"/>
<path d="M96.2682 138.309H44.7578V140.541H96.2682V138.309Z" fill="#263238"/>
<path d="M86.9795 142.576H44.7578V144.751H86.9795V142.576Z" fill="#263238"/>
<path d="M92.5088 146.774H44.7578V148.95H92.5088V146.774Z" fill="#263238"/>
<path d="M96.2682 165.465H44.7578V167.697H96.2682V165.465Z" fill="#263238"/>
<path d="M86.9795 169.737H44.7578V171.913H86.9795V169.737Z" fill="#263238"/>
<path d="M92.5088 173.936H44.7578V176.112H92.5088V173.936Z" fill="#263238"/>
<path d="M194.628 32.6336V65.6174C194.628 66.7747 194.4 67.9207 193.957 68.9899C193.514 70.0591 192.864 71.0305 192.046 71.8487C191.227 72.6668 190.255 73.3156 189.186 73.758C188.116 74.2004 186.97 74.4277 185.813 74.4269H109.846C108.689 74.4277 107.543 74.2004 106.473 73.758C105.404 73.3156 104.432 72.6668 103.614 71.8487C102.795 71.0305 102.145 70.0591 101.702 68.9899C101.259 67.9207 101.031 66.7747 101.031 65.6174V32.6336C101.033 30.2961 101.962 28.0548 103.615 26.4019C105.268 24.7491 107.509 23.8199 109.846 23.8184H185.813C188.151 23.8184 190.393 24.7471 192.046 26.4003C193.699 28.0534 194.628 30.2956 194.628 32.6336Z" fill="white" stroke="#222221" stroke-width="1.10311" stroke-miterlimit="10"/>
<path d="M194.628 32.6336V33.3888H101.031V32.6336C101.033 30.2961 101.962 28.0548 103.615 26.4019C105.268 24.7491 107.509 23.8199 109.846 23.8184H185.813C188.151 23.8184 190.393 24.7471 192.046 26.4003C193.699 28.0534 194.628 30.2956 194.628 32.6336Z" fill="#E04048" stroke="#263238" stroke-width="1.10311" stroke-miterlimit="10"/>
<path d="M114.785 30.1815C114.596 30.371 114.355 30.5002 114.092 30.5526C113.83 30.6051 113.558 30.5785 113.31 30.4762C113.063 30.3739 112.852 30.2006 112.703 29.978C112.554 29.7555 112.475 29.4938 112.475 29.2262C112.475 28.9585 112.554 28.6968 112.703 28.4743C112.852 28.2518 113.063 28.0784 113.31 27.9761C113.558 27.8738 113.83 27.8472 114.092 27.8997C114.355 27.9521 114.596 28.0813 114.785 28.2708C115.037 28.5251 115.178 28.8684 115.178 29.2262C115.178 29.5839 115.037 29.9272 114.785 30.1815Z" fill="#263238"/>
<path d="M121.053 30.1815C120.864 30.371 120.623 30.5002 120.36 30.5526C120.098 30.6051 119.825 30.5785 119.578 30.4762C119.331 30.3739 119.119 30.2006 118.97 29.978C118.822 29.7555 118.742 29.4938 118.742 29.2262C118.742 28.9585 118.822 28.6968 118.97 28.4743C119.119 28.2518 119.331 28.0784 119.578 27.9761C119.825 27.8738 120.098 27.8472 120.36 27.8997C120.623 27.9521 120.864 28.0813 121.053 28.2708C121.304 28.5251 121.445 28.8684 121.445 29.2262C121.445 29.5839 121.304 29.9272 121.053 30.1815Z" fill="#263238"/>
<path d="M127.32 30.1815C127.131 30.371 126.89 30.5002 126.628 30.5526C126.365 30.6051 126.093 30.5785 125.846 30.4762C125.598 30.3739 125.387 30.2006 125.238 29.978C125.089 29.7555 125.01 29.4938 125.01 29.2262C125.01 28.9585 125.089 28.6968 125.238 28.4743C125.387 28.2518 125.598 28.0784 125.846 27.9761C126.093 27.8738 126.365 27.8472 126.628 27.8997C126.89 27.9521 127.131 28.0813 127.32 28.2708C127.572 28.5251 127.713 28.8684 127.713 29.2262C127.713 29.5839 127.572 29.9272 127.32 30.1815Z" fill="#263238"/>
<path d="M137.594 39.4536H107V65.8993H137.594V39.4536Z" stroke="#263238" stroke-width="1.10311" stroke-linecap="round" stroke-linejoin="round" stroke-dasharray="4.41 4.41"/>
<path d="M177.528 39.4536H142.318V41.3136H177.528V39.4536Z" fill="#263238"/>
<path d="M169.328 43.3031H142.318V45.1574H169.328V43.3031Z" fill="#263238"/>
<path d="M182.534 47.1357H142.318V49.0126H182.534V47.1357Z" fill="#263238"/>
<path d="M176.565 50.8723H142.318V52.7492H176.565V50.8723Z" fill="#263238"/>
<path d="M197.187 114.495H179.968C177.935 114.495 176.287 116.143 176.287 118.176V128.282C176.287 130.315 177.935 131.962 179.968 131.962H197.187C199.219 131.962 200.867 130.315 200.867 128.282V118.176C200.867 116.143 199.219 114.495 197.187 114.495Z" fill="white" stroke="#263238" stroke-width="1.10311" stroke-linecap="round" stroke-linejoin="round"/>
<path d="M184.219 119.749L179.49 122.714L183.881 126.603" stroke="#263238" stroke-width="1.10311" stroke-linecap="round" stroke-linejoin="round"/>
<path d="M192.832 126.885L197.081 123.266L192.178 120.053" stroke="#263238" stroke-width="1.10311" stroke-linecap="round" stroke-linejoin="round"/>
<path d="M186.518 129.117L190.006 118.171" stroke="#263238" stroke-width="1.10311" stroke-linecap="round" stroke-linejoin="round"/>
<path d="M150.152 224.369C150.152 224.369 133.806 229.053 131.524 229.865C129.449 230.598 123.824 232.57 119.603 231.956C119.195 231.897 118.792 231.811 118.397 231.697C114.119 230.423 112.197 229.234 111.633 226.545C111.069 223.857 113.2 221.873 115.251 220.604C117.303 219.336 128.429 218.012 128.429 218.012L131.118 218.801L150.152 224.369Z" fill="#E04048"/>
<path d="M119.603 231.956C119.195 231.897 118.792 231.811 118.397 231.697C114.119 230.423 112.197 229.234 111.633 226.545C111.069 223.857 113.2 221.873 115.251 220.604C117.303 219.336 128.429 218.012 128.429 218.012L131.118 218.801C128.683 219.928 119.62 220.542 117.641 221.681C115.663 222.819 114.71 224.961 115.877 227.881C116.503 229.403 118.171 230.896 119.603 231.956Z" fill="white"/>
<path d="M147.695 225.035C147.695 225.035 135.419 228.213 130.549 230.248C125.679 232.283 116.396 233.173 113.076 228.98C109.756 224.787 112.693 221.168 116.001 220.362C119.31 219.556 126 218.288 129.653 218.801" stroke="#263238" stroke-width="1.10311" stroke-linecap="round" stroke-linejoin="round"/>
<path d="M119.845 231.736C119.845 231.736 113.6 228.309 115.674 223.507C117.207 219.968 125.538 220.734 129.663 218.801" stroke="#263238" stroke-width="1.10311" stroke-linecap="round" stroke-linejoin="round"/>
<path d="M199.937 232.717C199.768 234.408 199.176 235.992 197.485 236.989C196.358 237.654 194.757 238.049 192.463 238.026C186.731 237.953 175.954 233.856 175.954 233.856L165.865 228.276L171.113 219.973L172.55 217.719L176.259 218.553C176.259 218.553 179.33 220.295 182.419 221.681C185.508 223.068 193.01 223.372 195.653 225.497C198.297 227.622 200.224 229.933 199.937 232.717Z" fill="#E04048"/>
<path d="M199.937 232.717C199.768 234.408 199.177 235.992 197.486 236.989C197.973 235.327 197.873 233.548 197.204 231.95C196.077 229.42 192.407 227.188 187.583 226.816C182.758 226.444 179.066 224.189 177.133 223.18C175.622 222.397 172.438 220.683 171.113 219.973L172.551 217.719L176.259 218.553C176.259 218.553 179.331 220.295 182.42 221.681C185.508 223.068 193.01 223.372 195.654 225.497C198.297 227.622 200.225 229.933 199.937 232.717Z" fill="white"/>
<path d="M168.103 229.843C175.365 234.064 183.392 236.805 191.719 237.908C193.557 238.128 195.693 238.162 196.922 236.781C197.248 236.382 197.492 235.922 197.637 235.427C197.782 234.932 197.826 234.413 197.767 233.901C197.547 231.308 195.366 229.256 192.976 228.225C190.586 227.193 187.954 226.957 185.412 226.387C182.884 225.818 180.44 224.923 178.141 223.727C176.315 222.775 174.551 221.619 172.539 221.191C170.527 220.762 168.131 221.281 167.055 223.039" stroke="#263238" stroke-width="1.10311" stroke-linecap="round" stroke-linejoin="round"/>
<path d="M196.246 237.485C197.191 237.033 198.016 236.366 198.657 235.538C199.298 234.71 199.737 233.744 199.938 232.716C200.304 230.276 198.912 227.819 196.956 226.319C195.001 224.82 192.549 224.11 190.131 223.608C187.713 223.107 185.238 222.768 182.922 221.85C179.388 220.463 175.899 217.735 172.213 218.71" stroke="#263238" stroke-width="1.10311" stroke-linecap="round" stroke-linejoin="round"/>
<path d="M179.488 142.525L162.416 136.032L162.201 135.947C162.201 135.947 162.264 135.496 162.314 134.82C162.421 133.456 162.478 131.235 161.835 130.486C160.883 129.358 158.188 130.305 155.556 129.099C152.924 127.893 148.06 130.052 148.06 130.052C148.06 130.052 144.543 129.403 142.987 131.94C142.198 133.986 142.469 137.013 142.469 137.013L142.147 137.125C140.113 137.886 129.043 142.051 126.704 143.725C124.117 145.557 121.254 164.366 120.335 169.889C119.416 175.413 117.782 180.39 118.61 182.289C119.439 184.189 131.331 193.348 138.174 195.709C145.016 198.071 169.281 197.4 169.281 197.4C169.281 197.4 169.675 197.293 170.38 197.068C174.483 195.749 189.042 190.304 196.769 177.521C196.78 177.543 189.295 153.008 179.488 142.525ZM133.36 174.162C132.104 175.052 132.797 178.502 132.797 178.502L130.661 176.619L136.026 163.424L138.315 173.57C138.315 173.57 134.617 173.277 133.36 174.162ZM176.287 182.543C175.695 182.847 177.978 176.506 176.895 175.069C175.813 173.632 172.55 173.767 172.55 173.767L172.826 172.037L174.759 162.117L175.402 161.356C175.402 161.356 182.041 172.736 183.231 176.749C183.231 176.76 175.994 182.543 176.287 182.543Z" fill="#E04048"/>
<path d="M147.254 101.374L138.439 110.73C138.439 110.73 137.227 111.807 137.706 114.518C138.185 117.229 139.312 119.591 140.163 119.748C140.837 119.866 141.52 119.927 142.204 119.929C142.204 119.929 144.092 124.021 145.433 125.627C145.433 125.627 145.895 131.945 145.647 133.698C145.647 133.698 148.815 136.466 151.797 136.815C154.778 137.165 159.383 132.599 159.383 132.599L160.51 127.008C160.51 127.008 163.216 122.905 163.396 121.811C163.577 120.718 164.817 121 165.425 120.459C166.034 119.917 167.437 117.511 167.68 115.234C167.922 112.957 167.928 110.341 165.284 111.108C162.99 110.493 164.428 105.646 164.428 105.646L160.398 102.095L147.254 101.374Z" fill="white"/>
<path opacity="0.5" d="M162.417 136.031C162.284 136.38 162.132 136.72 161.961 137.051C160.506 139.791 154.171 145.016 154.171 145.016L152.255 139.126L151.206 145.016C149.093 144.091 142.645 138.506 142.645 138.506C142.645 138.506 142.425 137.981 142.16 137.164L142.481 137.051C142.481 137.051 142.211 134.002 143 131.979C144.544 129.442 148.073 130.091 148.073 130.091C148.073 130.091 152.937 127.932 155.569 129.138C158.201 130.344 160.895 129.409 161.848 130.525C162.8 131.641 162.214 135.969 162.214 135.969L162.417 136.031Z" fill="white"/>
<path opacity="0.2" d="M179.49 142.524L162.417 136.031L162.203 135.946C162.203 135.946 162.265 135.496 162.316 134.819L161.961 137.034L159.436 140.461C162.135 141.455 164.77 142.615 167.326 143.933C168.55 144.589 169.549 145.597 170.192 146.827C170.835 148.058 171.094 149.453 170.934 150.832L167.789 177.745L166.498 193.026L170.393 197.067C174.496 195.748 189.054 190.303 196.782 177.52C196.782 177.543 189.297 153.008 179.49 142.524ZM176.288 182.542C175.696 182.846 177.979 176.505 176.897 175.068C175.815 173.631 172.551 173.766 172.551 173.766L172.827 172.036L174.761 162.116L175.403 161.355C175.403 161.355 182.043 172.735 183.232 176.748C183.232 176.759 175.995 182.542 176.288 182.542Z" fill="black"/>
<path opacity="0.2" d="M139.449 175.069L136.794 166.197C136.794 166.197 132.032 149.959 128.768 145.957L129.625 157.376C129.625 157.376 126.807 171.016 124.231 175.069C121.655 179.121 121.08 180.141 124.231 180.141C127.382 180.141 135.053 186.251 135.053 186.251L134.461 181.178L139.449 175.069ZM132.759 178.501L130.623 176.619L135.988 163.424L138.277 173.569C138.277 173.569 134.602 173.293 133.345 174.178C132.088 175.063 132.759 178.501 132.759 178.501Z" fill="black"/>
<path d="M145.434 125.626C145.434 125.626 145.918 130.412 145.434 132.599" stroke="#263238" stroke-width="1.10311" stroke-linecap="round" stroke-linejoin="round"/>
<path d="M159.875 131.957C159.88 130.418 160.058 128.885 160.405 127.385" stroke="#263238" stroke-width="1.10311" stroke-linecap="round" stroke-linejoin="round"/>
<path d="M161.153 104.941C161.153 104.941 164.05 108.577 163.898 111.327C163.746 114.078 163.531 117.336 163.605 120.526C163.678 123.716 158.481 130.401 155.81 130.992C153.138 131.584 150.838 131.736 149.131 130.029C147.423 128.321 145.715 125.948 143.494 122.904C141.274 119.861 141.803 113.182 141.803 113.182" stroke="#263238" stroke-width="1.10311" stroke-linecap="round" stroke-linejoin="round"/>
<path d="M154.177 115.724C154 116.722 153.925 117.736 153.951 118.75C153.893 119.605 154.159 120.45 154.695 121.118C155.016 121.445 155.479 121.709 155.541 122.16C155.539 122.363 155.483 122.562 155.378 122.736C155.272 122.909 155.122 123.051 154.943 123.147C154.582 123.329 154.233 123.536 153.9 123.767" stroke="#263238" stroke-width="1.10311" stroke-linecap="round" stroke-linejoin="round"/>
<path d="M149.594 124.116C149.594 124.116 149.926 126.275 152.818 126.726" stroke="#263238" stroke-width="1.10311" stroke-linecap="round" stroke-linejoin="round"/>
<path d="M149.892 117.37C149.892 117.995 149.621 118.497 149.289 118.497C148.956 118.497 148.686 117.995 148.686 117.37C148.686 116.744 148.956 116.242 149.289 116.242C149.621 116.242 149.892 116.75 149.892 117.37Z" fill="#263238"/>
<path d="M158.521 117.64C158.521 118.266 158.25 118.767 157.918 118.767C157.585 118.767 157.314 118.26 157.314 117.64C157.314 117.02 157.585 116.513 157.918 116.513C158.25 116.513 158.521 117.014 158.521 117.64Z" fill="#263238"/>
<path d="M156.779 114.907C156.779 114.907 159.597 112.089 161.959 115.234" stroke="#263238" stroke-width="2.20621" stroke-linecap="round" stroke-linejoin="round"/>
<path d="M150.844 114.963C150.844 114.963 149.063 112.967 146.256 114.963" stroke="#263238" stroke-width="2.20621" stroke-linecap="round" stroke-linejoin="round"/>
<path d="M145.648 128.287C145.648 128.287 147.367 133.021 151.205 134.368C155.044 135.715 160.139 128.732 160.139 128.732L159.874 127.825C159.874 127.825 156.532 132.165 152.817 131.426C149.103 130.688 145.434 125.649 145.434 125.649L145.648 128.287Z" fill="#263238"/>
<path d="M142.203 119.748C142.203 119.748 139.915 120.554 139.306 118.773C138.698 116.992 136.612 112.297 138.438 110.73C140.265 109.163 141.73 112.799 141.73 112.799" stroke="#263238" stroke-width="1.10311" stroke-linecap="round" stroke-linejoin="round"/>
<path d="M163.6 120.718C163.6 120.718 165.725 121.146 166.333 119.365C166.942 117.584 169.027 112.889 167.201 111.322C165.375 109.755 163.91 113.391 163.91 113.391" stroke="#263238" stroke-width="1.10311" stroke-linecap="round" stroke-linejoin="round"/>
<path d="M141.731 117.37C142.526 117.244 143.243 116.821 143.738 116.186C144.039 115.628 144.231 115.018 144.301 114.388C144.511 113.189 144.616 111.975 144.617 110.758C144.592 110.283 144.636 109.806 144.747 109.343C144.916 108.878 145.176 108.45 145.513 108.087C146.308 107.151 147.272 106.362 148.033 105.392C148.44 104.935 148.751 104.399 148.945 103.818C149.138 103.236 149.212 102.621 149.16 102.011C150.904 103.448 152.941 104.487 155.129 105.052C157.317 105.618 159.603 105.698 161.825 105.285C165.855 104.496 169.715 100.962 169.248 96.5208C169.159 95.7762 168.84 95.0779 168.335 94.5239C167.829 93.97 167.163 93.5882 166.43 93.4321C164.44 92.9361 162.653 93.9957 160.85 94.6777C157.564 95.9177 154.345 93.7872 151.025 93.4321C148.207 93.1221 144.696 93.4772 143.219 96.301C143.219 96.301 138.146 96.8984 135.892 101.092C133.637 105.285 137.904 111.085 137.904 111.085C137.904 111.085 139.595 109.011 141.81 113.204L141.731 117.37Z" fill="#263238"/>
<path d="M161.504 103.871C161.504 103.871 160.185 110.747 163.629 114.078C163.629 114.078 164.384 112.009 165.145 111.502C165.694 110.282 165.926 108.943 165.821 107.609C165.715 106.275 165.275 104.99 164.542 103.871C161.994 99.8687 161.504 103.871 161.504 103.871Z" fill="#263238"/>
<path opacity="0.2" d="M167.781 96.0475C167.479 96.9858 166.966 97.8426 166.283 98.5527C165.599 99.2628 164.762 99.8075 163.836 100.145C159.056 102.095 154.418 99.9366 149.627 99.5139C145.721 99.1644 141.409 102.693 141.133 106.706" stroke="white" stroke-width="1.10311" stroke-linecap="round" stroke-linejoin="round"/>
<path opacity="0.2" d="M138.186 105.646C138.244 104.063 138.752 102.528 139.65 101.223C140.549 99.9174 141.8 98.8946 143.258 98.274" stroke="white" stroke-width="1.10311" stroke-linecap="round" stroke-linejoin="round"/>
<path d="M144.33 131.956C146.432 134.147 148.968 135.874 151.776 137.029C151.776 137.029 157.497 135.366 160.405 131.393" stroke="#263238" stroke-width="1.10311" stroke-linecap="round" stroke-linejoin="round"/>
<path d="M150.176 121.959C152.717 120.794 153.832 117.789 152.667 115.248C151.501 112.708 148.497 111.593 145.956 112.758C143.415 113.923 142.3 116.928 143.466 119.469C144.631 122.01 147.636 123.124 150.176 121.959Z" stroke="#263238" stroke-width="1.10311" stroke-linecap="round" stroke-linejoin="round"/>
<path d="M159.984 122.405C162.758 122.064 164.731 119.539 164.391 116.764C164.05 113.99 161.525 112.017 158.75 112.357C155.976 112.698 154.003 115.223 154.343 117.998C154.684 120.773 157.209 122.746 159.984 122.405Z" stroke="#263238" stroke-width="1.10311" stroke-linecap="round" stroke-linejoin="round"/>
<path d="M145.434 130.068C144.921 130.203 144.441 130.439 144.022 130.764C143.602 131.088 143.253 131.494 142.994 131.956C142.097 133.534 142.638 138.5 142.638 138.5C142.638 138.5 147.266 143.077 151.206 145.01L152.367 138.478L154.17 145.01C154.17 145.01 160.269 140.698 161.96 137.052C161.96 137.052 162.523 132.796 161.96 131.415C161.832 131.032 161.588 130.697 161.262 130.458C160.936 130.219 160.544 130.087 160.139 130.079" stroke="#263238" stroke-width="1.10311" stroke-linecap="round" stroke-linejoin="round"/>
<path d="M138.185 173.773C138.185 173.773 136.375 161.655 133.969 156.712" stroke="#263238" stroke-width="1.10311" stroke-linecap="round" stroke-linejoin="round"/>
<path d="M128.768 145.957C130.169 147.948 131.42 150.042 132.51 152.219" stroke="#263238" stroke-width="1.10311" stroke-linecap="round" stroke-linejoin="round"/>
<path d="M176.287 155.003C176.773 152.977 177.439 150.999 178.277 149.091" stroke="#263238" stroke-width="1.10311" stroke-linecap="round" stroke-linejoin="round"/>
<path d="M172.551 173.772C172.551 173.772 173.853 165.464 175.408 158.622" stroke="#263238" stroke-width="1.10311" stroke-linecap="round" stroke-linejoin="round"/>
<path d="M174.76 162.105C176.018 160.436 177.788 159.225 179.799 158.656" stroke="#263238" stroke-width="1.10311" stroke-linecap="round" stroke-linejoin="round"/>
<path d="M162.207 135.947C162.207 135.947 172.708 140.146 179.488 142.53C179.488 142.53 187.83 150.37 196.775 177.543C196.775 177.543 188.579 191.329 172.989 195.748" stroke="#263238" stroke-width="1.10311" stroke-linecap="round" stroke-linejoin="round"/>
<path d="M175.695 183.033L183.231 176.76C183.231 176.76 187.216 173.733 191.359 175.801" stroke="#263238" stroke-width="1.10311" stroke-linecap="round" stroke-linejoin="round"/>
<path d="M175.408 161.355C175.408 161.355 181.636 170.56 183.231 176.76" stroke="#263238" stroke-width="1.10311" stroke-linecap="round" stroke-linejoin="round"/>
<path d="M132.842 178.85L130.638 176.759C130.638 176.759 127.369 176.195 123.66 178.67" stroke="#263238" stroke-width="1.10311" stroke-linecap="round" stroke-linejoin="round"/>
<path d="M130.639 176.76C130.639 176.76 133.378 167.741 136.078 163.125" stroke="#263238" stroke-width="1.10311" stroke-linecap="round" stroke-linejoin="round"/>
<path d="M142.481 137.052C142.481 137.052 127.37 142.722 125.887 144.379C124.405 146.036 118.774 177.74 118.622 181.37C118.493 184.617 130.261 191.904 136.095 194.976" stroke="#263238" stroke-width="1.10311" stroke-linecap="round" stroke-linejoin="round"/>
<path d="M153.78 147.767C153.78 147.964 153.722 148.157 153.612 148.321C153.503 148.485 153.347 148.613 153.165 148.688C152.982 148.764 152.782 148.784 152.588 148.745C152.395 148.707 152.217 148.612 152.077 148.472C151.938 148.333 151.843 148.155 151.804 147.961C151.766 147.768 151.786 147.567 151.861 147.385C151.937 147.203 152.064 147.047 152.229 146.937C152.393 146.828 152.585 146.769 152.783 146.769C152.914 146.768 153.044 146.794 153.165 146.843C153.287 146.893 153.397 146.967 153.49 147.06C153.583 147.152 153.656 147.263 153.706 147.384C153.756 147.505 153.781 147.635 153.78 147.767Z" fill="#263238"/>
<path d="M171.266 200.872H136.884C136.67 200.872 136.465 200.787 136.314 200.636C136.163 200.485 136.078 200.28 136.078 200.066C136.078 199.852 136.163 199.647 136.314 199.496C136.465 199.345 136.67 199.26 136.884 199.26H171.266C171.479 199.26 171.684 199.345 171.836 199.496C171.987 199.647 172.072 199.852 172.072 200.066C172.072 200.28 171.987 200.485 171.836 200.636C171.684 200.787 171.479 200.872 171.266 200.872Z" fill="#263238"/>
<path d="M172.472 198.178L177.077 176.534C177.148 176.199 177.144 175.851 177.063 175.518C176.983 175.184 176.829 174.873 176.613 174.606C176.397 174.34 176.124 174.125 175.814 173.978C175.504 173.831 175.165 173.755 174.822 173.756H134.635C134.295 173.756 133.959 173.831 133.652 173.977C133.344 174.122 133.073 174.334 132.857 174.597C132.641 174.861 132.487 175.168 132.404 175.498C132.322 175.828 132.314 176.173 132.381 176.506L136.512 197.428C136.613 197.942 136.887 198.406 137.288 198.743C137.688 199.08 138.192 199.271 138.716 199.283L170.161 200.004C170.698 200.016 171.223 199.84 171.645 199.507C172.067 199.173 172.359 198.703 172.472 198.178Z" fill="white" stroke="#263238" stroke-width="1.10311" stroke-linecap="round" stroke-linejoin="round"/>
<path d="M157.807 186.246C157.806 186.88 157.617 187.499 157.263 188.026C156.91 188.552 156.409 188.963 155.823 189.205C155.237 189.446 154.592 189.509 153.971 189.385C153.349 189.26 152.778 188.954 152.33 188.506C151.882 188.057 151.577 187.486 151.454 186.864C151.331 186.242 151.394 185.597 151.637 185.011C151.88 184.426 152.291 183.925 152.818 183.573C153.346 183.221 153.966 183.033 154.6 183.033C155.021 183.033 155.439 183.116 155.828 183.278C156.218 183.439 156.572 183.676 156.869 183.974C157.167 184.273 157.403 184.627 157.564 185.017C157.725 185.406 157.807 185.824 157.807 186.246Z" fill="#263238"/>
<path d="M164.113 175.824H168.887" stroke="#263238" stroke-width="1.10311" stroke-linecap="round" stroke-linejoin="round"/>
<path d="M141.314 175.824H159.435" stroke="#263238" stroke-width="1.10311" stroke-linecap="round" stroke-linejoin="round"/>
<path d="M172.549 221.157L168.886 230.772C168.886 230.772 159.541 228.416 147.575 225.965C135.056 223.4 121.986 220.08 115.205 208.182C114.382 206.733 113.83 205.02 114.219 203.397C115.194 199.288 120.543 198.172 124.066 197.76C126.28 197.521 128.506 197.397 130.733 197.388C131.861 197.388 135.609 196.774 136.516 197.445C137.88 198.439 139.335 199.302 140.862 200.021C142.863 200.872 172.07 199.26 172.07 199.26C172.578 198.152 172.889 196.963 172.989 195.748C177.583 193.415 188.207 191.442 192.716 192.316C199.778 193.685 203.899 197.806 203.115 202.123C202.332 206.44 186.73 218.017 172.549 221.157Z" fill="#263238"/>
<path d="M172.55 221.157C172.55 221.157 163.662 218.801 156.402 213.897C149.143 208.994 143.473 203.301 133.355 204.479" stroke="white" stroke-width="1.10311" stroke-linecap="round" stroke-linejoin="round"/>
<path d="M154.74 212.742C159.328 211.423 162.693 208.453 166.374 205.606C170.256 202.491 174.425 199.75 178.824 197.422" stroke="white" stroke-width="1.10311" stroke-linecap="round" stroke-linejoin="round"/>
<path d="M153.121 118.17H154.468" stroke="#263238" stroke-width="1.10311" stroke-linecap="round" stroke-linejoin="round"/>
</svg>
