<svg width="86" height="149" viewBox="0 0 86 149" fill="none" xmlns="http://www.w3.org/2000/svg">
<path d="M41.4431 124.896C47.0078 125.162 56.0317 128.308 59.8251 126.322C63.6185 124.336 68.4312 122.802 72.9933 123.589C77.5554 124.375 84.34 125.653 84.34 125.653C69.3002 118.153 50.0993 108.941 44.9356 108.587C42.0614 108.381 23.5958 115.793 0 125.86C11.7979 124.503 14.4048 130.313 22.0584 129.32C30.0462 128.268 35.8783 124.641 41.4431 124.896Z" fill="#F0F0F0"/>
<path opacity="0.3" d="M54.879 119.116C60.8281 123.471 49.0971 120.099 43.4655 121.082C37.8339 122.065 63.1175 130.657 58.5053 133.213C55.8984 134.638 43.265 131.247 46.44 134.688C49.6151 138.128 70.2364 148.578 70.2364 148.578L103.341 135.317C103.341 135.317 55.8316 110.415 45.6212 108.666L44.9695 108.577C43.1146 108.931 48.9467 114.771 54.879 119.116Z" fill="white"/>
</svg>
