<svg width="515" height="96" viewBox="0 0 515 96" fill="none" xmlns="http://www.w3.org/2000/svg">
<path d="M152.644 5.11284C150.038 6.75241 146.161 6.76654 142.768 6.52626C138.808 6.21531 134.313 5.87609 131.321 8.10929C129.96 9.3825 128.74 10.7594 127.678 12.2224C124.336 15.9255 117.267 13.6358 114.493 18.5828C114.109 19.3036 114.226 21.5792 113.14 21.8478C112.054 22.1163 109.697 20.717 108.544 20.604C104.783 20.4257 101.012 20.7114 97.348 21.452C95.6601 21.7192 94.0519 22.2679 92.6174 23.0663C91.1828 23.8647 89.9506 24.8967 88.9926 26.1022C88.0567 27.3177 87.3215 28.8159 85.6504 29.1976C84.6831 29.3503 83.6851 29.282 82.7594 28.9997C79.5296 28.049 76.1503 27.5107 72.7328 27.4025C69.2904 27.5014 65.6474 28.9149 64.3774 31.5438C64.1936 31.9113 64.0098 32.3636 63.5418 32.4626C63.0739 32.5615 62.6227 32.2788 62.2551 32.0244C60.9671 31.1647 59.4566 30.5755 57.8473 30.3053C56.238 30.035 54.5758 30.0913 52.9973 30.4696C51.9522 30.6908 51.0165 31.1855 50.3235 31.8831C49.4211 32.9149 49.488 34.3424 48.6524 35.3742C47.0983 37.1551 43.8063 36.7876 41.1826 36.2929C37.7235 35.671 33.6962 35.3177 30.9556 37.1975C30.2203 37.7064 29.6354 38.3424 28.85 38.8088C26.7611 40.095 23.8367 39.8406 21.2967 39.7558C19.6256 39.7558 -0.427526 41.1692 0.00695768 42.5827C0.441441 43.9961 5.37116 43.4731 6.5075 43.5155C8.17859 43.5155 9.84968 43.7982 11.5208 43.7699C13.1634 43.4999 14.85 43.4807 16.5006 43.7134C17.5534 44.0526 18.272 44.7735 19.425 45.0279C22.123 45.4607 24.9137 45.1588 27.3961 44.1657C30.3205 43.1904 33.4288 41.6215 36.6707 41.5933C38.2112 41.7664 39.7074 42.1533 41.0991 42.7381C44.0618 43.3994 47.1894 43.306 50.0896 42.4696C51.7606 42.0314 54.3675 40.8724 56.2392 41.1975C57.292 41.3813 58.4784 42.201 59.5814 42.4837C61.0242 42.8578 62.5078 43.1088 64.0097 43.2328C69.3739 43.6286 74.4708 40.929 79.4339 39.6427C85.7841 38.0173 89.4605 39.0491 94.4737 42.0314C96.5925 43.2509 99.0358 44.0068 101.585 44.2313C104.134 44.4557 106.709 44.1418 109.079 43.3176C110.46 42.7128 111.883 42.1795 113.34 41.7205C117.007 40.7002 120.977 40.775 124.587 41.9325C126.636 42.9705 128.839 43.7738 131.137 44.3212C138.808 45.4802 145.609 37.664 153.179 39.2187C154.696 39.6113 156.155 40.1521 157.524 40.83C161.749 42.4491 166.162 43.6903 170.692 44.5332C171.507 44.7557 172.36 44.8608 173.216 44.8441C174.383 44.6933 175.49 44.3053 176.441 43.7134C178.291 42.6078 180.267 41.6609 182.34 40.8866C183.374 40.4981 184.492 40.2974 185.623 40.2974C186.755 40.2974 187.873 40.4981 188.907 40.8866C189.851 41.52 190.877 42.0605 191.965 42.4979C195.007 43.1339 197.446 40.1374 200.538 39.671C203.629 39.2046 206.37 41.1975 209.445 40.8724C212.52 40.5473 215.678 39.0208 219.054 38.7382C226.624 38.1021 234.361 39.4449 241.797 37.6498C244.554 36.7818 247.419 36.1842 250.336 35.8689C255.751 35.6428 261.148 38.3565 266.379 37.1834C266.584 37.1482 266.778 37.0758 266.947 36.9714C267.499 36.5898 267.181 35.7558 266.546 35.4731C265.878 35.2458 265.147 35.1869 264.44 35.3035C262.22 35.4495 259.987 35.2434 257.856 34.6958C255.698 33.9634 253.495 33.3311 251.256 32.8018C244.22 31.671 236.717 36.1375 230.083 33.8477C228.384 33.0467 226.632 32.3293 224.836 31.6993C221.059 30.823 217.048 32.7735 213.138 32.1799C210.046 31.7134 207.623 29.7064 205.601 27.6711C203.805 25.4927 201.537 23.6222 198.917 22.1587C196.143 20.9008 192.233 21.0138 190.394 23.2046C189.754 21.0903 188.727 19.0732 187.353 17.2259C186.662 16.3065 185.732 15.5322 184.635 14.9616C183.538 14.3911 182.301 14.0392 181.02 13.9326C179.885 14.069 178.728 13.9369 177.677 13.551C176.826 12.827 176.331 11.8575 176.29 10.8372C175.881 9.1258 175.045 7.50796 173.838 6.0918C172.63 4.67564 171.079 3.49378 169.288 2.62522C166.856 1.45367 164.224 0.609636 161.484 0.123458C160.547 -0.0522585 159.573 -0.0402538 158.642 0.158515C157.711 0.357284 156.847 0.737319 156.12 1.26833C155.284 2.17287 154.508 3.11666 153.797 4.09517C153.465 4.47375 153.077 4.81563 152.644 5.11284Z" fill="#F0F0F0"/>
<path d="M315.458 54.8227L314.889 55.063C311.831 56.2503 308.289 55.2609 304.863 55.2891C301.613 55.3125 298.478 56.3147 296.023 58.116C294.586 59.2043 293.433 60.5329 292.029 61.6637C290.229 63.1027 288.073 64.1852 285.718 64.833C283.362 65.4808 280.866 65.6776 278.409 65.4092C276.904 65.1575 275.38 64.9922 273.847 64.9146C269.904 64.9146 266.461 67.0771 262.685 68.0524C254.329 70.1866 245.389 66.328 236.866 67.6566C232.087 68.4057 227.792 70.7379 222.979 71.2608C220.022 71.5859 216.963 71.1619 214.039 71.7838C214.039 73.1972 220.356 73.6212 221.759 73.6778C224.984 73.8275 228.212 73.4286 231.251 72.5046C233.131 71.8174 235.056 71.2227 237.017 70.7237C241.879 69.7626 246.759 71.3032 251.037 73.1265C252.851 73.722 254.732 74.1578 256.652 74.4269C259.159 75.0347 261.515 76.0947 264.038 76.7166C268.752 78.118 273.869 78.2268 278.66 77.0276C281.484 76.1654 284.024 74.6672 286.932 74.0311C291.812 72.9569 296.959 74.4976 301.437 76.5046C304.194 77.7343 307.085 79.2043 310.177 78.865C314.522 78.3986 317.229 74.6248 321.206 73.0983C326.453 71.0771 332.904 72.7873 337.917 74.5117C340.741 75.5724 343.664 76.4329 346.657 77.0841C349.663 77.7202 352.808 77.7202 355.814 77.0841C357.987 76.3323 360.221 75.7135 362.499 75.2325C365.239 74.8933 368.047 75.6424 370.854 75.3173C371.82 75.1849 372.771 74.9816 373.695 74.7096C375.984 74.0452 378.395 73.734 380.814 73.7908C381.024 73.8194 381.239 73.7789 381.416 73.6778C381.481 73.6153 381.528 73.5401 381.552 73.4587C381.575 73.3774 381.574 73.2924 381.549 73.2113C381.482 72.9686 381.34 72.7453 381.137 72.5641C380.934 72.3829 380.679 72.2502 380.396 72.1795C379.854 72.0485 379.289 71.996 378.725 72.0241C375.132 72.0241 371.523 72.2361 367.93 72.5046C364.709 72.6298 361.487 72.2611 358.421 71.4163C356.149 70.8651 354.026 70.0029 351.737 69.6919C349.646 69.1498 347.862 67.9781 346.724 66.3987C344.835 64.3633 342.83 61.7344 339.454 61.5506C338.801 61.5873 338.146 61.5053 337.533 61.3103C336.664 60.9287 336.413 59.9958 336.146 59.2043C334.674 55.705 331.737 52.7833 327.89 50.9923C326.61 50.3446 325.112 50.0712 323.63 50.2142C322.147 50.3573 320.761 50.9088 319.685 51.7839C318.396 52.91 316.98 53.9277 315.458 54.8227Z" fill="#F0F0F0"/>
</svg>
