<svg width="128" height="82" viewBox="0 0 128 82" fill="none" xmlns="http://www.w3.org/2000/svg">
<path d="M40.8353 81.3587H4.8934C2.19539 81.3587 0 79.1633 0 76.4653V5.0488C0 2.35079 2.19539 0.155396 4.8934 0.155396H40.8353C43.5333 0.155396 45.7287 2.35079 45.7287 5.0488V76.4653C45.7287 79.1633 43.5333 81.3579 40.8353 81.3579V81.3587ZM4.8934 1.54073C2.95865 1.54073 1.38573 3.11436 1.38573 5.04841V76.4649C1.38573 78.3989 2.95859 79.9726 4.8934 79.9726H40.8353C42.77 79.9726 44.3429 78.399 44.3429 76.4649V5.04841C44.3429 3.11442 42.7701 1.54073 40.8353 1.54073H4.8934Z" fill="white"/>
<path d="M25.9119 78.4032H19.8169C18.6716 78.4032 17.7383 77.4706 17.7383 76.3246V76.139C17.7383 74.993 18.6716 74.0604 19.8169 74.0604H25.9119C27.0572 74.0604 27.9905 74.993 27.9905 76.139V76.3246C27.9905 77.4714 27.0572 78.4032 25.9119 78.4032ZM19.8169 75.4461C19.4349 75.4461 19.124 75.7569 19.124 76.1389V76.3245C19.124 76.7065 19.4349 77.0174 19.8169 77.0174H25.9119C26.2939 77.0174 26.6048 76.7065 26.6048 76.3245V76.1389C26.6048 75.7569 26.2939 75.4461 25.9119 75.4461H19.8169Z" fill="white"/>
<path d="M41.0791 7.76062V70.7973H4.64844V7.76062H41.0791Z" stroke="white" stroke-width="2"/>
<path d="M27.2976 4.49669H18.4311C18.0491 4.49669 17.7383 4.1866 17.7383 3.80383C17.7383 3.42105 18.0491 3.11096 18.4311 3.11096H27.2976C27.6796 3.11096 27.9905 3.42105 27.9905 3.80383C27.9905 4.1866 27.6789 4.49669 27.2976 4.49669Z" fill="white"/>
<path d="M45.9998 75.9907L45.9998 40.0488C45.9998 37.3508 48.1952 35.1554 50.8932 35.1554L122.31 35.1554C125.008 35.1554 127.203 37.3508 127.203 40.0488L127.203 75.9907C127.203 78.6887 125.008 80.8841 122.31 80.8841L50.8932 80.8841C48.1952 80.8841 46.0006 78.6887 46.0006 75.9907L45.9998 75.9907ZM125.818 40.0488C125.818 38.114 124.244 36.5411 122.31 36.5411L50.8936 36.5411C48.9596 36.5411 47.3859 38.114 47.3859 40.0488L47.3859 75.9907C47.3859 77.9254 48.9595 79.4983 50.8936 79.4983L122.31 79.4983C124.244 79.4983 125.818 77.9255 125.818 75.9907L125.818 40.0488Z" fill="white"/>
<path d="M48.9561 61.0666L48.9561 54.9715C48.9561 53.8263 49.8886 52.8929 51.0346 52.8929L51.2202 52.8929C52.3663 52.8929 53.2988 53.8263 53.2988 54.9715L53.2988 61.0666C53.2988 62.2118 52.3663 63.1452 51.2202 63.1452L51.0346 63.1452C49.8879 63.1452 48.9561 62.2118 48.9561 61.0666ZM51.9132 54.9715C51.9132 54.5895 51.6023 54.2787 51.2203 54.2787L51.0347 54.2787C50.6527 54.2787 50.3419 54.5895 50.3419 54.9715L50.3419 61.0666C50.3419 61.4486 50.6527 61.7594 51.0347 61.7594L51.2203 61.7594C51.6023 61.7594 51.9132 61.4486 51.9132 61.0666L51.9132 54.9715Z" fill="white"/>
<path d="M119.598 76.2353L56.5609 76.2353L56.5609 39.8046L119.598 39.8046L119.598 76.2353Z" stroke="white" stroke-width="2"/>
<path d="M122.862 62.4523L122.862 53.5858C122.862 53.2038 123.172 52.8929 123.555 52.8929C123.938 52.8929 124.248 53.2038 124.248 53.5858L124.248 62.4523C124.248 62.8343 123.938 63.1452 123.555 63.1452C123.172 63.1452 122.862 62.8335 122.862 62.4523Z" fill="white"/>
</svg>
