<svg width="46" height="46" viewBox="0 0 46 46" fill="none" xmlns="http://www.w3.org/2000/svg">
<path d="M34.5 0H11.5C5.14873 0 0 5.14873 0 11.5V34.5C0 40.8513 5.14873 46 11.5 46H34.5C40.8513 46 46 40.8513 46 34.5V11.5C46 5.14873 40.8513 0 34.5 0Z" fill="white"/>
<path d="M31.9026 21.6799C32.1803 23.5524 31.8605 25.4648 30.9886 27.1451C30.1167 28.8254 28.7372 30.188 27.0463 31.0391C25.3554 31.8902 23.4392 32.1864 21.5702 31.8857C19.7012 31.5849 17.9746 30.7025 16.636 29.364C15.2975 28.0254 14.4151 26.2988 14.1143 24.4298C13.8136 22.5608 14.1098 20.6446 14.9609 18.9537C15.812 17.2628 17.1746 15.8833 18.8549 15.0114C20.5352 14.1395 22.4476 13.8197 24.3202 14.0974C26.2302 14.3806 27.9986 15.2706 29.364 16.636C30.7294 18.0014 31.6194 19.7698 31.9026 21.6799Z" fill="#E04048"/>
<circle cx="36" cy="9" r="3" fill="#E04048"/>
</svg>
