<svg width="15" height="20" viewBox="0 0 15 20" fill="none" xmlns="http://www.w3.org/2000/svg">
<path d="M13.8571 8.2C13.8571 13.6 7.42857 19 7.42857 19C7.42857 19 1 13.6 1 8.2C1 6.29044 1.67729 4.45909 2.88288 3.10883C4.08848 1.75857 5.72361 1 7.42857 1C9.13353 1 10.7687 1.75857 11.9743 3.10883C13.1798 4.45909 13.8571 6.29044 13.8571 8.2V8.2Z" stroke="#4E4E4E" stroke-width="1.5" stroke-linecap="round" stroke-linejoin="round"/>
<path d="M7.42885 10C8.84901 10 10.0003 8.84877 10.0003 7.42861C10.0003 6.00845 8.84901 4.85718 7.42885 4.85718C6.00869 4.85718 4.85742 6.00845 4.85742 7.42861C4.85742 8.84877 6.00869 10 7.42885 10Z" fill="white" stroke="#4E4E4E" stroke-width="1.5" stroke-linecap="round" stroke-linejoin="round"/>
</svg>
