<svg width="76" height="76" viewBox="0 0 76 76" fill="none" xmlns="http://www.w3.org/2000/svg">
<g clip-path="url(#clip0_2342_24387)">
<path d="M47.1471 7.56919L50.4764 2.01996C50.8551 1.38797 50.6511 0.569317 50.0191 0.190657C49.3858 -0.189336 48.5684 0.0146601 48.1898 0.647982L44.6765 6.50388C42.5845 5.75989 40.3446 5.33323 38.0006 5.33323C35.6567 5.33323 33.4167 5.75989 31.3247 6.50388L27.8115 0.647982C27.4328 0.0146601 26.6142 -0.188003 25.9822 0.190657C25.3502 0.569317 25.1462 1.38797 25.5248 2.01996L28.8541 7.56919C22.4182 10.8958 18.001 17.6024 18.001 25.3342C18.001 26.0715 18.5983 26.6675 19.3343 26.6675H56.667C57.403 26.6675 58.0003 26.0715 58.0003 25.3342C57.9989 17.6037 53.583 10.8971 47.1471 7.56919ZM20.7183 24.0009C21.4009 15.0637 28.8915 8.00119 38.0006 8.00119C47.1098 8.00119 54.6003 15.0637 55.283 24.0009H20.7183Z" fill="white"/>
<path d="M47.3029 15.1517H45.5456C45.0603 15.1517 44.667 15.5451 44.667 16.0304V17.7877C44.667 18.273 45.0603 18.6663 45.5456 18.6663H47.3043C47.7896 18.6663 48.1829 18.273 48.1829 17.7877V16.0304C48.1829 15.5451 47.7883 15.1517 47.3029 15.1517Z" fill="white"/>
<path d="M30.4537 15.1517H28.6951C28.2097 15.1517 27.8164 15.5451 27.8164 16.0304V17.7877C27.8164 18.273 28.2097 18.6663 28.6951 18.6663H30.4537C30.939 18.6663 31.3323 18.273 31.3323 17.7877V16.0304C31.3323 15.5451 30.939 15.1517 30.4537 15.1517Z" fill="white"/>
<path d="M56.665 28.0009H19.3323C18.5963 28.0009 17.999 28.5968 17.999 29.3342V56.2284C17.999 59.779 20.891 62.6669 24.4442 62.6669H25.9989V70.6748C25.9989 73.6107 28.3908 76 31.3321 76C34.2734 76 36.6654 73.6107 36.6654 70.6748V62.6669H39.332V70.6748C39.332 73.6107 41.7239 76 44.6652 76C47.6065 76 49.9985 73.6107 49.9985 70.6748V62.6669H51.5531C55.1077 62.6669 57.9983 59.779 57.9983 56.2284V29.3342C57.9983 28.5968 57.4023 28.0009 56.665 28.0009ZM55.3317 56.2284C55.3317 58.3083 53.6371 60.0003 51.5531 60.0003H48.6652C47.9292 60.0003 47.3318 60.5963 47.3318 61.3336V70.6748C47.3318 72.1414 46.1359 73.3334 44.6652 73.3334C43.1946 73.3334 41.9986 72.1401 41.9986 70.6748V61.3336C41.9986 60.5963 41.4013 60.0003 40.6653 60.0003H35.3321C34.5961 60.0003 33.9987 60.5963 33.9987 61.3336V70.6748C33.9987 72.1414 32.8028 73.3334 31.3321 73.3334C29.8615 73.3334 28.6655 72.1401 28.6655 70.6748V61.3336C28.6655 60.5963 28.0682 60.0003 27.3322 60.0003H24.4456C22.3616 60.0003 20.6656 58.307 20.6656 56.2284V30.6675H55.3317V56.2284Z" fill="white"/>
<path d="M63.9986 28.0009C61.4253 28.0009 59.332 30.0968 59.332 32.6728V51.3284C59.332 53.9044 61.4253 56.0004 63.9986 56.0004C66.5719 56.0004 68.6652 53.9044 68.6652 51.3284V32.6728C68.6652 30.0968 66.5719 28.0009 63.9986 28.0009ZM65.9986 51.3284C65.9986 52.4338 65.1013 53.3337 63.9986 53.3337C62.896 53.3337 61.9987 52.4338 61.9987 51.3284V32.6728C61.9987 31.5675 62.896 30.6675 63.9986 30.6675C65.1013 30.6675 65.9986 31.5675 65.9986 32.6728V51.3284Z" fill="white"/>
<path d="M11.9996 28.0009C9.4263 28.0009 7.33301 30.0968 7.33301 32.6728V51.3284C7.33301 53.9044 9.4263 56.0004 11.9996 56.0004C14.5729 56.0004 16.6662 53.9044 16.6662 51.3284V32.6728C16.6662 30.0968 14.5729 28.0009 11.9996 28.0009ZM13.9996 51.3284C13.9996 52.4338 13.1022 53.3337 11.9996 53.3337C10.8969 53.3337 9.99963 52.4338 9.99963 51.3284V32.6728C9.99963 31.5675 10.8969 30.6675 11.9996 30.6675C13.1022 30.6675 13.9996 31.5675 13.9996 32.6728V51.3284Z" fill="white"/>
</g>
<defs>
<clipPath id="clip0_2342_24387">
<rect width="76" height="76" fill="white"/>
</clipPath>
</defs>
</svg>
