<svg width="35" height="24" viewBox="0 0 35 24" fill="none" xmlns="http://www.w3.org/2000/svg">
<path d="M30.5 9C31.75 9.41667 32.75 10.1667 33.5 11.25C34.25 12.25 34.625 13.375 34.625 14.625C34.7083 15.875 34.375 17.125 33.625 18.375C32.9583 19.5417 31.875 20.5417 30.375 21.375C27.9583 22.625 25.8333 22.9583 24 22.375C22.1667 21.7083 20.875 20.7083 20.125 19.375C19.7083 18.7083 19.375 17.7917 19.125 16.625C18.9583 15.4583 18.875 14.25 18.875 13C18.9583 11.6667 19.125 10.375 19.375 9.125C19.625 7.875 20 6.83333 20.5 6C20.9167 5.41667 21.4167 4.79167 22 4.125C22.5 3.54167 23.0833 2.95833 23.75 2.375C24.5 1.79167 25.3333 1.25 26.25 0.75L30.625 1C30.0417 1.66667 29.5 2.29167 29 2.875C28.5833 3.375 28.2083 3.83333 27.875 4.25C27.5417 4.66667 27.2083 5.04167 26.875 5.375C26.2917 5.95833 25.8333 6.54167 25.5 7.125C25.1667 7.625 24.875 8.16667 24.625 8.75C24.4583 9.33333 24.4583 9.91667 24.625 10.5C25.7083 9.33333 26.9583 8.75 28.375 8.75C29.0417 8.75 29.75 8.83333 30.5 9ZM13.25 9.625C14.4167 10.2917 15.25 11.2083 15.75 12.375C16.3333 13.4583 16.5417 14.625 16.375 15.875C16.2083 17.125 15.6667 18.2917 14.75 19.375C13.9167 20.4583 12.6667 21.2917 11 21.875C8.41667 22.7083 6.29167 22.6667 4.625 21.75C2.95833 20.75 1.83333 19.5417 1.25 18.125C1 17.375 0.875 16.4167 0.875 15.25C0.875 14.0833 1 12.875 1.25 11.625C1.5 10.375 1.83333 9.16667 2.25 8C2.66667 6.83333 3.20833 5.875 3.875 5.125C4.375 4.54167 4.95833 4 5.625 3.5C6.20833 3.08333 6.875 2.625 7.625 2.125C8.45833 1.625 9.375 1.16667 10.375 0.75L14.75 1.875C14.0833 2.45833 13.4583 2.95833 12.875 3.375C12.375 3.79167 11.9167 4.16667 11.5 4.5C11.0833 4.83333 10.6667 5.16667 10.25 5.5C9.66667 6 9.16667 6.5 8.75 7C8.33333 7.41667 7.95833 7.91667 7.625 8.5C7.29167 9 7.16667 9.54167 7.25 10.125C7.91667 9.625 8.58333 9.33333 9.25 9.25C10 9.08333 10.6667 9.04167 11.25 9.125C11.9167 9.20833 12.5833 9.375 13.25 9.625Z" fill="#E04048"/>
</svg>
