<svg width="35" height="24" viewBox="0 0 35 24" fill="none" xmlns="http://www.w3.org/2000/svg">
<path d="M4.5 9C3.25 9.41667 2.25 10.1667 1.5 11.25C0.75 12.25 0.375 13.375 0.375 14.625C0.291667 15.875 0.625 17.125 1.375 18.375C2.04167 19.5417 3.125 20.5417 4.625 21.375C7.04167 22.625 9.16667 22.9583 11 22.375C12.8333 21.7083 14.125 20.7083 14.875 19.375C15.2917 18.7083 15.625 17.7917 15.875 16.625C16.0417 15.4583 16.125 14.25 16.125 13C16.0417 11.6667 15.875 10.375 15.625 9.125C15.375 7.875 15 6.83333 14.5 6C14.0833 5.41667 13.5833 4.79167 13 4.125C12.5 3.54167 11.9167 2.95833 11.25 2.375C10.5 1.79167 9.66667 1.25 8.75 0.75L4.375 1C4.95833 1.66667 5.5 2.29167 6 2.875C6.41667 3.375 6.79167 3.83333 7.125 4.25C7.45833 4.66667 7.79167 5.04167 8.125 5.375C8.70833 5.95833 9.16667 6.54167 9.5 7.125C9.83333 7.625 10.125 8.16667 10.375 8.75C10.5417 9.33333 10.5417 9.91667 10.375 10.5C9.29167 9.33333 8.04167 8.75 6.625 8.75C5.95833 8.75 5.25 8.83333 4.5 9ZM21.75 9.625C20.5833 10.2917 19.75 11.2083 19.25 12.375C18.6667 13.4583 18.4583 14.625 18.625 15.875C18.7917 17.125 19.3333 18.2917 20.25 19.375C21.0833 20.4583 22.3333 21.2917 24 21.875C26.5833 22.7083 28.7083 22.6667 30.375 21.75C32.0417 20.75 33.1667 19.5417 33.75 18.125C34 17.375 34.125 16.4167 34.125 15.25C34.125 14.0833 34 12.875 33.75 11.625C33.5 10.375 33.1667 9.16667 32.75 8C32.3333 6.83333 31.7917 5.875 31.125 5.125C30.625 4.54167 30.0417 4 29.375 3.5C28.7917 3.08333 28.125 2.625 27.375 2.125C26.5417 1.625 25.625 1.16667 24.625 0.75L20.25 1.875C20.9167 2.45833 21.5417 2.95833 22.125 3.375C22.625 3.79167 23.0833 4.16667 23.5 4.5C23.9167 4.83333 24.3333 5.16667 24.75 5.5C25.3333 6 25.8333 6.5 26.25 7C26.6667 7.41667 27.0417 7.91667 27.375 8.5C27.7083 9 27.8333 9.54167 27.75 10.125C27.0833 9.625 26.4167 9.33333 25.75 9.25C25 9.08333 24.3333 9.04167 23.75 9.125C23.0833 9.20833 22.4167 9.375 21.75 9.625Z" fill="#E04048"/>
</svg>
