<svg width="1440" height="706" viewBox="0 0 1440 706" fill="none" xmlns="http://www.w3.org/2000/svg">
<path d="M1620 112.507C1620 112.507 1032.11 4.07125 642.266 20.7427C372.949 32.2598 193.954 41.9766 -12.8436 112.507C-234.456 188.09 -323.481 262.776 -351.669 379.275C-384.042 513.067 -68.4927 704 -68.4927 704" stroke="#E04048" stroke-opacity="0.17" stroke-width="3" stroke-linecap="round" stroke-dasharray="30 30"/>
<path d="M572.264 10.4211L569.961 24.2532L574.708 37.4479L537.059 27.2282L572.264 10.4211ZM572.984 35.8567L569.035 24.8812L563.953 25.3406L563.856 24.2611L568.937 23.8016L570.853 12.2958L541.569 26.2761L557.807 24.8079L557.905 25.8875L541.667 27.3558L572.984 35.8567Z" fill="#ADADAD"/>
</svg>
