<svg width="1440" height="700" viewBox="0 0 1440 700" fill="none" xmlns="http://www.w3.org/2000/svg">
<path d="M-230 106.507C-230 106.507 357.888 -1.92875 747.734 14.7427C1017.05 26.2598 1196.05 35.9766 1402.84 106.507C1624.46 182.09 1713.48 256.776 1741.67 373.275C1774.04 507.067 1458.49 698 1458.49 698" stroke="#E04048" stroke-opacity="0.17" stroke-width="3" stroke-linecap="round" stroke-dasharray="30 30"/>
<path d="M941.736 10.4211L944.039 24.2532L939.292 37.4479L976.941 27.2282L941.736 10.4211ZM941.016 35.8567L944.965 24.8812L950.047 25.3406L950.144 24.2611L945.063 23.8016L943.147 12.2958L972.431 26.2761L956.193 24.8079L956.095 25.8875L972.333 27.3558L941.016 35.8567Z" fill="#ADADAD"/>
</svg>
