<svg width="78" height="15" viewBox="0 0 78 15" fill="none" xmlns="http://www.w3.org/2000/svg">
<path d="M6.84091 0.951292C6.9382 0.651866 7.3618 0.651866 7.45909 0.951292L8.68231 4.71596C8.72582 4.84987 8.8506 4.94053 8.9914 4.94053L12.9498 4.94053C13.2646 4.94053 13.3955 5.3434 13.1408 5.52846L9.93842 7.85515C9.82451 7.93791 9.77685 8.08461 9.82036 8.21851L11.0436 11.9832C11.1409 12.2826 10.7982 12.5316 10.5434 12.3465L7.34103 10.0198C7.22712 9.93709 7.07288 9.93709 6.95897 10.0198L3.75655 12.3465C3.50185 12.5316 3.15914 12.2826 3.25643 11.9832L4.47964 8.21851C4.52315 8.08461 4.47549 7.93791 4.36158 7.85515L1.15916 5.52846C0.904456 5.3434 1.03536 4.94053 1.35019 4.94053L5.3086 4.94053C5.4494 4.94053 5.57418 4.84987 5.61769 4.71596L6.84091 0.951292Z" fill="#FFDD00"/>
<path d="M22.7667 0.951292C22.864 0.651866 23.2876 0.651866 23.3849 0.951292L24.6081 4.71596C24.6516 4.84987 24.7764 4.94053 24.9172 4.94053L28.8756 4.94053C29.1904 4.94053 29.3213 5.3434 29.0666 5.52846L25.8642 7.85515C25.7503 7.93791 25.7026 8.08461 25.7461 8.21851L26.9694 11.9832C27.0666 12.2826 26.7239 12.5316 26.4692 12.3465L23.2668 10.0198C23.1529 9.93709 22.9987 9.93709 22.8848 10.0198L19.6823 12.3465C19.4276 12.5316 19.0849 12.2826 19.1822 11.9832L20.4054 8.21851C20.4489 8.08461 20.4013 7.93791 20.2874 7.85515L17.0849 5.52846C16.8302 5.3434 16.9611 4.94053 17.276 4.94053L21.2344 4.94053C21.3752 4.94053 21.5 4.84987 21.5435 4.71596L22.7667 0.951292Z" fill="#FFDD00"/>
<path d="M38.6905 0.951292C38.7878 0.651866 39.2114 0.651866 39.3087 0.951292L40.5319 4.71596C40.5754 4.84987 40.7002 4.94053 40.841 4.94053L44.7994 4.94053C45.1143 4.94053 45.2452 5.3434 44.9904 5.52846L41.788 7.85515C41.6741 7.93791 41.6265 8.08461 41.67 8.21851L42.8932 11.9832C42.9905 12.2826 42.6478 12.5316 42.3931 12.3465L39.1906 10.0198C39.0767 9.93709 38.9225 9.93709 38.8086 10.0198L35.6062 12.3465C35.3515 12.5316 35.0087 12.2826 35.106 11.9832L36.3293 8.21851C36.3728 8.08461 36.3251 7.93791 36.2112 7.85515L33.0088 5.52846C32.7541 5.3434 32.885 4.94053 33.1998 4.94053L37.1582 4.94053C37.299 4.94053 37.4238 4.84987 37.4673 4.71596L38.6905 0.951292Z" fill="#FFDD00"/>
<path d="M54.6163 0.951292C54.7136 0.651866 55.1372 0.651866 55.2345 0.951292L56.4577 4.71596C56.5012 4.84987 56.626 4.94053 56.7668 4.94053L60.7252 4.94053C61.04 4.94053 61.1709 5.3434 60.9162 5.52846L57.7138 7.85515C57.5999 7.93791 57.5522 8.08461 57.5957 8.21851L58.819 11.9832C58.9163 12.2826 58.5735 12.5316 58.3188 12.3465L55.1164 10.0198C55.0025 9.93709 54.8483 9.93709 54.7344 10.0198L51.5319 12.3465C51.2772 12.5316 50.9345 12.2826 51.0318 11.9832L52.255 8.21851C52.2985 8.08461 52.2509 7.93791 52.137 7.85515L48.9346 5.52846C48.6798 5.3434 48.8107 4.94053 49.1256 4.94053L53.084 4.94053C53.2248 4.94053 53.3496 4.84987 53.3931 4.71596L54.6163 0.951292Z" fill="#FFDD00"/>
<path d="M70.5401 0.951292C70.6374 0.651866 71.061 0.651866 71.1583 0.951292L72.3815 4.71596C72.425 4.84987 72.5498 4.94053 72.6906 4.94053L76.649 4.94053C76.9639 4.94053 77.0948 5.3434 76.8401 5.52846L73.6376 7.85515C73.5237 7.93791 73.4761 8.08461 73.5196 8.21851L74.7428 11.9832C74.8401 12.2826 74.4974 12.5316 74.2427 12.3465L71.0402 10.0198C70.9263 9.93709 70.7721 9.93709 70.6582 10.0198L67.4558 12.3465C67.2011 12.5316 66.8584 12.2826 66.9556 11.9832L68.1789 8.21851C68.2224 8.08461 68.1747 7.93791 68.0608 7.85515L64.8584 5.52846C64.6037 5.3434 64.7346 4.94053 65.0494 4.94053L69.0078 4.94053C69.1486 4.94053 69.2734 4.84987 69.3169 4.71596L70.5401 0.951292Z" fill="#FFDD00"/>
</svg>
