<svg width="1440" height="148" viewBox="0 0 1440 148" fill="none" xmlns="http://www.w3.org/2000/svg">
<path d="M0 65.7313C0 56.2815 7.66047 48.6213 17.1099 48.6213C19.6393 48.6213 22.0381 49.1744 24.1985 50.1593C24.3878 37.889 34.3917 28 46.7071 28C57.1929 28 66.0038 35.1683 68.5074 44.8718C70.9732 43.7728 73.7036 43.1608 76.5776 43.1608C87.5347 43.1608 96.4174 52.0437 96.4174 63.0012C96.4174 73.8364 87.7314 82.6418 76.943 82.8369L76.9443 82.8414H16.4561L16.4612 82.825C7.31272 82.4835 0 74.9635 0 65.7313Z" fill="white" fill-opacity="0.38"/>
<path d="M537 65.7313C537 56.2815 544.66 48.6213 554.11 48.6213C556.639 48.6213 559.038 49.1744 561.199 50.1593C561.388 37.889 571.392 28 583.707 28C594.193 28 603.004 35.1683 605.507 44.8718C607.973 43.7728 610.704 43.1608 613.578 43.1608C624.535 43.1608 633.417 52.0437 633.417 63.0012C633.417 73.8364 624.731 82.6418 613.943 82.8369L613.944 82.8414H553.456L553.461 82.825C544.313 82.4835 537 74.9635 537 65.7313Z" fill="white" fill-opacity="0.08"/>
<path d="M139 130.731C139 121.282 146.66 113.621 156.11 113.621C158.639 113.621 161.038 114.174 163.199 115.159C163.388 102.889 173.392 93 185.707 93C196.193 93 205.004 100.168 207.507 109.872C209.973 108.773 212.704 108.161 215.578 108.161C226.535 108.161 235.417 117.044 235.417 128.001C235.417 138.836 226.731 147.642 215.943 147.837L215.944 147.841H155.456L155.461 147.825C146.313 147.483 139 139.963 139 130.731Z" fill="white" fill-opacity="0.38"/>
<path d="M676 130.731C676 121.282 683.66 113.621 693.11 113.621C695.639 113.621 698.038 114.174 700.199 115.159C700.388 102.889 710.392 93 722.707 93C733.193 93 742.004 100.168 744.507 109.872C746.973 108.773 749.704 108.161 752.578 108.161C763.535 108.161 772.417 117.044 772.417 128.001C772.417 138.836 763.731 147.642 752.943 147.837L752.944 147.841H692.456L692.461 147.825C683.313 147.483 676 139.963 676 130.731Z" fill="white" fill-opacity="0.08"/>
<path d="M222 63.9847C222 47.9598 235.03 34.9696 251.103 34.9696C255.405 34.9696 259.485 35.9075 263.16 37.5777C263.482 16.7697 280.498 0 301.446 0C319.282 0 334.268 12.156 338.527 28.6111C342.721 26.7474 347.365 25.7097 352.254 25.7097C370.891 25.7097 386 40.7732 386 59.3549C386 77.7293 371.226 92.6616 352.875 92.9923L352.877 93H249.991L249.999 92.9722C234.438 92.393 222 79.6406 222 63.9847Z" fill="white" fill-opacity="0.38"/>
<path d="M814 63.9847C814 47.9598 827.03 34.9696 843.103 34.9696C847.405 34.9696 851.485 35.9075 855.16 37.5777C855.482 16.7697 872.498 0 893.446 0C911.282 0 926.268 12.156 930.527 28.6111C934.721 26.7474 939.365 25.7097 944.254 25.7097C962.891 25.7097 978 40.7732 978 59.3549C978 77.7293 963.226 92.6616 944.875 92.9923L944.877 93H841.991L841.999 92.9722C826.438 92.393 814 79.6406 814 63.9847Z" fill="white" fill-opacity="0.08"/>
<path d="M1037 65.7313C1037 56.2815 1044.66 48.6213 1054.11 48.6213C1056.64 48.6213 1059.04 49.1744 1061.2 50.1593C1061.39 37.889 1071.39 28 1083.71 28C1094.19 28 1103 35.1683 1105.51 44.8718C1107.97 43.7728 1110.7 43.1608 1113.58 43.1608C1124.53 43.1608 1133.42 52.0437 1133.42 63.0012C1133.42 73.8364 1124.73 82.6418 1113.94 82.8369L1113.94 82.8414H1053.46L1053.46 82.825C1044.31 82.4835 1037 74.9635 1037 65.7313Z" fill="white" fill-opacity="0.38"/>
<path d="M1176 130.731C1176 121.282 1183.66 113.621 1193.11 113.621C1195.64 113.621 1198.04 114.174 1200.2 115.159C1200.39 102.889 1210.39 93 1222.71 93C1233.19 93 1242 100.168 1244.51 109.872C1246.97 108.773 1249.7 108.161 1252.58 108.161C1263.53 108.161 1272.42 117.044 1272.42 128.001C1272.42 138.836 1263.73 147.642 1252.94 147.837L1252.94 147.841H1192.46L1192.46 147.825C1183.31 147.483 1176 139.963 1176 130.731Z" fill="white" fill-opacity="0.38"/>
<path d="M1314 63.9847C1314 47.9598 1327.03 34.9696 1343.1 34.9696C1347.41 34.9696 1351.49 35.9075 1355.16 37.5777C1355.48 16.7697 1372.5 0 1393.45 0C1411.28 0 1426.27 12.156 1430.53 28.6111C1434.72 26.7474 1439.37 25.7097 1444.25 25.7097C1462.89 25.7097 1478 40.7732 1478 59.3549C1478 77.7293 1463.23 92.6616 1444.88 92.9923L1444.88 93H1341.99L1342 92.9722C1326.44 92.393 1314 79.6406 1314 63.9847Z" fill="white" fill-opacity="0.38"/>
</svg>
