<svg width="92" height="99" viewBox="0 0 92 99" fill="none" xmlns="http://www.w3.org/2000/svg">
<path d="M0 45.7633C0 20.4882 20.5942 0 46 0C71.4058 0 92 20.4882 92 45.7633L46 50.3396L0 45.7633Z" fill="#6E6E6E"/>
<path d="M92 46C92 70.9264 71.4058 91.1321 46 91.1321C20.5942 91.1321 0 70.9264 0 46H92Z" fill="#6E6E6E" fill-opacity="0.85"/>
<path d="M80.7179 89.6877V96.927C80.7179 97.3623 80.4932 97.7289 80.156 97.9121C79.8413 98.1183 79.4142 98.1412 79.032 97.9121L72.9179 94.2696L62.3979 75.5986L57.9021 67.6491L49.4727 52.7124L56.0589 46L65.0279 61.8989L69.6809 70.1462L80.7179 89.6877Z" fill="#BCBCBC"/>
<path d="M62.574 58.151C60.724 60.6424 58.3264 62.7015 55.5469 64.1429L64.6171 79.8491C67.3103 78.3828 69.7807 76.5771 72.0374 74.5406L62.574 58.151Z" fill="#BCBCBC"/>
<path d="M79.8492 46C79.8492 55.5995 75.8426 64.2933 69.3912 70.4741C67.2181 72.5796 64.7507 74.3908 62.0569 75.8625C57.258 78.4661 51.7573 79.9603 45.8945 79.9603C40.1674 79.9603 34.6667 78.5566 29.732 75.8625L19.1381 94.3143L12.9809 97.9141C12.5961 98.1405 12.166 98.1178 11.8491 97.9141C11.5096 97.7329 11.2832 97.3707 11.2832 96.9405V89.7862L36.1155 46.6113L42.748 53.2449L34.2593 68.0289C37.8132 69.9081 41.7746 70.9043 45.8945 70.9043C50.1048 70.9043 54.0662 69.8628 57.5296 68.0063C60.2686 66.58 62.6908 64.6329 64.7054 62.3236C68.5083 57.9314 70.7946 52.2487 70.7946 46H79.8492Z" fill="#BCBCBC"/>
<path d="M56.4152 22.5663H50.629V15.6227H41.3711V22.5663H35.585C33.6686 22.5663 32.1133 24.1216 32.1133 26.0381V45.7116L43.5282 57.1268C44.8938 58.4924 47.1064 58.4924 48.4696 57.1268L59.8869 45.7116V26.0381C59.8869 24.1216 58.3315 22.5663 56.4152 22.5663ZM46.0001 43.397C42.8038 43.397 40.2139 40.8071 40.2139 37.6107C40.2139 34.4143 42.8038 31.8244 46.0001 31.8244C49.1964 31.8244 51.7862 34.4143 51.7862 37.6107C51.7862 40.8071 49.1964 43.397 46.0001 43.397Z" fill="#3E3E3E"/>
</svg>
