<svg width="77" height="89" viewBox="0 0 77 89" fill="none" xmlns="http://www.w3.org/2000/svg">
<path d="M37.7102 0.59124C37.3548 0.630684 36.8415 0.762192 36.5914 0.867393C36.3414 0.972595 28.4576 5.50945 19.0867 10.9537C0.384235 21.8027 1.04231 21.3818 0.371073 23.0256L0.0683594 23.7883V44.5658C0.0683594 64.9751 0.0683594 65.3564 0.331589 66.198C0.529011 66.8161 0.739594 67.1975 1.12128 67.5788C1.4898 67.9339 7.17555 71.2872 18.8893 78.0596C28.3787 83.5301 36.3282 88.1064 36.5783 88.2248C37.2627 88.5667 38.8815 88.6324 39.816 88.3694C40.3424 88.2116 45.8834 85.0555 57.7024 78.2042C67.126 72.7337 74.9966 68.1311 75.194 67.9865C75.681 67.6314 76.3785 66.5531 76.6549 65.7641C76.8392 65.1986 76.8655 63.1077 76.8655 44.3159C76.8655 31.2051 76.826 23.3675 76.7471 23.1571C76.6549 22.9204 76.6549 22.8021 76.7734 22.7626C77.0366 22.6837 75.8916 21.3029 75.194 20.869C73.6278 19.8696 40.553 0.906845 40.145 0.775337C39.5264 0.551788 38.513 0.486038 37.7102 0.59124ZM43.1063 16.8713C46.0282 17.3579 49.2133 18.4493 51.7271 19.817C54.1225 21.1188 57.1233 23.4201 58.8343 25.2612C60.2426 26.7998 62.9275 30.4687 62.7564 30.6265C62.6511 30.7186 53.9909 35.6894 53.8198 35.742C53.7013 35.7946 53.4249 35.4921 53.0169 34.8609C51.0032 31.7574 47.8708 29.3115 44.2514 28.0096C40.961 26.8261 36.8152 26.7603 33.3405 27.8123C27.8785 29.4824 23.3773 34.0193 21.7716 39.4635C21.0477 41.9357 20.8635 44.8946 21.2583 47.3537C22.4034 54.4285 27.8917 60.0963 35.0515 61.6086C36.8283 61.9899 40.0529 62.0294 41.7507 61.6875C44.1198 61.2141 46.2519 60.333 48.2525 59.018C49.7397 58.0317 51.964 55.8225 52.9643 54.3496L53.7277 53.2055L55.465 54.2313C56.4126 54.7967 58.4395 55.9934 59.9794 56.8876L62.7696 58.5314L61.8483 59.9122C57.8998 65.8824 51.6745 70.2089 44.7515 71.7869C42.2377 72.3524 41.3822 72.4444 38.3682 72.4313C35.2884 72.4313 34.0776 72.2866 31.5769 71.6554C25.4173 70.0905 19.7448 66.2638 15.8884 61.0431C13.1903 57.4005 11.3872 52.9294 10.7291 48.3136C10.4528 46.3542 10.4528 42.6722 10.716 40.7785C11.4267 35.8472 13.3351 31.284 16.3491 27.3915C18.1785 25.0245 21.1925 22.3024 23.7195 20.7243C27.0362 18.6597 31.1952 17.2001 35.2095 16.6872C37.2232 16.4242 41.0268 16.5162 43.1063 16.8713ZM67.4551 37.3989C67.2182 38.5561 67.0602 39.5292 67.0997 39.5687C67.1392 39.6081 67.7709 39.6344 68.508 39.6344H69.8504L70.2848 37.4646L70.7191 35.2948H72.338C73.2329 35.2948 73.97 35.3475 73.97 35.4001C73.97 35.4658 73.7989 36.3995 73.5751 37.4646C73.3646 38.5298 73.1803 39.4635 73.1803 39.5292C73.1803 39.5818 73.5357 39.6344 73.97 39.6344H74.7597V41.344V43.0535H73.6015H72.4301L72.1537 44.3949C71.9958 45.1444 71.8642 45.7888 71.8642 45.8414C71.8642 45.9071 72.5222 45.9466 73.3119 45.9466H74.7597V47.6561V49.3657H72.9829C72.0089 49.3657 71.2061 49.3788 71.2061 49.392C71.1929 49.4183 70.9955 50.3782 70.7718 51.5355L70.3374 53.6395L68.6659 53.679C67.7446 53.6921 66.9944 53.679 66.9944 53.6264C66.9944 53.5869 67.1787 52.6927 67.3893 51.6407C67.613 50.6018 67.7841 49.6681 67.7841 49.5629C67.7841 49.4051 67.5209 49.3657 66.4021 49.3657C65.6388 49.3657 65.0202 49.3788 65.0202 49.392C65.007 49.4183 64.8096 50.3782 64.5859 51.5355L64.1515 53.6395L62.4932 53.679L60.848 53.7184L61.2692 51.6144C61.5061 50.444 61.664 49.4709 61.6245 49.4314C61.585 49.392 61.177 49.3657 60.7164 49.3657H59.8872V47.6561V45.9466H61.1376H62.3747L62.5064 45.4469C62.5722 45.1839 62.6906 44.6316 62.7827 44.237C62.8617 43.8425 62.967 43.4086 63.0065 43.2771C63.0591 43.0798 62.9275 43.0535 61.4798 43.0535H59.8872V41.344V39.6344H61.7825H63.6646L64.0989 37.4646L64.5332 35.2948H66.2047H67.8762L67.4551 37.3989Z" fill="#6E6E6E"/>
<path d="M66.2699 43.3428C66.2305 43.5137 66.112 44.0529 66.0067 44.5658C65.8883 45.0655 65.7698 45.5915 65.7303 45.7098C65.6645 45.9202 65.7961 45.9465 67.0991 45.9465H68.5337L68.8101 44.6578C68.968 43.9608 69.0997 43.3033 69.0997 43.2113C69.0997 43.0929 68.7311 43.0535 67.7177 43.0535C66.4016 43.0535 66.3357 43.0666 66.2699 43.3428Z" fill="#6E6E6E"/>
</svg>
