<svg width="123" height="75" viewBox="0 0 123 75" fill="none" xmlns="http://www.w3.org/2000/svg">
<path d="M106.851 24.5468C106.853 24.4111 106.856 24.2758 106.856 24.1399C106.856 11.1834 96.3529 0.680054 83.3964 0.680054C72.231 0.680054 62.8883 8.48054 60.5184 18.9291C58.3084 17.692 55.7628 16.9837 53.0501 16.9837C44.5857 16.9837 37.724 23.8454 37.724 32.3098C37.724 32.6557 37.7395 32.998 37.7622 33.3382C31.4784 35.6709 27 41.7194 27 48.8149C27 57.9303 34.3895 65.32 43.5051 65.32H102.369C113.763 65.3198 123 56.0827 123 44.6884C123 34.8334 116.09 26.5938 106.851 24.5468Z" fill="#6E6E6E"/>
<path d="M79.3103 35.9876L77.3165 35.5458L77.3515 33.5039C77.3519 33.4798 77.3523 33.4567 77.3527 33.4347C77.3547 33.3201 77.3563 33.2308 77.3563 33.1399C77.3563 21.5641 67.9722 12.1801 56.3964 12.1801C46.4242 12.1801 38.0738 19.1472 35.9564 28.4821L35.2164 31.7448L32.2972 30.1106C30.4485 29.0757 28.3219 28.4837 26.0501 28.4837C18.9664 28.4837 13.224 34.2261 13.224 41.3098C13.224 41.5824 13.2362 41.8657 13.2567 42.1715L13.381 44.0327L11.6323 44.6819C6.29595 46.6629 2.5 51.7985 2.5 57.8149C2.5 65.5496 8.77022 71.82 16.5051 71.82H75.3686C85.3822 71.8198 93.5 63.702 93.5 53.6884C93.5 45.0309 87.4294 37.7865 79.3103 35.9876Z" fill="#6E6E6E" stroke="#F8F2F2" stroke-width="5"/>
</svg>
