<svg width="74" height="74" viewBox="0 0 74 74" fill="none" xmlns="http://www.w3.org/2000/svg">
<path d="M61.666 21.5833H12.3327C8.92693 21.5833 6.16602 24.3442 6.16602 27.7499V61.6666C6.16602 65.0723 8.92693 67.8333 12.3327 67.8333H61.666C65.0718 67.8333 67.8327 65.0723 67.8327 61.6666V27.7499C67.8327 24.3442 65.0718 21.5833 61.666 21.5833Z" stroke="#E04048" stroke-width="5" stroke-linecap="round" stroke-linejoin="round"/>
<path d="M52.4173 6.16675L37.0007 21.5834L21.584 6.16675" stroke="#E04048" stroke-width="6" stroke-linecap="round" stroke-linejoin="round"/>
<path d="M31.1523 35.9375V53H27.6484V35.9375H31.1523ZM36.4023 35.9375V38.6914H22.4805V35.9375H36.4023ZM44.7461 49.4375L48.7656 35.9375H52.6797L46.7383 53H44.1602L44.7461 49.4375ZM41.043 35.9375L45.0508 49.4375L45.6602 53H43.0586L37.1523 35.9375H41.043Z" fill="#E04048"/>
</svg>
