<svg width="54" height="54" viewBox="0 0 54 54" fill="none" xmlns="http://www.w3.org/2000/svg">
<g clip-path="url(#clip0_326_15276)">
<path d="M32.5101 44.0816H1.65306C0.740131 44.0816 0 44.8218 0 45.7347V52.3469C0 53.2599 0.740131 54 1.65306 54H32.5101C33.423 54 34.1632 53.2599 34.1632 52.3469V45.7347C34.1632 44.8218 33.423 44.0816 32.5101 44.0816ZM30.857 50.6939H3.30612V47.3878H30.857V50.6939ZM49.0407 44.0816H44.6325C41.898 44.0816 39.6732 46.3063 39.6732 49.0408V52.3469C39.6732 53.2599 40.4134 54 41.3263 54H52.3469C53.2599 54 54 53.2599 54 52.3469V49.0408C54 46.3063 51.7753 44.0816 49.0407 44.0816ZM50.6939 50.6939H42.9794V49.0408C42.9794 48.1293 43.7209 47.3878 44.6325 47.3878H49.0407C49.9522 47.3878 50.6939 48.1293 50.6939 49.0408V50.6939ZM4.95918 34.1633H25.3468V37.4697H14.3265C13.4136 37.4697 12.6735 38.2098 12.6735 39.1228C12.6735 40.0357 13.4136 40.7758 14.3265 40.7758H26.9737C26.9824 40.7759 26.9912 40.7761 26.9999 40.7761C27.0086 40.7761 27.0174 40.7759 27.0261 40.7758H39.6735C40.5864 40.7758 41.3265 40.0357 41.3265 39.1228C41.3265 38.2098 40.5864 37.4697 39.6735 37.4697H28.653V34.1633H49.0407C49.9536 34.1633 50.6938 33.4231 50.6938 32.5102V1.65306C50.6938 0.740131 49.9536 0 49.0407 0H4.95918C4.04625 0 3.30612 0.740131 3.30612 1.65306V32.5102C3.30612 33.4231 4.04625 34.1633 4.95918 34.1633ZM6.61224 3.30612H47.3876V24.2449H6.61224V3.30612ZM6.61224 27.551H47.3876V30.8571H26.9999H6.61224V27.551Z" fill="#E04048"/>
</g>
<defs>
<clipPath id="clip0_326_15276">
<rect width="54" height="54" fill="white"/>
</clipPath>
</defs>
</svg>
