<svg width="65" height="48" viewBox="0 0 65 48" fill="none" xmlns="http://www.w3.org/2000/svg">
<path d="M59.9219 41.1571V3.77896C59.9219 1.69559 58.3274 0 56.3672 0H8.6328C6.67258 0 5.07809 1.69559 5.07809 3.77896V41.1573H0V43.4389L3.25 48H61.75L65 43.4389V41.1573H59.9219V41.1571ZM9.14059 4.30673H55.8593V41.1571H9.14059V4.30673Z" fill="#E04048"/>
<path d="M42.2658 11C41.7237 11 40.9272 11.7223 40.604 12.0346L39.8246 12.7991C39.6914 12.9279 39.5146 12.9987 39.3224 12.9987C39.1301 12.9987 38.9522 12.9279 38.8193 12.7995L38.0281 12.0328C37.4968 11.5196 36.6166 11 35.9612 11C35.3056 11 34.425 11.5196 33.8939 12.0329L33.1009 12.7992C32.9677 12.928 32.7879 12.9989 32.5947 12.9989C32.4014 12.9989 32.2216 12.928 32.0884 12.7992L31.2952 12.0329C30.777 11.5321 29.8761 11 29.2272 11C28.5783 11 27.6774 11.5321 27.1592 12.0329L26.3662 12.7992C26.2329 12.928 26.0531 12.9989 25.8597 12.9989C25.6665 12.9989 25.4866 12.928 25.3532 12.7992L24.5602 12.0329C24.5164 11.9908 23.4649 11 22.8287 11C22.1027 11 21.8262 11.9839 21.8262 12.8265V34.1735C21.8262 35.0161 22.1027 36 22.8287 36C23.4402 36 24.4269 35.0728 24.5345 34.9689L25.3415 34.2008C25.4747 34.072 25.6576 34.0011 25.8521 34.0011C26.0465 34.0011 26.2282 34.072 26.3619 34.2013L27.1569 34.9671C27.675 35.4678 28.5765 36 29.2261 36C29.8754 36 30.7765 35.4678 31.2946 34.9672L32.0882 34.2008C32.2214 34.072 32.4013 34.0011 32.5947 34.0011C32.788 34.0011 32.968 34.072 33.1013 34.2008L33.8943 34.9671C34.4125 35.4678 35.3134 36 35.9624 36C36.6113 36 37.5122 35.4678 38.0304 34.9671L38.8235 34.2008C38.9568 34.072 39.1366 34.0011 39.3301 34.0011C39.5233 34.0011 39.7032 34.072 39.8364 34.2008L40.6296 34.9671C41.0288 35.3529 41.7556 36 42.2658 36C42.8632 36 43.1732 35.3513 43.1732 34.1735V12.8265C43.1732 11.6487 42.8633 11 42.2658 11ZM38.4928 29.7785H33.2417V27.6096H38.4928V29.7785ZM38.4928 24.5274H26.6207V22.4726H38.4928V24.5274ZM38.4928 19.3904H26.6207V17.2215H38.4928V19.3904Z" fill="#E04048"/>
</svg>
