<svg width="106" height="91" viewBox="0 0 106 91" fill="none" xmlns="http://www.w3.org/2000/svg">
<path d="M47.9651 17.2319C47.5764 17.4079 47.0111 17.8303 46.6931 18.1472C45.5624 19.3441 45.5801 19.1328 45.5801 28.9897C45.5801 37.6145 45.5978 37.9665 45.9511 38.7234C46.3928 39.6914 46.8874 40.2371 47.7001 40.6595C49.7318 41.6804 52.0638 40.8707 53.1061 38.7938C53.4241 38.1425 53.4418 37.5793 53.4948 29.4121C53.5301 21.8963 53.5124 20.5938 53.2651 19.7665C52.5938 17.4959 50.0321 16.2814 47.9651 17.2319Z" fill="#6E6E6E"/>
<path d="M75.5249 24.0965C72.2389 24.2197 71.9385 24.2901 70.8962 25.3814C70.2955 25.9974 69.7832 27.1944 69.7832 27.9864C69.7832 29.3417 70.8255 30.9083 72.1682 31.5243C72.7865 31.806 73.3519 31.8588 76.6379 31.8588H80.3832V43.9686C80.3832 57.5746 80.3655 57.293 81.6022 58.5779C83.4042 60.4261 86.4075 60.0388 87.7502 57.7858L88.2449 56.941L88.3332 44.4439L88.4215 31.9468L92.3082 31.8588C96.0359 31.7708 96.2302 31.7532 96.9899 31.3307C97.4139 31.0843 98.0145 30.5386 98.3149 30.1338C98.7919 29.4297 98.8449 29.2361 98.8449 28.004C98.8449 26.8071 98.7919 26.5431 98.3502 25.9094C98.0852 25.5046 97.5375 24.959 97.1312 24.6949C96.4069 24.2021 96.3362 24.2021 92.8559 24.0789C88.7219 23.9557 79.8532 23.9557 75.5249 24.0965Z" fill="#6E6E6E"/>
<path d="M15.3696 24.9413C14.6629 25.311 14.2566 25.6806 13.8679 26.3142L13.3379 27.1591V42.1732V57.1698L13.8679 57.9266C15.3519 60.0212 17.8252 60.3908 19.6626 58.7891C21.1996 57.4338 21.1112 58.4195 21.1642 42.7013C21.1996 33.6893 21.1466 28.4792 21.0229 27.8456C20.5106 25.0469 17.8076 23.674 15.3696 24.9413Z" fill="#6E6E6E"/>
<path d="M36.9578 25.7158C35.6152 26.3846 33.1595 29.4649 31.7992 32.1755C30.4035 34.9742 29.8028 37.5968 29.7852 40.9235C29.7852 45.2535 30.9335 48.985 33.4068 52.5581C34.4492 54.0543 36.9578 56.5185 38.4772 57.5394C43.5828 60.9717 50.0842 61.8342 55.8965 59.8628C62.6805 57.557 67.7332 51.5724 69.0052 44.3382C69.4115 41.962 69.2702 38.3361 68.6695 36.0479C67.5742 31.9291 64.9595 27.7048 62.6452 26.4022C59.3062 24.4837 55.4372 28.1624 57.1862 31.5947C57.3452 31.8763 57.9282 32.6156 58.4935 33.2316C59.7302 34.5518 60.8255 36.6639 61.2142 38.5121C62.7688 45.9047 57.0625 52.9982 49.5718 52.9806C47.6108 52.9806 46.0032 52.5933 44.1835 51.7309C42.9468 51.1324 42.3815 50.71 41.1448 49.4779C38.7245 47.0665 37.5762 44.3558 37.5762 41.0115C37.5762 37.9136 38.6715 35.1326 40.8268 32.8092C42.2755 31.2603 42.6288 30.5562 42.6288 29.2185C42.6288 26.3494 39.5548 24.4485 36.9578 25.7158Z" fill="#6E6E6E"/>
<path d="M58.6522 66.7626C58.1399 67.0266 57.7689 67.6603 57.7689 68.3115C57.7689 68.6811 57.6629 68.8044 57.2212 68.8924C56.6029 69.0156 56.6912 69.35 57.3449 69.35H57.7689V71.7262C57.7689 73.7152 57.8042 74.1024 58.0339 74.1024C58.2635 74.1024 58.2989 73.7152 58.2989 71.7438V69.3676L58.8642 69.3148C59.6769 69.2444 59.7299 68.822 58.9349 68.822C58.3342 68.822 58.2989 68.7867 58.2989 68.2235C58.2989 67.4138 58.7229 67.009 59.4825 67.097C60.1009 67.1674 60.3129 66.8506 59.7829 66.6394C59.3765 66.4809 59.1469 66.5161 58.6522 66.7626Z" fill="#6E6E6E"/>
<path d="M68.4751 66.657C68.4221 66.7098 68.3691 68.4171 68.3691 70.4413C68.3691 73.5744 68.4045 74.1024 68.6341 74.1024C68.8461 74.1024 68.8991 73.7856 68.8991 72.2543C68.8991 71.251 68.9875 70.2301 69.0935 70.0013C69.4821 69.1564 71.0721 68.8748 71.7258 69.526C72.0438 69.8428 72.0791 70.1069 72.0791 71.9902C72.0791 73.7504 72.1321 74.1024 72.3441 74.1024C72.5561 74.1024 72.6091 73.7856 72.6091 72.2895C72.6091 69.878 72.4148 69.2268 71.6021 68.8924C70.8425 68.5579 69.7118 68.7163 69.2348 69.1916C68.8991 69.526 68.8991 69.5084 68.8991 68.1355C68.8991 66.833 68.7755 66.3753 68.4751 66.657Z" fill="#6E6E6E"/>
<path d="M22.065 67.5019C21.9944 67.5899 21.8884 67.9243 21.8354 68.2236C21.747 68.5756 21.5704 68.822 21.3584 68.8748C20.9167 68.998 20.9167 69.3501 21.376 69.3501C21.7117 69.3501 21.7294 69.4733 21.7294 71.3742C21.7294 73.3104 21.747 73.4336 22.171 73.8561C22.5067 74.1729 22.7717 74.2785 23.178 74.2433C23.9554 74.1729 24.0437 73.7504 23.284 73.7504C22.3477 73.7504 22.2594 73.5392 22.2594 71.3566V69.3677L23.0014 69.3149C24.0437 69.2444 24.1144 68.822 23.072 68.822H22.277L22.224 68.0651C22.1887 67.6603 22.118 67.3963 22.065 67.5019Z" fill="#6E6E6E"/>
<path d="M17.0487 68.9804C16.2184 69.4204 16.2537 69.4204 16.2537 69.086C16.2537 68.9452 16.1831 68.822 16.0771 68.822C15.9711 68.822 15.9004 69.8252 15.9004 71.4622C15.9004 73.6976 15.9357 74.1024 16.1654 74.1024C16.3774 74.1024 16.4304 73.768 16.4304 72.0958C16.4304 69.6492 16.5894 69.35 17.9674 69.2268C18.7624 69.1388 18.8861 69.174 19.2217 69.614C19.5751 70.0541 19.6104 70.3181 19.6104 72.0958C19.6104 73.3103 19.6811 74.1024 19.7871 74.1024C19.8931 74.1024 19.9637 73.2575 19.9637 71.9198C19.9637 69.8956 19.9284 69.6844 19.5574 69.262C19.0097 68.6107 17.9851 68.5051 17.0487 68.9804Z" fill="#6E6E6E"/>
<path d="M26.1645 68.9452C25.3342 69.3853 24.9102 70.2478 24.9102 71.5503C24.9102 73.6625 26.2528 74.6657 28.3198 74.0849C29.3622 73.8033 29.0972 73.5744 27.8605 73.6977C26.3058 73.8385 25.6698 73.4336 25.3695 72.1135L25.2635 71.6383H27.2068H29.1502V71.1102C29.1502 69.3149 27.5955 68.1884 26.1645 68.9452ZM27.8252 69.2797C28.1608 69.4205 28.6202 70.2478 28.6202 70.7582C28.6202 71.0926 28.5142 71.1102 27.0302 71.1102H25.4402V70.6526C25.4402 69.6845 26.8005 68.8924 27.8252 69.2797Z" fill="#6E6E6E"/>
<path d="M35.5976 68.9804C34.7672 69.4204 34.8026 69.4204 34.8026 69.086C34.8026 68.9452 34.7319 68.822 34.6259 68.822C34.5199 68.822 34.4492 69.8252 34.4492 71.4622C34.4492 73.0991 34.5199 74.1024 34.6259 74.1024C34.7319 74.1024 34.8026 73.4336 34.8026 72.4303C34.8026 69.8956 35.2266 69.174 36.7106 69.174C37.8766 69.174 38.0532 69.5436 38.1239 72.0078C38.1592 73.1519 38.2652 74.1024 38.3536 74.1024C38.4419 74.1024 38.5126 73.1167 38.5126 71.9198C38.5126 69.8956 38.4772 69.6844 38.1062 69.262C37.5586 68.6107 36.5339 68.5051 35.5976 68.9804Z" fill="#6E6E6E"/>
<path d="M41.3924 68.91C39.8908 69.5613 39.6258 72.9232 41.0214 73.8032C41.6398 74.2081 42.6114 74.3313 43.4241 74.1025C44.5724 73.8032 44.3074 73.5744 42.9471 73.6976C41.7458 73.8032 41.6928 73.7856 41.1804 73.2576C40.8094 72.888 40.6328 72.5535 40.6328 72.1839V71.6382H42.4878H44.3428V71.0046C44.3428 70.0541 43.8481 69.174 43.1768 68.8924C42.4524 68.5932 42.1168 68.5932 41.3924 68.91ZM43.3711 69.6141C43.6538 69.8781 43.8128 70.2477 43.8128 70.5822V71.1102H42.2228C40.8978 71.1102 40.6328 71.0574 40.6328 70.8462C40.6328 70.4237 41.1274 69.5613 41.4631 69.3676C42.0461 69.0332 42.9118 69.1388 43.3711 69.6141Z" fill="#6E6E6E"/>
<path d="M78.1744 68.7691C77.9801 68.822 77.6444 69.0156 77.4324 69.2268L77.0261 69.5788V69.2092C77.0261 68.9804 76.9201 68.822 76.7611 68.822C76.5314 68.822 76.4961 69.2268 76.4961 71.4622C76.4961 73.6272 76.5491 74.1024 76.7434 74.1024C76.9378 74.1024 77.0084 73.68 77.0614 72.0606C77.1144 70.0717 77.1321 70.0189 77.6091 69.5964C78.2451 69.0508 79.3404 69.0156 79.8528 69.526C80.1708 69.8428 80.2061 70.1069 80.2061 71.9902C80.2061 73.7504 80.2591 74.1024 80.4711 74.1024C80.8421 74.1024 80.8598 70.2653 80.4711 69.5436C80.1178 68.8396 79.1814 68.5227 78.1744 68.7691Z" fill="#6E6E6E"/>
<path d="M83.2809 68.8044C82.1856 69.2796 81.8322 70.7054 82.5919 71.6031C82.9806 72.0607 82.9982 72.1487 82.7686 72.3423C82.4682 72.5887 82.4152 73.328 82.6802 73.4864C82.7862 73.5392 82.6272 73.8032 82.3269 74.0497C81.2846 74.9121 81.7792 76.2323 83.2279 76.4787C84.9239 76.7603 86.3902 76.0034 86.3902 74.8241C86.3902 73.8208 85.9486 73.5216 84.3056 73.3984C83.2456 73.328 82.9452 73.24 82.8922 73.0288C82.8039 72.5535 83.3516 72.1663 84.1112 72.1663C85.4186 72.1663 86.2666 70.7934 85.6836 69.6845C85.5069 69.3853 85.5599 69.3325 86.0369 69.2444C86.7966 69.086 86.6906 68.822 85.8779 68.822C85.5069 68.822 84.8532 68.7868 84.4292 68.734C84.0052 68.6812 83.4752 68.7164 83.2809 68.8044ZM84.9416 69.4557C85.4186 69.7901 85.4716 70.8286 85.0299 71.3214C84.6589 71.7263 83.4576 71.7439 82.9982 71.339C82.5742 70.9518 82.5742 69.9837 83.0336 69.5261C83.4576 69.1036 84.3939 69.0684 84.9416 69.4557ZM85.7719 74.3489C86.1252 74.8945 85.8602 75.6338 85.2419 75.8626C84.6412 76.0914 83.1042 76.0914 82.6626 75.8626C82.2032 75.6162 82.1856 74.3841 82.6449 74.1201C82.8039 74.0145 83.5282 73.9265 84.2172 73.9265C85.3656 73.9265 85.5246 73.9617 85.7719 74.3489Z" fill="#6E6E6E"/>
<path d="M88.4218 68.7692C87.8918 68.8924 87.2735 69.5437 87.2735 69.9661C87.2735 70.5822 87.6975 70.9694 89.0578 71.6383C90.1531 72.1487 90.3828 72.3247 90.4181 72.7296C90.4535 73.0464 90.3475 73.2752 90.0648 73.4688C89.6231 73.7857 88.4218 73.8385 87.7328 73.5744C87.4855 73.4864 87.2381 73.4864 87.1851 73.5568C87.0261 73.8209 87.5385 74.1025 88.3511 74.2081C89.4288 74.3489 90.4711 73.9793 90.7715 73.3456C91.1601 72.5536 90.7891 71.9199 89.6408 71.3743C89.1285 71.1278 88.6338 70.9342 88.5455 70.9342C88.2628 70.9342 87.8035 70.3006 87.8035 69.9133C87.8035 69.3325 88.4041 69.1213 89.6938 69.2445C90.9481 69.3677 91.2131 69.1213 90.1531 68.8396C89.4641 68.646 89.0225 68.6284 88.4218 68.7692Z" fill="#6E6E6E"/>
<path d="M52.4158 69.0156C52.2214 69.1212 51.9388 69.5436 51.7444 69.9485C51.0554 71.4622 51.5148 73.4336 52.6984 73.9792C53.4581 74.3489 53.8821 74.3489 54.6771 74.032C55.5781 73.6448 56.0021 72.8351 56.0021 71.4974C56.0021 70.3005 55.7194 69.5436 55.0834 69.1036C54.3061 68.5579 54.1294 68.9452 54.8714 69.5788C55.7901 70.3709 55.7901 72.5535 54.8538 73.3456C54.3591 73.7856 53.4051 73.8736 52.8044 73.5744C51.6384 72.9407 51.6561 69.9661 52.8221 69.35C53.2108 69.1388 53.2991 68.822 52.9634 68.822C52.8398 68.822 52.5924 68.91 52.4158 69.0156Z" fill="#6E6E6E"/>
</svg>
