<svg width="91" height="107" viewBox="0 0 91 107" fill="none" xmlns="http://www.w3.org/2000/svg">
<path d="M52.8819 0C59.2546 13.6168 30.0165 22.026 27.31 33.3775C24.8116 43.7928 44.6627 55.905 44.6717 55.905C41.6574 51.5918 39.4759 48.0308 36.4525 41.3186C31.3381 29.967 67.5824 19.7022 52.8819 0ZM72.2623 18.8663C72.2623 18.8663 46.6632 20.3625 45.3597 35.4923C44.7804 42.2297 52.0853 45.8241 52.3026 50.7308C52.4655 54.7264 47.9305 58.0616 47.9305 58.0616C47.9305 58.0616 56.1588 56.6323 58.7386 50.5218C61.59 43.7427 53.2078 39.1118 54.0496 33.6868C54.8643 28.4958 72.2623 18.8663 72.2623 18.8663ZM78.472 53.8153C75.7926 53.7066 72.8145 54.5258 70.117 56.3146C75.4034 55.2697 79.8751 58.2539 79.8751 61.6978C79.8751 69.455 67.7363 76.7858 67.7363 76.7858C67.7363 76.7858 86.5283 74.8047 86.5283 62.0656C86.5283 56.7994 82.9256 54.0075 78.472 53.8153ZM32.017 53.832C32.017 53.832 8.56321 53.5394 8.56321 59.6666C8.56321 66.0696 39.2767 66.521 61.2098 62.5755C61.2098 62.5755 67.0664 58.8725 68.6234 57.4932C54.2488 60.2015 21.4442 60.561 21.4442 58.2205C21.4442 56.0555 32.017 53.832 32.017 53.832ZM26.3504 65.7519C22.7568 65.7519 17.3889 68.3181 17.3889 70.7924C17.3889 75.766 44.4816 79.6028 64.5409 72.3305L57.598 68.4017C44.0019 72.4224 18.9368 71.1351 26.3504 65.7519ZM29.6906 76.8778C24.7573 76.8778 21.5619 79.6864 21.5619 81.7594C21.5619 88.1457 51.0082 88.7893 62.6762 82.2944L55.2626 77.9394C46.5455 81.3415 24.6577 81.8012 29.6906 76.8778ZM13.2612 82.6622C5.22302 82.5117 7.46688e-07 85.847 7.46688e-07 88.6138C-0.00905302 103.326 82.3191 102.615 82.3191 87.5773C82.3191 85.0863 79.1328 83.8993 77.9832 83.3309C84.7088 97.7084 10.6633 96.5966 10.6633 88.1123C10.6633 86.1813 16.0945 84.2838 21.1455 85.195L16.8639 82.9464C15.6057 82.7709 14.4018 82.6789 13.2612 82.6622ZM91 92.5592C78.481 103.51 46.7628 107.505 14.8634 100.743C46.7537 112.788 90.8371 106.009 91 92.5592Z" fill="#6E6E6E"/>
</svg>
