<svg width="104" height="104" viewBox="0 0 104 104" fill="none" xmlns="http://www.w3.org/2000/svg">
<path d="M51.6263 6.82501C28.5513 6.82501 30.0105 16.8025 30.0105 16.8025V27.17H51.9545V30.42H21.2712C21.2712 30.42 6.5 28.6 6.5 52.0163C6.5 75.4325 19.5422 74.4803 19.5422 74.4803H27.0725V63.557C27.0725 63.557 26.65 50.5148 39.7475 50.5148H61.724C61.724 50.5148 73.983 50.7098 73.983 38.6458V18.85C73.983 18.85 75.842 6.78601 51.7465 6.78601L51.6263 6.82501ZM39.4972 13.7703C40.2774 13.7506 41.0458 13.9627 41.7054 14.3797C42.365 14.7968 42.8861 15.4001 43.2028 16.1133C43.5195 16.8266 43.6175 17.6177 43.4846 18.3867C43.3516 19.1556 42.9936 19.8679 42.4559 20.4334C41.9181 20.9989 41.2247 21.3922 40.4634 21.5637C39.7021 21.7351 38.907 21.6769 38.1788 21.3964C37.4505 21.1159 36.8218 20.6258 36.3721 19.988C35.9225 19.3502 35.672 18.5934 35.6525 17.8133V17.7483C35.6525 17.2301 35.7546 16.7171 35.9528 16.2384C36.1511 15.7597 36.4417 15.3247 36.8081 14.9584C37.1745 14.592 37.6094 14.3014 38.0881 14.1031C38.5668 13.9048 39.0799 13.8028 39.598 13.8028L39.4972 13.7703Z" fill="#6E6E6E"/>
<path d="M52.2767 97.2075C75.3517 97.2075 73.8924 87.1975 73.8924 87.1975V76.8625H51.9517V73.6125H82.7292C82.7292 73.6125 97.5004 75.2635 97.5004 51.9837C97.5004 28.704 84.4582 29.5197 84.4582 29.5197H76.8304V40.3C76.8304 40.3 77.2529 53.3422 64.1554 53.3422H42.1692C42.1692 53.3422 29.9004 53.157 29.9004 65.221V85.15C29.9004 85.15 28.0414 97.214 52.1369 97.214H52.2669L52.2767 97.2075ZM64.4057 90.2297C63.6255 90.2494 62.8571 90.0373 62.1975 89.6202C61.5379 89.2032 61.0168 88.5999 60.7001 87.8866C60.3834 87.1734 60.2854 86.3823 60.4183 85.6133C60.5513 84.8444 60.9093 84.1321 61.447 83.5666C61.9848 83.0011 62.6782 82.6077 63.4395 82.4363C64.2008 82.2649 64.9959 82.3231 65.7241 82.6036C66.4524 82.8841 67.0811 83.3742 67.5308 84.012C67.9804 84.6498 68.2309 85.4066 68.2504 86.1867V86.2842C68.2504 87.3306 67.8347 88.3342 67.0948 89.0741C66.3549 89.814 65.3513 90.2297 64.3049 90.2297H64.4024H64.4057Z" fill="#6E6E6E"/>
</svg>
