<svg width="64" height="75" viewBox="0 0 64 75" fill="none" xmlns="http://www.w3.org/2000/svg">
<path d="M39.8771 0.499432L0.549186 36.2949C-0.183062 36.9614 -0.183062 38.0403 0.549186 38.7051L11.0104 48.2267C11.7427 48.8932 12.9281 48.8932 13.6585 48.2267L63.4476 2.90966C64.6274 1.8358 63.7922 0 62.1236 0H41.2011C40.7048 0 40.2292 0.178977 39.8771 0.499432ZM63.4476 37.0006L31.062 66.4773L19.2768 55.7506C18.5445 55.0841 18.5445 54.0051 19.2768 53.3403L39.8771 34.5903C40.2292 34.2699 40.7048 34.0909 41.2011 34.0909H62.1236C63.7922 34.0909 64.6274 35.9267 63.4476 37.0006ZM63.4476 72.0903L49.7896 59.6591L31.062 66.4773L39.8771 74.5006C40.2292 74.821 40.7048 75 41.2011 75H62.1236C63.7922 75 64.6274 73.1642 63.4476 72.0903Z" fill="#6E6E6E"/>
</svg>
