<svg width="781" height="578" viewBox="0 0 781 578" fill="none" xmlns="http://www.w3.org/2000/svg">
<g opacity="0.2">
<path d="M366.272 564.831C453.094 564.831 523.475 567.779 523.475 571.415C523.475 575.051 453.094 577.999 366.272 577.999C279.452 577.999 209.069 575.051 209.069 571.415C209.069 567.779 279.452 564.831 366.272 564.831Z" fill="#650000"/>
</g>
<path d="M230.515 569.725L226.722 569.675L297.2 421.034H301.129L230.515 569.725Z" fill="#F38383"/>
<path d="M296.472 569.724L226.2 421.528L229.786 421.035L300.265 569.676L296.472 569.724Z" fill="#F38383"/>
<path d="M500.429 569.819L430.11 421.465L433.697 421.03L504.176 569.671L500.429 569.819Z" fill="#F38383"/>
<path d="M217.365 411.954H513.158C515.772 411.954 517.891 414.164 517.891 416.89C517.891 419.616 515.772 421.825 513.158 421.825H217.365C214.751 421.825 212.632 419.616 212.632 416.89C212.632 414.164 214.751 411.954 217.365 411.954Z" fill="#F38383"/>
<path d="M434.436 569.702L430.631 569.676L500.734 421.822H504.553L434.436 569.702Z" fill="#F38383"/>
<path d="M61.5895 334.192C45.4288 334.192 32.3281 320.528 32.3281 303.672C32.3281 286.818 45.4288 273.153 61.5895 273.153C77.7501 273.153 90.8508 286.818 90.8508 303.672C90.8325 320.52 77.7423 334.173 61.5895 334.192ZM61.5895 285.815C52.1334 285.815 44.4687 293.811 44.4687 303.672C44.4687 313.535 52.1334 321.53 61.5895 321.53C71.0456 321.53 78.7103 313.535 78.7103 303.672C78.6998 293.815 71.0403 285.827 61.5895 285.815Z" fill="#F38383"/>
<path d="M313.305 376.317L307.851 391.863L302.398 407.409H259.938L265.391 391.863L270.834 376.317H313.305Z" fill="#A52020"/>
<path d="M247.023 406.295H302.37C304.023 406.295 305.365 407.694 305.365 409.419C305.365 411.145 304.023 412.544 302.37 412.544H247.023C245.368 412.544 244.027 411.145 244.027 409.419C244.027 407.694 245.368 406.295 247.023 406.295Z" fill="#F38383"/>
<path d="M258.952 406.295H314.298C315.953 406.295 317.294 407.694 317.294 409.419C317.294 411.145 315.953 412.544 314.298 412.544H258.952C257.297 412.544 255.956 411.145 255.956 409.419C255.956 407.694 257.297 406.295 258.952 406.295Z" fill="#F38383"/>
<path d="M313.305 376.317L307.852 391.863H265.392L270.834 376.317H313.305Z" fill="#A52020"/>
<path d="M348.484 382.638H226.847C224.757 382.638 222.897 381.256 222.216 379.195L193.615 292.737C192.732 290.07 194.091 287.161 196.649 286.241C197.163 286.055 197.702 285.961 198.246 285.961H319.883C321.973 285.961 323.833 287.344 324.514 289.404L353.116 375.862C353.997 378.53 352.639 381.439 350.081 382.359C349.567 382.543 349.028 382.638 348.484 382.638Z" fill="#F38383"/>
<path d="M354.045 382.637H232.413C230.324 382.638 228.465 381.257 227.781 379.2L224.268 368.588L199.183 292.742C198.297 290.077 199.649 287.168 202.204 286.243C202.722 286.056 203.267 285.961 203.815 285.961H325.446C327.538 285.961 329.398 287.346 330.078 289.408L356.274 368.588L358.677 375.867C359.561 378.529 358.207 381.435 355.653 382.356C355.136 382.543 354.592 382.639 354.045 382.637Z" fill="#FCFCFC"/>
<path d="M354.044 382.638H232.412C230.324 382.639 228.464 381.258 227.78 379.201L224.267 368.589L199.181 292.744C198.294 290.079 199.647 287.168 202.203 286.244C202.72 286.057 203.265 285.962 203.813 285.962H325.445C327.536 285.962 329.396 287.347 330.077 289.409L356.273 368.589L358.676 375.868C359.559 378.531 358.205 381.437 355.652 382.358C355.135 382.545 354.591 382.639 354.044 382.638Z" fill="#FCFCFC"/>
<path d="M354.047 382.635H232.41C230.322 382.636 228.463 381.257 227.778 379.201L224.267 368.595L199.183 292.742C198.296 290.077 199.648 287.168 202.202 286.243C202.721 286.055 203.266 285.96 203.816 285.961H325.443C327.533 285.961 329.393 287.345 330.074 289.406L356.27 368.596L358.679 375.866C359.56 378.531 358.202 381.438 355.647 382.356C355.132 382.541 354.592 382.636 354.047 382.635Z" fill="#650000"/>
<path d="M338.618 375.005C338.438 374.624 338.066 374.383 337.66 374.382H303.679C303.087 374.384 302.608 374.886 302.609 375.504C302.61 375.675 302.648 375.844 302.721 375.997C302.901 376.378 303.272 376.618 303.679 376.619H337.66C338.252 376.617 338.73 376.117 338.729 375.498C338.729 375.327 338.69 375.158 338.618 375.005Z" fill="#FCFCFC"/>
<path d="M226.204 368.589H221.465L226.916 381.444L230.228 382.639H234.187L226.204 368.589Z" fill="#F38383"/>
<path d="M354.046 382.638H232.414C230.326 382.639 228.467 381.258 227.783 379.201L224.27 368.589H356.274L358.678 375.868C359.561 378.53 358.207 381.436 355.654 382.357C355.137 382.544 354.593 382.639 354.046 382.638Z" fill="#F38383"/>
<path d="M280.526 72.3071H596.444C601.314 72.3071 605.262 71.0485 605.262 76.2211V257.738C605.262 262.91 601.314 267.103 596.444 267.103H280.526C275.657 267.103 271.709 262.91 271.709 257.738V76.2211C271.709 71.0485 275.657 72.3071 280.526 72.3071Z" fill="#650000"/>
<path d="M276 66.3439H600.97C603.34 66.3439 605.261 68.3531 605.261 70.8331V78.2739H271.709V70.8331C271.709 68.3531 273.63 66.3439 276 66.3439Z" fill="#F38383"/>
<path d="M286.018 72.308C286.018 73.6284 284.992 74.6989 283.726 74.6989C282.46 74.6989 281.434 73.6284 281.434 72.308C281.434 70.9876 282.46 69.9171 283.726 69.9171C284.992 69.918 286.018 70.9876 286.018 72.308Z" fill="#FCFCFC"/>
<path d="M296.492 72.308C296.492 73.6293 295.465 74.6998 294.198 74.7008C292.932 74.7008 291.904 73.6312 291.904 72.3098C291.903 70.9885 292.931 69.918 294.197 69.9171H294.198C295.464 69.9171 296.492 70.9876 296.492 72.308Z" fill="#FCFCFC"/>
<path d="M307.592 72.308C307.593 73.6293 306.567 74.6998 305.3 74.7007C304.034 74.7007 303.007 73.6311 303.006 72.3098C303.006 70.9885 304.032 69.918 305.298 69.9171H305.299C306.565 69.9171 307.592 70.9876 307.592 72.308Z" fill="#FCFCFC"/>
<path d="M559.257 168.262H306.806C305.04 168.26 303.608 166.688 303.606 164.748V109.511C303.608 107.572 305.04 106 306.806 105.997H559.257C561.024 106 562.455 107.572 562.457 109.511V164.746C562.456 166.686 561.024 168.26 559.257 168.262ZM306.806 106.976C305.532 106.978 304.499 108.112 304.498 109.511V164.746C304.499 166.145 305.532 167.279 306.806 167.281H559.257C560.532 167.279 561.565 166.145 561.566 164.746V109.511C561.565 108.112 560.532 106.978 559.257 106.976H306.806Z" fill="#FCFCFC"/>
<path d="M440.07 462.749H492.923C497.553 462.749 501.305 466.663 501.305 471.491V471.492C501.305 476.32 497.553 480.234 492.923 480.234H440.07C435.442 480.234 431.688 476.32 431.688 471.492V471.491C431.688 466.663 435.442 462.749 440.07 462.749Z" fill="#F38383"/>
<path d="M443.599 480.236L431.688 571.661H434.02L454.092 480.236H443.599Z" fill="#F38383"/>
<path d="M490.685 480.236L502.595 571.661H500.269L480.196 480.236H490.685Z" fill="#F38383"/>
<g opacity="0.2">
<path d="M562.404 572.896C562.404 575.713 605.851 578 659.447 578C713.042 578 756.488 575.714 756.488 572.896C756.488 570.077 713.041 567.791 659.447 567.791C605.852 567.791 562.404 570.077 562.404 572.896Z" fill="#650000"/>
</g>
<path d="M626.426 418.918L628.457 429.62V429.653L635.711 467.865L636.53 472.189L645.868 521.374L646.687 525.699L655.642 572.894H659.88L630.498 418.074L628.457 418.497L626.57 418.886L626.426 418.918Z" fill="#F38383"/>
<path d="M664.495 572.896H668.734L695.91 429.664V429.653L697.951 418.919L695.91 418.498L693.878 418.076L664.495 572.896Z" fill="#F38383"/>
<path d="M693.88 418.919L695.912 429.654V429.664L723.096 572.895H727.334L697.954 418.075L695.913 418.497L693.88 418.919Z" fill="#F38383"/>
<path d="M608.53 521.377H715.849V525.702H608.53V521.377Z" fill="#F38383"/>
<path d="M618.34 467.864H705.138V472.187H618.34V467.864Z" fill="#F38383"/>
<path d="M597.045 572.895H601.274L610.228 525.699H646.69L645.87 521.376H611.047L620.385 472.191H636.533L635.714 467.867H621.205L628.46 429.654V429.622L626.574 418.887L626.428 418.077L597.045 572.895Z" fill="#F38383"/>
<path d="M697.947 418.077H693.88L696.902 422.371L697.947 418.077Z" fill="#F38383"/>
<path d="M228.117 101.447C228.117 101.447 155.871 101.116 152.527 101.116C149.183 101.116 147.663 101.512 144.918 103.806C144.76 103.953 144.61 104.11 144.469 104.275L144.422 104.324C143.558 105.358 143.081 106.683 143.082 108.054V251.864C143.082 255.012 145.53 257.564 148.549 257.564H228.118C231.137 257.564 233.585 255.012 233.585 251.864V108.062C233.585 104.909 231.137 101.447 228.117 101.447Z" fill="#F38383"/>
<path d="M149.076 105.614H219.6C225.116 105.614 229.589 110.278 229.589 116.031V250.404C229.589 256.158 225.116 260.822 219.6 260.822H149.076C143.559 260.822 139.087 256.157 139.087 250.403V116.031C139.087 110.278 143.56 105.614 149.076 105.614Z" fill="#650000"/>
<path d="M200.136 115.553C200.136 116.229 199.609 116.778 198.961 116.778H168.978C168.33 116.779 167.804 116.23 167.803 115.553V115.553C167.803 114.876 168.329 114.328 168.978 114.328H198.961C199.609 114.328 200.136 114.876 200.136 115.553Z" fill="#FCFCFC"/>
<path d="M208.788 115.553C208.788 116.741 207.864 117.704 206.725 117.704C205.587 117.704 204.663 116.741 204.663 115.553C204.663 114.366 205.587 113.402 206.725 113.402C207.864 113.402 208.788 114.366 208.788 115.553Z" fill="#FCFCFC"/>
<path d="M174.687 133.743H218.504V136.68H174.687V133.743Z" fill="#F38383"/>
<path d="M200.009 139.165H218.504V142.102H200.009V139.165Z" fill="#F38383"/>
<path d="M211.003 153.396H218.504V156.332H211.003V153.396Z" fill="#F38383"/>
<path d="M186.117 145.092H218.504V148.029H186.117V145.092Z" fill="#F38383"/>
<path d="M176.637 153.396H206.003V156.332H176.637V153.396Z" fill="#F38383"/>
<g opacity="0.14">
<path d="M184.646 168.356V189.189H153.148V209.473" stroke="#FCFCFC" stroke-width="4" stroke-miterlimit="10"/>
</g>
<g opacity="0.14">
<path d="M201.159 232.005V209.473H181.711" stroke="#FCFCFC" stroke-width="4" stroke-miterlimit="10"/>
</g>
<path d="M765.666 570.733H780.71V506.383H765.666V570.733Z" fill="#F38383"/>
<path d="M153.387 236.082H216.094C218.161 236.082 219.837 237.83 219.837 239.986V243.271C219.837 245.427 218.161 247.175 216.094 247.175H153.387C151.32 247.175 149.644 245.427 149.644 243.271V239.986C149.644 237.83 151.32 236.082 153.387 236.082Z" fill="#F38383"/>
<path d="M166.607 241.646H167.426V243.063C167.047 243.346 166.527 243.498 166.049 243.498C165.005 243.498 164.241 242.761 164.241 241.719C164.241 240.68 165.005 239.942 166.068 239.942C166.682 239.942 167.178 240.162 167.501 240.568L166.911 241.124C166.686 240.864 166.429 240.743 166.115 240.743C165.553 240.743 165.178 241.129 165.178 241.719C165.178 242.296 165.553 242.697 166.105 242.697C166.278 242.697 166.443 242.662 166.607 242.584V241.646Z" fill="#FCFCFC"/>
<path d="M171.582 242.682V243.43H168.949V240.01H171.521V240.758H169.867V241.334H171.324V242.057H169.867V242.682H171.582Z" fill="#FCFCFC"/>
<path d="M173.729 240.777H172.722V240.01H175.658V240.777H174.656V243.43H173.729V240.777Z" fill="#FCFCFC"/>
<path d="M179.003 243.123L179.308 242.41C179.598 242.61 180.01 242.746 180.389 242.746C180.773 242.746 180.923 242.635 180.923 242.468C180.923 241.926 179.059 242.322 179.059 241.052C179.059 240.442 179.537 239.943 180.511 239.943C180.937 239.943 181.378 240.045 181.701 240.241L181.415 240.959C181.101 240.783 180.792 240.695 180.507 240.695C180.117 240.695 179.977 240.832 179.977 241.003C179.977 241.525 181.836 241.135 181.836 242.396C181.836 242.991 181.359 243.499 180.385 243.499C179.846 243.499 179.313 243.347 179.003 243.123Z" fill="#FCFCFC"/>
<path d="M183.85 240.777H182.843V240.01H185.779V240.777H184.777V243.43H183.85V240.777Z" fill="#FCFCFC"/>
<path d="M189.092 242.765H187.705L187.448 243.43H186.502L187.949 240.01H188.862L190.314 243.43H189.35L189.092 242.765ZM188.82 242.053L188.399 240.959L187.977 242.053H188.82Z" fill="#FCFCFC"/>
<path d="M192.94 242.521H192.434V243.43H191.507V240.01H193.007C193.902 240.01 194.463 240.494 194.463 241.276C194.463 241.779 194.229 242.15 193.822 242.355L194.529 243.43H193.536L192.94 242.521ZM192.951 240.772H192.434V241.774H192.951C193.334 241.774 193.525 241.588 193.525 241.276C193.525 240.958 193.334 240.772 192.951 240.772Z" fill="#FCFCFC"/>
<path d="M196.558 240.777H195.551V240.01H198.487V240.777H197.485V243.43H196.558V240.777Z" fill="#FCFCFC"/>
<path d="M202.399 242.682V243.43H199.766V240.01H202.338V240.758H200.684V241.334H202.142V242.057H200.684V242.682H202.399Z" fill="#FCFCFC"/>
<path d="M203.847 240.01H205.397C206.484 240.01 207.229 240.67 207.229 241.72C207.229 242.77 206.484 243.43 205.397 243.43H203.847V240.01ZM205.359 242.658C205.917 242.658 206.291 242.312 206.291 241.72C206.291 241.13 205.917 240.782 205.359 240.782H204.774V242.658H205.359Z" fill="#FCFCFC"/>
<g opacity="0.41">
<path d="M163.072 125.867L124.445 126.168C121.913 126.188 119.875 128.343 119.892 130.984L120.066 155.268C120.085 157.909 122.152 160.036 124.684 160.018L144.912 159.86L150.007 167.676C150.834 168.942 152.488 169.271 153.703 168.409C153.99 168.205 154.236 167.945 154.428 167.641L159.411 159.744L163.311 159.714C165.843 159.695 167.881 157.539 167.864 154.898L167.69 130.613C167.67 127.973 165.603 125.85 163.072 125.867Z" fill="#F38383"/>
</g>
<path d="M158.497 133.024L119.87 133.326C117.338 133.346 115.3 135.5 115.317 138.141L115.491 162.426C115.509 165.067 117.577 167.193 120.109 167.175L140.336 167.019L145.432 174.833C146.257 176.1 147.911 176.43 149.126 175.569C149.414 175.364 149.661 175.103 149.853 174.799L154.836 166.902L158.735 166.871C161.267 166.852 163.305 164.697 163.289 162.055L163.115 137.771C163.094 135.132 161.028 133.007 158.497 133.024Z" fill="#F38383"/>
<path d="M144.975 147.477C144.779 147.633 144.59 147.767 144.421 147.923C143.162 149.048 143.014 151.025 144.093 152.338C144.388 152.698 144.757 152.981 145.173 153.17C145.298 153.23 145.333 153.278 145.288 153.425C144.903 154.618 144.287 155.716 143.479 156.651C143.055 157.231 142.364 157.532 141.67 157.439C141.381 157.396 141.1 157.309 140.835 157.181C140.042 156.766 139.109 156.766 138.316 157.181C137.963 157.372 137.571 157.473 137.172 157.479C136.644 157.449 136.153 157.194 135.812 156.773C134.762 155.625 134.007 154.219 133.617 152.685C133.271 151.518 133.217 150.279 133.461 149.084C133.724 147.559 134.816 146.335 136.256 145.951C136.876 145.776 137.534 145.816 138.13 146.066C138.41 146.177 138.689 146.286 138.966 146.4C139.24 146.514 139.547 146.514 139.82 146.4C140.256 146.228 140.692 146.042 141.142 145.915C142.536 145.543 144.007 146.092 144.859 147.301C144.899 147.354 144.933 147.411 144.975 147.477Z" fill="#FCFCFC"/>
<path d="M142.285 142.179C142.521 143.996 141.312 145.675 139.572 145.943C139.136 145.978 139.107 146.016 139.129 145.509C139.158 144.273 139.833 143.151 140.888 142.587C141.311 142.324 141.793 142.183 142.285 142.179Z" fill="#FCFCFC"/>
<g opacity="0.41">
<path d="M210.695 225.971L210.704 224.835C210.705 224.76 210.763 224.7 210.834 224.701L210.834 224.701L211.491 224.706C211.563 224.707 211.62 224.768 211.62 224.842C211.62 224.842 211.62 224.842 211.62 224.842L211.615 225.438L211.827 225.588C211.861 225.612 211.87 225.661 211.847 225.696C211.841 225.705 211.834 225.712 211.826 225.718L211.612 225.864L211.611 225.979C211.611 226.053 211.552 226.113 211.481 226.113L211.481 226.113L210.824 226.107C210.752 226.107 210.695 226.046 210.695 225.972L210.695 225.971Z" fill="#F38383"/>
</g>
<path d="M210.889 226.149L210.897 225.013C210.898 224.938 210.956 224.878 211.028 224.879L211.028 224.879L211.685 224.884C211.756 224.885 211.814 224.946 211.813 225.02L211.813 225.02L211.809 225.616L212.02 225.766C212.054 225.79 212.063 225.839 212.04 225.874C212.034 225.883 212.027 225.89 212.019 225.896L211.805 226.042L211.805 226.157C211.804 226.232 211.746 226.291 211.674 226.291L211.674 226.291L211.017 226.285C210.946 226.285 210.888 226.224 210.889 226.15C210.889 226.15 210.889 226.149 210.889 226.149Z" fill="#F38383"/>
<path d="M211.413 225.413C211.419 225.414 211.424 225.417 211.428 225.422C211.434 225.429 211.436 225.439 211.432 225.448C211.429 225.457 211.422 225.463 211.413 225.464C211.411 225.464 211.409 225.464 211.407 225.464L211.303 225.464C211.29 225.465 211.278 225.454 211.277 225.44C211.277 225.437 211.278 225.434 211.279 225.431C211.281 225.422 211.289 225.415 211.297 225.413L211.413 225.413Z" fill="#FCFCFC"/>
<path d="M211.474 225.613L211.479 225.613C211.497 225.613 211.516 225.613 211.534 225.613C211.544 225.613 211.553 225.621 211.556 225.631C211.559 225.642 211.555 225.654 211.546 225.659C211.542 225.662 211.536 225.664 211.531 225.664C211.514 225.664 211.496 225.664 211.479 225.664L211.474 225.664L211.474 225.686L211.474 225.697C211.473 225.705 211.467 225.712 211.459 225.713L211.455 225.713L211.288 225.713L211.283 225.713L211.283 225.475L211.288 225.475L211.455 225.475C211.457 225.475 211.46 225.475 211.462 225.476C211.469 225.478 211.474 225.484 211.474 225.492C211.474 225.501 211.474 225.51 211.474 225.518L211.474 225.524L211.479 225.524L211.533 225.524C211.546 225.524 211.557 225.535 211.557 225.549C211.557 225.558 211.553 225.566 211.546 225.571C211.542 225.573 211.537 225.575 211.532 225.575C211.514 225.575 211.497 225.575 211.479 225.575L211.474 225.575L211.474 225.613Z" fill="#FCFCFC"/>
<path d="M211.181 225.653L211.151 225.669L211.148 225.67C211.146 225.672 211.143 225.671 211.143 225.669C211.142 225.667 211.143 225.665 211.145 225.663C211.15 225.66 211.155 225.657 211.161 225.654C211.166 225.652 211.172 225.648 211.178 225.645C211.163 225.613 211.163 225.576 211.177 225.544C211.175 225.542 211.173 225.541 211.171 225.54C211.163 225.535 211.155 225.53 211.146 225.525C211.144 225.523 211.14 225.522 211.142 225.518C211.145 225.514 211.147 225.516 211.15 225.518L211.181 225.536C211.199 225.502 211.232 225.478 211.27 225.474L211.27 225.714C211.233 225.709 211.2 225.687 211.181 225.653ZM211.22 225.638C211.215 225.638 211.211 225.642 211.21 225.648C211.21 225.653 211.214 225.658 211.22 225.658C211.225 225.658 211.229 225.654 211.23 225.649L211.23 225.648C211.23 225.643 211.225 225.638 211.22 225.638L211.22 225.638ZM211.22 225.53C211.215 225.53 211.211 225.534 211.211 225.539L211.211 225.54C211.211 225.545 211.215 225.549 211.22 225.549C211.225 225.55 211.23 225.545 211.23 225.54L211.23 225.54C211.23 225.534 211.225 225.53 211.22 225.53L211.22 225.53Z" fill="#FCFCFC"/>
<path d="M211.356 225.724C211.373 225.724 211.391 225.724 211.408 225.724C211.422 225.724 211.433 225.736 211.433 225.75C211.433 225.764 211.422 225.775 211.408 225.775L211.303 225.775C211.3 225.775 211.298 225.775 211.296 225.774C211.284 225.772 211.276 225.76 211.277 225.748C211.278 225.735 211.287 225.725 211.299 225.724C211.318 225.724 211.337 225.724 211.356 225.724L211.356 225.724Z" fill="#FCFCFC"/>
<path d="M368.174 196.262H315.472C315.153 196.262 314.894 195.534 314.894 194.635V194.634C314.893 193.735 315.152 193.006 315.471 193.005H315.472H368.174C368.494 193.005 368.752 193.734 368.752 194.634C368.752 195.532 368.494 196.262 368.174 196.262Z" fill="#FCFCFC"/>
<path d="M325.603 206.325H315.514C315.453 206.325 315.403 205.598 315.403 204.699V204.696C315.403 203.797 315.453 203.069 315.514 203.069H315.514H325.603C325.664 203.069 325.713 203.797 325.713 204.696C325.713 205.596 325.664 206.325 325.603 206.325Z" fill="#FCFCFC"/>
<path d="M344.332 216.288H315.761C315.588 216.288 315.447 215.56 315.447 214.661V214.66C315.447 213.761 315.587 213.032 315.761 213.031H315.761H344.332C344.505 213.031 344.645 213.759 344.645 214.658V214.66C344.645 215.559 344.505 216.288 344.332 216.288Z" fill="#FCFCFC"/>
<path d="M471.612 237.655H303.833C301.974 237.653 300.467 236.081 300.465 234.142V178.907C300.467 176.968 301.974 175.395 303.833 175.394H471.612C473.471 175.395 474.979 176.967 474.981 178.907V234.141C474.98 236.081 473.472 237.654 471.612 237.655ZM303.833 176.371C302.491 176.372 301.404 177.507 301.403 178.907V234.141C301.405 235.54 302.491 236.674 303.833 236.676H471.612C472.954 236.674 474.041 235.541 474.043 234.141V178.907C474.041 177.507 472.954 176.372 471.612 176.371H303.833Z" fill="#FCFCFC"/>
<path d="M474.98 184.465H300.464V178.753C300.464 176.898 301.906 175.394 303.685 175.394H471.759C473.538 175.394 474.98 176.898 474.98 178.753V184.465Z" fill="#F38383"/>
<path d="M308.24 179.856C308.24 180.855 307.456 181.673 306.497 181.673C305.539 181.673 304.755 180.855 304.755 179.856C304.755 178.847 305.539 178.038 306.497 178.038C307.456 178.038 308.24 178.847 308.24 179.856Z" fill="#F38383"/>
<path d="M316.204 179.855C316.204 180.855 315.428 181.673 314.461 181.673C313.494 181.673 312.719 180.855 312.719 179.855C312.719 178.847 313.494 178.029 314.461 178.029C315.428 178.029 316.204 178.847 316.204 179.855Z" fill="#F38383"/>
<path d="M324.647 179.856C324.647 180.855 323.863 181.673 322.905 181.673C321.937 181.673 321.153 180.855 321.153 179.856C321.153 178.847 321.937 178.029 322.905 178.029C323.863 178.029 324.647 178.847 324.647 179.856Z" fill="#F38383"/>
<path d="M308.24 179.856C308.24 180.855 307.456 181.673 306.497 181.673C305.539 181.673 304.755 180.855 304.755 179.856C304.755 178.847 305.539 178.038 306.497 178.038C307.456 178.038 308.24 178.847 308.24 179.856Z" fill="#FCFCFC"/>
<path d="M316.204 179.855C316.204 180.855 315.428 181.673 314.461 181.673C313.494 181.673 312.719 180.855 312.719 179.855C312.719 178.847 313.494 178.029 314.461 178.029C315.428 178.029 316.204 178.847 316.204 179.855Z" fill="#FCFCFC"/>
<path d="M324.647 179.856C324.647 180.855 323.863 181.673 322.905 181.673C321.937 181.673 321.153 180.855 321.153 179.856C321.153 178.847 321.937 178.029 322.905 178.029C323.863 178.029 324.647 178.847 324.647 179.856Z" fill="#FCFCFC"/>
<g opacity="0.41">
<path d="M264.088 28.4008L310.546 28.7643C313.593 28.788 316.045 31.3833 316.023 34.5621L315.814 63.7692C315.791 66.9471 313.302 69.5043 310.256 69.4807H310.255L285.926 69.2917L279.797 78.6954C278.803 80.2185 276.814 80.6129 275.353 79.5769C275.008 79.3315 274.712 79.018 274.482 78.6545L268.489 69.1563L263.798 69.1199C260.751 69.0954 258.3 66.5 258.322 63.3221L258.532 34.115C258.553 30.9371 261.04 28.379 264.088 28.4008Z" fill="#E04048"/>
</g>
<path d="M258.527 32.7928L304.985 33.1563C308.032 33.1799 310.485 35.7753 310.462 38.9541L310.253 68.1612C310.23 71.3391 307.742 73.8954 304.695 73.8727L280.366 73.6837L274.237 83.0874C273.243 84.6104 271.253 85.0048 269.794 83.9679C269.448 83.7226 269.152 83.4091 268.923 83.0456L262.929 73.5483L258.239 73.5119C255.192 73.4883 252.74 70.8929 252.763 67.715V67.7141L252.971 38.507C252.993 35.3291 255.48 32.771 258.527 32.7928Z" fill="#E04048"/>
<g opacity="0.41">
<path d="M438.634 217.201H398.437C395.8 217.201 393.663 219.43 393.663 222.18V247.45C393.663 250.2 395.8 252.429 398.437 252.429H402.21L408.228 261.812C409.101 263.173 410.866 263.538 412.17 262.627C412.479 262.412 412.745 262.135 412.952 261.812L418.97 252.429H438.635C441.271 252.429 443.408 250.2 443.408 247.45V222.18C443.408 219.43 441.271 217.201 438.635 217.201H438.634Z" fill="#E04048"/>
</g>
<path d="M435.18 223.305H394.984C392.347 223.305 390.21 225.534 390.21 228.284V253.555C390.21 256.305 392.347 258.534 394.984 258.534H398.756L404.774 267.918C405.647 269.278 407.411 269.644 408.715 268.734C409.025 268.518 409.29 268.241 409.498 267.918L415.516 258.534H435.18C437.816 258.535 439.954 256.306 439.954 253.557V253.555V228.283C439.954 225.533 437.816 223.305 435.18 223.305Z" fill="#E04048"/>
<g opacity="0.41">
<path d="M485.341 0.000116573L443.1 0.329084C440.329 0.350894 438.1 2.71 438.12 5.59981L438.31 32.1561C438.331 35.045 440.594 37.3705 443.364 37.3496L465.484 37.1778L471.06 45.7282C471.964 47.1132 473.772 47.473 475.101 46.5316C475.416 46.308 475.686 46.0218 475.895 45.6901L481.345 37.057L485.61 37.0243C488.38 37.0025 490.609 34.6433 490.588 31.7535L490.398 5.19724C490.38 2.30743 488.118 -0.018967 485.348 0.000116573H485.341Z" fill="#F38383"/>
</g>
<path d="M480.339 7.82715L438.098 8.15612C435.327 8.17793 433.098 10.537 433.118 13.4268L433.309 39.9831C433.329 42.872 435.592 45.1975 438.362 45.1766H438.363L460.483 45.004L466.059 53.5535C466.962 54.9393 468.771 55.2992 470.099 54.3577C470.415 54.1341 470.685 53.8488 470.894 53.5162L476.343 44.8831L480.608 44.8504C483.379 44.8286 485.607 42.4695 485.587 39.5797L485.397 13.0234C485.378 10.1336 483.116 7.80716 480.346 7.82715H480.339Z" fill="#F38383"/>
<path d="M567.733 95.7059L603.621 71.875L639.745 95.7059L603.072 8.53171L567.733 95.7059Z" fill="#F38383"/>
<path d="M321.752 118.583H347.024C349.884 118.583 352.203 121.002 352.203 123.985V150.344C352.203 153.328 349.884 155.747 347.024 155.747H321.752C318.891 155.747 316.572 153.328 316.572 150.344V123.985C316.572 121.002 318.891 118.583 321.752 118.583Z" fill="#F38383"/>
<path d="M334.388 127.324C339.598 127.324 343.822 131.729 343.822 137.164C343.822 142.599 339.598 147.004 334.388 147.004C329.177 147.004 324.953 142.599 324.953 137.164C324.953 131.729 329.177 127.324 334.388 127.324Z" fill="#FCFCFC"/>
<path d="M377.037 107.307H424.565C429.369 107.307 433.262 111.368 433.262 116.378V158.713C433.262 163.723 429.369 167.784 424.565 167.784H377.037C372.234 167.784 368.34 163.723 368.34 158.713V116.378C368.34 111.368 372.234 107.307 377.037 107.307Z" fill="#FCFCFC"/>
<path d="M384.488 137.544C384.488 128.147 391.792 120.528 400.803 120.528C409.812 120.528 417.117 128.147 417.117 137.544C417.117 146.942 409.812 154.56 400.803 154.56C391.792 154.56 384.488 146.942 384.488 137.544Z" fill="#F38383"/>
<path d="M399.206 132.495L406.056 137.272C406.198 137.346 406.256 137.527 406.185 137.675C406.157 137.733 406.112 137.781 406.056 137.81L399.219 142.596C398.877 142.836 398.292 142.666 398.291 142.328L398.278 132.764C398.279 132.426 398.864 132.256 399.206 132.495Z" fill="#FCFCFC"/>
<path d="M461.409 96.1054H562.127C568.248 96.1054 573.209 101.28 573.209 107.664V208.024C573.209 214.408 568.248 219.582 562.127 219.582H461.409C455.289 219.582 450.327 214.408 450.327 208.024V107.664C450.327 101.28 455.289 96.1054 461.409 96.1054Z" fill="#F38383"/>
<path d="M470.153 112.138C478.648 103.277 492.421 103.277 500.916 112.138C509.411 120.998 509.411 135.363 500.916 144.224C492.421 153.084 478.648 153.084 470.153 144.224C461.657 135.363 461.657 120.998 470.153 112.138Z" fill="#FCFCFC"/>
<path d="M489.64 139.743C489.587 137.54 488.976 135.39 487.87 133.512L485.506 138.816L483.141 133.512C482.034 135.39 481.424 137.54 481.371 139.743C481.342 143.028 484.964 143.338 485.474 143.365H485.536C486.047 143.338 489.669 143.028 489.64 139.743Z" fill="#FCFCFC"/>
<path d="M500.318 133.717C498.284 132.349 496.84 128.719 497.102 124.341C497.364 119.963 496.318 113.938 491.918 111.953C489.166 110.711 487.832 111.37 486.629 112.043C485.94 112.428 485.112 112.428 484.421 112.043C483.219 111.375 481.885 110.714 479.133 111.953C474.736 113.938 473.686 119.961 473.949 124.341C474.211 128.721 472.767 132.349 470.733 133.717C468.698 135.086 469.617 136.456 470.733 137.551C471.848 138.646 475.298 137.344 478.036 139.329C480.773 141.314 482.017 139.602 482.445 137.447C482.874 135.292 485.52 118.199 485.52 118.199L485.525 115.525L485.531 118.199C485.531 118.199 488.178 135.291 488.606 137.447C489.035 139.604 490.277 141.314 493.015 139.329C495.753 137.344 499.201 138.646 500.318 137.551C501.435 136.456 502.353 135.086 500.318 133.717Z" fill="#A52020"/>
<path d="M485.533 138.884C483.958 138.773 482.522 137.903 481.649 136.532C479.666 133.897 478.348 133.454 478.348 130.807V117.565H492.719V130.809C492.719 133.474 491.381 133.967 489.372 136.592C488.5 137.932 487.083 138.778 485.533 138.884Z" fill="#FCFCFC"/>
<path d="M478.349 123.382H477.991C477.16 123.382 476.485 124.087 476.485 124.954C476.485 125.19 476.537 125.422 476.635 125.635L478.349 129.338C478.349 129.338 479.596 126.259 479.596 125.984C479.233 125.09 478.817 124.221 478.349 123.382Z" fill="#FCFCFC"/>
<path d="M492.692 123.382H493.05C493.881 123.382 494.556 124.087 494.555 124.954C494.555 125.19 494.504 125.422 494.406 125.635L492.692 129.338C492.692 129.338 491.445 126.259 491.445 125.984C491.808 125.09 492.224 124.221 492.692 123.382Z" fill="#FCFCFC"/>
<path d="M478.348 123.383C479.873 121.708 481.229 119.876 482.397 117.913C485.187 120.825 488.792 122.74 492.692 123.383C492.692 123.383 494.245 119.527 494.245 118.755C494.245 117.983 492.965 115.454 491.821 115.244C490.677 115.033 479.469 114.05 478.039 115.244C476.607 116.438 478.348 123.383 478.348 123.383Z" fill="#A52020"/>
<path d="M555.925 120.92H523.883C521.649 120.92 519.838 119.031 519.837 116.701V116.699C519.837 114.369 521.648 112.48 523.882 112.48H523.883H555.925C558.159 112.479 559.971 114.369 559.971 116.699V116.699C559.971 119.029 558.16 120.92 555.925 120.92Z" fill="#FCFCFC"/>
<path d="M558.411 130.918H521.398C520.536 130.918 519.837 130.189 519.837 129.289C519.837 128.39 520.536 127.661 521.398 127.661H558.411C559.273 127.661 559.972 128.39 559.972 129.289C559.972 130.189 559.273 130.918 558.411 130.918Z" fill="#FCFCFC"/>
<path d="M558.411 140.838H521.398C520.537 140.838 519.837 140.11 519.837 139.211V139.21C519.837 138.31 520.536 137.581 521.398 137.581H558.411C559.273 137.581 559.972 138.31 559.972 139.21C559.972 140.109 559.273 140.838 558.411 140.838H558.411Z" fill="#FCFCFC"/>
<path d="M558.411 150.869H521.398C520.536 150.869 519.837 150.139 519.837 149.241C519.837 148.341 520.536 147.612 521.398 147.612H558.411C559.273 147.612 559.972 148.341 559.972 149.241C559.972 150.139 559.273 150.869 558.411 150.869Z" fill="#FCFCFC"/>
<path d="M558.408 161.412H465.34C464.478 161.412 463.779 160.685 463.778 159.785C463.778 158.886 464.477 158.156 465.34 158.156H558.409C559.272 158.156 559.97 158.886 559.97 159.785C559.969 160.685 559.271 161.413 558.408 161.412Z" fill="#FCFCFC"/>
<path d="M558.408 171.475H465.34C464.477 171.475 463.778 170.746 463.778 169.847C463.778 168.948 464.477 168.218 465.34 168.218H558.409C559.272 168.218 559.97 168.948 559.97 169.847C559.97 170.746 559.272 171.475 558.409 171.475H558.408Z" fill="#FCFCFC"/>
<path d="M558.408 181.444H465.34C464.477 181.444 463.778 180.714 463.778 179.816C463.778 178.916 464.477 178.187 465.34 178.187H558.409C559.272 178.187 559.97 178.916 559.97 179.816C559.97 180.714 559.272 181.444 558.409 181.444H558.408Z" fill="#FCFCFC"/>
<path d="M558.408 191.671H465.34C464.477 191.671 463.778 190.941 463.778 190.043C463.778 189.143 464.477 188.414 465.34 188.414H558.409C559.272 188.414 559.97 189.143 559.97 190.043C559.97 190.941 559.272 191.671 558.409 191.671H558.408Z" fill="#FCFCFC"/>
<path d="M558.408 201.569H465.34C464.478 201.569 463.779 200.84 463.778 199.942C463.778 199.043 464.477 198.313 465.34 198.313H558.409C559.272 198.313 559.97 199.043 559.97 199.942C559.969 200.841 559.271 201.57 558.408 201.569Z" fill="#FCFCFC"/>
<path d="M87.749 516.616C87.749 516.616 70.0451 458.934 46.1541 436.062C22.2628 413.191 -8.80184 449.196 21.2751 472.388C39.9366 486.97 56.7309 503.985 71.2458 523.018C71.2458 523.018 90.402 545.664 87.749 516.616Z" fill="#650000"/>
<path d="M85.471 530.519L86.1196 530.369C80.1473 502.37 62.2723 477.008 48.3278 460.667C39.4119 450.161 29.674 440.447 19.2145 431.625L18.8078 432.173C29.2377 440.973 38.948 450.661 47.8385 461.139C61.7277 477.417 79.5302 502.669 85.471 530.519Z" fill="#FCFCFC"/>
<path d="M44.2153 456.879L44.3327 456.198C44.1524 456.164 26.0929 452.889 11.2287 460.507L11.5212 461.129C26.1935 453.611 44.0367 456.846 44.2153 456.879Z" fill="#FCFCFC"/>
<path d="M62.0099 479.354L62.1624 478.68C62.0106 478.644 46.8215 475.023 33.7258 482.523L34.0457 483.129C46.9191 475.755 61.8599 479.317 62.0099 479.354Z" fill="#FCFCFC"/>
<path d="M54.8227 469.637L55.4776 469.521C54.1953 461.558 58.3392 451.023 58.3813 450.918L57.7679 450.651C57.5929 451.09 53.5075 461.472 54.8227 469.637Z" fill="#FCFCFC"/>
<path d="M73.977 499.303L74.5666 498.985C72.618 495.064 76.7805 486.608 76.8227 486.523L76.2325 486.204C76.055 486.564 71.8709 495.066 73.977 499.303Z" fill="#FCFCFC"/>
<path d="M93.0656 518.275C93.0656 518.275 104.527 474.52 121.696 456.604C138.866 438.689 163.221 464.583 141.435 482.948C127.922 494.484 115.883 507.781 105.612 522.511C105.612 522.511 91.9783 540.098 93.0656 518.275Z" fill="#650000"/>
<path d="M95.1997 528.601L94.7096 528.51C98.3122 507.36 110.906 487.783 120.83 475.087C127.175 466.926 134.161 459.33 141.714 452.376L142.034 452.774C134.502 459.708 127.538 467.284 121.21 475.423C111.321 488.071 98.783 507.563 95.1997 528.601Z" fill="#FCFCFC"/>
<path d="M123.79 472.115L123.68 471.61C123.814 471.579 137.227 468.521 148.583 473.717L148.383 474.194C137.174 469.063 123.923 472.084 123.79 472.115Z" fill="#FCFCFC"/>
<path d="M111.167 489.529L111.033 489.03C111.145 488.996 122.398 485.778 132.428 490.949L132.208 491.414C122.347 486.33 111.279 489.499 111.167 489.529Z" fill="#FCFCFC"/>
<path d="M116.247 482.017L115.753 481.953C116.466 475.951 113.04 468.209 113.004 468.132L113.455 467.911C113.599 468.233 116.977 475.862 116.247 482.017Z" fill="#FCFCFC"/>
<path d="M102.833 504.858L102.382 504.641C103.719 501.641 100.342 495.454 100.307 495.392L100.738 495.129C100.885 495.397 104.277 501.618 102.833 504.858Z" fill="#FCFCFC"/>
<path d="M67.8537 402.527C51.6673 405.912 44.3948 428.948 56.9146 451.28C67.5214 470.205 83.0772 504.069 86.3416 518.23C89.606 532.392 95.4909 532.538 95.7981 473.25C96.1054 413.963 79.0777 400.181 67.8537 402.527Z" fill="#650000"/>
<path d="M90.5182 526.075L89.737 526.005C92.1839 497.065 86.0059 465.078 80.3913 443.339C76.8674 429.534 72.5601 415.959 67.4922 402.687L68.2179 402.373C73.2997 415.677 77.6191 429.286 81.1524 443.125C86.7801 464.927 92.976 497.015 90.5182 526.075Z" fill="#FCFCFC"/>
<path d="M78.1137 434.764C71.6796 426.921 51.5589 420.897 51.3557 420.837L51.5703 420.051C52.406 420.299 72.1203 426.205 78.7087 434.233L78.1137 434.764Z" fill="#FCFCFC"/>
<path d="M86.2696 469.689C77.2236 462.022 61.8522 460.657 61.6976 460.644L61.7607 459.828C61.917 459.842 77.5267 461.223 86.7638 469.054L86.2696 469.689Z" fill="#FCFCFC"/>
<path d="M84.4721 457.126L83.6867 457.105C83.9274 446.809 92.4167 436.659 92.7783 436.232L93.3659 436.772C93.2813 436.875 84.7088 447.13 84.4721 457.126Z" fill="#FCFCFC"/>
<path d="M90.2971 494.623L89.515 494.553C89.8748 489.976 95.1845 477.935 95.4104 477.425L96.1214 477.763C96.0669 477.894 90.6459 490.191 90.2971 494.623Z" fill="#FCFCFC"/>
<path d="M87.0623 570.01C72.8803 570.01 61.3828 558.019 61.3828 543.226V522.053C61.3828 520.372 62.6889 519.009 64.3008 519.009H64.3016H109.824C111.436 519.009 112.742 520.372 112.742 522.053V543.226C112.742 558.019 101.245 570.01 87.0623 570.01Z" fill="#F38383"/>
<path d="M377.727 409.526V412.434H352.593V409.526H377.727Z" fill="#650000"/>
<path d="M519.506 286.802H558.697C565.145 286.802 570.371 292.254 570.371 298.978V339.854C570.371 346.578 565.145 352.03 558.697 352.03H519.506C513.059 352.03 507.832 346.578 507.832 339.854V298.978C507.832 292.254 513.059 286.802 519.506 286.802Z" fill="#F38383"/>
<path d="M557.671 319.166C557.536 308.469 549.115 299.91 538.859 300.049C528.603 300.189 520.397 308.973 520.531 319.67C520.665 330.367 529.087 338.926 539.343 338.786L539.343 338.786C549.596 338.651 557.801 329.872 557.671 319.179L557.671 319.166ZM529.137 326.694C525.289 320.95 526.633 313.04 532.141 309.027C537.648 305.013 545.232 306.415 549.081 312.159C552.928 317.903 551.584 325.813 546.077 329.826C544.076 331.285 541.701 332.081 539.26 332.113C535.231 332.177 531.436 330.146 529.137 326.694Z" fill="#FCFCFC"/>
<path d="M539.341 338.786C533.694 338.869 528.319 336.262 524.741 331.705L529.134 326.693C532.982 332.437 540.567 333.842 546.073 329.828C549.38 327.419 551.326 323.458 551.271 319.252L557.667 319.164C557.805 329.858 549.606 338.642 539.355 338.786L539.341 338.786Z" fill="#F38383"/>
<path d="M261.958 358.763H244.208C243.804 358.763 243.445 358.497 243.312 358.1L235.066 333.289C234.846 332.611 235.195 331.875 235.846 331.646C235.973 331.601 236.106 331.58 236.239 331.579H253.367C253.898 331.578 254.372 331.924 254.551 332.445L262.854 357.451C263.025 357.967 262.763 358.529 262.267 358.709C262.168 358.744 262.063 358.763 261.958 358.763Z" fill="#F38383"/>
<path d="M290.4 358.664H272.655C272.254 358.664 271.896 358.401 271.762 358.006L263.36 333.288C263.139 332.614 263.483 331.877 264.131 331.647C264.26 331.6 264.396 331.576 264.534 331.576H281.661C282.189 331.573 282.662 331.922 282.834 332.444L291.292 357.345C291.468 357.858 291.211 358.423 290.717 358.608C290.615 358.645 290.508 358.664 290.4 358.664Z" fill="#E04048"/>
<path d="M326.09 332.197C325.909 331.817 325.537 331.576 325.13 331.575H291.15C290.559 331.577 290.079 332.08 290.081 332.697C290.081 332.868 290.119 333.037 290.193 333.191C290.373 333.571 290.744 333.81 291.15 333.811H325.13C325.723 333.809 326.203 333.307 326.201 332.688C326.2 332.518 326.162 332.35 326.09 332.197Z" fill="#FCFCFC"/>
<path d="M328.212 339.104C328.031 338.723 327.658 338.483 327.251 338.481H293.271C292.68 338.483 292.2 338.985 292.202 339.603C292.203 339.774 292.24 339.943 292.314 340.097C292.494 340.476 292.865 340.717 293.271 340.718H327.251C327.844 340.717 328.324 340.216 328.322 339.597C328.322 339.426 328.284 339.258 328.212 339.104Z" fill="#FCFCFC"/>
<path d="M330.721 346.642C330.541 346.262 330.169 346.021 329.762 346.019H295.782C295.189 346.021 294.711 346.524 294.712 347.142C294.713 347.313 294.751 347.482 294.823 347.636C295.004 348.016 295.375 348.257 295.782 348.258H329.762C330.355 348.256 330.835 347.754 330.833 347.136C330.832 346.964 330.794 346.796 330.721 346.642Z" fill="#FCFCFC"/>
<path d="M332.843 353.546C332.662 353.166 332.29 352.926 331.883 352.925H297.903C297.311 352.926 296.832 353.428 296.834 354.046C296.834 354.217 296.872 354.386 296.946 354.539C297.125 354.92 297.497 355.16 297.903 355.161H331.883C332.476 355.159 332.956 354.657 332.954 354.039C332.954 353.868 332.916 353.699 332.843 353.546Z" fill="#FCFCFC"/>
<path d="M231.226 316.379L222.776 291.627C222.545 290.952 222.882 290.211 223.528 289.97C223.662 289.921 223.803 289.895 223.947 289.895H309.359C309.884 289.895 310.353 290.24 310.53 290.757L318.982 315.509C319.211 316.183 318.875 316.925 318.228 317.165C318.093 317.215 317.952 317.24 317.81 317.24H232.393C231.869 317.238 231.402 316.894 231.226 316.379Z" fill="#F38383"/>
<path d="M275.97 302.095L274.134 307.495C274.057 307.721 273.736 307.721 273.502 307.495L264.689 299.006C264.454 298.78 264.134 298.78 264.057 299.006L259.204 313.279C259.117 313.551 259.427 313.922 259.745 313.922H288.117C288.435 313.922 288.488 313.548 288.205 313.279L276.598 302.095C276.368 301.874 276.045 301.874 275.97 302.095Z" fill="#FCFCFC"/>
<path d="M272 294.761C272.267 295.267 272.089 295.902 271.603 296.18C271.438 296.274 271.249 296.318 271.059 296.305C270.156 296.24 269.369 295.64 269.039 294.761C268.773 294.253 268.953 293.617 269.439 293.341C269.604 293.246 269.793 293.202 269.982 293.215C270.884 293.28 271.67 293.882 272 294.761Z" fill="#FCFCFC"/>
<path d="M444.922 345.234C444.922 345.234 438.746 346.383 422.432 352.597C406.118 358.811 398.002 358.378 395.998 358.126C393.994 357.874 357.024 345.038 357.024 345.038L353.463 353.541C353.463 353.541 391.114 374.181 396.044 374.004C400.974 373.828 430.418 373.837 434.786 369.446C439.155 365.055 444.922 345.234 444.922 345.234Z" fill="#F38383"/>
<path d="M357.284 345.114C357.284 345.114 348.791 340.599 343.727 338.834C338.663 337.07 338.242 339.113 338.771 339.637C339.301 340.162 346.04 341.689 345.03 344.444C344.02 347.2 342.793 351.101 353.541 353.343L357.284 345.114Z" fill="#E04048"/>
<path d="M407.658 290.955C406.234 293.908 406.118 300.894 413.727 304.115C421.336 307.336 445.711 329.214 445.711 329.214C445.711 329.214 446.827 329.169 446.848 322.837C446.869 316.505 453.704 313.469 451.589 299.695C449.474 285.922 440.605 285.328 436.681 286.297C432.758 287.266 412.604 280.691 407.658 290.955Z" fill="#650000"/>
<path d="M413.73 304.119C413.73 304.119 412.324 323.481 418.187 330.332C424.051 337.182 429.503 334.036 430.483 334.78C431.464 335.524 434.209 339.487 434.209 339.487L447.623 331.725C447.623 331.725 439.118 320.826 439.562 319.348C440.005 317.871 442.624 314.639 440.748 310.398C438.871 306.156 435.835 309.43 435.525 311.131C435.214 312.833 432.676 313.91 431.169 307.125C429.662 300.34 431.035 300.329 429.662 300.34C428.29 300.35 423.353 304.16 413.73 304.119Z" fill="#E04048"/>
<path d="M430.48 334.777C430.48 334.777 434.974 331.127 435.56 326.055C436.147 320.983 440.078 328.064 432.449 337.063L430.48 334.777Z" fill="#A52020"/>
<path d="M419.772 532.671L424.21 540.668V544.621L415.514 546.476L408.457 536.407L419.772 532.671Z" fill="#E04048"/>
<path d="M415.514 546.471L424.21 540.663C424.21 540.663 432.086 546.708 431.513 549.246C430.941 551.785 425.501 555.369 423.781 558.506C422.06 561.643 418.339 566.865 412.325 567.32C406.311 567.774 403.445 568.036 405.307 564.899C407.169 561.762 413.328 559.853 414.187 554.259C414.843 549.983 415.514 546.471 415.514 546.471Z" fill="#650000"/>
<path d="M443.553 430.061C443.553 430.061 376.95 450.995 372.389 454.324C367.827 457.653 355.05 470.065 372.389 493.954C389.727 517.843 408.427 547.103 410.024 547.103C411.621 547.103 425.078 537.587 425.762 536.874C426.446 536.16 399.304 485.251 398.62 482.872C397.936 480.494 433.061 447.902 433.061 447.902L458.687 428.718L443.553 430.061Z" fill="#A52020"/>
<path d="M398.62 544.751L398.334 557.097L391.938 560.484L385.731 557.097L386.781 539.772L398.62 544.751Z" fill="#E04048"/>
<path d="M385.735 556.638C382.087 558.161 378.356 559.452 374.561 560.508C368.975 561.995 361.669 564.674 362.383 566.916C363.097 569.16 375.84 569.172 379.994 568.58C383.944 567.937 387.972 568.057 391.879 568.933C397.987 570.291 399.859 569.002 399.759 564.919C399.622 562.111 399.144 559.334 398.336 556.653L385.735 556.638Z" fill="#650000"/>
<path d="M490.195 433.154C490.195 433.154 491.905 460.63 455.297 468.123C418.689 475.618 409.452 476.688 407.057 485.252C404.663 493.816 400.899 549.955 399.53 550.197C398.161 550.438 381.968 549.482 381.284 549.245C380.6 549.008 381.512 477.636 383.336 465.983C385.161 454.33 457.237 428.516 457.237 428.516L490.195 433.154Z" fill="#A52020"/>
<path d="M453.131 338.711C453.131 338.711 441.498 340.852 437.165 348.703C432.831 356.554 431.234 378.916 434.428 394.617C437.622 410.317 437.287 432.045 438.077 431.793C438.867 431.543 445.604 431.249 462.026 435.058C478.448 438.867 490.993 433.155 492.59 431.727C494.187 430.299 490.537 417.803 484.835 391.936C479.134 366.068 470.466 343.706 453.131 338.711Z" fill="#F38383"/>
<path d="M432.744 339.901C431.826 340.925 437.164 348.703 437.164 348.703L453.13 338.711C453.13 338.711 451.306 332.05 449.481 331.336C447.657 330.623 435.624 336.69 432.744 339.901Z" fill="#F38383"/>
<path d="M436.981 416.326C436.981 416.326 455.829 391.297 462.349 360.485L436.019 405.09L436.981 416.326Z" fill="#E04048"/>
<path d="M382.635 403.343C382.635 403.343 374.249 401.137 371.538 401.834C368.827 402.531 362.175 407.236 363.857 408.076C365.539 408.916 372.116 406.821 374.205 407.824C376.294 408.826 381.566 411.207 381.566 411.207L382.635 403.343Z" fill="#E04048"/>
<path d="M448.888 347.021C444.216 351.106 425.284 394.09 424.6 394.802C423.916 395.514 382.691 401.624 382.233 402.575C381.776 403.526 382.219 411.258 382.219 411.258C382.219 411.258 432.082 414.802 437.793 403.628C443.504 392.454 460.603 367.985 462.832 358.831C465.062 349.677 454.713 341.926 448.888 347.021Z" fill="#F38383"/>
<path d="M651.72 165.35L650.279 161.512C650.279 161.512 643.557 158.681 650.222 150.395C656.566 142.505 677.093 146.282 683.144 157.567C689.192 168.852 691.297 176.767 707.284 181.091C723.273 185.414 728.936 199.148 723.247 217.134C717.557 235.12 732.911 240.628 724.001 250.353C715.091 260.077 703.653 259.366 697.364 249.714C691.076 240.062 681.157 219.791 672.695 209.917C664.234 200.044 651.72 165.35 651.72 165.35Z" fill="#A52020"/>
<path d="M650.524 448.873L650.009 456.91H640.121L639.122 448.873H650.524Z" fill="#F38383"/>
<path d="M650.012 456.909C650.012 456.909 651.168 467.625 650.012 468.43C648.856 469.233 624.07 468.43 624.07 468.43C624.07 468.43 621.501 467.492 623.17 465.348C624.84 463.206 638.71 459.188 640.123 456.909H650.012Z" fill="#650000"/>
<path d="M702.99 444.743L705.478 453.257L695.782 455.277L693.29 447.601L702.99 444.743Z" fill="#F38383"/>
<path d="M705.483 453.256C705.483 453.256 709.163 463.173 707.65 464.552C705.937 466.113 702.845 465.236 698.751 465.978C694.732 466.705 691.122 467.822 689.768 468.005C687.264 468.354 684.737 468.496 682.212 468.428C682.212 468.428 679.517 468.034 680.751 465.591C681.256 464.591 684.097 464.1 686.85 462.457C690.179 460.473 695.219 456.768 695.784 455.278L705.483 453.256Z" fill="#650000"/>
<path d="M630.392 286.898C630.392 286.898 621.862 327.917 627.445 372.927C633.027 417.938 639.251 455.226 639.251 455.226L651.201 454.143C651.201 454.143 655.501 340.202 655.819 332.986C656.137 325.771 654.101 284.752 654.101 284.752L630.392 286.898Z" fill="#650000"/>
<path d="M645.403 292.461C645.403 292.461 655.17 348.907 667.021 385.772C674.466 408.69 683.477 431.021 693.984 452.596L705.477 449.779C705.477 449.779 692.036 398.286 689.358 363.341C686.68 328.397 679.736 293.732 675.551 285.172C671.363 276.61 645.403 292.461 645.403 292.461Z" fill="#650000"/>
<path d="M650.478 158.731C650.478 158.731 643.734 186.457 656.953 189.351C656.953 189.351 655.754 200.707 656.953 201.844C658.154 202.981 666.165 207.572 673.226 198.424C673.226 198.424 669.338 186.268 671.551 183.275C673.763 180.283 677.479 177.758 677.613 173.417C677.748 169.076 674.116 170.955 672.974 171.733C671.83 172.511 667.454 169.033 663.654 162.443C659.854 155.854 651.342 154.313 650.478 158.731Z" fill="#F38383"/>
<path d="M658.173 188.597C658.173 188.597 664.32 188.897 667.752 186.871C671.184 184.844 671.407 190.204 657.395 192.534L658.173 188.597Z" fill="#F38383"/>
<path d="M580.419 216.332C576.068 214.3 571.611 212.52 567.071 211.002C562.113 209.57 561.807 211.559 562.342 212.036C562.876 212.513 569.435 213.627 568.596 216.332C567.757 219.036 566.766 222.856 577.214 224.448L580.419 216.332Z" fill="#F38383"/>
<path d="M657.943 203.072C657.837 211.096 653.273 218.332 646.257 221.613L640.411 224.345L639.355 224.832H639.345L637.173 225.851C630.112 229.478 613.085 239.994 606.391 237.924C597.018 235.027 576.467 223.974 576.467 223.974L579.692 215.871C579.692 215.871 607.124 225.277 609.632 225.523C612.15 225.768 624.768 217.227 634.637 207.712C638.79 203.72 643.582 201.284 647.734 199.809C648.557 199.509 649.348 199.256 650.112 199.036C650.236 199 650.363 198.969 650.49 198.943L652.551 198.521C654.028 198.218 655.611 198.606 656.664 199.728C657.464 200.581 657.961 201.755 657.943 203.072Z" fill="#F38383"/>
<path d="M673.731 255.92C669.61 270.233 678.28 287.708 676.624 287.291C674.969 286.881 666.413 292.906 649.022 293.152C631.631 293.388 629.165 287.782 629.165 287.782C629.165 287.782 640.326 254.73 636.562 248.523C633.06 242.734 635.159 232.111 638.801 226.64C638.819 226.622 638.836 226.595 638.845 226.577C638.88 226.54 638.897 226.504 638.923 226.468C639.028 226.331 639.133 226.186 639.228 226.041C639.612 225.505 639.986 224.959 640.335 224.405C640.37 224.36 640.396 224.305 640.431 224.26C640.553 224.06 640.675 223.869 640.797 223.66C644.021 218.344 645.972 212.273 646.46 205.957L646.817 201.414C646.87 200.723 647.192 200.114 647.671 199.696C648.56 199.369 649.414 199.096 650.233 198.86L653.5 198.179L653.753 198.124H653.762L656.463 197.979C663.45 197.606 670.464 198.27 677.234 200.124C690.573 203.776 690.748 208.602 690.748 208.602C688.273 213.591 686.47 218.907 685.398 224.414C684.03 232.529 677.852 241.598 673.731 255.92Z" fill="#F38383"/>
<path d="M680.355 215.38C680.355 215.38 673.224 238.378 673.728 256.377C673.728 256.377 679.268 239.923 684.224 229.388C689.18 218.853 680.355 215.38 680.355 215.38Z" fill="#F38383"/>
<path d="M642.758 262.254L617.011 254.922L615.094 209.409L640.84 216.74L642.758 262.254Z" fill="#FCFCFC"/>
<path d="M645.373 250.392L643.307 258.288C643.307 258.288 679.909 273.411 686.936 263.784C693.963 254.157 697.237 208.908 689.58 206.069C681.924 203.229 673.624 220.409 676.546 253.651L645.373 250.392Z" fill="#F38383"/>
<path d="M645.373 250.392C642.693 250.533 640.007 250.508 637.328 250.318C633.857 249.989 629.783 248.335 629.347 250.602C628.911 252.869 635.159 257.7 643.308 258.289L645.373 250.392Z" fill="#F38383"/>
<path d="M469 38H449.952L459.476 28.4762L469 38ZM468.524 18L449 37.6048V28.3952L459.395 18H468.524ZM458.048 18L449 27.0476V18H458.048Z" fill="#FAFAFA" fill-opacity="0.76"/>
<path d="M284.215 44.1398L273.154 54.1626C272.949 54.3492 272.949 54.6513 273.154 54.8374L276.097 57.5035C276.303 57.6901 276.636 57.6901 276.841 57.5035L290.845 44.8147C291.176 44.514 290.942 44 290.472 44H284.588C284.448 44 284.314 44.0501 284.215 44.1398ZM290.845 54.3602L281.736 62.6136L278.422 59.6102C278.216 59.4235 278.216 59.1214 278.422 58.9353L284.215 53.6853C284.314 53.5956 284.448 53.5455 284.588 53.5455H290.472C290.942 53.5455 291.176 54.0595 290.845 54.3602ZM290.845 64.1853L287.003 60.7045L281.736 62.6136L284.215 64.8602C284.314 64.9499 284.448 65 284.588 65H290.472C290.942 65 291.176 64.486 290.845 64.1853Z" fill="white"/>
</svg>
