<svg width="78" height="98" viewBox="0 0 78 98" fill="none" xmlns="http://www.w3.org/2000/svg">
<path d="M69.6533 97.8446H8.34675C3.74471 97.8446 0 95.1993 0 91.9484V5.89623C0 2.6453 3.74471 0 8.34675 0H69.6533C74.2553 0 78 2.6453 78 5.89623V91.9484C78 95.1993 74.2553 97.8437 69.6533 97.8437V97.8446ZM8.34675 1.66923C5.04661 1.66923 2.36366 3.56536 2.36366 5.89575V91.9479C2.36366 94.2782 5.04651 96.1744 8.34675 96.1744H69.6533C72.9534 96.1744 75.6363 94.2783 75.6363 91.9479V5.89575C75.6363 3.56543 72.9535 1.66923 69.6533 1.66923H8.34675Z" fill="white"/>
<path d="M44.1997 94.2834H33.8033C31.8498 94.2834 30.2578 93.1597 30.2578 91.7788V91.5552C30.2578 90.1744 31.8498 89.0507 33.8033 89.0507H44.1997C46.1531 89.0507 47.7452 90.1744 47.7452 91.5552V91.7788C47.7452 93.1607 46.1531 94.2834 44.1997 94.2834ZM33.8033 90.7202C33.1517 90.7202 32.6215 91.0948 32.6215 91.5551V91.7787C32.6215 92.239 33.1517 92.6136 33.8033 92.6136H44.1997C44.8513 92.6136 45.3815 92.239 45.3815 91.7787V91.5551C45.3815 91.0948 44.8513 90.7202 44.1997 90.7202H33.8033Z" fill="white"/>
<path d="M70.371 86.3238H7.62606C6.85047 86.3238 6.22266 85.8802 6.22266 85.3324V8.95024C6.22266 8.40236 6.85051 7.95886 7.62606 7.95886H70.371C71.1466 7.95886 71.7744 8.40238 71.7744 8.95024V85.3324C71.7744 85.8803 71.1466 86.3247 70.371 86.3247V86.3238Z" fill="white"/>
<path d="M46.5633 5.23099H31.4396C30.788 5.23099 30.2578 4.85736 30.2578 4.39614C30.2578 3.93491 30.788 3.56128 31.4396 3.56128H46.5633C47.2149 3.56128 47.7452 3.93491 47.7452 4.39614C47.7452 4.85736 47.2136 5.23099 46.5633 5.23099Z" fill="white"/>
</svg>
