<svg width="46" height="82" viewBox="0 0 46 82" fill="none" xmlns="http://www.w3.org/2000/svg">
<path d="M40.8353 81.2033H4.8934C2.19539 81.2033 0 79.0079 0 76.3099V4.89341C0 2.19539 2.19539 0 4.8934 0H40.8353C43.5333 0 45.7287 2.19539 45.7287 4.89341V76.3099C45.7287 79.0079 43.5333 81.2026 40.8353 81.2026V81.2033ZM4.8934 1.38533C2.95865 1.38533 1.38573 2.95897 1.38573 4.89301V76.3095C1.38573 78.2435 2.95859 79.8172 4.8934 79.8172H40.8353C42.77 79.8172 44.3429 78.2436 44.3429 76.3095V4.89301C44.3429 2.95903 42.7701 1.38533 40.8353 1.38533H4.8934Z" fill="white"/>
<path d="M25.9119 78.2478H19.8169C18.6716 78.2478 17.7383 77.3152 17.7383 76.1692V75.9836C17.7383 74.8376 18.6716 73.905 19.8169 73.905H25.9119C27.0572 73.905 27.9905 74.8376 27.9905 75.9836V76.1692C27.9905 77.316 27.0572 78.2478 25.9119 78.2478ZM19.8169 75.2907C19.4349 75.2907 19.124 75.6015 19.124 75.9835V76.1691C19.124 76.5511 19.4349 76.862 19.8169 76.862H25.9119C26.2939 76.862 26.6048 76.5511 26.6048 76.1691V75.9835C26.6048 75.6015 26.2939 75.2907 25.9119 75.2907H19.8169Z" fill="white"/>
<path d="M41.2564 71.6419H4.4712C4.0165 71.6419 3.64844 71.2739 3.64844 70.8192V7.42799C3.64844 6.97329 4.01652 6.60522 4.4712 6.60522H41.2564C41.7111 6.60522 42.0791 6.97331 42.0791 7.42799V70.8192C42.0791 71.2739 41.7111 71.6427 41.2564 71.6427V71.6419Z" fill="white"/>
<path d="M27.2976 4.3413H18.4311C18.0491 4.3413 17.7383 4.03121 17.7383 3.64843C17.7383 3.26565 18.0491 2.95557 18.4311 2.95557H27.2976C27.6796 2.95557 27.9905 3.26565 27.9905 3.64843C27.9905 4.03121 27.6789 4.3413 27.2976 4.3413Z" fill="white"/>
</svg>
