<svg width="87" height="87" viewBox="0 0 87 87" fill="none" xmlns="http://www.w3.org/2000/svg">
<path d="M40.5681 0.376923C34.1875 0.732391 26.9714 2.98962 21.3906 6.38435C16.3963 9.38806 11.5974 13.867 8.36266 18.5058C3.72379 25.1709 1.1111 32.6535 0.684535 40.5449C0.0802385 51.2801 3.03063 61.0199 9.42907 69.4978C10.9043 71.4351 14.53 75.1676 16.4851 76.7494C22.3681 81.4594 29.4597 84.5875 37.1023 85.8138C39.9461 86.2582 47.1621 86.2582 49.988 85.8138C54.5025 85.0851 58.4482 83.8232 62.6072 81.7793C67.2105 79.522 70.392 77.247 73.9644 73.6746C77.5369 70.1021 79.8119 66.9207 82.0691 62.3174C84.1131 58.1584 85.375 54.2127 86.1037 49.6982C86.548 46.8722 86.548 39.6562 86.1037 36.8125C84.8773 29.1699 81.7492 22.0783 77.0392 16.1953C75.4574 14.2402 71.725 10.6144 69.7877 9.13923C62.7671 3.84274 54.6269 0.821259 46.0957 0.376923C44.425 0.288055 43.0209 0.216965 42.9675 0.234741C42.9142 0.25251 41.8478 0.305832 40.5681 0.376923ZM27.167 33.5066C27.5757 34.0576 27.6824 34.3775 27.6824 35.1418C27.6824 36.3681 27.4691 36.617 21.8349 42.2334L17.3738 46.6767V35.124V23.5713L22.0127 28.1924C24.572 30.734 26.8826 33.1334 27.167 33.5066ZM44.425 35.8705C51.2144 42.6599 56.7242 48.3297 56.813 48.5963C57.0619 49.2361 57.0619 50.3381 56.813 50.9779C56.582 51.6177 47.5175 60.7177 46.7711 61.0732C46.0601 61.4109 44.6916 61.4109 44.0695 61.091C43.8029 60.9488 41.3857 58.6027 38.6841 55.8834C34.1164 51.2978 33.7254 50.8535 33.1211 49.5738C31.9658 47.1566 31.948 47.0322 31.948 34.7152C31.948 28.6367 32.0013 23.6601 32.0902 23.6601C32.1613 23.6601 37.7066 29.1521 44.425 35.8705ZM74.9597 32.8668C74.9597 33.0267 71.6894 36.4392 67.5837 40.5449L60.2078 47.9209L54.0759 41.789C50.699 38.4121 48.033 35.6217 48.1218 35.6039C48.3529 35.515 73.8045 32.6002 74.4798 32.5646C74.8175 32.5468 74.9597 32.6357 74.9597 32.8668ZM29.4597 49.7871C29.4597 56.0433 29.4064 61.1621 29.3175 61.1621C29.122 61.1621 19.3822 51.3511 19.1689 50.9068C18.8845 50.3381 18.9379 49.0406 19.2578 48.5429C19.631 47.992 29.1398 38.4121 29.3175 38.4121C29.4064 38.4121 29.4597 43.5308 29.4597 49.7871Z" fill="#6E6E6E"/>
</svg>
