<svg width="83" height="100" viewBox="0 0 83 100" fill="none" xmlns="http://www.w3.org/2000/svg">
<path d="M80.4039 34.1087C79.951 34.3872 69.1691 40.2655 69.1691 53.2991C69.6772 68.1631 82.7754 73.3758 83 73.3758C82.7754 73.6543 81.0226 80.4768 75.8305 87.6284C71.7099 93.7889 67.1364 100 60.1915 100C53.5854 100 51.2139 95.8942 43.5915 95.8942C35.4056 95.8942 33.0894 100 26.822 100C19.8771 100 14.9649 93.4561 10.6197 87.3535C4.97464 79.3662 0.17654 66.8319 0.00715188 54.7967C-0.107001 48.4192 1.13763 42.1502 4.29709 36.8254C8.75642 29.3916 16.7177 24.3452 25.4117 24.1788C32.0731 23.9582 38.0017 28.6717 42.067 28.6717C45.9629 28.6717 53.2466 24.1788 61.4877 24.1788C65.0448 24.1825 74.5306 25.2351 80.4039 34.1087ZM41.5036 22.9055C40.3179 17.0815 43.5915 11.2574 46.6405 7.54232C50.5364 3.04949 56.6896 0 61.9959 0C62.3346 5.82405 60.1878 11.536 56.3508 15.696C52.9078 20.1888 46.9792 23.5711 41.5036 22.9055Z" fill="#6E6E6E"/>
</svg>
