<svg width="99" height="100" viewBox="0 0 99 100" fill="none" xmlns="http://www.w3.org/2000/svg">
<path d="M73.125 0H25.875C11.6077 0 0 11.725 0 26.1364V73.8636C0 88.275 11.6077 100 25.875 100H73.125C87.3923 100 99 88.275 99 73.8636V26.1364C99 11.725 87.3923 0 73.125 0ZM82.3838 81.8182C82.3838 81.8182 78.6712 75.4386 72.4478 75.4386C66.4493 75.4386 61.857 81.8182 49.7812 81.8182C27.3375 81.8159 14.616 65.0045 11.322 59.7727C11.0632 59.3614 11.547 58.9068 11.9542 59.1682C21.4987 65.2295 30.7305 68.1818 37.125 68.1795C46.4782 68.1773 51.75 63.6364 51.75 63.6364C43.1348 58.5114 22.5 34.6591 18.1035 27.9977C17.7997 27.5386 18.3442 27.0318 18.7627 27.3864C36.6435 42.5773 46.8338 48.3023 46.8338 48.3023C43.0493 45.0932 31.7812 30.1114 27.0945 23.45C26.7773 23 27.36 22.4795 27.7605 22.8545C40.5855 34.9 63 52.2727 63 52.2727C64.4108 48.2636 65.304 43.4523 65.2455 39.7727C65.0947 30.0705 58.9005 20.3955 56.3333 16.6114C56.043 16.1841 56.5717 15.7045 56.988 16.0068C73.6875 28.125 78.7523 43.2568 78.75 51.9886C78.7477 58.2614 76.5 62.2159 76.5 62.2159C76.5 62.2159 86.022 72.7091 82.3838 81.8182Z" fill="#6E6E6E"/>
</svg>
