<svg width="106" height="77" viewBox="0 0 106 77" fill="none" xmlns="http://www.w3.org/2000/svg">
<path d="M62.9531 27.25V50H57.4688V27.25H62.9531ZM69.7969 27.25V31.4844H50.7812V27.25H69.7969ZM80.9844 44.6406L85.7188 27.25H91.8594L84.1875 50H80.2188L80.9844 44.6406ZM76.6875 27.25L81.4219 44.6406L82.2188 50H78.2031L70.5781 27.25H76.6875Z" fill="white"/>
<rect x="2.5" y="2.5" width="101" height="72" rx="8.5" stroke="#FEFEFE" stroke-width="5"/>
<path d="M38.2181 31.2326C38.0816 31.3162 34.8341 33.0797 34.8341 36.9897C34.9871 41.4489 38.9323 43.0127 39 43.0127C38.9323 43.0963 38.4044 45.143 36.8405 47.2885C35.5994 49.1367 34.2218 51 32.13 51C30.1402 51 29.4259 49.7683 27.13 49.7683C24.6643 49.7683 23.9667 51 22.0789 51C19.9871 51 18.5075 49.0368 17.1987 47.206C15.4984 44.8099 14.0532 41.0496 14.0022 37.439C13.9678 35.5258 14.3427 33.6451 15.2943 32.0476C16.6375 29.8175 19.0354 28.3036 21.6541 28.2537C23.6606 28.1875 25.4463 29.6015 26.6708 29.6015C27.8442 29.6015 30.0381 28.2537 32.5204 28.2537C33.5918 28.2547 36.449 28.5705 38.2181 31.2326ZM26.5011 27.8717C26.1439 26.1244 27.13 24.3772 28.0483 23.2627C29.2218 21.9148 31.0752 21 32.6735 21C32.7755 22.7472 32.1289 24.4608 30.9731 25.7088C29.9361 27.0566 28.1504 28.0713 26.5011 27.8717Z" fill="white"/>
</svg>
