<svg width="48" height="92" viewBox="0 0 48 92" fill="none" xmlns="http://www.w3.org/2000/svg">
<path d="M41.7 20.0429L39.9 8.21429C39 3.61429 35.4 0 30.9 0H17.1C12.6 0 9 3.61429 8.1 8.21429L6.3 20.0429C2.7 21.3571 0 25.3 0 29.5714V62.4286C0 66.7 2.7 70.6429 6.3 71.9571L8.1 83.7857C8.7 88.7143 12.6 92 17.1 92H30.9C35.4 92 39 88.3857 39.9 83.7857L41.7 71.9571C45.3 70.6429 48 67.0286 48 62.4286V29.5714C48 25.3 45.3 21.3571 41.7 20.0429ZM42 62.4286C42 64.4 40.8 65.7143 39 65.7143H9C7.2 65.7143 6 64.4 6 62.4286V29.5714C6 27.6 7.2 26.2857 9 26.2857H39C40.8 26.2857 42 27.6 42 29.5714V62.4286Z" fill="white"/>
</svg>
