<svg width="96" height="102" viewBox="0 0 96 102" fill="none" xmlns="http://www.w3.org/2000/svg">
<path d="M47.7696 21.0118C53.5719 21.0118 58.2755 16.3082 58.2755 10.5059C58.2755 4.70366 53.5719 0 47.7696 0C41.9673 0 37.2637 4.70366 37.2637 10.5059C37.2637 16.3082 41.9673 21.0118 47.7696 21.0118Z" fill="#E04048"/>
<path d="M78.2187 25.5446C83.1234 25.5446 87.0995 21.5685 87.0995 16.6638C87.0995 11.759 83.1234 7.78296 78.2187 7.78296C73.314 7.78296 69.3379 11.759 69.3379 16.6638C69.3379 21.5685 73.314 25.5446 78.2187 25.5446Z" fill="#E04048"/>
<path d="M84.1252 27.7058C83.9767 27.6148 83.8201 27.5501 83.6643 27.4828C82.6747 26.8219 81.5637 26.3374 80.4313 26.0594L78.2199 28.2872L76.075 26.0348C76.0668 26.0389 76.0594 26.0389 76.0528 26.0397C74.8967 26.316 73.7635 26.8121 72.7558 27.4877C72.6033 27.5542 72.45 27.6173 72.3016 27.7075C70.6699 28.7086 67.7903 30.4756 65.3354 33.2314C62.1786 28.1314 57.2474 25.0951 54.7597 23.5701C54.5834 23.4618 54.3981 23.3856 54.2137 23.3069C53.042 22.5263 51.7292 21.9523 50.3878 21.6219L47.7705 24.2572L45.2328 21.594C45.2246 21.5965 45.2156 21.5965 45.2066 21.5981C43.8389 21.9253 42.4983 22.5123 41.3069 23.3126C41.1257 23.3905 40.9437 23.4659 40.7707 23.5701C38.2805 25.096 33.3428 28.1347 30.1869 33.2421C27.7303 30.4797 24.8441 28.7095 23.2108 27.7075C23.0616 27.6165 22.905 27.5517 22.7492 27.4845C21.7595 26.8236 20.6485 26.339 19.5153 26.061L17.3031 28.2888L15.1582 26.0364C15.1508 26.0405 15.1434 26.0405 15.136 26.0414C13.9799 26.3177 12.8467 26.8137 11.8398 27.4894C11.6865 27.5558 11.5324 27.6189 11.3856 27.7091C7.02596 30.3821 -6.24316 38.5209 3.48545 56.3989C4.11025 57.5493 5.29425 58.1995 6.51678 58.1995C7.07352 58.1995 7.63846 58.065 8.16159 57.7797C8.34443 57.6805 8.5117 57.5641 8.66831 57.4386L8.67077 89.5361C8.67077 91.7852 10.4951 93.6087 12.7459 93.6087C14.9966 93.6087 16.821 91.7852 16.8202 89.5353L16.8185 61.2005C16.9792 61.2071 17.1408 61.2202 17.3031 61.2202C17.3351 61.2202 17.3663 61.2144 17.3982 61.2144V89.5336C17.3982 91.7827 19.2218 93.6071 21.4717 93.6071C21.4725 93.6071 21.4725 93.6071 21.4725 93.6071C23.7225 93.6071 25.5468 91.7827 25.5468 89.5336L25.5485 57.0852C25.7977 57.3558 26.0929 57.5919 26.4356 57.7797C26.9596 58.065 27.5237 58.1995 28.0796 58.1995C29.2177 58.1995 30.3156 57.6305 30.9675 56.6252C31.1208 56.9212 31.2594 57.2139 31.4242 57.514C32.1638 58.8735 33.5642 59.6459 35.0106 59.6459C35.669 59.6459 36.3373 59.4852 36.9563 59.1498C37.1728 59.0309 37.3704 58.894 37.5557 58.7464L37.559 96.7171C37.559 99.3795 39.7171 101.537 42.3802 101.537C45.0418 101.537 47.1999 99.3795 47.1999 96.7163L47.1974 63.1946C47.3885 63.2044 47.5795 63.2192 47.7705 63.2192C47.8083 63.2192 47.846 63.2143 47.8837 63.2143L47.8829 96.7147C47.8829 99.3778 50.041 101.535 52.7025 101.535C52.7041 101.535 52.7041 101.535 52.7041 101.535C55.3649 101.535 57.5238 99.3778 57.5238 96.7147L57.5254 58.3266C57.8198 58.6497 58.1699 58.9284 58.5741 59.1498C59.1932 59.4852 59.8606 59.6459 60.5198 59.6459C61.967 59.6459 63.3675 58.876 64.1063 57.514C64.2678 57.2189 64.4039 56.9311 64.5548 56.6408C65.2083 57.6362 66.3021 58.1995 67.4344 58.1995C67.9903 58.1995 68.5561 58.065 69.0792 57.7797C69.2621 57.6805 69.4293 57.5641 69.5868 57.4386L69.5892 89.5361C69.5892 91.7852 71.4136 93.6087 73.6643 93.6087C75.9143 93.6087 77.7386 91.7852 77.7378 89.5353L77.7362 61.2005C77.8977 61.2071 78.06 61.2202 78.2224 61.2202C78.2535 61.2202 78.2847 61.2144 78.3167 61.2144V89.5336C78.3167 91.7827 80.1411 93.6071 82.391 93.6071C84.6409 93.6071 86.4661 91.7827 86.4661 89.5336L86.4669 57.0852C86.7162 57.3558 87.0122 57.5919 87.3541 57.7797C87.878 58.065 88.4413 58.1995 88.9973 58.1995C90.2206 58.1995 91.4046 57.5493 92.0294 56.3989C101.754 38.5176 88.4873 30.3789 84.1252 27.7058ZM8.21324 50.3133C6.32983 45.688 6.70127 42.3164 8.21324 39.6926V50.3133ZM17.3236 45.8618H17.2826L15.1418 42.9314L17.2826 28.6168H17.3236L19.4653 42.9314L17.3236 45.8618ZM26.3922 50.2903V39.709C26.8063 40.4322 27.1301 41.2144 27.3491 42.0614C27.2613 43.411 27.3122 44.8418 27.5171 46.3571C27.3359 47.5599 26.9711 48.8653 26.3922 50.2903ZM37.017 50.3149C34.7884 44.8435 35.2287 40.8544 37.017 37.7493V50.3149ZM47.7951 45.0485H47.7459L45.2123 41.5809L47.7459 24.645H47.7951L50.3288 41.5809L47.7951 45.0485ZM58.5241 50.2871V37.769C60.2993 40.8659 60.7347 44.8426 58.5241 50.2871ZM69.1292 50.3133C68.5545 48.8997 68.1912 47.6042 68.0051 46.4096C68.2199 44.8566 68.2683 43.3913 68.1748 42.0138C68.3962 41.1791 68.7184 40.4059 69.1292 39.6926V50.3133ZM78.2404 45.8618H78.1986L76.0577 42.9314L78.1986 28.6168H78.2404L80.3821 42.9314L78.2404 45.8618ZM87.309 50.2903V39.709C88.8087 42.3271 89.1785 45.6888 87.309 50.2903Z" fill="#E04048"/>
<path d="M17.3027 25.5446C22.2074 25.5446 26.1835 21.5685 26.1835 16.6638C26.1835 11.759 22.2074 7.78296 17.3027 7.78296C12.3979 7.78296 8.42188 11.759 8.42188 16.6638C8.42188 21.5685 12.3979 25.5446 17.3027 25.5446Z" fill="#E04048"/>
</svg>
