<svg width="245" height="49" viewBox="0 0 245 49" fill="none" xmlns="http://www.w3.org/2000/svg">
<mask id="path-1-inside-1_1367_4535" fill="white">
<path d="M41.2745 35.9895C41.7002 31.5498 42.0277 27.8554 42.2242 24.874C42.4207 21.8925 42.6172 17.9065 42.8137 12.9807C43.0101 8.02244 43.1084 4.74935 43.1084 3.12901L43.0756 0.860532C47.169 0.892939 52.1139 0.925346 57.9101 0.925346C63.2807 0.925346 67.9963 0.892939 72.0897 0.860532L72.0242 1.70311C71.9915 1.89755 71.9587 2.64291 71.8932 3.93918L71.7295 6.72616C71.6968 7.30949 71.664 7.92522 71.664 8.54095C68.3238 8.41132 65.5075 8.3465 63.248 8.3465C60.7592 8.3465 59.0563 8.3465 58.2049 8.3465C57.3207 8.3465 55.9781 8.37891 54.1115 8.47613L53.784 14.4066C55.8143 14.4714 58.2049 14.4714 60.9229 14.4714C61.9053 14.4714 64.4924 14.4066 68.684 14.2769C68.5203 16.4806 68.3565 19.1056 68.1928 22.1194C65.1801 22.087 62.8877 22.0546 61.2831 22.0546C58.8926 22.0546 56.2073 22.1194 53.26 22.249L52.9653 28.5359H55.9453C56.8295 28.5359 58.6633 28.5035 61.4141 28.4711L66.7847 28.3415C67.5706 28.3091 68.9132 28.2443 70.7798 28.1471C70.5834 30.6748 70.3869 33.2997 70.2559 36.0219C66.0315 35.9895 61.3814 35.9571 56.3383 35.9571L44.9095 35.9895H41.2745Z"/>
<path d="M83.2238 35.9895L80.473 27.5637L74.251 9.74C76.2159 9.7724 78.0825 9.80481 79.7853 9.80481C81.5537 9.80481 83.2238 9.7724 84.7957 9.74C85.0904 10.939 85.6798 12.9807 86.5313 15.9621C87.3827 18.9111 88.3651 22.4435 89.3803 26.5267L90.068 24.3879C90.1662 24.1286 90.5919 23.0268 91.2796 21.0824L95.4058 9.74C97.2724 9.7724 99.0407 9.80481 100.711 9.80481C102.414 9.80481 104.215 9.7724 106.049 9.74L102.446 17.388L95.766 32.5868L94.3251 36.0219C92.2948 35.9895 90.461 35.9571 88.9218 35.9571C87.2517 35.9247 85.3524 35.9571 83.2238 35.9895Z"/>
<path d="M133.229 28.2119C133 29.2489 132.574 31.7442 131.919 35.6654C129.921 36.0543 128.219 36.3136 126.843 36.4432C125.468 36.5728 124.092 36.6376 122.684 36.6376C120.621 36.6376 118.722 36.508 116.986 36.2164C115.251 35.9247 113.744 35.4386 112.5 34.7256C111.255 34.0127 110.175 33.1053 109.356 32.0359C108.505 30.9665 107.85 29.7026 107.424 28.2119C106.966 26.7536 106.769 25.2305 106.769 23.6749C106.769 21.4713 107.228 19.3324 108.112 17.226C108.996 15.1195 110.142 13.4992 111.517 12.3001C112.926 11.1335 114.53 10.2909 116.331 9.7724C118.165 9.2863 119.999 9.02705 121.931 9.02705C123.896 9.02705 125.795 9.2539 127.596 9.70759C129.397 10.1613 130.904 10.9715 132.148 12.0733C133.393 13.2075 134.277 14.4714 134.801 15.8973C135.325 17.3232 135.587 18.8463 135.587 20.4991C135.587 21.4713 135.488 22.5731 135.259 23.7721L117.019 23.8046C116.986 24.0638 116.986 24.3231 116.986 24.5499C116.986 26.3971 117.641 27.7582 118.984 28.6332C120.326 29.5082 121.964 29.9294 123.863 29.9294C125.009 29.9294 126.319 29.7998 127.793 29.5406C129.266 29.3137 131.068 28.86 133.229 28.2119ZM117.215 19.9157H125.795C125.828 19.6241 125.828 19.3648 125.828 19.1704C125.828 18.263 125.664 17.5176 125.337 16.8695C125.009 16.2214 124.551 15.7677 123.961 15.476C123.372 15.1843 122.684 15.0223 121.931 15.0223C121.407 15.0223 120.916 15.1195 120.425 15.2816C119.934 15.4436 119.508 15.6704 119.115 15.9945C118.722 16.3186 118.394 16.6751 118.132 17.0963C117.87 17.5176 117.674 17.9065 117.576 18.2954C117.477 18.6843 117.346 19.2028 117.215 19.9157Z"/>
<path d="M138.73 35.9895C139.222 32.1007 139.615 27.7906 139.877 23.0916C140.139 18.3926 140.302 13.9205 140.368 9.70759C142.464 9.74 144.232 9.7724 145.771 9.7724C147.539 9.7724 149.21 9.74 150.814 9.70759L150.552 13.2075C151.109 12.5594 151.633 12.0733 152.026 11.7168C152.419 11.3603 152.943 10.9715 153.565 10.6474C154.187 10.2909 154.842 9.99925 155.53 9.7724C156.217 9.54556 156.971 9.38352 157.789 9.25389C158.608 9.12427 159.459 9.05945 160.376 9.05945C161.621 9.05945 162.832 9.18908 164.044 9.44834C165.223 9.70759 166.238 10.0965 167.024 10.5826C167.81 11.0687 168.498 11.6844 169.022 12.3974C169.546 13.1427 169.906 13.9205 170.102 14.7631C170.266 15.6056 170.364 16.4806 170.364 17.3556C170.364 18.0037 170.299 19.4296 170.168 21.5685L169.709 30.8692C169.611 32.7164 169.578 34.4016 169.578 35.9571C167.843 35.9247 166.205 35.8923 164.666 35.8923C162.603 35.8923 160.737 35.9247 159.034 35.9571C159.198 34.4016 159.361 32.0683 159.525 28.9896C159.689 25.911 159.787 23.7397 159.787 22.4759C159.787 20.5315 159.394 19.1704 158.641 18.425C157.888 17.6473 156.938 17.2908 155.792 17.2908C154.777 17.2908 153.827 17.6149 152.943 18.263C152.059 18.9111 151.371 19.8509 150.88 21.1148C150.388 22.3462 150.061 24.4203 149.865 27.2397C149.668 30.0915 149.537 32.9757 149.472 35.9247C147.736 35.8923 146.033 35.8599 144.396 35.8599C142.627 35.9247 140.761 35.9571 138.73 35.9895Z"/>
<path d="M194.532 28.4063C194.204 29.8322 193.942 31.2581 193.713 32.6192L193.156 35.7627C191.454 36.1515 190.111 36.3784 189.129 36.4756C188.179 36.5728 187.229 36.6376 186.345 36.6376C184.871 36.6376 183.561 36.508 182.415 36.2488C181.269 35.9895 180.319 35.5358 179.566 34.8877C178.813 34.2395 178.289 33.4618 177.994 32.6192C177.732 31.7766 177.569 30.8368 177.569 29.897C177.569 29.735 177.569 29.4109 177.601 28.9896C177.634 28.5359 177.667 27.5637 177.798 26.073L178.355 17.1612H174.294C174.392 15.9621 174.458 14.4066 174.523 12.4622L174.589 10.0641H178.911C179.01 9.2863 179.141 7.53633 179.304 4.87898L183.758 3.97159C184.577 3.80955 186.312 3.42067 188.965 2.77253C188.834 5.0086 188.768 7.43911 188.703 10.0317H194.63C194.499 13.5964 194.434 15.9621 194.434 17.0963H188.441L188.113 23.5453C188.081 24.5175 188.048 25.1332 188.048 25.3925C188.048 26.2027 188.146 26.9156 188.31 27.4665C188.506 28.0174 188.801 28.4063 189.26 28.6656C189.718 28.8924 190.242 29.022 190.766 29.022C191.192 29.022 191.617 28.9896 192.076 28.9248C192.6 28.9248 193.386 28.7304 194.532 28.4063Z"/>
<path d="M197.807 35.9895L198.265 30.4479L199.28 11.1983L199.575 0.860532C201.998 0.892939 203.799 0.925346 205.011 0.925346C206.583 0.925346 208.351 0.892939 210.251 0.860532L209.661 8.76779L208.711 28.2119L208.515 35.9895C206.648 35.9571 204.978 35.9571 203.505 35.9571L197.807 35.9895Z"/>
<path d="M212.183 47.7532C211.659 43.6375 211.266 41.1098 211.102 40.1052C212.183 40.6237 213.165 40.9802 214.016 41.1746C214.868 41.369 215.588 41.4663 216.178 41.4663C216.833 41.4663 217.422 41.369 217.979 41.207C218.536 41.045 218.994 40.8181 219.322 40.5913C219.649 40.332 220.009 39.9755 220.402 39.457C220.795 38.9385 221.09 38.4848 221.286 38.1284C221.483 37.7719 221.679 37.221 221.843 36.5404L216.964 21.8925L212.772 9.70759C215.359 9.74 217.16 9.7724 218.208 9.7724C219.42 9.7724 221.09 9.74 223.186 9.70759C223.513 11.0363 224.135 13.3047 225.02 16.5454C225.904 19.7861 226.559 22.3138 226.952 24.161C227.181 25.1656 227.41 26.4619 227.607 28.0174L228.163 25.9434C228.327 25.3925 228.524 24.7768 228.753 24.0638C228.982 23.3509 229.277 22.5083 229.604 21.5361L231.307 16.8371L234.123 9.64278C236.285 9.67518 237.922 9.70759 239.035 9.70759C240.018 9.70759 241.753 9.67518 244.242 9.64278L239.232 20.8555L230.128 41.7579C229.539 42.9246 228.982 43.8644 228.425 44.5449C227.934 45.1606 227.377 45.7116 226.788 46.1653C226.231 46.5865 225.642 46.943 224.987 47.2347C224.135 47.6236 223.153 47.9476 222.138 48.1745C220.992 48.4013 219.845 48.5309 218.667 48.5309C218.143 48.5309 217.422 48.4985 216.538 48.4013C215.654 48.3365 214.933 48.2393 214.377 48.1745C213.82 48.1097 213.1 47.9476 212.183 47.7532Z"/>
<path d="M33.2187 35.9895H2.76373C1.38835 35.9895 0.242188 34.8877 0.242188 33.4942V3.32345C0.242188 1.96236 1.3556 0.828125 2.76373 0.828125H33.2514C34.6268 0.828125 35.773 1.92996 35.773 3.32345V33.4942C35.7402 34.8877 34.6268 35.9895 33.2187 35.9895Z"/>
<path d="M11.4418 6.82338H6.69341V11.5224H11.4418V6.82338Z"/>
<path d="M17.4018 6.82338H12.6534V11.5224H17.4018V6.82338Z"/>
<path d="M23.329 6.82338H18.5807V11.5224H23.329V6.82338Z"/>
<path d="M29.289 6.82338H24.5407V11.5224H29.289V6.82338Z"/>
<path d="M11.4418 12.9807H6.69341V17.6797H11.4418V12.9807Z"/>
<path d="M17.4018 12.9807H12.6534V17.6797H17.4018V12.9807Z"/>
<path d="M23.329 12.9807H18.5807V17.6797H23.329V12.9807Z"/>
<path d="M29.289 12.9807H24.5407V17.6797H29.289V12.9807Z"/>
<path d="M11.4418 19.138H6.69341V23.837H11.4418V19.138Z"/>
<path d="M11.4418 25.2953H6.69341V29.9943H11.4418V25.2953Z"/>
<path d="M17.4018 25.2953H12.6534V29.9943H17.4018V25.2953Z"/>
<path d="M23.329 25.2953H18.5807V29.9943H23.329V25.2953Z"/>
<path d="M29.289 25.2953H24.5407V29.9943H29.289V25.2953Z"/>
</mask>
<path d="M41.2745 35.9895C41.7002 31.5498 42.0277 27.8554 42.2242 24.874C42.4207 21.8925 42.6172 17.9065 42.8137 12.9807C43.0101 8.02244 43.1084 4.74935 43.1084 3.12901L43.0756 0.860532C47.169 0.892939 52.1139 0.925346 57.9101 0.925346C63.2807 0.925346 67.9963 0.892939 72.0897 0.860532L72.0242 1.70311C71.9915 1.89755 71.9587 2.64291 71.8932 3.93918L71.7295 6.72616C71.6968 7.30949 71.664 7.92522 71.664 8.54095C68.3238 8.41132 65.5075 8.3465 63.248 8.3465C60.7592 8.3465 59.0563 8.3465 58.2049 8.3465C57.3207 8.3465 55.9781 8.37891 54.1115 8.47613L53.784 14.4066C55.8143 14.4714 58.2049 14.4714 60.9229 14.4714C61.9053 14.4714 64.4924 14.4066 68.684 14.2769C68.5203 16.4806 68.3565 19.1056 68.1928 22.1194C65.1801 22.087 62.8877 22.0546 61.2831 22.0546C58.8926 22.0546 56.2073 22.1194 53.26 22.249L52.9653 28.5359H55.9453C56.8295 28.5359 58.6633 28.5035 61.4141 28.4711L66.7847 28.3415C67.5706 28.3091 68.9132 28.2443 70.7798 28.1471C70.5834 30.6748 70.3869 33.2997 70.2559 36.0219C66.0315 35.9895 61.3814 35.9571 56.3383 35.9571L44.9095 35.9895H41.2745Z" stroke="#5C5C5C" stroke-width="4" mask="url(#path-1-inside-1_1367_4535)"/>
<path d="M83.2238 35.9895L80.473 27.5637L74.251 9.74C76.2159 9.7724 78.0825 9.80481 79.7853 9.80481C81.5537 9.80481 83.2238 9.7724 84.7957 9.74C85.0904 10.939 85.6798 12.9807 86.5313 15.9621C87.3827 18.9111 88.3651 22.4435 89.3803 26.5267L90.068 24.3879C90.1662 24.1286 90.5919 23.0268 91.2796 21.0824L95.4058 9.74C97.2724 9.7724 99.0407 9.80481 100.711 9.80481C102.414 9.80481 104.215 9.7724 106.049 9.74L102.446 17.388L95.766 32.5868L94.3251 36.0219C92.2948 35.9895 90.461 35.9571 88.9218 35.9571C87.2517 35.9247 85.3524 35.9571 83.2238 35.9895Z" stroke="#5C5C5C" stroke-width="4" mask="url(#path-1-inside-1_1367_4535)"/>
<path d="M133.229 28.2119C133 29.2489 132.574 31.7442 131.919 35.6654C129.921 36.0543 128.219 36.3136 126.843 36.4432C125.468 36.5728 124.092 36.6376 122.684 36.6376C120.621 36.6376 118.722 36.508 116.986 36.2164C115.251 35.9247 113.744 35.4386 112.5 34.7256C111.255 34.0127 110.175 33.1053 109.356 32.0359C108.505 30.9665 107.85 29.7026 107.424 28.2119C106.966 26.7536 106.769 25.2305 106.769 23.6749C106.769 21.4713 107.228 19.3324 108.112 17.226C108.996 15.1195 110.142 13.4992 111.517 12.3001C112.926 11.1335 114.53 10.2909 116.331 9.7724C118.165 9.2863 119.999 9.02705 121.931 9.02705C123.896 9.02705 125.795 9.2539 127.596 9.70759C129.397 10.1613 130.904 10.9715 132.148 12.0733C133.393 13.2075 134.277 14.4714 134.801 15.8973C135.325 17.3232 135.587 18.8463 135.587 20.4991C135.587 21.4713 135.488 22.5731 135.259 23.7721L117.019 23.8046C116.986 24.0638 116.986 24.3231 116.986 24.5499C116.986 26.3971 117.641 27.7582 118.984 28.6332C120.326 29.5082 121.964 29.9294 123.863 29.9294C125.009 29.9294 126.319 29.7998 127.793 29.5406C129.266 29.3137 131.068 28.86 133.229 28.2119ZM117.215 19.9157H125.795C125.828 19.6241 125.828 19.3648 125.828 19.1704C125.828 18.263 125.664 17.5176 125.337 16.8695C125.009 16.2214 124.551 15.7677 123.961 15.476C123.372 15.1843 122.684 15.0223 121.931 15.0223C121.407 15.0223 120.916 15.1195 120.425 15.2816C119.934 15.4436 119.508 15.6704 119.115 15.9945C118.722 16.3186 118.394 16.6751 118.132 17.0963C117.87 17.5176 117.674 17.9065 117.576 18.2954C117.477 18.6843 117.346 19.2028 117.215 19.9157Z" stroke="#5C5C5C" stroke-width="4" mask="url(#path-1-inside-1_1367_4535)"/>
<path d="M138.73 35.9895C139.222 32.1007 139.615 27.7906 139.877 23.0916C140.139 18.3926 140.302 13.9205 140.368 9.70759C142.464 9.74 144.232 9.7724 145.771 9.7724C147.539 9.7724 149.21 9.74 150.814 9.70759L150.552 13.2075C151.109 12.5594 151.633 12.0733 152.026 11.7168C152.419 11.3603 152.943 10.9715 153.565 10.6474C154.187 10.2909 154.842 9.99925 155.53 9.7724C156.217 9.54556 156.971 9.38352 157.789 9.25389C158.608 9.12427 159.459 9.05945 160.376 9.05945C161.621 9.05945 162.832 9.18908 164.044 9.44834C165.223 9.70759 166.238 10.0965 167.024 10.5826C167.81 11.0687 168.498 11.6844 169.022 12.3974C169.546 13.1427 169.906 13.9205 170.102 14.7631C170.266 15.6056 170.364 16.4806 170.364 17.3556C170.364 18.0037 170.299 19.4296 170.168 21.5685L169.709 30.8692C169.611 32.7164 169.578 34.4016 169.578 35.9571C167.843 35.9247 166.205 35.8923 164.666 35.8923C162.603 35.8923 160.737 35.9247 159.034 35.9571C159.198 34.4016 159.361 32.0683 159.525 28.9896C159.689 25.911 159.787 23.7397 159.787 22.4759C159.787 20.5315 159.394 19.1704 158.641 18.425C157.888 17.6473 156.938 17.2908 155.792 17.2908C154.777 17.2908 153.827 17.6149 152.943 18.263C152.059 18.9111 151.371 19.8509 150.88 21.1148C150.388 22.3462 150.061 24.4203 149.865 27.2397C149.668 30.0915 149.537 32.9757 149.472 35.9247C147.736 35.8923 146.033 35.8599 144.396 35.8599C142.627 35.9247 140.761 35.9571 138.73 35.9895Z" stroke="#5C5C5C" stroke-width="4" mask="url(#path-1-inside-1_1367_4535)"/>
<path d="M194.532 28.4063C194.204 29.8322 193.942 31.2581 193.713 32.6192L193.156 35.7627C191.454 36.1515 190.111 36.3784 189.129 36.4756C188.179 36.5728 187.229 36.6376 186.345 36.6376C184.871 36.6376 183.561 36.508 182.415 36.2488C181.269 35.9895 180.319 35.5358 179.566 34.8877C178.813 34.2395 178.289 33.4618 177.994 32.6192C177.732 31.7766 177.569 30.8368 177.569 29.897C177.569 29.735 177.569 29.4109 177.601 28.9896C177.634 28.5359 177.667 27.5637 177.798 26.073L178.355 17.1612H174.294C174.392 15.9621 174.458 14.4066 174.523 12.4622L174.589 10.0641H178.911C179.01 9.2863 179.141 7.53633 179.304 4.87898L183.758 3.97159C184.577 3.80955 186.312 3.42067 188.965 2.77253C188.834 5.0086 188.768 7.43911 188.703 10.0317H194.63C194.499 13.5964 194.434 15.9621 194.434 17.0963H188.441L188.113 23.5453C188.081 24.5175 188.048 25.1332 188.048 25.3925C188.048 26.2027 188.146 26.9156 188.31 27.4665C188.506 28.0174 188.801 28.4063 189.26 28.6656C189.718 28.8924 190.242 29.022 190.766 29.022C191.192 29.022 191.617 28.9896 192.076 28.9248C192.6 28.9248 193.386 28.7304 194.532 28.4063Z" stroke="#5C5C5C" stroke-width="4" mask="url(#path-1-inside-1_1367_4535)"/>
<path d="M197.807 35.9895L198.265 30.4479L199.28 11.1983L199.575 0.860532C201.998 0.892939 203.799 0.925346 205.011 0.925346C206.583 0.925346 208.351 0.892939 210.251 0.860532L209.661 8.76779L208.711 28.2119L208.515 35.9895C206.648 35.9571 204.978 35.9571 203.505 35.9571L197.807 35.9895Z" stroke="#5C5C5C" stroke-width="4" mask="url(#path-1-inside-1_1367_4535)"/>
<path d="M212.183 47.7532C211.659 43.6375 211.266 41.1098 211.102 40.1052C212.183 40.6237 213.165 40.9802 214.016 41.1746C214.868 41.369 215.588 41.4663 216.178 41.4663C216.833 41.4663 217.422 41.369 217.979 41.207C218.536 41.045 218.994 40.8181 219.322 40.5913C219.649 40.332 220.009 39.9755 220.402 39.457C220.795 38.9385 221.09 38.4848 221.286 38.1284C221.483 37.7719 221.679 37.221 221.843 36.5404L216.964 21.8925L212.772 9.70759C215.359 9.74 217.16 9.7724 218.208 9.7724C219.42 9.7724 221.09 9.74 223.186 9.70759C223.513 11.0363 224.135 13.3047 225.02 16.5454C225.904 19.7861 226.559 22.3138 226.952 24.161C227.181 25.1656 227.41 26.4619 227.607 28.0174L228.163 25.9434C228.327 25.3925 228.524 24.7768 228.753 24.0638C228.982 23.3509 229.277 22.5083 229.604 21.5361L231.307 16.8371L234.123 9.64278C236.285 9.67518 237.922 9.70759 239.035 9.70759C240.018 9.70759 241.753 9.67518 244.242 9.64278L239.232 20.8555L230.128 41.7579C229.539 42.9246 228.982 43.8644 228.425 44.5449C227.934 45.1606 227.377 45.7116 226.788 46.1653C226.231 46.5865 225.642 46.943 224.987 47.2347C224.135 47.6236 223.153 47.9476 222.138 48.1745C220.992 48.4013 219.845 48.5309 218.667 48.5309C218.143 48.5309 217.422 48.4985 216.538 48.4013C215.654 48.3365 214.933 48.2393 214.377 48.1745C213.82 48.1097 213.1 47.9476 212.183 47.7532Z" stroke="#5C5C5C" stroke-width="4" mask="url(#path-1-inside-1_1367_4535)"/>
<path d="M33.2187 35.9895H2.76373C1.38835 35.9895 0.242188 34.8877 0.242188 33.4942V3.32345C0.242188 1.96236 1.3556 0.828125 2.76373 0.828125H33.2514C34.6268 0.828125 35.773 1.92996 35.773 3.32345V33.4942C35.7402 34.8877 34.6268 35.9895 33.2187 35.9895Z" stroke="#5C5C5C" stroke-width="4" mask="url(#path-1-inside-1_1367_4535)"/>
<path d="M11.4418 6.82338H6.69341V11.5224H11.4418V6.82338Z" stroke="#5C5C5C" stroke-width="4" mask="url(#path-1-inside-1_1367_4535)"/>
<path d="M17.4018 6.82338H12.6534V11.5224H17.4018V6.82338Z" stroke="#5C5C5C" stroke-width="4" mask="url(#path-1-inside-1_1367_4535)"/>
<path d="M23.329 6.82338H18.5807V11.5224H23.329V6.82338Z" stroke="#5C5C5C" stroke-width="4" mask="url(#path-1-inside-1_1367_4535)"/>
<path d="M29.289 6.82338H24.5407V11.5224H29.289V6.82338Z" stroke="#5C5C5C" stroke-width="4" mask="url(#path-1-inside-1_1367_4535)"/>
<path d="M11.4418 12.9807H6.69341V17.6797H11.4418V12.9807Z" stroke="#5C5C5C" stroke-width="4" mask="url(#path-1-inside-1_1367_4535)"/>
<path d="M17.4018 12.9807H12.6534V17.6797H17.4018V12.9807Z" stroke="#5C5C5C" stroke-width="4" mask="url(#path-1-inside-1_1367_4535)"/>
<path d="M23.329 12.9807H18.5807V17.6797H23.329V12.9807Z" stroke="#5C5C5C" stroke-width="4" mask="url(#path-1-inside-1_1367_4535)"/>
<path d="M29.289 12.9807H24.5407V17.6797H29.289V12.9807Z" stroke="#5C5C5C" stroke-width="4" mask="url(#path-1-inside-1_1367_4535)"/>
<path d="M11.4418 19.138H6.69341V23.837H11.4418V19.138Z" stroke="#5C5C5C" stroke-width="4" mask="url(#path-1-inside-1_1367_4535)"/>
<path d="M11.4418 25.2953H6.69341V29.9943H11.4418V25.2953Z" stroke="#5C5C5C" stroke-width="4" mask="url(#path-1-inside-1_1367_4535)"/>
<path d="M17.4018 25.2953H12.6534V29.9943H17.4018V25.2953Z" stroke="#5C5C5C" stroke-width="4" mask="url(#path-1-inside-1_1367_4535)"/>
<path d="M23.329 25.2953H18.5807V29.9943H23.329V25.2953Z" stroke="#5C5C5C" stroke-width="4" mask="url(#path-1-inside-1_1367_4535)"/>
<path d="M29.289 25.2953H24.5407V29.9943H29.289V25.2953Z" stroke="#5C5C5C" stroke-width="4" mask="url(#path-1-inside-1_1367_4535)"/>
</svg>
