<svg width="202" height="79" viewBox="0 0 202 79" fill="none" xmlns="http://www.w3.org/2000/svg">
<mask id="path-1-inside-1_1367_4547" fill="white">
<path d="M1.20447 47.4735C3.84484 56.8061 5.99731 59.635 6.9444 61.3848C7.89149 63.1347 13.7749 68.9966 13.7749 68.9966C13.7749 68.9966 28.4979 81.7705 43.4217 78.1833C58.3455 74.5961 62.8801 69.3466 62.8801 69.3466C65.463 67.9467 74.7904 57.8268 74.7904 57.8268L60.6702 41.4949C60.6702 41.4949 50.0513 54.123 43.2208 55.727C36.3903 57.331 32.3149 54.2688 32.3149 54.2688C32.3149 54.2688 25.9149 51.8482 23.992 44.1197C22.0691 36.3912 24.9965 31.9291 24.9965 31.9291C24.9965 31.9291 25.2835 30.85 29.7319 26.1838C34.1804 21.5175 42.0728 22.6841 42.0728 22.6841C37.4809 19.826 36.1033 19.476 36.1033 19.476C26.5463 15.8888 17.9364 18.3095 17.9364 18.3095C17.9364 18.3095 8.20719 19.9135 3.41434 31.7833C3.41434 31.7833 -0.546215 41.9032 1.20447 47.4735Z"/>
<path d="M1.63496 31.4333C1.63496 31.4333 3.21344 20.6426 16.9893 15.1014C30.7651 9.56024 44.254 20.2051 44.254 20.2051L53.0935 28.6627C53.0935 28.6627 78.8371 58.7017 87.734 67.4509C96.6309 76.2002 105.958 77.5126 105.958 77.5126C105.958 77.5126 116.147 80.2831 127.914 75.9085C139.68 71.5339 143.842 64.5345 143.842 64.5345C143.842 64.5345 152.165 54.6187 152.452 42.8073C152.452 42.8073 149.783 51.2065 143.411 54.5604C137.04 57.9143 132.85 60.7724 117.582 58.7892C117.582 58.7892 111.899 57.5352 107.881 55.0562C103.863 52.5773 98.3242 47.0944 98.3242 47.0944C98.3242 47.0944 92.7851 41.6116 87.7053 35.1955C82.6254 28.7794 74.7043 18.6303 74.7043 18.6303C74.7043 18.6303 59.7231 2.79417 44.1392 0.985996C28.5553 -0.822177 18.3095 6.46884 18.3095 6.46884C18.3095 6.46884 3.50044 15.918 1.63496 31.4333Z"/>
<path d="M78.6936 19.476L92.8999 37.5578C92.8999 37.5578 105.384 21.955 114.138 22.6841C122.891 23.4132 125.187 27.4961 125.187 27.4961C125.187 27.4961 129.923 32.2207 130.21 39.5701C130.497 46.9194 123.924 53.4813 119.017 55.6395C119.017 55.6395 129.607 57.8851 139.25 53.7438C148.893 49.6025 152.739 38.5785 152.452 34.0581C152.452 34.0581 140.197 33.1248 136.466 22.6257C132.735 12.1267 137.614 8.42283 137.04 8.0437C136.466 7.66457 127.196 -0.0639073 111.009 0.723523C94.8802 1.54012 78.9806 17.7845 78.6936 19.476Z"/>
<path d="M142.981 25.4547C142.837 25.4547 142.723 25.3088 142.723 25.163V10.3477C142.723 10.2602 142.809 10.1435 142.895 10.1435H146.339C146.482 10.1435 146.568 10.231 146.568 10.3477V25.1922C146.568 25.3088 146.482 25.4547 146.339 25.4547H142.981Z"/>
<path d="M147.372 10.406C147.372 10.2602 147.487 10.1435 147.602 10.1435H150.988C151.132 10.1435 151.218 10.231 151.275 10.3768L152.48 14.9848C152.509 15.1597 152.567 15.2181 152.624 15.2181C152.681 15.2181 152.739 15.1306 152.739 14.9556V10.406C152.739 10.2602 152.825 10.1435 152.968 10.1435H155.982C156.154 10.1435 156.24 10.2893 156.24 10.4352V25.1922C156.24 25.338 156.154 25.4547 156.011 25.4547H152.251C152.165 25.4547 152.05 25.3672 152.021 25.2505L151.132 21.5758C151.103 21.3717 151.017 21.2842 150.959 21.2842C150.902 21.2842 150.845 21.3717 150.845 21.5758V25.1922C150.845 25.338 150.73 25.4547 150.586 25.4547H147.544C147.429 25.4547 147.343 25.338 147.343 25.163V10.406H147.372Z"/>
<path d="M157.072 10.4352C157.072 10.2893 157.158 10.1435 157.302 10.1435H164.534C164.678 10.1435 164.764 10.2602 164.764 10.3768V13.9348C164.764 14.0807 164.649 14.1973 164.506 14.1973H161.263C161.148 14.1973 161.033 14.2848 161.033 14.4306V15.6555C161.033 15.7722 161.09 15.8305 161.234 15.8305H162.755C162.841 15.8305 162.985 15.918 162.985 16.0347V19.7385C162.985 19.8552 162.898 19.9718 162.755 19.9718H161.234C161.148 19.9718 161.033 20.1176 161.033 20.2343V25.1922C161.033 25.3672 160.918 25.4838 160.775 25.4838H157.273C157.159 25.4838 157.044 25.3672 157.044 25.2214L157.072 10.4352Z"/>
<path d="M165.768 25.4547C165.625 25.4547 165.51 25.3088 165.51 25.163V10.3477C165.51 10.2602 165.596 10.1435 165.682 10.1435H169.126C169.27 10.1435 169.356 10.231 169.356 10.3477V25.1922C169.356 25.3088 169.27 25.4547 169.126 25.4547H165.768Z"/>
<path d="M170.159 10.406C170.159 10.2602 170.274 10.1435 170.389 10.1435H173.776C173.919 10.1435 174.005 10.231 174.063 10.3768L175.268 14.9848C175.297 15.1597 175.354 15.2181 175.411 15.2181C175.469 15.2181 175.526 15.1306 175.526 14.9556V10.406C175.526 10.2602 175.612 10.1435 175.756 10.1435H178.769C178.942 10.1435 179.028 10.2893 179.028 10.4352V25.1922C179.028 25.338 178.942 25.4547 178.798 25.4547H175.038C174.952 25.4547 174.837 25.3672 174.809 25.2505L173.919 21.5758C173.89 21.3717 173.804 21.2842 173.747 21.2842C173.69 21.2842 173.632 21.3717 173.632 21.5758V25.1922C173.632 25.338 173.517 25.4547 173.374 25.4547H170.332C170.217 25.4547 170.131 25.338 170.131 25.163V10.406H170.159Z"/>
<path d="M180.118 25.4547C179.975 25.4547 179.86 25.3088 179.86 25.163V10.3477C179.86 10.2602 179.946 10.1435 180.032 10.1435H183.476C183.62 10.1435 183.706 10.231 183.706 10.3477V25.1922C183.706 25.3088 183.591 25.4547 183.476 25.4547H180.118Z"/>
<path d="M187.207 25.4547C187.064 25.4547 186.92 25.338 186.92 25.163V14.5181C186.92 14.3723 186.805 14.2848 186.662 14.2848H184.653C184.538 14.2848 184.395 14.1098 184.395 13.9932V10.3477C184.395 10.231 184.452 10.1435 184.567 10.1435H193.177C193.32 10.1435 193.435 10.231 193.435 10.3768V13.964C193.435 14.139 193.32 14.2557 193.148 14.2557H191.139C190.995 14.2557 190.909 14.3723 190.909 14.5473V25.1922C190.909 25.338 190.795 25.4547 190.622 25.4547H187.207Z"/>
<path d="M194.152 10.406C194.152 10.2893 194.267 10.1435 194.411 10.1435H201.557C201.672 10.1435 201.758 10.2602 201.758 10.3768V14.0515C201.758 14.1682 201.672 14.2557 201.528 14.2557H198.17C198.084 14.2557 198.027 14.314 198.027 14.4015V15.5389C198.027 15.6264 198.113 15.6847 198.17 15.6847H199.749C199.835 15.6847 199.892 15.743 199.892 15.8305V19.5344C199.892 19.6218 199.806 19.7093 199.72 19.7093H198.084C197.998 19.7093 197.941 19.7677 197.941 19.8843V21.08C197.941 21.1675 197.998 21.2259 198.056 21.2259H201.528C201.672 21.2259 201.758 21.3134 201.758 21.43V25.2214C201.758 25.338 201.643 25.4547 201.528 25.4547H194.325C194.21 25.4547 194.095 25.338 194.095 25.1922V10.406H194.152Z"/>
</mask>
<path d="M1.20447 47.4735C3.84484 56.8061 5.99731 59.635 6.9444 61.3848C7.89149 63.1347 13.7749 68.9966 13.7749 68.9966C13.7749 68.9966 28.4979 81.7705 43.4217 78.1833C58.3455 74.5961 62.8801 69.3466 62.8801 69.3466C65.463 67.9467 74.7904 57.8268 74.7904 57.8268L60.6702 41.4949C60.6702 41.4949 50.0513 54.123 43.2208 55.727C36.3903 57.331 32.3149 54.2688 32.3149 54.2688C32.3149 54.2688 25.9149 51.8482 23.992 44.1197C22.0691 36.3912 24.9965 31.9291 24.9965 31.9291C24.9965 31.9291 25.2835 30.85 29.7319 26.1838C34.1804 21.5175 42.0728 22.6841 42.0728 22.6841C37.4809 19.826 36.1033 19.476 36.1033 19.476C26.5463 15.8888 17.9364 18.3095 17.9364 18.3095C17.9364 18.3095 8.20719 19.9135 3.41434 31.7833C3.41434 31.7833 -0.546215 41.9032 1.20447 47.4735Z" stroke="#5C5C5C" stroke-width="4" mask="url(#path-1-inside-1_1367_4547)"/>
<path d="M1.63496 31.4333C1.63496 31.4333 3.21344 20.6426 16.9893 15.1014C30.7651 9.56024 44.254 20.2051 44.254 20.2051L53.0935 28.6627C53.0935 28.6627 78.8371 58.7017 87.734 67.4509C96.6309 76.2002 105.958 77.5126 105.958 77.5126C105.958 77.5126 116.147 80.2831 127.914 75.9085C139.68 71.5339 143.842 64.5345 143.842 64.5345C143.842 64.5345 152.165 54.6187 152.452 42.8073C152.452 42.8073 149.783 51.2065 143.411 54.5604C137.04 57.9143 132.85 60.7724 117.582 58.7892C117.582 58.7892 111.899 57.5352 107.881 55.0562C103.863 52.5773 98.3242 47.0944 98.3242 47.0944C98.3242 47.0944 92.7851 41.6116 87.7053 35.1955C82.6254 28.7794 74.7043 18.6303 74.7043 18.6303C74.7043 18.6303 59.7231 2.79417 44.1392 0.985996C28.5553 -0.822177 18.3095 6.46884 18.3095 6.46884C18.3095 6.46884 3.50044 15.918 1.63496 31.4333Z" stroke="#5C5C5C" stroke-width="4" mask="url(#path-1-inside-1_1367_4547)"/>
<path d="M78.6936 19.476L92.8999 37.5578C92.8999 37.5578 105.384 21.955 114.138 22.6841C122.891 23.4132 125.187 27.4961 125.187 27.4961C125.187 27.4961 129.923 32.2207 130.21 39.5701C130.497 46.9194 123.924 53.4813 119.017 55.6395C119.017 55.6395 129.607 57.8851 139.25 53.7438C148.893 49.6025 152.739 38.5785 152.452 34.0581C152.452 34.0581 140.197 33.1248 136.466 22.6257C132.735 12.1267 137.614 8.42283 137.04 8.0437C136.466 7.66457 127.196 -0.0639073 111.009 0.723523C94.8802 1.54012 78.9806 17.7845 78.6936 19.476Z" stroke="#5C5C5C" stroke-width="4" mask="url(#path-1-inside-1_1367_4547)"/>
<path d="M142.981 25.4547C142.837 25.4547 142.723 25.3088 142.723 25.163V10.3477C142.723 10.2602 142.809 10.1435 142.895 10.1435H146.339C146.482 10.1435 146.568 10.231 146.568 10.3477V25.1922C146.568 25.3088 146.482 25.4547 146.339 25.4547H142.981Z" stroke="#5C5C5C" stroke-width="4" mask="url(#path-1-inside-1_1367_4547)"/>
<path d="M147.372 10.406C147.372 10.2602 147.487 10.1435 147.602 10.1435H150.988C151.132 10.1435 151.218 10.231 151.275 10.3768L152.48 14.9848C152.509 15.1597 152.567 15.2181 152.624 15.2181C152.681 15.2181 152.739 15.1306 152.739 14.9556V10.406C152.739 10.2602 152.825 10.1435 152.968 10.1435H155.982C156.154 10.1435 156.24 10.2893 156.24 10.4352V25.1922C156.24 25.338 156.154 25.4547 156.011 25.4547H152.251C152.165 25.4547 152.05 25.3672 152.021 25.2505L151.132 21.5758C151.103 21.3717 151.017 21.2842 150.959 21.2842C150.902 21.2842 150.845 21.3717 150.845 21.5758V25.1922C150.845 25.338 150.73 25.4547 150.586 25.4547H147.544C147.429 25.4547 147.343 25.338 147.343 25.163V10.406H147.372Z" stroke="#5C5C5C" stroke-width="4" mask="url(#path-1-inside-1_1367_4547)"/>
<path d="M157.072 10.4352C157.072 10.2893 157.158 10.1435 157.302 10.1435H164.534C164.678 10.1435 164.764 10.2602 164.764 10.3768V13.9348C164.764 14.0807 164.649 14.1973 164.506 14.1973H161.263C161.148 14.1973 161.033 14.2848 161.033 14.4306V15.6555C161.033 15.7722 161.09 15.8305 161.234 15.8305H162.755C162.841 15.8305 162.985 15.918 162.985 16.0347V19.7385C162.985 19.8552 162.898 19.9718 162.755 19.9718H161.234C161.148 19.9718 161.033 20.1176 161.033 20.2343V25.1922C161.033 25.3672 160.918 25.4838 160.775 25.4838H157.273C157.159 25.4838 157.044 25.3672 157.044 25.2214L157.072 10.4352Z" stroke="#5C5C5C" stroke-width="4" mask="url(#path-1-inside-1_1367_4547)"/>
<path d="M165.768 25.4547C165.625 25.4547 165.51 25.3088 165.51 25.163V10.3477C165.51 10.2602 165.596 10.1435 165.682 10.1435H169.126C169.27 10.1435 169.356 10.231 169.356 10.3477V25.1922C169.356 25.3088 169.27 25.4547 169.126 25.4547H165.768Z" stroke="#5C5C5C" stroke-width="4" mask="url(#path-1-inside-1_1367_4547)"/>
<path d="M170.159 10.406C170.159 10.2602 170.274 10.1435 170.389 10.1435H173.776C173.919 10.1435 174.005 10.231 174.063 10.3768L175.268 14.9848C175.297 15.1597 175.354 15.2181 175.411 15.2181C175.469 15.2181 175.526 15.1306 175.526 14.9556V10.406C175.526 10.2602 175.612 10.1435 175.756 10.1435H178.769C178.942 10.1435 179.028 10.2893 179.028 10.4352V25.1922C179.028 25.338 178.942 25.4547 178.798 25.4547H175.038C174.952 25.4547 174.837 25.3672 174.809 25.2505L173.919 21.5758C173.89 21.3717 173.804 21.2842 173.747 21.2842C173.69 21.2842 173.632 21.3717 173.632 21.5758V25.1922C173.632 25.338 173.517 25.4547 173.374 25.4547H170.332C170.217 25.4547 170.131 25.338 170.131 25.163V10.406H170.159Z" stroke="#5C5C5C" stroke-width="4" mask="url(#path-1-inside-1_1367_4547)"/>
<path d="M180.118 25.4547C179.975 25.4547 179.86 25.3088 179.86 25.163V10.3477C179.86 10.2602 179.946 10.1435 180.032 10.1435H183.476C183.62 10.1435 183.706 10.231 183.706 10.3477V25.1922C183.706 25.3088 183.591 25.4547 183.476 25.4547H180.118Z" stroke="#5C5C5C" stroke-width="4" mask="url(#path-1-inside-1_1367_4547)"/>
<path d="M187.207 25.4547C187.064 25.4547 186.92 25.338 186.92 25.163V14.5181C186.92 14.3723 186.805 14.2848 186.662 14.2848H184.653C184.538 14.2848 184.395 14.1098 184.395 13.9932V10.3477C184.395 10.231 184.452 10.1435 184.567 10.1435H193.177C193.32 10.1435 193.435 10.231 193.435 10.3768V13.964C193.435 14.139 193.32 14.2557 193.148 14.2557H191.139C190.995 14.2557 190.909 14.3723 190.909 14.5473V25.1922C190.909 25.338 190.795 25.4547 190.622 25.4547H187.207Z" stroke="#5C5C5C" stroke-width="4" mask="url(#path-1-inside-1_1367_4547)"/>
<path d="M194.152 10.406C194.152 10.2893 194.267 10.1435 194.411 10.1435H201.557C201.672 10.1435 201.758 10.2602 201.758 10.3768V14.0515C201.758 14.1682 201.672 14.2557 201.528 14.2557H198.17C198.084 14.2557 198.027 14.314 198.027 14.4015V15.5389C198.027 15.6264 198.113 15.6847 198.17 15.6847H199.749C199.835 15.6847 199.892 15.743 199.892 15.8305V19.5344C199.892 19.6218 199.806 19.7093 199.72 19.7093H198.084C197.998 19.7093 197.941 19.7677 197.941 19.8843V21.08C197.941 21.1675 197.998 21.2259 198.056 21.2259H201.528C201.672 21.2259 201.758 21.3134 201.758 21.43V25.2214C201.758 25.338 201.643 25.4547 201.528 25.4547H194.325C194.21 25.4547 194.095 25.338 194.095 25.1922V10.406H194.152Z" stroke="#5C5C5C" stroke-width="4" mask="url(#path-1-inside-1_1367_4547)"/>
</svg>
