<svg width="174" height="92" viewBox="0 0 174 92" fill="none" xmlns="http://www.w3.org/2000/svg">
<mask id="path-1-inside-1_1367_4539" fill="white">
<path d="M3.62793 41.1423C1.61501 41.1423 0 39.5031 0 37.46V28.7887C0 26.7456 1.61501 25.1064 3.62793 25.1064C5.64084 25.1064 7.25585 26.7456 7.25585 28.7887V37.46C7.25585 39.5031 5.61743 41.1423 3.62793 41.1423Z"/>
<path d="M24.4592 41.1423C22.4463 41.1423 20.8313 39.5031 20.8313 37.46V18.692C20.8313 16.6488 22.4463 15.0096 24.4592 15.0096C26.4722 15.0096 28.0872 16.6488 28.0872 18.692V37.46C28.0872 39.5031 26.4487 41.1423 24.4592 41.1423Z"/>
<path d="M66.1219 41.1423C64.109 41.1423 62.4939 39.5031 62.4939 37.46V18.692C62.4939 16.6488 64.109 15.0096 66.1219 15.0096C68.1348 15.0096 69.7498 16.6488 69.7498 18.692V37.46C69.7498 39.5031 68.1114 41.1423 66.1219 41.1423Z"/>
<path d="M45.2906 48.9822C43.2776 48.9822 41.6626 47.3429 41.6626 45.2998V4.20016C41.6626 2.15706 43.2776 0.517822 45.2906 0.517822C47.3035 0.517822 48.9185 2.15706 48.9185 4.20016V45.2998C48.9185 47.3429 47.2801 48.9822 45.2906 48.9822Z"/>
<path d="M86.8128 41.1423C84.7999 41.1423 83.1848 39.5031 83.1848 37.46V28.7887C83.1848 26.7456 84.7999 25.1064 86.8128 25.1064C88.8257 25.1064 90.4407 26.7456 90.4407 28.7887V37.46C90.4407 39.5031 88.8257 41.1423 86.8128 41.1423Z"/>
<path d="M170.372 41.1423C168.359 41.1423 166.744 39.5031 166.744 37.46V28.7887C166.744 26.7456 168.359 25.1064 170.372 25.1064C172.385 25.1064 174 26.7456 174 28.7887V37.46C174 39.5031 172.385 41.1423 170.372 41.1423Z"/>
<path d="M107.644 41.1423C105.631 41.1423 104.016 39.5031 104.016 37.46V18.692C104.016 16.6488 105.631 15.0096 107.644 15.0096C109.657 15.0096 111.272 16.6488 111.272 18.692V37.46C111.272 39.5031 109.657 41.1423 107.644 41.1423Z"/>
<path d="M149.307 41.1423C147.294 41.1423 145.679 39.5031 145.679 37.46V18.692C145.679 16.6488 147.294 15.0096 149.307 15.0096C151.32 15.0096 152.935 16.6488 152.935 18.692V37.46C152.935 39.5031 151.32 41.1423 149.307 41.1423Z"/>
<path d="M128.475 48.9822C126.462 48.9822 124.847 47.3429 124.847 45.2998V4.20016C124.847 2.15706 126.462 0.517822 128.475 0.517822C130.488 0.517822 132.103 2.15706 132.103 4.20016V45.2998C132.103 47.3429 130.488 48.9822 128.475 48.9822Z"/>
<path d="M32.6513 91.8636C29.8426 91.8636 27.7595 91.1509 26.4254 89.7017C25.0912 88.2525 24.389 85.8531 24.3188 82.5033L30.2171 81.7194C30.2171 82.6696 30.2639 83.4774 30.381 84.1188C30.4746 84.7603 30.6384 85.2592 30.8257 85.6155C31.0129 85.9481 31.2236 86.2094 31.4576 86.3282C31.6917 86.447 31.9492 86.542 32.23 86.542C33.0024 86.542 33.4003 85.9719 33.4003 84.8315C33.4003 83.715 33.1429 82.7647 32.6513 81.9569C32.1598 81.1492 31.364 80.2702 30.2639 79.3199L28.4617 77.7757C27.8063 77.2055 27.268 76.7066 26.8701 76.2552C26.4488 75.8039 26.0274 75.2812 25.6061 74.6398C25.1848 73.9983 24.8571 73.2856 24.6465 72.5016C24.4358 71.7177 24.3422 70.8624 24.3422 69.9121C24.3422 67.4176 25.0912 65.4933 26.5658 64.1392C28.0404 62.785 30.1001 62.0961 32.6981 62.0961C37.3559 62.0961 39.7199 64.8994 39.7433 70.506L33.7046 71.1237C33.7046 70.3635 33.7046 69.7933 33.6812 69.437C33.6578 69.0569 33.611 68.6768 33.5408 68.2729C33.4705 67.869 33.3301 67.5839 33.1663 67.4414C32.979 67.2751 32.745 67.2038 32.4641 67.2038C32.0428 67.2038 31.7151 67.4414 31.5044 67.8928C31.2938 68.3442 31.1768 68.7718 31.1768 69.2232C31.1768 69.4607 31.2002 69.6983 31.247 69.9359C31.2938 70.1734 31.3172 70.3635 31.364 70.5536C31.3874 70.7436 31.481 70.9337 31.5981 71.1475C31.7151 71.3613 31.8087 71.5276 31.8555 71.6701C31.9024 71.7889 32.0194 71.9552 32.2066 72.169C32.3939 72.3829 32.4875 72.5254 32.5577 72.5967C32.6045 72.6679 32.745 72.8342 32.979 73.0243C33.1897 73.2381 33.3301 73.3569 33.3769 73.4044C33.4237 73.4519 33.5642 73.5707 33.8216 73.8083C34.0791 74.0458 34.2195 74.1646 34.2429 74.1884L35.8814 75.6613C36.5835 76.3028 37.1687 76.8967 37.6602 77.4431C38.1517 77.9895 38.6199 78.631 39.0646 79.3674C39.5093 80.1039 39.837 80.8879 40.071 81.7431C40.3051 82.5984 40.3987 83.5249 40.3987 84.4989C40.3987 86.5658 39.6965 88.3238 38.2922 89.7255C36.7942 91.1509 34.9451 91.8636 32.6513 91.8636Z"/>
<path d="M50.2058 91.4122V79.1536L45.0097 62.5712H51.5868L53.8337 70.2922L55.7062 62.5712H62.0024L56.8999 79.1536V91.4122H50.2058Z"/>
<path d="M75.6013 91.8636C72.7926 91.8636 70.7094 91.1509 69.3753 89.7017C68.0412 88.2525 67.339 85.8531 67.2688 82.5033L73.1671 81.7194C73.1671 82.6696 73.2139 83.4774 73.3309 84.1188C73.4245 84.7603 73.5884 85.2592 73.7756 85.6155C73.9629 85.9481 74.1735 86.2094 74.4076 86.3282C74.6417 86.447 74.8991 86.542 75.18 86.542C75.9524 86.542 76.3503 85.9719 76.3503 84.8315C76.3503 83.715 76.0928 82.7647 75.6013 81.9569C75.1098 81.1492 74.314 80.2702 73.2139 79.3199L71.4116 77.7757C70.7563 77.2055 70.2179 76.7066 69.82 76.2552C69.3987 75.8039 68.9774 75.2812 68.5561 74.6398C68.1348 73.9983 67.8071 73.2856 67.5965 72.5016C67.3858 71.7177 67.2922 70.8624 67.2922 69.9121C67.2922 67.4176 68.0412 65.4933 69.5157 64.1392C70.9903 62.785 73.05 62.0961 75.6481 62.0961C80.3059 62.0961 82.6699 64.8994 82.6933 70.506L76.6546 71.1237C76.6546 70.3635 76.6546 69.7933 76.6312 69.437C76.6078 69.0569 76.5609 68.6768 76.4907 68.2729C76.4205 67.869 76.2801 67.5839 76.1162 67.4414C75.929 67.2751 75.6949 67.2038 75.414 67.2038C74.9927 67.2038 74.6651 67.4414 74.4544 67.8928C74.2438 68.3442 74.1267 68.7718 74.1267 69.2232C74.1267 69.4607 74.1501 69.6983 74.1969 69.9359C74.2438 70.1734 74.2672 70.3635 74.314 70.5536C74.3374 70.7436 74.431 70.9337 74.548 71.1475C74.6651 71.3613 74.7587 71.5276 74.8055 71.6701C74.8523 71.7889 74.9693 71.9552 75.1566 72.169C75.3438 72.3829 75.4375 72.5254 75.5077 72.5967C75.5545 72.6679 75.6949 72.8342 75.929 73.0243C76.1396 73.2381 76.2801 73.3569 76.3269 73.4044C76.3737 73.4519 76.5141 73.5707 76.7716 73.8083C77.0291 74.0458 77.1695 74.1646 77.1929 74.1884L78.8313 75.6613C79.5335 76.3028 80.1187 76.8967 80.6102 77.4431C81.1017 77.9895 81.5698 78.631 82.0145 79.3674C82.4593 80.1039 82.7869 80.8879 83.021 81.7431C83.2551 82.5984 83.3487 83.5249 83.3487 84.4989C83.3487 86.5658 82.6465 88.3238 81.2421 89.7255C79.7208 91.1509 77.8717 91.8636 75.6013 91.8636Z"/>
<path d="M92.3132 91.4122V67.774H88.1703V62.5474H103.408V67.774H99.2647V91.4122H92.3132Z"/>
<path d="M109.446 91.4122V62.5474H122.741V67.2751H116.398V73.7132H121.126V78.631H116.398V86.6846H122.811V91.3885H109.446V91.4122Z"/>
<path d="M129.084 91.4122V62.5474H136.036V73.7845L140.342 62.5474H147.177L142.027 75.6613L147.247 91.4122H140.108L136.41 78.916L136.059 79.3674V91.4122H129.084Z"/>
</mask>
<path d="M3.62793 41.1423C1.61501 41.1423 0 39.5031 0 37.46V28.7887C0 26.7456 1.61501 25.1064 3.62793 25.1064C5.64084 25.1064 7.25585 26.7456 7.25585 28.7887V37.46C7.25585 39.5031 5.61743 41.1423 3.62793 41.1423Z" stroke="#5C5C5C" stroke-width="4" mask="url(#path-1-inside-1_1367_4539)"/>
<path d="M24.4592 41.1423C22.4463 41.1423 20.8313 39.5031 20.8313 37.46V18.692C20.8313 16.6488 22.4463 15.0096 24.4592 15.0096C26.4722 15.0096 28.0872 16.6488 28.0872 18.692V37.46C28.0872 39.5031 26.4487 41.1423 24.4592 41.1423Z" stroke="#5C5C5C" stroke-width="4" mask="url(#path-1-inside-1_1367_4539)"/>
<path d="M66.1219 41.1423C64.109 41.1423 62.4939 39.5031 62.4939 37.46V18.692C62.4939 16.6488 64.109 15.0096 66.1219 15.0096C68.1348 15.0096 69.7498 16.6488 69.7498 18.692V37.46C69.7498 39.5031 68.1114 41.1423 66.1219 41.1423Z" stroke="#5C5C5C" stroke-width="4" mask="url(#path-1-inside-1_1367_4539)"/>
<path d="M45.2906 48.9822C43.2776 48.9822 41.6626 47.3429 41.6626 45.2998V4.20016C41.6626 2.15706 43.2776 0.517822 45.2906 0.517822C47.3035 0.517822 48.9185 2.15706 48.9185 4.20016V45.2998C48.9185 47.3429 47.2801 48.9822 45.2906 48.9822Z" stroke="#5C5C5C" stroke-width="4" mask="url(#path-1-inside-1_1367_4539)"/>
<path d="M86.8128 41.1423C84.7999 41.1423 83.1848 39.5031 83.1848 37.46V28.7887C83.1848 26.7456 84.7999 25.1064 86.8128 25.1064C88.8257 25.1064 90.4407 26.7456 90.4407 28.7887V37.46C90.4407 39.5031 88.8257 41.1423 86.8128 41.1423Z" stroke="#5C5C5C" stroke-width="4" mask="url(#path-1-inside-1_1367_4539)"/>
<path d="M170.372 41.1423C168.359 41.1423 166.744 39.5031 166.744 37.46V28.7887C166.744 26.7456 168.359 25.1064 170.372 25.1064C172.385 25.1064 174 26.7456 174 28.7887V37.46C174 39.5031 172.385 41.1423 170.372 41.1423Z" stroke="#5C5C5C" stroke-width="4" mask="url(#path-1-inside-1_1367_4539)"/>
<path d="M107.644 41.1423C105.631 41.1423 104.016 39.5031 104.016 37.46V18.692C104.016 16.6488 105.631 15.0096 107.644 15.0096C109.657 15.0096 111.272 16.6488 111.272 18.692V37.46C111.272 39.5031 109.657 41.1423 107.644 41.1423Z" stroke="#5C5C5C" stroke-width="4" mask="url(#path-1-inside-1_1367_4539)"/>
<path d="M149.307 41.1423C147.294 41.1423 145.679 39.5031 145.679 37.46V18.692C145.679 16.6488 147.294 15.0096 149.307 15.0096C151.32 15.0096 152.935 16.6488 152.935 18.692V37.46C152.935 39.5031 151.32 41.1423 149.307 41.1423Z" stroke="#5C5C5C" stroke-width="4" mask="url(#path-1-inside-1_1367_4539)"/>
<path d="M128.475 48.9822C126.462 48.9822 124.847 47.3429 124.847 45.2998V4.20016C124.847 2.15706 126.462 0.517822 128.475 0.517822C130.488 0.517822 132.103 2.15706 132.103 4.20016V45.2998C132.103 47.3429 130.488 48.9822 128.475 48.9822Z" stroke="#5C5C5C" stroke-width="4" mask="url(#path-1-inside-1_1367_4539)"/>
<path d="M32.6513 91.8636C29.8426 91.8636 27.7595 91.1509 26.4254 89.7017C25.0912 88.2525 24.389 85.8531 24.3188 82.5033L30.2171 81.7194C30.2171 82.6696 30.2639 83.4774 30.381 84.1188C30.4746 84.7603 30.6384 85.2592 30.8257 85.6155C31.0129 85.9481 31.2236 86.2094 31.4576 86.3282C31.6917 86.447 31.9492 86.542 32.23 86.542C33.0024 86.542 33.4003 85.9719 33.4003 84.8315C33.4003 83.715 33.1429 82.7647 32.6513 81.9569C32.1598 81.1492 31.364 80.2702 30.2639 79.3199L28.4617 77.7757C27.8063 77.2055 27.268 76.7066 26.8701 76.2552C26.4488 75.8039 26.0274 75.2812 25.6061 74.6398C25.1848 73.9983 24.8571 73.2856 24.6465 72.5016C24.4358 71.7177 24.3422 70.8624 24.3422 69.9121C24.3422 67.4176 25.0912 65.4933 26.5658 64.1392C28.0404 62.785 30.1001 62.0961 32.6981 62.0961C37.3559 62.0961 39.7199 64.8994 39.7433 70.506L33.7046 71.1237C33.7046 70.3635 33.7046 69.7933 33.6812 69.437C33.6578 69.0569 33.611 68.6768 33.5408 68.2729C33.4705 67.869 33.3301 67.5839 33.1663 67.4414C32.979 67.2751 32.745 67.2038 32.4641 67.2038C32.0428 67.2038 31.7151 67.4414 31.5044 67.8928C31.2938 68.3442 31.1768 68.7718 31.1768 69.2232C31.1768 69.4607 31.2002 69.6983 31.247 69.9359C31.2938 70.1734 31.3172 70.3635 31.364 70.5536C31.3874 70.7436 31.481 70.9337 31.5981 71.1475C31.7151 71.3613 31.8087 71.5276 31.8555 71.6701C31.9024 71.7889 32.0194 71.9552 32.2066 72.169C32.3939 72.3829 32.4875 72.5254 32.5577 72.5967C32.6045 72.6679 32.745 72.8342 32.979 73.0243C33.1897 73.2381 33.3301 73.3569 33.3769 73.4044C33.4237 73.4519 33.5642 73.5707 33.8216 73.8083C34.0791 74.0458 34.2195 74.1646 34.2429 74.1884L35.8814 75.6613C36.5835 76.3028 37.1687 76.8967 37.6602 77.4431C38.1517 77.9895 38.6199 78.631 39.0646 79.3674C39.5093 80.1039 39.837 80.8879 40.071 81.7431C40.3051 82.5984 40.3987 83.5249 40.3987 84.4989C40.3987 86.5658 39.6965 88.3238 38.2922 89.7255C36.7942 91.1509 34.9451 91.8636 32.6513 91.8636Z" stroke="#5C5C5C" stroke-width="4" mask="url(#path-1-inside-1_1367_4539)"/>
<path d="M50.2058 91.4122V79.1536L45.0097 62.5712H51.5868L53.8337 70.2922L55.7062 62.5712H62.0024L56.8999 79.1536V91.4122H50.2058Z" stroke="#5C5C5C" stroke-width="4" mask="url(#path-1-inside-1_1367_4539)"/>
<path d="M75.6013 91.8636C72.7926 91.8636 70.7094 91.1509 69.3753 89.7017C68.0412 88.2525 67.339 85.8531 67.2688 82.5033L73.1671 81.7194C73.1671 82.6696 73.2139 83.4774 73.3309 84.1188C73.4245 84.7603 73.5884 85.2592 73.7756 85.6155C73.9629 85.9481 74.1735 86.2094 74.4076 86.3282C74.6417 86.447 74.8991 86.542 75.18 86.542C75.9524 86.542 76.3503 85.9719 76.3503 84.8315C76.3503 83.715 76.0928 82.7647 75.6013 81.9569C75.1098 81.1492 74.314 80.2702 73.2139 79.3199L71.4116 77.7757C70.7563 77.2055 70.2179 76.7066 69.82 76.2552C69.3987 75.8039 68.9774 75.2812 68.5561 74.6398C68.1348 73.9983 67.8071 73.2856 67.5965 72.5016C67.3858 71.7177 67.2922 70.8624 67.2922 69.9121C67.2922 67.4176 68.0412 65.4933 69.5157 64.1392C70.9903 62.785 73.05 62.0961 75.6481 62.0961C80.3059 62.0961 82.6699 64.8994 82.6933 70.506L76.6546 71.1237C76.6546 70.3635 76.6546 69.7933 76.6312 69.437C76.6078 69.0569 76.5609 68.6768 76.4907 68.2729C76.4205 67.869 76.2801 67.5839 76.1162 67.4414C75.929 67.2751 75.6949 67.2038 75.414 67.2038C74.9927 67.2038 74.6651 67.4414 74.4544 67.8928C74.2438 68.3442 74.1267 68.7718 74.1267 69.2232C74.1267 69.4607 74.1501 69.6983 74.1969 69.9359C74.2438 70.1734 74.2672 70.3635 74.314 70.5536C74.3374 70.7436 74.431 70.9337 74.548 71.1475C74.6651 71.3613 74.7587 71.5276 74.8055 71.6701C74.8523 71.7889 74.9693 71.9552 75.1566 72.169C75.3438 72.3829 75.4375 72.5254 75.5077 72.5967C75.5545 72.6679 75.6949 72.8342 75.929 73.0243C76.1396 73.2381 76.2801 73.3569 76.3269 73.4044C76.3737 73.4519 76.5141 73.5707 76.7716 73.8083C77.0291 74.0458 77.1695 74.1646 77.1929 74.1884L78.8313 75.6613C79.5335 76.3028 80.1187 76.8967 80.6102 77.4431C81.1017 77.9895 81.5698 78.631 82.0145 79.3674C82.4593 80.1039 82.7869 80.8879 83.021 81.7431C83.2551 82.5984 83.3487 83.5249 83.3487 84.4989C83.3487 86.5658 82.6465 88.3238 81.2421 89.7255C79.7208 91.1509 77.8717 91.8636 75.6013 91.8636Z" stroke="#5C5C5C" stroke-width="4" mask="url(#path-1-inside-1_1367_4539)"/>
<path d="M92.3132 91.4122V67.774H88.1703V62.5474H103.408V67.774H99.2647V91.4122H92.3132Z" stroke="#5C5C5C" stroke-width="4" mask="url(#path-1-inside-1_1367_4539)"/>
<path d="M109.446 91.4122V62.5474H122.741V67.2751H116.398V73.7132H121.126V78.631H116.398V86.6846H122.811V91.3885H109.446V91.4122Z" stroke="#5C5C5C" stroke-width="4" mask="url(#path-1-inside-1_1367_4539)"/>
<path d="M129.084 91.4122V62.5474H136.036V73.7845L140.342 62.5474H147.177L142.027 75.6613L147.247 91.4122H140.108L136.41 78.916L136.059 79.3674V91.4122H129.084Z" stroke="#5C5C5C" stroke-width="4" mask="url(#path-1-inside-1_1367_4539)"/>
</svg>
