<svg width="169" height="70" viewBox="0 0 169 70" fill="none" xmlns="http://www.w3.org/2000/svg">
<path d="M109.111 40.3411C110.083 40.1059 110.083 40.1056 110.083 40.1053L110.083 40.1044L110.082 40.102L110.08 40.0948L110.074 40.0705C110.069 40.0501 110.062 40.0213 110.052 39.9845C110.033 39.911 110.004 39.8059 109.966 39.6737C109.891 39.4093 109.777 39.0353 109.622 38.5877C109.313 37.6955 108.835 36.4949 108.164 35.2803C106.861 32.9239 104.624 30.1615 101.175 30.0583C98.1093 29.9666 96.0326 30.7092 94.6953 31.5368C94.0316 31.9475 93.5628 32.3712 93.2525 32.7052C93.0975 32.872 92.9822 33.0162 92.9018 33.1251C92.8616 33.1796 92.8302 33.2252 92.8068 33.2605C92.8007 33.2698 92.7951 33.2784 92.79 33.2862C92.7855 33.2932 92.7814 33.2997 92.7777 33.3055L92.7676 33.3219L92.7636 33.3284L92.7619 33.3313L92.7611 33.3326C92.7607 33.3332 92.7604 33.3339 93.6194 33.8457L92.7604 33.3339L92.6194 33.5704V33.8457V54.6254V55.0273L92.8976 55.3175L93.6194 54.6254C92.8976 55.3175 92.898 55.3179 92.8984 55.3183L92.8993 55.3192L92.9013 55.3213L92.9066 55.3267L92.9222 55.3425L92.9326 55.353C92.9436 55.364 92.9571 55.3773 92.9729 55.3927C93.0153 55.4341 93.075 55.4907 93.1514 55.5595C93.3039 55.697 93.5236 55.8839 93.8055 56.095C94.3676 56.5158 95.1871 57.0403 96.2223 57.4571C98.316 58.3 101.27 58.6877 104.658 56.9525C106.463 56.028 107.672 54.4417 108.481 52.6917C109.289 50.9436 109.728 48.9677 109.963 47.144C110.199 45.314 110.235 43.5939 110.212 42.335C110.201 41.7042 110.175 41.1857 110.151 40.8228C110.14 40.6412 110.129 40.4984 110.12 40.3997C110.119 40.3827 110.118 40.3669 110.116 40.3526C110.114 40.3253 110.112 40.3028 110.11 40.2853L110.107 40.2542L110.106 40.2453L110.106 40.2426L110.106 40.2417C110.106 40.2413 110.106 40.241 109.111 40.3411ZM109.111 40.3411L110.083 40.1059L110.099 40.1727L110.106 40.241L109.111 40.3411ZM14.2206 31.3165V52.148L14.2206 52.1511L14.2205 52.1791C14.2206 52.1881 14.2206 52.1982 14.2208 52.2094C14.221 52.226 14.2214 52.2452 14.2221 52.2667C14.2242 52.3384 14.2291 52.4366 14.2397 52.5566C14.2608 52.7958 14.3052 53.1259 14.3982 53.5083C14.5832 54.2682 14.97 55.2723 15.7856 56.168C17.3581 57.895 20.1943 58.8966 25.0971 57.7579V66.9335C24.9529 67.0029 24.7746 67.0833 24.5623 67.1697C23.8558 67.4576 22.7708 67.8133 21.3064 68.0519C18.4098 68.5239 13.9952 68.5433 8.04991 66.6318C8.0245 66.6117 7.99526 66.5883 7.96245 66.5617C7.82016 66.4462 7.61101 66.2699 7.35517 66.035C6.84282 65.5645 6.1473 64.8626 5.42772 63.9478C3.985 62.1138 2.47456 59.4616 2.10447 56.1246C1.71607 52.6225 1.71333 41.264 1.81289 30.6828C1.86246 25.4139 1.93683 20.3679 1.99881 16.6389C2.0298 14.7745 2.05769 13.2395 2.07783 12.1708C2.08425 11.8299 2.08989 11.5365 2.09458 11.2949L14.5146 8.69282V19.2454V20.2454H15.5146H25.0971V30.3165H15.2206H14.2206V31.3165ZM48.118 20.5941C48.1354 20.5841 48.1509 20.5753 48.1646 20.5677C50.5524 19.7807 52.3798 19.7473 53.5831 19.8932C54.0948 19.9552 54.4978 20.0502 54.7869 20.1361V31.3022C52.2588 30.3947 49.8427 31.0671 48.0529 31.9906C46.9759 32.5464 46.0869 33.2092 45.4698 33.7287C45.1598 33.9897 44.9148 34.2177 44.745 34.3827C44.66 34.4653 44.5937 34.5324 44.5473 34.5803C44.524 34.6043 44.5058 34.6234 44.4926 34.6374L44.4767 34.6543L44.4717 34.6597L44.47 34.6616L44.4692 34.6623C44.4689 34.6627 44.4687 34.663 45.2044 35.3402L44.4687 34.663L44.2044 34.9501V35.3402V68.3119H31.8004V20.3844L42.272 20.3355L42.8366 23.6935L44.7732 23.8388C45.0276 23.0616 45.8024 22.2473 46.6726 21.5674C47.0859 21.2444 47.4813 20.9818 47.7736 20.8001C47.9192 20.7096 48.0376 20.64 48.118 20.5941ZM118.544 28.4202L118.545 28.4209L118.545 28.421L118.545 28.4214L118.545 28.4219L118.56 28.4505L118.578 28.4789L118.578 28.479L118.578 28.4792L118.578 28.4797L118.58 28.4816L118.589 28.4966C118.597 28.5109 118.611 28.5338 118.629 28.565C118.666 28.6275 118.721 28.7235 118.792 28.8512C118.934 29.1067 119.138 29.489 119.378 29.9844C119.859 30.976 120.485 32.4174 121.056 34.201C122.2 37.7735 123.113 42.6812 122.234 48.0844C121.336 53.6047 120.041 57.0983 118.997 59.1865C118.476 60.2306 118.017 60.9245 117.7 61.3462C117.542 61.5571 117.419 61.7002 117.342 61.7852C117.304 61.8277 117.276 61.8558 117.262 61.8705L117.25 61.8817L117.25 61.8819L117.249 61.8829L117.11 62.0093L117.029 62.1809C117.03 62.1798 117.03 62.1799 117.029 62.1811C117.029 62.1813 117.029 62.1817 117.029 62.1821C117.027 62.1852 117.024 62.1918 117.018 62.2017C117.006 62.2243 116.984 62.2641 116.951 62.3194C116.885 62.4299 116.774 62.6021 116.609 62.8211C116.279 63.2585 115.729 63.8843 114.879 64.5784C113.193 65.9555 110.295 67.6256 105.519 68.6039C105.481 68.6053 105.425 68.607 105.353 68.6081C105.191 68.6106 104.947 68.6104 104.635 68.5987C104.009 68.5754 103.11 68.5064 102.037 68.3227C99.888 67.9547 97.0691 67.1313 94.3506 65.3185L92.7958 64.2816V66.1505V68.3119H79.7157V4.37925L90.8263 1.84618V23.4128V25.0654L92.2903 24.2986L93.1133 23.8675L93.3172 23.7608L93.4515 23.5787L93.4519 23.5783L93.4527 23.5772L93.4532 23.5765L93.4538 23.5757L93.4555 23.5736C93.4601 23.5675 93.4689 23.5562 93.4819 23.5399C93.5078 23.5075 93.5502 23.4557 93.6093 23.3877C93.7275 23.2517 93.9117 23.0515 94.1629 22.8127C94.6659 22.3344 95.4329 21.7051 96.4708 21.1238C98.5321 19.9693 101.699 18.982 106.077 19.7973C110.468 20.6152 113.59 22.7804 115.621 24.7487C116.636 25.7333 117.375 26.6651 117.857 27.3461C118.098 27.6862 118.274 27.9627 118.388 28.1503C118.445 28.2442 118.486 28.3157 118.512 28.3617C118.525 28.3848 118.534 28.4014 118.54 28.4113L118.544 28.4202ZM95.0042 54.494C94.8504 54.3788 94.7216 54.2741 94.6194 54.187V34.1768C94.6478 34.1435 94.6804 34.1066 94.7176 34.0666C94.9181 33.8508 95.2503 33.5453 95.7477 33.2375C96.7327 32.628 98.4186 31.9767 101.115 32.0574C103.428 32.1266 105.174 34.0059 106.413 36.2481C107.013 37.3327 107.447 38.4206 107.732 39.2421C107.873 39.6513 107.977 39.9904 108.044 40.225C108.077 40.3422 108.102 40.433 108.118 40.493C108.119 40.4994 108.121 40.5055 108.123 40.5112C108.124 40.527 108.125 40.5454 108.127 40.5662C108.134 40.6531 108.145 40.7832 108.155 40.9512C108.177 41.2875 108.202 41.775 108.212 42.371C108.234 43.5659 108.199 45.1833 107.98 46.8884C107.759 48.5999 107.357 50.3567 106.666 51.8527C105.975 53.3468 105.028 54.516 103.746 55.1723C100.961 56.5987 98.6235 56.2678 96.9692 55.6018C96.1305 55.2641 95.4617 54.8366 95.0042 54.494ZM155.032 20.5033C155.072 20.5149 155.103 20.5242 155.125 20.5308C155.14 20.5371 155.159 20.5454 155.182 20.5556C155.25 20.5858 155.354 20.6334 155.49 20.6993C155.761 20.8312 156.158 21.0359 156.643 21.3207C157.614 21.8908 158.932 22.7779 160.304 24.0378C163.036 26.5483 165.971 30.5283 166.82 36.4524C166.822 36.4726 166.824 36.4861 166.825 36.491C166.83 36.5297 166.837 36.5628 166.841 36.5807C166.843 36.5867 166.844 36.591 166.844 36.5932C166.851 36.622 166.859 36.6516 166.864 36.6678C166.882 36.7325 166.883 36.7354 166.908 36.8245C166.944 36.9546 166.997 37.1505 167.059 37.4117C167.182 37.9344 167.344 38.7251 167.481 39.7735C167.734 41.7141 167.902 44.543 167.583 48.1933H140.565H139.565V49.1933H140.565C139.565 49.1933 139.565 49.1938 139.565 49.1943V49.1955L139.565 49.1983L139.565 49.2059L139.565 49.229C139.565 49.2477 139.566 49.2733 139.567 49.3053C139.569 49.3691 139.573 49.4586 139.58 49.5703C139.594 49.7934 139.623 50.1067 139.68 50.4827C139.793 51.2309 140.021 52.2479 140.483 53.3022C141.42 55.4409 143.343 57.7496 147.118 58.2048C150.475 58.6097 153.119 58.8012 155.983 58.4713C158.527 58.1783 161.201 57.4795 164.68 56.2079L164.752 65.142C164.748 65.1437 164.744 65.1454 164.74 65.1471C164.359 65.3175 163.796 65.5579 163.081 65.8327C161.65 66.3828 159.616 67.0683 157.212 67.6068C152.385 68.688 146.167 69.1549 140.344 66.8587C134.566 64.5743 131.346 60.4082 129.56 56.781C128.666 54.9657 128.136 53.2931 127.83 52.0771C127.677 51.4699 127.581 50.9789 127.523 50.6437C127.494 50.4762 127.475 50.3479 127.464 50.2637C127.458 50.2216 127.454 50.1905 127.451 50.1712L127.449 50.151L127.449 50.1489L127.449 50.1481L127.449 50.1477L127.449 50.1475L127.444 50.1056L127.436 50.0635L127.436 50.0633L127.436 50.0628L127.436 50.0627L127.435 50.0571L127.429 50.0295C127.425 50.004 127.417 49.9642 127.408 49.9108C127.389 49.804 127.363 49.6429 127.332 49.4325C127.269 49.0115 127.189 48.394 127.12 47.6201C126.982 46.0708 126.891 43.9031 127.077 41.4367C127.45 36.4862 128.932 30.4407 133.275 25.7287C137.59 21.0476 143.024 19.7373 147.449 19.6127C149.661 19.5504 151.602 19.7858 152.989 20.0371C153.681 20.1626 154.233 20.2915 154.608 20.3879C154.795 20.436 154.938 20.476 155.032 20.5033ZM141.317 37.7891C141.325 37.6598 141.338 37.5151 141.355 37.3576C141.431 36.6631 141.602 35.7463 141.976 34.8257C142.349 33.907 142.913 33.011 143.762 32.3152C144.601 31.6268 145.77 31.0917 147.432 30.9627C149.054 30.8369 150.214 31.2544 151.073 31.901C151.954 32.5635 152.587 33.5189 153.037 34.5587C153.485 35.5957 153.728 36.6646 153.858 37.4857C153.875 37.5917 153.889 37.693 153.902 37.7891H141.317ZM154.998 38.7891C155.998 38.7641 155.998 38.7637 155.998 38.7633L155.998 38.7622L155.998 38.7593L155.997 38.7511L155.996 38.7245C155.996 38.7023 155.994 38.6714 155.992 38.6324C155.988 38.5544 155.981 38.4437 155.97 38.305C155.948 38.0281 155.907 37.638 155.833 37.1736C155.687 36.2505 155.409 35.0057 154.872 33.765C154.337 32.5271 153.522 31.2407 152.276 30.3027C151.008 29.3488 149.36 28.8071 147.278 28.9687C145.236 29.1271 143.671 29.8027 142.493 30.7687C141.325 31.7273 140.588 32.9294 140.123 34.0729C139.66 35.2144 139.456 36.3238 139.367 37.14C139.322 37.5504 139.305 37.8929 139.3 38.1365C139.297 38.2584 139.297 38.356 139.298 38.4254C139.299 38.4602 139.299 38.4879 139.3 38.5081L139.3 38.5189V38.7891V39.7891H140.3H154.998H156.023L155.998 38.7641L154.998 38.7891ZM60.5202 68.3407V20.5902H72.836V68.3407H60.5202ZM72.836 11.1947L60.5202 13.8403V4.47739L72.836 1.85647V11.1947Z" stroke="#5C5C5C" stroke-width="2"/>
</svg>
