<svg width="134" height="60" viewBox="0 0 134 60" fill="none" xmlns="http://www.w3.org/2000/svg">
<mask id="path-1-inside-1_1367_4533" fill="white">
<path d="M0.242188 58.6188L10.1974 8.95352C10.1974 8.95352 11.7411 2.88065 17.6193 1.63801C23.4974 0.395375 30.3849 0.736098 30.3849 0.736098L133.242 0.696012L123.089 51.9246C123.089 51.9246 122.258 56.5945 116.281 58.5988C116.281 58.5988 115.291 59.16 109.651 59.5007C104.01 59.8414 0.242188 58.6188 0.242188 58.6188Z"/>
<path d="M26.7828 37.7145H23.7349V20.2775H26.7828V37.7145ZM27.8911 20.2775C28.663 20.2775 29.3161 20.3978 29.8505 20.6183C30.3849 20.8588 30.8203 21.1794 31.1568 21.6003C31.4932 22.0212 31.7307 22.5423 31.8891 23.1436C32.0474 23.7449 32.1068 24.4063 32.1068 25.1479C32.1068 26.0698 32.0078 26.8515 31.8099 27.4728C31.612 28.0941 31.2953 28.6353 30.8995 29.0161C30.5037 29.4169 30.0089 29.6975 29.4151 29.8779C28.8214 30.0583 28.1286 30.1585 27.3568 30.1585H27.238V27.9538H27.4953C27.8911 27.9538 28.188 27.8937 28.4255 27.7734C28.6432 27.6532 28.8214 27.4928 28.9401 27.2523C29.0589 27.0118 29.138 26.7112 29.1578 26.3705C29.1974 26.0097 29.1974 25.5888 29.1974 25.1078C29.1974 24.7069 29.1776 24.3462 29.138 24.0255C29.0984 23.7048 28.9995 23.4242 28.8214 23.2037C28.6432 22.9833 28.4057 22.8029 28.0891 22.6826C27.7724 22.5624 27.3172 22.5023 26.7432 22.5023H27.2182V20.2775H27.8911Z"/>
<path d="M33.5714 37.7145V20.2775H36.6193V37.7145H33.5714ZM37.0943 27.6131H38.0443C38.3807 27.6131 38.638 27.5129 38.8359 27.3325C39.0339 27.1521 39.1922 26.9116 39.2911 26.6511C39.4099 26.3905 39.4693 26.1099 39.5089 25.8093C39.5484 25.5086 39.5682 25.2681 39.5682 25.0477C39.5682 24.8272 39.5484 24.5666 39.5286 24.286C39.4891 24.0054 39.4297 23.7248 39.3307 23.4643C39.2318 23.2037 39.0932 22.9833 38.9151 22.8229C38.737 22.6626 38.4995 22.5624 38.2026 22.5624H37.1141V20.2775H37.5297C38.3412 20.2775 39.0734 20.3577 39.7068 20.5381C40.3401 20.7185 40.8745 20.9991 41.3099 21.3598C41.7453 21.7206 42.0818 22.2016 42.2995 22.7828C42.5172 23.3641 42.6359 24.0455 42.6359 24.8472C42.6359 25.2481 42.6161 25.6489 42.5964 26.0698C42.5568 26.4907 42.4776 26.8715 42.3391 27.2523C42.2005 27.6331 41.9828 27.9939 41.7057 28.3146C41.4089 28.6353 41.013 28.9359 40.4786 29.1564L42.9328 37.7145H39.8057L37.8068 29.5773H37.1141L37.0943 27.6131Z"/>
<path d="M48.7911 22.362C48.4547 22.402 48.1974 22.5023 47.9797 22.6826C47.7818 22.863 47.6036 23.0835 47.4849 23.344C47.3661 23.6046 47.287 23.9052 47.2474 24.2259C47.2078 24.5466 47.188 24.8472 47.188 25.1679V32.8041C47.188 33.1248 47.2078 33.4254 47.2474 33.7461C47.287 34.0668 47.3661 34.3474 47.4849 34.6079C47.6036 34.8685 47.762 35.0889 47.9797 35.2693C48.1974 35.4497 48.4547 35.5499 48.7911 35.59V37.9951C47.9005 37.9751 47.1682 37.7947 46.5745 37.474C45.9807 37.1533 45.5057 36.7324 45.1495 36.1913C44.7932 35.6501 44.5359 35.0489 44.3776 34.3273C44.2193 33.6058 44.1401 32.8642 44.1401 32.0625V25.9496C44.1401 25.1278 44.2193 24.3662 44.3578 23.6447C44.5162 22.9231 44.7734 22.3018 45.1297 21.7607C45.4859 21.2195 45.9609 20.7986 46.5745 20.478C47.1682 20.1573 47.9005 19.9769 48.7911 19.9569V22.362ZM49.2859 19.9368C50.1766 19.9769 50.9089 20.1372 51.5026 20.4579C52.0964 20.7786 52.5714 21.1995 52.9474 21.7406C53.3036 22.2818 53.5609 22.9031 53.7193 23.6246C53.8776 24.3462 53.9568 25.1078 53.9568 25.9295V32.0425C53.9568 32.8442 53.8776 33.6058 53.7193 34.3073C53.5609 35.0088 53.3036 35.6501 52.9474 36.1913C52.5911 36.7324 52.1161 37.1734 51.5026 37.494C50.9089 37.8147 50.1568 37.9951 49.2661 38.0352V35.6301C49.6026 35.59 49.8797 35.4898 50.0776 35.3094C50.2953 35.129 50.4536 34.9086 50.5724 34.648C50.6911 34.3875 50.7703 34.0868 50.8099 33.7661C50.8495 33.4455 50.8693 33.1248 50.8693 32.8241V25.1879C50.8693 24.8673 50.8495 24.5666 50.8099 24.246C50.7703 23.9253 50.6911 23.6246 50.5724 23.3641C50.4536 23.1035 50.2953 22.8831 50.0776 22.7027C49.8599 22.5223 49.6026 22.4221 49.2661 22.382L49.2859 19.9368Z"/>
<path d="M59.9338 26.5909L58.0141 37.6945H55.0849L58.7463 20.2575H61.0818L59.9338 26.5909ZM61.5766 20.2775L65.238 37.7145H62.1901L61.438 33.8062H59.2214L59.4786 32.0024H61.2401L60.4089 26.8114L61.5766 20.2775Z"/>
<path d="M70.9776 22.362C70.6412 22.402 70.3839 22.5023 70.1859 22.6826C69.988 22.863 69.8297 23.0835 69.7109 23.344C69.5922 23.6046 69.513 23.9052 69.4734 24.2259C69.4339 24.5466 69.4141 24.8472 69.4141 25.1679V32.7841C69.4141 33.1047 69.4339 33.4054 69.4734 33.7261C69.513 34.0467 69.5922 34.3273 69.7109 34.6079C69.8297 34.8685 69.988 35.109 70.1859 35.2693C70.3839 35.4497 70.6609 35.5499 70.9776 35.59V37.9951C70.087 37.9751 69.3547 37.7947 68.7609 37.454C68.1672 37.1132 67.6922 36.6923 67.3359 36.1512C66.9797 35.6101 66.7224 34.9887 66.5839 34.2672C66.4453 33.5657 66.3661 32.8041 66.3661 32.0024V25.9496C66.3661 25.1278 66.4453 24.3662 66.5839 23.6447C66.7224 22.9231 66.9797 22.3018 67.3359 21.7607C67.6922 21.2195 68.1672 20.7986 68.7609 20.478C69.3547 20.1573 70.087 19.9769 70.9776 19.9569V22.362ZM71.4526 19.9368C72.2641 19.9769 72.9568 20.1372 73.5307 20.4379C74.0849 20.7385 74.5599 21.1394 74.8964 21.6404C75.2526 22.1415 75.4901 22.7428 75.6484 23.4242C75.8068 24.1057 75.8661 24.8472 75.8661 25.6489V26.9717H72.8776V25.4886C72.8776 25.1479 72.8578 24.7871 72.838 24.4464C72.7984 24.0856 72.7391 23.7649 72.6401 23.4843C72.5411 23.2037 72.4026 22.9432 72.2047 22.7428C72.0266 22.5423 71.7693 22.4221 71.4526 22.382V19.9368ZM71.4526 35.6101C71.7693 35.57 72.0068 35.4497 72.2047 35.2493C72.3828 35.0489 72.5411 34.8083 72.6401 34.5077C72.7391 34.2071 72.7984 33.8864 72.838 33.5256C72.8776 33.1649 72.8974 32.8041 72.8974 32.4634V30.7998H75.8859V32.1427C75.8661 32.9043 75.8068 33.6258 75.6682 34.3273C75.5297 35.0288 75.2922 35.6301 74.9557 36.1712C74.6193 36.7124 74.1641 37.1533 73.6099 37.474C73.0557 37.7947 72.3432 37.9951 71.4724 38.0151V35.6101H71.4526Z"/>
<path d="M76.638 20.2775H85.0891V22.6025H76.638V20.2775ZM82.4172 23.0835V37.6945H79.3495V23.0835H82.4172Z"/>
<path d="M86.2568 20.2775H89.3245V37.7145H86.2568V20.2775Z"/>
<path d="M93.9953 37.7145L90.6901 20.2775H93.6193L95.2422 30.399L93.9953 37.7145ZM97.4391 20.2775H100.348L96.9047 37.7145H94.4703L97.4391 20.2775Z"/>
<path d="M101.595 37.7145V20.2775H104.643V37.7145H101.595ZM105.118 20.2775H108.503V22.4421H105.118V20.2775ZM105.118 27.573H107.394V29.7777H105.118V27.573ZM105.118 35.5499H108.503V37.7145H105.118V35.5499Z"/>
</mask>
<path d="M0.242188 58.6188L10.1974 8.95352C10.1974 8.95352 11.7411 2.88065 17.6193 1.63801C23.4974 0.395375 30.3849 0.736098 30.3849 0.736098L133.242 0.696012L123.089 51.9246C123.089 51.9246 122.258 56.5945 116.281 58.5988C116.281 58.5988 115.291 59.16 109.651 59.5007C104.01 59.8414 0.242188 58.6188 0.242188 58.6188Z" stroke="#5C5C5C" stroke-width="2" mask="url(#path-1-inside-1_1367_4533)"/>
<path d="M26.7828 37.7145H23.7349V20.2775H26.7828V37.7145ZM27.8911 20.2775C28.663 20.2775 29.3161 20.3978 29.8505 20.6183C30.3849 20.8588 30.8203 21.1794 31.1568 21.6003C31.4932 22.0212 31.7307 22.5423 31.8891 23.1436C32.0474 23.7449 32.1068 24.4063 32.1068 25.1479C32.1068 26.0698 32.0078 26.8515 31.8099 27.4728C31.612 28.0941 31.2953 28.6353 30.8995 29.0161C30.5037 29.4169 30.0089 29.6975 29.4151 29.8779C28.8214 30.0583 28.1286 30.1585 27.3568 30.1585H27.238V27.9538H27.4953C27.8911 27.9538 28.188 27.8937 28.4255 27.7734C28.6432 27.6532 28.8214 27.4928 28.9401 27.2523C29.0589 27.0118 29.138 26.7112 29.1578 26.3705C29.1974 26.0097 29.1974 25.5888 29.1974 25.1078C29.1974 24.7069 29.1776 24.3462 29.138 24.0255C29.0984 23.7048 28.9995 23.4242 28.8214 23.2037C28.6432 22.9833 28.4057 22.8029 28.0891 22.6826C27.7724 22.5624 27.3172 22.5023 26.7432 22.5023H27.2182V20.2775H27.8911Z" stroke="#5C5C5C" stroke-width="2" mask="url(#path-1-inside-1_1367_4533)"/>
<path d="M33.5714 37.7145V20.2775H36.6193V37.7145H33.5714ZM37.0943 27.6131H38.0443C38.3807 27.6131 38.638 27.5129 38.8359 27.3325C39.0339 27.1521 39.1922 26.9116 39.2911 26.6511C39.4099 26.3905 39.4693 26.1099 39.5089 25.8093C39.5484 25.5086 39.5682 25.2681 39.5682 25.0477C39.5682 24.8272 39.5484 24.5666 39.5286 24.286C39.4891 24.0054 39.4297 23.7248 39.3307 23.4643C39.2318 23.2037 39.0932 22.9833 38.9151 22.8229C38.737 22.6626 38.4995 22.5624 38.2026 22.5624H37.1141V20.2775H37.5297C38.3412 20.2775 39.0734 20.3577 39.7068 20.5381C40.3401 20.7185 40.8745 20.9991 41.3099 21.3598C41.7453 21.7206 42.0818 22.2016 42.2995 22.7828C42.5172 23.3641 42.6359 24.0455 42.6359 24.8472C42.6359 25.2481 42.6161 25.6489 42.5964 26.0698C42.5568 26.4907 42.4776 26.8715 42.3391 27.2523C42.2005 27.6331 41.9828 27.9939 41.7057 28.3146C41.4089 28.6353 41.013 28.9359 40.4786 29.1564L42.9328 37.7145H39.8057L37.8068 29.5773H37.1141L37.0943 27.6131Z" stroke="#5C5C5C" stroke-width="2" mask="url(#path-1-inside-1_1367_4533)"/>
<path d="M48.7911 22.362C48.4547 22.402 48.1974 22.5023 47.9797 22.6826C47.7818 22.863 47.6036 23.0835 47.4849 23.344C47.3661 23.6046 47.287 23.9052 47.2474 24.2259C47.2078 24.5466 47.188 24.8472 47.188 25.1679V32.8041C47.188 33.1248 47.2078 33.4254 47.2474 33.7461C47.287 34.0668 47.3661 34.3474 47.4849 34.6079C47.6036 34.8685 47.762 35.0889 47.9797 35.2693C48.1974 35.4497 48.4547 35.5499 48.7911 35.59V37.9951C47.9005 37.9751 47.1682 37.7947 46.5745 37.474C45.9807 37.1533 45.5057 36.7324 45.1495 36.1913C44.7932 35.6501 44.5359 35.0489 44.3776 34.3273C44.2193 33.6058 44.1401 32.8642 44.1401 32.0625V25.9496C44.1401 25.1278 44.2193 24.3662 44.3578 23.6447C44.5162 22.9231 44.7734 22.3018 45.1297 21.7607C45.4859 21.2195 45.9609 20.7986 46.5745 20.478C47.1682 20.1573 47.9005 19.9769 48.7911 19.9569V22.362ZM49.2859 19.9368C50.1766 19.9769 50.9089 20.1372 51.5026 20.4579C52.0964 20.7786 52.5714 21.1995 52.9474 21.7406C53.3036 22.2818 53.5609 22.9031 53.7193 23.6246C53.8776 24.3462 53.9568 25.1078 53.9568 25.9295V32.0425C53.9568 32.8442 53.8776 33.6058 53.7193 34.3073C53.5609 35.0088 53.3036 35.6501 52.9474 36.1913C52.5911 36.7324 52.1161 37.1734 51.5026 37.494C50.9089 37.8147 50.1568 37.9951 49.2661 38.0352V35.6301C49.6026 35.59 49.8797 35.4898 50.0776 35.3094C50.2953 35.129 50.4536 34.9086 50.5724 34.648C50.6911 34.3875 50.7703 34.0868 50.8099 33.7661C50.8495 33.4455 50.8693 33.1248 50.8693 32.8241V25.1879C50.8693 24.8673 50.8495 24.5666 50.8099 24.246C50.7703 23.9253 50.6911 23.6246 50.5724 23.3641C50.4536 23.1035 50.2953 22.8831 50.0776 22.7027C49.8599 22.5223 49.6026 22.4221 49.2661 22.382L49.2859 19.9368Z" stroke="#5C5C5C" stroke-width="2" mask="url(#path-1-inside-1_1367_4533)"/>
<path d="M59.9338 26.5909L58.0141 37.6945H55.0849L58.7463 20.2575H61.0818L59.9338 26.5909ZM61.5766 20.2775L65.238 37.7145H62.1901L61.438 33.8062H59.2214L59.4786 32.0024H61.2401L60.4089 26.8114L61.5766 20.2775Z" stroke="#5C5C5C" stroke-width="2" mask="url(#path-1-inside-1_1367_4533)"/>
<path d="M70.9776 22.362C70.6412 22.402 70.3839 22.5023 70.1859 22.6826C69.988 22.863 69.8297 23.0835 69.7109 23.344C69.5922 23.6046 69.513 23.9052 69.4734 24.2259C69.4339 24.5466 69.4141 24.8472 69.4141 25.1679V32.7841C69.4141 33.1047 69.4339 33.4054 69.4734 33.7261C69.513 34.0467 69.5922 34.3273 69.7109 34.6079C69.8297 34.8685 69.988 35.109 70.1859 35.2693C70.3839 35.4497 70.6609 35.5499 70.9776 35.59V37.9951C70.087 37.9751 69.3547 37.7947 68.7609 37.454C68.1672 37.1132 67.6922 36.6923 67.3359 36.1512C66.9797 35.6101 66.7224 34.9887 66.5839 34.2672C66.4453 33.5657 66.3661 32.8041 66.3661 32.0024V25.9496C66.3661 25.1278 66.4453 24.3662 66.5839 23.6447C66.7224 22.9231 66.9797 22.3018 67.3359 21.7607C67.6922 21.2195 68.1672 20.7986 68.7609 20.478C69.3547 20.1573 70.087 19.9769 70.9776 19.9569V22.362ZM71.4526 19.9368C72.2641 19.9769 72.9568 20.1372 73.5307 20.4379C74.0849 20.7385 74.5599 21.1394 74.8964 21.6404C75.2526 22.1415 75.4901 22.7428 75.6484 23.4242C75.8068 24.1057 75.8661 24.8472 75.8661 25.6489V26.9717H72.8776V25.4886C72.8776 25.1479 72.8578 24.7871 72.838 24.4464C72.7984 24.0856 72.7391 23.7649 72.6401 23.4843C72.5411 23.2037 72.4026 22.9432 72.2047 22.7428C72.0266 22.5423 71.7693 22.4221 71.4526 22.382V19.9368ZM71.4526 35.6101C71.7693 35.57 72.0068 35.4497 72.2047 35.2493C72.3828 35.0489 72.5411 34.8083 72.6401 34.5077C72.7391 34.2071 72.7984 33.8864 72.838 33.5256C72.8776 33.1649 72.8974 32.8041 72.8974 32.4634V30.7998H75.8859V32.1427C75.8661 32.9043 75.8068 33.6258 75.6682 34.3273C75.5297 35.0288 75.2922 35.6301 74.9557 36.1712C74.6193 36.7124 74.1641 37.1533 73.6099 37.474C73.0557 37.7947 72.3432 37.9951 71.4724 38.0151V35.6101H71.4526Z" stroke="#5C5C5C" stroke-width="2" mask="url(#path-1-inside-1_1367_4533)"/>
<path d="M76.638 20.2775H85.0891V22.6025H76.638V20.2775ZM82.4172 23.0835V37.6945H79.3495V23.0835H82.4172Z" stroke="#5C5C5C" stroke-width="2" mask="url(#path-1-inside-1_1367_4533)"/>
<path d="M86.2568 20.2775H89.3245V37.7145H86.2568V20.2775Z" stroke="#5C5C5C" stroke-width="2" mask="url(#path-1-inside-1_1367_4533)"/>
<path d="M93.9953 37.7145L90.6901 20.2775H93.6193L95.2422 30.399L93.9953 37.7145ZM97.4391 20.2775H100.348L96.9047 37.7145H94.4703L97.4391 20.2775Z" stroke="#5C5C5C" stroke-width="2" mask="url(#path-1-inside-1_1367_4533)"/>
<path d="M101.595 37.7145V20.2775H104.643V37.7145H101.595ZM105.118 20.2775H108.503V22.4421H105.118V20.2775ZM105.118 27.573H107.394V29.7777H105.118V27.573ZM105.118 35.5499H108.503V37.7145H105.118V35.5499Z" stroke="#5C5C5C" stroke-width="2" mask="url(#path-1-inside-1_1367_4533)"/>
</svg>
