<svg width="227" height="56" viewBox="0 0 227 56" fill="none" xmlns="http://www.w3.org/2000/svg">
<mask id="path-1-inside-1_1367_4541" fill="white">
<path d="M63.0435 55.5645H6.46551C3.31536 55.5645 0.757812 52.9787 0.757812 49.7937V6.52795C0.757812 3.34293 3.31536 0.75708 6.46551 0.75708H63.0123C66.1624 0.75708 68.72 3.34293 68.72 6.52795V49.8252C68.7512 53.0102 66.1936 55.5645 63.0435 55.5645Z"/>
<path d="M26.4581 32.3865H17.8185V44.8427H12.8594V11.2266H27.3937C34.5986 11.2266 38.2477 14.2224 38.2477 20.1825V22.6422C38.2477 29.4853 33.6005 32.3865 26.4581 32.3865ZM33.2886 20.1825C33.2886 16.9344 32.2905 15.7676 27.3937 15.7676H17.8185V27.877H26.4581C31.4796 27.877 33.2886 26.5841 33.2886 22.6422V20.1825Z"/>
<path d="M87.6521 40.7432C85.7495 40.7432 84.2524 40.3017 82.8177 39.5764V50.6767H78.9814V19.2365H82.8177V20.3402C84.5019 19.4887 86.311 19.0788 88.3695 19.0788C92.7048 19.0788 96.2916 21.7908 96.2916 26.8364V32.1973C96.2916 38.0312 92.7048 40.7432 87.6521 40.7432ZM92.4553 26.8679C92.4553 23.9982 90.8023 22.8314 88.4007 22.8314C86.311 22.8314 84.7515 23.1468 82.8177 23.9352V35.8553C84.1277 36.4229 86.155 37.0221 87.6209 37.0221C90.8023 37.0221 92.4553 35.8553 92.4553 32.2288V26.8679Z"/>
<path d="M114.194 40.2702V26.8364C114.194 23.8721 113.196 22.7999 110.14 22.7999C108.206 22.7999 106.553 23.1152 104.557 23.8721V40.2702H100.721V9.8391H104.557V20.3402C106.491 19.4257 108.144 19.0788 110.109 19.0788C115.286 19.0788 118.031 21.9169 118.031 26.8364V40.2702H114.194Z"/>
<path d="M134.811 40.2702V39.0718C133.064 39.9864 131.006 40.4909 129.134 40.4909C124.893 40.4909 120.994 37.8735 120.994 33.5848V32.9226C120.994 29.3276 124.144 26.9625 128.323 26.9625H134.811V25.7957C134.811 23.7144 133.969 22.6738 130.756 22.6738C128.199 22.6738 125.516 23.1783 123.115 24.0928V20.3087C124.924 19.5518 127.918 19.0473 130.694 19.0473C135.746 19.0473 138.616 21.57 138.616 25.7957V40.2702H134.811ZM134.811 30.5575H128.386C125.797 30.5575 124.83 31.6296 124.83 32.9226V33.5848C124.83 35.603 126.171 36.9275 129.072 36.9275C130.975 36.9275 132.908 36.486 134.811 35.6661V30.5575Z"/>
<path d="M150.281 40.554C147.037 40.554 144.636 40.144 142.359 39.3872V35.6346C144.947 36.5491 147.599 36.959 150.25 36.959C154.398 36.959 154.585 35.6976 154.585 34.7516V33.9317C154.585 30.2421 142.265 33.4902 142.265 25.4173V24.7551C142.265 20.9709 145.415 18.9527 149.501 18.9527C152.495 18.9527 154.991 19.3941 156.987 20.3087V23.9982C154.055 22.8945 152.183 22.5792 149.563 22.5792C146.881 22.5792 146.133 23.4306 146.133 24.7551V25.6696C146.133 29.8637 158.453 26.2687 158.453 33.8055V34.7516C158.421 38.0627 155.926 40.554 150.281 40.554Z"/>
<path d="M165.19 31.2512V32.9226C165.19 35.603 166.749 36.896 169.993 36.896C172.675 36.896 174.328 36.486 177.166 35.54V39.1665C175.233 39.9864 172.769 40.4909 170.024 40.4909C165.034 40.4909 161.353 37.8735 161.353 32.9226V26.6156C161.353 21.8223 164.16 19.2365 169.244 19.2365H172.238C175.888 19.2365 178.663 21.8223 178.663 25.2281V31.2197L165.19 31.2512ZM174.889 25.2596C174.889 23.809 173.954 22.8945 172.332 22.8945H169.275C166.125 22.8945 165.19 23.809 165.19 26.6156V27.7824H174.858L174.889 25.2596Z"/>
<path d="M195.631 40.2702L188.207 29.4853L186.96 30.589V40.2702H183.124V9.8391H186.96V25.9218L194.695 19.2049H200.527L191.202 27.1832L200.527 40.2386H195.631V40.2702Z"/>
<path d="M204.114 16.966V13.4971H207.951V16.966H204.114ZM204.114 40.2702V19.2365H207.951V40.2702H204.114Z"/>
<path d="M221.736 40.4909C217.682 40.4909 215.405 38.4727 215.405 34.5308V22.7368H212.411V19.2049H215.405V12.9926H219.21V19.2049H224.512V22.7368H219.21V34.2786C219.21 36.1391 219.865 36.8013 221.767 36.8013C223.67 36.8013 225.011 36.6121 226.758 36.2022V39.9864C225.23 40.2702 223.576 40.4909 221.736 40.4909Z"/>
<path d="M40.0567 27.877L53.1564 11.2266H61.1721L47.6358 27.877L62.1078 44.8427H54.1856L40.0567 27.877Z"/>
</mask>
<path d="M63.0435 55.5645H6.46551C3.31536 55.5645 0.757812 52.9787 0.757812 49.7937V6.52795C0.757812 3.34293 3.31536 0.75708 6.46551 0.75708H63.0123C66.1624 0.75708 68.72 3.34293 68.72 6.52795V49.8252C68.7512 53.0102 66.1936 55.5645 63.0435 55.5645Z" stroke="#5C5C5C" stroke-width="4" mask="url(#path-1-inside-1_1367_4541)"/>
<path d="M26.4581 32.3865H17.8185V44.8427H12.8594V11.2266H27.3937C34.5986 11.2266 38.2477 14.2224 38.2477 20.1825V22.6422C38.2477 29.4853 33.6005 32.3865 26.4581 32.3865ZM33.2886 20.1825C33.2886 16.9344 32.2905 15.7676 27.3937 15.7676H17.8185V27.877H26.4581C31.4796 27.877 33.2886 26.5841 33.2886 22.6422V20.1825Z" stroke="#5C5C5C" stroke-width="4" mask="url(#path-1-inside-1_1367_4541)"/>
<path d="M87.6521 40.7432C85.7495 40.7432 84.2524 40.3017 82.8177 39.5764V50.6767H78.9814V19.2365H82.8177V20.3402C84.5019 19.4887 86.311 19.0788 88.3695 19.0788C92.7048 19.0788 96.2916 21.7908 96.2916 26.8364V32.1973C96.2916 38.0312 92.7048 40.7432 87.6521 40.7432ZM92.4553 26.8679C92.4553 23.9982 90.8023 22.8314 88.4007 22.8314C86.311 22.8314 84.7515 23.1468 82.8177 23.9352V35.8553C84.1277 36.4229 86.155 37.0221 87.6209 37.0221C90.8023 37.0221 92.4553 35.8553 92.4553 32.2288V26.8679Z" stroke="#5C5C5C" stroke-width="4" mask="url(#path-1-inside-1_1367_4541)"/>
<path d="M114.194 40.2702V26.8364C114.194 23.8721 113.196 22.7999 110.14 22.7999C108.206 22.7999 106.553 23.1152 104.557 23.8721V40.2702H100.721V9.8391H104.557V20.3402C106.491 19.4257 108.144 19.0788 110.109 19.0788C115.286 19.0788 118.031 21.9169 118.031 26.8364V40.2702H114.194Z" stroke="#5C5C5C" stroke-width="4" mask="url(#path-1-inside-1_1367_4541)"/>
<path d="M134.811 40.2702V39.0718C133.064 39.9864 131.006 40.4909 129.134 40.4909C124.893 40.4909 120.994 37.8735 120.994 33.5848V32.9226C120.994 29.3276 124.144 26.9625 128.323 26.9625H134.811V25.7957C134.811 23.7144 133.969 22.6738 130.756 22.6738C128.199 22.6738 125.516 23.1783 123.115 24.0928V20.3087C124.924 19.5518 127.918 19.0473 130.694 19.0473C135.746 19.0473 138.616 21.57 138.616 25.7957V40.2702H134.811ZM134.811 30.5575H128.386C125.797 30.5575 124.83 31.6296 124.83 32.9226V33.5848C124.83 35.603 126.171 36.9275 129.072 36.9275C130.975 36.9275 132.908 36.486 134.811 35.6661V30.5575Z" stroke="#5C5C5C" stroke-width="4" mask="url(#path-1-inside-1_1367_4541)"/>
<path d="M150.281 40.554C147.037 40.554 144.636 40.144 142.359 39.3872V35.6346C144.947 36.5491 147.599 36.959 150.25 36.959C154.398 36.959 154.585 35.6976 154.585 34.7516V33.9317C154.585 30.2421 142.265 33.4902 142.265 25.4173V24.7551C142.265 20.9709 145.415 18.9527 149.501 18.9527C152.495 18.9527 154.991 19.3941 156.987 20.3087V23.9982C154.055 22.8945 152.183 22.5792 149.563 22.5792C146.881 22.5792 146.133 23.4306 146.133 24.7551V25.6696C146.133 29.8637 158.453 26.2687 158.453 33.8055V34.7516C158.421 38.0627 155.926 40.554 150.281 40.554Z" stroke="#5C5C5C" stroke-width="4" mask="url(#path-1-inside-1_1367_4541)"/>
<path d="M165.19 31.2512V32.9226C165.19 35.603 166.749 36.896 169.993 36.896C172.675 36.896 174.328 36.486 177.166 35.54V39.1665C175.233 39.9864 172.769 40.4909 170.024 40.4909C165.034 40.4909 161.353 37.8735 161.353 32.9226V26.6156C161.353 21.8223 164.16 19.2365 169.244 19.2365H172.238C175.888 19.2365 178.663 21.8223 178.663 25.2281V31.2197L165.19 31.2512ZM174.889 25.2596C174.889 23.809 173.954 22.8945 172.332 22.8945H169.275C166.125 22.8945 165.19 23.809 165.19 26.6156V27.7824H174.858L174.889 25.2596Z" stroke="#5C5C5C" stroke-width="4" mask="url(#path-1-inside-1_1367_4541)"/>
<path d="M195.631 40.2702L188.207 29.4853L186.96 30.589V40.2702H183.124V9.8391H186.96V25.9218L194.695 19.2049H200.527L191.202 27.1832L200.527 40.2386H195.631V40.2702Z" stroke="#5C5C5C" stroke-width="4" mask="url(#path-1-inside-1_1367_4541)"/>
<path d="M204.114 16.966V13.4971H207.951V16.966H204.114ZM204.114 40.2702V19.2365H207.951V40.2702H204.114Z" stroke="#5C5C5C" stroke-width="4" mask="url(#path-1-inside-1_1367_4541)"/>
<path d="M221.736 40.4909C217.682 40.4909 215.405 38.4727 215.405 34.5308V22.7368H212.411V19.2049H215.405V12.9926H219.21V19.2049H224.512V22.7368H219.21V34.2786C219.21 36.1391 219.865 36.8013 221.767 36.8013C223.67 36.8013 225.011 36.6121 226.758 36.2022V39.9864C225.23 40.2702 223.576 40.4909 221.736 40.4909Z" stroke="#5C5C5C" stroke-width="4" mask="url(#path-1-inside-1_1367_4541)"/>
<path d="M40.0567 27.877L53.1564 11.2266H61.1721L47.6358 27.877L62.1078 44.8427H54.1856L40.0567 27.877Z" stroke="#5C5C5C" stroke-width="4" mask="url(#path-1-inside-1_1367_4541)"/>
</svg>
