<svg width="175" height="50" viewBox="0 0 175 50" fill="none" xmlns="http://www.w3.org/2000/svg">
<mask id="path-1-inside-1_1367_4531" fill="white">
<path d="M24.0015 0.498291C10.7507 0.498291 0 11.4097 0 24.8587C0 30.695 2.02513 36.0492 5.40033 40.2361L3.50021 49.219L13.4008 46.7069C16.601 48.3055 20.2012 49.219 24.0015 49.219C37.2523 49.219 48.0029 38.3076 48.0029 24.8587C48.0029 11.4097 37.2773 0.498291 24.0015 0.498291Z"/>
<path d="M21.0511 16.434C21.9761 16.1042 22.9762 15.9265 24.0013 15.9265C28.8766 15.9265 32.8018 19.9358 32.8018 24.884C32.8018 29.8322 28.8516 33.8416 24.0013 33.8416C19.151 33.8416 15.1757 29.8322 15.1757 24.884C15.1757 22.4226 16.1508 20.1896 17.7259 18.591"/>
<path d="M24.0015 20.0881V25.4423L26.6266 27.9544"/>
<path d="M66.5541 39.6779H58.1036V16.0026H61.2537V37.0135H66.5541V39.6779Z"/>
<path d="M70.7543 16.0026H73.9045V39.6779H70.7543V16.0026Z"/>
<path d="M77.3797 16.0026H80.4299L83.3551 33.8923L86.5053 16.0026H89.5055L84.6052 39.6779H82.105L77.3797 16.0026Z"/>
<path d="M101.031 39.6779H92.5807V16.0026H100.881V18.6924H95.7058V26.2036H100.506V28.8933H95.7058V37.0642H101.031V39.6779Z"/>
<path d="M125.433 20.9508H120.982V39.6779H116.032V21.0016H111.482V16.4594H125.433V20.9508Z"/>
<path d="M143.334 39.6779H138.508L137.733 36.0492H131.708L130.883 39.6779H126.058L132.583 16.4594H137.608L143.334 39.6779ZM137.058 32.2936L135.033 22.1435H134.958L132.633 32.2936H137.058Z"/>
<path d="M156.935 39.6779H146.234V16.4594H151.134V35.1103H156.935V39.6779Z"/>
<path d="M174.861 39.6779H169.635L165.06 27.9545H164.985V39.6779H159.985V16.4594H164.985V27.0663H165.06L169.435 16.4594H174.511L169.66 27.4977L174.861 39.6779Z"/>
</mask>
<path d="M5.40033 40.2361L7.35704 40.65L7.55364 39.7206L6.9574 38.9809L5.40033 40.2361ZM3.50021 49.219L1.54351 48.8051L0.878803 51.9476L3.9921 51.1576L3.50021 49.219ZM13.4008 46.7069L14.2946 44.9177L13.6295 44.5854L12.9089 44.7683L13.4008 46.7069ZM26.0015 20.0881C26.0015 18.9835 25.106 18.0881 24.0015 18.0881C22.8969 18.0881 22.0015 18.9835 22.0015 20.0881H26.0015ZM24.0015 25.4423H22.0015V26.2966L22.6187 26.8872L24.0015 25.4423ZM25.2439 29.3994C26.0419 30.1631 27.3079 30.1352 28.0716 29.3372C28.8353 28.5392 28.8074 27.2732 28.0094 26.5095L25.2439 29.3994ZM66.5541 39.6779V41.6779H68.5541V39.6779H66.5541ZM58.1036 39.6779H56.1036V41.6779H58.1036V39.6779ZM58.1036 16.0026V14.0026H56.1036V16.0026H58.1036ZM61.2537 16.0026H63.2537V14.0026H61.2537V16.0026ZM61.2537 37.0135H59.2537V39.0135H61.2537V37.0135ZM66.5541 37.0135H68.5541V35.0135H66.5541V37.0135ZM70.7543 16.0026V14.0026H68.7543V16.0026H70.7543ZM73.9045 16.0026H75.9045V14.0026H73.9045V16.0026ZM73.9045 39.6779V41.6779H75.9045V39.6779H73.9045ZM70.7543 39.6779H68.7543V41.6779H70.7543V39.6779ZM77.3797 16.0026V14.0026H74.9411L75.4184 16.3941L77.3797 16.0026ZM80.4299 16.0026L82.4037 15.6799L82.1294 14.0026H80.4299V16.0026ZM83.3551 33.8923L81.3813 34.215L85.3248 34.2391L83.3551 33.8923ZM86.5053 16.0026V14.0026H84.8267L84.5356 15.6558L86.5053 16.0026ZM89.5055 16.0026L91.464 16.408L91.9618 14.0026H89.5055V16.0026ZM84.6052 39.6779V41.6779H86.2336L86.5637 40.0832L84.6052 39.6779ZM82.105 39.6779L80.1437 40.0693L80.4647 41.6779H82.105V39.6779ZM101.031 39.6779V41.6779H103.031V39.6779H101.031ZM92.5807 39.6779H90.5807V41.6779H92.5807V39.6779ZM92.5807 16.0026V14.0026H90.5807V16.0026H92.5807ZM100.881 16.0026H102.881V14.0026H100.881V16.0026ZM100.881 18.6924V20.6924H102.881V18.6924H100.881ZM95.7058 18.6924V16.6924H93.7058V18.6924H95.7058ZM95.7058 26.2036H93.7058V28.2036H95.7058V26.2036ZM100.506 26.2036H102.506V24.2036H100.506V26.2036ZM100.506 28.8933V30.8933H102.506V28.8933H100.506ZM95.7058 28.8933V26.8933H93.7058V28.8933H95.7058ZM95.7058 37.0642H93.7058V39.0642H95.7058V37.0642ZM101.031 37.0642H103.031V35.0642H101.031V37.0642ZM125.433 20.9508V22.9508H127.433V20.9508H125.433ZM120.982 20.9508V18.9508H118.982V20.9508H120.982ZM120.982 39.6779V41.6779H122.982V39.6779H120.982ZM116.032 39.6779H114.032V41.6779H116.032V39.6779ZM116.032 21.0016H118.032V19.0016H116.032V21.0016ZM111.482 21.0016H109.482V23.0016H111.482V21.0016ZM111.482 16.4594V14.4594H109.482V16.4594H111.482ZM125.433 16.4594H127.433V14.4594H125.433V16.4594ZM143.334 39.6779V41.6779H145.887L145.276 39.1991L143.334 39.6779ZM138.508 39.6779L136.553 40.0956L136.891 41.6779H138.508V39.6779ZM137.733 36.0492L139.689 35.6314L139.351 34.0492H137.733V36.0492ZM131.708 36.0492V34.0492H130.112L129.758 35.6058L131.708 36.0492ZM130.883 39.6779V41.6779H132.479L132.833 40.1213L130.883 39.6779ZM126.058 39.6779L124.132 39.1368L123.418 41.6779H126.058V39.6779ZM132.583 16.4594V14.4594H131.068L130.658 15.9183L132.583 16.4594ZM137.608 16.4594L139.55 15.9806L139.175 14.4594H137.608V16.4594ZM137.058 32.2936V34.2936H139.497L139.02 31.9023L137.058 32.2936ZM135.033 22.1435L136.995 21.7522L136.674 20.1435H135.033V22.1435ZM134.958 22.1435V20.1435H133.365L133.009 21.6969L134.958 22.1435ZM132.633 32.2936L130.684 31.8471L130.123 34.2936H132.633V32.2936ZM156.935 39.6779V41.6779H158.935V39.6779H156.935ZM146.234 39.6779H144.234V41.6779H146.234V39.6779ZM146.234 16.4594V14.4594H144.234V16.4594H146.234ZM151.134 16.4594H153.134V14.4594H151.134V16.4594ZM151.134 35.1103H149.134V37.1103H151.134V35.1103ZM156.935 35.1103H158.935V33.1103H156.935V35.1103ZM174.861 39.6779V41.6779H177.889L176.7 38.8926L174.861 39.6779ZM169.635 39.6779L167.772 40.405L168.269 41.6779H169.635V39.6779ZM165.06 27.9545L166.923 27.2273L166.426 25.9545H165.06V27.9545ZM164.985 27.9545V25.9545H162.985V27.9545H164.985ZM164.985 39.6779V41.6779H166.985V39.6779H164.985ZM159.985 39.6779H157.985V41.6779H159.985V39.6779ZM159.985 16.4594V14.4594H157.985V16.4594H159.985ZM164.985 16.4594H166.985V14.4594H164.985V16.4594ZM164.985 27.0663H162.985V29.0663H164.985V27.0663ZM165.06 27.0663V29.0663H166.399L166.909 27.829L165.06 27.0663ZM169.435 16.4594V14.4594H168.097L167.586 15.6968L169.435 16.4594ZM174.511 16.4594L176.342 17.264L177.574 14.4594H174.511V16.4594ZM169.66 27.4977L167.829 26.6931L167.481 27.4863L167.821 28.283L169.66 27.4977ZM24.0015 -1.50171C9.6182 -1.50171 -2 10.3332 -2 24.8587H2C2 12.4862 11.8831 2.49829 24.0015 2.49829V-1.50171ZM-2 24.8587C-2 31.1649 0.189827 36.9593 3.84326 41.4913L6.9574 38.9809C3.86042 35.1391 2 30.2251 2 24.8587H-2ZM3.44363 39.8222L1.54351 48.8051L5.45692 49.6329L7.35704 40.65L3.44363 39.8222ZM3.9921 51.1576L13.8927 48.6454L12.9089 44.7683L3.00833 47.2805L3.9921 51.1576ZM12.507 48.496C15.9722 50.2271 19.8773 51.219 24.0015 51.219V47.219C20.5252 47.219 17.2298 46.384 14.2946 44.9177L12.507 48.496ZM24.0015 51.219C38.3847 51.219 50.0029 39.3841 50.0029 24.8587H46.0029C46.0029 37.2311 36.1198 47.219 24.0015 47.219V51.219ZM50.0029 24.8587C50.0029 10.3346 38.4111 -1.50171 24.0015 -1.50171V2.49829C36.1435 2.49829 46.0029 12.4848 46.0029 24.8587H50.0029ZM21.7229 18.3178C22.4335 18.0644 23.2064 17.9265 24.0013 17.9265V13.9265C22.746 13.9265 21.5188 14.1439 20.3793 14.5502L21.7229 18.3178ZM24.0013 17.9265C27.7368 17.9265 30.8018 21.0049 30.8018 24.884H34.8018C34.8018 18.8668 30.0163 13.9265 24.0013 13.9265V17.9265ZM30.8018 24.884C30.8018 28.7595 27.7154 31.8416 24.0013 31.8416V35.8416C29.9877 35.8416 34.8018 30.905 34.8018 24.884H30.8018ZM24.0013 31.8416C20.2798 31.8416 17.1757 28.7521 17.1757 24.884H13.1757C13.1757 30.9124 18.0222 35.8416 24.0013 35.8416V31.8416ZM17.1757 24.884C17.1757 22.9567 17.9379 21.2254 19.1506 19.9946L16.3012 17.1873C14.3637 19.1538 13.1757 21.8885 13.1757 24.884H17.1757ZM22.0015 20.0881V25.4423H26.0015V20.0881H22.0015ZM22.6187 26.8872L25.2439 29.3994L28.0094 26.5095L25.3842 23.9973L22.6187 26.8872ZM66.5541 37.6779H58.1036V41.6779H66.5541V37.6779ZM60.1036 39.6779V16.0026H56.1036V39.6779H60.1036ZM58.1036 18.0026H61.2537V14.0026H58.1036V18.0026ZM59.2537 16.0026V37.0135H63.2537V16.0026H59.2537ZM61.2537 39.0135H66.5541V35.0135H61.2537V39.0135ZM64.5541 37.0135V39.6779H68.5541V37.0135H64.5541ZM70.7543 18.0026H73.9045V14.0026H70.7543V18.0026ZM71.9045 16.0026V39.6779H75.9045V16.0026H71.9045ZM73.9045 37.6779H70.7543V41.6779H73.9045V37.6779ZM72.7543 39.6779V16.0026H68.7543V39.6779H72.7543ZM77.3797 18.0026H80.4299V14.0026H77.3797V18.0026ZM78.4561 16.3254L81.3813 34.215L85.3289 33.5696L82.4037 15.6799L78.4561 16.3254ZM85.3248 34.2391L88.475 16.3495L84.5356 15.6558L81.3854 33.5455L85.3248 34.2391ZM86.5053 18.0026H89.5055V14.0026H86.5053V18.0026ZM87.547 15.5973L82.6467 39.2725L86.5637 40.0832L91.464 16.408L87.547 15.5973ZM84.6052 37.6779H82.105V41.6779H84.6052V37.6779ZM84.0663 39.2864L79.341 15.6112L75.4184 16.3941L80.1437 40.0693L84.0663 39.2864ZM101.031 37.6779H92.5807V41.6779H101.031V37.6779ZM94.5807 39.6779V16.0026H90.5807V39.6779H94.5807ZM92.5807 18.0026H100.881V14.0026H92.5807V18.0026ZM98.8812 16.0026V18.6924H102.881V16.0026H98.8812ZM100.881 16.6924H95.7058V20.6924H100.881V16.6924ZM93.7058 18.6924V26.2036H97.7058V18.6924H93.7058ZM95.7058 28.2036H100.506V24.2036H95.7058V28.2036ZM98.5061 26.2036V28.8933H102.506V26.2036H98.5061ZM100.506 26.8933H95.7058V30.8933H100.506V26.8933ZM93.7058 28.8933V37.0642H97.7058V28.8933H93.7058ZM95.7058 39.0642H101.031V35.0642H95.7058V39.0642ZM99.0312 37.0642V39.6779H103.031V37.0642H99.0312ZM125.433 18.9508H120.982V22.9508H125.433V18.9508ZM118.982 20.9508V39.6779H122.982V20.9508H118.982ZM120.982 37.6779H116.032V41.6779H120.982V37.6779ZM118.032 39.6779V21.0016H114.032V39.6779H118.032ZM116.032 19.0016H111.482V23.0016H116.032V19.0016ZM113.482 21.0016V16.4594H109.482V21.0016H113.482ZM111.482 18.4594H125.433V14.4594H111.482V18.4594ZM123.433 16.4594V20.9508H127.433V16.4594H123.433ZM143.334 37.6779H138.508V41.6779H143.334V37.6779ZM140.464 39.2601L139.689 35.6314L135.778 36.467L136.553 40.0956L140.464 39.2601ZM137.733 34.0492H131.708V38.0492H137.733V34.0492ZM129.758 35.6058L128.933 39.2345L132.833 40.1213L133.658 36.4926L129.758 35.6058ZM130.883 37.6779H126.058V41.6779H130.883V37.6779ZM127.983 40.219L134.508 17.0005L130.658 15.9183L124.132 39.1368L127.983 40.219ZM132.583 18.4594H137.608V14.4594H132.583V18.4594ZM135.667 16.9382L141.392 40.1567L145.276 39.1991L139.55 15.9806L135.667 16.9382ZM139.02 31.9023L136.995 21.7522L133.072 22.5348L135.097 32.685L139.02 31.9023ZM135.033 20.1435H134.958V24.1435H135.033V20.1435ZM133.009 21.6969L130.684 31.8471L134.583 32.7402L136.908 22.5901L133.009 21.6969ZM132.633 34.2936H137.058V30.2936H132.633V34.2936ZM156.935 37.6779H146.234V41.6779H156.935V37.6779ZM148.234 39.6779V16.4594H144.234V39.6779H148.234ZM146.234 18.4594H151.134V14.4594H146.234V18.4594ZM149.134 16.4594V35.1103H153.134V16.4594H149.134ZM151.134 37.1103H156.935V33.1103H151.134V37.1103ZM154.935 35.1103V39.6779H158.935V35.1103H154.935ZM174.861 37.6779H169.635V41.6779H174.861V37.6779ZM171.499 38.9508L166.923 27.2273L163.197 28.6816L167.772 40.405L171.499 38.9508ZM165.06 25.9545H164.985V29.9545H165.06V25.9545ZM162.985 27.9545V39.6779H166.985V27.9545H162.985ZM164.985 37.6779H159.985V41.6779H164.985V37.6779ZM161.985 39.6779V16.4594H157.985V39.6779H161.985ZM159.985 18.4594H164.985V14.4594H159.985V18.4594ZM162.985 16.4594V27.0663H166.985V16.4594H162.985ZM164.985 29.0663H165.06V25.0663H164.985V29.0663ZM166.909 27.829L171.284 17.2221L167.586 15.6968L163.211 26.3037L166.909 27.829ZM169.435 18.4594H174.511V14.4594H169.435V18.4594ZM172.68 15.6548L167.829 26.6931L171.491 28.3023L176.342 17.264L172.68 15.6548ZM167.821 28.283L173.021 40.4632L176.7 38.8926L171.5 26.7124L167.821 28.283Z" fill="#5C5C5C" mask="url(#path-1-inside-1_1367_4531)"/>
</svg>
