<svg width="297" height="45" viewBox="0 0 297 45" fill="none" xmlns="http://www.w3.org/2000/svg">
<path d="M28.7795 31.2517C29.5623 31.874 29.5619 31.8744 29.5616 31.8749L29.5607 31.876L29.5588 31.8783L29.5541 31.8842L29.541 31.9002C29.5307 31.9127 29.517 31.9289 29.5001 31.9486C29.4663 31.9879 29.4194 32.0409 29.3591 32.1053C29.2386 32.2339 29.0646 32.4084 28.836 32.6096C28.3794 33.0116 27.7017 33.5234 26.7958 33.9888C24.9708 34.9265 22.258 35.6547 18.6433 34.9716C14.7658 34.2387 12.964 31.3839 12.152 28.8927C11.7459 27.6469 11.571 26.4547 11.4962 25.5799C11.4587 25.1405 11.446 24.776 11.4428 24.5181C11.4412 24.3891 11.442 24.2863 11.4432 24.2139C11.4436 24.1922 11.444 24.1732 11.4445 24.1571C11.4439 24.1484 11.4433 24.1391 11.4427 24.1291C11.4395 24.0729 11.4362 23.9961 11.4351 23.9012C11.4329 23.7118 11.4392 23.4484 11.4713 23.1324C11.5354 22.5032 11.704 21.6466 12.127 20.7447C12.9998 18.8837 14.8824 16.9924 18.6733 16.3949C22.3397 15.817 24.9814 16.4365 26.7365 17.2513C27.4052 17.5617 27.9381 17.8972 28.3445 18.1974L32.6846 10.7787C32.4367 10.6331 32.1328 10.4623 31.7775 10.2765C30.6738 9.69901 29.0822 8.98025 27.1415 8.42093C23.2609 7.30253 18.0269 6.83125 12.484 9.35124C6.9318 11.8755 4.1329 15.8167 2.70964 19.1239C1.99539 20.7835 1.62744 22.2856 1.43852 23.3685C1.34418 23.9092 1.29485 24.3433 1.26921 24.6375C1.2564 24.7845 1.24952 24.8963 1.24588 24.9688C1.24502 24.986 1.24434 25.001 1.24381 25.0137C1.24508 25.0259 1.24656 25.0399 1.24826 25.0557C1.25583 25.126 1.26781 25.2317 1.28502 25.3689C1.31944 25.6435 1.3747 26.0432 1.45724 26.5356C1.62261 27.5222 1.89604 28.8722 2.32749 30.329C3.2076 33.3006 4.67694 36.4762 7.0081 38.0947C7.43875 38.3936 7.84489 38.6805 8.23371 38.9551C10.2786 40.3992 11.8444 41.5051 13.9771 42.2621C16.4931 43.1553 19.8589 43.5714 25.714 43.2101C31.2263 42.8699 35.072 39.6004 37.5824 36.303C38.8341 34.6589 39.7335 33.0323 40.3198 31.8156C40.6123 31.2083 40.8255 30.7062 40.9643 30.3591C41.0337 30.1857 41.0845 30.0511 41.1173 29.9619C41.1299 29.9274 41.1399 29.8996 41.1473 29.879C41.1494 29.873 41.1513 29.8676 41.153 29.8628L41.1609 29.8402L41.1622 29.8363L41.1624 29.8359L41.1624 29.8358L41.1625 29.8355L41.1915 29.7498L41.236 29.67L46.1174 20.9106L46.121 20.9041L46.1248 20.8976L46.9909 21.3974C46.1248 20.8976 46.1251 20.897 46.1254 20.8964L46.1262 20.8951L46.1281 20.8919L46.133 20.8835L46.1478 20.8587C46.1599 20.8388 46.1764 20.8119 46.1974 20.7788C46.2394 20.7127 46.2993 20.6214 46.3777 20.5099C46.5342 20.2871 46.7652 19.9822 47.0738 19.6352C47.6893 18.9429 48.6244 18.071 49.9054 17.3541C52.5164 15.8929 56.4204 15.1589 61.6763 17.5686L61.7984 17.6246L61.9014 17.7108L61.2595 18.4776C61.9014 17.7108 61.9017 17.7111 61.9021 17.7114L61.903 17.7122L61.9052 17.714L61.9115 17.7194L61.9313 17.7363C61.9476 17.7503 61.97 17.7698 61.9981 17.7947C62.0541 17.8444 62.1326 17.9156 62.229 18.007C62.4217 18.1896 62.6873 18.4541 62.9893 18.7904C63.5903 19.4597 64.3512 20.4311 64.965 21.6243C66.2059 24.0367 66.8623 27.4285 64.3216 30.9269C61.8228 34.3677 58.3691 35.2171 55.6272 35.2171C54.2614 35.2171 53.0545 35.0086 52.1909 34.8018C51.7576 34.698 51.4067 34.5937 51.1607 34.514C51.0376 34.4741 50.9404 34.4403 50.8719 34.4156C50.8377 34.4033 50.8106 34.3932 50.7911 34.3858L50.7674 34.3768L50.7598 34.3739L50.7571 34.3728L50.7561 34.3724C50.7556 34.3722 50.7552 34.3721 51.1213 33.4415L50.7552 34.3721L50.6794 34.3423L50.6095 34.3006L45.6576 31.3506L41.7016 38.1536C41.8767 38.2978 42.0879 38.4671 42.3321 38.655C43.1359 39.2735 44.2917 40.0884 45.6946 40.8714C48.5222 42.4495 52.241 43.8351 56.0677 43.3617C60.0994 42.863 63.0589 41.8947 64.9953 41.063C65.964 40.647 66.6776 40.2648 67.1421 39.9918C67.3743 39.8552 67.5443 39.746 67.6527 39.6736C67.7069 39.6374 67.7457 39.6103 67.7692 39.5936L67.7931 39.5766L67.794 39.5759L67.7946 39.5755L67.7951 39.5751L67.7959 39.5745L67.7964 39.5741L67.8108 39.5633L67.8272 39.5521L67.8274 39.5519L67.8275 39.5518L67.8281 39.5514L67.8312 39.5493L67.8521 39.5346C67.8718 39.5206 67.9029 39.4983 67.9444 39.4679C68.0275 39.4069 68.1522 39.3134 68.3109 39.1882C68.6285 38.9376 69.081 38.5612 69.6076 38.0671C70.6634 37.0765 72.0034 35.6255 73.1542 33.7793C75.4404 30.1117 76.9805 24.9038 74.0561 18.5297C71.1157 12.1207 66.0573 9.37197 61.6838 8.21222C59.4905 7.63059 57.4778 7.4526 56.0132 7.42078C55.2822 7.4049 54.6912 7.42551 54.2871 7.44961C54.0851 7.46165 53.93 7.47456 53.8278 7.48416C53.7767 7.48896 53.7388 7.49293 53.7149 7.49555L53.6992 7.49733L53.6967 7.49773L53.6274 7.50918C53.5654 7.51956 53.4728 7.53542 53.3529 7.5569C53.1131 7.59986 52.7647 7.6652 52.3358 7.75387C51.4769 7.93146 50.3008 8.20143 49.0302 8.57084C47.7568 8.94104 46.406 9.40604 45.191 9.96965C43.9642 10.5387 42.9392 11.1797 42.2635 11.8751L42.2188 11.921L42.1698 11.96L42.1696 11.9601L42.1692 11.9604L42.169 11.9606L42.1687 11.9609L42.1679 11.9615L42.1556 11.9715C42.1436 11.9813 42.1241 11.9974 42.0978 12.0196C42.045 12.064 41.9647 12.1328 41.8612 12.2255C41.6541 12.4109 41.3547 12.691 40.9974 13.06C40.2817 13.7991 39.3404 14.8883 38.4447 16.2812C37.5263 17.7095 35.3379 21.5551 33.3596 25.0803C32.3749 26.835 31.4487 28.4987 30.7686 29.724C30.4286 30.3365 30.1501 30.8393 29.9567 31.189L29.7333 31.5931L29.675 31.6987L29.6601 31.7257L29.6564 31.7325L29.6554 31.7342L29.6552 31.7346C29.6552 31.7347 29.6551 31.7347 28.7795 31.2517ZM28.7795 31.2517L29.5623 31.874L29.6146 31.8082L29.6551 31.7347L28.7795 31.2517ZM88.2706 42.3323L76.3786 11.1198H85.549L92.4164 31.498L93.3641 34.31L94.3117 31.498L101.179 11.1198H110.387L98.4951 42.3323H88.2706ZM131.589 36.3759C134.302 36.3759 136.689 35.4714 138.311 34.0892L144.834 37.7537C141.72 41.4033 137.219 43.3177 131.439 43.3177C125.822 43.3177 121.351 41.4872 118.291 38.5422C115.23 35.5974 113.514 31.476 113.514 26.7625C113.514 17.4019 120.449 10.2073 130.688 10.2073C140.11 10.2073 147.036 17.2641 147.036 26.7625C147.036 27.7878 146.949 28.7919 146.793 29.7407H123.366H121.912L122.432 31.0984C123.962 35.0913 127.646 36.3759 131.589 36.3759ZM137.897 24.2953H139.218L138.86 23.0243C138.253 20.8663 137.067 19.3445 135.561 18.3757C134.072 17.4179 132.333 17.0397 130.65 17.0397C128.54 17.0397 126.701 17.5436 125.242 18.5792C123.776 19.6196 122.774 21.141 122.252 23.0287L121.902 24.2953H123.216H137.897ZM185.711 22.9303V42.3323H177.46V24.3902C177.46 22.1023 176.713 20.303 175.4 19.0819C174.099 17.873 172.352 17.3317 170.528 17.3317C168.467 17.3317 166.594 17.9152 165.238 19.2777C163.881 20.641 163.182 22.6431 163.182 25.1931V42.3323H154.931V11.1198H163.182V13.2585V16.2508L164.981 13.8598C166.583 11.73 169.662 10.2073 173.945 10.2073C177.148 10.2073 180.076 11.3195 182.201 13.4257C184.319 15.5258 185.711 18.688 185.711 22.9303ZM219.553 13.1855V11.0468H227.804V42.3323H219.553V40.1935V37.5759L217.808 39.5267C215.772 41.8027 212.717 43.2447 208.377 43.2447C200.048 43.2447 193.043 36.1213 193.043 26.6895C193.043 17.2578 200.048 10.1344 208.377 10.1344C212.717 10.1344 215.772 11.5763 217.808 13.8523L219.553 15.8031V13.1855ZM268.132 22.9303V42.3323H259.881V24.3902C259.881 22.1023 259.134 20.303 257.82 19.0819C256.52 17.873 254.772 17.3317 252.948 17.3317C250.887 17.3317 249.014 17.9152 247.658 19.2777C246.301 20.641 245.602 22.6431 245.602 25.1931V42.3323H237.351V11.1198H245.602V13.2585V16.2508L247.401 13.8598C249.004 11.73 252.083 10.2073 256.365 10.2073C259.588 10.2073 262.516 11.3201 264.634 13.425C266.747 15.5241 268.132 18.6861 268.132 22.9303ZM289.183 18.6821H288.183V19.6821V31.4342C288.183 32.2925 288.374 33.0687 288.837 33.7081C289.301 34.3479 289.961 34.7434 290.697 34.9848C291.878 35.3717 293.443 35.418 295.242 35.3378V42.4186C289.116 42.9246 285.381 42.2205 283.158 40.564C280.894 38.8782 279.932 35.991 279.932 31.4342V19.6821V18.6821H278.932H274.45V11.1198H278.932H279.932V10.1198V4.55555L288.183 2.14668V10.1198V11.1198H289.183H295.242V18.6821H289.183ZM219.553 26.726C219.553 23.9894 218.612 21.693 216.949 20.0816C215.29 18.4745 212.991 17.6236 210.405 17.6236C207.816 17.6236 205.517 18.4856 203.86 20.0964C202.198 21.711 201.257 24.0061 201.257 26.726C201.257 29.4626 202.197 31.759 203.861 33.3705C205.519 34.9775 207.819 35.8284 210.405 35.8284C212.991 35.8284 215.29 34.9775 216.949 33.3705C218.612 31.759 219.553 29.4626 219.553 26.726Z" stroke="#5C5C5C" stroke-width="2"/>
</svg>
