<svg width="259" height="80" viewBox="0 0 259 80" fill="none" xmlns="http://www.w3.org/2000/svg">
<mask id="path-1-inside-1_1367_4549" fill="white">
<path d="M39.3919 79.7252C61.0137 79.7252 78.5417 62.0032 78.5417 40.142C78.5417 18.2808 61.0137 0.558838 39.3919 0.558838C17.7701 0.558838 0.242188 18.2808 0.242188 40.142C0.242188 62.0032 17.7701 79.7252 39.3919 79.7252Z"/>
<path d="M1.09326 47.5519C1.09326 47.5519 2.0862 53.2886 3.64652 56.0613L40.6213 43.2494L38.5881 56.0613L78.5417 41.8152C78.5417 41.8152 78.3998 33.1146 77.927 33.1146C77.4542 33.1146 49.6995 41.624 49.6995 41.624L51.8272 29.0989L1.09326 47.5519Z"/>
<path d="M107.195 44.3011V56.0135H104.452V25.8959H112.159C113.72 25.8959 115.091 26.0871 116.32 26.4696C117.55 26.852 118.543 27.4257 119.394 28.1906C120.245 28.9555 120.859 29.8638 121.285 30.9155C121.71 32.015 121.947 33.2102 121.947 34.5965C121.947 35.9829 121.71 37.2737 121.238 38.4688C120.765 39.6639 120.056 40.6679 119.157 41.5284C118.259 42.3889 117.124 43.0582 115.847 43.5362C114.524 44.0143 113.058 44.2533 111.403 44.2533L107.195 44.3011ZM107.195 28.4296V41.7196H111.119C113.672 41.7196 115.611 41.0981 116.935 39.903C118.259 38.7078 118.921 36.9868 118.921 34.7878C118.921 30.533 116.462 28.4296 111.545 28.4296H107.195Z"/>
<path d="M140.056 56.5394C137.928 56.5394 135.99 56.1569 134.24 55.3442C132.538 54.5315 131.072 53.4798 129.843 52.0934C128.661 50.7071 127.715 49.1295 127.101 47.2651C126.486 45.4006 126.155 43.4406 126.155 41.2893C126.155 38.9469 126.486 36.7956 127.101 34.8356C127.763 32.8755 128.661 31.2023 129.938 29.816C131.167 28.4296 132.68 27.3301 134.477 26.5652C136.273 25.8003 138.307 25.4178 140.576 25.4178C142.704 25.4178 144.595 25.8003 146.25 26.5652C147.905 27.3301 149.371 28.3818 150.553 29.7203C151.735 31.0589 152.633 32.6843 153.248 34.5009C153.862 36.3653 154.193 38.3732 154.193 40.5244C154.193 42.8191 153.862 44.9226 153.248 46.8826C152.633 48.8426 151.735 50.5159 150.505 51.95C149.323 53.3842 147.81 54.4837 146.061 55.2964C144.359 56.1091 142.326 56.5394 140.056 56.5394ZM140.245 27.9037C138.448 27.9037 136.841 28.2384 135.47 28.9555C134.098 29.6725 132.916 30.5809 131.971 31.776C131.025 32.9711 130.269 34.3575 129.796 35.9351C129.323 37.5127 129.039 39.2337 129.039 41.0025C129.039 42.7235 129.228 44.3489 129.701 45.9265C130.174 47.5041 130.836 48.8905 131.734 50.0856C132.633 51.2807 133.767 52.2369 135.186 52.9539C136.557 53.671 138.212 54.0057 140.056 54.0057C141.9 54.0057 143.555 53.671 144.926 53.0496C146.345 52.3803 147.527 51.472 148.425 50.3246C149.371 49.1773 150.08 47.7909 150.553 46.2133C151.025 44.6357 151.262 42.8669 151.262 41.0025C151.262 39.2337 151.073 37.5605 150.647 35.9829C150.222 34.4053 149.56 33.0189 148.661 31.8238C147.763 30.6287 146.628 29.7203 145.257 29.0033C143.886 28.2862 142.184 27.9037 140.245 27.9037Z"/>
<path d="M185.825 56.0135H182.941L176.558 33.6882C176.416 33.1624 176.274 32.6365 176.18 32.1584C176.085 31.6804 176.038 31.2023 176.038 30.7243H175.943C175.896 31.537 175.707 32.4931 175.329 33.6404L168.709 56.0135H165.825L157.03 25.8959H160.104L166.676 49.5119C166.818 50.0378 166.96 50.5159 167.054 50.9939C167.149 51.472 167.196 51.9022 167.291 52.3325H167.385C167.48 51.711 167.716 50.7549 168.094 49.5119L175.092 25.8959H177.267L183.792 49.6075C183.934 50.0856 184.029 50.5637 184.123 50.9939C184.218 51.4242 184.312 51.9022 184.36 52.3325H184.454C184.501 52.0456 184.549 51.7588 184.643 51.3764C184.738 50.9939 184.832 50.6115 184.927 50.1812L191.452 25.8481H194.478L185.825 56.0135Z"/>
<path d="M199.064 56.0135V25.8959H213.58V28.4774H201.807V39.5205H212.682V42.0542H201.807V53.5276H214.242V56.0613L199.064 56.0135Z"/>
<path d="M236.701 56.0135L232.209 47.3607C231.784 46.5002 231.358 45.7831 230.933 45.2094C230.507 44.6357 230.082 44.1577 229.656 43.823C229.23 43.4884 228.758 43.2494 228.238 43.106C227.717 42.9625 227.15 42.8669 226.535 42.8669H223.273V55.9657H220.53V25.8481H229.089C230.223 25.8481 231.311 26.0393 232.351 26.3739C233.391 26.7086 234.337 27.1866 235.141 27.8559C235.945 28.5252 236.606 29.3379 237.127 30.3418C237.647 31.3457 237.883 32.4931 237.883 33.8316C237.883 34.8834 237.741 35.8873 237.41 36.7956C237.079 37.7039 236.654 38.4688 236.039 39.1859C235.472 39.8552 234.715 40.4766 233.911 40.9547C233.06 41.4328 232.115 41.8152 231.074 42.0542V42.1498C231.453 42.3411 231.831 42.5323 232.162 42.8191C232.493 43.106 232.824 43.3928 233.108 43.7752C233.439 44.1577 233.722 44.5879 234.053 45.066C234.384 45.5441 234.668 46.1177 234.999 46.7392L240.011 56.0613H236.701V56.0135ZM223.226 28.4296V40.3332H228.143C229.136 40.3332 230.034 40.1898 230.885 39.903C231.736 39.6161 232.446 39.1859 233.013 38.66C233.58 38.1342 234.053 37.4649 234.384 36.7C234.715 35.9351 234.857 35.0746 234.857 34.1185C234.857 32.3497 234.29 31.0111 233.202 30.0072C232.115 29.0033 230.46 28.5252 228.379 28.5252H223.226V28.4296Z"/>
<path d="M244.55 25.8959H255.378C258.687 25.8959 261.241 26.5174 263.037 27.7603C264.834 29.0033 265.732 30.7243 265.732 32.9711C265.732 34.5965 265.165 36.0307 264.125 37.2259C263.037 38.421 261.666 39.2815 259.964 39.7596V39.8552C262.092 40.142 263.794 40.9069 265.023 42.2455C266.3 43.584 266.914 45.1616 266.914 47.0738C266.914 49.8466 265.921 51.9978 263.983 53.6232C262.044 55.2486 259.349 56.0613 255.992 56.0613H244.55V25.8959ZM251.264 30.8677V37.9907H254.195C255.567 37.9907 256.654 37.6561 257.458 36.9868C258.262 36.3175 258.64 35.3614 258.64 34.1663C258.64 31.9672 256.985 30.8677 253.723 30.8677H251.264ZM251.264 43.0582V50.9939H254.905C256.465 50.9939 257.694 50.6115 258.545 49.8944C259.444 49.1773 259.869 48.1734 259.869 46.9304C259.869 45.7353 259.444 44.7792 258.593 44.1099C257.742 43.4406 256.512 43.0582 254.952 43.0582H251.264Z"/>
<path d="M298.026 56.0135H290.697L288.57 49.3207H277.978L275.898 56.0135H268.617L279.444 25.8959H287.388L298.026 56.0135ZM287.057 44.1099L283.841 33.9751C283.605 33.2102 283.463 32.3019 283.321 31.2501H283.132C283.085 32.1106 282.896 33.0189 282.612 33.8794L279.35 44.1099H287.057Z"/>
<path d="M319.492 56.0135H301.762V25.8959H308.476V50.5159H319.492V56.0135Z"/>
<path d="M341.242 56.0135H323.511V25.8959H330.225V50.5159H341.242V56.0135Z"/>
</mask>
<path d="M39.3919 79.7252C61.0137 79.7252 78.5417 62.0032 78.5417 40.142C78.5417 18.2808 61.0137 0.558838 39.3919 0.558838C17.7701 0.558838 0.242188 18.2808 0.242188 40.142C0.242188 62.0032 17.7701 79.7252 39.3919 79.7252Z" stroke="#5C5C5C" stroke-width="4" mask="url(#path-1-inside-1_1367_4549)"/>
<path d="M1.09326 47.5519C1.09326 47.5519 2.0862 53.2886 3.64652 56.0613L40.6213 43.2494L38.5881 56.0613L78.5417 41.8152C78.5417 41.8152 78.3998 33.1146 77.927 33.1146C77.4542 33.1146 49.6995 41.624 49.6995 41.624L51.8272 29.0989L1.09326 47.5519Z" stroke="#5C5C5C" stroke-width="4" mask="url(#path-1-inside-1_1367_4549)"/>
<path d="M107.195 44.3011V56.0135H104.452V25.8959H112.159C113.72 25.8959 115.091 26.0871 116.32 26.4696C117.55 26.852 118.543 27.4257 119.394 28.1906C120.245 28.9555 120.859 29.8638 121.285 30.9155C121.71 32.015 121.947 33.2102 121.947 34.5965C121.947 35.9829 121.71 37.2737 121.238 38.4688C120.765 39.6639 120.056 40.6679 119.157 41.5284C118.259 42.3889 117.124 43.0582 115.847 43.5362C114.524 44.0143 113.058 44.2533 111.403 44.2533L107.195 44.3011ZM107.195 28.4296V41.7196H111.119C113.672 41.7196 115.611 41.0981 116.935 39.903C118.259 38.7078 118.921 36.9868 118.921 34.7878C118.921 30.533 116.462 28.4296 111.545 28.4296H107.195Z" stroke="#5C5C5C" stroke-width="4" mask="url(#path-1-inside-1_1367_4549)"/>
<path d="M140.056 56.5394C137.928 56.5394 135.99 56.1569 134.24 55.3442C132.538 54.5315 131.072 53.4798 129.843 52.0934C128.661 50.7071 127.715 49.1295 127.101 47.2651C126.486 45.4006 126.155 43.4406 126.155 41.2893C126.155 38.9469 126.486 36.7956 127.101 34.8356C127.763 32.8755 128.661 31.2023 129.938 29.816C131.167 28.4296 132.68 27.3301 134.477 26.5652C136.273 25.8003 138.307 25.4178 140.576 25.4178C142.704 25.4178 144.595 25.8003 146.25 26.5652C147.905 27.3301 149.371 28.3818 150.553 29.7203C151.735 31.0589 152.633 32.6843 153.248 34.5009C153.862 36.3653 154.193 38.3732 154.193 40.5244C154.193 42.8191 153.862 44.9226 153.248 46.8826C152.633 48.8426 151.735 50.5159 150.505 51.95C149.323 53.3842 147.81 54.4837 146.061 55.2964C144.359 56.1091 142.326 56.5394 140.056 56.5394ZM140.245 27.9037C138.448 27.9037 136.841 28.2384 135.47 28.9555C134.098 29.6725 132.916 30.5809 131.971 31.776C131.025 32.9711 130.269 34.3575 129.796 35.9351C129.323 37.5127 129.039 39.2337 129.039 41.0025C129.039 42.7235 129.228 44.3489 129.701 45.9265C130.174 47.5041 130.836 48.8905 131.734 50.0856C132.633 51.2807 133.767 52.2369 135.186 52.9539C136.557 53.671 138.212 54.0057 140.056 54.0057C141.9 54.0057 143.555 53.671 144.926 53.0496C146.345 52.3803 147.527 51.472 148.425 50.3246C149.371 49.1773 150.08 47.7909 150.553 46.2133C151.025 44.6357 151.262 42.8669 151.262 41.0025C151.262 39.2337 151.073 37.5605 150.647 35.9829C150.222 34.4053 149.56 33.0189 148.661 31.8238C147.763 30.6287 146.628 29.7203 145.257 29.0033C143.886 28.2862 142.184 27.9037 140.245 27.9037Z" stroke="#5C5C5C" stroke-width="4" mask="url(#path-1-inside-1_1367_4549)"/>
<path d="M185.825 56.0135H182.941L176.558 33.6882C176.416 33.1624 176.274 32.6365 176.18 32.1584C176.085 31.6804 176.038 31.2023 176.038 30.7243H175.943C175.896 31.537 175.707 32.4931 175.329 33.6404L168.709 56.0135H165.825L157.03 25.8959H160.104L166.676 49.5119C166.818 50.0378 166.96 50.5159 167.054 50.9939C167.149 51.472 167.196 51.9022 167.291 52.3325H167.385C167.48 51.711 167.716 50.7549 168.094 49.5119L175.092 25.8959H177.267L183.792 49.6075C183.934 50.0856 184.029 50.5637 184.123 50.9939C184.218 51.4242 184.312 51.9022 184.36 52.3325H184.454C184.501 52.0456 184.549 51.7588 184.643 51.3764C184.738 50.9939 184.832 50.6115 184.927 50.1812L191.452 25.8481H194.478L185.825 56.0135Z" stroke="#5C5C5C" stroke-width="4" mask="url(#path-1-inside-1_1367_4549)"/>
<path d="M199.064 56.0135V25.8959H213.58V28.4774H201.807V39.5205H212.682V42.0542H201.807V53.5276H214.242V56.0613L199.064 56.0135Z" stroke="#5C5C5C" stroke-width="4" mask="url(#path-1-inside-1_1367_4549)"/>
<path d="M236.701 56.0135L232.209 47.3607C231.784 46.5002 231.358 45.7831 230.933 45.2094C230.507 44.6357 230.082 44.1577 229.656 43.823C229.23 43.4884 228.758 43.2494 228.238 43.106C227.717 42.9625 227.15 42.8669 226.535 42.8669H223.273V55.9657H220.53V25.8481H229.089C230.223 25.8481 231.311 26.0393 232.351 26.3739C233.391 26.7086 234.337 27.1866 235.141 27.8559C235.945 28.5252 236.606 29.3379 237.127 30.3418C237.647 31.3457 237.883 32.4931 237.883 33.8316C237.883 34.8834 237.741 35.8873 237.41 36.7956C237.079 37.7039 236.654 38.4688 236.039 39.1859C235.472 39.8552 234.715 40.4766 233.911 40.9547C233.06 41.4328 232.115 41.8152 231.074 42.0542V42.1498C231.453 42.3411 231.831 42.5323 232.162 42.8191C232.493 43.106 232.824 43.3928 233.108 43.7752C233.439 44.1577 233.722 44.5879 234.053 45.066C234.384 45.5441 234.668 46.1177 234.999 46.7392L240.011 56.0613H236.701V56.0135ZM223.226 28.4296V40.3332H228.143C229.136 40.3332 230.034 40.1898 230.885 39.903C231.736 39.6161 232.446 39.1859 233.013 38.66C233.58 38.1342 234.053 37.4649 234.384 36.7C234.715 35.9351 234.857 35.0746 234.857 34.1185C234.857 32.3497 234.29 31.0111 233.202 30.0072C232.115 29.0033 230.46 28.5252 228.379 28.5252H223.226V28.4296Z" stroke="#5C5C5C" stroke-width="4" mask="url(#path-1-inside-1_1367_4549)"/>
<path d="M244.55 25.8959H255.378C258.687 25.8959 261.241 26.5174 263.037 27.7603C264.834 29.0033 265.732 30.7243 265.732 32.9711C265.732 34.5965 265.165 36.0307 264.125 37.2259C263.037 38.421 261.666 39.2815 259.964 39.7596V39.8552C262.092 40.142 263.794 40.9069 265.023 42.2455C266.3 43.584 266.914 45.1616 266.914 47.0738C266.914 49.8466 265.921 51.9978 263.983 53.6232C262.044 55.2486 259.349 56.0613 255.992 56.0613H244.55V25.8959ZM251.264 30.8677V37.9907H254.195C255.567 37.9907 256.654 37.6561 257.458 36.9868C258.262 36.3175 258.64 35.3614 258.64 34.1663C258.64 31.9672 256.985 30.8677 253.723 30.8677H251.264ZM251.264 43.0582V50.9939H254.905C256.465 50.9939 257.694 50.6115 258.545 49.8944C259.444 49.1773 259.869 48.1734 259.869 46.9304C259.869 45.7353 259.444 44.7792 258.593 44.1099C257.742 43.4406 256.512 43.0582 254.952 43.0582H251.264Z" stroke="#5C5C5C" stroke-width="4" mask="url(#path-1-inside-1_1367_4549)"/>
<path d="M298.026 56.0135H290.697L288.57 49.3207H277.978L275.898 56.0135H268.617L279.444 25.8959H287.388L298.026 56.0135ZM287.057 44.1099L283.841 33.9751C283.605 33.2102 283.463 32.3019 283.321 31.2501H283.132C283.085 32.1106 282.896 33.0189 282.612 33.8794L279.35 44.1099H287.057Z" stroke="#5C5C5C" stroke-width="4" mask="url(#path-1-inside-1_1367_4549)"/>
<path d="M319.492 56.0135H301.762V25.8959H308.476V50.5159H319.492V56.0135Z" stroke="#5C5C5C" stroke-width="4" mask="url(#path-1-inside-1_1367_4549)"/>
<path d="M341.242 56.0135H323.511V25.8959H330.225V50.5159H341.242V56.0135Z" stroke="#5C5C5C" stroke-width="4" mask="url(#path-1-inside-1_1367_4549)"/>
</svg>
