<svg width="194" height="61" viewBox="0 0 194 61" fill="none" xmlns="http://www.w3.org/2000/svg">
<mask id="path-1-inside-1_1367_4543" fill="white">
<path d="M38.8841 28.3486L46.3682 49.0712C47.0234 50.843 48.4345 51.7417 50.6269 51.7417H62.0925C65.4187 51.7417 67.0819 52.923 67.0819 55.3111C67.0819 56.9545 66.5023 58.2384 65.3179 59.1628C64.1336 60.0872 62.4956 60.5495 60.4041 60.5495H48.6361C45.5114 60.5495 43.3191 60.1129 42.0592 59.2399C40.774 58.3668 39.6148 56.5179 38.5817 53.7447L29.1824 27.9121L21.8747 46.2722C20.4635 49.8929 18.4476 51.6904 15.8269 51.6904C14.7433 51.6904 13.811 51.3309 13.0298 50.6119C12.2486 49.8929 11.8706 49.0455 11.8706 48.044C11.8706 47.248 12.0722 46.3236 12.4754 45.2964L12.9038 44.2436L22.1015 21.1587C23.4874 17.6407 24.193 15.2269 24.193 13.866C24.193 12.6848 23.689 11.6833 22.681 10.8102C21.6731 9.96285 20.5139 9.52631 19.1532 9.52631C16.734 9.52631 14.5669 10.5535 12.6518 12.6077C10.7367 14.662 9.7539 16.9731 9.7539 19.5152C9.7539 22.3142 11.2406 24.2401 14.1889 25.3186C15.9781 25.9605 16.8852 27.0904 16.8852 28.7081C16.8852 30.0434 16.3813 31.1733 15.3481 32.0463C14.3149 32.9194 13.0298 33.3559 11.5178 33.3559C8.56954 33.3559 6.04963 32.072 3.9329 29.5299C1.84138 26.9877 0.757812 23.9319 0.757812 20.3883C0.757812 15.1242 2.69814 10.5278 6.55361 6.57329C10.4091 2.6188 14.9449 0.667236 20.1359 0.667236C24.0166 0.667236 27.2421 1.82277 29.8376 4.13383C32.4331 6.4449 33.7435 9.32089 33.7435 12.7875C33.7435 15.2526 33.1387 18.0002 31.9039 21.0816L30.6692 24.1374L49.2661 4.31358C51.282 2.18227 53.0964 1.10377 54.7595 1.10377C55.8935 1.10377 56.8258 1.48895 57.5818 2.23362C58.3378 3.00398 58.7158 3.95408 58.7158 5.10961C58.7158 6.52193 57.7582 8.26807 55.8431 10.2967L38.8841 28.3486Z"/>
<path d="M62.2436 30.9935L61.0341 34.0236C59.9505 36.7198 58.5394 38.0551 56.7754 38.0551C55.7171 38.0551 54.8351 37.7213 54.1295 37.0793C53.424 36.4374 53.0712 35.6157 53.0712 34.6656C53.0712 34.1006 53.3232 33.1762 53.8523 31.8409L57.859 21.775C58.8166 19.3355 60.2025 18.1286 61.9665 18.1286C63.7052 18.1286 64.7888 18.976 65.1919 20.6451L65.4691 21.775C65.6203 22.3399 65.8219 22.7251 66.0991 22.8534C66.3763 23.0075 67.0819 23.0589 68.1906 23.0589H76.4811C79.5806 23.0589 81.1178 24.163 81.1178 26.3714C81.1178 29.4271 79.1522 30.9422 75.2464 30.9422L74.8432 31.353C71.0885 34.9994 69.2238 37.824 69.2238 39.8269C69.2238 41.8298 70.3074 42.8313 72.4745 42.8313H76.9347C79.9334 42.8313 81.4202 43.8841 81.4202 46.0154C81.4202 47.5048 80.891 48.6603 79.8326 49.482C78.7743 50.3037 77.3127 50.7146 75.4228 50.7146H68.493C66.1243 50.7146 64.2092 49.8929 62.6972 48.2238C61.1853 46.5547 60.4545 44.4234 60.4545 41.7528C60.4545 40.058 60.8577 38.4403 61.6641 36.8482C62.4704 35.2562 63.8816 33.3046 65.9227 30.9935H62.2436Z"/>
<path d="M99.3619 22.5967C102.789 22.5967 105.611 23.7008 107.804 25.9092C110.021 28.1175 111.105 30.9422 111.105 34.3574C111.105 36.9253 110.525 39.4931 109.366 42.0353C108.207 44.5774 106.72 46.606 104.881 48.1211C103.646 49.0969 102.386 49.7902 101.075 50.1497C99.7651 50.5349 97.9256 50.7146 95.5569 50.7146C91.7014 50.7146 89.1059 50.2524 87.7703 49.3023C84.5953 47.0939 83.0329 43.8071 83.0329 39.4931C83.0329 34.9223 84.6457 30.9678 87.8963 27.6296C91.147 24.2658 94.9521 22.5967 99.3619 22.5967ZM98.5304 30.2745C96.7916 30.2745 95.1789 31.1476 93.7425 32.9194C92.3062 34.6656 91.5754 36.6171 91.5754 38.7228C91.5754 41.5217 93.1126 42.9083 96.1869 42.9083C97.976 42.9083 99.3619 42.3434 100.319 41.2136C101.932 39.3647 102.739 37.2334 102.739 34.871C102.739 33.51 102.361 32.4058 101.579 31.5585C100.798 30.6854 99.7903 30.2745 98.5304 30.2745Z"/>
<path d="M155.606 42.8313H159.815C162.788 42.8313 164.275 43.9098 164.275 46.0411C164.275 47.5048 163.746 48.6603 162.687 49.482C161.629 50.3037 160.167 50.7146 158.303 50.7146H151.121C149.559 50.7146 148.299 50.3037 147.341 49.4564C146.383 48.609 145.88 47.5048 145.88 46.1438C145.88 45.1937 146.207 43.9355 146.837 42.3177L150.189 34.0493C150.365 33.5614 150.466 33.1248 150.466 32.714C150.466 31.1476 149.685 30.3772 148.122 30.3772C146.913 30.3772 145.728 30.9422 144.544 32.0463C143.36 33.1505 142.427 34.6142 141.722 36.4374L137.765 46.4006C136.455 49.6361 134.59 51.2282 132.096 51.2282C131.138 51.2282 130.306 50.8944 129.626 50.2524C128.946 49.6104 128.593 48.8401 128.593 47.9413C128.593 47.248 128.769 46.4263 129.122 45.4762L129.5 44.5004L133.507 34.4344C133.86 33.5357 134.036 32.8424 134.036 32.3288C134.036 31.7896 133.809 31.3273 133.33 30.9422C132.852 30.557 132.297 30.3516 131.667 30.3516C129.122 30.3516 127.106 32.2261 125.619 35.9752L121.462 46.3236C120.151 49.5591 118.286 51.2025 115.842 51.2025C114.885 51.2025 114.053 50.8944 113.347 50.2524C112.642 49.6104 112.314 48.8401 112.314 47.9156C112.314 47.1967 112.491 46.3749 112.843 45.4505L113.221 44.4747L120.277 26.7823C121.26 24.3171 122.747 23.0589 124.737 23.0589C126.804 23.0589 128.064 24.0347 128.568 26.0119C130.18 24.6253 131.466 23.7008 132.474 23.2386C133.482 22.7764 134.716 22.5453 136.178 22.5453C139.353 22.5453 141.722 23.9576 143.284 26.7566C145.93 23.9319 148.903 22.5453 152.204 22.5453C154.472 22.5453 156.362 23.2129 157.899 24.5482C159.411 25.8835 160.193 27.5269 160.193 29.4785C160.193 30.7111 159.941 31.9693 159.411 33.2789L155.606 42.8313Z"/>
<path d="M182.015 22.5967C185.442 22.5967 188.264 23.7008 190.457 25.9092C192.674 28.1175 193.758 30.9422 193.758 34.3574C193.758 36.9253 193.178 39.4931 192.019 42.0353C190.86 44.5774 189.373 46.606 187.534 48.1211C186.299 49.0969 185.039 49.7902 183.729 50.1497C182.418 50.5349 180.579 50.7146 178.21 50.7146C174.354 50.7146 171.759 50.2524 170.423 49.3023C167.248 47.0939 165.686 43.8071 165.686 39.4931C165.686 34.9223 167.299 30.9678 170.549 27.6296C173.8 24.2658 177.605 22.5967 182.015 22.5967ZM181.183 30.2745C179.445 30.2745 177.832 31.1476 176.396 32.9194C174.959 34.6656 174.229 36.6171 174.229 38.7228C174.229 41.5217 175.766 42.9083 178.84 42.9083C180.629 42.9083 182.015 42.3434 182.973 41.2136C184.585 39.3647 185.392 37.2334 185.392 34.871C185.392 33.51 185.014 32.4058 184.233 31.5585C183.451 30.6854 182.418 30.2745 181.183 30.2745Z"/>
</mask>
<path d="M38.8841 28.3486L46.3682 49.0712C47.0234 50.843 48.4345 51.7417 50.6269 51.7417H62.0925C65.4187 51.7417 67.0819 52.923 67.0819 55.3111C67.0819 56.9545 66.5023 58.2384 65.3179 59.1628C64.1336 60.0872 62.4956 60.5495 60.4041 60.5495H48.6361C45.5114 60.5495 43.3191 60.1129 42.0592 59.2399C40.774 58.3668 39.6148 56.5179 38.5817 53.7447L29.1824 27.9121L21.8747 46.2722C20.4635 49.8929 18.4476 51.6904 15.8269 51.6904C14.7433 51.6904 13.811 51.3309 13.0298 50.6119C12.2486 49.8929 11.8706 49.0455 11.8706 48.044C11.8706 47.248 12.0722 46.3236 12.4754 45.2964L12.9038 44.2436L22.1015 21.1587C23.4874 17.6407 24.193 15.2269 24.193 13.866C24.193 12.6848 23.689 11.6833 22.681 10.8102C21.6731 9.96285 20.5139 9.52631 19.1532 9.52631C16.734 9.52631 14.5669 10.5535 12.6518 12.6077C10.7367 14.662 9.7539 16.9731 9.7539 19.5152C9.7539 22.3142 11.2406 24.2401 14.1889 25.3186C15.9781 25.9605 16.8852 27.0904 16.8852 28.7081C16.8852 30.0434 16.3813 31.1733 15.3481 32.0463C14.3149 32.9194 13.0298 33.3559 11.5178 33.3559C8.56954 33.3559 6.04963 32.072 3.9329 29.5299C1.84138 26.9877 0.757812 23.9319 0.757812 20.3883C0.757812 15.1242 2.69814 10.5278 6.55361 6.57329C10.4091 2.6188 14.9449 0.667236 20.1359 0.667236C24.0166 0.667236 27.2421 1.82277 29.8376 4.13383C32.4331 6.4449 33.7435 9.32089 33.7435 12.7875C33.7435 15.2526 33.1387 18.0002 31.9039 21.0816L30.6692 24.1374L49.2661 4.31358C51.282 2.18227 53.0964 1.10377 54.7595 1.10377C55.8935 1.10377 56.8258 1.48895 57.5818 2.23362C58.3378 3.00398 58.7158 3.95408 58.7158 5.10961C58.7158 6.52193 57.7582 8.26807 55.8431 10.2967L38.8841 28.3486Z" stroke="#5C5C5C" stroke-width="4" mask="url(#path-1-inside-1_1367_4543)"/>
<path d="M62.2436 30.9935L61.0341 34.0236C59.9505 36.7198 58.5394 38.0551 56.7754 38.0551C55.7171 38.0551 54.8351 37.7213 54.1295 37.0793C53.424 36.4374 53.0712 35.6157 53.0712 34.6656C53.0712 34.1006 53.3232 33.1762 53.8523 31.8409L57.859 21.775C58.8166 19.3355 60.2025 18.1286 61.9665 18.1286C63.7052 18.1286 64.7888 18.976 65.1919 20.6451L65.4691 21.775C65.6203 22.3399 65.8219 22.7251 66.0991 22.8534C66.3763 23.0075 67.0819 23.0589 68.1906 23.0589H76.4811C79.5806 23.0589 81.1178 24.163 81.1178 26.3714C81.1178 29.4271 79.1522 30.9422 75.2464 30.9422L74.8432 31.353C71.0885 34.9994 69.2238 37.824 69.2238 39.8269C69.2238 41.8298 70.3074 42.8313 72.4745 42.8313H76.9347C79.9334 42.8313 81.4202 43.8841 81.4202 46.0154C81.4202 47.5048 80.891 48.6603 79.8326 49.482C78.7743 50.3037 77.3127 50.7146 75.4228 50.7146H68.493C66.1243 50.7146 64.2092 49.8929 62.6972 48.2238C61.1853 46.5547 60.4545 44.4234 60.4545 41.7528C60.4545 40.058 60.8577 38.4403 61.6641 36.8482C62.4704 35.2562 63.8816 33.3046 65.9227 30.9935H62.2436Z" stroke="#5C5C5C" stroke-width="4" mask="url(#path-1-inside-1_1367_4543)"/>
<path d="M99.3619 22.5967C102.789 22.5967 105.611 23.7008 107.804 25.9092C110.021 28.1175 111.105 30.9422 111.105 34.3574C111.105 36.9253 110.525 39.4931 109.366 42.0353C108.207 44.5774 106.72 46.606 104.881 48.1211C103.646 49.0969 102.386 49.7902 101.075 50.1497C99.7651 50.5349 97.9256 50.7146 95.5569 50.7146C91.7014 50.7146 89.1059 50.2524 87.7703 49.3023C84.5953 47.0939 83.0329 43.8071 83.0329 39.4931C83.0329 34.9223 84.6457 30.9678 87.8963 27.6296C91.147 24.2658 94.9521 22.5967 99.3619 22.5967ZM98.5304 30.2745C96.7916 30.2745 95.1789 31.1476 93.7425 32.9194C92.3062 34.6656 91.5754 36.6171 91.5754 38.7228C91.5754 41.5217 93.1126 42.9083 96.1869 42.9083C97.976 42.9083 99.3619 42.3434 100.319 41.2136C101.932 39.3647 102.739 37.2334 102.739 34.871C102.739 33.51 102.361 32.4058 101.579 31.5585C100.798 30.6854 99.7903 30.2745 98.5304 30.2745Z" stroke="#5C5C5C" stroke-width="4" mask="url(#path-1-inside-1_1367_4543)"/>
<path d="M155.606 42.8313H159.815C162.788 42.8313 164.275 43.9098 164.275 46.0411C164.275 47.5048 163.746 48.6603 162.687 49.482C161.629 50.3037 160.167 50.7146 158.303 50.7146H151.121C149.559 50.7146 148.299 50.3037 147.341 49.4564C146.383 48.609 145.88 47.5048 145.88 46.1438C145.88 45.1937 146.207 43.9355 146.837 42.3177L150.189 34.0493C150.365 33.5614 150.466 33.1248 150.466 32.714C150.466 31.1476 149.685 30.3772 148.122 30.3772C146.913 30.3772 145.728 30.9422 144.544 32.0463C143.36 33.1505 142.427 34.6142 141.722 36.4374L137.765 46.4006C136.455 49.6361 134.59 51.2282 132.096 51.2282C131.138 51.2282 130.306 50.8944 129.626 50.2524C128.946 49.6104 128.593 48.8401 128.593 47.9413C128.593 47.248 128.769 46.4263 129.122 45.4762L129.5 44.5004L133.507 34.4344C133.86 33.5357 134.036 32.8424 134.036 32.3288C134.036 31.7896 133.809 31.3273 133.33 30.9422C132.852 30.557 132.297 30.3516 131.667 30.3516C129.122 30.3516 127.106 32.2261 125.619 35.9752L121.462 46.3236C120.151 49.5591 118.286 51.2025 115.842 51.2025C114.885 51.2025 114.053 50.8944 113.347 50.2524C112.642 49.6104 112.314 48.8401 112.314 47.9156C112.314 47.1967 112.491 46.3749 112.843 45.4505L113.221 44.4747L120.277 26.7823C121.26 24.3171 122.747 23.0589 124.737 23.0589C126.804 23.0589 128.064 24.0347 128.568 26.0119C130.18 24.6253 131.466 23.7008 132.474 23.2386C133.482 22.7764 134.716 22.5453 136.178 22.5453C139.353 22.5453 141.722 23.9576 143.284 26.7566C145.93 23.9319 148.903 22.5453 152.204 22.5453C154.472 22.5453 156.362 23.2129 157.899 24.5482C159.411 25.8835 160.193 27.5269 160.193 29.4785C160.193 30.7111 159.941 31.9693 159.411 33.2789L155.606 42.8313Z" stroke="#5C5C5C" stroke-width="4" mask="url(#path-1-inside-1_1367_4543)"/>
<path d="M182.015 22.5967C185.442 22.5967 188.264 23.7008 190.457 25.9092C192.674 28.1175 193.758 30.9422 193.758 34.3574C193.758 36.9253 193.178 39.4931 192.019 42.0353C190.86 44.5774 189.373 46.606 187.534 48.1211C186.299 49.0969 185.039 49.7902 183.729 50.1497C182.418 50.5349 180.579 50.7146 178.21 50.7146C174.354 50.7146 171.759 50.2524 170.423 49.3023C167.248 47.0939 165.686 43.8071 165.686 39.4931C165.686 34.9223 167.299 30.9678 170.549 27.6296C173.8 24.2658 177.605 22.5967 182.015 22.5967ZM181.183 30.2745C179.445 30.2745 177.832 31.1476 176.396 32.9194C174.959 34.6656 174.229 36.6171 174.229 38.7228C174.229 41.5217 175.766 42.9083 178.84 42.9083C180.629 42.9083 182.015 42.3434 182.973 41.2136C184.585 39.3647 185.392 37.2334 185.392 34.871C185.392 33.51 185.014 32.4058 184.233 31.5585C183.451 30.6854 182.418 30.2745 181.183 30.2745Z" stroke="#5C5C5C" stroke-width="4" mask="url(#path-1-inside-1_1367_4543)"/>
</svg>
