<svg width="96" height="96" viewBox="0 0 96 96" fill="none" xmlns="http://www.w3.org/2000/svg">
<path d="M17.5875 21.4875C16.7063 21.6938 17.2687 21.6562 16.5375 21.75C13.4062 22.425 15.7313 23.025 17.5875 21.4875ZM72.6562 22.7438C72.8812 22.5938 73.6687 21.825 71.2125 21.075C71.3625 21.8438 70.7063 21.7688 70.7063 22.2C72.525 23.85 73.275 26.7188 75.6 27.3187C76.05 25.2562 73.5375 24.2438 72.6562 22.7438ZM15.9188 20.8875C16.2 22.5562 17.4562 19.125 17.475 17.9062C16.9875 18.1875 16.5 18.4688 15.9938 18.6937C17.175 19.2937 16.1438 19.9312 14.8688 20.8875C12.2813 24.1125 17.2875 18.375 15.9188 20.8875ZM48 0C21.4875 0 0 21.4875 0 48C0 74.4938 21.4875 96 48 96C74.5125 96 96 74.4938 96 48C96 21.4875 74.5125 0 48 0ZM49.275 16.0875L49.5 16.1625C48.6 17.325 54.1875 20.7188 50.175 21C46.425 22.0688 51.75 20.025 48.8438 20.3812C50.3812 18.2437 47.625 18.2063 49.275 16.0875ZM26.5125 19.1625C25.1625 18.0375 20.925 20.7 22.4062 20.0625C26.0812 18.6187 22.65 20.2125 23.5125 21.9375C22.725 23.5688 23.25 20.325 21.3 22.2562C19.8937 22.575 16.4438 25.7625 16.875 24.7875C16.7625 26.3062 12.7687 28.1062 12.225 30.6375C10.9125 34.1437 11.9062 30.5062 11.6625 29.1375C9.7875 26.7562 6.375 33.1687 7.3875 35.7C9.09375 32.7 8.9625 35.3813 7.725 36.7125C8.98125 39.0187 6.58125 42.0187 8.9625 43.725C10.0125 43.9688 12.1125 40.2 11.1938 44.1188C11.8313 40.725 12.9563 44.925 14.775 43.9875C14.8875 45.7688 15.9937 44.9437 16.2375 47.1C19.275 46.875 22.05 52.0125 18.4313 52.9875C18.975 52.8375 20.0438 53.7938 21.2812 53.0625C23.3813 54.7313 28.9125 54.9375 29.0625 59.0625C25.2563 60.8812 28.125 65.8687 24.825 67.65C21.0375 67.0875 23.5312 72.3187 21.9375 71.7188C22.575 75.4875 18.1125 71.2312 19.8375 73.3125C23.0063 75.2625 18.45 74.8688 19.875 76.2937C18.2812 75.9562 20.8687 79.2563 21.3 80.475C23.5875 84.1875 19.3313 79.65 18.075 78.4125C16.875 76.0125 14.0437 71.4187 13.2562 67.65C12.8062 62.175 8.56875 58.5 7.59375 53.1562C6.61875 50.175 10.275 45.3937 8.30625 43.725C6.6 42.3937 7.29375 37.8375 6.28125 35.4375C8.8125 24.4688 16.8562 15.225 26.5125 9.75C25.5187 10.4812 32.1938 7.85625 31.425 8.49375C31.2188 8.9625 35.325 6.7125 37.8 6.375C37.5375 6.4125 31.3687 8.625 33.075 8.325C30.4312 9.61875 32.8125 8.8875 34.125 8.23125C31.5 10.1625 29.475 9.61875 26.4938 11.325C23.4938 12.1125 24.1125 15.225 21.975 16.7812C23.2312 17.0063 26.3813 13.5375 28.2188 12.3187C32.4375 10.275 26.0812 16.0312 30.0938 13.5563C28.7437 14.8125 29.025 16.8187 28.2 17.3812C27.7875 17.2687 29.8312 18.3562 26.5125 19.1625ZM33.075 10.5375C32.6437 11.1188 32.0438 12.375 31.6875 11.6063C31.2 11.85 31.0125 12.9 30.0938 12.0563C30.6375 11.6625 31.2 10.725 30.1312 11.3062C30.6187 10.7812 34.9688 9.3 34.725 8.7375C35.4937 8.25 35.4188 8.00625 34.5375 8.30625C34.0875 8.15625 35.6063 6.88125 37.6312 6.7125C37.9125 6.7125 38.025 6.9 37.5188 6.84375C34.4625 7.78125 35.775 7.51875 37.8375 6.84375C37.05 7.29375 36.5062 7.425 36.375 7.63125C38.4375 6.88125 36.2625 8.175 36.7312 8.08125C36.15 8.38125 36.825 8.475 35.7 8.90625C35.9062 8.7375 33.8625 10.125 35.0813 9.7125C33.9 10.8375 33.375 10.8562 33.075 10.5375ZM34.875 13.2188C34.9125 11.4187 37.5 10.275 37.1813 10.1812C40.3688 8.68125 36.075 10.2375 38.5875 8.8875C39.525 8.79375 41.5125 5.79375 44.2688 5.60625C47.3063 4.6875 45.9 5.6625 48.15 4.8L47.7 5.175C47.3062 5.23125 47.7938 5.925 46.3688 6.975C46.2188 8.60625 43.65 7.85625 44.925 9.6C44.1 8.41875 42.8625 9.5625 44.4187 9.675C42.75 10.95 38.8687 11.175 37.0125 13.2938C35.8125 15.0188 34.7062 14.475 34.875 13.2188ZM48.2063 19.2188C46.9313 22.2938 45.6937 18.7687 47.9437 18.2062C48.5062 18.5063 48.7313 18.6 48.2063 19.2188ZM43.4062 13.0687C43.0312 11.6812 43.3312 12.4125 45.5625 11.7563C47.1 12.8625 44.1937 13.5937 43.4062 13.0687ZM78.3188 68.1C76.5563 65.0625 80.4563 62.25 81.7688 59.7C81.6 62.6812 81.225 65.625 78.3188 68.1ZM84.9563 33.3938C83.0438 33.5438 81.3187 33.9938 79.5938 32.9062C75.6188 28.5562 80.325 37.8187 81.6375 34.0312C86.3625 35.8312 81.5625 43.5938 78.5813 42.7875C76.9125 39.1875 74.85 35.2313 71.2125 33.4688C74.0062 36.5625 75.3938 40.3687 78.3938 43.1625C78.6 47.0625 82.5563 41.7375 82.3125 44.7562C82.6875 49.95 76.4437 53.0625 77.5312 58.275C79.8562 63.0187 73.05 63.8812 73.8188 68.1375C71.0813 71.1937 68.1562 75.3188 63.2437 74.6625C63.2437 72.075 61.9313 69.8812 61.6313 67.2188C58.9688 63.8438 64.4437 60.225 61.05 56.7C57.1313 55.8187 61.8562 50.4188 57.825 50.925C55.4062 48.5063 51.8625 50.85 48.3938 50.8687C44.0438 51.2812 39.5625 45.525 41.4938 41.4563C39.9562 37.2188 46.3687 35.9813 46.5375 32.25C49.6125 29.6812 53.9813 30 58.1438 29.4C57.8438 32.3813 60.9938 32.4 63.375 33.3938C64.7063 30.1688 68.85 33.9188 71.6812 31.875C72.6562 27.1125 68.925 29.9813 66.7875 28.4625C64.2 24.675 72.3188 26.5125 71.475 24.525C68.325 24.5063 70.1062 20.6437 67.875 22.8C69.8812 23.1562 67.5187 24.7313 67.575 22.9313C64.5375 22.05 67.4625 26.3812 65.925 26.7937C63.5813 25.8187 64.6875 27.9 64.9312 28.2188C63.9187 30.4125 62.6813 24.9938 59.8125 25.1438C56.9625 22.5375 58.6875 26.325 61.1625 26.9437C60.6375 27.0938 61.4625 29.25 60.8062 28.3313C58.7625 25.5188 54.8812 23.6437 52.575 27.0938C52.3312 30.3188 45.7687 31.2375 46.8187 27.4688C45.2812 23.5688 51.5812 27.3563 51 24.2438C46.95 21.5625 52.1063 22.425 53.475 19.9125C56.5875 20.0062 53.6063 17.3625 55.0688 16.5938C54.9188 19.4625 57.45 18.9188 59.4563 18.375C58.9688 16.725 60.6562 16.7812 59.625 15.4125C64.275 13.5562 56.0812 16.275 57.7312 12.2062C55.725 10.8187 56.8875 15.2625 57.7312 15.7313C57.7875 17.1 56.625 18.7875 55.0312 15.9188C52.7062 17.4375 52.95 14.3813 52.8 14.7C52.5375 13.5188 54.5625 13.4625 54.5813 11.4C54.4125 10.0875 54.45 9.39375 55.3875 9.31875C55.4625 9.50625 59.2313 9.5625 60.5625 11.1187C56.925 10.3875 60.0187 11.7188 61.65 12.4688C59.9062 11.1 62.3438 12.4688 60.9187 10.9125C61.4812 11.025 59.3625 8.775 61.5375 10.7437C60.3563 9.3375 63.8438 9.75 61.7812 8.7C64.8 9.54375 63.0188 8.775 61.2375 8.00625C56.325 5.08125 69.9187 11.9625 64.3687 8.90625C67.9125 9.675 56.7937 6.16875 61.8562 7.70625C59.925 6.8625 61.8 7.33125 63.5437 7.875C60.4125 6.9 55.725 5.08125 55.9125 5.00625C57 5.08125 58.0688 5.325 59.1 5.625C62.3063 6.58125 58.1813 5.4 59.0625 5.41875C70.0875 8.25 79.7438 15.6375 85.6125 25.2937C86.9813 26.7375 90.7125 36.2812 88.7625 32.0437C89.6437 35.4187 89.775 39.0562 90.2437 42.5062C89.2687 41.4188 88.1812 37.4062 87.2437 35.175C86.85 36.0375 86.4 33.9563 84.9563 33.3938Z" fill="#E04048"/>
</svg>
