<svg width="1398" height="161" viewBox="0 0 1398 161" fill="none" xmlns="http://www.w3.org/2000/svg">
<path d="M422.111 134.524C428.662 134.829 439.29 138.535 443.718 136.196C448.147 133.856 458.123 129.688 462.485 132.086C447.762 124.005 431.519 115.689 426.272 115.315C422.813 115.069 403.879 124.831 380.217 137.926C390.16 134.515 396.928 138.683 402.877 139.607C408.826 140.531 415.577 134.22 422.111 134.524Z" fill="#F0F0F0" fill-opacity="0.42"/>
<path d="M235.786 140.579C231.174 140.727 212.758 148.051 199.674 153.497C203.4 153.939 209.7 156.259 214.58 156.161C221.816 156.004 227.33 152.101 232.494 153.792C237.658 155.483 243.624 159.69 250.258 160.329C260.903 161.361 262.524 158.766 268.239 159.533C273.032 160.093 277.875 160.496 282.744 160.742C260.518 149.869 239.88 140.461 235.786 140.579Z" fill="#F0F0F0" fill-opacity="0.42"/>
<path d="M124.14 148.896C129.705 149.162 138.729 152.308 142.522 150.322C146.316 148.336 151.128 146.802 155.691 147.589C160.253 148.375 167.037 149.653 167.037 149.653C151.997 142.153 132.797 132.941 127.633 132.587C124.759 132.381 106.293 139.793 82.6973 149.86C94.4952 148.503 97.1021 154.313 104.756 153.32C112.743 152.268 118.576 148.641 124.14 148.896Z" fill="#F0F0F0" fill-opacity="0.42"/>
<path d="M152.644 5.11284C150.038 6.75241 146.161 6.76654 142.768 6.52626C138.808 6.21531 134.313 5.87609 131.321 8.10929C129.96 9.3825 128.74 10.7594 127.678 12.2224C124.336 15.9255 117.267 13.6358 114.493 18.5828C114.109 19.3036 114.226 21.5792 113.14 21.8478C112.054 22.1163 109.697 20.717 108.544 20.604C104.783 20.4257 101.012 20.7114 97.348 21.452C95.6601 21.7192 94.0519 22.2679 92.6174 23.0663C91.1828 23.8647 89.9506 24.8967 88.9926 26.1022C88.0567 27.3177 87.3215 28.8159 85.6504 29.1976C84.6831 29.3503 83.6851 29.282 82.7594 28.9997C79.5296 28.049 76.1503 27.5107 72.7328 27.4025C69.2904 27.5014 65.6474 28.9149 64.3774 31.5438C64.1936 31.9113 64.0098 32.3636 63.5418 32.4626C63.0739 32.5615 62.6227 32.2788 62.2551 32.0244C60.9671 31.1647 59.4566 30.5755 57.8473 30.3053C56.238 30.035 54.5758 30.0913 52.9973 30.4696C51.9522 30.6908 51.0165 31.1855 50.3235 31.8831C49.4211 32.9149 49.488 34.3424 48.6524 35.3742C47.0983 37.1551 43.8063 36.7876 41.1826 36.2929C37.7235 35.671 33.6962 35.3177 30.9556 37.1975C30.2203 37.7064 29.6354 38.3424 28.85 38.8088C26.7611 40.095 23.8367 39.8406 21.2967 39.7558C19.6256 39.7558 -0.427526 41.1692 0.00695768 42.5827C0.441441 43.9961 5.37116 43.4731 6.5075 43.5155C8.17859 43.5155 9.84968 43.7982 11.5208 43.7699C13.1634 43.4999 14.85 43.4807 16.5006 43.7134C17.5534 44.0526 18.272 44.7735 19.425 45.0279C22.123 45.4607 24.9137 45.1588 27.3961 44.1657C30.3205 43.1904 33.4288 41.6215 36.6707 41.5933C38.2112 41.7664 39.7074 42.1533 41.0991 42.7381C44.0618 43.3994 47.1894 43.306 50.0896 42.4696C51.7606 42.0314 54.3675 40.8724 56.2392 41.1975C57.292 41.3813 58.4784 42.201 59.5814 42.4837C61.0242 42.8578 62.5078 43.1088 64.0097 43.2328C69.3739 43.6286 74.4708 40.929 79.4339 39.6427C85.7841 38.0173 89.4605 39.0491 94.4737 42.0314C96.5925 43.2509 99.0358 44.0068 101.585 44.2313C104.134 44.4557 106.709 44.1418 109.079 43.3176C110.46 42.7128 111.883 42.1795 113.34 41.7205C117.007 40.7002 120.977 40.775 124.587 41.9325C126.636 42.9705 128.839 43.7738 131.137 44.3212C138.808 45.4802 145.609 37.664 153.179 39.2187C154.696 39.6113 156.155 40.1521 157.524 40.83C161.749 42.4491 166.162 43.6903 170.692 44.5332C171.507 44.7557 172.36 44.8608 173.216 44.8441C174.383 44.6933 175.49 44.3053 176.441 43.7134C178.291 42.6078 180.267 41.6609 182.34 40.8866C183.374 40.4981 184.492 40.2974 185.623 40.2974C186.755 40.2974 187.873 40.4981 188.907 40.8866C189.851 41.52 190.877 42.0605 191.965 42.4979C195.007 43.1339 197.446 40.1374 200.538 39.671C203.629 39.2046 206.37 41.1975 209.445 40.8724C212.52 40.5473 215.678 39.0208 219.054 38.7382C226.624 38.1021 234.361 39.4449 241.797 37.6498C244.554 36.7818 247.419 36.1842 250.336 35.8689C255.751 35.6428 261.148 38.3565 266.379 37.1834C266.584 37.1482 266.778 37.0758 266.947 36.9714C267.499 36.5898 267.181 35.7558 266.546 35.4731C265.878 35.2458 265.147 35.1869 264.44 35.3035C262.22 35.4495 259.987 35.2434 257.856 34.6958C255.698 33.9634 253.495 33.3311 251.256 32.8018C244.22 31.671 236.717 36.1375 230.083 33.8477C228.384 33.0467 226.632 32.3293 224.836 31.6993C221.059 30.823 217.048 32.7735 213.138 32.1799C210.046 31.7134 207.623 29.7064 205.601 27.6711C203.805 25.4927 201.537 23.6222 198.917 22.1587C196.143 20.9008 192.233 21.0138 190.394 23.2046C189.754 21.0903 188.727 19.0732 187.353 17.2259C186.662 16.3065 185.732 15.5322 184.635 14.9616C183.538 14.3911 182.301 14.0392 181.02 13.9326C179.885 14.069 178.728 13.9369 177.677 13.551C176.826 12.827 176.331 11.8575 176.29 10.8372C175.881 9.1258 175.045 7.50796 173.838 6.0918C172.63 4.67564 171.079 3.49378 169.288 2.62522C166.856 1.45367 164.224 0.609636 161.484 0.123458C160.547 -0.0522585 159.573 -0.0402538 158.642 0.158515C157.711 0.357284 156.847 0.737319 156.12 1.26833C155.284 2.17287 154.508 3.11666 153.797 4.09517C153.465 4.47375 153.077 4.81563 152.644 5.11284Z" fill="#F0F0F0" fill-opacity="0.42"/>
<path d="M984.715 12.1128C982.108 13.7524 978.231 13.7665 974.839 13.5263C970.878 13.2153 966.383 12.8761 963.392 15.1093C962.03 16.3825 960.811 17.7594 959.749 19.2224C956.406 22.9255 949.338 20.6358 946.564 25.5828C946.179 26.3036 946.296 28.5792 945.21 28.8478C944.124 29.1163 941.768 27.717 940.615 27.604C936.854 27.4257 933.082 27.7114 929.418 28.452C927.73 28.7192 926.122 29.2679 924.688 30.0663C923.253 30.8647 922.021 31.8967 921.063 33.1022C920.127 34.3177 919.392 35.8159 917.721 36.1976C916.753 36.3503 915.755 36.282 914.83 35.9997C911.6 35.049 908.221 34.5107 904.803 34.4025C901.361 34.5014 897.718 35.9149 896.448 38.5438C896.264 38.9113 896.08 39.3636 895.612 39.4626C895.144 39.5615 894.693 39.2788 894.325 39.0244C893.037 38.1647 891.527 37.5755 889.918 37.3053C888.308 37.035 886.646 37.0913 885.068 37.4696C884.023 37.6908 883.087 38.1855 882.394 38.8831C881.491 39.9149 881.558 41.3424 880.723 42.3742C879.169 44.1551 875.877 43.7876 873.253 43.2929C869.794 42.671 865.766 42.3177 863.026 44.1975C862.291 44.7064 861.706 45.3424 860.92 45.8088C858.831 47.095 855.907 46.8406 853.367 46.7558C851.696 46.7558 831.643 48.1692 832.077 49.5827C832.512 50.9961 837.441 50.4731 838.578 50.5155C840.249 50.5155 841.92 50.7982 843.591 50.7699C845.234 50.4999 846.92 50.4807 848.571 50.7134C849.624 51.0526 850.342 51.7735 851.495 52.0279C854.193 52.4607 856.984 52.1588 859.466 51.1657C862.391 50.1904 865.499 48.6215 868.741 48.5933C870.282 48.7664 871.778 49.1533 873.169 49.7381C876.132 50.3994 879.26 50.306 882.16 49.4696C883.831 49.0314 886.438 47.8724 888.309 48.1975C889.362 48.3813 890.549 49.201 891.652 49.4837C893.095 49.8578 894.578 50.1088 896.08 50.2328C901.444 50.6286 906.541 47.929 911.504 46.6427C917.854 45.0173 921.531 46.0491 926.544 49.0314C928.663 50.2509 931.106 51.0068 933.655 51.2313C936.204 51.4557 938.779 51.1418 941.149 50.3176C942.53 49.7128 943.953 49.1795 945.411 48.7205C949.078 47.7002 953.048 47.775 956.657 48.9325C958.706 49.9705 960.909 50.7738 963.208 51.3212C970.878 52.4802 977.679 44.664 985.249 46.2187C986.767 46.6113 988.225 47.1521 989.594 47.83C993.819 49.4491 998.233 50.6903 1002.76 51.5332C1003.58 51.7557 1004.43 51.8608 1005.29 51.8441C1006.45 51.6933 1007.56 51.3053 1008.51 50.7134C1010.36 49.6078 1012.34 48.6609 1014.41 47.8866C1015.44 47.4981 1016.56 47.2974 1017.69 47.2974C1018.82 47.2974 1019.94 47.4981 1020.98 47.8866C1021.92 48.52 1022.95 49.0605 1024.04 49.4979C1027.08 50.1339 1029.52 47.1374 1032.61 46.671C1035.7 46.2046 1038.44 48.1975 1041.52 47.8724C1044.59 47.5473 1047.75 46.0208 1051.12 45.7382C1058.69 45.1021 1066.43 46.4449 1073.87 44.6498C1076.62 43.7818 1079.49 43.1842 1082.41 42.8689C1087.82 42.6428 1093.22 45.3565 1098.45 44.1834C1098.65 44.1482 1098.85 44.0758 1099.02 43.9714C1099.57 43.5898 1099.25 42.7558 1098.62 42.4731C1097.95 42.2458 1097.22 42.1869 1096.51 42.3035C1094.29 42.4495 1092.06 42.2434 1089.93 41.6958C1087.77 40.9634 1085.57 40.3311 1083.33 39.8018C1076.29 38.671 1068.79 43.1375 1062.15 40.8477C1060.45 40.0467 1058.7 39.3293 1056.91 38.6993C1053.13 37.823 1049.12 39.7735 1045.21 39.1799C1042.12 38.7134 1039.69 36.7064 1037.67 34.6711C1035.88 32.4927 1033.61 30.6222 1030.99 29.1587C1028.21 27.9008 1024.3 28.0138 1022.46 30.2046C1021.82 28.0903 1020.8 26.0732 1019.42 24.2259C1018.73 23.3065 1017.8 22.5322 1016.71 21.9616C1015.61 21.3911 1014.37 21.0392 1013.09 20.9326C1011.96 21.069 1010.8 20.9369 1009.75 20.551C1008.9 19.827 1008.4 18.8575 1008.36 17.8372C1007.95 16.1258 1007.12 14.508 1005.91 13.0918C1004.7 11.6756 1003.15 10.4938 1001.36 9.62522C998.927 8.45367 996.294 7.60964 993.555 7.12346C992.617 6.94774 991.644 6.95975 990.712 7.15851C989.781 7.35728 988.918 7.73732 988.191 8.26833C987.354 9.17287 986.579 10.1167 985.868 11.0952C985.535 11.4737 985.148 11.8156 984.715 12.1128Z" fill="#F0F0F0" fill-opacity="0.42"/>
<path d="M1282.71 55.1128C1280.11 56.7524 1276.23 56.7665 1272.84 56.5263C1268.88 56.2153 1264.38 55.8761 1261.39 58.1093C1260.03 59.3825 1258.81 60.7594 1257.75 62.2224C1254.41 65.9255 1247.34 63.6358 1244.56 68.5828C1244.18 69.3036 1244.3 71.5792 1243.21 71.8478C1242.12 72.1163 1239.77 70.717 1238.61 70.604C1234.85 70.4257 1231.08 70.7114 1227.42 71.452C1225.73 71.7192 1224.12 72.2679 1222.69 73.0663C1221.25 73.8647 1220.02 74.8967 1219.06 76.1022C1218.13 77.3177 1217.39 78.8159 1215.72 79.1976C1214.75 79.3503 1213.76 79.282 1212.83 78.9997C1209.6 78.049 1206.22 77.5107 1202.8 77.4025C1199.36 77.5014 1195.72 78.9149 1194.45 81.5438C1194.26 81.9113 1194.08 82.3636 1193.61 82.4626C1193.14 82.5615 1192.69 82.2788 1192.33 82.0244C1191.04 81.1647 1189.53 80.5755 1187.92 80.3053C1186.31 80.035 1184.65 80.0913 1183.07 80.4696C1182.02 80.6908 1181.09 81.1855 1180.39 81.8831C1179.49 82.9149 1179.56 84.3424 1178.72 85.3742C1177.17 87.1551 1173.88 86.7876 1171.25 86.2929C1167.79 85.671 1163.77 85.3177 1161.03 87.1975C1160.29 87.7064 1159.71 88.3424 1158.92 88.8088C1156.83 90.095 1153.91 89.8406 1151.37 89.7558C1149.7 89.7558 1129.64 91.1692 1130.08 92.5827C1130.51 93.9961 1135.44 93.4731 1136.58 93.5155C1138.25 93.5155 1139.92 93.7982 1141.59 93.7699C1143.23 93.4999 1144.92 93.4807 1146.57 93.7134C1147.62 94.0526 1148.34 94.7735 1149.5 95.0279C1152.19 95.4607 1154.98 95.1588 1157.47 94.1657C1160.39 93.1904 1163.5 91.6215 1166.74 91.5933C1168.28 91.7664 1169.78 92.1533 1171.17 92.7381C1174.13 93.3994 1177.26 93.306 1180.16 92.4696C1181.83 92.0314 1184.44 90.8724 1186.31 91.1975C1187.36 91.3813 1188.55 92.201 1189.65 92.4837C1191.09 92.8578 1192.58 93.1088 1194.08 93.2328C1199.44 93.6286 1204.54 90.929 1209.5 89.6427C1215.85 88.0173 1219.53 89.0491 1224.54 92.0314C1226.66 93.2509 1229.11 94.0068 1231.66 94.2313C1234.2 94.4557 1236.78 94.1418 1239.15 93.3176C1240.53 92.7128 1241.95 92.1795 1243.41 91.7205C1247.08 90.7002 1251.05 90.775 1254.66 91.9325C1256.71 92.9705 1258.91 93.7738 1261.21 94.3212C1268.88 95.4802 1275.68 87.664 1283.25 89.2187C1284.77 89.6113 1286.22 90.1521 1287.59 90.83C1291.82 92.4491 1296.23 93.6903 1300.76 94.5332C1301.58 94.7557 1302.43 94.8608 1303.29 94.8441C1304.45 94.6933 1305.56 94.3053 1306.51 93.7134C1308.36 92.6078 1310.34 91.6609 1312.41 90.8866C1313.44 90.4981 1314.56 90.2974 1315.69 90.2974C1316.82 90.2974 1317.94 90.4981 1318.98 90.8866C1319.92 91.52 1320.95 92.0605 1322.04 92.4979C1325.08 93.1339 1327.52 90.1374 1330.61 89.671C1333.7 89.2046 1336.44 91.1975 1339.52 90.8724C1342.59 90.5473 1345.75 89.0208 1349.12 88.7382C1356.69 88.1021 1364.43 89.4449 1371.87 87.6498C1374.62 86.7818 1377.49 86.1842 1380.41 85.8689C1385.82 85.6428 1391.22 88.3565 1396.45 87.1834C1396.65 87.1482 1396.85 87.0758 1397.02 86.9714C1397.57 86.5898 1397.25 85.7558 1396.62 85.4731C1395.95 85.2458 1395.22 85.1869 1394.51 85.3035C1392.29 85.4495 1390.06 85.2434 1387.93 84.6958C1385.77 83.9634 1383.57 83.3311 1381.33 82.8018C1374.29 81.671 1366.79 86.1375 1360.15 83.8477C1358.45 83.0467 1356.7 82.3293 1354.91 81.6993C1351.13 80.823 1347.12 82.7735 1343.21 82.1799C1340.12 81.7134 1337.69 79.7064 1335.67 77.6711C1333.88 75.4927 1331.61 73.6222 1328.99 72.1587C1326.21 70.9008 1322.3 71.0138 1320.46 73.2046C1319.82 71.0903 1318.8 69.0732 1317.42 67.2259C1316.73 66.3065 1315.8 65.5322 1314.71 64.9616C1313.61 64.3911 1312.37 64.0392 1311.09 63.9326C1309.96 64.069 1308.8 63.9369 1307.75 63.551C1306.9 62.827 1306.4 61.8575 1306.36 60.8372C1305.95 59.1258 1305.12 57.508 1303.91 56.0918C1302.7 54.6756 1301.15 53.4938 1299.36 52.6252C1296.93 51.4537 1294.29 50.6096 1291.55 50.1235C1290.62 49.9477 1289.64 49.9597 1288.71 50.1585C1287.78 50.3573 1286.92 50.7373 1286.19 51.2683C1285.35 52.1729 1284.58 53.1167 1283.87 54.0952C1283.54 54.4737 1283.15 54.8156 1282.71 55.1128Z" fill="#F0F0F0" fill-opacity="0.42"/>
<path d="M315.458 54.8228L314.889 55.0631C311.831 56.2503 308.289 55.2609 304.863 55.2892C301.613 55.3125 298.478 56.3148 296.023 58.1161C294.586 59.2044 293.433 60.533 292.029 61.6637C290.229 63.1027 288.073 64.1853 285.718 64.8331C283.362 65.4809 280.866 65.6777 278.409 65.4093C276.904 65.1575 275.38 64.9922 273.847 64.9146C269.904 64.9146 266.461 67.0772 262.685 68.0524C254.329 70.1867 245.389 66.328 236.866 67.6567C232.087 68.4058 227.792 70.7379 222.979 71.2609C220.022 71.586 216.963 71.1619 214.039 71.7838C214.039 73.1973 220.356 73.6213 221.759 73.6778C224.984 73.8276 228.212 73.4287 231.251 72.5047C233.131 71.8174 235.056 71.2228 237.017 70.7238C241.879 69.7627 246.759 71.3033 251.037 73.1266C252.851 73.7221 254.732 74.1579 256.652 74.427C259.159 75.0347 261.515 76.0948 264.038 76.7167C268.752 78.1181 273.869 78.2269 278.66 77.0276C281.484 76.1655 284.024 74.6672 286.932 74.0312C291.812 72.957 296.959 74.4976 301.437 76.5047C304.194 77.7343 307.085 79.2043 310.177 78.8651C314.522 78.3987 317.229 74.6248 321.206 73.0983C326.453 71.0771 332.904 72.7874 337.917 74.5118C340.741 75.5725 343.664 76.4329 346.657 77.0842C349.663 77.7203 352.808 77.7203 355.814 77.0842C357.987 76.3324 360.221 75.7136 362.499 75.2326C365.239 74.8934 368.047 75.6425 370.854 75.3174C371.82 75.185 372.771 74.9816 373.695 74.7096C375.984 74.0453 378.395 73.7341 380.814 73.7909C381.024 73.8194 381.239 73.779 381.416 73.6778C381.481 73.6154 381.528 73.5401 381.552 73.4588C381.575 73.3774 381.574 73.2925 381.549 73.2114C381.482 72.9687 381.34 72.7454 381.137 72.5642C380.934 72.383 380.679 72.2503 380.396 72.1796C379.854 72.0486 379.289 71.996 378.725 72.0241C375.132 72.0241 371.523 72.2361 367.93 72.5047C364.709 72.6298 361.487 72.2611 358.421 71.4164C356.149 70.8651 354.026 70.0029 351.737 69.692C349.646 69.1498 347.862 67.9782 346.724 66.3987C344.835 64.3634 342.83 61.7344 339.454 61.5507C338.801 61.5873 338.146 61.5054 337.533 61.3104C336.664 60.9288 336.413 59.9959 336.146 59.2044C334.674 55.7051 331.737 52.7834 327.89 50.9924C326.61 50.3447 325.112 50.0713 323.63 50.2143C322.147 50.3573 320.761 50.9089 319.685 51.7839C318.396 52.9101 316.98 53.9278 315.458 54.8228Z" fill="#F0F0F0" fill-opacity="0.42"/>
</svg>
