<svg width="13" height="13" viewBox="0 0 13 13" fill="none" xmlns="http://www.w3.org/2000/svg">
<path d="M6.54013 0.951292C6.63741 0.651866 7.06102 0.651866 7.15831 0.951292L8.38153 4.71596C8.42504 4.84987 8.54982 4.94053 8.69062 4.94053L12.649 4.94053C12.9639 4.94053 13.0948 5.3434 12.8401 5.52846L9.63764 7.85515C9.52373 7.93791 9.47607 8.08461 9.51958 8.21851L10.7428 11.9832C10.8401 12.2826 10.4974 12.5316 10.2427 12.3465L7.04025 10.0198C6.92634 9.93709 6.7721 9.93709 6.65819 10.0198L3.45577 12.3465C3.20106 12.5316 2.85836 12.2826 2.95565 11.9832L4.17886 8.21851C4.22237 8.08461 4.17471 7.93791 4.0608 7.85515L0.858382 5.52846C0.603675 5.3434 0.734577 4.94053 1.04941 4.94053L5.00782 4.94053C5.14862 4.94053 5.2734 4.84987 5.31691 4.71596L6.54013 0.951292Z" fill="#FFDD00"/>
</svg>
