<svg width="82" height="107" viewBox="0 0 82 107" fill="none" xmlns="http://www.w3.org/2000/svg">
<circle cx="16.5" cy="28.5" r="13.5" fill="#E04048"/>
<circle cx="65.5" cy="28.5" r="13.5" fill="#E04048"/>
<path d="M0 56.6087C0 50.1974 5.19739 45 11.6087 45H29.3913C35.8026 45 41 50.1974 41 56.6087V72.5C41 83.8218 31.8218 93 20.5 93C9.17816 93 0 83.8218 0 72.5V56.6087Z" fill="#E04048"/>
<path d="M41 56.6087C41 50.1974 46.1974 45 52.6087 45H70.3913C76.8026 45 82 50.1974 82 56.6087V72.5C82 83.8218 72.8218 93 61.5 93C50.1782 93 41 83.8218 41 72.5V56.6087Z" fill="#E04048"/>
<path d="M58.0652 18.5C58.0652 27.6004 50.4738 35.0652 41 35.0652C31.5262 35.0652 23.9348 27.6004 23.9348 18.5C23.9348 9.3996 31.5262 1.93478 41 1.93478C50.4738 1.93478 58.0652 9.3996 58.0652 18.5Z" fill="#E04048" stroke="white" stroke-width="3.86957"/>
<path d="M14.9348 53.6087C14.9348 48.2659 19.2659 43.9348 24.6087 43.9348H57.3913C62.7341 43.9348 67.0652 48.2659 67.0652 53.6087V83.7826C67.0652 95.5367 57.5367 105.065 45.7826 105.065H36.2174C24.4633 105.065 14.9348 95.5367 14.9348 83.7826V53.6087Z" fill="#E04048" stroke="white" stroke-width="3.86957"/>
</svg>
