<svg width="253" height="340" viewBox="0 0 253 340" fill="none" xmlns="http://www.w3.org/2000/svg">
<path opacity="0.15" d="M245.1 310.251L252.208 314.775L224.112 335.87L180.487 338.896L136.555 332.684L97.4087 340L70.3943 319.306L30.0761 316.489L0.728516 297.375L23.9504 273.438C23.9504 273.438 119.41 270.093 119.519 270.352C119.628 270.612 178.095 293.521 178.095 293.521L229.87 301.18L245.1 310.251Z" fill="black"/>
<path d="M28.1351 241.881C30.1207 250.242 27.5195 260.928 27.5195 260.928L29.6541 259.883C31.1632 248.119 28.1351 241.881 28.1351 241.881Z" fill="#E04048"/>
<path opacity="0.15" d="M28.1351 241.881C30.1207 250.242 27.5195 260.928 27.5195 260.928L29.6541 259.883C31.1632 248.119 28.1351 241.881 28.1351 241.881Z" fill="black"/>
<path opacity="0.15" d="M28.6072 260.309C28.6072 260.309 28.6072 260.368 28.6072 260.401L29.6596 259.883C31.1687 248.119 28.1406 241.882 28.1406 241.882C29.7986 245.937 29.6894 255.736 28.6072 260.309Z" fill="black"/>
<path d="M27.5319 260.928C26.8756 256.067 25.4325 251.304 23.243 246.773C19.8376 240.218 15.5586 237.291 15.5586 237.291C15.5586 237.291 20.7907 239.306 25.0797 246.346C27.6303 250.506 29.3987 254.974 30.3217 259.59L27.5319 260.928Z" fill="#E04048"/>
<path opacity="0.2" d="M27.5319 260.928C26.8756 256.067 25.4325 251.304 23.243 246.773C19.8376 240.218 15.5586 237.291 15.5586 237.291C15.5586 237.291 20.7907 239.306 25.0797 246.346C27.6303 250.506 29.3987 254.974 30.3217 259.59L27.5319 260.928Z" fill="black"/>
<path opacity="0.1" d="M28.9818 260.209L30.3221 259.565C29.3898 254.956 27.6148 250.497 25.0601 246.346C20.7712 239.306 15.5391 237.291 15.5391 237.291C20.6421 240.059 27.4429 249.13 28.9818 260.209Z" fill="black"/>
<path d="M27.5386 260.927C27.5386 260.927 26.0395 254.673 16.8262 249.464C22.4422 251.541 26.9966 255.234 29.6732 259.882L27.5386 260.927Z" fill="#E04048"/>
<path opacity="0.1" d="M28.6159 260.308V260.375L29.6087 259.882C26.9321 255.234 22.3778 251.541 16.7617 249.464C21.0805 251.554 26.3027 255.099 28.6159 260.308Z" fill="black"/>
<path d="M221.976 278.253C220.408 285.009 222.473 293.604 222.473 293.604L220.745 292.768C219.524 283.278 221.976 278.253 221.976 278.253Z" fill="#E04048"/>
<path opacity="0.15" d="M221.976 278.253C220.408 285.009 222.473 293.604 222.473 293.604L220.745 292.768C219.524 283.278 221.976 278.253 221.976 278.253Z" fill="black"/>
<path opacity="0.15" d="M221.581 293.102C221.581 293.102 221.581 293.152 221.581 293.177L220.728 292.759C219.506 283.278 221.959 278.253 221.959 278.253C220.618 281.522 220.708 289.415 221.581 293.102Z" fill="black"/>
<path d="M222.473 293.603C222.995 289.675 224.157 285.826 225.928 282.166C228.668 276.89 232.123 274.532 232.123 274.532C232.123 274.532 227.893 276.146 224.438 281.823C222.381 285.167 220.954 288.761 220.209 292.475L222.473 293.603Z" fill="#E04048"/>
<path opacity="0.2" d="M222.473 293.603C222.995 289.675 224.157 285.826 225.928 282.166C228.668 276.89 232.123 274.532 232.123 274.532C232.123 274.532 227.893 276.146 224.438 281.823C222.381 285.167 220.954 288.761 220.209 292.475L222.473 293.603Z" fill="black"/>
<path opacity="0.1" d="M221.281 293.035L220.209 292.509C220.954 288.795 222.381 285.201 224.438 281.857C227.893 276.18 232.123 274.566 232.123 274.566C228.003 276.782 222.522 284.098 221.281 293.035Z" fill="black"/>
<path d="M222.47 293.603C222.47 293.603 223.671 288.586 231.097 284.364C226.58 286.032 222.911 288.994 220.742 292.725L222.47 293.603Z" fill="#E04048"/>
<path opacity="0.1" d="M221.582 293.101V293.159L220.777 292.758C222.946 289.027 226.615 286.065 231.132 284.397C227.658 286.044 223.448 288.904 221.582 293.101Z" fill="black"/>
<path d="M243.358 304.918L244.272 314.115L217.158 332.802L178.26 334.574L134.328 328.061L106.757 335.444C106.757 335.444 76.1784 316.448 75.1856 315.921C74.1927 315.394 32.2166 307.627 32.2166 307.627L9.67969 293.605L22.1097 262.795L243.358 304.918Z" fill="#455A64"/>
<path d="M134.311 328.061L130.647 312.844L111.774 310.544L106.74 335.444L134.311 328.061Z" fill="#263238"/>
<path d="M106.733 335.442L111.766 310.543L87.3628 276.422L75.2207 315.919L106.733 335.442Z" fill="#37474F"/>
<path d="M217.149 332.798L178.241 334.571L176.314 293.602L205.89 299.312L217.149 332.798Z" fill="#37474F"/>
<path d="M178.237 334.574L133.084 322.994L134.305 328.061L178.237 334.574Z" fill="#37474F"/>
<path d="M243.363 304.916L217.152 332.8L244.276 314.088L243.363 304.916Z" fill="#37474F"/>
<path d="M32.2617 307.626L44.93 268.22L60.1102 271.155L66.484 314.089L32.2617 307.626Z" fill="#37474F"/>
<path d="M32.2615 307.627L44.9298 268.221L22.1546 262.795L9.72461 293.605L32.2615 307.627Z" fill="#263238"/>
<path d="M245.299 304.658C241.944 299.641 239.124 297.852 234.835 295.001C234.835 295.001 210.293 288.981 209.558 288.646C208.823 288.312 153.077 279.658 153.077 279.658L88.6531 253.095H40.5711C30.8117 255.094 21.8367 259.45 20.3574 261.005L20 263.137L25.5002 270.662L42.6858 276.289L61.4401 284.675L82.4877 293.32L110.703 316.255H130.56L177.222 323.721L215.058 320.176C227.657 315.418 240.653 310.628 244.902 306.798L245.299 304.658Z" fill="#E04048"/>
<path opacity="0.2" d="M245.299 304.658C241.944 299.641 239.124 297.852 234.835 295.001C234.835 295.001 210.293 288.981 209.558 288.646C208.823 288.312 153.077 279.658 153.077 279.658L88.6531 253.095H40.5711C30.8117 255.094 21.8367 259.45 20.3574 261.005L20 263.137L25.5002 270.662L42.6858 276.289L61.4401 284.675L82.4877 293.32L110.703 316.255H130.56L177.222 323.721L215.058 320.176C227.657 315.418 240.653 310.628 244.902 306.798L245.299 304.658Z" fill="black"/>
<path opacity="0.1" d="M42.3672 276.136L43.0324 274.096L61.7866 282.516L62.1838 284.965L42.3672 276.136Z" fill="black"/>
<path opacity="0.2" d="M43.0432 274.097L25.8576 268.478L20.3574 260.961L20 263.093L25.5002 270.618L42.378 276.137L43.0432 274.097Z" fill="black"/>
<path opacity="0.1" d="M25.5002 270.618L25.8576 268.478L20.3574 260.961L20 263.093L25.5002 270.618Z" fill="black"/>
<path opacity="0.1" d="M82.8379 291.156L82.4805 293.296L110.696 316.23L111.054 314.09L82.8379 291.156Z" fill="black"/>
<path opacity="0.2" d="M130.583 316.228L130.941 314.088H111.055L110.697 316.228H130.583Z" fill="black"/>
<path opacity="0.2" d="M177.262 323.693L177.619 321.553L215.455 318.008L215.098 320.148L177.262 323.693Z" fill="black"/>
<path d="M40.5711 253.053C30.8118 255.051 21.8367 259.407 20.3574 260.962L25.8576 268.487L43.0432 274.106L61.7975 282.526L82.8451 291.163L111.061 314.097H130.917L177.579 321.563L215.416 318.018C228.004 313.269 241 308.47 245.2 304.641C241.844 299.624 239.025 297.835 234.736 294.984C234.736 294.984 210.193 288.964 209.459 288.629C208.724 288.295 153.077 279.658 153.077 279.658L88.6531 253.095L40.5711 253.053Z" fill="#E04048"/>
<path opacity="0.1" d="M40.5711 253.053C30.8118 255.051 21.8367 259.407 20.3574 260.962L25.8576 268.487L43.0432 274.106L61.7975 282.526L82.8451 291.163L111.061 314.097H130.917L177.579 321.563L215.416 318.018C228.004 313.269 241 308.47 245.2 304.641C241.844 299.624 239.025 297.835 234.736 294.984C234.736 294.984 210.193 288.964 209.459 288.629C208.724 288.295 153.077 279.658 153.077 279.658L88.6531 253.095L40.5711 253.053Z" fill="white"/>
<path d="M231.29 298.947L216.884 307.625L191.736 307.684L160.572 312.843L125.207 305.895L103.465 290.485L133.329 276.89L185.779 240.194L192.689 254.926L201.366 255.202L203.312 267.016L214.789 277.333L217.152 288.654L231.29 298.947Z" fill="#455A64"/>
<path d="M185.778 240.194L192.688 254.926L174.4 248.153L185.778 240.194Z" fill="#263238"/>
<path d="M216.882 307.625L217.15 288.653L214.788 277.332L191.734 307.683L216.882 307.625Z" fill="#37474F"/>
<path d="M203.31 267.017V278.246L194.276 289.842L191.734 307.685L185.43 284.625L199.091 276.139L203.31 267.017Z" fill="#37474F"/>
<path d="M185.423 284.624L174.144 302.792L160.562 312.842L191.727 307.683L185.423 284.624Z" fill="#263238"/>
<path d="M174.149 302.794L155.663 294.709L125.203 305.896L160.567 312.844L174.149 302.794Z" fill="#37474F"/>
<path d="M185.426 284.625L191.73 272.451L188.583 266.482L166.314 275.553L174.148 302.794L185.426 284.625Z" fill="#37474F"/>
<path d="M125.207 305.894L130.946 277.977L103.465 290.485L125.207 305.894Z" fill="#263238"/>
<path d="M155.663 294.706L151.612 277.014L130.942 277.976L125.203 305.893L155.663 294.706Z" fill="#37474F"/>
<path d="M155.663 294.709L140.433 308.889L125.203 305.896L155.663 294.709Z" fill="#263238"/>
<path d="M204.439 255.202C204.439 255.202 196.755 249.792 182.915 246.665L189.299 243.087L188.594 241.063C188.594 241.063 182.121 237.778 167.05 235.085L155.662 248.722L129.73 254.893L115.562 265.762L93.502 265.051L103.43 290.461L130.881 283.538H153.319L169.204 285.093L197.092 270.218L205.164 257.2L204.439 255.202Z" fill="#E04048"/>
<path opacity="0.2" d="M204.439 255.202C204.439 255.202 196.755 249.792 182.915 246.665L189.299 243.087L188.594 241.063C188.594 241.063 182.121 237.778 167.05 235.085L155.662 248.722L129.73 254.893L115.562 265.762L93.502 265.051L94.733 268.195L103.46 290.527L130.911 283.604H153.349L169.234 285.16L197.122 270.285L205.194 257.267L204.439 255.202Z" fill="black"/>
<path opacity="0.2" d="M188.594 241.063L189.299 243.086L182.915 246.673L179.768 246.021L188.594 241.063Z" fill="black"/>
<path d="M179.753 246.022L188.589 241.064C188.589 241.064 182.116 237.778 167.045 235.086L155.658 248.722L129.726 254.893L115.558 265.762L94.709 268.195L103.456 290.528L130.202 281.573H152.62L168.505 283.095L196.393 268.22L204.465 255.202C204.465 255.202 195.579 248.965 179.753 246.022Z" fill="#E04048"/>
<path opacity="0.1" d="M179.753 246.022L188.589 241.064C188.589 241.064 182.116 237.778 167.045 235.086L155.658 248.722L129.726 254.893L115.558 265.762L94.709 268.195L103.456 290.528L130.202 281.573H152.62L168.505 283.095L196.393 268.22L204.465 255.202C204.465 255.202 195.579 248.965 179.753 246.022Z" fill="white"/>
<path opacity="0.2" d="M196.373 268.22L197.067 270.243L169.189 285.118L168.484 283.094L196.373 268.22Z" fill="black"/>
<path opacity="0.2" d="M130.916 283.562L130.211 281.539L103.465 290.485L130.916 283.562Z" fill="black"/>
<path opacity="0.2" d="M99.6917 273.929L123.42 272.65L115.954 265.56L88.6516 254.306H40.5696C38.584 254.707 36.7076 255.201 34.8808 255.744L31.9023 265.167L46.9633 272.567L69.4307 279.707L99.6917 273.929Z" fill="black"/>
<path d="M181.001 238.303V238.311L168.254 253.587L139.264 260.493L123.418 272.65L98.7369 271.856L70.0644 276.571L35.584 263.202L44.6682 218.738L161.185 209.708L165.97 226.037L175.571 227.868L181.001 238.303Z" fill="#455A64"/>
<path d="M123.416 272.65L102.795 249.147L101.206 231.865L92.8867 256.263L98.7344 271.856L123.416 272.65Z" fill="#37474F"/>
<path d="M75.3717 260.804L70.0701 276.582L48.3672 269.291L46.9375 248.129L56.6671 233.414L82.8277 244.642L75.3717 260.804Z" fill="#37474F"/>
<path d="M35.5918 263.203L48.3594 269.289L46.9297 248.128L56.6593 234.24L44.6661 218.739L35.5918 263.203Z" fill="#263238"/>
<path d="M98.7428 271.855L92.8951 256.262L101.215 231.865L82.828 244.64L75.3719 260.802L70.0703 276.579L98.7428 271.855Z" fill="#263238"/>
<path d="M153.306 237.801L162.301 232.199L165.964 226.037L161.179 209.708L151.221 220.377L153.306 237.801Z" fill="#37474F"/>
<path d="M139.264 260.494L153.312 237.802L151.227 220.377L140.584 225.929L139.264 260.494Z" fill="#263238"/>
<path d="M153.309 237.8L158.59 245.952L180.998 238.302L175.577 227.867L153.309 237.8Z" fill="#37474F"/>
<path d="M168.262 253.596L158.592 245.954L181 238.303L168.262 253.596Z" fill="#263238"/>
<path d="M105.248 256.129C104.534 263.804 108.128 272.157 108.128 272.157H106.082C103.293 261.747 105.248 256.129 105.248 256.129Z" fill="#E04048"/>
<path opacity="0.15" d="M105.248 256.129C104.534 263.804 108.128 272.157 108.128 272.157H106.082C103.293 261.747 105.248 256.129 105.248 256.129Z" fill="black"/>
<path opacity="0.15" d="M107.056 272.133H106.063C103.273 261.724 105.229 256.105 105.229 256.105C104.246 259.909 105.537 268.153 107.056 272.133Z" fill="black"/>
<path d="M108.124 272.133C108.147 268.045 108.855 263.98 110.229 260.06C112.482 253.897 115.957 250.904 115.957 250.904C115.957 250.904 111.509 253.162 108.531 259.834C106.752 263.774 105.71 267.923 105.443 272.133H108.124Z" fill="#E04048"/>
<path opacity="0.5" d="M108.124 272.133C108.147 268.045 108.855 263.98 110.229 260.06C112.482 253.897 115.957 250.904 115.957 250.904C115.957 250.904 111.509 253.162 108.531 259.834C106.752 263.774 105.71 267.923 105.443 272.133H108.124Z" fill="white"/>
<path opacity="0.1" d="M106.714 272.133H105.443C105.71 267.923 106.752 263.774 108.531 259.834C111.509 253.145 115.957 250.904 115.957 250.904C111.728 253.856 106.734 262.1 106.714 272.133Z" fill="black"/>
<path d="M108.135 272.132C108.135 272.132 108.711 267.383 116.326 261.923C111.525 264.136 107.875 267.775 106.09 272.132H108.135Z" fill="#E04048"/>
<path opacity="0.1" d="M107.051 272.132H106.059C107.844 267.775 111.494 264.136 116.295 261.923C112.73 264.181 108.491 267.291 107.051 272.132Z" fill="black"/>
<path d="M165.821 208.773C159.475 205.664 152.918 202.872 146.183 200.412L114.989 195.211L63.7296 200.897C63.7296 200.897 49.4331 208.589 42.3047 218.547V220.997L53.1661 235.629L82.8214 244.642L115.425 234.926L140.156 233.948L159.367 225.102V222.652L157.987 218.346L165.821 211.223V208.773Z" fill="#E04048"/>
<path opacity="0.1" d="M165.821 208.773C159.475 205.664 152.918 202.872 146.183 200.412L114.989 195.211L63.7296 200.897C63.7296 200.897 49.4331 208.589 42.3047 218.547V220.997L53.1661 235.629L82.8214 244.642L115.425 234.926L140.156 233.948L159.367 225.102V222.652L157.987 218.346L165.821 211.223V208.773Z" fill="black"/>
<path d="M42.3047 218.547L53.1661 233.179L82.8214 242.184L115.425 232.477L140.156 231.498L159.367 222.652L157.302 216.34L165.821 208.815C159.475 205.706 152.918 202.914 146.183 200.454L114.989 195.211L63.7296 200.897C63.7296 200.897 49.4331 208.589 42.3047 218.547Z" fill="#E04048"/>
<path opacity="0.2" d="M42.3047 218.547L53.1661 233.179L82.8214 242.184L115.425 232.477L140.156 231.498L159.367 222.652L157.302 216.34L165.821 208.815C159.475 205.706 152.918 202.914 146.183 200.454L114.989 195.211L63.7296 200.897C63.7296 200.897 49.4331 208.589 42.3047 218.547Z" fill="white"/>
<path opacity="0.2" d="M165.819 208.771L157.301 216.338L157.986 218.345L165.819 211.221V208.771Z" fill="black"/>
<path opacity="0.2" d="M140.147 233.948V231.498L115.416 232.477V234.926L140.147 233.948Z" fill="black"/>
<path opacity="0.1" d="M115.424 232.475L82.8203 242.19V244.64L115.424 234.924V232.475Z" fill="black"/>
<path opacity="0.3" d="M53.1661 235.63V233.18L42.3047 218.548V220.998L53.1661 235.63Z" fill="black"/>
<path d="M178.198 229.032L173.264 225.93L165.967 226.039L162.303 232.201L153.309 237.803L179.489 233.213L178.198 229.032Z" fill="#E04048"/>
<path opacity="0.2" d="M178.198 229.032L179.489 233.212L153.309 237.802L169.72 232.016L178.198 229.032Z" fill="black"/>
<path d="M165.967 226.039L162.303 232.201L153.309 237.803L173.741 231.867L178.198 229.032L173.264 225.93L165.967 226.039Z" fill="#E04048"/>
<path opacity="0.1" d="M165.967 226.039L162.303 232.201L153.309 237.803L173.741 231.867L178.198 229.032L173.264 225.93L165.967 226.039Z" fill="white"/>
<path opacity="0.15" d="M69.4146 208.366C55.7337 213.993 54.1948 219.545 66.4362 224.604C78.6776 229.662 105.345 228.257 118.579 227.873C131.982 227.48 139.974 226.761 145.921 225.95C152.493 225.064 168.071 220.239 160.634 216.677C152.076 212.572 131.624 215.674 117.695 213.45C103.766 211.226 104.064 207.422 94.7512 205.724C86.1927 204.191 77.2705 205.121 69.4146 208.366Z" fill="black"/>
<path d="M139.163 199.764C136.969 198.452 135.192 197.942 134.864 198.928C134.537 199.915 135.202 202.908 135.202 202.908L136.363 205.626L136.532 208.075C136.532 208.075 137.257 209.539 137.297 209.647C137.336 209.756 139.481 205.626 139.481 205.626C139.481 205.626 142.221 201.077 139.163 199.764Z" fill="black"/>
<path d="M82.6556 196.428C82.6556 196.428 95.5622 178.627 102.085 168.001C106.9 160.158 107.297 158.661 108.31 153.611C110.484 142.742 111 140.233 111 140.233L116.243 161.797C115.716 164.18 114.634 168.895 114.724 171.646C115.046 177.006 115.859 182.336 117.156 187.59C118.431 193.515 120.089 199.376 122.12 205.149C123.172 205.701 126.161 205.701 128.742 205.542C131.253 205.318 133.723 204.841 136.099 204.12C136.099 204.12 136.893 178.444 137.032 171.387C137.181 162.917 137.221 159.589 137.3 154.941C137.419 147.533 138.075 136.789 137.012 123.227C134.888 96.246 126.935 84.1894 126.935 84.1894L89.6847 81.3466C87.0935 90.5438 80.7494 91.8565 80.7494 104.298C80.7494 107.124 82.8443 112.659 83.1421 117.023C84.1349 131.237 86.8056 153.436 86.8056 153.436C82.9038 156.671 80.0743 159.573 77.6419 166.813C76.1229 171.27 71.5262 185.333 70.166 189.271C75.8648 190.35 82.6556 196.428 82.6556 196.428Z" fill="#455A64"/>
<path d="M115.702 100.235L114.71 100.151C114.104 105.076 112.982 110.678 112.218 111.146C110.907 111.982 105.893 112.768 104.752 112.576C103.61 112.383 102.567 111.664 100.443 109.49C98.9437 107.969 99.0429 106.982 99.2614 104.808C99.3507 103.972 99.4401 103.077 99.4699 101.924H98.477C98.477 103.052 98.3579 103.955 98.2785 104.758C98.0601 106.94 97.9211 108.253 99.6784 110.042C101.982 112.392 103.123 113.178 104.573 113.387C104.781 113.402 104.99 113.402 105.198 113.387C107.184 113.387 111.503 112.551 112.803 111.773C114.293 110.92 115.405 102.726 115.702 100.235Z" fill="#37474F"/>
<path d="M131.551 100.743L130.558 101.002C133.795 109.196 132.861 115.015 127.967 117.507C126.698 111.623 125.078 105.796 123.112 100.049L122.119 100.275C128.88 120.007 130.399 135.684 130.657 154.622C130.856 169.019 131.054 193.785 131.144 205.273L132.137 205.097C132.047 193.534 131.849 168.936 131.65 154.605C131.481 141.813 130.717 130.475 128.165 118.376C133.824 115.768 135.026 109.522 131.551 100.743Z" fill="#37474F"/>
<path d="M81.3699 108.253C82.0084 108.727 82.7702 109.067 83.5938 109.248C85.1625 109.248 87.6545 107.325 88.3196 105.903C88.6189 105.09 88.7826 104.246 88.8061 103.395C88.8874 102.133 89.1 100.88 89.4415 99.6493L88.4487 99.457C88.0947 100.729 87.8721 102.024 87.7835 103.328C87.7642 104.104 87.624 104.874 87.3665 105.619C86.8602 106.739 84.676 108.412 83.6336 108.412C82.67 108.047 81.8026 107.524 81.082 106.873C81.1416 107.283 81.2707 107.843 81.3699 108.253Z" fill="#37474F"/>
<path d="M100.79 117.609C101.266 128.737 99.6876 149.523 98.4565 155.752C97.4637 161.086 82.4424 185.066 77.6074 192.657L78.4017 193.184C83.1473 185.701 98.3175 161.454 99.4096 155.885C100.641 149.631 102.229 128.754 101.753 117.575L100.79 117.609Z" fill="#37474F"/>
<path d="M94.3693 97.7845C92.0262 101.171 90.8051 106.982 94.3693 113.202L95.2628 112.843C91.8574 106.923 93.0091 101.405 95.2132 98.2026L94.3693 97.7845Z" fill="#37474F"/>
<path d="M110.998 140.227L105.776 117.611C105.776 117.611 95.302 116.775 93.4355 108.815C93.4355 113.597 95.9672 117.611 102.55 119.576L108.824 140.395L108.308 153.638L110.998 140.227Z" fill="#37474F"/>
<path d="M160.603 216.41C161.219 216.326 161.268 218.274 161.1 218.918C160.931 219.562 158.588 221.828 154.15 222.831C149.712 223.835 142.842 223.333 140.181 223.383C137.52 223.433 135.008 224.595 131.335 225.181C128.059 225.699 123.551 225.222 121.913 224.052C121.613 223.783 121.387 223.461 121.251 223.11C121.116 222.759 121.074 222.387 121.129 222.02C121.069 220.582 121.208 220.281 121.407 220.281L160.603 216.41Z" fill="#263238"/>
<path d="M121.125 217.105C120.929 218.501 121.013 219.914 121.373 221.286C122.008 222.331 123.766 222.833 124.977 223.067C128.194 223.677 130.576 223.401 134.002 222.649C136.206 222.082 138.489 221.759 140.792 221.687C143.542 221.687 147.345 221.863 150.065 221.487C152.381 221.257 154.641 220.729 156.767 219.923C158.534 219.171 160.242 218.251 160.629 216.679C160.651 215.633 160.287 214.607 159.589 213.741C158.89 212.876 157.89 212.214 156.727 211.846C154.662 211.01 152.051 211.119 149.777 211.069C146.918 211.01 145.856 211.211 142.947 210.701C141.418 210.433 139.303 211.052 138.509 209.681C137.566 208.059 138.062 204.89 137.655 203.159C137.641 203.015 137.592 202.875 137.51 202.749C137.428 202.622 137.315 202.511 137.179 202.423C136.742 202.223 136.186 202.49 135.828 202.741C133.99 203.841 131.866 204.555 129.633 204.823C123.507 205.743 121.691 203.987 121.691 203.987L121.323 202.917C121.323 202.917 119.993 203.159 120.618 205.592C121.17 207.594 121.503 209.634 121.611 211.687C121.739 213.504 121.575 215.326 121.125 217.105Z" fill="#37474F"/>
<path d="M148.681 211.052C150.905 211.796 150.458 215.057 150.458 215.057C148.089 215.485 145.648 215.553 143.25 215.258C139.12 214.556 137.293 212.298 137.204 209.472C137.115 206.646 139.269 203.21 139.845 202.073C140.096 201.687 140.166 201.235 140.041 200.808C139.916 200.38 139.605 200.008 139.17 199.765C141.155 200.768 141.304 201.905 140.748 203.277C140.192 204.648 139.289 207.457 139.706 208.536C140.123 209.614 143.449 210.893 148.681 211.052Z" fill="#263238"/>
<path d="M83.0109 195.366C84.2321 196.837 85.6022 197.874 82.0975 199.805C79.3971 201.294 79.2184 202.498 78.3645 204.094C77.5107 205.691 77.6596 208.91 77.6596 208.91C77.6596 208.91 73.0927 202.991 74.4727 199.212C75.8527 195.432 83.0109 195.366 83.0109 195.366Z" fill="#263238"/>
<path d="M68.1802 191.872C67.3065 192.925 65.2911 193.82 63.6231 194.681C62.4417 195.283 61.2305 195.877 60.873 196.997C60.873 197.123 61.5581 197.833 61.5382 197.959C61.4721 198.516 61.4921 199.078 61.5978 199.631C61.846 201.546 63.0771 202.975 63.3253 204.882C63.4083 205.641 63.5677 206.394 63.8018 207.131C63.9908 208.03 64.0706 208.943 64.0401 209.856C64.0997 210.81 64.1692 211.771 64.2188 212.724C64.2686 213.125 64.2652 213.529 64.2089 213.928C64.0997 214.33 71.7741 217.641 74.8618 218.945C75.0405 219.02 75.2192 219.079 75.4178 219.146C77.3073 219.587 79.323 219.432 81.0867 218.711C87.2918 216.863 86.9245 214.973 86.9245 214.973C86.9245 214.973 87.133 212.8 84.0056 211.311C83.6352 211.124 83.2425 210.97 82.8341 210.851H82.7745C81.2395 210.36 79.563 210.276 77.9693 210.609C77.6721 209.835 77.5377 209.023 77.5722 208.209C77.4679 206.99 77.4679 205.766 77.5722 204.547C77.8588 203.165 78.5065 201.855 79.4685 200.709C80.7889 199.188 82.2285 197.273 83.1319 196.178C84.1248 195.241 84.2737 192.541 79.1607 189.405C74.2562 186.412 70.6324 187.006 69.9275 188.243C69.5126 189.505 68.9262 190.723 68.1802 191.872Z" fill="#37474F"/>
<path d="M81.2681 212.465C80.8676 211.583 80.0979 210.854 79.1038 210.417C78.7355 210.446 78.3704 210.499 78.0117 210.576C78.6273 211.077 80.8512 211.813 81.2681 212.465Z" fill="#263238"/>
<path d="M60.0997 198.108C58.7197 198.585 60.0997 201.737 61.1521 204.73C62.2045 207.724 62.6711 208.744 62.3236 211.252C61.9761 213.76 61.7577 214.914 63.0484 215.8C64.339 216.687 74.4657 220.207 74.4657 220.207C72.9914 217.224 72.1125 214.057 71.8645 210.834C71.388 205.282 70.7824 201.712 67.5259 199.271C66.5 198.573 65.2839 198.101 63.9874 197.898C62.6909 197.696 61.3548 197.768 60.0997 198.108Z" fill="#E04048"/>
<path opacity="0.4" d="M60.0997 198.108C58.7197 198.585 60.0997 201.737 61.1521 204.73C62.2045 207.724 62.6711 208.744 62.3236 211.252C61.9761 213.76 61.7577 214.914 63.0484 215.8C64.339 216.687 74.4657 220.207 74.4657 220.207C72.9914 217.224 72.1125 214.057 71.8645 210.834C71.388 205.282 70.7824 201.712 67.5259 199.271C66.5 198.573 65.2839 198.101 63.9874 197.898C62.6909 197.696 61.3548 197.768 60.0997 198.108Z" fill="black"/>
<path d="M86.9631 214.94C86.7943 216.019 83.1011 218.201 78.7525 218.134C74.404 218.067 74.0466 217.298 73.4013 212.992C72.7559 208.686 72.3489 202.75 70.1647 200.183C67.9805 197.616 65.1013 196.095 60.8521 196.998C60.3656 197.19 59.0452 198.285 59.5317 199.322C59.5317 199.322 59.5317 198.486 61.2691 198.093C62.7583 197.742 64.5354 197.792 67.0075 199.606C69.8966 201.738 70.5022 206.688 70.8001 210.944C71.0979 215.2 71.5149 220.141 75.6947 220.525C79.7748 220.771 83.8047 219.647 86.9035 217.398C87.1611 216.595 87.1816 215.752 86.9631 214.94Z" fill="#263238"/>
<path d="M94.9672 39.492C89.2386 39.492 83.1328 40.8967 76.749 49.0152C71.944 55.1224 68.0211 61.6904 65.0636 68.5801C63.763 71.7991 60.6158 77.401 63.3262 79.5498C66.0366 81.6986 79.5091 80.712 84.6915 76.6652C89.874 72.6185 92.1476 55.3864 92.1476 55.3864L94.9672 39.492Z" fill="#FFBDA7"/>
<path d="M167.827 52.519C172.979 50.1946 168.055 43.2382 164.094 36.633C157.67 25.9727 151.674 18.1383 148.119 14.819C146.303 13.1468 141.845 10.9144 138.271 9.57663C136.434 8.88266 135.431 8.28902 133.525 8.30574C131.321 8.30574 128.928 8.13853 125.99 8.08C123.637 7.93366 121.274 7.93366 118.921 8.08C118.548 8.08272 118.191 8.20885 117.928 8.43116C117.841 8.55826 117.795 8.70245 117.795 8.84921C117.795 8.99598 117.841 9.14016 117.928 9.26727C118.112 9.52116 118.364 9.73577 118.663 9.89434C119.24 10.2481 119.876 10.5297 120.549 10.7304C120.267 10.8583 120.028 11.0442 119.854 11.2708C119.681 11.4974 119.578 11.7574 119.556 12.0264C119.556 12.7622 120.549 13.197 121.304 13.5481C121.4 13.5887 121.479 13.6528 121.532 13.7321C121.575 13.8349 121.575 13.947 121.532 14.0498C121.451 14.3224 121.465 14.6087 121.57 14.8752C121.675 15.1417 121.869 15.3774 122.128 15.5548C122.644 15.9062 123.243 16.1626 123.885 16.3073C126.287 16.9845 129.266 16.8006 131.44 17.9042C132.483 18.6035 133.435 19.3938 134.28 20.2621C135.339 21.2124 136.638 21.9497 138.082 22.4192C141.587 23.3807 142.053 22.0513 143.83 25.287C145.608 28.5228 151.118 45.1947 151.118 45.1947L167.827 52.519Z" fill="#FFBDA7"/>
<path d="M139.345 12.6705C139.404 12.9548 139.047 13.1638 138.739 13.2056C138.43 13.2431 138.115 13.2431 137.806 13.2056C137.182 13.1655 136.564 13.0788 135.959 12.9464C134.748 12.6873 133.616 12.2859 132.455 12.1103C131.887 12.0071 131.308 11.9567 130.727 11.9598C130.456 11.9551 130.185 11.9832 129.923 12.0434C129.702 12.0892 129.502 12.188 129.347 12.3277C129.089 12.5535 129.198 12.913 129.516 13.2725C129.875 13.6406 130.296 13.9618 130.767 14.2257C131.792 14.7209 132.895 15.0924 134.043 15.3293C134.671 15.4748 135.27 15.6973 135.82 15.9899C136.363 16.3224 136.797 16.7654 137.081 17.2775C137.369 17.7708 137.518 18.2892 137.746 18.7407C137.968 19.1985 138.272 19.6245 138.65 20.0032C139.479 20.7442 140.497 21.3161 141.628 21.6754C140.405 21.4392 139.274 20.9442 138.342 20.2373C137.889 19.8627 137.514 19.4276 137.23 18.9497C136.942 18.4647 136.763 17.9798 136.475 17.5617C136.222 17.1437 135.846 16.787 135.383 16.525C134.888 16.2833 134.353 16.1058 133.795 15.9982C132.552 15.776 131.359 15.3894 130.26 14.8528C129.707 14.5426 129.215 14.1618 128.801 13.724C128.579 13.4765 128.423 13.1912 128.344 12.8879C128.31 12.7062 128.324 12.5204 128.386 12.3439C128.448 12.1674 128.556 12.0048 128.702 11.8679C128.969 11.6648 129.284 11.5108 129.626 11.4158C129.967 11.3208 130.329 11.2868 130.687 11.316C131.333 11.3239 131.974 11.4055 132.594 11.5585C133.815 11.8428 134.927 12.2943 136.068 12.6204C136.632 12.8041 137.213 12.9468 137.806 13.0468C138.096 13.0967 138.394 13.1136 138.689 13.0969C138.766 13.1089 138.845 13.107 138.921 13.0915C138.997 13.076 139.068 13.0472 139.13 13.007C139.192 12.9667 139.243 12.916 139.28 12.858C139.317 12.8 139.339 12.7362 139.345 12.6705Z" fill="#F0997A"/>
<path d="M127.835 11.7175C128.386 11.0142 128.707 10.2017 128.768 9.36108C128.829 8.52043 128.627 7.68101 128.183 6.92659C127.399 5.40488 125.83 3.82463 121.382 2.06881C116.09 -0.0298125 101.754 -1.17528 95.0627 6.9015C94.0698 8.07205 109.131 29.8275 108.654 34.493C112.139 31.1486 123.646 19.4431 123.646 19.4431C126.446 18.3311 128.123 17.4113 128.61 15.1288C128.786 13.9513 128.515 12.7572 127.835 11.7175Z" fill="#263238"/>
<path d="M125.986 18.1136C125.986 18.1136 130.067 23.2807 129.67 23.7239C128.801 24.3465 127.871 24.9059 126.89 25.3961L125.986 18.1136Z" fill="#F0997A"/>
<path d="M120.789 8.59109C123.42 9.52752 125.753 11.0994 126.746 15.8652C127.014 17.1026 125.932 18.8417 126.538 20.4805C129.099 27.5038 126.706 33.507 125.128 34.8615C124.056 35.7812 118.287 36.3581 115.2 35.7478C111.367 34.9786 102.968 32.1024 98.8083 27.2279C93.9137 21.5005 92.4741 13.6244 97.4878 10.28C104.537 5.57274 117.97 7.5794 120.789 8.59109Z" fill="#FFBDA7"/>
<path d="M101.482 31.1569L100.569 39.6433C98.2955 40.237 98.6926 42.9292 100.033 44.5847L99.7649 47.093L114.588 48.2134L116.821 33.8742L101.482 31.1569Z" fill="#FFBDA7"/>
<path d="M124.804 35.0524C123.484 35.7213 120.535 36.2815 116.484 35.9387L116.733 34.1828C117.994 34.5604 119.293 34.8403 120.614 35.0189C122.002 35.2027 123.413 35.214 124.804 35.0524Z" fill="#F0997A"/>
<path d="M124.705 11.0063C124.983 14.0916 122.719 15.1367 121.121 15.7972C121.796 16.9144 122.085 18.1688 121.955 19.4176C121.667 20.9978 121.012 22.3021 119.205 22.879C118.103 23.2386 117.755 22.8289 117.318 22.1015C116.703 21.0563 115.919 19.4594 113.238 19.8607C110.16 20.3122 109.525 24.2586 111.441 26.7753C111.815 27.3054 112.335 27.7517 112.957 28.0763C113.579 28.4009 114.285 28.5942 115.015 28.6398C115.416 28.6196 115.808 28.528 116.164 28.3709C116.52 28.2137 116.832 27.9948 117.08 27.7285C117.08 27.7285 117.08 31.1648 111.898 33.3554C111.898 33.3554 106.735 36.031 101.275 34.8521C98.7271 32.6601 96.3211 30.3547 94.0667 27.9458C88.0304 21.1901 86.3426 8.52312 95.9729 5.93119C96.4296 5.80577 105.186 4.49309 109.505 5.09509C122.779 7.11846 124.655 10.4712 124.705 11.0063Z" fill="#263238"/>
<path d="M117.075 27.7272C117.075 31.5399 115.188 35.4612 111.217 37.5097C108.941 38.7528 106.211 39.2661 103.523 38.9561C100.604 38.5966 97.8043 37.6184 94.8358 37.5515C88.73 37.4177 83.2198 41.3056 77.124 40.9962C73.8323 40.7354 70.7524 39.5139 68.417 37.5431C66.4314 35.9462 64.7833 33.9646 62.3608 32.8944C59.9384 31.8242 56.9401 31.8074 54.1999 31.2807C50.5346 30.5634 47.2371 28.8791 44.788 26.4731C43.046 24.8509 41.9734 22.7979 41.7301 20.6204C41.7031 19.5566 42.0136 18.5061 42.6297 17.5771C43.2458 16.6482 44.1451 15.8746 45.2348 15.3362C47.1112 14.3579 49.9606 14.0068 51.8271 13.0118C53.9219 11.9081 54.19 9.8346 56.0465 8.45502C57.9505 7.18492 60.2734 6.44039 62.6984 6.32296C65.8439 6.06529 69.0184 6.3877 72.001 7.26775C75.3667 8.27944 78.643 10.0269 82.2072 9.77607C85.5331 9.52524 88.303 7.71089 90.8149 6.03032C94.2301 3.76448 97.2582 2.8364 99.7502 3.13739C99.8892 3.13739 99.4325 26.448 107.861 29.1152C116.29 31.7824 117.075 27.7272 117.075 27.7272Z" fill="#263238"/>
<path d="M85.1586 45.8051C86.8662 41.8922 97.9361 39.4424 97.2511 39.4006C98.7701 39.5009 100.567 39.643 100.567 39.643C99.6438 41.1898 100.974 42.2851 103.367 42.862C106.464 43.6145 111.22 43.8905 114.566 42.2183L115.559 41.6581C118.457 42.0054 121.331 42.4883 124.166 43.1045C129.398 44.7767 130.709 46.2734 136.14 58.1544C138.453 63.2296 137.023 68.4887 130.768 71.3649C130.302 74.5003 129.776 79.4333 129.776 79.4333C131.502 86.1669 132.768 92.9784 133.568 99.8343C133.568 99.8343 130.272 106.13 107.447 105.068C89.7851 104.232 81.5547 96.7072 81.5547 96.7072C81.9915 93.0534 84.7317 87.2258 90.3609 76.2226C83.7587 60.3952 82.7163 51.407 85.1586 45.8051Z" fill="#263238"/>
<path d="M100.568 39.6432C100.568 39.6432 93.1713 42.4024 91.6821 46.3822L84.7324 45.6465C84.7324 45.6465 89.4979 40.8472 95.3655 39.4008C99.297 39.0747 100.568 39.6432 100.568 39.6432Z" fill="#E04048"/>
<path opacity="0.35" d="M100.568 39.6432C100.568 39.6432 93.1713 42.4024 91.6821 46.3822L84.7324 45.6465C84.7324 45.6465 89.4979 40.8472 95.3655 39.4008C99.019 39.0747 100.568 39.6432 100.568 39.6432Z" fill="black"/>
<path d="M116.604 52.0773C116.604 52.0773 119.91 44.0841 124.219 43.1059C121.578 42.3588 118.83 41.9144 116.048 41.7848C113.178 43.5461 110.897 45.902 109.426 48.6242L116.604 52.0773Z" fill="#E04048"/>
<path opacity="0.35" d="M116.604 52.0773C116.604 52.0773 119.91 44.0841 124.219 43.1059C121.578 42.3588 118.83 41.9144 116.048 41.7848C113.178 43.5461 110.897 45.902 109.426 48.6242L116.604 52.0773Z" fill="black"/>
<path d="M88.8892 41.6093C84.6598 41.3418 78.147 44.8785 76.5882 47.5708C74.9501 50.3968 68.2685 89.376 71.7632 93.2221C76.1117 98.0464 98.1224 108.163 107.882 108.414C110.636 108.477 113.363 107.948 115.807 106.877C118.251 105.806 120.331 104.229 121.851 102.294C123.936 99.4344 122.546 58.9083 120.093 55.38C116.102 49.6276 94.2703 41.9521 88.8892 41.6093Z" fill="#E04048"/>
<path opacity="0.2" d="M88.8892 41.6093C84.6598 41.3418 78.147 44.8785 76.5882 47.5708C74.9501 50.3968 68.2685 89.376 71.7632 93.2221C76.1117 98.0464 98.1224 108.163 107.882 108.414C110.636 108.477 113.363 107.948 115.807 106.877C118.251 105.806 120.331 104.229 121.851 102.294C123.936 99.4344 122.546 58.9083 120.093 55.38C116.102 49.6276 94.2703 41.9521 88.8892 41.6093Z" fill="white"/>
<path opacity="0.1" d="M122.55 75.9906C122.471 74.3184 122.382 72.6462 122.272 70.974C122.272 70.3218 122.193 69.6864 122.143 69.0509C122.054 67.7968 121.955 66.5426 121.855 65.4306C121.855 64.8537 121.746 64.2935 121.697 63.7584C121.607 62.9223 121.528 62.1698 121.438 61.4424C121.349 60.715 121.25 60.0377 121.15 59.419C121.15 59.21 121.091 59.0093 121.051 58.817C120.929 57.6223 120.594 56.4499 120.058 55.3388C119.943 55.1696 119.814 55.0076 119.671 54.8539C119.628 54.7962 119.582 54.7404 119.532 54.6866L119.215 54.3522L119.016 54.1599C118.907 54.0512 118.788 53.9509 118.668 53.8422L118.44 53.6415L117.874 53.19L117.487 52.889L117.209 52.6967L116.822 52.3957L116.593 52.2452L116.057 51.894C112.225 53.0311 111.778 52.8472 111.669 52.9057C111.56 52.9643 107.519 54.7786 107.569 59.7451L107.033 79.8116L106.973 81.7179C106.973 84.3767 103.538 108.799 112.523 107.829H112.88C118.946 106.333 120.823 103.649 121.885 102.303C122.107 101.884 122.251 101.438 122.312 100.982C122.312 100.723 122.401 100.43 122.451 100.146C122.451 99.9896 122.471 99.8224 122.511 99.644C122.57 99.1256 122.62 98.5403 122.66 97.9049C122.66 97.6875 122.66 97.4701 122.66 97.2444C122.858 93.9 122.898 89.2178 122.799 84.2095C122.799 83.2146 122.799 82.1945 122.729 81.1744C122.729 80.4972 122.729 79.8116 122.66 79.1344C122.66 78.7915 122.66 78.4487 122.66 78.1059C122.61 77.3451 122.58 76.6428 122.55 75.9906Z" fill="black"/>
<path opacity="0.4" d="M120.79 57.6214C120.671 56.8375 120.42 56.0719 120.046 55.3472C116.074 49.6283 94.2325 41.9696 88.8514 41.61C84.622 41.3425 78.1092 44.8792 76.5504 47.5715C76.0763 48.7304 75.7241 49.9223 75.498 51.1333C83.8377 55.3138 105.412 64.7451 107.675 64.1681C110.445 63.4658 120.582 57.9392 120.78 57.6298L120.79 57.6214Z" fill="black"/>
<path d="M97.2926 86.3151C92.8647 84.3336 83.0259 79.0912 80.2857 77.8872C79.8353 77.6371 79.3144 77.4916 78.7758 77.4651C78.2372 77.4387 77.6998 77.5324 77.2179 77.7367C76.8208 77.9541 75.4309 78.7066 75.0635 78.8738C74.7705 79.0161 74.5256 79.219 74.3518 79.4634C74.1781 79.7077 74.0813 79.9854 74.0707 80.2701C73.9019 84.5091 73.7332 86.2482 73.9019 88.3051C74.0111 89.7097 74.2891 90.9639 76.6818 92.5525C79.0745 94.1411 89.4792 99.3584 92.5668 100.771C95.4659 102.092 98.5237 103.121 99.8541 102.393C100.192 102.201 101.701 101.44 102.098 101.223C102.306 101.087 102.47 100.91 102.576 100.707C102.682 100.504 102.726 100.282 102.703 100.061C102.703 97.8868 102.912 93.2548 102.972 91.6996C103.051 89.7264 101.929 88.4054 97.2926 86.3151Z" fill="#E04048"/>
<path opacity="0.3" d="M97.2926 86.3151C92.8647 84.3336 83.0259 79.0912 80.2857 77.8872C79.8353 77.6371 79.3144 77.4916 78.7758 77.4651C78.2372 77.4387 77.6998 77.5324 77.2179 77.7367C76.8208 77.9541 75.4309 78.7066 75.0635 78.8738C74.7705 79.0161 74.5256 79.219 74.3518 79.4634C74.1781 79.7077 74.0813 79.9854 74.0707 80.2701C73.9019 84.5091 73.7332 86.2482 73.9019 88.3051C74.0111 89.7097 74.2891 90.9639 76.6818 92.5525C79.0745 94.1411 89.4792 99.3584 92.5668 100.771C95.4659 102.092 98.5237 103.121 99.8541 102.393C100.192 102.201 101.701 101.44 102.098 101.223C102.306 101.087 102.47 100.91 102.576 100.707C102.682 100.504 102.726 100.282 102.703 100.061C102.703 97.8868 102.912 93.2548 102.972 91.6996C103.051 89.7264 101.929 88.4054 97.2926 86.3151Z" fill="black"/>
<path opacity="0.4" d="M100.347 91.0726L102.62 89.9856C102.015 88.8234 100.496 87.7449 97.2888 86.3151C92.8609 84.3336 83.0221 79.0912 80.2819 77.8872C79.8314 77.6371 79.3106 77.4916 78.772 77.4651C78.2334 77.4387 77.696 77.5324 77.2141 77.7367C76.817 77.9541 75.4271 78.7066 75.0597 78.8738C74.6229 79.0884 74.2998 79.4353 74.1562 79.8437L100.347 91.0726Z" fill="black"/>
<path d="M74.1195 80.2692C73.9508 84.5082 73.782 86.2473 73.9508 88.3041C74.06 89.7088 74.338 90.963 76.7306 92.5516C79.1233 94.1402 89.528 99.3575 92.6157 100.77C96.3884 102.493 100.558 103.722 100.558 101.23C100.558 99.0565 100.767 94.4328 100.826 92.8693C100.896 90.9212 99.8334 89.5918 95.1374 87.5015C90.7095 85.5283 80.8608 80.2859 78.1305 79.0735C75.7378 78.0368 74.1195 78.9983 74.1195 80.2692Z" fill="#E04048"/>
<path opacity="0.18" d="M74.1195 80.2692C73.9508 84.5082 73.782 86.2473 73.9508 88.3041C74.06 89.7088 74.338 90.963 76.7306 92.5516C79.1233 94.1402 89.528 99.3575 92.6157 100.77C96.3884 102.493 100.558 103.722 100.558 101.23C100.558 99.0565 100.767 94.4328 100.826 92.8693C100.896 90.9212 99.8334 89.5918 95.1374 87.5015C90.7095 85.5283 80.8608 80.2859 78.1305 79.0735C75.7378 78.0368 74.1195 78.9983 74.1195 80.2692Z" fill="black"/>
<path d="M102.624 90.0197C102.137 88.8993 99.953 89.6351 99.4963 91.1066C99.0397 92.5782 99.129 94.5347 98.9007 95.1785C98.6723 95.8223 74.3583 83.8576 73.6832 83.1804C73.3754 82.871 73.5938 79.3008 74.4476 78.6654C75.3015 78.03 77.2772 76.9179 78.6075 77.1604C79.9379 77.4029 94.7011 84.7355 97.5802 86.0315C100.459 87.3274 102.733 88.5983 102.624 90.0197Z" fill="#E04048"/>
<path opacity="0.1" d="M102.624 90.0197C102.137 88.8993 99.953 89.6351 99.4963 91.1066C99.0397 92.5782 99.129 94.5347 98.9007 95.1785C98.6723 95.8223 74.3583 83.8576 73.6832 83.1804C73.3754 82.871 73.5938 79.3008 74.4476 78.6654C75.3015 78.03 77.2772 76.9179 78.6075 77.1604C79.9379 77.4029 94.7011 84.7355 97.5802 86.0315C100.459 87.3274 102.733 88.5983 102.624 90.0197Z" fill="black"/>
<path d="M74.4467 78.6325C73.722 79.1258 73.3844 81.3332 73.3149 83.2228C73.2454 85.1124 81.1581 91.9099 83.7692 92.9717C86.3803 94.0336 98.9295 96.5252 99.0685 95.2961C99.2075 94.067 99.1777 91.2745 99.7833 90.4969C99.9223 90.3129 91.2948 86.5923 86.2711 84.3766C81.2475 82.1609 75.1218 78.2145 74.4467 78.6325Z" fill="#E04048"/>
<path d="M84.8365 88.9571C85.1535 89.1228 85.4124 89.3565 85.5868 89.6341C85.7613 89.9118 85.845 90.2235 85.8294 90.5374C85.8398 90.6612 85.8091 90.7849 85.7408 90.8949C85.6725 91.0048 85.5692 91.0966 85.4425 91.16C85.3157 91.2233 85.1706 91.2557 85.0233 91.2535C84.8759 91.2514 84.7322 91.2147 84.6082 91.1477C84.2905 90.9827 84.031 90.7492 83.8565 90.4714C83.6819 90.1935 83.5987 89.8815 83.6154 89.5675C83.6749 88.9488 84.221 88.6812 84.8365 88.9571Z" fill="#37474F"/>
<path opacity="0.15" d="M72.375 69.1141C72.8118 66.0289 73.0501 63.9219 73.5565 61.3467C74.718 60.636 76.3363 59.7498 76.3363 59.7498L86.741 62.7932L96.4805 65.6443L98.6945 66.2881C99.3795 66.4971 100.084 66.8567 100.769 67.0155C102.547 67.4168 105.118 66.1794 106.419 65.3433C107.719 64.5072 108.513 63.6711 110.191 63.3784C110.066 66.1655 109.913 68.9664 109.735 71.7813C109.566 74.415 109.625 77.0822 108.652 79.5822C108.418 80.216 107.995 80.7886 107.423 81.2454C106.851 81.7021 106.15 82.0276 105.386 82.1908C103.529 82.5125 101.614 82.5125 99.7568 82.1908C99.7568 82.1908 99.588 84.557 99.32 85.7192C99.0916 86.1496 98.7577 86.5346 98.3402 86.8487C97.9227 87.1628 97.431 87.399 96.8975 87.5419C95.2693 87.1824 95.0012 80.7778 95.0012 80.7778L82.5712 75.201C82.6178 76.0984 82.5311 76.9972 82.3131 77.8765C81.6677 78.7628 80.4069 79.741 79.9204 79.6407C77.8553 79.1976 78.0241 73.0522 78.0241 73.0522C75.871 72.0415 73.9562 70.7067 72.375 69.1141Z" fill="black"/>
<path d="M88.4515 41.5823C86.0808 41.5423 83.7327 41.9761 81.5997 42.8481C79.4666 43.7202 77.6094 45.0056 76.1803 46.599C73.728 49.5421 70.9184 64.3997 72.5565 67.117C74.1947 69.8343 87.0317 76.0633 94.7757 79.1486C100.971 81.6569 104.128 81.0465 106.531 80.0265C108.338 79.2572 108.298 76.7406 108.457 74.8844C108.884 70.0852 109.34 61.5067 112.885 58.8479C116.429 56.1891 119.834 55.4366 120.827 57.6188C120.827 57.6188 121.949 54.4667 114.87 51.0136C103.264 45.2863 94.1601 41.8833 88.4515 41.5823Z" fill="#E04048"/>
<path opacity="0.1" d="M88.4515 41.5823C86.0808 41.5423 83.7327 41.9761 81.5997 42.8481C79.4666 43.7202 77.6094 45.0056 76.1803 46.599C73.728 49.5421 70.9184 64.3997 72.5565 67.117C74.1947 69.8343 87.0317 76.0633 94.7757 79.1486C100.971 81.6569 104.128 81.0465 106.531 80.0265C108.338 79.2572 108.298 76.7406 108.457 74.8844C108.884 70.0852 109.34 61.5067 112.885 58.8479C116.429 56.1891 119.834 55.4366 120.827 57.6188C120.827 57.6188 121.949 54.4667 114.87 51.0136C103.264 45.2863 94.1601 41.8833 88.4515 41.5823Z" fill="black"/>
<path d="M75.5465 47.5941C73.2829 51.992 71.059 64.6172 72.568 67.1005C74.1764 69.7676 87.0333 76.0635 94.7773 79.1487C100.972 81.657 104.13 81.0467 106.532 80.0266C108.339 79.2574 108.299 76.7407 108.458 74.8846C108.776 71.3646 109.114 65.7961 110.662 62.0337C103.246 58.9986 83.5684 50.9135 75.5465 47.5941Z" fill="#E04048"/>
<path d="M95.608 68.1458L99.6984 69.6842C99.6984 69.6842 98.4276 80.98 98.3085 85.1271C98.3085 85.1271 97.3157 86.8662 96.3228 87.1087C95.33 87.3512 94.3372 85.2943 94.1486 83.7643C93.9599 82.2342 95.052 71.716 95.608 68.1458Z" fill="#455A64"/>
<path d="M95.46 68.9583L99.6298 70.4047C99.7323 70.4482 99.8461 70.4693 99.9608 70.4661C100.075 70.4629 100.187 70.4355 100.286 70.3864C100.385 70.3373 100.468 70.2681 100.526 70.1851C100.585 70.1021 100.618 70.008 100.623 69.9114L100.841 68.2392C100.855 68.0449 100.798 67.8517 100.68 67.6847C100.561 67.5177 100.386 67.3847 100.176 67.3028L96.016 65.7727C95.9146 65.7271 95.8011 65.7041 95.6862 65.7058C95.5712 65.7075 95.4587 65.7339 95.3593 65.7824C95.2599 65.831 95.1768 65.9001 95.118 65.9833C95.0592 66.0665 95.0265 66.1609 95.0232 66.2576L94.8048 68.0302C94.7911 68.2223 94.8463 68.4135 94.9631 68.579C95.0799 68.7445 95.253 68.8766 95.46 68.9583Z" fill="#37474F"/>
<path d="M96.2614 82.126C96.593 82.2753 96.8711 82.4968 97.0666 82.7674C97.2622 83.0379 97.3681 83.3477 97.3733 83.6644C97.3907 83.7873 97.3673 83.9119 97.3056 84.0242C97.2439 84.1366 97.1464 84.2323 97.0239 84.3008C96.9015 84.3693 96.7588 84.4078 96.6119 84.412C96.465 84.4163 96.3196 84.3861 96.1919 84.3249C95.8607 84.1758 95.5835 83.9542 95.3895 83.6834C95.1955 83.4126 95.092 83.1027 95.0898 82.7865C95.1097 82.1678 95.6359 81.8751 96.2614 82.126Z" fill="#E0E0E0"/>
<path d="M78.8694 60.3455L82.8407 62.0595C82.8407 62.0595 81.7188 73.2968 81.3415 77.3853C81.3415 77.3853 80.2097 79.0576 79.2864 79.2749C78.3631 79.4923 77.3703 77.3853 77.3008 75.872C77.5119 70.6775 78.0354 65.4954 78.8694 60.3455Z" fill="#455A64"/>
<path d="M78.685 61.1545L82.7655 62.7765C82.8647 62.8171 82.9738 62.8372 83.084 62.8352C83.1942 62.8332 83.3023 62.8092 83.3993 62.7651C83.4963 62.7209 83.5794 62.658 83.6418 62.5815C83.7043 62.505 83.7442 62.4171 83.7583 62.3251L84.076 60.6528C84.1009 60.4599 84.0564 60.2652 83.9485 60.0938C83.8405 59.9224 83.674 59.7822 83.4704 59.6913L79.38 58.0191C79.2822 57.9746 79.1729 57.9511 79.0617 57.9507C78.9505 57.9503 78.841 57.973 78.7427 58.0169C78.6445 58.0607 78.5607 58.1243 78.4986 58.202C78.4366 58.2797 78.3983 58.3691 78.3872 58.4622L78.0993 60.2013C78.0733 60.3913 78.1152 60.5834 78.2196 60.7532C78.3239 60.9229 78.4859 61.0627 78.685 61.1545Z" fill="#37474F"/>
<path d="M79.4891 74.2998C79.8061 74.4675 80.0649 74.7027 80.2392 74.9817C80.4136 75.2607 80.4973 75.5735 80.482 75.8884C80.4904 76.0115 80.4583 76.1342 80.3892 76.2429C80.3201 76.3516 80.2166 76.4421 80.0903 76.5044C79.9639 76.5666 79.8196 76.5983 79.6732 76.5959C79.5268 76.5934 79.3841 76.5569 79.2608 76.4904C78.9424 76.3261 78.6823 76.0927 78.5077 75.8147C78.333 75.5367 78.2502 75.2243 78.268 74.9102C78.3275 74.2998 78.8736 74.0239 79.4891 74.2998Z" fill="#E0E0E0"/>
<path d="M126.13 85.0618C125.882 84.9364 122.239 82.4364 121.812 82.2358C121.057 81.8762 109.898 87.6286 108.905 88.6403C108.18 89.3426 109.034 100.797 109.441 101.625C109.59 101.926 113.621 104.133 113.77 104.451C114.177 105.287 125.912 99.4344 126.676 97.9545C127.441 96.4746 127.232 85.5802 126.13 85.0618Z" fill="#E04048"/>
<path opacity="0.18" d="M126.13 85.0618C125.882 84.9364 122.239 82.4364 121.812 82.2358C121.057 81.8762 109.898 87.6286 108.905 88.6403C108.18 89.3426 109.034 100.797 109.441 101.625C109.59 101.926 113.621 104.133 113.77 104.451C114.177 105.287 125.912 99.4344 126.676 97.9545C127.441 96.4746 127.232 85.5802 126.13 85.0618Z" fill="black"/>
<path d="M113.231 91.4563C112.506 92.1669 113.35 103.613 113.767 104.449C114.184 105.285 125.909 99.4327 126.674 97.9528C127.438 96.4729 127.24 85.5784 126.138 85.0601C125.383 84.7005 114.263 90.4446 113.231 91.4563Z" fill="#E04048"/>
<path opacity="0.4" d="M121.776 82.2358C122.203 82.4364 125.846 84.9448 126.094 85.0534C125.35 84.7023 114.23 90.4463 113.188 91.458L108.869 88.6403C109.941 87.6203 121.051 81.8763 121.776 82.2358Z" fill="black"/>
<path opacity="0.3" d="M113.231 91.4563C112.506 92.1669 113.35 103.613 113.767 104.449C114.184 105.285 125.909 99.4327 126.674 97.9528C127.438 96.4729 127.24 85.5784 126.138 85.0601C125.383 84.7005 114.263 90.4446 113.231 91.4563Z" fill="black"/>
<path d="M108.869 88.6399C109.693 88.2302 112.116 89.476 113.158 90.2368C114.201 90.9977 115.263 94.6765 117.973 95.3621C120.684 96.0478 124.595 93.1883 125.439 91.282C126.283 89.3756 127.335 85.3456 126.045 83.8323C124.754 82.3189 122.471 81.4326 120.525 82.2186C118.579 83.0045 109.177 86.8673 108.869 88.6399Z" fill="#E04048"/>
<path opacity="0.2" d="M108.869 88.6399C109.693 88.2302 112.116 89.476 113.158 90.2368C114.201 90.9977 115.263 94.6765 117.973 95.3621C120.684 96.0478 124.595 93.1883 125.439 91.282C126.283 89.3756 127.335 85.3456 126.045 83.8323C124.754 82.3189 122.471 81.4326 120.525 82.2186C118.579 83.0045 109.177 86.8673 108.869 88.6399Z" fill="black"/>
<path d="M121.136 90.7534C120.818 90.9075 120.557 91.1329 120.382 91.4044C120.206 91.676 120.124 91.9832 120.143 92.2918C120.136 92.4174 120.169 92.5422 120.238 92.6537C120.307 92.7652 120.409 92.8593 120.536 92.9265C120.662 92.9936 120.807 93.0314 120.956 93.0359C121.105 93.0405 121.253 93.0116 121.384 92.9523C121.708 92.8036 121.974 92.5793 122.15 92.3064C122.326 92.0335 122.405 91.7236 122.377 91.4139C122.298 90.8036 121.782 90.5026 121.136 90.7534Z" fill="#37474F"/>
<path d="M124.819 43.2971C128.929 43.2386 130.468 44.0831 133.526 44.5931C137.686 45.2787 153.571 42.5864 153.571 42.5864C153.571 42.5864 160.004 42.3858 164.164 44.0162C168.85 45.8473 170.061 47.8706 169.952 49.4759C169.813 51.7251 167.877 52.9792 162.923 54.4926C159.021 55.6548 140.019 60.036 133.039 60.7717C122.843 61.8252 117.819 47.8706 124.819 43.2971Z" fill="#FFBDA7"/>
<path d="M150.364 43.0971C155.755 42.5871 160.679 42.261 164.373 44.8278C163.142 42.3697 159.607 40.6473 149.838 41.4834L150.364 43.0971Z" fill="#F0997A"/>
</svg>
