<svg width="1440" height="296" viewBox="0 0 1440 296" fill="none" xmlns="http://www.w3.org/2000/svg">
<path d="M100 105.875C100 95.1373 108.705 86.4327 119.443 86.4327C122.317 86.4327 125.043 87.0612 127.498 88.1804C127.713 74.2372 139.08 63 153.075 63C164.99 63 175.002 71.1456 177.847 82.172C180.649 80.9231 183.752 80.2278 187.018 80.2278C199.469 80.2278 209.562 90.3217 209.562 102.773C209.562 115.085 199.692 125.091 187.433 125.313L187.435 125.318H118.7L118.705 125.3C108.31 124.911 100 116.366 100 105.875Z" fill="#EFEFEF"/>
<path d="M325 42.8754C325 32.1373 333.705 23.4327 344.443 23.4327C347.317 23.4327 350.043 24.0612 352.498 25.1804C352.713 11.2372 364.08 0 378.075 0C389.99 0 400.002 8.14561 402.847 19.172C405.649 17.9231 408.752 17.2278 412.018 17.2278C424.469 17.2278 434.562 27.3217 434.562 39.7731C434.562 52.0855 424.692 62.0914 412.433 62.313L412.435 62.3182H343.7L343.705 62.2996C333.31 61.9115 325 53.3662 325 42.8754Z" fill="#EFEFEF"/>
<path d="M1365 77.8754C1365 67.1373 1373.7 58.4327 1384.44 58.4327C1387.32 58.4327 1390.04 59.0612 1392.5 60.1804C1392.71 46.2372 1404.08 35 1418.07 35C1429.99 35 1440 43.1456 1442.85 54.172C1445.65 52.9231 1448.75 52.2278 1452.02 52.2278C1464.47 52.2278 1474.56 62.3217 1474.56 74.7731C1474.56 87.0855 1464.69 97.0914 1452.43 97.313L1452.43 97.3182H1383.7L1383.71 97.2996C1373.31 96.9115 1365 88.3662 1365 77.8754Z" fill="#EFEFEF"/>
<path d="M-50 275.875C-50 265.137 -41.2951 256.433 -30.5574 256.433C-27.6831 256.433 -24.9573 257.061 -22.5024 258.18C-22.2873 244.237 -10.9195 233 3.07489 233C14.9903 233 25.0025 241.146 27.8474 252.172C30.6493 250.923 33.752 250.228 37.0178 250.228C49.4687 250.228 59.5625 260.322 59.5625 272.773C59.5625 285.085 49.6923 295.091 37.433 295.313L37.4345 295.318H-31.3003L-31.2945 295.3C-41.6903 294.911 -50 286.366 -50 275.875Z" fill="#EFEFEF"/>
</svg>
