<svg width="1440" height="153" viewBox="0 0 1440 153" fill="none" xmlns="http://www.w3.org/2000/svg">
<g filter="url(#filter0_d_145_10268)">
<path d="M94.5635 128.599C94.5635 121.065 89.1483 114.8 81.9992 113.473C82.1718 112.722 82.2659 111.941 82.2659 111.138C82.2659 105.4 77.6145 100.749 71.8769 100.749C69.9386 100.749 68.1253 101.281 66.5723 102.206C64.2291 90.4935 53.8901 81.6689 41.4888 81.6689C32.8375 81.6689 25.1904 85.9637 20.5605 92.5364C18.251 90.8837 15.4241 89.9077 12.3676 89.9077C4.58112 89.9077 -1.73055 96.2196 -1.73055 104.006C-1.73055 104.812 -1.65928 105.601 -1.52945 106.37C-9.33624 108.825 -14.999 116.119 -14.999 124.736C-14.999 134.703 -7.42508 142.9 2.28094 143.888L2.2112 143.987H80.4114L80.3749 143.936C88.3123 143.323 94.5635 136.693 94.5635 128.599Z" fill="white"/>
<path d="M187.564 128.599C187.564 121.065 182.148 114.8 174.999 113.473C175.172 112.722 175.266 111.941 175.266 111.138C175.266 105.4 170.615 100.749 164.877 100.749C162.939 100.749 161.125 101.281 159.572 102.206C157.229 90.4935 146.89 81.6689 134.489 81.6689C125.837 81.6689 118.19 85.9637 113.56 92.5364C111.251 90.8837 108.424 89.9077 105.368 89.9077C97.5811 89.9077 91.2695 96.2196 91.2695 104.006C91.2695 104.812 91.3407 105.601 91.4705 106.37C83.6638 108.825 78.001 116.119 78.001 124.736C78.001 134.703 85.5749 142.9 95.2809 143.888L95.2112 143.987H173.411L173.375 143.936C181.312 143.323 187.564 136.693 187.564 128.599Z" fill="white"/>
<path d="M278.564 128.599C278.564 121.065 273.148 114.8 265.999 113.473C266.172 112.722 266.266 111.941 266.266 111.138C266.266 105.4 261.615 100.749 255.877 100.749C253.939 100.749 252.125 101.281 250.572 102.206C248.229 90.4935 237.89 81.6689 225.489 81.6689C216.837 81.6689 209.19 85.9637 204.56 92.5364C202.251 90.8837 199.424 89.9077 196.368 89.9077C188.581 89.9077 182.269 96.2196 182.269 104.006C182.269 104.812 182.341 105.601 182.471 106.37C174.664 108.825 169.001 116.119 169.001 124.736C169.001 134.703 176.575 142.9 186.281 143.888L186.211 143.987H264.411L264.375 143.936C272.312 143.323 278.564 136.693 278.564 128.599Z" fill="white"/>
<path d="M371.564 128.599C371.564 121.065 366.148 114.8 358.999 113.473C359.172 112.722 359.266 111.941 359.266 111.138C359.266 105.4 354.615 100.749 348.877 100.749C346.939 100.749 345.125 101.281 343.572 102.206C341.229 90.4935 330.89 81.6689 318.489 81.6689C309.837 81.6689 302.19 85.9637 297.56 92.5364C295.251 90.8837 292.424 89.9077 289.368 89.9077C281.581 89.9077 275.269 96.2196 275.269 104.006C275.269 104.812 275.341 105.601 275.471 106.37C267.664 108.825 262.001 116.119 262.001 124.736C262.001 134.703 269.575 142.9 279.281 143.888L279.211 143.987H357.411L357.375 143.936C365.312 143.323 371.564 136.693 371.564 128.599Z" fill="white"/>
<path d="M334.564 102.599C334.564 95.0648 329.148 88.7996 321.999 87.4731C322.172 86.7221 322.266 85.9413 322.266 85.1378C322.266 79.4003 317.615 74.749 311.877 74.749C309.939 74.749 308.125 75.2812 306.572 76.2056C304.229 64.4935 293.89 55.6689 281.489 55.6689C272.837 55.6689 265.19 59.9637 260.56 66.5364C258.251 64.8837 255.424 63.9077 252.368 63.9077C244.581 63.9077 238.269 70.2196 238.269 78.0059C238.269 78.8118 238.341 79.6006 238.471 80.3695C230.664 82.8246 225.001 90.1186 225.001 98.7358C225.001 108.703 232.575 116.9 242.281 117.888L242.211 117.987H320.411L320.375 117.936C328.312 117.323 334.564 110.693 334.564 102.599Z" fill="white"/>
<path d="M440.564 88.5986C440.564 81.0648 435.148 74.7996 427.999 73.4731C428.172 72.7221 428.266 71.9413 428.266 71.1378C428.266 65.4003 423.615 60.749 417.877 60.749C415.939 60.749 414.125 61.2812 412.572 62.2056C410.229 50.4935 399.89 41.6689 387.489 41.6689C378.837 41.6689 371.19 45.9637 366.56 52.5364C364.251 50.8837 361.424 49.9077 358.368 49.9077C350.581 49.9077 344.269 56.2196 344.269 64.0059C344.269 64.8118 344.341 65.6006 344.471 66.3695C336.664 68.8246 331.001 76.1186 331.001 84.7358C331.001 94.7028 338.575 102.9 348.281 103.888L348.211 103.987H426.411L426.375 103.936C434.312 103.323 440.564 96.6934 440.564 88.5986Z" fill="white"/>
<path d="M440.564 88.5986C440.564 81.0648 435.148 74.7996 427.999 73.4731C428.172 72.7221 428.266 71.9413 428.266 71.1378C428.266 65.4003 423.615 60.749 417.877 60.749C415.939 60.749 414.125 61.2812 412.572 62.2056C410.229 50.4935 399.89 41.6689 387.489 41.6689C378.837 41.6689 371.19 45.9637 366.56 52.5364C364.251 50.8837 361.424 49.9077 358.368 49.9077C350.581 49.9077 344.269 56.2196 344.269 64.0059C344.269 64.8118 344.341 65.6006 344.471 66.3695C336.664 68.8246 331.001 76.1186 331.001 84.7358C331.001 94.7028 338.575 102.9 348.281 103.888L348.211 103.987H426.411L426.375 103.936C434.312 103.323 440.564 96.6934 440.564 88.5986Z" fill="white"/>
<path d="M499.564 71.5986C499.564 64.0648 494.148 57.7996 486.999 56.4731C487.172 55.7221 487.266 54.9413 487.266 54.1378C487.266 48.4003 482.615 43.749 476.877 43.749C474.939 43.749 473.125 44.2812 471.572 45.2056C469.229 33.4935 458.89 24.6689 446.489 24.6689C437.837 24.6689 430.19 28.9637 425.56 35.5364C423.251 33.8837 420.424 32.9077 417.368 32.9077C409.581 32.9077 403.269 39.2196 403.269 47.0059C403.269 47.8118 403.341 48.6006 403.471 49.3695C395.664 51.8246 390.001 59.1186 390.001 67.7358C390.001 77.7028 397.575 85.9003 407.281 86.8876L407.211 86.9872H485.411L485.375 86.9362C493.312 86.3234 499.564 79.6934 499.564 71.5986Z" fill="white"/>
<path d="M444.564 133.599C444.564 126.065 439.148 119.8 431.999 118.473C432.172 117.722 432.266 116.941 432.266 116.138C432.266 110.4 427.615 105.749 421.877 105.749C419.939 105.749 418.125 106.281 416.572 107.206C414.229 95.4935 403.89 86.6689 391.489 86.6689C382.837 86.6689 375.19 90.9637 370.56 97.5364C368.251 95.8837 365.424 94.9077 362.368 94.9077C354.581 94.9077 348.269 101.22 348.269 109.006C348.269 109.812 348.341 110.601 348.471 111.37C340.664 113.825 335.001 121.119 335.001 129.736C335.001 139.703 342.575 147.9 352.281 148.888L352.211 148.987H430.411L430.375 148.936C438.312 148.323 444.564 141.693 444.564 133.599Z" fill="white"/>
<path d="M522.001 127.136C522.001 118.553 515.823 111.415 507.666 109.904C507.863 109.048 507.971 108.159 507.971 107.243C507.971 100.706 502.664 95.407 496.118 95.407C493.906 95.407 491.838 96.0134 490.066 97.0666C487.392 83.7229 475.597 73.6689 461.448 73.6689C451.578 73.6689 442.853 78.562 437.571 86.0503C434.936 84.1674 431.711 83.0554 428.224 83.0554C419.34 83.0554 412.139 90.2467 412.139 99.1177C412.139 100.036 412.22 100.935 412.368 101.811C403.462 104.608 397.001 112.918 397.001 122.736C397.001 134.091 405.642 143.431 416.716 144.555L416.636 144.669H505.855L505.813 144.611C514.869 143.913 522.001 136.359 522.001 127.136Z" fill="white"/>
<path d="M573.564 104.599C573.564 97.0648 568.148 90.7996 560.999 89.4731C561.172 88.7221 561.266 87.9413 561.266 87.1378C561.266 81.4003 556.615 76.749 550.877 76.749C548.939 76.749 547.125 77.2812 545.572 78.2056C543.229 66.4935 532.89 57.6689 520.489 57.6689C511.837 57.6689 504.19 61.9637 499.56 68.5364C497.251 66.8837 494.424 65.9077 491.368 65.9077C483.581 65.9077 477.269 72.2196 477.269 80.0059C477.269 80.8118 477.341 81.6006 477.471 82.3695C469.664 84.8246 464.001 92.1186 464.001 100.736C464.001 110.703 471.575 118.9 481.281 119.888L481.211 119.987H559.411L559.375 119.936C567.312 119.323 573.564 112.693 573.564 104.599Z" fill="white"/>
<path d="M627.564 133.599C627.564 126.065 622.148 119.8 614.999 118.473C615.172 117.722 615.266 116.941 615.266 116.138C615.266 110.4 610.615 105.749 604.877 105.749C602.939 105.749 601.125 106.281 599.572 107.206C597.229 95.4935 586.89 86.6689 574.489 86.6689C565.837 86.6689 558.19 90.9637 553.56 97.5364C551.251 95.8837 548.424 94.9077 545.368 94.9077C537.581 94.9077 531.269 101.22 531.269 109.006C531.269 109.812 531.341 110.601 531.471 111.37C523.664 113.825 518.001 121.119 518.001 129.736C518.001 139.703 525.575 147.9 535.281 148.888L535.211 148.987H613.411L613.375 148.936C621.312 148.323 627.564 141.693 627.564 133.599Z" fill="white"/>
<path d="M675.564 128.599C675.564 121.065 670.148 114.8 662.999 113.473C663.172 112.722 663.266 111.941 663.266 111.138C663.266 105.4 658.615 100.749 652.877 100.749C650.939 100.749 649.125 101.281 647.572 102.206C645.229 90.4935 634.89 81.6689 622.489 81.6689C613.837 81.6689 606.19 85.9637 601.56 92.5364C599.251 90.8837 596.424 89.9077 593.368 89.9077C585.581 89.9077 579.269 96.2196 579.269 104.006C579.269 104.812 579.341 105.601 579.471 106.37C571.664 108.825 566.001 116.119 566.001 124.736C566.001 134.703 573.575 142.9 583.281 143.888L583.211 143.987H661.411L661.375 143.936C669.312 143.323 675.564 136.693 675.564 128.599Z" fill="white"/>
<path d="M826.001 119.716C826.001 107.99 817.747 98.2377 806.85 96.1728C807.113 95.004 807.256 93.7886 807.256 92.538C807.256 83.6074 800.167 76.3675 791.421 76.3675C788.467 76.3675 785.703 77.1959 783.336 78.6347C779.764 60.4046 764.005 46.6689 745.102 46.6689C731.915 46.6689 720.259 53.3538 713.202 63.5844C709.682 61.0119 705.373 59.4927 700.714 59.4927C688.846 59.4927 679.225 69.3174 679.225 81.4369C679.225 82.6914 679.334 83.9192 679.532 85.116C667.632 88.9375 659.001 100.291 659.001 113.704C659.001 129.217 670.546 141.977 685.34 143.514L685.234 143.669H804.43L804.374 143.59C816.473 142.636 826.001 132.316 826.001 119.716Z" fill="white"/>
<path d="M859.564 128.599C859.564 121.065 854.148 114.8 846.999 113.473C847.172 112.722 847.266 111.941 847.266 111.138C847.266 105.4 842.615 100.749 836.877 100.749C834.939 100.749 833.125 101.281 831.572 102.206C829.229 90.4935 818.89 81.6689 806.489 81.6689C797.837 81.6689 790.19 85.9637 785.56 92.5364C783.251 90.8837 780.424 89.9077 777.368 89.9077C769.581 89.9077 763.269 96.2196 763.269 104.006C763.269 104.812 763.341 105.601 763.471 106.37C755.664 108.825 750.001 116.119 750.001 124.736C750.001 134.703 757.575 142.9 767.281 143.888L767.211 143.987H845.411L845.375 143.936C853.312 143.323 859.564 136.693 859.564 128.599Z" fill="white"/>
<path d="M952.564 128.599C952.564 121.065 947.148 114.8 939.999 113.473C940.172 112.722 940.266 111.941 940.266 111.138C940.266 105.4 935.615 100.749 929.877 100.749C927.939 100.749 926.125 101.281 924.572 102.206C922.229 90.4935 911.89 81.6689 899.489 81.6689C890.837 81.6689 883.19 85.9637 878.56 92.5364C876.251 90.8837 873.424 89.9077 870.368 89.9077C862.581 89.9077 856.269 96.2196 856.269 104.006C856.269 104.812 856.341 105.601 856.471 106.37C848.664 108.825 843.001 116.119 843.001 124.736C843.001 134.703 850.575 142.9 860.281 143.888L860.211 143.987H938.411L938.375 143.936C946.312 143.323 952.564 136.693 952.564 128.599Z" fill="white"/>
<path d="M915.564 102.599C915.564 95.0648 910.148 88.7996 902.999 87.4731C903.172 86.7221 903.266 85.9413 903.266 85.1378C903.266 79.4003 898.615 74.749 892.877 74.749C890.939 74.749 889.125 75.2812 887.572 76.2056C885.229 64.4935 874.89 55.6689 862.489 55.6689C853.837 55.6689 846.19 59.9637 841.56 66.5364C839.251 64.8837 836.424 63.9077 833.368 63.9077C825.581 63.9077 819.269 70.2196 819.269 78.0059C819.269 78.8118 819.341 79.6006 819.471 80.3695C811.664 82.8246 806.001 90.1186 806.001 98.7358C806.001 108.703 813.575 116.9 823.281 117.888L823.211 117.987H901.411L901.375 117.936C909.312 117.323 915.564 110.693 915.564 102.599Z" fill="white"/>
<path d="M1047 84.1609C1047 74.6104 1040.43 66.6682 1031.75 64.9866C1031.96 64.0346 1032.07 63.0447 1032.07 62.0262C1032.07 54.7529 1026.43 48.8564 1019.46 48.8564C1017.11 48.8564 1014.91 49.5311 1013.02 50.7029C1010.18 35.8557 997.627 24.6689 982.573 24.6689C972.071 24.6689 962.788 30.1133 957.167 38.4454C954.364 36.3503 950.932 35.113 947.222 35.113C937.77 35.113 930.108 43.1146 930.108 52.9851C930.108 54.0068 930.194 55.0068 930.352 55.9815C920.875 59.0938 914.001 68.3402 914.001 79.2642C914.001 91.8992 923.195 102.291 934.977 103.543L934.893 103.669H1029.82L1029.78 103.604C1039.41 102.827 1047 94.4227 1047 84.1609Z" fill="white"/>
<path d="M1019.56 128.599C1019.56 121.065 1014.15 114.8 1007 113.473C1007.17 112.722 1007.27 111.941 1007.27 111.138C1007.27 105.4 1002.61 100.749 996.877 100.749C994.939 100.749 993.125 101.281 991.572 102.206C989.229 90.4935 978.89 81.6689 966.489 81.6689C957.837 81.6689 950.19 85.9637 945.56 92.5364C943.251 90.8837 940.424 89.9077 937.368 89.9077C929.581 89.9077 923.269 96.2196 923.269 104.006C923.269 104.812 923.341 105.601 923.471 106.37C915.664 108.825 910.001 116.119 910.001 124.736C910.001 134.703 917.575 142.9 927.281 143.888L927.211 143.987H1005.41L1005.37 143.936C1013.31 143.323 1019.56 136.693 1019.56 128.599Z" fill="white"/>
<path d="M1102.56 119.599C1102.56 112.065 1097.15 105.8 1090 104.473C1090.17 103.722 1090.27 102.941 1090.27 102.138C1090.27 96.4003 1085.61 91.749 1079.88 91.749C1077.94 91.749 1076.13 92.2812 1074.57 93.2056C1072.23 81.4935 1061.89 72.6689 1049.49 72.6689C1040.84 72.6689 1033.19 76.9637 1028.56 83.5364C1026.25 81.8837 1023.42 80.9077 1020.37 80.9077C1012.58 80.9077 1006.27 87.2196 1006.27 95.0059C1006.27 95.8118 1006.34 96.6006 1006.47 97.3695C998.664 99.8246 993.001 107.119 993.001 115.736C993.001 125.703 1000.57 133.9 1010.28 134.888L1010.21 134.987H1088.41L1088.37 134.936C1096.31 134.323 1102.56 127.693 1102.56 119.599Z" fill="white"/>
<path d="M1154.56 97.5986C1154.56 90.0648 1149.15 83.7996 1142 82.4731C1142.17 81.7221 1142.27 80.9413 1142.27 80.1378C1142.27 74.4003 1137.61 69.749 1131.88 69.749C1129.94 69.749 1128.13 70.2812 1126.57 71.2056C1124.23 59.4935 1113.89 50.6689 1101.49 50.6689C1092.84 50.6689 1085.19 54.9637 1080.56 61.5364C1078.25 59.8837 1075.42 58.9077 1072.37 58.9077C1064.58 58.9077 1058.27 65.2196 1058.27 73.0059C1058.27 73.8118 1058.34 74.6006 1058.47 75.3695C1050.66 77.8246 1045 85.1186 1045 93.7358C1045 103.703 1052.57 111.9 1062.28 112.888L1062.21 112.987H1140.41L1140.37 112.936C1148.31 112.323 1154.56 105.693 1154.56 97.5986Z" fill="white"/>
<path d="M1208.56 133.599C1208.56 126.065 1203.15 119.8 1196 118.473C1196.17 117.722 1196.27 116.941 1196.27 116.138C1196.27 110.4 1191.61 105.749 1185.88 105.749C1183.94 105.749 1182.13 106.281 1180.57 107.206C1178.23 95.4935 1167.89 86.6689 1155.49 86.6689C1146.84 86.6689 1139.19 90.9637 1134.56 97.5364C1132.25 95.8837 1129.42 94.9077 1126.37 94.9077C1118.58 94.9077 1112.27 101.22 1112.27 109.006C1112.27 109.812 1112.34 110.601 1112.47 111.37C1104.66 113.825 1099 121.119 1099 129.736C1099 139.703 1106.57 147.9 1116.28 148.888L1116.21 148.987H1194.41L1194.37 148.936C1202.31 148.323 1208.56 141.693 1208.56 133.599Z" fill="white"/>
<path d="M906.564 128.599C906.564 121.065 901.148 114.8 893.999 113.473C894.172 112.722 894.266 111.941 894.266 111.138C894.266 105.4 889.615 100.749 883.877 100.749C881.939 100.749 880.125 101.281 878.572 102.206C876.229 90.4935 865.89 81.6689 853.489 81.6689C844.837 81.6689 837.19 85.9637 832.56 92.5364C830.251 90.8837 827.424 89.9077 824.368 89.9077C816.581 89.9077 810.269 96.2196 810.269 104.006C810.269 104.812 810.341 105.601 810.471 106.37C802.664 108.825 797.001 116.119 797.001 124.736C797.001 134.703 804.575 142.9 814.281 143.888L814.211 143.987H892.411L892.375 143.936C900.312 143.323 906.564 136.693 906.564 128.599Z" fill="white"/>
<path d="M999.564 128.599C999.564 121.065 994.148 114.8 986.999 113.473C987.172 112.722 987.266 111.941 987.266 111.138C987.266 105.4 982.615 100.749 976.877 100.749C974.939 100.749 973.125 101.281 971.572 102.206C969.229 90.4935 958.89 81.6689 946.489 81.6689C937.837 81.6689 930.19 85.9637 925.56 92.5364C923.251 90.8837 920.424 89.9077 917.368 89.9077C909.581 89.9077 903.269 96.2196 903.269 104.006C903.269 104.812 903.341 105.601 903.471 106.37C895.664 108.825 890.001 116.119 890.001 124.736C890.001 134.703 897.575 142.9 907.281 143.888L907.211 143.987H985.411L985.375 143.936C993.312 143.323 999.564 136.693 999.564 128.599Z" fill="white"/>
<path d="M1090.56 128.599C1090.56 121.065 1085.15 114.8 1078 113.473C1078.17 112.722 1078.27 111.941 1078.27 111.138C1078.27 105.4 1073.61 100.749 1067.88 100.749C1065.94 100.749 1064.13 101.281 1062.57 102.206C1060.23 90.4935 1049.89 81.6689 1037.49 81.6689C1028.84 81.6689 1021.19 85.9637 1016.56 92.5364C1014.25 90.8837 1011.42 89.9077 1008.37 89.9077C1000.58 89.9077 994.269 96.2196 994.269 104.006C994.269 104.812 994.341 105.601 994.471 106.37C986.664 108.825 981.001 116.119 981.001 124.736C981.001 134.703 988.575 142.9 998.281 143.888L998.211 143.987H1076.41L1076.37 143.936C1084.31 143.323 1090.56 136.693 1090.56 128.599Z" fill="white"/>
<path d="M1183.56 128.599C1183.56 121.065 1178.15 114.8 1171 113.473C1171.17 112.722 1171.27 111.941 1171.27 111.138C1171.27 105.4 1166.61 100.749 1160.88 100.749C1158.94 100.749 1157.13 101.281 1155.57 102.206C1153.23 90.4935 1142.89 81.6689 1130.49 81.6689C1121.84 81.6689 1114.19 85.9637 1109.56 92.5364C1107.25 90.8837 1104.42 89.9077 1101.37 89.9077C1093.58 89.9077 1087.27 96.2196 1087.27 104.006C1087.27 104.812 1087.34 105.601 1087.47 106.37C1079.66 108.825 1074 116.119 1074 124.736C1074 134.703 1081.57 142.9 1091.28 143.888L1091.21 143.987H1169.41L1169.37 143.936C1177.31 143.323 1183.56 136.693 1183.56 128.599Z" fill="white"/>
<path d="M1146.56 102.599C1146.56 95.0648 1141.15 88.7996 1134 87.4731C1134.17 86.7221 1134.27 85.9413 1134.27 85.1378C1134.27 79.4003 1129.61 74.749 1123.88 74.749C1121.94 74.749 1120.13 75.2812 1118.57 76.2056C1116.23 64.4935 1105.89 55.6689 1093.49 55.6689C1084.84 55.6689 1077.19 59.9637 1072.56 66.5364C1070.25 64.8837 1067.42 63.9077 1064.37 63.9077C1056.58 63.9077 1050.27 70.2196 1050.27 78.0059C1050.27 78.8118 1050.34 79.6006 1050.47 80.3695C1042.66 82.8246 1037 90.1186 1037 98.7358C1037 108.703 1044.57 116.9 1054.28 117.888L1054.21 117.987H1132.41L1132.37 117.936C1140.31 117.323 1146.56 110.693 1146.56 102.599Z" fill="white"/>
<path d="M1252.56 88.5986C1252.56 81.0648 1247.15 74.7996 1240 73.4731C1240.17 72.7221 1240.27 71.9413 1240.27 71.1378C1240.27 65.4003 1235.61 60.749 1229.88 60.749C1227.94 60.749 1226.13 61.2812 1224.57 62.2056C1222.23 50.4935 1211.89 41.6689 1199.49 41.6689C1190.84 41.6689 1183.19 45.9637 1178.56 52.5364C1176.25 50.8837 1173.42 49.9077 1170.37 49.9077C1162.58 49.9077 1156.27 56.2196 1156.27 64.0059C1156.27 64.8118 1156.34 65.6006 1156.47 66.3695C1148.66 68.8246 1143 76.1186 1143 84.7358C1143 94.7028 1150.57 102.9 1160.28 103.888L1160.21 103.987H1238.41L1238.37 103.936C1246.31 103.323 1252.56 96.6934 1252.56 88.5986Z" fill="white"/>
<path d="M1250.56 128.599C1250.56 121.065 1245.15 114.8 1238 113.473C1238.17 112.722 1238.27 111.941 1238.27 111.138C1238.27 105.4 1233.61 100.749 1227.88 100.749C1225.94 100.749 1224.13 101.281 1222.57 102.206C1220.23 90.4935 1209.89 81.6689 1197.49 81.6689C1188.84 81.6689 1181.19 85.9637 1176.56 92.5364C1174.25 90.8837 1171.42 89.9077 1168.37 89.9077C1160.58 89.9077 1154.27 96.2196 1154.27 104.006C1154.27 104.812 1154.34 105.601 1154.47 106.37C1146.66 108.825 1141 116.119 1141 124.736C1141 134.703 1148.57 142.9 1158.28 143.888L1158.21 143.987H1236.41L1236.37 143.936C1244.31 143.323 1250.56 136.693 1250.56 128.599Z" fill="white"/>
<path d="M1330.56 132.93C1330.56 125.396 1325.15 119.131 1318 117.804C1318.17 117.053 1318.27 116.272 1318.27 115.469C1318.27 109.731 1313.61 105.08 1307.88 105.08C1305.94 105.08 1304.13 105.612 1302.57 106.537C1300.23 94.8245 1289.89 86 1277.49 86C1268.84 86 1261.19 90.2947 1256.56 96.8674C1254.25 95.2147 1251.42 94.2387 1248.37 94.2387C1240.58 94.2387 1234.27 100.551 1234.27 108.337C1234.27 109.143 1234.34 109.932 1234.47 110.701C1226.66 113.156 1221 120.45 1221 129.067C1221 139.034 1228.57 147.231 1238.28 148.219L1238.21 148.318H1316.41L1316.37 148.267C1324.31 147.654 1330.56 141.024 1330.56 132.93Z" fill="white"/>
<path d="M1382.56 119.93C1382.56 112.396 1377.15 106.131 1370 104.804C1370.17 104.053 1370.27 103.272 1370.27 102.469C1370.27 96.7314 1365.61 92.08 1359.88 92.08C1357.94 92.08 1356.13 92.6122 1354.57 93.5366C1352.23 81.8245 1341.89 73 1329.49 73C1320.84 73 1313.19 77.2947 1308.56 83.8674C1306.25 82.2147 1303.42 81.2387 1300.37 81.2387C1292.58 81.2387 1286.27 87.5506 1286.27 95.3369C1286.27 96.1429 1286.34 96.9317 1286.47 97.7006C1278.66 100.156 1273 107.45 1273 116.067C1273 126.034 1280.57 134.231 1290.28 135.219L1290.21 135.318H1368.41L1368.37 135.267C1376.31 134.654 1382.56 128.024 1382.56 119.93Z" fill="white"/>
<path d="M1455 129.48C1455 120.413 1448.53 112.873 1439.98 111.276C1440.18 110.372 1440.3 109.433 1440.3 108.466C1440.3 101.561 1434.74 95.9628 1427.88 95.9628C1425.56 95.9628 1423.39 96.6033 1421.53 97.7158C1418.73 83.6203 1406.37 73 1391.54 73C1381.2 73 1372.05 78.1687 1366.52 86.0789C1363.76 84.0899 1360.38 82.9153 1356.72 82.9153C1347.41 82.9153 1339.87 90.5117 1339.87 99.8825C1339.87 100.852 1339.95 101.802 1340.11 102.727C1330.77 105.682 1324 114.46 1324 124.831C1324 136.826 1333.06 146.692 1344.66 147.88L1344.58 148H1438.08L1438.04 147.939C1447.53 147.201 1455 139.222 1455 129.48Z" fill="white"/>
</g>
<defs>
<filter id="filter0_d_145_10268" x="-28.999" y="0.668945" width="1498" height="152.318" filterUnits="userSpaceOnUse" color-interpolation-filters="sRGB">
<feFlood flood-opacity="0" result="BackgroundImageFix"/>
<feColorMatrix in="SourceAlpha" type="matrix" values="0 0 0 0 0 0 0 0 0 0 0 0 0 0 0 0 0 0 127 0" result="hardAlpha"/>
<feOffset dy="-10"/>
<feGaussianBlur stdDeviation="7"/>
<feComposite in2="hardAlpha" operator="out"/>
<feColorMatrix type="matrix" values="0 0 0 0 0 0 0 0 0 0 0 0 0 0 0 0 0 0 0.11 0"/>
<feBlend mode="normal" in2="BackgroundImageFix" result="effect1_dropShadow_145_10268"/>
<feBlend mode="normal" in="SourceGraphic" in2="effect1_dropShadow_145_10268" result="shape"/>
</filter>
</defs>
</svg>
