<svg width="61" height="66" viewBox="0 0 61 66" fill="none" xmlns="http://www.w3.org/2000/svg">
<path d="M41.5243 4.67285L43.6936 2.50349C44.2664 1.93063 44.2664 1.00263 43.6936 0.429773C43.1207 -0.143086 42.1925 -0.143086 41.6196 0.429773L39.0349 3.01447C36.4104 1.5626 33.3958 0.733348 30.1899 0.733348C26.9842 0.733348 23.9696 1.5626 21.3451 3.01447L18.7601 0.429644C18.1873 -0.143215 17.259 -0.143215 16.6862 0.429644C16.1133 1.0025 16.1133 1.9305 16.6862 2.50336L18.8555 4.67272C14.5975 8.03292 11.8564 13.2494 11.8564 19.0819C11.8564 19.8918 12.5132 20.5639 13.3231 20.5639H47.0566C47.8665 20.5639 48.5233 19.8918 48.5233 19.0819C48.5233 13.2495 45.7822 8.03305 41.5243 4.67285ZM14.8593 17.6306C15.5998 9.93055 22.1927 3.69729 30.1899 3.69729C38.1871 3.69729 44.78 9.93068 45.5204 17.6306H14.8593Z" fill="black"/>
<path d="M47.0565 22.0308H13.3231C12.5132 22.0308 11.7334 22.6566 11.7334 23.4668V47.1783C11.7334 51.087 15.0303 54.2975 18.9313 54.2975H19.0667V60.8667C19.0667 63.697 21.3699 66 24.2001 66C27.0303 66 29.3334 63.6969 29.3334 60.8667V54.2975H30.8V60.8667C30.8 63.697 33.1032 66 35.9334 66C38.7636 66 41.0667 63.6969 41.0667 60.8667V54.2975H41.4482C45.3491 54.2975 48.4 51.087 48.4 47.1783V23.4668C48.4003 22.6566 47.8665 22.0308 47.0565 22.0308ZM45.4669 47.1783C45.4669 49.47 43.7322 51.3642 41.4484 51.3642H39.7232C38.9133 51.3642 38.1335 51.9893 38.1335 52.8V60.8667C38.1335 62.0799 37.1466 63.0668 35.9335 63.0668C34.7203 63.0668 33.7334 62.0799 33.7334 60.8667V52.8C33.7334 51.9893 33.1998 51.3642 32.3897 51.3642H27.9898C27.1798 51.3642 26.4001 51.9893 26.4001 52.8V60.8667C26.4001 62.0799 25.4132 63.0668 24.2001 63.0668C22.9869 63.0668 22 62.0799 22 60.8667V52.8C22 51.9893 21.4663 51.3642 20.6563 51.3642H18.9311C16.6473 51.3642 14.6667 49.47 14.6667 47.1783V24.964H45.4667V47.1783H45.4669Z" fill="black"/>
<path d="M55.0005 22C52.1704 22 49.8672 24.3046 49.8672 27.1377V46.1957C49.8672 49.0288 52.1704 51.3334 55.0005 51.3334C57.8308 51.3334 60.1338 49.0288 60.1338 46.1957V27.1377C60.1338 24.3046 57.8306 22 55.0005 22ZM57.2004 46.1956C57.2004 47.4115 56.2135 48.3999 55.0004 48.3999C53.7872 48.3999 52.8003 47.4115 52.8003 46.1956V27.1377C52.8003 25.9224 53.7872 24.9334 55.0004 24.9334C56.2135 24.9334 57.2004 25.9224 57.2004 27.1377V46.1956Z" fill="black"/>
<path d="M5.1333 22C2.30317 22 0 24.3046 0 27.1377V46.1957C0 49.0288 2.30317 51.3334 5.1333 51.3334C7.96357 51.3334 10.2666 49.0288 10.2666 46.1957V27.1377C10.2667 24.3046 7.96357 22 5.1333 22ZM7.33335 46.1956C7.33335 47.4115 6.34644 48.3999 5.1333 48.3999C3.92017 48.3999 2.93326 47.4115 2.93326 46.1956V27.1377C2.93326 25.9224 3.92017 24.9334 5.1333 24.9334C6.34644 24.9334 7.33335 25.9224 7.33335 27.1377V46.1956Z" fill="black"/>
<path d="M23.5916 16.1334C25.2117 16.1334 26.525 14.8201 26.525 13.2C26.525 11.5799 25.2117 10.2666 23.5916 10.2666C21.9715 10.2666 20.6582 11.5799 20.6582 13.2C20.6582 14.8201 21.9715 16.1334 23.5916 16.1334Z" fill="black"/>
<path d="M36.7918 16.1334C38.4119 16.1334 39.7252 14.8201 39.7252 13.2C39.7252 11.5799 38.4119 10.2666 36.7918 10.2666C35.1717 10.2666 33.8584 11.5799 33.8584 13.2C33.8584 14.8201 35.1717 16.1334 36.7918 16.1334Z" fill="black"/>
</svg>
