<svg width="88" height="55" viewBox="0 0 88 55" fill="none" xmlns="http://www.w3.org/2000/svg">
<rect x="1" y="1" width="86" height="53" stroke="black" stroke-width="2"/>
<line x1="1" y1="13" x2="87" y2="13" stroke="black" stroke-width="2"/>
<circle cx="17" cy="7" r="1" fill="#282828"/>
<circle cx="20" cy="7" r="1" fill="#282828"/>
<circle cx="23" cy="7" r="1" fill="#282828"/>
<path d="M28.1094 27.8281L38.2344 31.6094V35.5781L24.9062 29.8125V27.0938L28.1094 27.8281ZM38.2344 24.75L28.1094 28.5938L24.9062 29.2812V26.5469L38.2344 20.7969V24.75ZM42.2656 35.9844C42.2656 35.3594 42.4792 34.8333 42.9062 34.4062C43.3333 33.9792 43.9115 33.7656 44.6406 33.7656C45.3698 33.7656 45.9479 33.9792 46.375 34.4062C46.8021 34.8333 47.0156 35.3594 47.0156 35.9844C47.0156 36.599 46.8021 37.1198 46.375 37.5469C45.9479 37.9635 45.3698 38.1719 44.6406 38.1719C43.9115 38.1719 43.3333 37.9635 42.9062 37.5469C42.4792 37.1198 42.2656 36.599 42.2656 35.9844ZM42.2812 22.875C42.2812 22.25 42.4948 21.724 42.9219 21.2969C43.349 20.8698 43.9271 20.6562 44.6562 20.6562C45.3854 20.6562 45.9635 20.8698 46.3906 21.2969C46.8177 21.724 47.0312 22.25 47.0312 22.875C47.0312 23.4896 46.8177 24.0104 46.3906 24.4375C45.9635 24.8542 45.3854 25.0625 44.6562 25.0625C43.9271 25.0625 43.349 24.8542 42.9219 24.4375C42.4948 24.0104 42.2812 23.4896 42.2812 22.875ZM61.2188 28.4531L50.9375 24.7188V20.7812L64.5 26.5469V29.2969L61.2188 28.4531ZM50.9375 31.6562L61.2344 27.8125L64.5 27.0781V29.8125L50.9375 35.5781V31.6562Z" fill="black"/>
</svg>
