<svg width="60" height="60" viewBox="0 0 60 60" fill="none" xmlns="http://www.w3.org/2000/svg">
<path d="M51.2132 8.78684C45.547 3.12059 38.0133 0 30 0C21.9866 0 14.453 3.12059 8.78672 8.78684C3.12059 14.453 0 21.9867 0 30C0 38.0133 3.12059 45.547 8.78684 51.2133C14.453 56.8794 21.9866 60 30 60C38.0133 60 45.547 56.8794 51.2132 51.2133C56.8793 45.547 60 38.0133 60 30C60 21.9867 56.8793 14.453 51.2132 8.78684ZM21.3352 4.10672C20.0742 5.4157 18.9062 7.02422 17.8582 8.91187C17.1219 8.25363 16.3995 7.53492 15.6935 6.75469C17.4525 5.66812 19.3426 4.77516 21.3352 4.10672ZM13.4556 8.29559C14.4763 9.44789 15.5316 10.4876 16.6172 11.4096C15.2372 14.5182 14.2298 18.0572 13.6362 21.8426C10.3613 20.6839 7.75453 19.1161 5.94422 17.1725C5.93555 17.1633 5.92617 17.1554 5.91738 17.1465C7.77316 13.6836 10.354 10.6657 13.4556 8.29559ZM2.6966 30C2.6966 26.3734 3.4091 22.9107 4.69863 19.7418C7.03359 21.9518 10.024 23.511 13.2824 24.5964C13.104 26.3617 13.0117 28.1682 13.0117 29.9995C13.0117 31.8311 13.104 33.6377 13.2824 35.4033C10.0238 36.4886 7.03336 38.0476 4.69816 40.2573C3.40898 37.0888 2.6966 33.6263 2.6966 30ZM13.4543 51.7032C10.3529 49.3331 7.77246 46.3152 5.91691 42.8525C5.92582 42.8435 5.93543 42.8355 5.9441 42.8261C7.75465 40.8829 10.3615 39.3154 13.6364 38.1568C14.2301 41.9416 15.2374 45.4804 16.617 48.5887C15.531 49.511 14.4752 50.5508 13.4543 51.7032ZM15.692 53.2445C16.3987 52.4636 17.1218 51.7445 17.8588 51.0859C18.9068 52.9737 20.0742 54.5841 21.3352 55.8934C19.342 55.2247 17.4512 54.3314 15.692 53.2445ZM28.6514 57.1785C25.4841 56.5939 22.4967 53.9597 20.1243 49.6132C20.0814 49.5347 20.0399 49.4545 19.9975 49.3752C22.7528 47.4218 25.6687 46.2873 28.6513 46.0242V57.1785H28.6514ZM28.6514 43.3194C25.2423 43.5728 21.932 44.7864 18.8256 46.9034C17.6257 44.0477 16.7518 40.8145 16.2401 37.3589C19.7954 36.423 23.9723 35.8959 28.6514 35.8113V43.3194ZM28.6514 33.113C24.6598 33.182 20.158 33.573 15.9165 34.6382C15.7792 33.1208 15.7082 31.5708 15.7082 29.9995C15.7082 28.4286 15.7791 26.8788 15.9165 25.3616C20.1578 26.4271 24.6595 26.818 28.6514 26.887V33.113V33.113ZM28.6514 24.1887C23.9722 24.1039 19.7953 23.5768 16.24 22.6409C16.7518 19.1849 17.6256 15.9512 18.8256 13.0955C21.9319 15.2126 25.2421 16.4261 28.6514 16.6794V24.1887V24.1887ZM28.6514 13.9744C25.6688 13.7113 22.7527 12.5767 19.9978 10.6233C20.04 10.5442 20.0815 10.4641 20.1243 10.3859C22.4967 6.03961 25.4841 3.40512 28.6514 2.82059V13.9744V13.9744ZM46.5442 8.29547C49.646 10.6656 52.2268 13.6836 54.0825 17.1465C54.0737 17.1555 54.0642 17.1634 54.0555 17.1727C52.245 19.1162 49.638 20.6842 46.363 21.8428C45.7693 18.0575 44.762 14.5186 43.3821 11.41C44.4681 10.4877 45.5234 9.44789 46.5442 8.29547ZM44.3065 6.75457C43.6003 7.53516 42.8779 8.25387 42.1413 8.91223C41.0933 7.02422 39.925 5.41547 38.6639 4.10625C40.6568 4.7748 42.5473 5.66789 44.3065 6.75457ZM31.348 2.82059C34.5152 3.40512 37.5027 6.03961 39.875 10.3859C39.9179 10.4644 39.9594 10.5444 40.0018 10.6237C37.247 12.5771 34.331 13.7116 31.3481 13.9745V2.82059H31.348ZM41.1737 13.0956C42.3737 15.9513 43.2476 19.185 43.7593 22.6409C40.204 23.5767 36.0272 24.1039 31.348 24.1886V16.6793C34.7573 16.4261 38.0677 15.2126 41.1737 13.0956ZM31.348 26.8871C35.3396 26.8182 39.8414 26.4271 44.0827 25.3618C44.22 26.8789 44.291 28.4287 44.291 29.9996C44.291 31.5709 44.2201 33.1207 44.0827 34.6382C39.8413 33.573 35.3396 33.182 31.348 33.1131V26.8871ZM31.348 35.8112C36.0271 35.8959 40.2039 36.4229 43.7592 37.3587C43.2475 40.8143 42.3737 44.0475 41.1738 46.903C38.0673 44.7861 34.7571 43.5727 31.348 43.3193V35.8112ZM31.348 57.1786V46.0243C34.3307 46.2873 37.2468 47.4216 40.002 49.3751C39.9596 49.4545 39.9179 49.5347 39.875 49.6133C37.5027 53.9597 34.5152 56.5942 31.348 57.1786ZM38.6639 55.8937C39.9251 54.5843 41.0927 52.9736 42.1409 51.0855C42.878 51.7444 43.6012 52.4636 44.3079 53.2446C42.5482 54.3315 40.6574 55.225 38.6639 55.8937ZM46.5456 51.7035C45.5244 50.5509 44.4687 49.511 43.3825 48.5886C44.7622 45.4802 45.7693 41.9418 46.3629 38.1568C49.6379 39.3151 52.245 40.8829 54.0557 42.8262C54.0645 42.8357 54.0739 42.8434 54.0831 42.8527C52.2275 46.3154 49.647 49.3334 46.5456 51.7035ZM46.717 35.403C46.8954 33.6376 46.9877 31.8309 46.9877 29.9995C46.9877 28.1682 46.8954 26.3619 46.717 24.5966C49.9758 23.5112 52.9662 21.9519 55.3014 19.7418C56.5909 22.9106 57.3034 26.3734 57.3034 30C57.3034 33.6263 56.5911 37.0888 55.3018 40.2574C52.9665 38.0475 49.9759 36.4883 46.717 35.403Z" fill="black"/>
</svg>
