<svg width="54" height="68" viewBox="0 0 54 68" fill="none" xmlns="http://www.w3.org/2000/svg">
<path d="M17.4396 67.888C19.3937 67.8112 20.7821 67.2131 22.2176 66.5947C23.8717 65.8821 25.5883 65.1426 28.3048 65.1426C30.9013 65.1426 32.5415 65.8609 34.1188 66.5516C35.6251 67.2113 37.0739 67.8457 39.2433 67.8053C43.7622 67.7227 46.622 63.6522 49.3848 59.5648C52.4278 55.0666 53.7682 50.7047 53.9553 50.0962C53.9647 50.0654 53.9712 50.0442 53.9749 50.0331M17.4396 67.888L17.3827 66.3891M17.4396 67.888C13.0828 68.0534 9.76503 63.4825 6.9785 59.4078L17.4396 67.888ZM17.3827 66.3891C19.0495 66.3232 20.2029 65.8276 21.6571 65.2027C21.7555 65.1604 21.8553 65.1176 21.9567 65.0742C23.5812 64.3793 25.4671 63.6426 28.3048 63.6426C31.1637 63.6426 33.0225 64.4346 34.6135 65.1308L34.6648 65.1532C36.1865 65.8192 37.3763 66.3398 39.2154 66.3056L39.2159 66.3056C40.9796 66.2733 42.4843 65.4772 43.9412 64.0977C45.4276 62.6902 46.746 60.7903 48.1421 58.7248L48.1424 58.7243C50.2812 55.5627 51.5432 52.47 52.1368 50.8091M17.3827 66.3891C15.7836 66.4498 14.2403 65.6535 12.6517 64.1489C11.0616 62.6428 9.61798 60.6102 8.21665 58.5611L8.21608 58.5602C5.48869 54.5778 3.0569 48.8983 2.02446 42.9841C0.989908 37.0577 1.39038 31.0848 4.08071 26.3656L4.08243 26.3626C6.73083 21.6917 11.4502 18.7943 16.5138 18.7124L16.5178 18.7124C18.3316 18.6782 20.1646 19.2987 22.0323 20.037C22.2629 20.1282 22.4977 20.2226 22.7338 20.3175C23.4083 20.5888 24.0941 20.8645 24.7275 21.0827C25.5808 21.3766 26.5148 21.632 27.4238 21.632C28.3648 21.632 29.3796 21.3204 30.2977 20.9878C30.8008 20.8056 31.396 20.5688 31.9971 20.3296C32.4569 20.1467 32.9201 19.9624 33.3483 19.8001C35.5121 18.9798 37.7498 18.3263 39.9625 18.5543L40.0084 18.559L40.0545 18.5609C41.8794 18.6361 46.6332 19.2572 50.1039 23.3671C50.0866 23.3806 50.0693 23.3941 50.0518 23.4079C49.2967 24.0005 48.3243 24.8651 47.3635 26.014C45.4371 28.3177 43.5381 31.7932 43.5822 36.4806L17.3827 66.3891ZM52.1368 50.8091C52.8269 51.1864 53.2568 51.3504 53.2333 51.337L53.9749 50.0331M52.1368 50.8091C52.3523 50.206 52.4798 49.7917 52.5291 49.6315C52.5386 49.6004 52.5452 49.5789 52.549 49.5674L53.9749 50.0331M52.1368 50.8091C49.6241 49.4356 43.6624 45.2356 43.5822 36.481L45.0821 36.4669C45.1716 46.2587 53.273 49.7318 53.933 50.0147C53.9572 50.0251 53.9714 50.0312 53.9749 50.0331M31.054 5.95394L31.054 5.95396L31.0606 5.94728C33.1435 3.83107 36.5146 2.16125 39.548 1.65309C39.4258 4.39821 38.0424 7.14813 36.0101 9.28374C33.9269 11.4648 30.6836 13.1854 27.4436 13.3993C27.5426 10.7064 29.1187 7.89578 31.054 5.95394Z" stroke="#111111" stroke-width="3"/>
</svg>
