<svg width="583" height="169" viewBox="0 0 583 169" fill="none" xmlns="http://www.w3.org/2000/svg">
<path d="M348.789 47.7123C348.789 40.1785 343.374 33.9134 336.225 32.5868C336.397 31.8359 336.491 31.0549 336.491 30.2515C336.491 24.514 331.84 19.8627 326.102 19.8627C324.164 19.8627 322.351 20.395 320.798 21.3193C318.455 9.60728 308.116 0.782562 295.714 0.782562C281.585 0.782562 270.132 12.2363 270.132 26.3653C270.132 27.1208 270.166 27.8683 270.231 28.6073C266.979 26.0962 262.904 24.5984 258.477 24.5984C247.846 24.5984 239.227 33.2177 239.227 43.8496C239.227 53.8164 246.8 62.0141 256.506 63.0013L256.437 63.101H334.637L334.6 63.05C342.538 62.4372 348.789 55.8071 348.789 47.7123Z" fill="#F5F5F5"/>
<path d="M109.564 153.599C109.564 146.065 104.148 139.8 96.9992 138.473C97.1716 137.722 97.2659 136.941 97.2659 136.138C97.2659 130.4 92.6144 125.749 86.8768 125.749C84.9385 125.749 83.1251 126.281 81.5721 127.206C79.229 115.494 68.8903 106.669 56.4888 106.669C42.3592 106.669 30.906 118.123 30.906 132.252C30.906 133.007 30.9407 133.755 31.005 134.494C27.753 131.983 23.6785 130.485 19.2519 130.485C8.62004 130.485 0.000976562 139.104 0.000976562 149.736C0.000976562 159.703 7.57483 167.9 17.2808 168.888L17.2112 168.987H95.4112L95.3748 168.936C103.312 168.324 109.564 161.694 109.564 153.599Z" fill="#F5F5F5"/>
<path d="M486.583 92.0011C486.583 82.5513 494.243 74.8911 503.693 74.8911C506.222 74.8911 508.621 75.4442 510.782 76.4291C510.971 64.1588 520.975 54.2698 533.29 54.2698C543.776 54.2698 552.587 61.4381 555.09 71.1416C557.556 70.0426 560.287 69.4306 563.161 69.4306C574.118 69.4306 583 78.3135 583 89.271C583 100.106 574.314 108.912 563.526 109.107L563.527 109.111H503.039L503.044 109.095C493.896 108.753 486.583 101.233 486.583 92.0011Z" fill="#F5F5F5"/>
</svg>
