<svg width="869" height="596" viewBox="0 0 869 596" fill="none" xmlns="http://www.w3.org/2000/svg">
<g filter="url(#filter0_di_1186_19351)">
<path d="M89 97C89 84.8497 98.8497 75 111 75H758C770.15 75 780 84.8497 780 97V493H89V97Z" fill="white"/>
</g>
<path d="M103 132C103 120.954 111.954 112 123 112H745C756.046 112 765 120.954 765 132V480H103V132Z" fill="#E2E2E2"/>
<g filter="url(#filter1_i_1186_19351)">
<path d="M55 495C55 492.791 56.7909 491 59 491H807C809.209 491 811 492.791 811 495V499C811 506.18 805.18 512 798 512H67C60.3726 512 55 506.627 55 500V495Z" fill="white"/>
</g>
<line x1="64" y1="500.5" x2="810" y2="500.5" stroke="#D9D9D9"/>
<path d="M362 491H505V492C505 498.075 500.075 503 494 503H373C366.925 503 362 498.075 362 492V491Z" fill="#F8F8F8"/>
<circle cx="447" cy="94" r="10" fill="#969696"/>
<circle cx="447" cy="94" r="6" fill="white"/>
<defs>
<filter id="filter0_di_1186_19351" x="0" y="0" width="869" height="596" filterUnits="userSpaceOnUse" color-interpolation-filters="sRGB">
<feFlood flood-opacity="0" result="BackgroundImageFix"/>
<feColorMatrix in="SourceAlpha" type="matrix" values="0 0 0 0 0 0 0 0 0 0 0 0 0 0 0 0 0 0 127 0" result="hardAlpha"/>
<feMorphology radius="11" operator="erode" in="SourceAlpha" result="effect1_dropShadow_1186_19351"/>
<feOffset dy="14"/>
<feGaussianBlur stdDeviation="50"/>
<feComposite in2="hardAlpha" operator="out"/>
<feColorMatrix type="matrix" values="0 0 0 0 0 0 0 0 0 0 0 0 0 0 0 0 0 0 0.17 0"/>
<feBlend mode="normal" in2="BackgroundImageFix" result="effect1_dropShadow_1186_19351"/>
<feBlend mode="normal" in="SourceGraphic" in2="effect1_dropShadow_1186_19351" result="shape"/>
<feColorMatrix in="SourceAlpha" type="matrix" values="0 0 0 0 0 0 0 0 0 0 0 0 0 0 0 0 0 0 127 0" result="hardAlpha"/>
<feMorphology radius="2" operator="erode" in="SourceAlpha" result="effect2_innerShadow_1186_19351"/>
<feOffset dy="4"/>
<feGaussianBlur stdDeviation="10.5"/>
<feComposite in2="hardAlpha" operator="arithmetic" k2="-1" k3="1"/>
<feColorMatrix type="matrix" values="0 0 0 0 0 0 0 0 0 0 0 0 0 0 0 0 0 0 0.08 0"/>
<feBlend mode="normal" in2="shape" result="effect2_innerShadow_1186_19351"/>
</filter>
<filter id="filter1_i_1186_19351" x="55" y="483" width="756" height="29" filterUnits="userSpaceOnUse" color-interpolation-filters="sRGB">
<feFlood flood-opacity="0" result="BackgroundImageFix"/>
<feBlend mode="normal" in="SourceGraphic" in2="BackgroundImageFix" result="shape"/>
<feColorMatrix in="SourceAlpha" type="matrix" values="0 0 0 0 0 0 0 0 0 0 0 0 0 0 0 0 0 0 127 0" result="hardAlpha"/>
<feOffset dy="-8"/>
<feGaussianBlur stdDeviation="8.5"/>
<feComposite in2="hardAlpha" operator="arithmetic" k2="-1" k3="1"/>
<feColorMatrix type="matrix" values="0 0 0 0 0 0 0 0 0 0 0 0 0 0 0 0 0 0 0.27 0"/>
<feBlend mode="normal" in2="shape" result="effect1_innerShadow_1186_19351"/>
</filter>
</defs>
</svg>
