<svg width="79" height="48" viewBox="0 0 79 48" fill="none" xmlns="http://www.w3.org/2000/svg">
<path d="M69.8545 0.191186C67.0424 3.60986 65.0849 6.9734 63.9821 10.2818C62.9345 13.5902 62.4106 16.7332 62.4106 19.7107C64.2854 19.7107 66.1877 19.8486 68.1176 20.1243C70.0475 20.4 71.7569 20.8411 73.2456 21.4476C74.7896 22.0542 76.0302 22.8261 76.9676 23.7635C77.9601 24.7009 78.4564 25.8313 78.4564 27.1546V39.2303C78.4564 40.6639 77.9601 41.9045 76.9676 42.9522C76.0302 43.9999 74.7896 44.8545 73.2456 45.5162C71.7017 46.1779 69.9648 46.6741 68.0349 47.005C66.105 47.3358 64.1751 47.5012 62.2452 47.5012C60.205 47.5012 58.1924 47.3358 56.2074 47.005C54.2775 46.6741 52.5406 46.1779 50.9967 45.5162C49.4528 44.8545 48.2121 43.9999 47.2747 42.9522C46.3374 41.9045 45.8687 40.6639 45.8687 39.2303V32.2826C45.8687 30.7387 45.9514 28.6158 46.1168 25.914C46.3374 23.157 46.806 20.2346 47.5229 17.1467C48.2948 14.0589 49.37 10.9986 50.7485 7.96592C52.127 4.93322 54.0294 2.34164 56.4555 0.191186H69.8545ZM24.6949 0.191186C21.8828 3.60986 19.8978 6.9734 18.7398 10.2818C17.637 13.5902 17.0856 16.7332 17.0856 19.7107C19.0155 19.7107 20.9454 19.8486 22.8753 20.1243C24.8052 20.4 26.5145 20.8411 28.0033 21.4476C29.5472 22.0542 30.7879 22.8261 31.7253 23.7635C32.6626 24.7009 33.1313 25.8313 33.1313 27.1546V39.2303C33.1313 40.6639 32.6626 41.9045 31.7253 42.9522C30.7879 43.9999 29.5472 44.8545 28.0033 45.5162C26.4594 46.1779 24.7225 46.6741 22.7926 47.005C20.8627 47.3358 18.9052 47.5012 16.9202 47.5012C14.9352 47.5012 12.9501 47.3358 10.9651 47.005C9.03519 46.6741 7.29828 46.1779 5.75436 45.5162C4.21045 44.8545 2.94223 43.9999 1.94971 42.9522C1.01233 41.9045 0.543641 40.6639 0.543641 39.2303V32.2826C0.543641 30.7387 0.626351 28.6158 0.791771 25.914C1.01233 23.157 1.48102 20.2346 2.19784 17.1467C2.9698 14.0589 4.04503 10.9986 5.42352 7.96592C6.80202 4.93322 8.70435 2.34164 11.1305 0.191186H24.6949Z" fill="#E04048"/>
</svg>
