<svg width="604" height="592" viewBox="0 0 604 592" fill="none" xmlns="http://www.w3.org/2000/svg">
<path d="M363.136 373.5L345.641 319.808C278.158 349.841 236.047 319.126 169.711 348.649C132.579 365.175 110.141 413.938 122.91 453.121C135.679 492.308 180.495 511.858 217.625 495.333C286.622 464.627 279.687 410.637 363.136 373.5Z" fill="white"/>
<path d="M244.983 475.238C245.903 462.855 237.406 452.69 226.008 452.533C214.611 452.378 204.626 462.293 203.708 474.676C202.788 487.059 211.283 497.227 222.682 497.381C234.081 497.535 244.065 487.621 244.983 475.238Z" fill="#C9C9C9"/>
<path d="M121.255 406.622C122.078 395.53 114.469 386.428 104.262 386.287C94.0529 386.149 85.1108 395.027 84.2869 406.117C83.4639 417.209 91.0742 426.315 101.281 426.453C111.491 426.59 120.432 417.714 121.255 406.622Z" fill="white"/>
<path d="M152.216 556.998C152.464 553.654 150.17 550.91 147.092 550.867C144.015 550.826 141.319 553.502 141.071 556.845C140.823 560.188 143.116 562.934 146.194 562.975C149.271 563.018 151.967 560.341 152.216 556.998Z" fill="#C9C9C9"/>
<path d="M200.7 334.997C196.731 322.818 184.161 317.11 172.622 322.245C161.085 327.382 154.947 341.414 158.913 353.593C162.884 365.771 175.451 371.48 186.992 366.342C198.532 361.206 204.668 347.175 200.7 334.997Z" fill="#C9C9C9"/>
<path d="M150.784 560.966C151.026 557.713 148.794 555.042 145.799 555.001C142.805 554.961 140.182 557.565 139.94 560.819C139.699 564.072 141.931 566.743 144.925 566.784C147.92 566.825 150.543 564.22 150.784 560.966Z" fill="#C9C9C9"/>
<path d="M126.107 267.065C126.877 256.695 119.764 248.184 110.22 248.054C100.675 247.924 92.3151 256.223 91.5454 266.593C90.7771 276.963 97.8903 285.474 107.433 285.603C116.977 285.733 125.339 277.433 126.107 267.065Z" fill="#EBEBEB"/>
<path d="M100.448 294.736C99.5949 292.118 96.892 290.89 94.411 291.994C91.9303 293.098 90.6105 296.116 91.4636 298.734C92.3171 301.353 95.0198 302.579 97.5004 301.475C99.9814 300.371 101.302 297.354 100.448 294.736Z" fill="#C9C9C9"/>
<path d="M246.955 486.105C247.519 478.494 242.299 472.246 235.293 472.149C228.288 472.056 222.152 478.149 221.586 485.758C221.022 493.371 226.245 499.618 233.25 499.715C240.257 499.809 246.392 493.717 246.955 486.105Z" fill="#C9C9C9"/>
<path d="M136.581 331.314C136.899 327.013 133.949 323.481 129.989 323.428C126.03 323.374 122.563 326.817 122.244 331.119C121.923 335.42 124.875 338.95 128.834 339.005C132.793 339.059 136.263 335.616 136.581 331.314Z" fill="#EBEBEB"/>
<path d="M221.278 520.539C222.096 509.518 214.537 500.469 204.394 500.334C194.251 500.196 185.368 509.017 184.55 520.038C183.729 531.057 191.292 540.102 201.434 540.243C211.581 540.381 220.466 531.559 221.278 520.539Z" fill="#C9C9C9"/>
<path d="M129.178 515.485C129.282 514.086 128.323 512.938 127.035 512.921C125.748 512.903 124.62 514.022 124.517 515.421C124.413 516.821 125.372 517.968 126.659 517.986C127.947 518.003 129.074 516.883 129.178 515.485Z" fill="#C9C9C9"/>
<path d="M64.1946 460.699C64.4452 457.325 62.1306 454.555 59.0243 454.513C55.9186 454.471 53.1986 457.171 52.9486 460.546C52.6973 463.921 55.0133 466.691 58.1183 466.734C61.2239 466.775 63.944 464.073 64.1946 460.699Z" fill="#C9C9C9"/>
<path d="M91.7191 496.414C91.823 495.016 90.8635 493.868 89.576 493.85C88.2887 493.833 87.1613 494.952 87.0577 496.351C86.9535 497.75 87.9135 498.898 89.2005 498.916C90.4877 498.933 91.6152 497.813 91.7191 496.414Z" fill="#C9C9C9"/>
<path d="M179.537 336.262C179.994 330.082 175.756 325.006 170.062 324.929C164.368 324.852 159.388 329.799 158.929 335.981C158.473 342.169 162.713 347.242 168.404 347.32C174.097 347.394 179.078 342.444 179.537 336.262Z" fill="#C9C9C9"/>
<path d="M253.18 351.518C253.18 351.517 253.179 351.516 253.178 351.516C253.177 351.516 253.176 351.517 253.176 351.518C253.176 351.519 253.177 351.52 253.178 351.52C253.179 351.52 253.18 351.519 253.18 351.518Z" fill="#C9C9C9"/>
<path d="M242.265 466.485C242.898 457.952 237.045 450.951 229.192 450.841C221.339 450.735 214.461 457.564 213.828 466.094C213.195 474.625 219.046 481.631 226.9 481.736C234.752 481.844 241.631 475.016 242.265 466.485Z" fill="#EBEBEB"/>
<path d="M231.886 504.701C233.936 477.072 214.982 454.39 189.552 454.047C164.124 453.702 141.849 475.817 139.799 503.448C137.749 531.076 156.705 553.752 182.13 554.1C207.561 554.447 229.836 532.326 231.886 504.701Z" fill="white"/>
<path d="M247.133 345.88C247.583 339.817 243.424 334.841 237.845 334.765C232.264 334.689 227.376 339.541 226.926 345.604C226.477 351.667 230.636 356.642 236.215 356.718C241.795 356.794 246.684 351.941 247.133 345.88Z" fill="#EBEBEB"/>
<path d="M214.224 329.756C206.979 307.524 184.027 297.096 162.959 306.471C141.893 315.849 130.686 341.477 137.93 363.71C145.178 385.943 168.128 396.362 189.193 386.986C210.261 377.612 221.471 351.99 214.224 329.756Z" fill="white"/>
<path d="M272.202 347.613C272.388 345.098 270.663 343.034 268.348 343.002C266.034 342.971 264.006 344.984 263.82 347.499C263.632 350.013 265.358 352.077 267.673 352.11C269.988 352.141 272.016 350.128 272.202 347.613Z" fill="#C9C9C9"/>
<path d="M242.076 474.219C242.341 470.651 239.893 467.722 236.607 467.677C233.323 467.633 230.446 470.488 230.181 474.057C229.916 477.628 232.365 480.557 235.649 480.602C238.934 480.646 241.811 477.788 242.076 474.219Z" fill="#C9C9C9"/>
<path d="M169.688 409.437C169.714 409.091 169.476 408.807 169.158 408.803C168.839 408.798 168.56 409.075 168.535 409.421C168.509 409.767 168.746 410.051 169.065 410.056C169.383 410.06 169.662 409.783 169.688 409.437Z" fill="#C9C9C9"/>
<path d="M201.269 474.986C201.534 471.418 199.086 468.488 195.801 468.443C192.516 468.4 189.639 471.255 189.375 474.824C189.109 478.394 191.558 481.323 194.842 481.369C198.127 481.413 201.004 478.554 201.269 474.986Z" fill="#C9C9C9"/>
<path d="M285.024 370.318C268.883 337.224 228.598 345.99 204.369 376.371C204.621 376.888 227.556 373.383 227.556 373.383L176.644 430.22L244.596 422.043L229.239 439.774C229.239 439.774 312.263 426.166 285.024 370.318Z" fill="#FB2804"/>
<path d="M296.036 271.253L305.246 264.996C305.642 264.677 313.116 258.552 313.284 256.167C313.294 256.042 312.914 256.102 312.878 255.999C312.871 255.981 312.506 256.138 312.496 256.118L312.49 256.106C312.445 256.014 312.738 255.764 312.648 255.694C311.804 255.09 309.287 255.44 302.814 258.144L269.407 282.355L270.97 288.274L270.972 288.273L281.89 280.858L296.036 271.253Z" fill="#FF965F"/>
<path d="M306.224 277.979L315.513 271.684L315.505 271.667C315.434 271.521 323.281 265.253 323.447 262.898C323.466 262.613 323.342 262.399 323.119 262.252L313.011 255.494C313.019 255.498 313.011 255.508 313.018 255.512C313.112 255.582 313.176 255.666 313.221 255.759C313.232 255.781 313.234 255.801 313.241 255.82C313.279 255.925 313.3 256.035 313.292 256.164C313.124 258.545 305.651 264.669 305.257 264.988L305.261 264.991L270.97 288.27L281.07 295.039L306.156 278.005L306.224 277.979Z" fill="#FF765F"/>
<path d="M332.187 300.305L296.038 271.251L281.891 280.858L284.006 293.045L290.096 328.18L290.4 329.917L334.266 301.976L332.187 300.305Z" fill="#005DFF"/>
<path d="M324.799 369.89C314.87 355.742 305.461 337.341 308.12 319.526C308.559 316.579 309.241 313.757 310.138 311.073C310.225 310.299 310.332 309.533 310.463 308.775C309.948 308.758 309.625 308.754 309.625 308.754C286.104 320.226 268.015 343.351 265.004 346.999C264.973 347.011 264.935 347.016 264.904 347.031C259.11 349.857 260.527 364.686 268.07 380.151C275.611 395.611 286.422 405.856 292.216 403.03C292.216 403.03 325.789 402.092 347.155 392.327C344.479 389.84 342.023 387.113 339.706 384.256C334.058 380.566 329.006 375.886 324.799 369.89Z" fill="#B514BA"/>
<path d="M299.72 450.304C299.734 450.113 299.684 449.951 299.61 449.799C299.59 449.758 299.566 449.716 299.54 449.679C299.463 449.561 299.36 449.456 299.234 449.362C299.223 449.356 299.213 449.347 299.204 449.342C297.595 448.22 292.708 448.858 292.397 448.896L283.461 451.44L269.699 455.356L259.086 458.372L256.557 466.252L288.803 458.691C296.962 454.205 299.624 451.691 299.72 450.304Z" fill="#FF965F"/>
<path d="M478.627 250.373C440.79 254.283 381.438 266.146 323.487 300.816L310.258 308.396C301.702 312.569 303.795 334.46 314.933 357.295C326.068 380.126 342.029 395.251 350.584 391.078C411.618 368.524 464.178 329.458 497.961 292.747C497.961 292.747 478.398 251.916 478.627 250.373Z" fill="#E3E3EA"/>
<path d="M478.627 250.374C479.475 274.506 497.959 292.744 497.961 292.747C510.797 281.378 525.362 254.342 525.456 254.24C525.456 254.24 503.168 247.814 478.627 250.374Z" fill="#65FD8D"/>
<path d="M437.852 276.788L437.852 276.377L437.643 275.744C437.606 275.593 437.561 275.438 437.505 275.262C437.427 274.962 437.341 274.668 437.241 274.401C437.16 274.18 437.068 273.964 436.877 273.573C436.862 273.54 436.669 273.137 436.669 273.137L436.451 272.721C436.293 272.446 436.112 272.18 435.904 271.897C435.754 271.663 435.598 271.433 435.403 271.192C434.672 270.287 433.794 269.475 432.791 268.773L432.117 268.309L431.979 268.261C431.908 268.219 431.834 268.177 431.749 268.129C431.525 267.993 431.3 267.861 431.094 267.756C430.826 267.615 430.54 267.488 430.094 267.299C429.864 267.19 429.634 267.089 429.387 266.998C428.235 266.563 426.985 266.232 425.668 266.012C423.797 265.7 421.792 265.614 419.704 265.745C417.764 265.875 415.761 266.197 413.767 266.707C411.82 267.201 409.889 267.872 408.025 268.695C403.405 270.743 399.52 273.583 396.8 276.908C395.625 278.342 394.688 279.862 394.066 281.322C393.986 281.49 393.912 281.656 393.84 281.832L393.695 282.24C392.482 285.576 392.592 288.994 394.005 291.892C394.114 292.116 394.232 292.341 394.357 292.554C394.962 293.613 395.741 294.585 396.672 295.439C398.822 297.405 401.678 298.697 405.158 299.277C406.427 299.489 407.757 299.597 409.106 299.6C410.39 299.606 411.733 299.521 413.094 299.343C414.404 299.174 415.735 298.913 417.042 298.579C418.338 298.251 419.641 297.84 420.916 297.358C426.289 295.323 430.949 292.132 434.031 288.365C437.053 284.669 438.395 280.581 437.852 276.788Z" fill="#010080"/>
<path d="M432.638 277.205C432.637 277.198 432.633 277.194 432.63 277.184C432.598 277.027 432.541 276.879 432.502 276.724C432.452 276.554 432.416 276.382 432.353 276.215C432.288 276.045 432.201 275.887 432.122 275.724C432.055 275.586 432.001 275.441 431.925 275.304C431.834 275.146 431.718 275.003 431.616 274.856C431.528 274.727 431.45 274.595 431.35 274.472C430.912 273.929 430.375 273.433 429.74 272.998C429.737 272.997 429.735 272.996 429.73 272.993C429.551 272.871 429.351 272.765 429.159 272.653C429.006 272.564 428.869 272.468 428.707 272.388C428.512 272.287 428.287 272.197 428.073 272.105C427.898 272.029 427.737 271.947 427.554 271.875C426.731 271.565 425.813 271.322 424.811 271.154C423.297 270.903 421.696 270.841 420.049 270.949C418.404 271.056 416.717 271.335 415.05 271.759C413.379 272.184 411.724 272.759 410.135 273.463C406.435 275.101 403.105 277.439 400.837 280.208C399.932 281.314 399.272 282.413 398.812 283.486C398.772 283.573 398.723 283.662 398.689 283.75C398.667 283.807 398.652 283.862 398.632 283.916C397.791 286.153 397.898 288.246 398.882 289.964C399.22 290.554 399.657 291.096 400.195 291.588C401.536 292.816 403.492 293.711 406.008 294.132C407.016 294.301 408.062 294.382 409.135 294.387C410.211 294.392 411.31 294.319 412.419 294.174C413.529 294.028 414.651 293.809 415.765 293.527C416.877 293.242 417.985 292.889 419.072 292.482C423.412 290.842 427.399 288.24 429.997 285.062C432.268 282.288 433.096 279.536 432.638 277.205Z" fill="#88AEF0"/>
<path d="M381.842 295.941L381.714 295.516C381.714 295.516 381.522 295.076 381.455 294.922C381.367 294.698 381.272 294.472 381.107 294.134L381.082 294.083C380.938 293.803 380.775 293.529 380.559 293.203C380.421 292.972 380.274 292.742 380.097 292.501C379.916 292.256 379.713 292.024 379.468 291.755C379.291 291.542 379.107 291.332 378.903 291.132C378.155 290.396 377.292 289.746 376.337 289.197L375.975 288.923L375.46 288.742C375.307 288.672 375.127 288.595 374.905 288.498C374.693 288.398 374.482 288.303 374.183 288.19C373.933 288.098 373.66 288.012 373.165 287.866C372.938 287.787 372.711 287.715 372.443 287.65C371.256 287.355 369.978 287.168 368.629 287.1C366.72 287.005 364.718 287.145 362.687 287.52C360.76 287.869 358.808 288.422 356.893 289.152C355.017 289.866 353.179 290.752 351.419 291.784C347.066 294.345 343.534 297.611 341.208 301.234C340.204 302.79 339.451 304.415 338.997 305.944C338.936 306.112 338.882 306.284 338.837 306.448L338.774 306.725C338.011 309.782 338.269 312.752 339.516 315.308C339.814 315.919 340.169 316.507 340.572 317.057C341.3 318.045 342.186 318.916 343.203 319.651C345.564 321.359 348.551 322.316 352.075 322.498C353.345 322.559 354.682 322.516 356.041 322.361C357.332 322.217 358.653 321.98 359.971 321.655C361.237 321.333 362.533 320.923 363.802 320.441C365.048 319.968 366.291 319.411 367.505 318.785C372.612 316.153 376.874 312.446 379.506 308.345C382.219 304.127 383.036 299.684 381.842 295.941Z" fill="#010080"/>
<path d="M376.843 297.422C376.843 297.414 376.84 297.408 376.837 297.403C376.789 297.248 376.715 297.11 376.654 296.957C376.587 296.792 376.53 296.628 376.45 296.467C376.367 296.308 376.262 296.159 376.164 296.007C376.081 295.877 376.011 295.74 375.918 295.613C375.811 295.471 375.681 295.339 375.559 295.204C375.457 295.089 375.366 294.964 375.253 294.852C374.756 294.365 374.164 293.937 373.486 293.575C373.482 293.575 373.48 293.57 373.476 293.57C373.283 293.47 373.071 293.387 372.869 293.298C372.708 293.228 372.557 293.148 372.391 293.085C372.179 293.006 371.947 292.944 371.724 292.876C371.543 292.825 371.374 292.757 371.182 292.709C370.328 292.494 369.393 292.358 368.376 292.307C366.843 292.231 365.242 292.355 363.622 292.648C361.999 292.942 360.36 293.413 358.748 294.026C357.137 294.641 355.559 295.397 354.063 296.279C350.574 298.332 347.53 301.036 345.598 304.05C344.825 305.251 344.294 306.416 343.962 307.535C343.934 307.627 343.896 307.723 343.868 307.815C343.855 307.871 343.848 307.928 343.836 307.986C343.255 310.303 343.6 312.368 344.772 313.964C345.176 314.51 345.673 315 346.263 315.427C347.737 316.493 349.783 317.159 352.333 317.288L352.334 317.287C353.351 317.341 354.403 317.3 355.468 317.182C356.536 317.062 357.618 316.865 358.706 316.594C359.789 316.323 360.879 315.975 361.952 315.569C363.027 315.158 364.085 314.682 365.117 314.15C369.242 312.025 372.906 308.982 375.122 305.528C377.058 302.513 377.566 299.685 376.843 297.422Z" fill="#88AEF0"/>
<path d="M299.19 449.316L299.211 449.33L336.432 390.907L326.331 384.135L283.459 451.442L292.396 448.896C292.706 448.854 297.596 448.217 299.207 449.338L299.207 449.336C299.199 449.33 299.199 449.323 299.19 449.316Z" fill="#010080"/>
<path d="M285.901 394.335L269.697 455.352L283.458 451.44L326.334 384.138L285.901 394.335Z" fill="#005DFF"/>
<path d="M309.819 457.075C309.85 456.647 309.645 456.322 309.289 456.083L299.21 449.329L299.192 449.316C299.197 449.322 299.2 449.332 299.207 449.334C299.218 449.342 299.224 449.353 299.235 449.361C299.361 449.457 299.463 449.561 299.54 449.679C299.569 449.718 299.592 449.757 299.611 449.797C299.685 449.948 299.735 450.11 299.722 450.304C299.624 451.686 296.964 454.201 288.802 458.689L256.556 466.249L266.655 473.021L298.901 465.461C307.061 460.972 309.722 458.46 309.819 457.075Z" fill="#FF765F"/>
<path d="M300.772 136.405C300.772 136.405 310.33 137.242 317.457 133.971C325.567 130.249 326.833 126.338 326.833 126.338L340.449 141.258C340.449 141.258 339.187 144.366 331.905 149.388C324.274 154.649 317.996 155.104 314.183 155.052C313.199 155.038 312.629 154.991 312.629 154.991L300.772 136.405Z" fill="#C5FFF4"/>
<path d="M317.119 151.384L308.441 139.095L317.119 151.384Z" fill="#004E15"/>
<path d="M316.785 151.619L308.108 139.329L308.774 138.859L317.451 151.147L316.785 151.619Z" fill="white"/>
<path d="M321.601 150.381L313.008 138.333L321.601 150.381Z" fill="#004E15"/>
<path d="M321.268 150.618L312.675 138.57L313.34 138.097L321.934 150.144L321.268 150.618Z" fill="white"/>
<path d="M325.926 148.519L317.451 137.252L325.926 148.519Z" fill="#004E15"/>
<path d="M325.6 148.764L317.125 137.499L317.778 137.007L326.252 148.272L325.6 148.764Z" fill="white"/>
<path d="M330.164 146.129L322.066 135.736L330.164 146.129Z" fill="#004E15"/>
<path d="M329.841 146.38L321.743 135.988L322.387 135.486L330.485 145.878L329.841 146.38Z" fill="white"/>
<path d="M334.666 143.125L325.786 133.428L334.666 143.125Z" fill="#004E15"/>
<path d="M334.366 143.4L325.485 133.703L326.086 133.151L334.967 142.848L334.366 143.4Z" fill="white"/>
<path d="M286.844 189.332C286.844 189.332 295.791 192.795 303.547 191.637C312.372 190.319 314.677 186.913 314.677 186.913L323.603 205.034C323.603 205.034 321.526 207.669 313.135 210.465C304.342 213.396 298.183 212.085 294.536 210.974C293.594 210.686 293.06 210.484 293.06 210.484L286.844 189.332Z" fill="#C5FFF4"/>
<path d="M298.377 208.267L293.462 194.048L298.377 208.267Z" fill="#004E15"/>
<path d="M297.991 208.4L293.076 194.181L293.847 193.916L298.762 208.133L297.991 208.4Z" fill="white"/>
<path d="M302.962 208.551L298.061 194.589L302.962 208.551Z" fill="#004E15"/>
<path d="M302.575 208.687L297.674 194.724L298.446 194.454L303.347 208.417L302.575 208.687Z" fill="white"/>
<path d="M307.634 207.965L302.629 194.787L307.634 207.965Z" fill="#004E15"/>
<path d="M307.251 208.11L302.247 194.932L303.01 194.643L308.015 207.82L307.251 208.11Z" fill="white"/>
<path d="M312.368 206.85L307.482 194.614L312.368 206.85Z" fill="#004E15"/>
<path d="M311.989 207.002L307.103 194.765L307.861 194.463L312.748 206.699L311.989 207.002Z" fill="white"/>
<path d="M317.529 205.217L311.698 193.433L317.529 205.217Z" fill="#004E15"/>
<path d="M317.165 205.398L311.333 193.613L312.064 193.25L317.896 205.035L317.165 205.398Z" fill="white"/>
<path d="M274.454 148.179C274.454 148.179 274.154 157.77 277.82 164.701C281.99 172.59 285.968 173.634 285.968 173.634L271.834 188.066C271.834 188.066 268.66 186.98 263.238 179.991C257.557 172.667 256.75 166.423 256.589 162.614C256.547 161.63 256.561 161.06 256.561 161.06L274.454 148.179Z" fill="#C5FFF4"/>
<path d="M260.417 165.339L272.199 155.987L260.417 165.339Z" fill="#004E15"/>
<path d="M260.162 165.019L271.945 155.667L272.452 156.305L260.669 165.658L260.162 165.019Z" fill="white"/>
<path d="M261.668 169.758L273.215 160.503L261.668 169.758Z" fill="#004E15"/>
<path d="M261.413 169.44L272.959 160.184L273.469 160.823L261.922 170.078L261.413 169.44Z" fill="white"/>
<path d="M263.77 173.973L274.542 164.88L263.77 173.973Z" fill="#004E15"/>
<path d="M263.507 173.66L274.279 164.569L274.807 165.192L264.035 174.283L263.507 173.66Z" fill="white"/>
<path d="M266.393 178.068L276.317 169.401L266.393 178.068Z" fill="#004E15"/>
<path d="M266.125 177.761L276.047 169.094L276.585 169.708L266.663 178.377L266.125 177.761Z" fill="white"/>
<path d="M269.646 182.396L278.83 172.986L269.646 182.396Z" fill="#004E15"/>
<path d="M269.355 182.112L278.537 172.702L279.123 173.271L269.939 182.682L269.355 182.112Z" fill="white"/>
<path d="M375.486 199.599C375.486 199.599 369.016 212.055 366.737 221.765C364.459 231.473 359.628 248.579 353.219 257.69C346.809 266.802 332.97 286.1 332.071 286.428C331.172 286.757 340.966 288.281 340.966 288.281C340.966 288.281 364.67 268.549 371.393 256.341C378.115 244.134 386.608 222.002 389.428 220.192C392.248 218.382 398.787 218.522 402.425 213.663C407.122 207.388 405.019 197.727 405.019 197.727C405.019 197.727 378.64 196.268 375.486 199.599Z" fill="url(#paint0_linear_145_10307)"/>
<path d="M395.356 202.923C395.356 202.923 390.996 205.301 387.02 205.987C383.043 206.673 378.009 210.954 376.136 213.947C374.262 216.94 367.413 244.2 366.799 246.169C366.186 248.136 370.18 252.072 368.958 252C367.736 251.929 361 251.323 362.395 251.884C363.789 252.444 367.894 255.102 366.147 255.351C364.399 255.6 358.035 254.968 358.9 255.84C359.764 256.711 363.714 259.648 361.277 259.343C358.84 259.038 348.939 271.95 345.483 276.87C342.028 281.789 340.966 288.281 340.966 288.281L331.806 286.652C331.806 286.652 354.314 256.605 356.137 252.829C357.959 249.054 366.287 221.096 367.952 215.136C369.929 208.056 371.678 204.958 371.678 204.958C371.678 204.958 386.382 199.48 390.251 200.208C394.12 200.936 395.356 202.923 395.356 202.923Z" fill="url(#paint1_linear_145_10307)"/>
<path d="M327.974 165.992L327.187 165.135L324.875 167.259L325.662 168.117L327.974 165.992Z" fill="#FFB600"/>
<path d="M336.557 177.359L335.77 176.502L334.338 177.819L335.125 178.675L336.557 177.359Z" fill="#FFB600"/>
<path d="M323.973 200.824L299.833 174.552L316.623 159.124L340.763 185.394L323.973 200.824Z" fill="#FF3C00"/>
<path d="M332.548 194.093L307.34 166.66L317.173 157.625L342.38 185.058L332.548 194.093Z" fill="#FF3C00"/>
<path d="M303.235 171.426C303.235 171.426 306.507 176.011 315.811 182.517C323.734 188.057 327.295 188.377 327.295 188.377L307.835 167.199L303.235 171.426Z" fill="#CE2C00"/>
<path d="M319.764 184.149L316.869 180.997L320.821 177.365L323.717 180.517L319.764 184.149Z" fill="#FFB600"/>
<path d="M320.975 177.532C320.975 177.532 319.7 179.039 319.294 180.975C318.888 182.91 319.906 184.019 319.906 184.019L323.718 180.517L320.975 177.532Z" fill="white"/>
<path d="M340.504 175.216L328.778 162.456L325.406 165.555L327.337 167.657L329.428 165.817L337.221 174.299L335.13 176.139L337.13 178.315L340.504 175.216Z" fill="#FF3C00"/>
<path d="M325.892 169.054L333.687 177.535L334.285 176.984L326.491 168.503L325.892 169.054Z" fill="#FF3C00"/>
<path d="M404.024 201.399L419.397 181.412L411.64 201.578L404.024 201.399Z" fill="#020023"/>
<path d="M404.825 200.941C404.825 200.941 415.284 190.925 422.906 177.019C430.528 163.113 422.272 157.49 421.728 156.898C418.003 152.853 399.683 146.883 397.714 148.705C392.964 153.099 397.546 168.838 392.7 181.762C389.371 190.64 370.985 204.292 368.405 205.339C364.173 207.057 373.604 210.588 387.918 201.53C389.47 200.548 390.054 202.482 394.184 202.438C395.508 202.424 396.974 201.947 398.098 201.652C401.47 200.767 404.825 200.941 404.825 200.941Z" fill="url(#paint2_linear_145_10307)"/>
<path d="M417.404 159.89L419.364 175.786L418.819 155.736L417.404 159.89Z" fill="#FF9100"/>
<path d="M385.829 198.623C385.829 198.623 400.155 188.788 406.085 182.145C412.015 175.503 413.96 167.342 414.29 165.187C414.62 163.031 416.541 159.898 416.541 159.898L413.304 156.582L409.097 154.778C409.097 154.778 387.654 195.726 385.829 198.623Z" fill="#FF9100"/>
<path d="M409.428 150.879C409.428 150.879 416.74 144.138 418.01 141.223C419.279 138.309 421.667 132.138 426.698 133.175C431.728 134.212 431.216 139.298 430.744 141.191C430.273 143.084 428.702 148.125 428.376 148.075C428.05 148.024 427.381 146.868 427.381 146.868C427.381 146.868 426.29 150.014 424.601 150.432C422.912 150.85 421.38 149.766 421.38 149.766C421.38 149.766 417.991 153.254 417.678 154.637C417.364 156.019 417.553 159.529 417.553 159.529C417.553 159.529 408.458 156.011 409.428 150.879Z" fill="#FFB68E"/>
<path d="M408.91 149.99C408.91 149.99 411.968 161.859 411.02 168.68C410.072 175.501 386.742 199.896 381.144 201.83C375.547 203.765 368.315 202.74 368.315 202.74C368.315 202.74 384.199 182.754 389.729 171.499C395.259 160.245 394.395 150.324 398.686 148.151C402.978 145.978 408.91 149.99 408.91 149.99Z" fill="#19437F"/>
<path d="M419.094 154.286C419.094 154.286 418.708 165.289 419.732 171.701C420.755 178.113 411.571 201.555 411.571 201.555L413.03 201.371C413.03 201.371 426.41 175.202 427.89 169.828C429.37 164.454 427.574 159.086 425.881 158.222C424.188 157.358 419.094 154.286 419.094 154.286Z" fill="#19437F"/>
<path d="M368.315 202.74C368.315 202.74 378.227 205.15 384.284 199.914C390.342 194.677 401.813 176.901 403.411 171.42C405.009 165.939 404.585 165.184 404.585 165.184L408.174 165.86L405.09 162.503C405.09 162.503 405.964 160.869 405.08 156.802C404.196 152.735 401.98 147.739 401.98 147.739C401.98 147.739 397.475 145.845 395.737 152.517C393.999 159.189 389.59 170.453 387.66 174.321C385.731 178.191 371.315 200.062 368.315 202.74Z" fill="url(#paint3_linear_145_10307)"/>
<path d="M423.522 156.905C423.522 156.905 424.923 167.711 425.053 169.126C425.184 170.542 422.157 169.276 422.157 169.276L424.687 171.243C424.687 171.243 424.231 175.428 423.333 178.437C422.434 181.445 416.384 190.814 416.384 190.814L411.571 201.555L413.948 201.498C413.948 201.498 427.364 176.154 428.595 169.465C429.825 162.775 427.368 159.547 426.625 158.885C425.881 158.222 423.522 156.905 423.522 156.905Z" fill="url(#paint4_linear_145_10307)"/>
<path d="M427.319 171.635C427.319 171.635 448.622 184.855 452.484 181.484C456.345 178.112 460.43 158.835 460.176 157.133C459.922 155.43 458.834 155.238 458.834 155.238L454.914 155.155C454.914 155.155 449.4 170.184 448.659 170.943C447.918 171.701 432.639 160.837 426.625 158.885C426.625 158.885 426.737 171.011 427.319 171.635Z" fill="url(#paint5_linear_145_10307)"/>
<path d="M400.663 147.528C400.663 147.528 367.243 146.629 356.87 153.18C346.497 159.731 340.34 163.847 340.34 163.847L343.055 169.522C343.055 169.522 358.836 160.831 368.029 158.987C377.223 157.144 394.813 160.377 398.637 158.057C402.461 155.736 400.663 147.528 400.663 147.528Z" fill="url(#paint6_linear_145_10307)"/>
<path d="M340.34 163.847C340.34 163.847 346.386 165.096 351.06 162.969C358.133 159.751 361.266 159.298 360.844 158.097C360.383 156.785 360.581 154.283 361.513 155.247C362.445 156.211 364.498 159.676 364.858 158.61C365.218 157.544 363.614 152.543 364.945 153.928C366.275 155.313 367.901 158.509 368.09 157.505C368.278 156.501 368.118 152.003 369.269 154.338C370.421 156.674 376.779 155.771 381.691 155.887C386.602 156.002 397.715 152.024 397.715 152.024C397.715 152.024 396.171 158.9 393.887 158.912C387.071 158.947 373.033 158.09 368.029 158.987C363.026 159.884 343.056 169.522 343.056 169.522L340.34 163.847Z" fill="#020023"/>
<path d="M427.757 172.49C427.757 172.49 427.891 169.826 427.828 166.573C427.774 163.785 427.136 161.206 427.136 161.206C427.136 161.206 433.638 169.221 436.253 171.283C438.867 173.345 444.719 177.958 446.392 178.585C448.064 179.213 447.725 177.091 447.516 175.073C447.309 173.055 448.77 176.885 449.595 177.691C450.419 178.497 448.569 171.808 449.557 172.362C450.546 172.916 452.498 177.513 452.739 176.591C452.979 175.67 451.303 171.339 451.726 171.796C452.149 172.252 454.294 173.642 454.294 173.642C454.294 173.642 456.969 161.552 457.027 159.245C457.085 156.939 454.914 155.155 454.914 155.155C454.914 155.155 458.737 154.379 459.821 155.419C460.905 156.459 460.176 157.133 460.176 157.133C460.176 157.133 458.691 168.162 456.756 173.954C454.821 179.747 453.388 180.782 452.189 181.876C449.943 183.927 432.268 176.384 427.757 172.49Z" fill="#020023"/>
<path d="M342.557 168.479C342.557 168.479 340.794 171.35 338.566 173.258C336.338 175.166 336.11 174.173 337.13 172.555C338.15 170.937 338.441 169.848 338.441 169.848C338.441 169.848 336.679 170.384 335.802 171.318C335.405 171.741 336.289 172.894 335.941 172.954C334.183 173.263 333.422 170.859 333.422 170.859C333.422 170.859 332.485 171.523 331.93 171.143C330.751 170.336 332.237 169.357 332.237 169.357C332.237 169.357 330.77 169.874 330.901 168.732C331.031 167.589 331.137 167.679 331.137 167.679C331.137 167.679 327.353 168.681 328.026 167.354C328.699 166.028 340.34 163.847 340.34 163.847L342.557 168.479Z" fill="#FFB68E"/>
<path d="M419.094 154.286L418.411 154.547C418.411 154.547 419.451 167.753 419.382 171.646C419.273 177.805 418.554 179.485 418.038 182.411C417.894 183.226 416.747 186.797 416.747 186.797L411.637 201.378C411.637 201.378 419.593 186.749 420.192 176.8C420.43 172.852 419.094 154.286 419.094 154.286Z" fill="#020023"/>
<path d="M341.558 165.068L341.317 164.712C342.06 164.209 359.278 152.569 362.256 152.275C362.306 152.269 362.349 152.267 362.391 152.269C363.512 152.307 370.805 151.278 378.527 150.187C390.138 148.548 397.803 147.491 398.55 147.725C398.624 147.749 398.728 147.809 398.788 147.968C399.131 148.882 397.674 153.636 396.698 155.228L396.332 155.003C397.385 153.285 398.694 148.6 398.379 148.106C397.713 147.912 387.108 149.411 378.588 150.614C370.846 151.708 363.533 152.74 362.376 152.699C362.342 152.698 362.306 152.698 362.265 152.703C359.919 152.934 346.587 161.663 341.558 165.068Z" fill="#020023"/>
<path d="M380.329 184.809L386.814 186.032L388.242 184.317L381.283 183.387L380.329 184.809Z" fill="#020023"/>
<path d="M382.039 183.7C381.978 183.706 381.916 183.686 381.869 183.64C381.783 183.558 381.781 183.421 381.864 183.336C381.942 183.254 389.728 175.185 392.894 170.25C396.047 165.336 396.724 163.218 396.73 163.197C396.766 163.083 396.887 163.02 396.999 163.055C397.113 163.09 397.177 163.209 397.142 163.323C397.114 163.411 396.45 165.504 393.255 170.482C390.065 175.453 382.251 183.552 382.172 183.634C382.136 183.672 382.088 183.695 382.039 183.7Z" fill="#020023"/>
<path d="M388.141 174.197C388.101 174.201 388.058 174.194 388.02 174.174C387.914 174.119 387.875 173.99 387.929 173.884L393.813 162.608C393.868 162.502 393.998 162.462 394.103 162.517C394.209 162.572 394.251 162.702 394.195 162.808L388.31 174.082C388.275 174.149 388.21 174.19 388.141 174.197Z" fill="#020023"/>
<path d="M409.993 168.289C409.926 168.295 409.858 168.27 409.81 168.216L404.855 162.562L404.881 162.454C404.884 162.44 405.19 161.109 404.866 156.818C404.54 152.513 401.822 147.895 401.794 147.848C401.733 147.746 401.768 147.615 401.87 147.553C401.97 147.493 402.103 147.526 402.164 147.629C402.192 147.676 404.961 152.381 405.295 156.785C405.578 160.522 405.39 162.041 405.321 162.442L410.133 167.934C410.212 168.023 410.203 168.158 410.114 168.236C410.079 168.267 410.036 168.285 409.993 168.289Z" fill="#020023"/>
<path d="M393.483 189.003C393.431 189.008 393.376 188.994 393.331 188.958C393.237 188.886 393.22 188.75 393.293 188.657C393.34 188.595 398.128 182.404 400.955 176.346C403.781 170.29 404.741 165.265 404.75 165.215C404.772 165.098 404.883 165.021 405.002 165.043C405.119 165.065 405.195 165.178 405.173 165.295C405.164 165.345 404.195 170.423 401.345 176.528C398.497 182.631 393.68 188.858 393.631 188.92C393.594 188.969 393.54 188.998 393.483 189.003Z" fill="#020023"/>
<path d="M424.645 169.94C423.885 170.016 422.552 169.626 422.093 169.482C421.979 169.447 421.916 169.325 421.952 169.212C421.988 169.099 422.107 169.036 422.221 169.072C423.42 169.448 424.649 169.635 424.801 169.464C424.77 168.759 423.534 158.675 423.522 158.574C423.507 158.456 423.591 158.349 423.709 158.334C423.711 158.333 423.712 158.334 423.713 158.333C423.829 158.321 423.934 158.405 423.948 158.521C423.998 158.937 425.199 168.724 425.227 169.45C425.233 169.594 425.173 169.722 425.058 169.809C424.961 169.883 424.818 169.924 424.645 169.94Z" fill="#020023"/>
<path d="M418.701 187.947C418.658 187.951 418.613 187.943 418.572 187.919C418.469 187.86 418.433 187.728 418.493 187.626C418.523 187.576 421.416 182.58 422.745 179.377C424.066 176.191 424.423 171.67 424.427 171.625C424.436 171.506 424.543 171.414 424.657 171.427C424.776 171.436 424.865 171.539 424.856 171.657C424.852 171.704 424.489 176.294 423.142 179.542C421.802 182.772 418.895 187.792 418.866 187.842C418.83 187.904 418.767 187.94 418.701 187.947Z" fill="#020023"/>
<path d="M415.322 144.342C415.322 144.342 418.149 143.947 419.729 142.68C421.309 141.414 421.927 140.595 421.913 139.74C421.883 137.944 423.937 135.426 424.217 136.485C424.496 137.544 423.295 139.553 424.044 139.247C424.792 138.941 425.774 136.108 427.69 136.022C429.606 135.935 430.086 137.711 432.061 138.188C434.198 138.703 437.428 138.883 438.668 138.576C442.785 137.56 445.002 135.554 444.635 133.083C444.07 129.275 440.298 128.259 434.695 127.978C428.889 127.686 421.012 128.394 420.632 129.999C420.252 131.603 422.335 134.119 420.891 133.512C419.447 132.905 418.292 133.466 417.884 134.734C417.032 137.376 417.58 141.744 415.322 144.342Z" fill="#172755"/>
<path d="M408.634 148.677C408.853 148.7 410.668 150.101 412.891 152.579C415.115 155.059 416.293 157.674 416.293 157.674C416.293 157.674 415.895 158.04 416.348 159.018C416.802 159.996 416.542 159.898 416.542 159.898C416.542 159.898 415.727 160.083 415.466 159.695C415.204 159.307 414.667 158.14 414.667 158.14L412.786 159.74C412.786 159.74 410.781 157.112 409.122 154.015C407.849 151.637 406.055 148.506 406.055 148.506L408.634 148.677Z" fill="url(#paint7_linear_145_10307)"/>
<path d="M418.251 153.37L420.733 154.367C420.733 154.367 421.434 155.924 420.887 157.53C420.341 159.135 418.631 160.744 418.61 160.644C418.589 160.545 418.166 158.757 417.954 158.875C417.742 158.994 417.435 159.727 417.435 159.727C417.435 159.727 417.288 155.343 417.602 154.622C417.916 153.902 418.251 153.37 418.251 153.37Z" fill="url(#paint8_linear_145_10307)"/>
<path d="M415.612 159.828L417.098 163.665L418.353 159.679C418.353 159.679 416.543 159.915 415.612 159.828Z" fill="#FF3C00"/>
<path d="M384.223 190.387L389.514 186.541C389.514 186.541 400.161 181.887 407.273 175.73C414.386 169.573 416.781 161.829 416.781 161.829L417.258 163.314C417.258 163.314 413.468 175.914 404.775 183.403C396.082 190.893 390.884 191.642 384.223 190.387Z" fill="#FF3C00"/>
<path d="M421.304 149.752L419.43 146.768C419.43 146.768 417.779 150.181 417.081 152.033C416.384 153.885 417.485 155.994 417.485 155.994C417.485 155.994 417.435 155.013 418.103 153.803C418.772 152.593 421.304 149.752 421.304 149.752Z" fill="#EF8B59"/>
<path d="M421.746 140.508C421.746 140.508 420.487 138.407 420.013 136.475C419.538 134.544 419.971 133.278 419.971 133.278C419.971 133.278 418.319 132.899 417.757 134.819C417.168 136.826 417.093 140.161 416.566 141.733C416.039 143.305 415.323 144.342 415.323 144.342C415.323 144.342 420.471 143.874 421.746 140.508Z" fill="#020023"/>
<path d="M429.532 136.227C429.522 136.225 429.513 136.224 429.508 136.224C429.391 136.208 429.308 136.1 429.323 135.982C429.338 135.866 429.446 135.783 429.563 135.797C429.563 135.797 429.562 135.797 429.568 135.798C429.737 135.818 434.958 136.43 438.322 133.825C438.992 133.305 439.281 132.797 439.181 132.312C438.907 130.976 435.832 129.9 434.669 129.598C434.555 129.568 434.485 129.451 434.515 129.336C434.545 129.22 434.664 129.151 434.778 129.181C434.959 129.229 439.22 130.355 439.604 132.226C439.738 132.885 439.396 133.538 438.585 134.166C435.123 136.847 429.981 136.283 429.532 136.227Z" fill="#020023"/>
<path d="M428.357 135.932C428.276 135.94 428.194 135.9 428.151 135.826C428.091 135.723 428.125 135.592 428.228 135.532C431.676 133.519 434.482 131.43 434.355 130.97C434.186 130.358 432.505 130.217 431.485 130.273C431.367 130.279 431.266 130.188 431.26 130.069C431.253 129.951 431.347 129.848 431.463 129.843C431.768 129.826 434.454 129.712 434.771 130.855C435.069 131.939 430.004 134.993 428.444 135.903C428.417 135.918 428.387 135.929 428.357 135.932Z" fill="#020023"/>
<path d="M424.834 137.563C424.82 137.558 424.808 137.552 424.795 137.544C424.692 137.485 424.656 137.355 424.715 137.252C424.724 137.236 425.388 135.999 424.62 133.577C423.85 131.152 421.637 130.546 421.612 130.537C421.5 130.509 421.429 130.388 421.459 130.274C421.49 130.16 421.608 130.092 421.722 130.122C421.821 130.148 424.19 130.8 425.029 133.447C425.863 136.072 425.12 137.41 425.088 137.465C425.036 137.555 424.928 137.594 424.834 137.563Z" fill="#020023"/>
<path d="M436.888 138.026C434.041 138.307 431.521 137.646 431.365 137.604C431.249 137.573 431.183 137.454 431.213 137.34C431.244 137.224 431.361 137.157 431.476 137.188C431.531 137.203 437.088 138.661 440.923 136.336C441.891 135.749 442.379 135.179 442.337 134.685C442.276 133.987 441.208 133.561 441.198 133.557C441.087 133.514 441.032 133.389 441.076 133.279C441.118 133.169 441.242 133.114 441.354 133.156C441.408 133.177 442.682 133.682 442.765 134.646C442.824 135.324 442.28 136.015 441.146 136.703C439.814 137.51 438.31 137.885 436.888 138.026Z" fill="#020023"/>
<path d="M470.506 152.973L434.188 145.488L434.814 142.45L471.132 149.934L470.506 152.973Z" fill="#FF3C00"/>
<path d="M483.013 157.516L446.863 149.218L447.931 144.037L484.442 150.584L483.013 157.516Z" fill="#FF3C00"/>
<path d="M496.537 162.452L465.635 154.648L467.349 146.33L498.83 151.323L496.537 162.452Z" fill="#FF3C00"/>
<path d="M497.822 150.993L465.635 154.648L495.514 162.193L497.822 150.993Z" fill="#DD2400"/>
<path d="M466.982 147.453L465.855 153.577L446.863 149.218L466.982 147.453Z" fill="#DD2400"/>
<path d="M447.669 145.306L447.085 148.147L435.408 145.653L447.669 145.306Z" fill="#DD2400"/>
<path d="M498.168 165.726L494.923 165.057L498.228 149.023L501.472 149.692L498.168 165.726Z" fill="#FF3C00"/>
<path d="M435.222 146.549L432.817 146.053L433.778 141.39L436.183 141.886L435.222 146.549Z" fill="#FF3C00"/>
<path d="M457.775 145.991C457.775 145.991 457.944 148.646 458.327 148.974C458.71 149.302 459.058 148.306 459.058 148.306C459.058 148.306 459.027 149.606 459.53 149.628C460.033 149.649 460.283 148.677 460.283 148.677C460.283 148.677 460.294 149.737 460.742 149.594C461.19 149.451 461.506 148.555 461.506 148.555C461.506 148.555 461.278 149.408 461.748 149.637C462.218 149.865 462.544 148.609 462.565 147.45C462.585 146.292 462.453 145.811 462.148 145.746C461.842 145.681 461.721 145.823 461.721 145.823C461.721 145.823 461.383 145.147 460.967 145.245C460.552 145.344 460.478 145.572 460.478 145.572C460.478 145.572 459.885 144.668 459.47 144.821C459.055 144.975 458.873 145.283 458.873 145.283C458.873 145.283 458.354 144.505 458.027 144.725C457.699 144.944 457.096 145.681 457.096 145.681L457.775 145.991Z" fill="#FFB68E"/>
<path d="M455.503 155.03C455.503 155.03 453.521 150.589 453.745 149.73C453.97 148.871 456.186 147.011 456.607 146.807C457.027 146.602 455.827 149.697 455.542 150.337C455.257 150.976 456.608 151.209 458.007 151.666C459.864 152.274 460.773 152.51 460.901 152.845C461.03 153.179 459.017 155.267 459.017 155.267L455.503 155.03Z" fill="#FFB68E"/>
<path d="M459.016 155.267C459.016 155.267 457.857 154.955 456.752 153.834C455.648 152.714 455.641 150.862 455.641 150.862C455.641 150.862 457.732 150.938 459.184 151.573C460.637 152.208 461.15 152.497 461.15 152.497C461.15 152.497 460.555 154.314 459.016 155.267Z" fill="#EF8B59"/>
<path d="M435.407 145.653L447.668 145.306L435.407 145.653Z" fill="#DD2400"/>
<g opacity="0.66">
<path d="M468.815 146.563C468.815 146.563 474.696 148.618 479.869 150.531C485.043 152.444 493.028 150.403 493.028 150.403L468.815 146.563Z" fill="url(#paint9_linear_145_10307)"/>
</g>
<g opacity="0.66">
<path d="M498.228 149.023C498.228 149.023 497.895 155.284 497.951 158.131C498.006 160.977 498.697 163.158 498.697 163.158L501.472 149.692L498.228 149.023Z" fill="url(#paint10_linear_145_10307)"/>
</g>
<path d="M404.825 200.941C409.282 199.798 445.419 206.189 446.353 212.42C447.287 218.651 426.814 253.949 426.814 253.949L418.178 253.086C418.178 253.086 421.534 245.623 424.773 236.947C430.005 222.931 430.944 221.137 430.944 221.137C429.224 219.099 387.56 217.686 387.56 217.686C387.56 217.686 399.75 202.242 404.825 200.941Z" fill="#19437F"/>
<path d="M389.429 220.192C388.269 220.024 393.8 217.814 395.344 212.985C396.889 208.157 398.733 205.247 398.422 205.545C398.111 205.843 398.359 212.796 399.307 212.551C400.254 212.306 408.256 209.725 426.511 212.077C434.202 213.067 434.759 214.821 435.435 214.997C436.111 215.173 443.241 213.188 441.823 214.144C440.406 215.101 434.551 218.469 435.538 218.449C436.525 218.43 440.791 218.27 438.54 219.461C436.29 220.653 431.584 223.018 432.808 223.026C434.031 223.034 436.563 223.329 435.106 224.269C433.649 225.208 428.191 238.904 427.547 242.862C426.903 246.821 426.814 253.949 426.814 253.949L418.177 253.086C418.177 253.086 430.879 222.106 429.553 220.951C427.46 219.127 403.125 218.062 399.74 218.387C396.897 218.66 394.203 220.881 389.429 220.192Z" fill="url(#paint11_linear_145_10307)"/>
<path d="M337.413 293.397C337.413 293.397 336.39 292.781 337.028 291.094C337.666 289.406 338.588 287.959 338.588 287.959L332.477 286.805C332.477 286.805 329.858 295.004 331.864 296.268C333.185 297.102 335.366 294.31 337.413 293.397Z" fill="white"/>
<path d="M330.125 294.868C330.125 294.868 330.822 297.616 332.866 297.309C334.909 297.002 349.848 294.091 349.461 293.591C349.074 293.091 349.211 292.047 348.809 292.078C348.408 292.109 341.615 292.895 340.022 291.395C338.429 289.895 338.936 288.27 338.936 288.27L335.639 288.971C335.639 288.971 336.461 291.57 335.926 292.643C335.392 293.715 330.125 294.868 330.125 294.868Z" fill="#050023"/>
<path d="M425.442 259.478C425.442 259.478 424.38 258.929 424.909 257.205C425.438 255.48 426.264 253.976 426.264 253.976L420.092 253.216C420.092 253.216 418.005 261.566 420.087 262.7C421.46 263.448 423.456 260.521 425.442 259.478Z" fill="white"/>
<path d="M418.263 261.413C418.263 261.413 419.135 264.111 421.154 263.674C423.173 263.236 437.894 259.374 437.476 258.9C437.057 258.426 437.128 257.374 436.729 257.431C436.33 257.489 429.603 258.707 427.916 257.313C426.23 255.917 426.631 254.265 426.631 254.265L423.387 255.175C423.387 255.175 424.373 257.717 423.908 258.821C423.443 259.926 418.263 261.413 418.263 261.413Z" fill="#050023"/>
<path d="M367.904 207.26C367.832 207.231 367.792 207.211 367.782 207.206C367.65 207.136 367.599 206.972 367.669 206.84C367.738 206.708 367.903 206.662 368.033 206.726C368.049 206.735 369.932 207.652 375.198 206.726C378.847 206.085 383.26 203.691 385.897 202.26C387.515 201.383 388.184 201.027 388.499 201.046C388.727 201.06 389.117 201.178 389.657 201.34C391.149 201.787 393.648 202.538 395.505 201.968C397.461 201.368 399.367 201.194 400.759 201.068C401.241 201.025 401.672 200.985 402.033 200.936C403.444 200.74 404.798 200.67 404.811 200.67C404.961 200.661 405.087 200.778 405.095 200.926C405.103 201.076 404.989 201.203 404.839 201.21C404.825 201.211 403.493 201.281 402.106 201.473C401.739 201.524 401.3 201.563 400.808 201.607C399.44 201.732 397.565 201.901 395.664 202.485C393.649 203.103 391.052 202.324 389.5 201.859C389.034 201.718 388.631 201.598 388.466 201.587C388.253 201.599 387.187 202.177 386.157 202.736C383.49 204.183 379.028 206.604 375.292 207.26C370.49 208.104 368.407 207.463 367.904 207.26Z" fill="#020023"/>
<path d="M384.792 201.732C384.768 201.722 384.745 201.709 384.724 201.691C384.608 201.598 384.59 201.427 384.684 201.31C384.769 201.205 386.811 198.693 389.803 196.928C393.283 194.876 395.732 194.214 395.835 194.186C395.978 194.148 396.126 194.234 396.165 194.378C396.204 194.523 396.118 194.672 395.974 194.71C395.95 194.716 393.488 195.385 390.078 197.395C387.174 199.108 385.125 201.626 385.105 201.651C385.027 201.746 384.9 201.776 384.792 201.732Z" fill="#020023"/>
<path d="M391.913 202.309C391.783 202.256 391.713 202.109 391.757 201.973C391.771 201.929 392.121 200.894 393.154 199.809C394.162 198.75 397.104 196.586 397.229 196.496C397.348 196.407 397.518 196.434 397.607 196.554C397.696 196.674 397.67 196.843 397.549 196.932C397.519 196.954 394.521 199.158 393.547 200.182C392.603 201.174 392.276 202.133 392.272 202.143C392.224 202.284 392.072 202.362 391.929 202.315C391.924 202.313 391.919 202.311 391.913 202.309Z" fill="#020023"/>
<path d="M370.687 213.391L371.553 210.745L371.753 210.747C371.805 210.748 376.889 210.813 379.544 210.533C382.092 210.263 382.69 209.953 382.714 209.94L383.222 209.666L382.652 212.504L382.477 212.54C382.444 212.546 379.116 213.24 376.772 213.516C374.409 213.795 371.157 213.441 371.019 213.426L370.687 213.391ZM371.945 211.291L371.411 212.921C372.309 213.003 374.838 213.198 376.709 212.977C378.723 212.74 381.478 212.192 382.192 212.046L382.486 210.592C382.019 210.724 381.151 210.907 379.601 211.071C377.215 211.324 372.919 211.299 371.945 211.291Z" fill="#020023"/>
<path d="M361.353 258.907C360.685 258.637 359.801 258.053 358.747 256.837C356.421 254.153 355.908 252.983 355.887 252.935L355.844 252.834L355.884 252.731C355.896 252.703 357.005 249.819 357.965 246.994C358.917 244.192 366.18 220.294 367.692 215.061C369.175 209.932 370.598 207.441 370.659 207.337C370.734 207.208 370.895 207.169 371.029 207.239C371.158 207.314 371.202 207.479 371.127 207.609C371.113 207.634 369.674 210.154 368.213 215.211C366.699 220.447 359.432 244.363 358.478 247.168C357.621 249.69 356.645 252.258 356.432 252.816C356.599 253.138 357.264 254.297 359.157 256.482C361.292 258.95 362.555 258.562 362.569 258.556C362.709 258.511 362.862 258.583 362.913 258.72C362.962 258.859 362.895 259.012 362.758 259.064C362.722 259.078 362.22 259.257 361.353 258.907Z" fill="#020023"/>
<path d="M363.971 254.753C363.945 254.742 363.919 254.728 363.896 254.708C362.36 253.393 358.796 250.244 358.873 249.424C358.885 249.296 358.956 249.187 359.065 249.123C359.766 248.722 365.848 250.297 368.431 250.994C368.573 251.029 368.661 251.182 368.622 251.326C368.583 251.47 368.435 251.555 368.29 251.517C364.516 250.5 360.355 249.542 359.454 249.579C359.793 250.249 362.116 252.47 364.249 254.296C364.362 254.394 364.376 254.565 364.278 254.678C364.2 254.769 364.076 254.795 363.971 254.753Z" fill="#020023"/>
<path d="M361.676 248.241L361.703 247.699L368.09 248.018L368.063 248.56L361.676 248.241Z" fill="#020023"/>
<path d="M332.155 286.641C332.133 286.632 332.112 286.62 332.093 286.605C331.973 286.514 331.95 286.345 332.041 286.226L334.768 282.643L342.74 285.253C342.888 285.291 342.961 285.452 342.914 285.594C342.867 285.737 342.715 285.814 342.573 285.767L334.966 283.278L332.472 286.553C332.396 286.653 332.265 286.686 332.155 286.641Z" fill="#020023"/>
<path d="M389.328 220.443C389.294 220.429 389.261 220.407 389.234 220.379C389.13 220.271 389.133 220.1 389.242 219.996C389.243 219.997 391.225 218.095 393.402 215.944C395.01 214.355 395.317 212.902 395.541 211.84C395.613 211.499 395.682 211.178 395.782 210.898C396.179 209.79 398.096 205.61 398.177 205.432C398.238 205.296 398.406 205.23 398.536 205.299C398.672 205.36 398.731 205.521 398.669 205.658C398.649 205.7 396.681 209.995 396.292 211.082C396.204 211.326 396.143 211.616 396.072 211.952C395.834 213.08 395.506 214.626 393.783 216.329C391.602 218.484 389.617 220.387 389.617 220.387C389.538 220.463 389.423 220.481 389.328 220.443Z" fill="#020023"/>
<path d="M389.327 220.443C389.207 220.394 389.136 220.264 389.165 220.132C389.198 219.985 389.342 219.896 389.488 219.928C389.527 219.937 393.398 220.776 396.747 218.933C399.095 217.638 401.336 217.817 405.804 218.173C408.162 218.361 411.099 218.596 415.009 218.694C422.492 218.882 425.77 219.582 427.728 220.001C428.616 220.191 429.257 220.329 429.903 220.338C431.429 220.36 436.287 216.535 438.03 215.059C438.145 214.963 438.315 214.977 438.412 215.09C438.508 215.205 438.495 215.376 438.381 215.472C437.723 216.028 431.9 220.909 429.893 220.879C429.193 220.868 428.532 220.727 427.614 220.531C425.674 220.116 422.428 219.422 414.996 219.235C411.072 219.136 408.128 218.902 405.762 218.713C401.403 218.365 399.214 218.191 397.009 219.406C393.475 221.353 389.535 220.493 389.369 220.455C389.354 220.452 389.341 220.448 389.327 220.443Z" fill="#020023"/>
<path d="M431.282 223.321C430.765 223.112 430.757 222.925 430.752 222.826C430.721 222.243 433.316 220.767 438.459 218.44C438.597 218.377 438.756 218.44 438.817 218.575C438.878 218.71 438.818 218.873 438.681 218.933C435.398 220.42 431.876 222.209 431.341 222.783C431.886 223.102 434.73 223.431 437.214 223.565C437.359 223.572 437.479 223.701 437.469 223.85C437.461 223.999 437.334 224.114 437.184 224.106C433.543 223.911 431.966 223.597 431.282 223.321Z" fill="#020023"/>
<path d="M417.77 253.312L420.013 248.598L423.204 248.916L429.268 250.196L426.958 254.242L426.777 254.217C426.763 254.216 425.37 254.019 424.155 253.955C422.919 253.889 418.342 253.378 418.147 253.355L417.77 253.312ZM420.338 249.174L418.586 252.858C419.735 252.986 423.167 253.36 424.184 253.415C425.161 253.467 426.246 253.601 426.669 253.655L428.428 250.573L423.122 249.45L420.338 249.174Z" fill="#020023"/>
<path d="M412.142 200.976L411.66 200.729C411.704 200.639 416.18 191.648 418.432 187.552C418.887 186.721 418.912 186.675 419.163 186.804C419.256 186.854 419.317 186.887 419.214 187.184L419.246 187.211C419.228 187.236 419.187 187.307 419.121 187.424C418.806 188.168 417.906 189.897 415.731 194.084C413.94 197.531 412.142 200.976 412.142 200.976Z" fill="#020023"/>
<defs>
<linearGradient id="paint0_linear_145_10307" x1="358.911" y1="241.391" x2="401.658" y2="255.373" gradientUnits="userSpaceOnUse">
<stop offset="0.12" stop-color="#0A2D51"/>
<stop offset="0.3" stop-color="#123868"/>
<stop offset="0.49" stop-color="#19437F"/>
</linearGradient>
<linearGradient id="paint1_linear_145_10307" x1="357.641" y1="244.468" x2="390.29" y2="255.148" gradientUnits="userSpaceOnUse">
<stop offset="0.12" stop-color="#0A2D51"/>
<stop offset="0.3" stop-color="#123868"/>
<stop offset="0.49" stop-color="#19437F"/>
</linearGradient>
<linearGradient id="paint2_linear_145_10307" x1="391.997" y1="182.479" x2="434.046" y2="196.233" gradientUnits="userSpaceOnUse">
<stop offset="0.11" stop-color="#FFFFA4"/>
<stop offset="0.26" stop-color="#FFE96C"/>
<stop offset="0.41" stop-color="#FFD234"/>
<stop offset="0.61" stop-color="#FFB21A"/>
<stop offset="0.8" stop-color="#FF9200"/>
</linearGradient>
<linearGradient id="paint3_linear_145_10307" x1="395.089" y1="185.437" x2="451.663" y2="163.453" gradientUnits="userSpaceOnUse">
<stop offset="0.12" stop-color="#0A2D51"/>
<stop offset="0.3" stop-color="#123868"/>
<stop offset="0.49" stop-color="#19437F"/>
</linearGradient>
<linearGradient id="paint4_linear_145_10307" x1="431.316" y1="187.562" x2="439.72" y2="190.311" gradientUnits="userSpaceOnUse">
<stop offset="0.12" stop-color="#0A2D51"/>
<stop offset="0.56" stop-color="#0A2D51"/>
<stop offset="1" stop-color="#0A2D51"/>
</linearGradient>
<linearGradient id="paint5_linear_145_10307" x1="442.494" y1="170.276" x2="473.744" y2="180.498" gradientUnits="userSpaceOnUse">
<stop offset="0.12" stop-color="#0A2D51"/>
<stop offset="0.56" stop-color="#0A2D51"/>
<stop offset="1" stop-color="#0A2D51"/>
</linearGradient>
<linearGradient id="paint6_linear_145_10307" x1="370.083" y1="165.051" x2="426.567" y2="155.163" gradientUnits="userSpaceOnUse">
<stop offset="0.12" stop-color="#0A2D51"/>
<stop offset="0.3" stop-color="#123868"/>
<stop offset="0.49" stop-color="#19437F"/>
</linearGradient>
<linearGradient id="paint7_linear_145_10307" x1="432.495" y1="160.782" x2="420.409" y2="166.934" gradientUnits="userSpaceOnUse">
<stop offset="0.11" stop-color="#FFFFA4"/>
<stop offset="0.26" stop-color="#FFE96C"/>
<stop offset="0.41" stop-color="#FFD234"/>
<stop offset="0.61" stop-color="#FFB21A"/>
<stop offset="0.8" stop-color="#FF9200"/>
</linearGradient>
<linearGradient id="paint8_linear_145_10307" x1="438.195" y1="163.221" x2="430.285" y2="168.865" gradientUnits="userSpaceOnUse">
<stop offset="0.11" stop-color="#FFFFA4"/>
<stop offset="0.26" stop-color="#FFE96C"/>
<stop offset="0.41" stop-color="#FFD234"/>
<stop offset="0.61" stop-color="#FFB21A"/>
<stop offset="0.8" stop-color="#FF9200"/>
</linearGradient>
<linearGradient id="paint9_linear_145_10307" x1="486.134" y1="158.16" x2="509.14" y2="165.686" gradientUnits="userSpaceOnUse">
<stop offset="0.06" stop-color="white"/>
<stop offset="0.24" stop-color="white"/>
<stop offset="0.43" stop-color="white"/>
<stop offset="0.71" stop-color="white"/>
<stop offset="1" stop-color="white"/>
</linearGradient>
<linearGradient id="paint10_linear_145_10307" x1="513.467" y1="169.765" x2="518.07" y2="171.271" gradientUnits="userSpaceOnUse">
<stop offset="0.06" stop-color="white"/>
<stop offset="0.24" stop-color="white"/>
<stop offset="0.43" stop-color="white"/>
<stop offset="0.71" stop-color="white"/>
<stop offset="1" stop-color="white"/>
</linearGradient>
<linearGradient id="paint11_linear_145_10307" x1="401.445" y1="229.126" x2="447.277" y2="244.117" gradientUnits="userSpaceOnUse">
<stop offset="0.12" stop-color="#0A2D51"/>
<stop offset="0.56" stop-color="#0A2D51"/>
<stop offset="1" stop-color="#0A2D51"/>
</linearGradient>
</defs>
</svg>
