<svg width="1440" height="327" viewBox="0 0 1440 327" fill="none" xmlns="http://www.w3.org/2000/svg">
<path d="M687.001 42.8754C687.001 32.1373 695.706 23.4327 706.444 23.4327C709.318 23.4327 712.044 24.0612 714.499 25.1804C714.714 11.2372 726.081 0 740.076 0C751.991 0 762.003 8.14561 764.848 19.172C767.65 17.9231 770.753 17.2278 774.019 17.2278C786.47 17.2278 796.563 27.3217 796.563 39.7731C796.563 52.0855 786.693 62.0914 774.434 62.313L774.435 62.3182H705.701L705.706 62.2996C695.311 61.9115 687.001 53.3662 687.001 42.8754Z" fill="#EFEFEF"/>
<path d="M100 136.875C100 126.137 108.705 117.433 119.443 117.433C122.317 117.433 125.043 118.061 127.498 119.18C127.713 105.237 139.08 94 153.075 94C164.99 94 175.002 102.146 177.847 113.172C180.649 111.923 183.752 111.228 187.018 111.228C199.469 111.228 209.562 121.322 209.562 133.773C209.562 146.085 199.692 156.091 187.433 156.313L187.435 156.318H118.7L118.705 156.3C108.31 155.911 100 147.366 100 136.875Z" fill="#EFEFEF"/>
<path d="M325 73.8754C325 63.1373 333.705 54.4327 344.443 54.4327C347.317 54.4327 350.043 55.0612 352.498 56.1804C352.713 42.2372 364.08 31 378.075 31C389.99 31 400.002 39.1456 402.847 50.172C405.649 48.9231 408.752 48.2278 412.018 48.2278C424.469 48.2278 434.562 58.3217 434.562 70.7731C434.562 83.0855 424.692 93.0914 412.433 93.313L412.435 93.3182H343.7L343.705 93.2996C333.31 92.9115 325 84.3662 325 73.8754Z" fill="#EFEFEF"/>
<path d="M1365 108.875C1365 98.1373 1373.7 89.4327 1384.44 89.4327C1387.32 89.4327 1390.04 90.0612 1392.5 91.1804C1392.71 77.2372 1404.08 66 1418.07 66C1429.99 66 1440 74.1456 1442.85 85.172C1445.65 83.9231 1448.75 83.2278 1452.02 83.2278C1464.47 83.2278 1474.56 93.3217 1474.56 105.773C1474.56 118.085 1464.69 128.091 1452.43 128.313L1452.43 128.318H1383.7L1383.71 128.3C1373.31 127.911 1365 119.366 1365 108.875Z" fill="#EFEFEF"/>
<path d="M-50 306.875C-50 296.137 -41.2951 287.433 -30.5574 287.433C-27.6831 287.433 -24.9573 288.061 -22.5024 289.18C-22.2873 275.237 -10.9195 264 3.07489 264C14.9903 264 25.0025 272.146 27.8474 283.172C30.6493 281.923 33.752 281.228 37.0178 281.228C49.4687 281.228 59.5625 291.322 59.5625 303.773C59.5625 316.085 49.6923 326.091 37.433 326.313L37.4345 326.318H-31.3003L-31.2945 326.3C-41.6903 325.911 -50 317.366 -50 306.875Z" fill="#EFEFEF"/>
<path d="M1198 143.875C1198 133.137 1206.7 124.433 1217.44 124.433C1220.32 124.433 1223.04 125.061 1225.5 126.18C1225.71 112.237 1237.08 101 1251.07 101C1262.99 101 1273 109.146 1275.85 120.172C1278.65 118.923 1281.75 118.228 1285.02 118.228C1297.47 118.228 1307.56 128.322 1307.56 140.773C1307.56 153.085 1297.69 163.091 1285.43 163.313L1285.43 163.318H1216.7L1216.71 163.3C1206.31 162.911 1198 154.366 1198 143.875Z" fill="#EFEFEF"/>
</svg>
