<svg width="234" height="52" viewBox="0 0 234 52" fill="none" xmlns="http://www.w3.org/2000/svg">
<path d="M24.1405 9.8608C24.5924 8.46992 26.5602 8.46992 27.0121 9.8608L29.7579 18.3116C29.96 18.9336 30.5397 19.3548 31.1937 19.3548H40.0794C41.5419 19.3548 42.1499 21.2262 40.9668 22.0858L33.7781 27.3087C33.249 27.6931 33.0276 28.3745 33.2297 28.9965L35.9755 37.4473C36.4274 38.8382 34.8355 39.9948 33.6523 39.1352L26.4637 33.9123C25.9345 33.5279 25.218 33.5279 24.6889 33.9123L17.5002 39.1352C16.3171 39.9948 14.7252 38.8382 15.1771 37.4473L17.9229 28.9965C18.125 28.3745 17.9036 27.6931 17.3745 27.3087L10.1858 22.0858C9.00267 21.2262 9.61073 19.3548 11.0732 19.3548H19.9589C20.6129 19.3548 21.1926 18.9336 21.3947 18.3116L24.1405 9.8608Z" fill="#E04048"/>
<path d="M69.8524 9.8608C70.3043 8.46992 72.2721 8.46992 72.724 9.8608L75.4698 18.3116C75.6719 18.9336 76.2516 19.3548 76.9056 19.3548H85.7913C87.2538 19.3548 87.8618 21.2262 86.6787 22.0858L79.49 27.3087C78.9609 27.6931 78.7395 28.3745 78.9416 28.9965L81.6874 37.4473C82.1393 38.8382 80.5474 39.9948 79.3642 39.1352L72.1756 33.9123C71.6464 33.5279 70.93 33.5279 70.4008 33.9123L63.2122 39.1352C62.029 39.9948 60.4371 38.8382 60.889 37.4473L63.6348 28.9965C63.8369 28.3745 63.6155 27.6931 63.0864 27.3087L55.8977 22.0858C54.7146 21.2262 55.3226 19.3548 56.7851 19.3548H65.6708C66.3248 19.3548 66.9045 18.9336 67.1066 18.3116L69.8524 9.8608Z" fill="#E04048"/>
<path d="M115.564 9.8608C116.016 8.46992 117.984 8.46992 118.436 9.8608L121.182 18.3116C121.384 18.9336 121.963 19.3548 122.618 19.3548H131.503C132.966 19.3548 133.574 21.2262 132.391 22.0858L125.202 27.3087C124.673 27.6931 124.451 28.3745 124.653 28.9965L127.399 37.4473C127.851 38.8382 126.259 39.9948 125.076 39.1352L117.887 33.9123C117.358 33.5279 116.642 33.5279 116.113 33.9123L108.924 39.1352C107.741 39.9948 106.149 38.8382 106.601 37.4473L109.347 28.9965C109.549 28.3745 109.327 27.6931 108.798 27.3087L101.61 22.0858C100.426 21.2262 101.035 19.3548 102.497 19.3548H111.383C112.037 19.3548 112.616 18.9336 112.818 18.3116L115.564 9.8608Z" fill="#E04048"/>
<path d="M161.276 9.8608C161.728 8.46992 163.696 8.46992 164.148 9.8608L166.894 18.3116C167.096 18.9336 167.675 19.3548 168.329 19.3548H177.215C178.678 19.3548 179.286 21.2262 178.103 22.0858L170.914 27.3087C170.385 27.6931 170.163 28.3745 170.365 28.9965L173.111 37.4473C173.563 38.8382 171.971 39.9948 170.788 39.1352L163.599 33.9123C163.07 33.5279 162.354 33.5279 161.825 33.9123L154.636 39.1352C153.453 39.9948 151.861 38.8382 152.313 37.4473L155.059 28.9965C155.261 28.3745 155.039 27.6931 154.51 27.3087L147.322 22.0858C146.138 21.2262 146.746 19.3548 148.209 19.3548H157.095C157.749 19.3548 158.328 18.9336 158.53 18.3116L161.276 9.8608Z" fill="#E04048"/>
<path d="M206.987 9.8608C207.439 8.46992 209.407 8.46992 209.859 9.8608L212.605 18.3116C212.807 18.9336 213.386 19.3548 214.04 19.3548H222.926C224.389 19.3548 224.997 21.2262 223.813 22.0858L216.625 27.3087C216.096 27.6931 215.874 28.3745 216.076 28.9965L218.822 37.4473C219.274 38.8382 217.682 39.9948 216.499 39.1352L209.31 33.9123C208.781 33.5279 208.065 33.5279 207.536 33.9123L200.347 39.1352C199.164 39.9948 197.572 38.8382 198.024 37.4473L200.77 28.9965C200.972 28.3745 200.75 27.6931 200.221 27.3087L193.033 22.0858C191.849 21.2262 192.457 19.3548 193.92 19.3548H202.806C203.46 19.3548 204.039 18.9336 204.241 18.3116L206.987 9.8608Z" fill="#E04048"/>
</svg>
